<?xml version="1.0" encoding="UTF-8" standalone="no"?>
<!DOCTYPE svg PUBLIC "-//W3C//DTD SVG 1.1//EN"
 "http://www.w3.org/Graphics/SVG/1.1/DTD/svg11.dtd">
<!-- Generated by graphviz version 2.43.0 (0)
 -->
<!-- Title: %3 Pages: 1 -->
<svg width="1438pt" height="1534pt"
 viewBox="0.00 0.00 1438.00 1534.46" xmlns="http://www.w3.org/2000/svg" xmlns:xlink="http://www.w3.org/1999/xlink">
<g id="graph0" class="graph" transform="scale(1 1) rotate(0) translate(4 1530.46)">
<title>%3</title>
<polygon fill="#242424" stroke="transparent" points="-4,4 -4,-1530.46 1434,-1530.46 1434,4 -4,4"/>
<!-- cli -->
<g id="node1" class="node">
<title>cli</title>
<polygon fill="#343434" stroke="#343434" points="68.5,-70.57 14.5,-70.57 14.5,-34.57 68.5,-34.57 68.5,-70.57"/>
<text text-anchor="middle" x="41.5" y="-48.87" font-family="Courier,monospace" font-size="14.00" fill="#b6ecf3">cli</text>
</g>
<!-- flatiron\.command -->
<g id="node2" class="node">
<title>flatiron\.command</title>
<polygon fill="#343434" stroke="#343434" points="268,-1258.57 119,-1258.57 119,-1222.57 268,-1222.57 268,-1258.57"/>
<text text-anchor="middle" x="193.5" y="-1236.87" font-family="Courier,monospace" font-size="14.00" fill="#b6ecf3">flatiron.command</text>
</g>
<!-- flatiron\.core\.config -->
<g id="node3" class="node">
<title>flatiron\.core\.config</title>
<polygon fill="#343434" stroke="#343434" points="950,-1384.57 768,-1384.57 768,-1348.57 950,-1348.57 950,-1384.57"/>
<text text-anchor="middle" x="859" y="-1362.87" font-family="Courier,monospace" font-size="14.00" fill="#b6ecf3">flatiron.core.config</text>
</g>
<!-- flatiron\.core\.pipeline -->
<g id="node6" class="node">
<title>flatiron\.core\.pipeline</title>
<polygon fill="#343434" stroke="#343434" points="1188,-1208.57 990,-1208.57 990,-1172.57 1188,-1172.57 1188,-1208.57"/>
<text text-anchor="middle" x="1089" y="-1186.87" font-family="Courier,monospace" font-size="14.00" fill="#b6ecf3">flatiron.core.pipeline</text>
</g>
<!-- flatiron\.core\.config&#45;&gt;flatiron\.core\.pipeline -->
<g id="edge1" class="edge">
<title>flatiron\.core\.config&#45;&gt;flatiron\.core\.pipeline</title>
<path fill="none" stroke="#b6ecf3" d="M884.89,-1348.35C903.92,-1334.33 930.76,-1314.42 954,-1296.57 989.82,-1269.08 1030.43,-1236.79 1057.46,-1215.14"/>
<polygon fill="#b6ecf3" stroke="#b6ecf3" points="1059.78,-1217.77 1065.4,-1208.78 1055.41,-1212.31 1059.78,-1217.77"/>
</g>
<!-- flatiron\.core\.dataset -->
<g id="node4" class="node">
<title>flatiron\.core\.dataset</title>
<polygon fill="#343434" stroke="#343434" points="954,-904.57 764,-904.57 764,-868.57 954,-868.57 954,-904.57"/>
<text text-anchor="middle" x="859" y="-882.87" font-family="Courier,monospace" font-size="14.00" fill="#b6ecf3">flatiron.core.dataset</text>
</g>
<!-- flatiron\.core\.dataset&#45;&gt;flatiron\.core\.pipeline -->
<g id="edge2" class="edge">
<title>flatiron\.core\.dataset&#45;&gt;flatiron\.core\.pipeline</title>
<path fill="none" stroke="#b6ecf3" d="M873.58,-904.68C912.23,-956.22 1022.97,-1103.86 1068.29,-1164.3"/>
<polygon fill="#b6ecf3" stroke="#b6ecf3" points="1065.69,-1166.66 1074.49,-1172.56 1071.29,-1162.46 1065.69,-1166.66"/>
</g>
<!-- flatiron\.tf\.tools -->
<g id="node14" class="node">
<title>flatiron\.tf\.tools</title>
<polygon fill="#343434" stroke="#343434" points="1167.5,-392.57 1010.5,-392.57 1010.5,-356.57 1167.5,-356.57 1167.5,-392.57"/>
<text text-anchor="middle" x="1089" y="-370.87" font-family="Courier,monospace" font-size="14.00" fill="#b6ecf3">flatiron.tf.tools</text>
</g>
<!-- flatiron\.core\.dataset&#45;&gt;flatiron\.tf\.tools -->
<g id="edge3" class="edge">
<title>flatiron\.core\.dataset&#45;&gt;flatiron\.tf\.tools</title>
<path fill="none" stroke="#b6ecf3" d="M869.47,-868.42C886.9,-834.83 924.9,-760.56 954,-696.57 1002.85,-589.17 1054.98,-458.7 1077.08,-402.51"/>
<polygon fill="#b6ecf3" stroke="#b6ecf3" points="1080.46,-403.5 1080.86,-392.91 1073.94,-400.94 1080.46,-403.5"/>
</g>
<!-- flatiron\.core\.logging -->
<g id="node5" class="node">
<title>flatiron\.core\.logging</title>
<polygon fill="#343434" stroke="#343434" points="954,-1254.57 764,-1254.57 764,-1218.57 954,-1218.57 954,-1254.57"/>
<text text-anchor="middle" x="859" y="-1232.87" font-family="Courier,monospace" font-size="14.00" fill="#b6ecf3">flatiron.core.logging</text>
</g>
<!-- flatiron\.core\.logging&#45;&gt;flatiron\.core\.pipeline -->
<g id="edge4" class="edge">
<title>flatiron\.core\.logging&#45;&gt;flatiron\.core\.pipeline</title>
<path fill="none" stroke="#b6ecf3" d="M949.46,-1218.53C962.28,-1215.94 975.54,-1213.26 988.54,-1210.64"/>
<polygon fill="#b6ecf3" stroke="#b6ecf3" points="989.32,-1214.06 998.43,-1208.65 987.93,-1207.19 989.32,-1214.06"/>
</g>
<!-- flatiron\.tf\.models\.unet -->
<g id="node12" class="node">
<title>flatiron\.tf\.models\.unet</title>
<polygon fill="#343434" stroke="#343434" points="1430,-1132.57 1224,-1132.57 1224,-1096.57 1430,-1096.57 1430,-1132.57"/>
<text text-anchor="middle" x="1327" y="-1110.87" font-family="Courier,monospace" font-size="14.00" fill="#b6ecf3">flatiron.tf.models.unet</text>
</g>
<!-- flatiron\.core\.pipeline&#45;&gt;flatiron\.tf\.models\.unet -->
<g id="edge5" class="edge">
<title>flatiron\.core\.pipeline&#45;&gt;flatiron\.tf\.models\.unet</title>
<path fill="none" stroke="#b6ecf3" d="M1145.93,-1172.56C1180.19,-1161.53 1224.21,-1147.35 1260.16,-1135.78"/>
<polygon fill="#b6ecf3" stroke="#b6ecf3" points="1261.62,-1138.98 1270.06,-1132.59 1259.47,-1132.32 1261.62,-1138.98"/>
</g>
<!-- flatiron\.core\.tools -->
<g id="node7" class="node">
<title>flatiron\.core\.tools</title>
<polygon fill="#343434" stroke="#343434" points="707,-704.57 534,-704.57 534,-668.57 707,-668.57 707,-704.57"/>
<text text-anchor="middle" x="620.5" y="-682.87" font-family="Courier,monospace" font-size="14.00" fill="#b6ecf3">flatiron.core.tools</text>
</g>
<!-- flatiron\.core\.tools&#45;&gt;flatiron\.core\.dataset -->
<g id="edge6" class="edge">
<title>flatiron\.core\.tools&#45;&gt;flatiron\.core\.dataset</title>
<path fill="none" stroke="#b6ecf3" d="M707.08,-704.33C714.69,-708.18 721.84,-712.87 728,-718.57 760.53,-748.68 737.77,-775.85 764,-811.57 778.89,-831.86 800.6,-849.67 819.41,-862.84"/>
<polygon fill="#b6ecf3" stroke="#b6ecf3" points="817.57,-865.82 827.81,-868.55 821.51,-860.04 817.57,-865.82"/>
</g>
<!-- flatiron\.core\.tools&#45;&gt;flatiron\.core\.logging -->
<g id="edge7" class="edge">
<title>flatiron\.core\.tools&#45;&gt;flatiron\.core\.logging</title>
<path fill="none" stroke="#b6ecf3" d="M667.75,-704.62C689.14,-715.22 713.07,-730.69 728,-751.57 770.9,-811.57 745.69,-842.13 764,-913.57 792.2,-1023.59 831.8,-1152.85 849.21,-1208.63"/>
<polygon fill="#b6ecf3" stroke="#b6ecf3" points="845.96,-1209.98 852.29,-1218.48 852.64,-1207.89 845.96,-1209.98"/>
</g>
<!-- flatiron\.core\.tools&#45;&gt;flatiron\.core\.pipeline -->
<g id="edge8" class="edge">
<title>flatiron\.core\.tools&#45;&gt;flatiron\.core\.pipeline</title>
<path fill="none" stroke="#b6ecf3" d="M705.64,-704.62C713.45,-707.73 721.04,-711.35 728,-715.57 748.16,-727.82 745.44,-740.02 764,-754.57 839.92,-814.12 890,-787.38 954,-859.57 1035.86,-951.92 1071.43,-1100.77 1083.21,-1162.43"/>
<polygon fill="#b6ecf3" stroke="#b6ecf3" points="1079.82,-1163.36 1085.08,-1172.56 1086.71,-1162.09 1079.82,-1163.36"/>
</g>
<!-- flatiron\.tf\.loss -->
<g id="node10" class="node">
<title>flatiron\.tf\.loss</title>
<polygon fill="#343434" stroke="#343434" points="933.5,-438.57 784.5,-438.57 784.5,-402.57 933.5,-402.57 933.5,-438.57"/>
<text text-anchor="middle" x="859" y="-416.87" font-family="Courier,monospace" font-size="14.00" fill="#b6ecf3">flatiron.tf.loss</text>
</g>
<!-- flatiron\.core\.tools&#45;&gt;flatiron\.tf\.loss -->
<g id="edge9" class="edge">
<title>flatiron\.core\.tools&#45;&gt;flatiron\.tf\.loss</title>
<path fill="none" stroke="#b6ecf3" d="M645.32,-668.48C669.53,-648.86 706.46,-615.39 728,-578.57 757.2,-528.68 724.31,-495.61 764,-453.57 767.55,-449.82 771.54,-446.49 775.84,-443.54"/>
<polygon fill="#b6ecf3" stroke="#b6ecf3" points="777.7,-446.51 784.43,-438.32 774.06,-440.53 777.7,-446.51"/>
</g>
<!-- flatiron\.tf\.metric -->
<g id="node11" class="node">
<title>flatiron\.tf\.metric</title>
<polygon fill="#343434" stroke="#343434" points="941.5,-498.57 776.5,-498.57 776.5,-462.57 941.5,-462.57 941.5,-498.57"/>
<text text-anchor="middle" x="859" y="-476.87" font-family="Courier,monospace" font-size="14.00" fill="#b6ecf3">flatiron.tf.metric</text>
</g>
<!-- flatiron\.core\.tools&#45;&gt;flatiron\.tf\.metric -->
<g id="edge10" class="edge">
<title>flatiron\.core\.tools&#45;&gt;flatiron\.tf\.metric</title>
<path fill="none" stroke="#b6ecf3" d="M653.1,-668.41C675.01,-655.21 704.37,-636.26 728,-616.57 769.34,-582.13 811.31,-535.7 835.98,-506.97"/>
<polygon fill="#b6ecf3" stroke="#b6ecf3" points="838.94,-508.89 842.76,-499.01 833.61,-504.35 838.94,-508.89"/>
</g>
<!-- flatiron\.core\.tools&#45;&gt;flatiron\.tf\.models\.unet -->
<g id="edge11" class="edge">
<title>flatiron\.core\.tools&#45;&gt;flatiron\.tf\.models\.unet</title>
<path fill="none" stroke="#b6ecf3" d="M707.21,-690.88C777.12,-697.41 876.61,-713.75 954,-754.57 1117.19,-840.65 1257.86,-1020.17 1307.2,-1087.92"/>
<polygon fill="#b6ecf3" stroke="#b6ecf3" points="1304.59,-1090.29 1313.28,-1096.35 1310.27,-1086.19 1304.59,-1090.29"/>
</g>
<!-- flatiron\.tf\.optimizer -->
<g id="node13" class="node">
<title>flatiron\.tf\.optimizer</title>
<polygon fill="#343434" stroke="#343434" points="954,-329.57 764,-329.57 764,-293.57 954,-293.57 954,-329.57"/>
<text text-anchor="middle" x="859" y="-307.87" font-family="Courier,monospace" font-size="14.00" fill="#b6ecf3">flatiron.tf.optimizer</text>
</g>
<!-- flatiron\.core\.tools&#45;&gt;flatiron\.tf\.optimizer -->
<g id="edge12" class="edge">
<title>flatiron\.core\.tools&#45;&gt;flatiron\.tf\.optimizer</title>
<path fill="none" stroke="#b6ecf3" d="M627.46,-668.35C643.83,-620.1 693.02,-486.35 764,-393.57 780.93,-371.45 804.57,-350.86 823.91,-335.84"/>
<polygon fill="#b6ecf3" stroke="#b6ecf3" points="826.07,-338.6 831.91,-329.76 821.83,-333.03 826.07,-338.6"/>
</g>
<!-- flatiron\.core\.tools&#45;&gt;flatiron\.tf\.tools -->
<g id="edge13" class="edge">
<title>flatiron\.core\.tools&#45;&gt;flatiron\.tf\.tools</title>
<path fill="none" stroke="#b6ecf3" d="M707.2,-700.17C779.45,-706.87 882.23,-704.75 954,-654.57 1040.9,-593.82 1073.38,-461.06 1083.75,-402.86"/>
<polygon fill="#b6ecf3" stroke="#b6ecf3" points="1087.22,-403.34 1085.44,-392.9 1080.32,-402.17 1087.22,-403.34"/>
</g>
<!-- flatiron\.core\.types -->
<g id="node8" class="node">
<title>flatiron\.core\.types</title>
<polygon fill="#343434" stroke="#343434" points="477,-774.57 304,-774.57 304,-738.57 477,-738.57 477,-774.57"/>
<text text-anchor="middle" x="390.5" y="-752.87" font-family="Courier,monospace" font-size="14.00" fill="#b6ecf3">flatiron.core.types</text>
</g>
<!-- flatiron\.core\.types&#45;&gt;flatiron\.core\.config -->
<g id="edge14" class="edge">
<title>flatiron\.core\.types&#45;&gt;flatiron\.core\.config</title>
<path fill="none" stroke="#b6ecf3" d="M402.3,-774.78C422.84,-809.09 469.36,-885.36 513,-946.57 617.32,-1092.9 647.58,-1126.68 764,-1263.57 786.95,-1290.56 814.37,-1320.34 833.65,-1340.91"/>
<polygon fill="#b6ecf3" stroke="#b6ecf3" points="831.22,-1343.43 840.62,-1348.32 836.32,-1338.64 831.22,-1343.43"/>
</g>
<!-- flatiron\.core\.types&#45;&gt;flatiron\.core\.dataset -->
<g id="edge15" class="edge">
<title>flatiron\.core\.types&#45;&gt;flatiron\.core\.dataset</title>
<path fill="none" stroke="#b6ecf3" d="M451.28,-738.54C522.24,-720.79 641.82,-702.78 728,-751.57 755.06,-766.9 743.52,-788.17 764,-811.57 780.93,-830.92 803.32,-849.01 822,-862.57"/>
<polygon fill="#b6ecf3" stroke="#b6ecf3" points="820.12,-865.53 830.29,-868.47 824.18,-859.82 820.12,-865.53"/>
</g>
<!-- flatiron\.core\.types&#45;&gt;flatiron\.core\.pipeline -->
<g id="edge16" class="edge">
<title>flatiron\.core\.types&#45;&gt;flatiron\.core\.pipeline</title>
<path fill="none" stroke="#b6ecf3" d="M399.79,-774.81C416.15,-808.47 455.98,-879.99 513,-913.57 596.3,-962.63 638.01,-911.26 728,-946.57 865.95,-1000.71 1003.98,-1115.26 1060.88,-1165.76"/>
<polygon fill="#b6ecf3" stroke="#b6ecf3" points="1058.57,-1168.4 1068.36,-1172.45 1063.24,-1163.18 1058.57,-1168.4"/>
</g>
<!-- flatiron\.core\.types&#45;&gt;flatiron\.core\.tools -->
<g id="edge17" class="edge">
<title>flatiron\.core\.types&#45;&gt;flatiron\.core\.tools</title>
<path fill="none" stroke="#b6ecf3" d="M448.63,-738.56C468.94,-732.2 491.98,-725.02 513,-718.57 524.72,-714.98 537.19,-711.2 549.3,-707.55"/>
<polygon fill="#b6ecf3" stroke="#b6ecf3" points="550.35,-710.88 558.92,-704.65 548.33,-704.18 550.35,-710.88"/>
</g>
<!-- flatiron\.core\.types&#45;&gt;flatiron\.tf\.tools -->
<g id="edge18" class="edge">
<title>flatiron\.core\.types&#45;&gt;flatiron\.tf\.tools</title>
<path fill="none" stroke="#b6ecf3" d="M464.17,-738.35C468.74,-735.79 473.07,-732.89 477,-729.57 503.74,-707.02 485.55,-681.27 513,-659.57 590.22,-598.56 634.81,-638.21 728,-606.57 831.84,-571.32 863.33,-569.25 954,-507.57 999.34,-476.74 1042.64,-429.42 1067.21,-400.32"/>
<polygon fill="#b6ecf3" stroke="#b6ecf3" points="1069.91,-402.54 1073.63,-392.62 1064.53,-398.06 1069.91,-402.54"/>
</g>
<!-- flatiron\.core\.validators -->
<g id="node9" class="node">
<title>flatiron\.core\.validators</title>
<polygon fill="#343434" stroke="#343434" points="728,-1522.57 513,-1522.57 513,-1486.57 728,-1486.57 728,-1522.57"/>
<text text-anchor="middle" x="620.5" y="-1500.87" font-family="Courier,monospace" font-size="14.00" fill="#b6ecf3">flatiron.core.validators</text>
</g>
<!-- flatiron\.core\.validators&#45;&gt;flatiron\.core\.config -->
<g id="edge19" class="edge">
<title>flatiron\.core\.validators&#45;&gt;flatiron\.core\.config</title>
<path fill="none" stroke="#b6ecf3" d="M652.42,-1486.53C695,-1461.69 771.71,-1416.92 818.43,-1389.66"/>
<polygon fill="#b6ecf3" stroke="#b6ecf3" points="820.2,-1392.68 827.07,-1384.62 816.67,-1386.64 820.2,-1392.68"/>
</g>
<!-- flatiron\.core\.validators&#45;&gt;flatiron\.tf\.models\.unet -->
<g id="edge20" class="edge">
<title>flatiron\.core\.validators&#45;&gt;flatiron\.tf\.models\.unet</title>
<path fill="none" stroke="#b6ecf3" d="M728.15,-1497.25C851.11,-1483.79 1053.52,-1445.63 1188,-1337.57 1254.63,-1284.04 1297.75,-1189.11 1316.01,-1142.28"/>
<polygon fill="#b6ecf3" stroke="#b6ecf3" points="1319.33,-1143.37 1319.62,-1132.78 1312.79,-1140.88 1319.33,-1143.37"/>
</g>
<!-- click -->
<g id="node15" class="node">
<title>click</title>
<polygon fill="#343434" stroke="#343434" points="70.5,-1258.57 12.5,-1258.57 12.5,-1222.57 70.5,-1222.57 70.5,-1258.57"/>
<text text-anchor="middle" x="41.5" y="-1236.87" font-family="Courier,monospace" font-size="14.00" fill="#de958e">click</text>
</g>
<!-- click&#45;&gt;flatiron\.command -->
<g id="edge21" class="edge">
<title>click&#45;&gt;flatiron\.command</title>
<path fill="none" stroke="#de958e" d="M70.71,-1240.57C81.78,-1240.57 95.1,-1240.57 108.82,-1240.57"/>
<polygon fill="#de958e" stroke="#de958e" points="108.85,-1244.07 118.85,-1240.57 108.85,-1237.07 108.85,-1244.07"/>
</g>
<!-- flatiron\.tf\.models -->
<g id="node16" class="node">
<title>flatiron\.tf\.models</title>
<polygon fill="#343434" stroke="#343434" points="941.5,-45.57 776.5,-45.57 776.5,-9.57 941.5,-9.57 941.5,-45.57"/>
<text text-anchor="middle" x="859" y="-23.87" font-family="Courier,monospace" font-size="14.00" fill="#a0d17b">flatiron.tf.models</text>
</g>
<!-- flatiron\.tf\.models&#45;&gt;flatiron\.tf\.models\.unet -->
<g id="edge22" class="edge">
<title>flatiron\.tf\.models&#45;&gt;flatiron\.tf\.models\.unet</title>
<path fill="none" stroke="#a0d17b" d="M941.76,-26.01C1017.3,-29.31 1126.8,-47.03 1188,-116.57 1319.48,-265.99 1326.25,-938.41 1326.14,-1085.91"/>
<polygon fill="#a0d17b" stroke="#a0d17b" points="1322.64,-1086.35 1326.12,-1096.35 1329.64,-1086.36 1322.64,-1086.35"/>
</g>
<!-- pydantic -->
<g id="node17" class="node">
<title>pydantic</title>
<polygon fill="#343434" stroke="#343434" points="662,-1338.57 579,-1338.57 579,-1302.57 662,-1302.57 662,-1338.57"/>
<text text-anchor="middle" x="620.5" y="-1316.87" font-family="Courier,monospace" font-size="14.00" fill="#de958e">pydantic</text>
</g>
<!-- pydantic&#45;&gt;flatiron\.core\.config -->
<g id="edge23" class="edge">
<title>pydantic&#45;&gt;flatiron\.core\.config</title>
<path fill="none" stroke="#de958e" d="M662.16,-1328.48C688.6,-1333.63 724.31,-1340.57 758,-1347.13"/>
<polygon fill="#de958e" stroke="#de958e" points="757.43,-1350.58 767.91,-1349.05 758.76,-1343.71 757.43,-1350.58"/>
</g>
<!-- pydantic&#45;&gt;flatiron\.core\.pipeline -->
<g id="edge24" class="edge">
<title>pydantic&#45;&gt;flatiron\.core\.pipeline</title>
<path fill="none" stroke="#de958e" d="M662,-1315.33C738.32,-1305.16 900.54,-1282.14 954,-1263.57 989.15,-1251.37 1026.06,-1230.58 1052.22,-1214.31"/>
<polygon fill="#de958e" stroke="#de958e" points="1054.42,-1217.06 1061.01,-1208.76 1050.68,-1211.14 1054.42,-1217.06"/>
</g>
<!-- pydantic&#45;&gt;flatiron\.tf\.models\.unet -->
<g id="edge25" class="edge">
<title>pydantic&#45;&gt;flatiron\.tf\.models\.unet</title>
<path fill="none" stroke="#de958e" d="M662.11,-1320.73C725.2,-1320.25 850.28,-1316.43 954,-1295.57 1061.48,-1273.97 1090.84,-1268.34 1188,-1217.57 1229.3,-1196 1271.47,-1162.51 1298.14,-1139.61"/>
<polygon fill="#de958e" stroke="#de958e" points="1300.64,-1142.07 1305.9,-1132.87 1296.05,-1136.79 1300.64,-1142.07"/>
</g>
<!-- typing_extensions -->
<g id="node18" class="node">
<title>typing_extensions</title>
<polygon fill="#343434" stroke="#343434" points="699,-1430.57 542,-1430.57 542,-1394.57 699,-1394.57 699,-1430.57"/>
<text text-anchor="middle" x="620.5" y="-1408.87" font-family="Courier,monospace" font-size="14.00" fill="#de958e">typing_extensions</text>
</g>
<!-- typing_extensions&#45;&gt;flatiron\.core\.config -->
<g id="edge26" class="edge">
<title>typing_extensions&#45;&gt;flatiron\.core\.config</title>
<path fill="none" stroke="#de958e" d="M699.27,-1397.45C718.04,-1393.8 738.36,-1389.85 757.99,-1386.03"/>
<polygon fill="#de958e" stroke="#de958e" points="758.73,-1389.45 767.88,-1384.1 757.39,-1382.58 758.73,-1389.45"/>
</g>
<!-- typing_extensions&#45;&gt;flatiron\.tf\.models\.unet -->
<g id="edge27" class="edge">
<title>typing_extensions&#45;&gt;flatiron\.tf\.models\.unet</title>
<path fill="none" stroke="#de958e" d="M699.01,-1417.6C767.43,-1419.83 869.19,-1417.7 954,-1393.57 1067.81,-1361.2 1094.92,-1339.63 1188,-1266.57 1236.13,-1228.8 1281.76,-1173.34 1306.61,-1140.9"/>
<polygon fill="#de958e" stroke="#de958e" points="1309.51,-1142.87 1312.76,-1132.78 1303.93,-1138.64 1309.51,-1142.87"/>
</g>
<!-- cv_depot\.api -->
<g id="node19" class="node">
<title>cv_depot\.api</title>
<polygon fill="#343434" stroke="#343434" points="678.5,-904.57 562.5,-904.57 562.5,-868.57 678.5,-868.57 678.5,-904.57"/>
<text text-anchor="middle" x="620.5" y="-882.87" font-family="Courier,monospace" font-size="14.00" fill="#de958e">cv_depot.api</text>
</g>
<!-- cv_depot\.api&#45;&gt;flatiron\.core\.dataset -->
<g id="edge28" class="edge">
<title>cv_depot\.api&#45;&gt;flatiron\.core\.dataset</title>
<path fill="none" stroke="#de958e" d="M678.75,-886.57C701.32,-886.57 727.97,-886.57 753.72,-886.57"/>
<polygon fill="#de958e" stroke="#de958e" points="753.92,-890.07 763.92,-886.57 753.92,-883.07 753.92,-890.07"/>
</g>
<!-- humanfriendly -->
<g id="node20" class="node">
<title>humanfriendly</title>
<polygon fill="#343434" stroke="#343434" points="682.5,-850.57 558.5,-850.57 558.5,-814.57 682.5,-814.57 682.5,-850.57"/>
<text text-anchor="middle" x="620.5" y="-828.87" font-family="Courier,monospace" font-size="14.00" fill="#de958e">humanfriendly</text>
</g>
<!-- humanfriendly&#45;&gt;flatiron\.core\.dataset -->
<g id="edge29" class="edge">
<title>humanfriendly&#45;&gt;flatiron\.core\.dataset</title>
<path fill="none" stroke="#de958e" d="M682.71,-846.55C708.91,-852.53 740.02,-859.64 768.71,-866.19"/>
<polygon fill="#de958e" stroke="#de958e" points="768.22,-869.67 778.75,-868.48 769.78,-862.84 768.22,-869.67"/>
</g>
<!-- flatiron -->
<g id="node21" class="node">
<title>flatiron</title>
<polygon fill="#343434" stroke="#343434" points="83,-124.57 0,-124.57 0,-88.57 83,-88.57 83,-124.57"/>
<text text-anchor="middle" x="41.5" y="-102.87" font-family="Courier,monospace" font-size="14.00" fill="#a0d17b">flatiron</text>
</g>
<!-- flatiron&#45;&gt;flatiron\.command -->
<g id="edge30" class="edge">
<title>flatiron&#45;&gt;flatiron\.command</title>
<path fill="none" stroke="#a0d17b" d="M42.58,-124.99C43.36,-262.24 50.91,-1122.86 119,-1213.57 119.47,-1214.21 119.97,-1214.82 120.47,-1215.43"/>
<polygon fill="#a0d17b" stroke="#a0d17b" points="118.19,-1218.09 127.83,-1222.48 123.03,-1213.03 118.19,-1218.09"/>
</g>
<!-- flatiron&#45;&gt;flatiron\.tf\.tools -->
<g id="edge31" class="edge">
<title>flatiron&#45;&gt;flatiron\.tf\.tools</title>
<path fill="none" stroke="#a0d17b" d="M83.37,-98.63C218.56,-74.61 659.42,-14.38 954,-185.57 1018.04,-222.79 1059.29,-304.27 1077.39,-347.07"/>
<polygon fill="#a0d17b" stroke="#a0d17b" points="1074.16,-348.41 1081.2,-356.32 1080.64,-345.75 1074.16,-348.41"/>
</g>
<!-- flatiron&#45;&gt;flatiron\.tf\.models -->
<g id="edge32" class="edge">
<title>flatiron&#45;&gt;flatiron\.tf\.models</title>
<path fill="none" stroke="#a0d17b" d="M70,-88.35C74.36,-85.43 78.81,-82.43 83,-79.57 99.1,-68.62 100.52,-60.73 119,-54.57 341.87,19.71 623.69,1.6 766.33,-14.78"/>
<polygon fill="#a0d17b" stroke="#a0d17b" points="766.02,-18.27 776.36,-15.96 766.83,-11.32 766.02,-18.27"/>
</g>
<!-- flatiron\.tf -->
<g id="node23" class="node">
<title>flatiron\.tf</title>
<polygon fill="#343434" stroke="#343434" points="674,-232.57 567,-232.57 567,-196.57 674,-196.57 674,-232.57"/>
<text text-anchor="middle" x="620.5" y="-210.87" font-family="Courier,monospace" font-size="14.00" fill="#a0d17b">flatiron.tf</text>
</g>
<!-- flatiron&#45;&gt;flatiron\.tf -->
<g id="edge33" class="edge">
<title>flatiron&#45;&gt;flatiron\.tf</title>
<path fill="none" stroke="#a0d17b" d="M83.07,-114.17C182.28,-132.74 437.66,-180.54 556.69,-202.82"/>
<polygon fill="#a0d17b" stroke="#a0d17b" points="556.27,-206.3 566.75,-204.7 557.56,-199.42 556.27,-206.3"/>
</g>
<!-- flatiron\.core -->
<g id="node25" class="node">
<title>flatiron\.core</title>
<polygon fill="#343434" stroke="#343434" points="255.5,-1204.57 131.5,-1204.57 131.5,-1168.57 255.5,-1168.57 255.5,-1204.57"/>
<text text-anchor="middle" x="193.5" y="-1182.87" font-family="Courier,monospace" font-size="14.00" fill="#a0d17b">flatiron.core</text>
</g>
<!-- flatiron&#45;&gt;flatiron\.core -->
<g id="edge34" class="edge">
<title>flatiron&#45;&gt;flatiron\.core</title>
<path fill="none" stroke="#a0d17b" d="M44.65,-124.76C53.32,-197.85 86.83,-477.27 119,-706.57 143.11,-878.45 175.98,-1084.32 187.92,-1158.34"/>
<polygon fill="#a0d17b" stroke="#a0d17b" points="184.48,-1158.98 189.53,-1168.29 191.39,-1157.86 184.48,-1158.98"/>
</g>
<!-- tqdm\.notebook -->
<g id="node22" class="node">
<title>tqdm\.notebook</title>
<polygon fill="#343434" stroke="#343434" points="682.5,-796.57 558.5,-796.57 558.5,-760.57 682.5,-760.57 682.5,-796.57"/>
<text text-anchor="middle" x="620.5" y="-774.87" font-family="Courier,monospace" font-size="14.00" fill="#de958e">tqdm.notebook</text>
</g>
<!-- tqdm\.notebook&#45;&gt;flatiron\.core\.dataset -->
<g id="edge35" class="edge">
<title>tqdm\.notebook&#45;&gt;flatiron\.core\.dataset</title>
<path fill="none" stroke="#de958e" d="M682.56,-790.61C697.71,-794.53 713.7,-799.48 728,-805.57 763.39,-820.65 800.29,-844.55 825.7,-862.49"/>
<polygon fill="#de958e" stroke="#de958e" points="823.68,-865.35 833.85,-868.32 827.75,-859.66 823.68,-865.35"/>
</g>
<!-- flatiron\.tf&#45;&gt;flatiron\.tf\.loss -->
<g id="edge36" class="edge">
<title>flatiron\.tf&#45;&gt;flatiron\.tf\.loss</title>
<path fill="none" stroke="#a0d17b" d="M656.18,-232.6C678.35,-245.21 706.81,-263.52 728,-284.57 748.46,-304.9 744.96,-316.9 764,-338.57 782.63,-359.79 806.67,-380.66 825.77,-396.04"/>
<polygon fill="#a0d17b" stroke="#a0d17b" points="823.62,-398.8 833.62,-402.28 827.97,-393.32 823.62,-398.8"/>
</g>
<!-- flatiron\.tf&#45;&gt;flatiron\.tf\.metric -->
<g id="edge37" class="edge">
<title>flatiron\.tf&#45;&gt;flatiron\.tf\.metric</title>
<path fill="none" stroke="#a0d17b" d="M627.67,-232.62C643.4,-276.01 689.14,-387.07 764,-447.57 768.86,-451.5 774.21,-454.97 779.83,-458.04"/>
<polygon fill="#a0d17b" stroke="#a0d17b" points="778.33,-461.21 788.83,-462.55 781.46,-454.95 778.33,-461.21"/>
</g>
<!-- flatiron\.tf&#45;&gt;flatiron\.tf\.optimizer -->
<g id="edge38" class="edge">
<title>flatiron\.tf&#45;&gt;flatiron\.tf\.optimizer</title>
<path fill="none" stroke="#a0d17b" d="M674.11,-228.44C691.49,-233.53 710.77,-239.74 728,-246.57 758.6,-258.72 791.78,-275.37 816.96,-288.78"/>
<polygon fill="#a0d17b" stroke="#a0d17b" points="815.39,-291.91 825.85,-293.56 818.7,-285.74 815.39,-291.91"/>
</g>
<!-- flatiron\.tf&#45;&gt;flatiron\.tf\.tools -->
<g id="edge39" class="edge">
<title>flatiron\.tf&#45;&gt;flatiron\.tf\.tools</title>
<path fill="none" stroke="#a0d17b" d="M674.04,-219.36C741.19,-226.87 859.98,-244.88 954,-284.57 993.14,-301.1 1032.91,-329.61 1058.84,-350.12"/>
<polygon fill="#a0d17b" stroke="#a0d17b" points="1056.77,-352.94 1066.76,-356.47 1061.15,-347.48 1056.77,-352.94"/>
</g>
<!-- flatiron\.tf&#45;&gt;flatiron\.tf\.models -->
<g id="edge40" class="edge">
<title>flatiron\.tf&#45;&gt;flatiron\.tf\.models</title>
<path fill="none" stroke="#a0d17b" d="M644.61,-196.3C687.46,-162.42 779.24,-89.85 827.27,-51.87"/>
<polygon fill="#a0d17b" stroke="#a0d17b" points="829.47,-54.59 835.15,-45.64 825.13,-49.1 829.47,-54.59"/>
</g>
<!-- tensorflow -->
<g id="node24" class="node">
<title>tensorflow</title>
<polygon fill="#343434" stroke="#343434" points="243,-297.57 144,-297.57 144,-261.57 243,-261.57 243,-297.57"/>
<text text-anchor="middle" x="193.5" y="-275.87" font-family="Courier,monospace" font-size="14.00" fill="#de958e">tensorflow</text>
</g>
<!-- tensorflow&#45;&gt;flatiron\.core\.types -->
<g id="edge41" class="edge">
<title>tensorflow&#45;&gt;flatiron\.core\.types</title>
<path fill="none" stroke="#de958e" d="M206.49,-297.77C223.29,-324.25 253.42,-375.5 268,-423.57 287.88,-489.1 260.36,-676.81 304,-729.57 304.61,-730.31 305.24,-731.02 305.88,-731.72"/>
<polygon fill="#de958e" stroke="#de958e" points="303.66,-734.43 313.45,-738.47 308.32,-729.2 303.66,-734.43"/>
</g>
<!-- tensorflow&#45;&gt;flatiron\.tf\.loss -->
<g id="edge42" class="edge">
<title>tensorflow&#45;&gt;flatiron\.tf\.loss</title>
<path fill="none" stroke="#de958e" d="M243.02,-289.89C355.34,-313.75 634.32,-373.04 774.63,-402.86"/>
<polygon fill="#de958e" stroke="#de958e" points="773.98,-406.3 784.49,-404.95 775.43,-399.45 773.98,-406.3"/>
</g>
<!-- tensorflow&#45;&gt;flatiron\.tf\.metric -->
<g id="edge43" class="edge">
<title>tensorflow&#45;&gt;flatiron\.tf\.metric</title>
<path fill="none" stroke="#de958e" d="M226.29,-297.75C247.73,-309.46 276.94,-324.34 304,-334.57 462.26,-394.43 654.83,-439.21 766.22,-462.51"/>
<polygon fill="#de958e" stroke="#de958e" points="765.57,-465.96 776.08,-464.57 767,-459.1 765.57,-465.96"/>
</g>
<!-- tensorflow&#45;&gt;flatiron\.tf\.models\.unet -->
<g id="edge44" class="edge">
<title>tensorflow&#45;&gt;flatiron\.tf\.models\.unet</title>
<path fill="none" stroke="#de958e" d="M209.77,-261.56C229.19,-240.09 264.92,-205.18 304,-189.57 390.49,-155.05 419.93,-177.91 513,-174.57 822.5,-163.48 1020.45,-87.11 1188,-347.57 1269.71,-474.6 1313.86,-963.43 1323.82,-1086.38"/>
<polygon fill="#de958e" stroke="#de958e" points="1320.34,-1086.81 1324.62,-1096.5 1327.32,-1086.25 1320.34,-1086.81"/>
</g>
<!-- tensorflow&#45;&gt;flatiron\.tf\.optimizer -->
<g id="edge45" class="edge">
<title>tensorflow&#45;&gt;flatiron\.tf\.optimizer</title>
<path fill="none" stroke="#de958e" d="M243.23,-276.86C337.29,-272.33 550.26,-265.47 728,-284.57 742.95,-286.18 758.71,-288.72 773.92,-291.62"/>
<polygon fill="#de958e" stroke="#de958e" points="773.32,-295.07 783.81,-293.56 774.67,-288.2 773.32,-295.07"/>
</g>
<!-- tensorflow&#45;&gt;flatiron\.tf\.tools -->
<g id="edge46" class="edge">
<title>tensorflow&#45;&gt;flatiron\.tf\.tools</title>
<path fill="none" stroke="#de958e" d="M241.34,-261.53C302.66,-238.96 413.98,-201.59 513,-187.57 607.61,-174.18 632.83,-179.01 728,-187.57 829.67,-196.72 864.6,-179.29 954,-228.57 1006.27,-257.39 1049.24,-314.21 1071.51,-347.84"/>
<polygon fill="#de958e" stroke="#de958e" points="1068.59,-349.78 1076.97,-356.26 1074.46,-345.97 1068.59,-349.78"/>
</g>
<!-- flatiron\.core&#45;&gt;flatiron\.core\.config -->
<g id="edge47" class="edge">
<title>flatiron\.core&#45;&gt;flatiron\.core\.config</title>
<path fill="none" stroke="#a0d17b" d="M248.07,-1204.7C254.87,-1207.46 261.67,-1210.43 268,-1213.57 285.01,-1222.01 287.6,-1227 304,-1236.57 394.83,-1289.6 411.68,-1319.36 513,-1347.57 593.14,-1369.89 687.7,-1373.61 757.53,-1372.32"/>
<polygon fill="#a0d17b" stroke="#a0d17b" points="757.73,-1375.82 767.65,-1372.1 757.58,-1368.82 757.73,-1375.82"/>
</g>
<!-- flatiron\.core&#45;&gt;flatiron\.core\.dataset -->
<g id="edge48" class="edge">
<title>flatiron\.core&#45;&gt;flatiron\.core\.dataset</title>
<path fill="none" stroke="#a0d17b" d="M255.59,-1188.88C313.51,-1189.57 402.49,-1186.73 477,-1167.57 596.2,-1136.92 631.4,-1126.85 728,-1050.57 778,-1011.1 820.49,-948.77 842.3,-913.41"/>
<polygon fill="#a0d17b" stroke="#a0d17b" points="845.45,-914.97 847.65,-904.61 839.46,-911.34 845.45,-914.97"/>
</g>
<!-- flatiron\.core&#45;&gt;flatiron\.core\.logging -->
<g id="edge49" class="edge">
<title>flatiron\.core&#45;&gt;flatiron\.core\.logging</title>
<path fill="none" stroke="#a0d17b" d="M255.76,-1200.11C319.61,-1213.47 422.74,-1232.98 513,-1240.57 608.22,-1248.59 632.46,-1242.04 728,-1240.57 736.36,-1240.45 745.02,-1240.27 753.71,-1240.07"/>
<polygon fill="#a0d17b" stroke="#a0d17b" points="754.02,-1243.56 763.93,-1239.81 753.84,-1236.56 754.02,-1243.56"/>
</g>
<!-- flatiron\.core&#45;&gt;flatiron\.core\.pipeline -->
<g id="edge50" class="edge">
<title>flatiron\.core&#45;&gt;flatiron\.core\.pipeline</title>
<path fill="none" stroke="#a0d17b" d="M255.5,-1204.2C260.02,-1206.9 264.27,-1210 268,-1213.57 297.94,-1242.22 277.67,-1267.58 304,-1299.57 375.04,-1385.91 406.03,-1407.06 513,-1439.57 607.27,-1468.23 873.56,-1450.47 954,-1393.57 979.39,-1375.62 973.2,-1359.75 990,-1333.57 1016.52,-1292.26 1049.03,-1245.53 1069.13,-1217.07"/>
<polygon fill="#a0d17b" stroke="#a0d17b" points="1072.03,-1219.03 1074.95,-1208.85 1066.32,-1214.99 1072.03,-1219.03"/>
</g>
<!-- flatiron\.core&#45;&gt;flatiron\.core\.tools -->
<g id="edge51" class="edge">
<title>flatiron\.core&#45;&gt;flatiron\.core\.tools</title>
<path fill="none" stroke="#a0d17b" d="M197.54,-1168.28C206.36,-1119.92 235.74,-986.57 304,-900.57 361.71,-827.87 403.71,-840.53 477,-783.57 493.9,-770.44 495.79,-764.31 513,-751.57 533.38,-736.49 557.39,-721.6 577.45,-709.9"/>
<polygon fill="#a0d17b" stroke="#a0d17b" points="579.46,-712.78 586.37,-704.75 575.96,-706.72 579.46,-712.78"/>
</g>
<!-- flatiron\.core&#45;&gt;flatiron\.core\.types -->
<g id="edge52" class="edge">
<title>flatiron\.core&#45;&gt;flatiron\.core\.types</title>
<path fill="none" stroke="#a0d17b" d="M197.12,-1168.46C205.47,-1114.98 235.1,-954.5 304,-841.57 318.09,-818.49 339.73,-797.05 357.72,-781.48"/>
<polygon fill="#a0d17b" stroke="#a0d17b" points="360.31,-783.88 365.69,-774.76 355.79,-778.53 360.31,-783.88"/>
</g>
<!-- flatiron\.core&#45;&gt;flatiron\.core\.validators -->
<g id="edge53" class="edge">
<title>flatiron\.core&#45;&gt;flatiron\.core\.validators</title>
<path fill="none" stroke="#a0d17b" d="M255.55,-1202.54C260.24,-1205.59 264.5,-1209.24 268,-1213.57 340.94,-1304.06 220.31,-1391.93 304,-1472.57 359.64,-1526.19 449.1,-1530.64 518.57,-1523.71"/>
<polygon fill="#a0d17b" stroke="#a0d17b" points="519.11,-1527.17 528.67,-1522.61 518.35,-1520.21 519.11,-1527.17"/>
</g>
<!-- yaml -->
<g id="node26" class="node">
<title>yaml</title>
<polygon fill="#343434" stroke="#343434" points="417.5,-1104.57 363.5,-1104.57 363.5,-1068.57 417.5,-1068.57 417.5,-1104.57"/>
<text text-anchor="middle" x="390.5" y="-1082.87" font-family="Courier,monospace" font-size="14.00" fill="#de958e">yaml</text>
</g>
<!-- yaml&#45;&gt;flatiron\.core\.pipeline -->
<g id="edge54" class="edge">
<title>yaml&#45;&gt;flatiron\.core\.pipeline</title>
<path fill="none" stroke="#de958e" d="M417.75,-1089.83C435.97,-1093.21 459.94,-1100.01 477,-1113.57 501.64,-1133.17 485.88,-1158.59 513,-1174.57 589.19,-1219.49 835.21,-1209.91 979.58,-1199.75"/>
<polygon fill="#de958e" stroke="#de958e" points="980.07,-1203.22 989.79,-1199.01 979.57,-1196.24 980.07,-1203.22"/>
</g>
<!-- yaml&#45;&gt;flatiron\.core\.tools -->
<g id="edge55" class="edge">
<title>yaml&#45;&gt;flatiron\.core\.tools</title>
<path fill="none" stroke="#de958e" d="M417.67,-1085.56C437.1,-1083.32 462.62,-1076.97 477,-1059.57 564.8,-953.34 438.68,-867.64 513,-751.57 524.65,-733.39 543.37,-719.51 561.9,-709.34"/>
<polygon fill="#de958e" stroke="#de958e" points="563.68,-712.36 570.94,-704.65 560.45,-706.15 563.68,-712.36"/>
</g>
<!-- keras -->
<g id="node27" class="node">
<title>keras</title>
<polygon fill="#343434" stroke="#343434" points="222.5,-468.57 164.5,-468.57 164.5,-432.57 222.5,-432.57 222.5,-468.57"/>
<text text-anchor="middle" x="193.5" y="-446.87" font-family="Courier,monospace" font-size="14.00" fill="#de958e">keras</text>
</g>
<!-- keras&#45;&gt;flatiron\.core\.types -->
<g id="edge56" class="edge">
<title>keras&#45;&gt;flatiron\.core\.types</title>
<path fill="none" stroke="#de958e" d="M201.09,-468.6C223.16,-528.84 293.76,-720.01 304,-729.57 305.14,-730.64 306.32,-731.66 307.53,-732.64"/>
<polygon fill="#de958e" stroke="#de958e" points="305.83,-735.71 316.03,-738.55 309.82,-729.97 305.83,-735.71"/>
</g>
<!-- keras&#45;&gt;flatiron\.tf\.loss -->
<g id="edge57" class="edge">
<title>keras&#45;&gt;flatiron\.tf\.loss</title>
<path fill="none" stroke="#de958e" d="M222.59,-449.3C316.86,-445.04 624.49,-431.13 774.39,-424.36"/>
<polygon fill="#de958e" stroke="#de958e" points="774.64,-427.85 784.47,-423.9 774.32,-420.85 774.64,-427.85"/>
</g>
<!-- keras&#45;&gt;flatiron\.tf\.metric -->
<g id="edge58" class="edge">
<title>keras&#45;&gt;flatiron\.tf\.metric</title>
<path fill="none" stroke="#de958e" d="M222.78,-454.97C244.85,-458.21 276.3,-462.41 304,-464.57 466.33,-477.27 656.11,-480.17 766.13,-480.68"/>
<polygon fill="#de958e" stroke="#de958e" points="766.19,-484.18 776.2,-480.72 766.22,-477.18 766.19,-484.18"/>
</g>
<!-- keras&#45;&gt;flatiron\.tf\.models\.unet -->
<g id="edge59" class="edge">
<title>keras&#45;&gt;flatiron\.tf\.models\.unet</title>
<path fill="none" stroke="#de958e" d="M222.57,-460.01C244.52,-467.08 275.92,-476.55 304,-482.57 442.43,-512.29 477.92,-526.57 619.5,-526.57 619.5,-526.57 619.5,-526.57 860,-526.57 1149.25,-526.57 1287.33,-969.03 1318.85,-1086.32"/>
<polygon fill="#de958e" stroke="#de958e" points="1315.56,-1087.56 1321.5,-1096.33 1322.33,-1085.77 1315.56,-1087.56"/>
</g>
<!-- keras&#45;&gt;flatiron\.tf\.optimizer -->
<g id="edge60" class="edge">
<title>keras&#45;&gt;flatiron\.tf\.optimizer</title>
<path fill="none" stroke="#de958e" d="M210.16,-432.29C229.7,-410.9 265.28,-376.41 304,-360.57 451.49,-300.28 639.03,-297.36 753.7,-302.9"/>
<polygon fill="#de958e" stroke="#de958e" points="753.72,-306.4 763.88,-303.42 754.08,-299.41 753.72,-306.4"/>
</g>
<!-- keras&#45;&gt;flatiron\.tf\.tools -->
<g id="edge61" class="edge">
<title>keras&#45;&gt;flatiron\.tf\.tools</title>
<path fill="none" stroke="#de958e" d="M222.79,-445.65C244.86,-441.93 276.31,-436.92 304,-433.57 555.76,-403.12 855.03,-385.79 1000.25,-378.58"/>
<polygon fill="#de958e" stroke="#de958e" points="1000.62,-382.07 1010.43,-378.08 1000.27,-375.08 1000.62,-382.07"/>
</g>
<!-- lunchbox\.tools -->
<g id="node28" class="node">
<title>lunchbox\.tools</title>
<polygon fill="#343434" stroke="#343434" points="456.5,-1158.57 324.5,-1158.57 324.5,-1122.57 456.5,-1122.57 456.5,-1158.57"/>
<text text-anchor="middle" x="390.5" y="-1136.87" font-family="Courier,monospace" font-size="14.00" fill="#de958e">lunchbox.tools</text>
</g>
<!-- lunchbox\.tools&#45;&gt;flatiron\.core\.logging -->
<g id="edge62" class="edge">
<title>lunchbox\.tools&#45;&gt;flatiron\.core\.logging</title>
<path fill="none" stroke="#de958e" d="M414.58,-1158.75C437.93,-1176.01 475.78,-1200.97 513,-1212.57 591.26,-1236.97 684.18,-1242.17 753.86,-1241.71"/>
<polygon fill="#de958e" stroke="#de958e" points="754,-1245.21 763.96,-1241.61 753.93,-1238.21 754,-1245.21"/>
</g>
<!-- lunchbox\.tools&#45;&gt;flatiron\.core\.tools -->
<g id="edge63" class="edge">
<title>lunchbox\.tools&#45;&gt;flatiron\.core\.tools</title>
<path fill="none" stroke="#de958e" d="M456.88,-1129.07C464.58,-1125.26 471.6,-1120.22 477,-1113.57 527.96,-1050.82 469.99,-820.03 513,-751.57 524.44,-733.37 543.02,-719.51 561.48,-709.36"/>
<polygon fill="#de958e" stroke="#de958e" points="563.24,-712.39 570.5,-704.68 560.01,-706.18 563.24,-712.39"/>
</g>
<!-- pandas -->
<g id="node29" class="node">
<title>pandas</title>
<polygon fill="#343434" stroke="#343434" points="423.5,-945.57 357.5,-945.57 357.5,-909.57 423.5,-909.57 423.5,-945.57"/>
<text text-anchor="middle" x="390.5" y="-923.87" font-family="Courier,monospace" font-size="14.00" fill="#de958e">pandas</text>
</g>
<!-- pandas&#45;&gt;flatiron\.core\.dataset -->
<g id="edge64" class="edge">
<title>pandas&#45;&gt;flatiron\.core\.dataset</title>
<path fill="none" stroke="#de958e" d="M423.66,-927.98C483.71,-928.34 616.88,-927.33 728,-913.57 742.22,-911.81 757.2,-909.32 771.73,-906.54"/>
<polygon fill="#de958e" stroke="#de958e" points="772.56,-909.95 781.7,-904.59 771.21,-903.08 772.56,-909.95"/>
</g>
<!-- pandas&#45;&gt;flatiron\.core\.tools -->
<g id="edge65" class="edge">
<title>pandas&#45;&gt;flatiron\.core\.tools</title>
<path fill="none" stroke="#de958e" d="M423.61,-912.66C441.66,-902.78 463.27,-888.2 477,-869.57 509.54,-825.45 479.41,-794.91 513,-751.57 526.81,-733.77 546.98,-719.7 566.06,-709.27"/>
<polygon fill="#de958e" stroke="#de958e" points="567.77,-712.32 575.02,-704.59 564.53,-706.12 567.77,-712.32"/>
</g>
<!-- pytz -->
<g id="node30" class="node">
<title>pytz</title>
<polygon fill="#343434" stroke="#343434" points="417.5,-666.57 363.5,-666.57 363.5,-630.57 417.5,-630.57 417.5,-666.57"/>
<text text-anchor="middle" x="390.5" y="-644.87" font-family="Courier,monospace" font-size="14.00" fill="#de958e">pytz</text>
</g>
<!-- pytz&#45;&gt;flatiron\.core\.tools -->
<g id="edge66" class="edge">
<title>pytz&#45;&gt;flatiron\.core\.tools</title>
<path fill="none" stroke="#de958e" d="M417.65,-652.93C443.64,-657.26 485.07,-664.17 523.66,-670.6"/>
<polygon fill="#de958e" stroke="#de958e" points="523.48,-674.12 533.92,-672.31 524.63,-667.22 523.48,-674.12"/>
</g>
<!-- lunchbox\.enforce -->
<g id="node31" class="node">
<title>lunchbox\.enforce</title>
<polygon fill="#343434" stroke="#343434" points="465,-1050.57 316,-1050.57 316,-1014.57 465,-1014.57 465,-1050.57"/>
<text text-anchor="middle" x="390.5" y="-1028.87" font-family="Courier,monospace" font-size="14.00" fill="#de958e">lunchbox.enforce</text>
</g>
<!-- lunchbox\.enforce&#45;&gt;flatiron\.core\.dataset -->
<g id="edge67" class="edge">
<title>lunchbox\.enforce&#45;&gt;flatiron\.core\.dataset</title>
<path fill="none" stroke="#de958e" d="M465.27,-1045.9C535.92,-1055.17 643.9,-1060.01 728,-1022.57 779.28,-999.75 820.29,-946.29 841.71,-913.6"/>
<polygon fill="#de958e" stroke="#de958e" points="844.79,-915.29 847.23,-904.98 838.89,-911.52 844.79,-915.29"/>
</g>
<!-- lunchbox\.enforce&#45;&gt;flatiron\.core\.tools -->
<g id="edge68" class="edge">
<title>lunchbox\.enforce&#45;&gt;flatiron\.core\.tools</title>
<path fill="none" stroke="#de958e" d="M419.49,-1014.52C438.78,-1000.53 463.33,-979.39 477,-954.57 521.2,-874.31 461.32,-827.24 513,-751.57 525.34,-733.51 544.51,-719.59 563.21,-709.34"/>
<polygon fill="#de958e" stroke="#de958e" points="565.06,-712.33 572.32,-704.61 561.83,-706.12 565.06,-712.33"/>
</g>
<!-- lunchbox\.enforce&#45;&gt;flatiron\.tf\.models\.unet -->
<g id="edge69" class="edge">
<title>lunchbox\.enforce&#45;&gt;flatiron\.tf\.models\.unet</title>
<path fill="none" stroke="#de958e" d="M465.28,-1044.33C481.01,-1046.61 497.53,-1048.82 513,-1050.57 762.51,-1078.84 1056.51,-1098.66 1213.6,-1108.17"/>
<polygon fill="#de958e" stroke="#de958e" points="1213.56,-1111.67 1223.75,-1108.78 1213.98,-1104.69 1213.56,-1111.67"/>
</g>
<!-- numpy -->
<g id="node32" class="node">
<title>numpy</title>
<polygon fill="#343434" stroke="#343434" points="222.5,-697.57 164.5,-697.57 164.5,-661.57 222.5,-661.57 222.5,-697.57"/>
<text text-anchor="middle" x="193.5" y="-675.87" font-family="Courier,monospace" font-size="14.00" fill="#de958e">numpy</text>
</g>
<!-- numpy&#45;&gt;flatiron\.core\.dataset -->
<g id="edge70" class="edge">
<title>numpy&#45;&gt;flatiron\.core\.dataset</title>
<path fill="none" stroke="#de958e" d="M195.23,-697.88C198.38,-749.15 215.11,-894.29 304,-954.57 465.8,-1064.3 716.63,-958.86 815.69,-909.23"/>
<polygon fill="#de958e" stroke="#de958e" points="817.46,-912.26 824.8,-904.61 814.3,-906.01 817.46,-912.26"/>
</g>
<!-- numpy&#45;&gt;flatiron\.core\.types -->
<g id="edge71" class="edge">
<title>numpy&#45;&gt;flatiron\.core\.types</title>
<path fill="none" stroke="#de958e" d="M222.91,-693.71C244.78,-704.3 275.91,-718.77 304,-729.57 308.99,-731.5 314.19,-733.39 319.44,-735.22"/>
<polygon fill="#de958e" stroke="#de958e" points="318.33,-738.54 328.92,-738.46 320.59,-731.92 318.33,-738.54"/>
</g>
<!-- numpy&#45;&gt;flatiron\.tf\.loss -->
<g id="edge72" class="edge">
<title>numpy&#45;&gt;flatiron\.tf\.loss</title>
<path fill="none" stroke="#de958e" d="M214.07,-661.41C234.95,-642.87 269.69,-614.35 304,-596.57 460.99,-515.22 662.6,-462.78 774.21,-437.79"/>
<polygon fill="#de958e" stroke="#de958e" points="775.06,-441.19 784.07,-435.6 773.54,-434.35 775.06,-441.19"/>
</g>
<!-- numpy&#45;&gt;flatiron\.tf\.metric -->
<g id="edge73" class="edge">
<title>numpy&#45;&gt;flatiron\.tf\.metric</title>
<path fill="none" stroke="#de958e" d="M221.57,-661.42C242.98,-648.02 274.15,-630.62 304,-621.57 485.28,-566.67 551.65,-647.69 728,-578.57 769.32,-562.38 808.85,-529.19 833.25,-505.94"/>
<polygon fill="#de958e" stroke="#de958e" points="835.89,-508.25 840.62,-498.77 831.01,-503.23 835.89,-508.25"/>
</g>
<!-- lunchbox\.stopwatch -->
<g id="node33" class="node">
<title>lunchbox\.stopwatch</title>
<polygon fill="#343434" stroke="#343434" points="473,-720.57 308,-720.57 308,-684.57 473,-684.57 473,-720.57"/>
<text text-anchor="middle" x="390.5" y="-698.87" font-family="Courier,monospace" font-size="14.00" fill="#de958e">lunchbox.stopwatch</text>
</g>
<!-- lunchbox\.stopwatch&#45;&gt;flatiron\.core\.tools -->
<g id="edge74" class="edge">
<title>lunchbox\.stopwatch&#45;&gt;flatiron\.core\.tools</title>
<path fill="none" stroke="#de958e" d="M473.17,-696.84C489.46,-695.7 506.72,-694.49 523.45,-693.32"/>
<polygon fill="#de958e" stroke="#de958e" points="524.05,-696.78 533.78,-692.59 523.56,-689.8 524.05,-696.78"/>
</g>
</g>
</svg>
