<?xml version="1.0" encoding="UTF-8" standalone="no"?>
<!DOCTYPE svg PUBLIC "-//W3C//DTD SVG 1.1//EN"
 "http://www.w3.org/Graphics/SVG/1.1/DTD/svg11.dtd">
<!-- Generated by graphviz version 2.43.0 (0)
 -->
<!-- Title: %3 Pages: 1 -->
<svg width="1361pt" height="1134pt"
 viewBox="0.00 0.00 1361.00 1134.00" xmlns="http://www.w3.org/2000/svg" xmlns:xlink="http://www.w3.org/1999/xlink">
<g id="graph0" class="graph" transform="scale(1 1) rotate(0) translate(4 1130)">
<title>%3</title>
<polygon fill="#242424" stroke="transparent" points="-4,4 -4,-1130 1357,-1130 1357,4 -4,4"/>
<!-- cli -->
<g id="node1" class="node">
<title>cli</title>
<polygon fill="#343434" stroke="#343434" points="68.5,-715 14.5,-715 14.5,-679 68.5,-679 68.5,-715"/>
<text text-anchor="middle" x="41.5" y="-693.3" font-family="Courier,monospace" font-size="14.00" fill="#b6ecf3">cli</text>
</g>
<!-- flatiron.command -->
<g id="node2" class="node">
<title>flatiron.command</title>
<polygon fill="#343434" stroke="#343434" points="309,-1028 160,-1028 160,-992 309,-992 309,-1028"/>
<text text-anchor="middle" x="234.5" y="-1006.3" font-family="Courier,monospace" font-size="14.00" fill="#b6ecf3">flatiron.command</text>
</g>
<!-- flatiron.core.config -->
<g id="node3" class="node">
<title>flatiron.core.config</title>
<polygon fill="#343434" stroke="#343434" points="847.5,-1026 665.5,-1026 665.5,-990 847.5,-990 847.5,-1026"/>
<text text-anchor="middle" x="756.5" y="-1004.3" font-family="Courier,monospace" font-size="14.00" fill="#b6ecf3">flatiron.core.config</text>
</g>
<!-- flatiron.core.pipeline -->
<g id="node8" class="node">
<title>flatiron.core.pipeline</title>
<polygon fill="#343434" stroke="#343434" points="1122.5,-555 924.5,-555 924.5,-519 1122.5,-519 1122.5,-555"/>
<text text-anchor="middle" x="1023.5" y="-533.3" font-family="Courier,monospace" font-size="14.00" fill="#b6ecf3">flatiron.core.pipeline</text>
</g>
<!-- flatiron.core.config&#45;&gt;flatiron.core.pipeline -->
<g id="edge1" class="edge">
<title>flatiron.core.config&#45;&gt;flatiron.core.pipeline</title>
<path fill="none" stroke="#b6ecf3" d="M774.42,-989.82C798.97,-962.79 844.93,-909.74 876,-859 938.93,-756.23 991.46,-621.83 1012.56,-564.66"/>
<polygon fill="#b6ecf3" stroke="#b6ecf3" points="1015.86,-565.82 1016.02,-555.23 1009.29,-563.41 1015.86,-565.82"/>
</g>
<!-- flatiron.core.dataset -->
<g id="node4" class="node">
<title>flatiron.core.dataset</title>
<polygon fill="#343434" stroke="#343434" points="851.5,-320 661.5,-320 661.5,-284 851.5,-284 851.5,-320"/>
<text text-anchor="middle" x="756.5" y="-298.3" font-family="Courier,monospace" font-size="14.00" fill="#b6ecf3">flatiron.core.dataset</text>
</g>
<!-- flatiron.core.dataset&#45;&gt;flatiron.core.pipeline -->
<g id="edge2" class="edge">
<title>flatiron.core.dataset&#45;&gt;flatiron.core.pipeline</title>
<path fill="none" stroke="#b6ecf3" d="M851.66,-312.39C860.72,-316.48 869.09,-321.89 876,-329 933.19,-387.79 855.27,-450.76 912,-510 913.27,-511.32 914.59,-512.59 915.96,-513.79"/>
<polygon fill="#b6ecf3" stroke="#b6ecf3" points="914.19,-516.85 924.28,-520.08 918.41,-511.26 914.19,-516.85"/>
</g>
<!-- flatiron.core.logging -->
<g id="node5" class="node">
<title>flatiron.core.logging</title>
<polygon fill="#343434" stroke="#343434" points="851.5,-666 661.5,-666 661.5,-630 851.5,-630 851.5,-666"/>
<text text-anchor="middle" x="756.5" y="-644.3" font-family="Courier,monospace" font-size="14.00" fill="#b6ecf3">flatiron.core.logging</text>
</g>
<!-- flatiron.core.logging&#45;&gt;flatiron.core.pipeline -->
<g id="edge3" class="edge">
<title>flatiron.core.logging&#45;&gt;flatiron.core.pipeline</title>
<path fill="none" stroke="#b6ecf3" d="M800.67,-629.92C846.96,-610.53 920.49,-579.73 970.08,-558.96"/>
<polygon fill="#b6ecf3" stroke="#b6ecf3" points="971.48,-562.17 979.35,-555.07 968.78,-555.71 971.48,-562.17"/>
</g>
<!-- flatiron.core.loss -->
<g id="node6" class="node">
<title>flatiron.core.loss</title>
<polygon fill="#343434" stroke="#343434" points="839,-796 674,-796 674,-760 839,-760 839,-796"/>
<text text-anchor="middle" x="756.5" y="-774.3" font-family="Courier,monospace" font-size="14.00" fill="#b6ecf3">flatiron.core.loss</text>
</g>
<!-- flatiron.core.loss&#45;&gt;flatiron.core.pipeline -->
<g id="edge4" class="edge">
<title>flatiron.core.loss&#45;&gt;flatiron.core.pipeline</title>
<path fill="none" stroke="#b6ecf3" d="M839.26,-764C852.25,-759.56 865.01,-753.71 876,-746 943.63,-698.58 990.44,-609.41 1010.9,-564.43"/>
<polygon fill="#b6ecf3" stroke="#b6ecf3" points="1014.22,-565.58 1015.09,-555.02 1007.82,-562.73 1014.22,-565.58"/>
</g>
<!-- flatiron.core.metric -->
<g id="node7" class="node">
<title>flatiron.core.metric</title>
<polygon fill="#343434" stroke="#343434" points="847.5,-850 665.5,-850 665.5,-814 847.5,-814 847.5,-850"/>
<text text-anchor="middle" x="756.5" y="-828.3" font-family="Courier,monospace" font-size="14.00" fill="#b6ecf3">flatiron.core.metric</text>
</g>
<!-- flatiron.core.metric&#45;&gt;flatiron.core.pipeline -->
<g id="edge5" class="edge">
<title>flatiron.core.metric&#45;&gt;flatiron.core.pipeline</title>
<path fill="none" stroke="#b6ecf3" d="M847.55,-820.16C857.74,-816.37 867.5,-811.43 876,-805 958.46,-742.67 1000.28,-619.87 1015.55,-564.83"/>
<polygon fill="#b6ecf3" stroke="#b6ecf3" points="1018.95,-565.63 1018.17,-555.07 1012.19,-563.82 1018.95,-565.63"/>
</g>
<!-- flatiron.models.unet -->
<g id="node11" class="node">
<title>flatiron.models.unet</title>
<polygon fill="#343434" stroke="#343434" points="1353,-528 1171,-528 1171,-492 1353,-492 1353,-528"/>
<text text-anchor="middle" x="1262" y="-506.3" font-family="Courier,monospace" font-size="14.00" fill="#b6ecf3">flatiron.models.unet</text>
</g>
<!-- flatiron.core.pipeline&#45;&gt;flatiron.models.unet -->
<g id="edge6" class="edge">
<title>flatiron.core.pipeline&#45;&gt;flatiron.models.unet</title>
<path fill="none" stroke="#b6ecf3" d="M1122.74,-525.78C1135.26,-524.36 1148.09,-522.89 1160.64,-521.46"/>
<polygon fill="#b6ecf3" stroke="#b6ecf3" points="1161.09,-524.93 1170.63,-520.32 1160.3,-517.97 1161.09,-524.93"/>
</g>
<!-- flatiron.core.tools -->
<g id="node9" class="node">
<title>flatiron.core.tools</title>
<polygon fill="#343434" stroke="#343434" points="580,-536 407,-536 407,-500 580,-500 580,-536"/>
<text text-anchor="middle" x="493.5" y="-514.3" font-family="Courier,monospace" font-size="14.00" fill="#b6ecf3">flatiron.core.tools</text>
</g>
<!-- flatiron.core.tools&#45;&gt;flatiron.core.dataset -->
<g id="edge7" class="edge">
<title>flatiron.core.tools&#45;&gt;flatiron.core.dataset</title>
<path fill="none" stroke="#b6ecf3" d="M580.1,-505.76C587.85,-501.99 595.02,-497.16 601,-491 652.38,-438.08 584.99,-381.29 637,-329 641.54,-324.43 646.68,-320.57 652.22,-317.32"/>
<polygon fill="#b6ecf3" stroke="#b6ecf3" points="653.93,-320.37 661.21,-312.67 650.72,-314.15 653.93,-320.37"/>
</g>
<!-- flatiron.core.tools&#45;&gt;flatiron.core.logging -->
<g id="edge8" class="edge">
<title>flatiron.core.tools&#45;&gt;flatiron.core.logging</title>
<path fill="none" stroke="#b6ecf3" d="M578.27,-536.1C586.42,-539.89 594.18,-544.47 601,-550 626.95,-571.05 610.76,-595.31 637,-616 641.72,-619.72 646.83,-623.01 652.2,-625.91"/>
<polygon fill="#b6ecf3" stroke="#b6ecf3" points="650.93,-629.19 661.45,-630.45 654.01,-622.9 650.93,-629.19"/>
</g>
<!-- flatiron.core.tools&#45;&gt;flatiron.core.loss -->
<g id="edge9" class="edge">
<title>flatiron.core.tools&#45;&gt;flatiron.core.loss</title>
<path fill="none" stroke="#b6ecf3" d="M509.66,-536.05C535.02,-565.93 588.07,-627.11 637,-675 665.7,-703.09 700.62,-732.97 725.09,-753.27"/>
<polygon fill="#b6ecf3" stroke="#b6ecf3" points="723.03,-756.1 732.97,-759.77 727.48,-750.7 723.03,-756.1"/>
</g>
<!-- flatiron.core.tools&#45;&gt;flatiron.core.metric -->
<g id="edge10" class="edge">
<title>flatiron.core.tools&#45;&gt;flatiron.core.metric</title>
<path fill="none" stroke="#b6ecf3" d="M512.4,-536.42C536.16,-561.89 577.79,-610.25 601,-659 629.73,-719.34 589.33,-758.16 637,-805 642.66,-810.56 649.22,-815.07 656.28,-818.72"/>
<polygon fill="#b6ecf3" stroke="#b6ecf3" points="654.93,-821.95 665.48,-822.89 657.82,-815.57 654.93,-821.95"/>
</g>
<!-- flatiron.core.tools&#45;&gt;flatiron.core.pipeline -->
<g id="edge11" class="edge">
<title>flatiron.core.tools&#45;&gt;flatiron.core.pipeline</title>
<path fill="none" stroke="#b6ecf3" d="M575.51,-536.07C595.51,-539.77 616.94,-543.12 637,-545 730.28,-553.76 836.8,-550.55 914.19,-545.84"/>
<polygon fill="#b6ecf3" stroke="#b6ecf3" points="914.68,-549.32 924.44,-545.2 914.24,-542.33 914.68,-549.32"/>
</g>
<!-- flatiron.core.tools&#45;&gt;flatiron.models.unet -->
<g id="edge12" class="edge">
<title>flatiron.core.tools&#45;&gt;flatiron.models.unet</title>
<path fill="none" stroke="#b6ecf3" d="M542.2,-536.08C569.51,-545.49 604.69,-556.05 637,-561 855.79,-594.51 918.18,-608.5 1135,-564 1164.64,-557.92 1195.91,-544.56 1219.89,-532.65"/>
<polygon fill="#b6ecf3" stroke="#b6ecf3" points="1221.7,-535.66 1229.03,-528.01 1218.53,-529.42 1221.7,-535.66"/>
</g>
<!-- flatiron.core.validators -->
<g id="node10" class="node">
<title>flatiron.core.validators</title>
<polygon fill="#343434" stroke="#343434" points="601,-1126 386,-1126 386,-1090 601,-1090 601,-1126"/>
<text text-anchor="middle" x="493.5" y="-1104.3" font-family="Courier,monospace" font-size="14.00" fill="#b6ecf3">flatiron.core.validators</text>
</g>
<!-- flatiron.core.validators&#45;&gt;flatiron.core.config -->
<g id="edge13" class="edge">
<title>flatiron.core.validators&#45;&gt;flatiron.core.config</title>
<path fill="none" stroke="#b6ecf3" d="M572.96,-1089.95C582.49,-1087.22 592.02,-1084.22 601,-1081 640.09,-1066.96 682.64,-1046.44 713.17,-1030.73"/>
<polygon fill="#b6ecf3" stroke="#b6ecf3" points="714.98,-1033.73 722.24,-1026.02 711.75,-1027.52 714.98,-1033.73"/>
</g>
<!-- flatiron.core.validators&#45;&gt;flatiron.models.unet -->
<g id="edge14" class="edge">
<title>flatiron.core.validators&#45;&gt;flatiron.models.unet</title>
<path fill="none" stroke="#b6ecf3" d="M601.19,-1115.61C745.92,-1119.47 1001.67,-1102.18 1135,-949 1242.67,-825.3 1258.61,-614.93 1260.76,-538.68"/>
<polygon fill="#b6ecf3" stroke="#b6ecf3" points="1264.26,-538.5 1260.98,-528.42 1257.26,-538.35 1264.26,-538.5"/>
</g>
<!-- click -->
<g id="node12" class="node">
<title>click</title>
<polygon fill="#343434" stroke="#343434" points="70.5,-1028 12.5,-1028 12.5,-992 70.5,-992 70.5,-1028"/>
<text text-anchor="middle" x="41.5" y="-1006.3" font-family="Courier,monospace" font-size="14.00" fill="#de958e">click</text>
</g>
<!-- click&#45;&gt;flatiron.command -->
<g id="edge15" class="edge">
<title>click&#45;&gt;flatiron.command</title>
<path fill="none" stroke="#de958e" d="M70.68,-1010C91.57,-1010 121.2,-1010 149.47,-1010"/>
<polygon fill="#de958e" stroke="#de958e" points="149.8,-1013.5 159.8,-1010 149.8,-1006.5 149.8,-1013.5"/>
</g>
<!-- flatiron -->
<g id="node13" class="node">
<title>flatiron</title>
<polygon fill="#343434" stroke="#343434" points="83,-769 0,-769 0,-733 83,-733 83,-769"/>
<text text-anchor="middle" x="41.5" y="-747.3" font-family="Courier,monospace" font-size="14.00" fill="#a0d17b">flatiron</text>
</g>
<!-- flatiron&#45;&gt;flatiron.command -->
<g id="edge16" class="edge">
<title>flatiron&#45;&gt;flatiron.command</title>
<path fill="none" stroke="#a0d17b" d="M42.82,-769.23C44.62,-813.03 55.53,-924.83 119,-983 127.88,-991.14 138.75,-996.96 150.21,-1001.1"/>
<polygon fill="#a0d17b" stroke="#a0d17b" points="149.37,-1004.51 159.96,-1004.2 151.49,-997.83 149.37,-1004.51"/>
</g>
<!-- flatiron.core -->
<g id="node14" class="node">
<title>flatiron.core</title>
<polygon fill="#343434" stroke="#343434" points="296.5,-769 172.5,-769 172.5,-733 296.5,-733 296.5,-769"/>
<text text-anchor="middle" x="234.5" y="-747.3" font-family="Courier,monospace" font-size="14.00" fill="#a0d17b">flatiron.core</text>
</g>
<!-- flatiron&#45;&gt;flatiron.core -->
<g id="edge17" class="edge">
<title>flatiron&#45;&gt;flatiron.core</title>
<path fill="none" stroke="#a0d17b" d="M83.01,-751C106.02,-751 135.49,-751 162.25,-751"/>
<polygon fill="#a0d17b" stroke="#a0d17b" points="162.35,-754.5 172.35,-751 162.35,-747.5 162.35,-754.5"/>
</g>
<!-- flatiron.models -->
<g id="node17" class="node">
<title>flatiron.models</title>
<polygon fill="#343434" stroke="#343434" points="1093.5,-144 953.5,-144 953.5,-108 1093.5,-108 1093.5,-144"/>
<text text-anchor="middle" x="1023.5" y="-122.3" font-family="Courier,monospace" font-size="14.00" fill="#a0d17b">flatiron.models</text>
</g>
<!-- flatiron&#45;&gt;flatiron.models -->
<g id="edge18" class="edge">
<title>flatiron&#45;&gt;flatiron.models</title>
<path fill="none" stroke="#a0d17b" d="M75.99,-732.74C78.72,-730.13 81.14,-727.22 83,-724 142.51,-621.28 35.24,-275.13 119,-191 232.83,-76.67 744.6,-103.85 943.28,-119.15"/>
<polygon fill="#a0d17b" stroke="#a0d17b" points="943.12,-122.65 953.36,-119.94 943.66,-115.67 943.12,-122.65"/>
</g>
<!-- flatiron.core&#45;&gt;flatiron.core.config -->
<g id="edge19" class="edge">
<title>flatiron.core&#45;&gt;flatiron.core.config</title>
<path fill="none" stroke="#a0d17b" d="M247.39,-769.07C268.4,-801.1 313.35,-870.01 350,-929 366.41,-955.41 359.34,-972.99 386,-989 429.77,-1015.29 561.64,-1016.25 655.33,-1013.21"/>
<polygon fill="#a0d17b" stroke="#a0d17b" points="655.54,-1016.71 665.42,-1012.86 655.3,-1009.71 655.54,-1016.71"/>
</g>
<!-- flatiron.core&#45;&gt;flatiron.core.dataset -->
<g id="edge20" class="edge">
<title>flatiron.core&#45;&gt;flatiron.core.dataset</title>
<path fill="none" stroke="#a0d17b" d="M254.08,-732.93C281.21,-707.31 334.13,-660.17 386,-630 474.82,-578.34 536.41,-624.91 601,-545 662.18,-469.31 570.24,-399.81 637,-329 641.51,-324.21 646.68,-320.19 652.28,-316.82"/>
<polygon fill="#a0d17b" stroke="#a0d17b" points="654.17,-319.78 661.41,-312.04 650.92,-313.58 654.17,-319.78"/>
</g>
<!-- flatiron.core&#45;&gt;flatiron.core.logging -->
<g id="edge21" class="edge">
<title>flatiron.core&#45;&gt;flatiron.core.logging</title>
<path fill="none" stroke="#a0d17b" d="M257.17,-732.64C284.93,-710.39 335.52,-674.02 386,-659 472.51,-633.26 575.48,-632.48 650.72,-637.01"/>
<polygon fill="#a0d17b" stroke="#a0d17b" points="650.94,-640.53 661.15,-637.68 651.39,-633.54 650.94,-640.53"/>
</g>
<!-- flatiron.core&#45;&gt;flatiron.core.loss -->
<g id="edge22" class="edge">
<title>flatiron.core&#45;&gt;flatiron.core.loss</title>
<path fill="none" stroke="#a0d17b" d="M296.68,-754.18C387.32,-758.88 557.92,-767.74 663.62,-773.23"/>
<polygon fill="#a0d17b" stroke="#a0d17b" points="663.47,-776.73 673.64,-773.75 663.84,-769.74 663.47,-776.73"/>
</g>
<!-- flatiron.core&#45;&gt;flatiron.core.metric -->
<g id="edge23" class="edge">
<title>flatiron.core&#45;&gt;flatiron.core.metric</title>
<path fill="none" stroke="#a0d17b" d="M247.04,-769.15C269.23,-802.11 321.39,-870.81 386,-897 474.56,-932.9 507.33,-915.9 601,-897 641.2,-888.89 683.96,-870.01 714.28,-854.68"/>
<polygon fill="#a0d17b" stroke="#a0d17b" points="715.98,-857.74 723.27,-850.05 712.78,-851.51 715.98,-857.74"/>
</g>
<!-- flatiron.core&#45;&gt;flatiron.core.pipeline -->
<g id="edge24" class="edge">
<title>flatiron.core&#45;&gt;flatiron.core.pipeline</title>
<path fill="none" stroke="#a0d17b" d="M296.55,-752.32C436.37,-754.44 775.44,-754.07 876,-704 938.06,-673.1 985.2,-603.25 1007.77,-564.39"/>
<polygon fill="#a0d17b" stroke="#a0d17b" points="1011.09,-565.64 1012.98,-555.22 1005,-562.19 1011.09,-565.64"/>
</g>
<!-- flatiron.core&#45;&gt;flatiron.core.tools -->
<g id="edge25" class="edge">
<title>flatiron.core&#45;&gt;flatiron.core.tools</title>
<path fill="none" stroke="#a0d17b" d="M250.03,-732.52C275.5,-700.79 330.77,-634.83 386,-588 406.52,-570.59 431.59,-553.93 452.24,-541.23"/>
<polygon fill="#a0d17b" stroke="#a0d17b" points="454.06,-544.21 460.8,-536.03 450.43,-538.23 454.06,-544.21"/>
</g>
<!-- flatiron.core&#45;&gt;flatiron.core.validators -->
<g id="edge26" class="edge">
<title>flatiron.core&#45;&gt;flatiron.core.validators</title>
<path fill="none" stroke="#a0d17b" d="M250.11,-769.04C274.41,-799.94 323.11,-865.77 350,-929 377.17,-992.89 337.3,-1031.52 386,-1081 386.8,-1081.82 387.63,-1082.61 388.47,-1083.38"/>
<polygon fill="#a0d17b" stroke="#a0d17b" points="386.52,-1086.29 396.55,-1089.71 390.83,-1080.78 386.52,-1086.29"/>
</g>
<!-- lunchbox.enforce -->
<g id="node15" class="node">
<title>lunchbox.enforce</title>
<polygon fill="#343434" stroke="#343434" points="309,-236 160,-236 160,-200 309,-200 309,-236"/>
<text text-anchor="middle" x="234.5" y="-214.3" font-family="Courier,monospace" font-size="14.00" fill="#de958e">lunchbox.enforce</text>
</g>
<!-- lunchbox.enforce&#45;&gt;flatiron.core.dataset -->
<g id="edge27" class="edge">
<title>lunchbox.enforce&#45;&gt;flatiron.core.dataset</title>
<path fill="none" stroke="#de958e" d="M309.07,-229.07C382.93,-240.28 499.94,-258.29 601,-275 617.13,-277.67 634.19,-280.57 650.86,-283.45"/>
<polygon fill="#de958e" stroke="#de958e" points="650.73,-286.98 661.18,-285.23 651.92,-280.08 650.73,-286.98"/>
</g>
<!-- lunchbox.enforce&#45;&gt;flatiron.core.tools -->
<g id="edge28" class="edge">
<title>lunchbox.enforce&#45;&gt;flatiron.core.tools</title>
<path fill="none" stroke="#de958e" d="M284.18,-236.01C307.66,-247.17 334.11,-263.85 350,-287 402.1,-362.91 323.34,-423.55 386,-491 389.6,-494.87 393.67,-498.23 398.06,-501.12"/>
<polygon fill="#de958e" stroke="#de958e" points="396.46,-504.24 406.88,-506.15 399.93,-498.16 396.46,-504.24"/>
</g>
<!-- lunchbox.enforce&#45;&gt;flatiron.models.unet -->
<g id="edge29" class="edge">
<title>lunchbox.enforce&#45;&gt;flatiron.models.unet</title>
<path fill="none" stroke="#de958e" d="M309.01,-209.66C389.42,-200.99 522.18,-187.99 637,-183 860.75,-173.27 963.19,-116.33 1135,-260 1206.51,-319.8 1241.59,-430.31 1254.69,-481.99"/>
<polygon fill="#de958e" stroke="#de958e" points="1251.31,-482.92 1257.09,-491.8 1258.11,-481.25 1251.31,-482.92"/>
</g>
<!-- lunchbox.stopwatch -->
<g id="node16" class="node">
<title>lunchbox.stopwatch</title>
<polygon fill="#343434" stroke="#343434" points="317,-482 152,-482 152,-446 317,-446 317,-482"/>
<text text-anchor="middle" x="234.5" y="-460.3" font-family="Courier,monospace" font-size="14.00" fill="#de958e">lunchbox.stopwatch</text>
</g>
<!-- lunchbox.stopwatch&#45;&gt;flatiron.core.tools -->
<g id="edge30" class="edge">
<title>lunchbox.stopwatch&#45;&gt;flatiron.core.tools</title>
<path fill="none" stroke="#de958e" d="M317.17,-481.16C342.45,-486.47 370.54,-492.37 396.69,-497.87"/>
<polygon fill="#de958e" stroke="#de958e" points="396.1,-501.32 406.61,-499.95 397.54,-494.47 396.1,-501.32"/>
</g>
<!-- flatiron.models&#45;&gt;flatiron.models.unet -->
<g id="edge31" class="edge">
<title>flatiron.models&#45;&gt;flatiron.models.unet</title>
<path fill="none" stroke="#a0d17b" d="M1093.73,-135.33C1108.77,-140.1 1123.58,-147.26 1135,-158 1230.65,-247.91 1253.81,-415.45 1259.32,-481.85"/>
<polygon fill="#a0d17b" stroke="#a0d17b" points="1255.84,-482.26 1260.08,-491.96 1262.82,-481.73 1255.84,-482.26"/>
</g>
<!-- lunchbox.tools -->
<g id="node18" class="node">
<title>lunchbox.tools</title>
<polygon fill="#343434" stroke="#343434" points="300.5,-590 168.5,-590 168.5,-554 300.5,-554 300.5,-590"/>
<text text-anchor="middle" x="234.5" y="-568.3" font-family="Courier,monospace" font-size="14.00" fill="#de958e">lunchbox.tools</text>
</g>
<!-- lunchbox.tools&#45;&gt;flatiron.core.logging -->
<g id="edge32" class="edge">
<title>lunchbox.tools&#45;&gt;flatiron.core.logging</title>
<path fill="none" stroke="#de958e" d="M300.57,-581.51C388.61,-594.38 546.69,-617.48 651.35,-632.78"/>
<polygon fill="#de958e" stroke="#de958e" points="650.91,-636.25 661.31,-634.23 651.92,-629.32 650.91,-636.25"/>
</g>
<!-- lunchbox.tools&#45;&gt;flatiron.core.tools -->
<g id="edge33" class="edge">
<title>lunchbox.tools&#45;&gt;flatiron.core.tools</title>
<path fill="none" stroke="#de958e" d="M300.68,-558.3C329.93,-552.16 365.01,-544.79 397.12,-538.04"/>
<polygon fill="#de958e" stroke="#de958e" points="397.92,-541.45 406.98,-535.97 396.48,-534.6 397.92,-541.45"/>
</g>
<!-- pytz -->
<g id="node19" class="node">
<title>pytz</title>
<polygon fill="#343434" stroke="#343434" points="261.5,-428 207.5,-428 207.5,-392 261.5,-392 261.5,-428"/>
<text text-anchor="middle" x="234.5" y="-406.3" font-family="Courier,monospace" font-size="14.00" fill="#de958e">pytz</text>
</g>
<!-- pytz&#45;&gt;flatiron.core.tools -->
<g id="edge34" class="edge">
<title>pytz&#45;&gt;flatiron.core.tools</title>
<path fill="none" stroke="#de958e" d="M261.81,-410.78C286.57,-412.69 323.67,-418.7 350,-437 373.69,-453.46 362.45,-474.35 386,-491 389.69,-493.61 393.61,-495.97 397.69,-498.1"/>
<polygon fill="#de958e" stroke="#de958e" points="396.29,-501.31 406.83,-502.41 399.28,-494.98 396.29,-501.31"/>
</g>
<!-- schematics.exceptions -->
<g id="node20" class="node">
<title>schematics.exceptions</title>
<polygon fill="#343434" stroke="#343434" points="329.5,-974 139.5,-974 139.5,-938 329.5,-938 329.5,-974"/>
<text text-anchor="middle" x="234.5" y="-952.3" font-family="Courier,monospace" font-size="14.00" fill="#de958e">schematics.exceptions</text>
</g>
<!-- schematics.exceptions&#45;&gt;flatiron.core.validators -->
<g id="edge35" class="edge">
<title>schematics.exceptions&#45;&gt;flatiron.core.validators</title>
<path fill="none" stroke="#de958e" d="M329.71,-969.79C337.06,-973.31 343.96,-977.65 350,-983 384.73,-1013.78 351.53,-1049.93 386,-1081 387.15,-1082.04 388.34,-1083.04 389.55,-1084"/>
<polygon fill="#de958e" stroke="#de958e" points="387.77,-1087.02 397.99,-1089.82 391.75,-1081.26 387.77,-1087.02"/>
</g>
<!-- tensorflow.keras.callbacks -->
<g id="node21" class="node">
<title>tensorflow.keras.callbacks</title>
<polygon fill="#343434" stroke="#343434" points="350,-536 119,-536 119,-500 350,-500 350,-536"/>
<text text-anchor="middle" x="234.5" y="-514.3" font-family="Courier,monospace" font-size="14.00" fill="#de958e">tensorflow.keras.callbacks</text>
</g>
<!-- tensorflow.keras.callbacks&#45;&gt;flatiron.core.tools -->
<g id="edge36" class="edge">
<title>tensorflow.keras.callbacks&#45;&gt;flatiron.core.tools</title>
<path fill="none" stroke="#de958e" d="M350.1,-518C365.54,-518 381.25,-518 396.33,-518"/>
<polygon fill="#de958e" stroke="#de958e" points="396.66,-521.5 406.66,-518 396.66,-514.5 396.66,-521.5"/>
</g>
<!-- yaml -->
<g id="node22" class="node">
<title>yaml</title>
<polygon fill="#343434" stroke="#343434" points="261.5,-332 207.5,-332 207.5,-296 261.5,-296 261.5,-332"/>
<text text-anchor="middle" x="234.5" y="-310.3" font-family="Courier,monospace" font-size="14.00" fill="#de958e">yaml</text>
</g>
<!-- yaml&#45;&gt;flatiron.core.pipeline -->
<g id="edge37" class="edge">
<title>yaml&#45;&gt;flatiron.core.pipeline</title>
<path fill="none" stroke="#de958e" d="M261.74,-305.03C291.47,-295.38 341.55,-280.67 386,-275 494.01,-261.23 793.38,-204.07 876,-275 956.17,-343.83 840.63,-432.08 912,-510 913.24,-511.35 914.53,-512.64 915.87,-513.87"/>
<polygon fill="#de958e" stroke="#de958e" points="914.04,-516.88 924.07,-520.28 918.35,-511.36 914.04,-516.88"/>
</g>
<!-- yaml&#45;&gt;flatiron.core.tools -->
<g id="edge38" class="edge">
<title>yaml&#45;&gt;flatiron.core.tools</title>
<path fill="none" stroke="#de958e" d="M261.94,-323.6C287.87,-334.31 326.79,-354.01 350,-383 381.62,-422.5 348.93,-456.56 386,-491 389.61,-494.35 393.57,-497.3 397.79,-499.9"/>
<polygon fill="#de958e" stroke="#de958e" points="396.28,-503.07 406.75,-504.75 399.62,-496.91 396.28,-503.07"/>
</g>
<!-- humanfriendly -->
<g id="node23" class="node">
<title>humanfriendly</title>
<polygon fill="#343434" stroke="#343434" points="555.5,-374 431.5,-374 431.5,-338 555.5,-338 555.5,-374"/>
<text text-anchor="middle" x="493.5" y="-352.3" font-family="Courier,monospace" font-size="14.00" fill="#de958e">humanfriendly</text>
</g>
<!-- humanfriendly&#45;&gt;flatiron.core.dataset -->
<g id="edge39" class="edge">
<title>humanfriendly&#45;&gt;flatiron.core.dataset</title>
<path fill="none" stroke="#de958e" d="M555.69,-343.34C586.14,-337.04 623.67,-329.28 657.96,-322.18"/>
<polygon fill="#de958e" stroke="#de958e" points="658.92,-325.56 668,-320.1 657.5,-318.7 658.92,-325.56"/>
</g>
<!-- numpy -->
<g id="node24" class="node">
<title>numpy</title>
<polygon fill="#343434" stroke="#343434" points="522.5,-704 464.5,-704 464.5,-668 522.5,-668 522.5,-704"/>
<text text-anchor="middle" x="493.5" y="-682.3" font-family="Courier,monospace" font-size="14.00" fill="#de958e">numpy</text>
</g>
<!-- numpy&#45;&gt;flatiron.core.dataset -->
<g id="edge40" class="edge">
<title>numpy&#45;&gt;flatiron.core.dataset</title>
<path fill="none" stroke="#de958e" d="M522.68,-675.5C547.65,-664.63 582.87,-645.11 601,-616 668.97,-506.88 550.72,-424.3 637,-329 641.46,-324.07 646.62,-319.95 652.23,-316.51"/>
<polygon fill="#de958e" stroke="#de958e" points="654.21,-319.42 661.4,-311.64 650.92,-313.24 654.21,-319.42"/>
</g>
<!-- numpy&#45;&gt;flatiron.core.loss -->
<g id="edge41" class="edge">
<title>numpy&#45;&gt;flatiron.core.loss</title>
<path fill="none" stroke="#de958e" d="M522.68,-695.93C563.59,-710.35 640.45,-737.45 694.65,-756.55"/>
<polygon fill="#de958e" stroke="#de958e" points="693.56,-759.88 704.15,-759.9 695.89,-753.28 693.56,-759.88"/>
</g>
<!-- numpy&#45;&gt;flatiron.core.metric -->
<g id="edge42" class="edge">
<title>numpy&#45;&gt;flatiron.core.metric</title>
<path fill="none" stroke="#de958e" d="M510.97,-704.43C535.68,-730.88 585.01,-779.25 637,-805 642.97,-807.96 649.27,-810.6 655.73,-812.95"/>
<polygon fill="#de958e" stroke="#de958e" points="654.69,-816.29 665.29,-816.2 656.94,-809.67 654.69,-816.29"/>
</g>
<!-- numpy&#45;&gt;flatiron.core.pipeline -->
<g id="edge43" class="edge">
<title>numpy&#45;&gt;flatiron.core.pipeline</title>
<path fill="none" stroke="#de958e" d="M522.72,-691.74C587.93,-703.65 752.93,-725.9 876,-675 932.02,-651.83 979.4,-596.68 1004.11,-563.54"/>
<polygon fill="#de958e" stroke="#de958e" points="1007.12,-565.36 1010.19,-555.22 1001.46,-561.24 1007.12,-565.36"/>
</g>
<!-- tensorflow -->
<g id="node25" class="node">
<title>tensorflow</title>
<polygon fill="#343434" stroke="#343434" points="543,-888 444,-888 444,-852 543,-852 543,-888"/>
<text text-anchor="middle" x="493.5" y="-866.3" font-family="Courier,monospace" font-size="14.00" fill="#de958e">tensorflow</text>
</g>
<!-- tensorflow&#45;&gt;flatiron.core.loss -->
<g id="edge44" class="edge">
<title>tensorflow&#45;&gt;flatiron.core.loss</title>
<path fill="none" stroke="#de958e" d="M543.11,-863.64C562.1,-859.67 583.48,-853.28 601,-843 621.07,-831.23 616.79,-816.52 637,-805 645.45,-800.18 654.71,-796.22 664.2,-792.97"/>
<polygon fill="#de958e" stroke="#de958e" points="665.27,-796.3 673.75,-789.94 663.16,-789.62 665.27,-796.3"/>
</g>
<!-- tensorflow&#45;&gt;flatiron.core.metric -->
<g id="edge45" class="edge">
<title>tensorflow&#45;&gt;flatiron.core.metric</title>
<path fill="none" stroke="#de958e" d="M543.29,-862.9C574.78,-858.31 616.89,-852.18 655.29,-846.59"/>
<polygon fill="#de958e" stroke="#de958e" points="656.1,-850.01 665.49,-845.1 655.09,-843.08 656.1,-850.01"/>
</g>
<!-- tensorflow&#45;&gt;flatiron.models.unet -->
<g id="edge46" class="edge">
<title>tensorflow&#45;&gt;flatiron.models.unet</title>
<path fill="none" stroke="#de958e" d="M543.04,-878.96C617.7,-890.51 763.82,-904.15 876,-859 1048.56,-789.56 1192.9,-605.59 1242.54,-536.62"/>
<polygon fill="#de958e" stroke="#de958e" points="1245.43,-538.59 1248.38,-528.42 1239.73,-534.53 1245.43,-538.59"/>
</g>
<!-- keras.engine.keras_tensor -->
<g id="node26" class="node">
<title>keras.engine.keras_tensor</title>
<polygon fill="#343434" stroke="#343434" points="1135,-501 912,-501 912,-465 1135,-465 1135,-501"/>
<text text-anchor="middle" x="1023.5" y="-479.3" font-family="Courier,monospace" font-size="14.00" fill="#de958e">keras.engine.keras_tensor</text>
</g>
<!-- keras.engine.keras_tensor&#45;&gt;flatiron.models.unet -->
<g id="edge47" class="edge">
<title>keras.engine.keras_tensor&#45;&gt;flatiron.models.unet</title>
<path fill="none" stroke="#de958e" d="M1135.13,-495.63C1143.59,-496.6 1152.11,-497.57 1160.5,-498.53"/>
<polygon fill="#de958e" stroke="#de958e" points="1160.33,-502.03 1170.66,-499.69 1161.12,-495.07 1160.33,-502.03"/>
</g>
<!-- schematics -->
<g id="node27" class="node">
<title>schematics</title>
<polygon fill="#343434" stroke="#343434" points="543,-1072 444,-1072 444,-1036 543,-1036 543,-1072"/>
<text text-anchor="middle" x="493.5" y="-1050.3" font-family="Courier,monospace" font-size="14.00" fill="#de958e">schematics</text>
</g>
<!-- schematics&#45;&gt;flatiron.core.config -->
<g id="edge48" class="edge">
<title>schematics&#45;&gt;flatiron.core.config</title>
<path fill="none" stroke="#de958e" d="M543.29,-1045.4C574.78,-1039.85 616.89,-1032.43 655.29,-1025.66"/>
<polygon fill="#de958e" stroke="#de958e" points="656.25,-1029.05 665.49,-1023.86 655.04,-1022.15 656.25,-1029.05"/>
</g>
<!-- schematics&#45;&gt;flatiron.models.unet -->
<g id="edge49" class="edge">
<title>schematics&#45;&gt;flatiron.models.unet</title>
<path fill="none" stroke="#de958e" d="M543.14,-1060.14C617.31,-1067.63 762.07,-1074.83 876,-1035 1009.78,-988.24 1049.02,-961.65 1135,-849 1210.65,-749.89 1244.75,-600.56 1256.24,-538.56"/>
<polygon fill="#de958e" stroke="#de958e" points="1259.75,-538.82 1258.07,-528.36 1252.86,-537.59 1259.75,-538.82"/>
</g>
<!-- tensorflow.keras.backend -->
<g id="node28" class="node">
<title>tensorflow.keras.backend</title>
<polygon fill="#343434" stroke="#343434" points="601,-834 386,-834 386,-798 601,-798 601,-834"/>
<text text-anchor="middle" x="493.5" y="-812.3" font-family="Courier,monospace" font-size="14.00" fill="#de958e">tensorflow.keras.backend</text>
</g>
<!-- tensorflow.keras.backend&#45;&gt;flatiron.core.loss -->
<g id="edge50" class="edge">
<title>tensorflow.keras.backend&#45;&gt;flatiron.core.loss</title>
<path fill="none" stroke="#de958e" d="M601.04,-800.49C621.78,-797.47 643.35,-794.33 663.57,-791.38"/>
<polygon fill="#de958e" stroke="#de958e" points="664.3,-794.81 673.69,-789.91 663.29,-787.89 664.3,-794.81"/>
</g>
<!-- tensorflow.keras.backend&#45;&gt;flatiron.core.metric -->
<g id="edge51" class="edge">
<title>tensorflow.keras.backend&#45;&gt;flatiron.core.metric</title>
<path fill="none" stroke="#de958e" d="M601.04,-822.53C618.83,-823.62 637.24,-824.75 654.87,-825.83"/>
<polygon fill="#de958e" stroke="#de958e" points="654.96,-829.34 665.16,-826.46 655.39,-822.36 654.96,-829.34"/>
</g>
<!-- pandas -->
<g id="node29" class="node">
<title>pandas</title>
<polygon fill="#343434" stroke="#343434" points="526.5,-320 460.5,-320 460.5,-284 526.5,-284 526.5,-320"/>
<text text-anchor="middle" x="493.5" y="-298.3" font-family="Courier,monospace" font-size="14.00" fill="#de958e">pandas</text>
</g>
<!-- pandas&#45;&gt;flatiron.core.dataset -->
<g id="edge52" class="edge">
<title>pandas&#45;&gt;flatiron.core.dataset</title>
<path fill="none" stroke="#de958e" d="M526.5,-302C557.64,-302 606.65,-302 651.35,-302"/>
<polygon fill="#de958e" stroke="#de958e" points="651.41,-305.5 661.41,-302 651.41,-298.5 651.41,-305.5"/>
</g>
<!-- schematics.types -->
<g id="node30" class="node">
<title>schematics.types</title>
<polygon fill="#343434" stroke="#343434" points="568,-980 419,-980 419,-944 568,-944 568,-980"/>
<text text-anchor="middle" x="493.5" y="-958.3" font-family="Courier,monospace" font-size="14.00" fill="#de958e">schematics.types</text>
</g>
<!-- schematics.types&#45;&gt;flatiron.core.config -->
<g id="edge53" class="edge">
<title>schematics.types&#45;&gt;flatiron.core.config</title>
<path fill="none" stroke="#de958e" d="M568.25,-975C595.21,-979.75 626.2,-985.21 655.1,-990.31"/>
<polygon fill="#de958e" stroke="#de958e" points="654.77,-993.8 665.23,-992.09 655.99,-986.91 654.77,-993.8"/>
</g>
<!-- schematics.types&#45;&gt;flatiron.models.unet -->
<g id="edge54" class="edge">
<title>schematics.types&#45;&gt;flatiron.models.unet</title>
<path fill="none" stroke="#de958e" d="M568.01,-961.18C699.69,-955.69 976.82,-925.2 1135,-771 1204.27,-703.47 1240.56,-590.17 1254.34,-537.93"/>
<polygon fill="#de958e" stroke="#de958e" points="1257.78,-538.59 1256.87,-528.04 1251,-536.86 1257.78,-538.59"/>
</g>
<!-- keras.engine.functional -->
<g id="node31" class="node">
<title>keras.engine.functional</title>
<polygon fill="#343434" stroke="#343434" points="859.5,-228 653.5,-228 653.5,-192 859.5,-192 859.5,-228"/>
<text text-anchor="middle" x="756.5" y="-206.3" font-family="Courier,monospace" font-size="14.00" fill="#de958e">keras.engine.functional</text>
</g>
<!-- keras.engine.functional&#45;&gt;flatiron.core.pipeline -->
<g id="edge55" class="edge">
<title>keras.engine.functional&#45;&gt;flatiron.core.pipeline</title>
<path fill="none" stroke="#de958e" d="M859.23,-228C865.46,-231.86 871.15,-236.47 876,-242 955.27,-332.33 831.65,-420.63 912,-510 913.39,-511.54 914.85,-513 916.37,-514.39"/>
<polygon fill="#de958e" stroke="#de958e" points="914.43,-517.31 924.47,-520.68 918.72,-511.78 914.43,-517.31"/>
</g>
<!-- keras.engine.functional&#45;&gt;flatiron.models.unet -->
<g id="edge56" class="edge">
<title>keras.engine.functional&#45;&gt;flatiron.models.unet</title>
<path fill="none" stroke="#de958e" d="M839.14,-228.06C851.74,-231.98 864.41,-236.6 876,-242 1021.9,-309.96 1171.98,-432.71 1232.83,-485.15"/>
<polygon fill="#de958e" stroke="#de958e" points="1230.63,-487.88 1240.48,-491.78 1235.22,-482.59 1230.63,-487.88"/>
</g>
<!-- sklearn.model_selection -->
<g id="node32" class="node">
<title>sklearn.model_selection</title>
<polygon fill="#343434" stroke="#343434" points="596.5,-482 390.5,-482 390.5,-446 596.5,-446 596.5,-482"/>
<text text-anchor="middle" x="493.5" y="-460.3" font-family="Courier,monospace" font-size="14.00" fill="#de958e">sklearn.model_selection</text>
</g>
<!-- sklearn.model_selection&#45;&gt;flatiron.core.dataset -->
<g id="edge57" class="edge">
<title>sklearn.model_selection&#45;&gt;flatiron.core.dataset</title>
<path fill="none" stroke="#de958e" d="M589.13,-445.95C593.37,-443.34 597.37,-440.38 601,-437 638.07,-402.56 599.52,-362.99 637,-329 641.56,-324.87 646.61,-321.33 651.99,-318.3"/>
<polygon fill="#de958e" stroke="#de958e" points="653.92,-321.25 661.33,-313.66 650.81,-314.98 653.92,-321.25"/>
</g>
<!-- tqdm.notebook -->
<g id="node33" class="node">
<title>tqdm.notebook</title>
<polygon fill="#343434" stroke="#343434" points="555.5,-428 431.5,-428 431.5,-392 555.5,-392 555.5,-428"/>
<text text-anchor="middle" x="493.5" y="-406.3" font-family="Courier,monospace" font-size="14.00" fill="#de958e">tqdm.notebook</text>
</g>
<!-- tqdm.notebook&#45;&gt;flatiron.core.dataset -->
<g id="edge58" class="edge">
<title>tqdm.notebook&#45;&gt;flatiron.core.dataset</title>
<path fill="none" stroke="#de958e" d="M555.58,-402.55C571.38,-398.56 587.68,-392.42 601,-383 624.55,-366.35 613.25,-345.37 637,-329 641.67,-325.78 646.66,-322.94 651.86,-320.44"/>
<polygon fill="#de958e" stroke="#de958e" points="653.65,-323.48 661.42,-316.28 650.86,-317.06 653.65,-323.48"/>
</g>
<!-- schematics.models -->
<g id="node34" class="node">
<title>schematics.models</title>
<polygon fill="#343434" stroke="#343434" points="835,-536 678,-536 678,-500 835,-500 835,-536"/>
<text text-anchor="middle" x="756.5" y="-514.3" font-family="Courier,monospace" font-size="14.00" fill="#de958e">schematics.models</text>
</g>
<!-- schematics.models&#45;&gt;flatiron.core.pipeline -->
<g id="edge59" class="edge">
<title>schematics.models&#45;&gt;flatiron.core.pipeline</title>
<path fill="none" stroke="#de958e" d="M835.22,-523.57C859.86,-525.34 887.58,-527.33 913.98,-529.22"/>
<polygon fill="#de958e" stroke="#de958e" points="913.8,-532.72 924.03,-529.94 914.3,-525.73 913.8,-532.72"/>
</g>
<!-- tensorflow.keras.losses -->
<g id="node35" class="node">
<title>tensorflow.keras.losses</title>
<polygon fill="#343434" stroke="#343434" points="859.5,-482 653.5,-482 653.5,-446 859.5,-446 859.5,-482"/>
<text text-anchor="middle" x="756.5" y="-460.3" font-family="Courier,monospace" font-size="14.00" fill="#de958e">tensorflow.keras.losses</text>
</g>
<!-- tensorflow.keras.losses&#45;&gt;flatiron.core.pipeline -->
<g id="edge60" class="edge">
<title>tensorflow.keras.losses&#45;&gt;flatiron.core.pipeline</title>
<path fill="none" stroke="#de958e" d="M848.16,-482.07C857.66,-484.73 867.1,-487.7 876,-491 892.96,-497.29 895.08,-503.58 912,-510 917.56,-512.11 923.34,-514.1 929.21,-515.96"/>
<polygon fill="#de958e" stroke="#de958e" points="928.57,-519.42 939.16,-518.98 930.61,-512.73 928.57,-519.42"/>
</g>
<!-- tensorflow.keras.metrics -->
<g id="node36" class="node">
<title>tensorflow.keras.metrics</title>
<polygon fill="#343434" stroke="#343434" points="864,-428 649,-428 649,-392 864,-392 864,-428"/>
<text text-anchor="middle" x="756.5" y="-406.3" font-family="Courier,monospace" font-size="14.00" fill="#de958e">tensorflow.keras.metrics</text>
</g>
<!-- tensorflow.keras.metrics&#45;&gt;flatiron.core.pipeline -->
<g id="edge61" class="edge">
<title>tensorflow.keras.metrics&#45;&gt;flatiron.core.pipeline</title>
<path fill="none" stroke="#de958e" d="M862.44,-428.14C867.22,-430.73 871.78,-433.67 876,-437 904.39,-459.42 883.78,-487.36 912,-510 913.59,-511.27 915.23,-512.49 916.91,-513.65"/>
<polygon fill="#de958e" stroke="#de958e" points="915.32,-516.77 925.68,-518.99 918.96,-510.8 915.32,-516.77"/>
</g>
<!-- tensorflow.keras.optimizers -->
<g id="node37" class="node">
<title>tensorflow.keras.optimizers</title>
<polygon fill="#343434" stroke="#343434" points="876,-374 637,-374 637,-338 876,-338 876,-374"/>
<text text-anchor="middle" x="756.5" y="-352.3" font-family="Courier,monospace" font-size="14.00" fill="#de958e">tensorflow.keras.optimizers</text>
</g>
<!-- tensorflow.keras.optimizers&#45;&gt;flatiron.core.pipeline -->
<g id="edge62" class="edge">
<title>tensorflow.keras.optimizers&#45;&gt;flatiron.core.pipeline</title>
<path fill="none" stroke="#de958e" d="M864.55,-374.08C868.64,-376.7 872.48,-379.66 876,-383 918.55,-423.39 869.76,-469.28 912,-510 913.3,-511.25 914.64,-512.44 916.02,-513.58"/>
<polygon fill="#de958e" stroke="#de958e" points="914.22,-516.6 924.39,-519.57 918.29,-510.9 914.22,-516.6"/>
</g>
<!-- tensorflow.keras.layers -->
<g id="node38" class="node">
<title>tensorflow.keras.layers</title>
<polygon fill="#343434" stroke="#343434" points="1126.5,-90 920.5,-90 920.5,-54 1126.5,-54 1126.5,-90"/>
<text text-anchor="middle" x="1023.5" y="-68.3" font-family="Courier,monospace" font-size="14.00" fill="#de958e">tensorflow.keras.layers</text>
</g>
<!-- tensorflow.keras.layers&#45;&gt;flatiron.models.unet -->
<g id="edge63" class="edge">
<title>tensorflow.keras.layers&#45;&gt;flatiron.models.unet</title>
<path fill="none" stroke="#de958e" d="M1123.27,-90C1127.47,-92.63 1131.41,-95.61 1135,-99 1247,-204.7 1260.31,-407.04 1261.26,-481.55"/>
<polygon fill="#de958e" stroke="#de958e" points="1257.76,-481.61 1261.32,-491.59 1264.76,-481.56 1257.76,-481.61"/>
</g>
<!-- tensorflow.keras.models -->
<g id="node39" class="node">
<title>tensorflow.keras.models</title>
<polygon fill="#343434" stroke="#343434" points="1126.5,-36 920.5,-36 920.5,0 1126.5,0 1126.5,-36"/>
<text text-anchor="middle" x="1023.5" y="-14.3" font-family="Courier,monospace" font-size="14.00" fill="#de958e">tensorflow.keras.models</text>
</g>
<!-- tensorflow.keras.models&#45;&gt;flatiron.models.unet -->
<g id="edge64" class="edge">
<title>tensorflow.keras.models&#45;&gt;flatiron.models.unet</title>
<path fill="none" stroke="#de958e" d="M1123.66,-36.02C1127.72,-38.64 1131.54,-41.62 1135,-45 1199.08,-107.5 1244.09,-390.57 1257.12,-481.67"/>
<polygon fill="#de958e" stroke="#de958e" points="1253.69,-482.38 1258.55,-491.8 1260.62,-481.41 1253.69,-482.38"/>
</g>
</g>
</svg>
