<?xml version="1.0" encoding="UTF-8" standalone="no"?>
<!DOCTYPE svg PUBLIC "-//W3C//DTD SVG 1.1//EN"
 "http://www.w3.org/Graphics/SVG/1.1/DTD/svg11.dtd">
<!-- Generated by graphviz version 2.43.0 (0)
 -->
<!-- Title: %3 Pages: 1 -->
<svg width="901pt" height="1113pt"
 viewBox="0.00 0.00 901.00 1113.00" xmlns="http://www.w3.org/2000/svg" xmlns:xlink="http://www.w3.org/1999/xlink">
<g id="graph0" class="graph" transform="scale(1 1) rotate(0) translate(4 1109)">
<title>%3</title>
<polygon fill="#242424" stroke="transparent" points="-4,4 -4,-1109 897,-1109 897,4 -4,4"/>
<!-- cli -->
<g id="node1" class="node">
<title>cli</title>
<polygon fill="#343434" stroke="#343434" points="68.5,-773 14.5,-773 14.5,-737 68.5,-737 68.5,-773"/>
<text text-anchor="middle" x="41.5" y="-751.3" font-family="Courier,monospace" font-size="14.00" fill="#b6ecf3">cli</text>
</g>
<!-- flatiron.core.dataset -->
<g id="node2" class="node">
<title>flatiron.core.dataset</title>
<polygon fill="#343434" stroke="#343434" points="864,-344 674,-344 674,-308 864,-308 864,-344"/>
<text text-anchor="middle" x="769" y="-322.3" font-family="Courier,monospace" font-size="14.00" fill="#b6ecf3">flatiron.core.dataset</text>
</g>
<!-- flatiron.core.dataset_config -->
<g id="node3" class="node">
<title>flatiron.core.dataset_config</title>
<polygon fill="#343434" stroke="#343434" points="893,-924 645,-924 645,-888 893,-888 893,-924"/>
<text text-anchor="middle" x="769" y="-902.3" font-family="Courier,monospace" font-size="14.00" fill="#b6ecf3">flatiron.core.dataset_config</text>
</g>
<!-- flatiron.core.logging -->
<g id="node4" class="node">
<title>flatiron.core.logging</title>
<polygon fill="#343434" stroke="#343434" points="864,-129 674,-129 674,-93 864,-93 864,-129"/>
<text text-anchor="middle" x="769" y="-107.3" font-family="Courier,monospace" font-size="14.00" fill="#b6ecf3">flatiron.core.logging</text>
</g>
<!-- flatiron.core.loss -->
<g id="node5" class="node">
<title>flatiron.core.loss</title>
<polygon fill="#343434" stroke="#343434" points="580,-1097 415,-1097 415,-1061 580,-1061 580,-1097"/>
<text text-anchor="middle" x="497.5" y="-1075.3" font-family="Courier,monospace" font-size="14.00" fill="#b6ecf3">flatiron.core.loss</text>
</g>
<!-- flatiron.core.metric -->
<g id="node6" class="node">
<title>flatiron.core.metric</title>
<polygon fill="#343434" stroke="#343434" points="588.5,-1043 406.5,-1043 406.5,-1007 588.5,-1007 588.5,-1043"/>
<text text-anchor="middle" x="497.5" y="-1021.3" font-family="Courier,monospace" font-size="14.00" fill="#b6ecf3">flatiron.core.metric</text>
</g>
<!-- flatiron.core.tools -->
<g id="node7" class="node">
<title>flatiron.core.tools</title>
<polygon fill="#343434" stroke="#343434" points="584,-129 411,-129 411,-93 584,-93 584,-129"/>
<text text-anchor="middle" x="497.5" y="-107.3" font-family="Courier,monospace" font-size="14.00" fill="#b6ecf3">flatiron.core.tools</text>
</g>
<!-- flatiron.core.tools&#45;&gt;flatiron.core.dataset -->
<g id="edge1" class="edge">
<title>flatiron.core.tools&#45;&gt;flatiron.core.dataset</title>
<path fill="none" stroke="#b6ecf3" d="M533.62,-129.02C555.99,-141.12 585.15,-158.09 609,-176 661.04,-215.07 714.7,-269.1 744.46,-300.52"/>
<polygon fill="#b6ecf3" stroke="#b6ecf3" points="742.1,-303.11 751.5,-307.99 747.19,-298.31 742.1,-303.11"/>
</g>
<!-- flatiron.core.tools&#45;&gt;flatiron.core.logging -->
<g id="edge2" class="edge">
<title>flatiron.core.tools&#45;&gt;flatiron.core.logging</title>
<path fill="none" stroke="#b6ecf3" d="M584.14,-111C609.31,-111 637.13,-111 663.35,-111"/>
<polygon fill="#b6ecf3" stroke="#b6ecf3" points="663.7,-114.5 673.7,-111 663.7,-107.5 663.7,-114.5"/>
</g>
<!-- flatiron.models.unet -->
<g id="node9" class="node">
<title>flatiron.models.unet</title>
<polygon fill="#343434" stroke="#343434" points="860,-708 678,-708 678,-672 860,-672 860,-708"/>
<text text-anchor="middle" x="769" y="-686.3" font-family="Courier,monospace" font-size="14.00" fill="#b6ecf3">flatiron.models.unet</text>
</g>
<!-- flatiron.core.tools&#45;&gt;flatiron.models.unet -->
<g id="edge3" class="edge">
<title>flatiron.core.tools&#45;&gt;flatiron.models.unet</title>
<path fill="none" stroke="#b6ecf3" d="M547.76,-129.07C569.7,-139.54 593.94,-154.89 609,-176 655.63,-241.34 623.18,-275.75 645,-353 678.14,-470.32 732.52,-605.26 756.27,-662.28"/>
<polygon fill="#b6ecf3" stroke="#b6ecf3" points="753.12,-663.81 760.21,-671.69 759.58,-661.11 753.12,-663.81"/>
</g>
<!-- flatiron.core.validators -->
<g id="node8" class="node">
<title>flatiron.core.validators</title>
<polygon fill="#343434" stroke="#343434" points="605,-951 390,-951 390,-915 605,-915 605,-951"/>
<text text-anchor="middle" x="497.5" y="-929.3" font-family="Courier,monospace" font-size="14.00" fill="#b6ecf3">flatiron.core.validators</text>
</g>
<!-- flatiron.core.validators&#45;&gt;flatiron.core.dataset_config -->
<g id="edge4" class="edge">
<title>flatiron.core.validators&#45;&gt;flatiron.core.dataset_config</title>
<path fill="none" stroke="#b6ecf3" d="M605.01,-922.33C614.83,-921.34 624.86,-920.34 634.88,-919.34"/>
<polygon fill="#b6ecf3" stroke="#b6ecf3" points="635.29,-922.81 644.89,-918.33 634.59,-915.85 635.29,-922.81"/>
</g>
<!-- flatiron.core.validators&#45;&gt;flatiron.models.unet -->
<g id="edge5" class="edge">
<title>flatiron.core.validators&#45;&gt;flatiron.models.unet</title>
<path fill="none" stroke="#b6ecf3" d="M592.73,-914.96C598.43,-912.36 603.91,-909.4 609,-906 681.89,-857.41 733.51,-763.6 755.76,-717.26"/>
<polygon fill="#b6ecf3" stroke="#b6ecf3" points="758.97,-718.66 760.06,-708.12 752.64,-715.68 758.97,-718.66"/>
</g>
<!-- schematics.exceptions -->
<g id="node10" class="node">
<title>schematics.exceptions</title>
<polygon fill="#343434" stroke="#343434" points="329.5,-889 139.5,-889 139.5,-853 329.5,-853 329.5,-889"/>
<text text-anchor="middle" x="234.5" y="-867.3" font-family="Courier,monospace" font-size="14.00" fill="#de958e">schematics.exceptions</text>
</g>
<!-- schematics.exceptions&#45;&gt;flatiron.core.validators -->
<g id="edge6" class="edge">
<title>schematics.exceptions&#45;&gt;flatiron.core.validators</title>
<path fill="none" stroke="#de958e" d="M312.19,-889.05C324.82,-892.03 337.78,-895.1 350,-898 369.9,-902.72 391.31,-907.83 411.45,-912.64"/>
<polygon fill="#de958e" stroke="#de958e" points="410.69,-916.05 421.23,-914.97 412.32,-909.24 410.69,-916.05"/>
</g>
<!-- flatiron.models -->
<g id="node11" class="node">
<title>flatiron.models</title>
<polygon fill="#343434" stroke="#343434" points="304.5,-712 164.5,-712 164.5,-676 304.5,-676 304.5,-712"/>
<text text-anchor="middle" x="234.5" y="-690.3" font-family="Courier,monospace" font-size="14.00" fill="#a0d17b">flatiron.models</text>
</g>
<!-- flatiron.models&#45;&gt;flatiron.models.unet -->
<g id="edge7" class="edge">
<title>flatiron.models&#45;&gt;flatiron.models.unet</title>
<path fill="none" stroke="#a0d17b" d="M252.27,-675.57C277.98,-648.85 330.04,-600.54 386,-582 480.08,-550.83 514.27,-552.87 609,-582 661.48,-598.14 712.18,-638.14 741.71,-664.67"/>
<polygon fill="#a0d17b" stroke="#a0d17b" points="739.72,-667.59 749.46,-671.76 744.45,-662.43 739.72,-667.59"/>
</g>
<!-- schematics -->
<g id="node12" class="node">
<title>schematics</title>
<polygon fill="#343434" stroke="#343434" points="547,-897 448,-897 448,-861 547,-861 547,-897"/>
<text text-anchor="middle" x="497.5" y="-875.3" font-family="Courier,monospace" font-size="14.00" fill="#de958e">schematics</text>
</g>
<!-- schematics&#45;&gt;flatiron.core.dataset_config -->
<g id="edge8" class="edge">
<title>schematics&#45;&gt;flatiron.core.dataset_config</title>
<path fill="none" stroke="#de958e" d="M547.3,-883.89C572.08,-886.37 603.5,-889.52 634.82,-892.66"/>
<polygon fill="#de958e" stroke="#de958e" points="634.67,-896.16 644.97,-893.67 635.37,-889.19 634.67,-896.16"/>
</g>
<!-- schematics&#45;&gt;flatiron.models.unet -->
<g id="edge9" class="edge">
<title>schematics&#45;&gt;flatiron.models.unet</title>
<path fill="none" stroke="#de958e" d="M547.18,-873.1C567.27,-869.18 590.2,-862.69 609,-852 670.04,-817.27 723.15,-752.39 749.79,-716.16"/>
<polygon fill="#de958e" stroke="#de958e" points="752.65,-718.19 755.68,-708.03 746.98,-714.08 752.65,-718.19"/>
</g>
<!-- tensorflow -->
<g id="node13" class="node">
<title>tensorflow</title>
<polygon fill="#343434" stroke="#343434" points="284,-1105 185,-1105 185,-1069 284,-1069 284,-1105"/>
<text text-anchor="middle" x="234.5" y="-1083.3" font-family="Courier,monospace" font-size="14.00" fill="#de958e">tensorflow</text>
</g>
<!-- tensorflow&#45;&gt;flatiron.core.loss -->
<g id="edge10" class="edge">
<title>tensorflow&#45;&gt;flatiron.core.loss</title>
<path fill="none" stroke="#de958e" d="M284.29,-1085.5C318.09,-1084.47 364.12,-1083.06 404.68,-1081.81"/>
<polygon fill="#de958e" stroke="#de958e" points="404.98,-1085.31 414.86,-1081.5 404.76,-1078.31 404.98,-1085.31"/>
</g>
<!-- tensorflow&#45;&gt;flatiron.core.metric -->
<g id="edge11" class="edge">
<title>tensorflow&#45;&gt;flatiron.core.metric</title>
<path fill="none" stroke="#de958e" d="M284.26,-1075.54C304.59,-1070.75 328.44,-1065.12 350,-1060 369.9,-1055.28 391.31,-1050.17 411.45,-1045.36"/>
<polygon fill="#de958e" stroke="#de958e" points="412.32,-1048.76 421.23,-1043.03 410.69,-1041.95 412.32,-1048.76"/>
</g>
<!-- flatiron -->
<g id="node14" class="node">
<title>flatiron</title>
<polygon fill="#343434" stroke="#343434" points="83,-827 0,-827 0,-791 83,-791 83,-827"/>
<text text-anchor="middle" x="41.5" y="-805.3" font-family="Courier,monospace" font-size="14.00" fill="#a0d17b">flatiron</text>
</g>
<!-- flatiron&#45;&gt;flatiron.models -->
<g id="edge12" class="edge">
<title>flatiron&#45;&gt;flatiron.models</title>
<path fill="none" stroke="#a0d17b" d="M72.76,-790.78C105.73,-770.93 158.58,-739.11 194.6,-717.42"/>
<polygon fill="#a0d17b" stroke="#a0d17b" points="196.62,-720.29 203.38,-712.14 193,-714.3 196.62,-720.29"/>
</g>
<!-- flatiron.core -->
<g id="node17" class="node">
<title>flatiron.core</title>
<polygon fill="#343434" stroke="#343434" points="296.5,-943 172.5,-943 172.5,-907 296.5,-907 296.5,-943"/>
<text text-anchor="middle" x="234.5" y="-921.3" font-family="Courier,monospace" font-size="14.00" fill="#a0d17b">flatiron.core</text>
</g>
<!-- flatiron&#45;&gt;flatiron.core -->
<g id="edge13" class="edge">
<title>flatiron&#45;&gt;flatiron.core</title>
<path fill="none" stroke="#a0d17b" d="M53.04,-827.02C65.94,-847.45 89.75,-880.22 119,-898 132.1,-905.96 147.36,-911.58 162.39,-915.54"/>
<polygon fill="#a0d17b" stroke="#a0d17b" points="161.66,-918.96 172.21,-917.91 163.31,-912.16 161.66,-918.96"/>
</g>
<!-- keras.engine.functional -->
<g id="node15" class="node">
<title>keras.engine.functional</title>
<polygon fill="#343434" stroke="#343434" points="600.5,-789 394.5,-789 394.5,-753 600.5,-753 600.5,-789"/>
<text text-anchor="middle" x="497.5" y="-767.3" font-family="Courier,monospace" font-size="14.00" fill="#de958e">keras.engine.functional</text>
</g>
<!-- keras.engine.functional&#45;&gt;flatiron.models.unet -->
<g id="edge14" class="edge">
<title>keras.engine.functional&#45;&gt;flatiron.models.unet</title>
<path fill="none" stroke="#de958e" d="M576.01,-752.98C587.12,-750.13 598.38,-747.09 609,-744 642.32,-734.29 679.03,-721.94 708.78,-711.49"/>
<polygon fill="#de958e" stroke="#de958e" points="710.32,-714.66 718.58,-708.03 707.99,-708.06 710.32,-714.66"/>
</g>
<!-- schematics.types -->
<g id="node16" class="node">
<title>schematics.types</title>
<polygon fill="#343434" stroke="#343434" points="572,-843 423,-843 423,-807 572,-807 572,-843"/>
<text text-anchor="middle" x="497.5" y="-821.3" font-family="Courier,monospace" font-size="14.00" fill="#de958e">schematics.types</text>
</g>
<!-- schematics.types&#45;&gt;flatiron.core.dataset_config -->
<g id="edge15" class="edge">
<title>schematics.types&#45;&gt;flatiron.core.dataset_config</title>
<path fill="none" stroke="#de958e" d="M572.15,-842.04C584.5,-845.17 597.15,-848.55 609,-852 642.32,-861.71 679.03,-874.06 708.78,-884.51"/>
<polygon fill="#de958e" stroke="#de958e" points="707.99,-887.94 718.58,-887.97 710.32,-881.34 707.99,-887.94"/>
</g>
<!-- schematics.types&#45;&gt;flatiron.models.unet -->
<g id="edge16" class="edge">
<title>schematics.types&#45;&gt;flatiron.models.unet</title>
<path fill="none" stroke="#de958e" d="M572.24,-810.88C584.77,-807.39 597.45,-803.13 609,-798 658.06,-776.2 708.25,-739.15 738.78,-714.62"/>
<polygon fill="#de958e" stroke="#de958e" points="741.3,-717.09 746.85,-708.06 736.88,-711.65 741.3,-717.09"/>
</g>
<!-- flatiron.core&#45;&gt;flatiron.core.dataset -->
<g id="edge17" class="edge">
<title>flatiron.core&#45;&gt;flatiron.core.dataset</title>
<path fill="none" stroke="#a0d17b" d="M296.6,-924.25C316.39,-920.82 336.66,-913.33 350,-898 406.69,-832.84 333.21,-579.36 386,-511 450.45,-427.54 514.69,-477.17 609,-430 655.38,-406.8 704.76,-372.87 735.96,-350.14"/>
<polygon fill="#a0d17b" stroke="#a0d17b" points="738.28,-352.79 744.27,-344.05 734.13,-347.14 738.28,-352.79"/>
</g>
<!-- flatiron.core&#45;&gt;flatiron.core.dataset_config -->
<g id="edge18" class="edge">
<title>flatiron.core&#45;&gt;flatiron.core.dataset_config</title>
<path fill="none" stroke="#a0d17b" d="M296.62,-939.38C337.26,-948.91 383.63,-959.73 386,-960 484.46,-971.3 511.21,-976.15 609,-960 646.37,-953.83 686.77,-940.01 717.49,-927.9"/>
<polygon fill="#a0d17b" stroke="#a0d17b" points="719.14,-931.01 727.11,-924.04 716.53,-924.51 719.14,-931.01"/>
</g>
<!-- flatiron.core&#45;&gt;flatiron.core.logging -->
<g id="edge19" class="edge">
<title>flatiron.core&#45;&gt;flatiron.core.logging</title>
<path fill="none" stroke="#a0d17b" d="M296.67,-924.62C316.6,-921.25 336.93,-913.69 350,-898 401.41,-836.28 332.67,-236.07 386,-176 386,-176 550.38,-148.03 663.48,-128.79"/>
<polygon fill="#a0d17b" stroke="#a0d17b" points="664.3,-132.2 673.57,-127.07 663.13,-125.29 664.3,-132.2"/>
</g>
<!-- flatiron.core&#45;&gt;flatiron.core.loss -->
<g id="edge20" class="edge">
<title>flatiron.core&#45;&gt;flatiron.core.loss</title>
<path fill="none" stroke="#a0d17b" d="M296.63,-928.16C315.61,-931.89 335.37,-938.95 350,-952 385.25,-983.44 350.88,-1020.41 386,-1052 391.83,-1057.25 398.52,-1061.51 405.65,-1064.98"/>
<polygon fill="#a0d17b" stroke="#a0d17b" points="404.32,-1068.22 414.89,-1068.96 407.09,-1061.79 404.32,-1068.22"/>
</g>
<!-- flatiron.core&#45;&gt;flatiron.core.metric -->
<g id="edge21" class="edge">
<title>flatiron.core&#45;&gt;flatiron.core.metric</title>
<path fill="none" stroke="#a0d17b" d="M296.73,-932.2C314.78,-936.18 333.98,-942.38 350,-952 370.79,-964.49 365.53,-979.99 386,-993 391.83,-996.71 398.11,-1000 404.6,-1002.91"/>
<polygon fill="#a0d17b" stroke="#a0d17b" points="403.66,-1006.31 414.24,-1006.92 406.35,-999.85 403.66,-1006.31"/>
</g>
<!-- flatiron.core&#45;&gt;flatiron.core.tools -->
<g id="edge22" class="edge">
<title>flatiron.core&#45;&gt;flatiron.core.tools</title>
<path fill="none" stroke="#a0d17b" d="M296.69,-924.64C316.62,-921.26 336.95,-913.71 350,-898 403.68,-833.41 333.96,-208.92 386,-143 390.45,-137.37 395.83,-132.68 401.78,-128.79"/>
<polygon fill="#a0d17b" stroke="#a0d17b" points="403.91,-131.62 410.89,-123.65 400.46,-125.52 403.91,-131.62"/>
</g>
<!-- flatiron.core&#45;&gt;flatiron.core.validators -->
<g id="edge23" class="edge">
<title>flatiron.core&#45;&gt;flatiron.core.validators</title>
<path fill="none" stroke="#a0d17b" d="M296.69,-926.88C321.56,-927.64 351.16,-928.55 379.85,-929.42"/>
<polygon fill="#a0d17b" stroke="#a0d17b" points="379.85,-932.93 389.95,-929.73 380.06,-925.93 379.85,-932.93"/>
</g>
<!-- tensorflow.keras.backend -->
<g id="node18" class="node">
<title>tensorflow.keras.backend</title>
<polygon fill="#343434" stroke="#343434" points="342,-1051 127,-1051 127,-1015 342,-1015 342,-1051"/>
<text text-anchor="middle" x="234.5" y="-1029.3" font-family="Courier,monospace" font-size="14.00" fill="#de958e">tensorflow.keras.backend</text>
</g>
<!-- tensorflow.keras.backend&#45;&gt;flatiron.core.loss -->
<g id="edge24" class="edge">
<title>tensorflow.keras.backend&#45;&gt;flatiron.core.loss</title>
<path fill="none" stroke="#de958e" d="M337.91,-1051.05C360.07,-1054.96 383.38,-1059.06 405.09,-1062.89"/>
<polygon fill="#de958e" stroke="#de958e" points="404.49,-1066.34 414.95,-1064.63 405.7,-1059.44 404.49,-1066.34"/>
</g>
<!-- tensorflow.keras.backend&#45;&gt;flatiron.core.metric -->
<g id="edge25" class="edge">
<title>tensorflow.keras.backend&#45;&gt;flatiron.core.metric</title>
<path fill="none" stroke="#de958e" d="M342.04,-1029.73C359.83,-1029.19 378.24,-1028.62 395.87,-1028.08"/>
<polygon fill="#de958e" stroke="#de958e" points="396.27,-1031.57 406.16,-1027.77 396.06,-1024.58 396.27,-1031.57"/>
</g>
<!-- numpy -->
<g id="node19" class="node">
<title>numpy</title>
<polygon fill="#343434" stroke="#343434" points="263.5,-997 205.5,-997 205.5,-961 263.5,-961 263.5,-997"/>
<text text-anchor="middle" x="234.5" y="-975.3" font-family="Courier,monospace" font-size="14.00" fill="#de958e">numpy</text>
</g>
<!-- numpy&#45;&gt;flatiron.core.dataset -->
<g id="edge26" class="edge">
<title>numpy&#45;&gt;flatiron.core.dataset</title>
<path fill="none" stroke="#de958e" d="M263.66,-980.84C290.13,-980.89 328.77,-976.3 350,-952 404.35,-889.79 337.41,-648.81 386,-582 449.57,-494.59 519.67,-545.83 609,-485 665.37,-446.61 718.85,-386.58 747.13,-352.31"/>
<polygon fill="#de958e" stroke="#de958e" points="750.15,-354.14 753.77,-344.18 744.73,-349.72 750.15,-354.14"/>
</g>
<!-- numpy&#45;&gt;flatiron.core.loss -->
<g id="edge27" class="edge">
<title>numpy&#45;&gt;flatiron.core.loss</title>
<path fill="none" stroke="#de958e" d="M263.89,-980.46C288.39,-982.89 323.85,-989.27 350,-1006 371.87,-1019.99 364.19,-1037.92 386,-1052 392.05,-1055.9 398.61,-1059.24 405.42,-1062.1"/>
<polygon fill="#de958e" stroke="#de958e" points="404.25,-1065.4 414.84,-1065.7 406.75,-1058.86 404.25,-1065.4"/>
</g>
<!-- numpy&#45;&gt;flatiron.core.metric -->
<g id="edge28" class="edge">
<title>numpy&#45;&gt;flatiron.core.metric</title>
<path fill="none" stroke="#de958e" d="M263.68,-983.97C295.37,-989.55 348.63,-998.94 396.21,-1007.32"/>
<polygon fill="#de958e" stroke="#de958e" points="395.82,-1010.81 406.27,-1009.1 397.03,-1003.92 395.82,-1010.81"/>
</g>
<!-- keras.engine.keras_tensor -->
<g id="node20" class="node">
<title>keras.engine.keras_tensor</title>
<polygon fill="#343434" stroke="#343434" points="609,-735 386,-735 386,-699 609,-699 609,-735"/>
<text text-anchor="middle" x="497.5" y="-713.3" font-family="Courier,monospace" font-size="14.00" fill="#de958e">keras.engine.keras_tensor</text>
</g>
<!-- keras.engine.keras_tensor&#45;&gt;flatiron.models.unet -->
<g id="edge29" class="edge">
<title>keras.engine.keras_tensor&#45;&gt;flatiron.models.unet</title>
<path fill="none" stroke="#de958e" d="M609.28,-705.9C628.6,-703.97 648.6,-701.96 667.62,-700.06"/>
<polygon fill="#de958e" stroke="#de958e" points="668.17,-703.52 677.78,-699.04 667.48,-696.55 668.17,-703.52"/>
</g>
<!-- lunchbox.enforce -->
<g id="node21" class="node">
<title>lunchbox.enforce</title>
<polygon fill="#343434" stroke="#343434" points="309,-321 160,-321 160,-285 309,-285 309,-321"/>
<text text-anchor="middle" x="234.5" y="-299.3" font-family="Courier,monospace" font-size="14.00" fill="#de958e">lunchbox.enforce</text>
</g>
<!-- lunchbox.enforce&#45;&gt;flatiron.core.dataset -->
<g id="edge30" class="edge">
<title>lunchbox.enforce&#45;&gt;flatiron.core.dataset</title>
<path fill="none" stroke="#de958e" d="M309.26,-306.19C401.28,-310.16 559.21,-316.98 663.61,-321.49"/>
<polygon fill="#de958e" stroke="#de958e" points="663.72,-325 673.86,-321.93 664.02,-318.01 663.72,-325"/>
</g>
<!-- lunchbox.enforce&#45;&gt;flatiron.core.tools -->
<g id="edge31" class="edge">
<title>lunchbox.enforce&#45;&gt;flatiron.core.tools</title>
<path fill="none" stroke="#de958e" d="M309.02,-287.37C324.16,-281.25 338.87,-272.77 350,-261 387.68,-221.17 346.95,-181.49 386,-143 390.67,-138.4 395.95,-134.45 401.62,-131.07"/>
<polygon fill="#de958e" stroke="#de958e" points="403.62,-133.97 410.81,-126.2 400.34,-127.79 403.62,-133.97"/>
</g>
<!-- lunchbox.enforce&#45;&gt;flatiron.models.unet -->
<g id="edge32" class="edge">
<title>lunchbox.enforce&#45;&gt;flatiron.models.unet</title>
<path fill="none" stroke="#de958e" d="M254.5,-321.1C282.16,-346.94 335.7,-395.15 386,-430 479.39,-494.71 515.7,-490.15 609,-555 658.4,-589.34 710.66,-635.97 741.25,-664.48"/>
<polygon fill="#de958e" stroke="#de958e" points="739.22,-667.37 748.91,-671.66 744.01,-662.27 739.22,-667.37"/>
</g>
<!-- lunchbox.stopwatch -->
<g id="node22" class="node">
<title>lunchbox.stopwatch</title>
<polygon fill="#343434" stroke="#343434" points="317,-90 152,-90 152,-54 317,-54 317,-90"/>
<text text-anchor="middle" x="234.5" y="-68.3" font-family="Courier,monospace" font-size="14.00" fill="#de958e">lunchbox.stopwatch</text>
</g>
<!-- lunchbox.stopwatch&#45;&gt;flatiron.core.tools -->
<g id="edge33" class="edge">
<title>lunchbox.stopwatch&#45;&gt;flatiron.core.tools</title>
<path fill="none" stroke="#de958e" d="M317.01,-84.18C343.52,-88.14 373.18,-92.57 400.64,-96.68"/>
<polygon fill="#de958e" stroke="#de958e" points="400.24,-100.16 410.65,-98.17 401.27,-93.23 400.24,-100.16"/>
</g>
<!-- lunchbox.tools -->
<g id="node23" class="node">
<title>lunchbox.tools</title>
<polygon fill="#343434" stroke="#343434" points="300.5,-36 168.5,-36 168.5,0 300.5,0 300.5,-36"/>
<text text-anchor="middle" x="234.5" y="-14.3" font-family="Courier,monospace" font-size="14.00" fill="#de958e">lunchbox.tools</text>
</g>
<!-- lunchbox.tools&#45;&gt;flatiron.core.logging -->
<g id="edge34" class="edge">
<title>lunchbox.tools&#45;&gt;flatiron.core.logging</title>
<path fill="none" stroke="#de958e" d="M300.53,-29.36C391.06,-45.17 556.08,-73.99 663.86,-92.81"/>
<polygon fill="#de958e" stroke="#de958e" points="663.33,-96.27 673.79,-94.55 664.54,-89.38 663.33,-96.27"/>
</g>
<!-- lunchbox.tools&#45;&gt;flatiron.core.tools -->
<g id="edge35" class="edge">
<title>lunchbox.tools&#45;&gt;flatiron.core.tools</title>
<path fill="none" stroke="#de958e" d="M300.61,-31.07C316.91,-34.97 334.24,-39.65 350,-45 385.24,-56.97 423.54,-74.39 452.14,-88.33"/>
<polygon fill="#de958e" stroke="#de958e" points="450.93,-91.63 461.45,-92.91 454.02,-85.35 450.93,-91.63"/>
</g>
<!-- pytz -->
<g id="node24" class="node">
<title>pytz</title>
<polygon fill="#343434" stroke="#343434" points="261.5,-252 207.5,-252 207.5,-216 261.5,-216 261.5,-252"/>
<text text-anchor="middle" x="234.5" y="-230.3" font-family="Courier,monospace" font-size="14.00" fill="#de958e">pytz</text>
</g>
<!-- pytz&#45;&gt;flatiron.core.tools -->
<g id="edge36" class="edge">
<title>pytz&#45;&gt;flatiron.core.tools</title>
<path fill="none" stroke="#de958e" d="M261.65,-233.69C286.64,-232.14 324.21,-226.4 350,-207 376.08,-187.38 360.42,-163.27 386,-143 390.76,-139.23 395.96,-135.9 401.41,-132.96"/>
<polygon fill="#de958e" stroke="#de958e" points="403.34,-135.91 410.8,-128.38 400.27,-129.62 403.34,-135.91"/>
</g>
<!-- tensorflow.keras.callbacks -->
<g id="node25" class="node">
<title>tensorflow.keras.callbacks</title>
<polygon fill="#343434" stroke="#343434" points="350,-198 119,-198 119,-162 350,-162 350,-198"/>
<text text-anchor="middle" x="234.5" y="-176.3" font-family="Courier,monospace" font-size="14.00" fill="#de958e">tensorflow.keras.callbacks</text>
</g>
<!-- tensorflow.keras.callbacks&#45;&gt;flatiron.core.tools -->
<g id="edge37" class="edge">
<title>tensorflow.keras.callbacks&#45;&gt;flatiron.core.tools</title>
<path fill="none" stroke="#de958e" d="M314.15,-161.97C326.18,-159.07 338.44,-156.02 350,-153 357.78,-150.97 391.17,-141.41 424.12,-131.92"/>
<polygon fill="#de958e" stroke="#de958e" points="425.2,-135.25 433.84,-129.11 423.26,-128.52 425.2,-135.25"/>
</g>
<!-- yaml -->
<g id="node26" class="node">
<title>yaml</title>
<polygon fill="#343434" stroke="#343434" points="261.5,-144 207.5,-144 207.5,-108 261.5,-108 261.5,-144"/>
<text text-anchor="middle" x="234.5" y="-122.3" font-family="Courier,monospace" font-size="14.00" fill="#de958e">yaml</text>
</g>
<!-- yaml&#45;&gt;flatiron.core.tools -->
<g id="edge38" class="edge">
<title>yaml&#45;&gt;flatiron.core.tools</title>
<path fill="none" stroke="#de958e" d="M261.96,-124.48C294.4,-122.62 351.16,-119.35 400.71,-116.5"/>
<polygon fill="#de958e" stroke="#de958e" points="401.06,-119.99 410.84,-115.92 400.66,-113 401.06,-119.99"/>
</g>
<!-- humanfriendly -->
<g id="node27" class="node">
<title>humanfriendly</title>
<polygon fill="#343434" stroke="#343434" points="559.5,-221 435.5,-221 435.5,-185 559.5,-185 559.5,-221"/>
<text text-anchor="middle" x="497.5" y="-199.3" font-family="Courier,monospace" font-size="14.00" fill="#de958e">humanfriendly</text>
</g>
<!-- humanfriendly&#45;&gt;flatiron.core.dataset -->
<g id="edge39" class="edge">
<title>humanfriendly&#45;&gt;flatiron.core.dataset</title>
<path fill="none" stroke="#de958e" d="M559.77,-214.47C576.09,-218.47 593.48,-223.6 609,-230 655.32,-249.12 703.99,-280.4 735.09,-302.03"/>
<polygon fill="#de958e" stroke="#de958e" points="733.19,-304.97 743.38,-307.86 737.21,-299.24 733.19,-304.97"/>
</g>
<!-- tensorflow.keras.layers -->
<g id="node28" class="node">
<title>tensorflow.keras.layers</title>
<polygon fill="#343434" stroke="#343434" points="600.5,-681 394.5,-681 394.5,-645 600.5,-645 600.5,-681"/>
<text text-anchor="middle" x="497.5" y="-659.3" font-family="Courier,monospace" font-size="14.00" fill="#de958e">tensorflow.keras.layers</text>
</g>
<!-- tensorflow.keras.layers&#45;&gt;flatiron.models.unet -->
<g id="edge40" class="edge">
<title>tensorflow.keras.layers&#45;&gt;flatiron.models.unet</title>
<path fill="none" stroke="#de958e" d="M600.77,-673.25C622.62,-675.44 645.69,-677.75 667.48,-679.93"/>
<polygon fill="#de958e" stroke="#de958e" points="667.42,-683.44 677.72,-680.96 668.12,-676.48 667.42,-683.44"/>
</g>
<!-- tensorflow.keras.models -->
<g id="node29" class="node">
<title>tensorflow.keras.models</title>
<polygon fill="#343434" stroke="#343434" points="600.5,-627 394.5,-627 394.5,-591 600.5,-591 600.5,-627"/>
<text text-anchor="middle" x="497.5" y="-605.3" font-family="Courier,monospace" font-size="14.00" fill="#de958e">tensorflow.keras.models</text>
</g>
<!-- tensorflow.keras.models&#45;&gt;flatiron.models.unet -->
<g id="edge41" class="edge">
<title>tensorflow.keras.models&#45;&gt;flatiron.models.unet</title>
<path fill="none" stroke="#de958e" d="M576.01,-627.02C587.12,-629.87 598.38,-632.91 609,-636 642.32,-645.71 679.03,-658.06 708.78,-668.51"/>
<polygon fill="#de958e" stroke="#de958e" points="707.99,-671.94 718.58,-671.97 710.32,-665.34 707.99,-671.94"/>
</g>
<!-- pandas -->
<g id="node30" class="node">
<title>pandas</title>
<polygon fill="#343434" stroke="#343434" points="530.5,-421 464.5,-421 464.5,-385 530.5,-385 530.5,-421"/>
<text text-anchor="middle" x="497.5" y="-399.3" font-family="Courier,monospace" font-size="14.00" fill="#de958e">pandas</text>
</g>
<!-- pandas&#45;&gt;flatiron.core.dataset -->
<g id="edge42" class="edge">
<title>pandas&#45;&gt;flatiron.core.dataset</title>
<path fill="none" stroke="#de958e" d="M530.56,-395.75C552.69,-390.6 582.75,-383.33 609,-376 640.55,-367.19 675.29,-356.4 704.23,-347.1"/>
<polygon fill="#de958e" stroke="#de958e" points="705.36,-350.41 713.81,-344 703.21,-343.75 705.36,-350.41"/>
</g>
<!-- sklearn.model_selection -->
<g id="node31" class="node">
<title>sklearn.model_selection</title>
<polygon fill="#343434" stroke="#343434" points="600.5,-367 394.5,-367 394.5,-331 600.5,-331 600.5,-367"/>
<text text-anchor="middle" x="497.5" y="-345.3" font-family="Courier,monospace" font-size="14.00" fill="#de958e">sklearn.model_selection</text>
</g>
<!-- sklearn.model_selection&#45;&gt;flatiron.core.dataset -->
<g id="edge43" class="edge">
<title>sklearn.model_selection&#45;&gt;flatiron.core.dataset</title>
<path fill="none" stroke="#de958e" d="M600.77,-340.27C621.37,-338.51 643.05,-336.66 663.72,-334.9"/>
<polygon fill="#de958e" stroke="#de958e" points="664.11,-338.38 673.78,-334.04 663.52,-331.4 664.11,-338.38"/>
</g>
<!-- tqdm.notebook -->
<g id="node32" class="node">
<title>tqdm.notebook</title>
<polygon fill="#343434" stroke="#343434" points="559.5,-275 435.5,-275 435.5,-239 559.5,-239 559.5,-275"/>
<text text-anchor="middle" x="497.5" y="-253.3" font-family="Courier,monospace" font-size="14.00" fill="#de958e">tqdm.notebook</text>
</g>
<!-- tqdm.notebook&#45;&gt;flatiron.core.dataset -->
<g id="edge44" class="edge">
<title>tqdm.notebook&#45;&gt;flatiron.core.dataset</title>
<path fill="none" stroke="#de958e" d="M559.65,-272.66C597.61,-282.38 646.8,-294.97 687.86,-305.48"/>
<polygon fill="#de958e" stroke="#de958e" points="687.01,-308.88 697.57,-307.97 688.75,-302.1 687.01,-308.88"/>
</g>
</g>
</svg>
