<?xml version="1.0" encoding="UTF-8" standalone="no"?>
<!DOCTYPE svg PUBLIC "-//W3C//DTD SVG 1.1//EN"
 "http://www.w3.org/Graphics/SVG/1.1/DTD/svg11.dtd">
<!-- Generated by graphviz version 2.43.0 (0)
 -->
<!-- Title: %3 Pages: 1 -->
<svg width="1361pt" height="1130pt"
 viewBox="0.00 0.00 1361.00 1130.00" xmlns="http://www.w3.org/2000/svg" xmlns:xlink="http://www.w3.org/1999/xlink">
<g id="graph0" class="graph" transform="scale(1 1) rotate(0) translate(4 1126)">
<title>%3</title>
<polygon fill="#242424" stroke="transparent" points="-4,4 -4,-1126 1357,-1126 1357,4 -4,4"/>
<!-- cli -->
<g id="node1" class="node">
<title>cli</title>
<polygon fill="#343434" stroke="#343434" points="68.5,-765 14.5,-765 14.5,-729 68.5,-729 68.5,-765"/>
<text text-anchor="middle" x="41.5" y="-743.3" font-family="Courier,monospace" font-size="14.00" fill="#b6ecf3">cli</text>
</g>
<!-- flatiron.command -->
<g id="node2" class="node">
<title>flatiron.command</title>
<polygon fill="#343434" stroke="#343434" points="309,-1051 160,-1051 160,-1015 309,-1015 309,-1051"/>
<text text-anchor="middle" x="234.5" y="-1029.3" font-family="Courier,monospace" font-size="14.00" fill="#b6ecf3">flatiron.command</text>
</g>
<!-- flatiron.core.config -->
<g id="node3" class="node">
<title>flatiron.core.config</title>
<polygon fill="#343434" stroke="#343434" points="847.5,-1022 665.5,-1022 665.5,-986 847.5,-986 847.5,-1022"/>
<text text-anchor="middle" x="756.5" y="-1000.3" font-family="Courier,monospace" font-size="14.00" fill="#b6ecf3">flatiron.core.config</text>
</g>
<!-- flatiron.core.pipeline -->
<g id="node8" class="node">
<title>flatiron.core.pipeline</title>
<polygon fill="#343434" stroke="#343434" points="1122.5,-582 924.5,-582 924.5,-546 1122.5,-546 1122.5,-582"/>
<text text-anchor="middle" x="1023.5" y="-560.3" font-family="Courier,monospace" font-size="14.00" fill="#b6ecf3">flatiron.core.pipeline</text>
</g>
<!-- flatiron.core.config&#45;&gt;flatiron.core.pipeline -->
<g id="edge1" class="edge">
<title>flatiron.core.config&#45;&gt;flatiron.core.pipeline</title>
<path fill="none" stroke="#b6ecf3" d="M796.93,-985.88C822.41,-972.45 854.69,-952 876,-926 962.51,-820.45 1003.55,-657.07 1017.14,-592.07"/>
<polygon fill="#b6ecf3" stroke="#b6ecf3" points="1020.59,-592.65 1019.16,-582.15 1013.73,-591.25 1020.59,-592.65"/>
</g>
<!-- flatiron.core.dataset -->
<g id="node4" class="node">
<title>flatiron.core.dataset</title>
<polygon fill="#343434" stroke="#343434" points="851.5,-282 661.5,-282 661.5,-246 851.5,-246 851.5,-282"/>
<text text-anchor="middle" x="756.5" y="-260.3" font-family="Courier,monospace" font-size="14.00" fill="#b6ecf3">flatiron.core.dataset</text>
</g>
<!-- flatiron.core.dataset&#45;&gt;flatiron.core.pipeline -->
<g id="edge2" class="edge">
<title>flatiron.core.dataset&#45;&gt;flatiron.core.pipeline</title>
<path fill="none" stroke="#b6ecf3" d="M802.67,-282.08C826.4,-293.13 854.86,-309.01 876,-329 941.87,-391.3 990.2,-489.34 1011.08,-536.65"/>
<polygon fill="#b6ecf3" stroke="#b6ecf3" points="1007.92,-538.17 1015.11,-545.95 1014.34,-535.38 1007.92,-538.17"/>
</g>
<!-- flatiron.core.logging -->
<g id="node5" class="node">
<title>flatiron.core.logging</title>
<polygon fill="#343434" stroke="#343434" points="851.5,-666 661.5,-666 661.5,-630 851.5,-630 851.5,-666"/>
<text text-anchor="middle" x="756.5" y="-644.3" font-family="Courier,monospace" font-size="14.00" fill="#b6ecf3">flatiron.core.logging</text>
</g>
<!-- flatiron.core.logging&#45;&gt;flatiron.core.pipeline -->
<g id="edge3" class="edge">
<title>flatiron.core.logging&#45;&gt;flatiron.core.pipeline</title>
<path fill="none" stroke="#b6ecf3" d="M827.94,-629.94C843.81,-625.6 860.54,-620.82 876,-616 905.6,-606.77 938.14,-595.35 965.02,-585.56"/>
<polygon fill="#b6ecf3" stroke="#b6ecf3" points="966.46,-588.76 974.65,-582.04 964.05,-582.19 966.46,-588.76"/>
</g>
<!-- flatiron.core.loss -->
<g id="node6" class="node">
<title>flatiron.core.loss</title>
<polygon fill="#343434" stroke="#343434" points="839,-812 674,-812 674,-776 839,-776 839,-812"/>
<text text-anchor="middle" x="756.5" y="-790.3" font-family="Courier,monospace" font-size="14.00" fill="#b6ecf3">flatiron.core.loss</text>
</g>
<!-- flatiron.core.loss&#45;&gt;flatiron.core.pipeline -->
<g id="edge4" class="edge">
<title>flatiron.core.loss&#45;&gt;flatiron.core.pipeline</title>
<path fill="none" stroke="#b6ecf3" d="M839.1,-783.61C852.11,-779.7 864.92,-774.34 876,-767 943.38,-722.39 990.17,-635.49 1010.73,-591.27"/>
<polygon fill="#b6ecf3" stroke="#b6ecf3" points="1013.99,-592.55 1014.94,-582 1007.62,-589.66 1013.99,-592.55"/>
</g>
<!-- flatiron.core.metric -->
<g id="node7" class="node">
<title>flatiron.core.metric</title>
<polygon fill="#343434" stroke="#343434" points="847.5,-758 665.5,-758 665.5,-722 847.5,-722 847.5,-758"/>
<text text-anchor="middle" x="756.5" y="-736.3" font-family="Courier,monospace" font-size="14.00" fill="#b6ecf3">flatiron.core.metric</text>
</g>
<!-- flatiron.core.metric&#45;&gt;flatiron.core.pipeline -->
<g id="edge5" class="edge">
<title>flatiron.core.metric&#45;&gt;flatiron.core.pipeline</title>
<path fill="none" stroke="#b6ecf3" d="M845,-721.92C855.79,-718.1 866.39,-713.51 876,-708 929.4,-677.4 977.38,-622.62 1002.98,-590.16"/>
<polygon fill="#b6ecf3" stroke="#b6ecf3" points="1005.93,-592.07 1009.3,-582.03 1000.4,-587.78 1005.93,-592.07"/>
</g>
<!-- flatiron.models.unet -->
<g id="node11" class="node">
<title>flatiron.models.unet</title>
<polygon fill="#343434" stroke="#343434" points="1353,-280 1171,-280 1171,-244 1353,-244 1353,-280"/>
<text text-anchor="middle" x="1262" y="-258.3" font-family="Courier,monospace" font-size="14.00" fill="#b6ecf3">flatiron.models.unet</text>
</g>
<!-- flatiron.core.pipeline&#45;&gt;flatiron.models.unet -->
<g id="edge6" class="edge">
<title>flatiron.core.pipeline&#45;&gt;flatiron.models.unet</title>
<path fill="none" stroke="#b6ecf3" d="M1038.94,-545.56C1079.28,-494.05 1193.28,-348.48 1240.31,-288.42"/>
<polygon fill="#b6ecf3" stroke="#b6ecf3" points="1243.34,-290.23 1246.75,-280.2 1237.83,-285.91 1243.34,-290.23"/>
</g>
<!-- flatiron.core.tools -->
<g id="node9" class="node">
<title>flatiron.core.tools</title>
<polygon fill="#343434" stroke="#343434" points="580,-532 407,-532 407,-496 580,-496 580,-532"/>
<text text-anchor="middle" x="493.5" y="-510.3" font-family="Courier,monospace" font-size="14.00" fill="#b6ecf3">flatiron.core.tools</text>
</g>
<!-- flatiron.core.tools&#45;&gt;flatiron.core.dataset -->
<g id="edge7" class="edge">
<title>flatiron.core.tools&#45;&gt;flatiron.core.dataset</title>
<path fill="none" stroke="#b6ecf3" d="M531.52,-495.87C554.79,-482.64 583.61,-462.56 601,-437 637.38,-383.52 591.58,-342.05 637,-296 641.57,-291.37 646.73,-287.39 652.28,-283.97"/>
<polygon fill="#b6ecf3" stroke="#b6ecf3" points="654.19,-286.91 661.29,-279.04 650.84,-280.77 654.19,-286.91"/>
</g>
<!-- flatiron.core.tools&#45;&gt;flatiron.core.logging -->
<g id="edge8" class="edge">
<title>flatiron.core.tools&#45;&gt;flatiron.core.logging</title>
<path fill="none" stroke="#b6ecf3" d="M578.67,-532.06C586.7,-535.85 594.32,-540.44 601,-546 627.9,-568.37 609.79,-594.01 637,-616 641.67,-619.78 646.75,-623.11 652.09,-626.05"/>
<polygon fill="#b6ecf3" stroke="#b6ecf3" points="650.79,-629.31 661.3,-630.64 653.91,-623.05 650.79,-629.31"/>
</g>
<!-- flatiron.core.tools&#45;&gt;flatiron.core.loss -->
<g id="edge9" class="edge">
<title>flatiron.core.tools&#45;&gt;flatiron.core.loss</title>
<path fill="none" stroke="#b6ecf3" d="M511.52,-532.23C534.64,-557.85 575.98,-606.81 601,-655 625.1,-701.4 598.46,-731.67 637,-767 644.84,-774.18 654.18,-779.59 664.14,-783.63"/>
<polygon fill="#b6ecf3" stroke="#b6ecf3" points="663.24,-787.03 673.84,-787.1 665.6,-780.44 663.24,-787.03"/>
</g>
<!-- flatiron.core.tools&#45;&gt;flatiron.core.metric -->
<g id="edge10" class="edge">
<title>flatiron.core.tools&#45;&gt;flatiron.core.metric</title>
<path fill="none" stroke="#b6ecf3" d="M507.16,-532.01C530.2,-563.84 581.73,-630.85 637,-675 657.77,-691.59 683.37,-706.23 705.46,-717.4"/>
<polygon fill="#b6ecf3" stroke="#b6ecf3" points="704.17,-720.66 714.68,-721.96 707.27,-714.39 704.17,-720.66"/>
</g>
<!-- flatiron.core.tools&#45;&gt;flatiron.core.pipeline -->
<g id="edge11" class="edge">
<title>flatiron.core.tools&#45;&gt;flatiron.core.pipeline</title>
<path fill="none" stroke="#b6ecf3" d="M524.62,-532.06C552.61,-547.73 596.03,-569.22 637,-578 728.97,-597.7 836.05,-591.58 913.99,-582.03"/>
<polygon fill="#b6ecf3" stroke="#b6ecf3" points="914.82,-585.45 924.3,-580.72 913.94,-578.5 914.82,-585.45"/>
</g>
<!-- flatiron.core.tools&#45;&gt;flatiron.models.unet -->
<g id="edge12" class="edge">
<title>flatiron.core.tools&#45;&gt;flatiron.models.unet</title>
<path fill="none" stroke="#b6ecf3" d="M530.15,-495.89C553.3,-482.48 582.5,-462.2 601,-437 630.94,-396.21 597.17,-360.2 637,-329 680.7,-294.76 1080.08,-297.06 1135,-289 1147.88,-287.11 1161.41,-284.69 1174.63,-282.07"/>
<polygon fill="#b6ecf3" stroke="#b6ecf3" points="1175.56,-285.45 1184.66,-280.03 1174.17,-278.59 1175.56,-285.45"/>
</g>
<!-- flatiron.core.validators -->
<g id="node10" class="node">
<title>flatiron.core.validators</title>
<polygon fill="#343434" stroke="#343434" points="601,-1122 386,-1122 386,-1086 601,-1086 601,-1122"/>
<text text-anchor="middle" x="493.5" y="-1100.3" font-family="Courier,monospace" font-size="14.00" fill="#b6ecf3">flatiron.core.validators</text>
</g>
<!-- flatiron.core.validators&#45;&gt;flatiron.core.config -->
<g id="edge13" class="edge">
<title>flatiron.core.validators&#45;&gt;flatiron.core.config</title>
<path fill="none" stroke="#b6ecf3" d="M572.96,-1085.95C582.49,-1083.22 592.02,-1080.22 601,-1077 640.09,-1062.96 682.64,-1042.44 713.17,-1026.73"/>
<polygon fill="#b6ecf3" stroke="#b6ecf3" points="714.98,-1029.73 722.24,-1022.02 711.75,-1023.52 714.98,-1029.73"/>
</g>
<!-- flatiron.core.validators&#45;&gt;flatiron.models.unet -->
<g id="edge14" class="edge">
<title>flatiron.core.validators&#45;&gt;flatiron.models.unet</title>
<path fill="none" stroke="#b6ecf3" d="M601.17,-1106.38C679.41,-1104.92 787.06,-1096.13 876,-1064 1006.19,-1016.97 1058.01,-1006.04 1135,-891 1203.05,-789.33 1247.1,-398.88 1258.22,-290.21"/>
<polygon fill="#b6ecf3" stroke="#b6ecf3" points="1261.73,-290.34 1259.25,-280.04 1254.76,-289.64 1261.73,-290.34"/>
</g>
<!-- click -->
<g id="node12" class="node">
<title>click</title>
<polygon fill="#343434" stroke="#343434" points="70.5,-1051 12.5,-1051 12.5,-1015 70.5,-1015 70.5,-1051"/>
<text text-anchor="middle" x="41.5" y="-1029.3" font-family="Courier,monospace" font-size="14.00" fill="#de958e">click</text>
</g>
<!-- click&#45;&gt;flatiron.command -->
<g id="edge15" class="edge">
<title>click&#45;&gt;flatiron.command</title>
<path fill="none" stroke="#de958e" d="M70.68,-1033C91.57,-1033 121.2,-1033 149.47,-1033"/>
<polygon fill="#de958e" stroke="#de958e" points="149.8,-1036.5 159.8,-1033 149.8,-1029.5 149.8,-1036.5"/>
</g>
<!-- flatiron -->
<g id="node13" class="node">
<title>flatiron</title>
<polygon fill="#343434" stroke="#343434" points="83,-819 0,-819 0,-783 83,-783 83,-819"/>
<text text-anchor="middle" x="41.5" y="-797.3" font-family="Courier,monospace" font-size="14.00" fill="#a0d17b">flatiron</text>
</g>
<!-- flatiron&#45;&gt;flatiron.command -->
<g id="edge16" class="edge">
<title>flatiron&#45;&gt;flatiron.command</title>
<path fill="none" stroke="#a0d17b" d="M43.73,-819.22C47.45,-859.38 62.15,-955.88 119,-1006 127.98,-1013.91 138.84,-1019.62 150.26,-1023.71"/>
<polygon fill="#a0d17b" stroke="#a0d17b" points="149.37,-1027.1 159.96,-1026.79 151.48,-1020.43 149.37,-1027.1"/>
</g>
<!-- flatiron.core -->
<g id="node14" class="node">
<title>flatiron.core</title>
<polygon fill="#343434" stroke="#343434" points="296.5,-819 172.5,-819 172.5,-783 296.5,-783 296.5,-819"/>
<text text-anchor="middle" x="234.5" y="-797.3" font-family="Courier,monospace" font-size="14.00" fill="#a0d17b">flatiron.core</text>
</g>
<!-- flatiron&#45;&gt;flatiron.core -->
<g id="edge17" class="edge">
<title>flatiron&#45;&gt;flatiron.core</title>
<path fill="none" stroke="#a0d17b" d="M83.01,-801C106.02,-801 135.49,-801 162.25,-801"/>
<polygon fill="#a0d17b" stroke="#a0d17b" points="162.35,-804.5 172.35,-801 162.35,-797.5 162.35,-804.5"/>
</g>
<!-- flatiron.models -->
<g id="node17" class="node">
<title>flatiron.models</title>
<polygon fill="#343434" stroke="#343434" points="1093.5,-144 953.5,-144 953.5,-108 1093.5,-108 1093.5,-144"/>
<text text-anchor="middle" x="1023.5" y="-122.3" font-family="Courier,monospace" font-size="14.00" fill="#a0d17b">flatiron.models</text>
</g>
<!-- flatiron&#45;&gt;flatiron.models -->
<g id="edge18" class="edge">
<title>flatiron&#45;&gt;flatiron.models</title>
<path fill="none" stroke="#a0d17b" d="M76.01,-782.75C78.74,-780.14 81.15,-777.22 83,-774 116.21,-716.18 71.72,-222.01 119,-175 233.29,-61.38 744.78,-98.41 943.34,-117.59"/>
<polygon fill="#a0d17b" stroke="#a0d17b" points="943.12,-121.09 953.41,-118.58 943.8,-114.12 943.12,-121.09"/>
</g>
<!-- flatiron.core&#45;&gt;flatiron.core.config -->
<g id="edge19" class="edge">
<title>flatiron.core&#45;&gt;flatiron.core.config</title>
<path fill="none" stroke="#a0d17b" d="M249.04,-819.19C282.39,-863.75 367.17,-975.48 386,-985 431.42,-1007.97 562.2,-1009.78 655.26,-1007.83"/>
<polygon fill="#a0d17b" stroke="#a0d17b" points="655.36,-1011.33 665.27,-1007.6 655.2,-1004.33 655.36,-1011.33"/>
</g>
<!-- flatiron.core&#45;&gt;flatiron.core.dataset -->
<g id="edge20" class="edge">
<title>flatiron.core&#45;&gt;flatiron.core.dataset</title>
<path fill="none" stroke="#a0d17b" d="M245.97,-782.89C267.65,-746.92 320.89,-665.95 386,-620 469.17,-561.29 535.93,-619.29 601,-541 662.09,-467.5 581.58,-406.86 637,-329 650.28,-310.35 670.64,-296.48 690.77,-286.44"/>
<polygon fill="#a0d17b" stroke="#a0d17b" points="692.42,-289.53 699.97,-282.1 689.43,-283.2 692.42,-289.53"/>
</g>
<!-- flatiron.core&#45;&gt;flatiron.core.logging -->
<g id="edge21" class="edge">
<title>flatiron.core&#45;&gt;flatiron.core.logging</title>
<path fill="none" stroke="#a0d17b" d="M247.09,-782.97C269.36,-750.2 321.65,-681.8 386,-655 470.18,-619.95 574.77,-621.66 651.17,-630.11"/>
<polygon fill="#a0d17b" stroke="#a0d17b" points="650.95,-633.61 661.28,-631.29 651.76,-626.66 650.95,-633.61"/>
</g>
<!-- flatiron.core&#45;&gt;flatiron.core.loss -->
<g id="edge22" class="edge">
<title>flatiron.core&#45;&gt;flatiron.core.loss</title>
<path fill="none" stroke="#a0d17b" d="M274.1,-819.03C303.92,-831.92 346.62,-848.15 386,-855 480.14,-871.38 507.13,-872.86 601,-855 639.73,-847.63 681.15,-830.74 711.35,-816.59"/>
<polygon fill="#a0d17b" stroke="#a0d17b" points="713.22,-819.58 720.74,-812.11 710.21,-813.26 713.22,-819.58"/>
</g>
<!-- flatiron.core&#45;&gt;flatiron.core.metric -->
<g id="edge23" class="edge">
<title>flatiron.core&#45;&gt;flatiron.core.metric</title>
<path fill="none" stroke="#a0d17b" d="M274.76,-782.92C304.57,-770.18 346.96,-754.17 386,-747 475.95,-730.47 580.29,-730.18 655.11,-733.17"/>
<polygon fill="#a0d17b" stroke="#a0d17b" points="655.32,-736.68 665.46,-733.61 655.62,-729.69 655.32,-736.68"/>
</g>
<!-- flatiron.core&#45;&gt;flatiron.core.pipeline -->
<g id="edge24" class="edge">
<title>flatiron.core&#45;&gt;flatiron.core.pipeline</title>
<path fill="none" stroke="#a0d17b" d="M262.62,-819.11C291.7,-837.36 339.92,-864.28 386,-875 599.4,-924.63 698.1,-948.89 876,-821 956.73,-762.96 999.14,-645.73 1015.02,-592.02"/>
<polygon fill="#a0d17b" stroke="#a0d17b" points="1018.45,-592.74 1017.84,-582.17 1011.72,-590.82 1018.45,-592.74"/>
</g>
<!-- flatiron.core&#45;&gt;flatiron.core.tools -->
<g id="edge25" class="edge">
<title>flatiron.core&#45;&gt;flatiron.core.tools</title>
<path fill="none" stroke="#a0d17b" d="M250.46,-782.88C273.2,-754.98 317.26,-699.44 350,-649 367.98,-621.3 363.55,-608.22 386,-584 403.43,-565.2 426.89,-549.08 447.36,-537.06"/>
<polygon fill="#a0d17b" stroke="#a0d17b" points="449.28,-540 456.22,-532 445.8,-533.92 449.28,-540"/>
</g>
<!-- flatiron.core&#45;&gt;flatiron.core.validators -->
<g id="edge26" class="edge">
<title>flatiron.core&#45;&gt;flatiron.core.validators</title>
<path fill="none" stroke="#a0d17b" d="M252.77,-819.02C277.64,-845.91 323.47,-899.06 350,-952 375.9,-1003.69 344.47,-1036.78 386,-1077 386.96,-1077.93 387.95,-1078.84 388.97,-1079.71"/>
<polygon fill="#a0d17b" stroke="#a0d17b" points="387.1,-1082.68 397.22,-1085.83 391.27,-1077.06 387.1,-1082.68"/>
</g>
<!-- lunchbox.enforce -->
<g id="node15" class="node">
<title>lunchbox.enforce</title>
<polygon fill="#343434" stroke="#343434" points="309,-220 160,-220 160,-184 309,-184 309,-220"/>
<text text-anchor="middle" x="234.5" y="-198.3" font-family="Courier,monospace" font-size="14.00" fill="#de958e">lunchbox.enforce</text>
</g>
<!-- lunchbox.enforce&#45;&gt;flatiron.core.dataset -->
<g id="edge27" class="edge">
<title>lunchbox.enforce&#45;&gt;flatiron.core.dataset</title>
<path fill="none" stroke="#de958e" d="M309.09,-198.03C383.71,-195.81 501.98,-197.28 601,-221 618.03,-225.08 620.39,-231.47 637,-237 643.74,-239.24 650.77,-241.36 657.88,-243.36"/>
<polygon fill="#de958e" stroke="#de958e" points="657.04,-246.75 667.61,-245.99 658.87,-240 657.04,-246.75"/>
</g>
<!-- lunchbox.enforce&#45;&gt;flatiron.core.tools -->
<g id="edge28" class="edge">
<title>lunchbox.enforce&#45;&gt;flatiron.core.tools</title>
<path fill="none" stroke="#de958e" d="M247.31,-220.02C268.21,-251.94 312.97,-320.57 350,-379 366.24,-404.63 365.32,-414.8 386,-437 405.41,-457.83 431.21,-476.65 452.55,-490.47"/>
<polygon fill="#de958e" stroke="#de958e" points="450.77,-493.49 461.09,-495.89 454.52,-487.58 450.77,-493.49"/>
</g>
<!-- lunchbox.enforce&#45;&gt;flatiron.models.unet -->
<g id="edge29" class="edge">
<title>lunchbox.enforce&#45;&gt;flatiron.models.unet</title>
<path fill="none" stroke="#de958e" d="M309.35,-197.29C333.75,-195.81 361.03,-194.24 386,-193 718.57,-176.43 812.05,-129.86 1135,-211 1162.26,-217.85 1191.42,-229.36 1214.82,-239.72"/>
<polygon fill="#de958e" stroke="#de958e" points="1213.59,-243 1224.14,-243.92 1216.46,-236.62 1213.59,-243"/>
</g>
<!-- lunchbox.stopwatch -->
<g id="node16" class="node">
<title>lunchbox.stopwatch</title>
<polygon fill="#343434" stroke="#343434" points="317,-532 152,-532 152,-496 317,-496 317,-532"/>
<text text-anchor="middle" x="234.5" y="-510.3" font-family="Courier,monospace" font-size="14.00" fill="#de958e">lunchbox.stopwatch</text>
</g>
<!-- lunchbox.stopwatch&#45;&gt;flatiron.core.tools -->
<g id="edge30" class="edge">
<title>lunchbox.stopwatch&#45;&gt;flatiron.core.tools</title>
<path fill="none" stroke="#de958e" d="M317.17,-514C342.34,-514 370.29,-514 396.34,-514"/>
<polygon fill="#de958e" stroke="#de958e" points="396.61,-517.5 406.61,-514 396.61,-510.5 396.61,-517.5"/>
</g>
<!-- flatiron.models&#45;&gt;flatiron.models.unet -->
<g id="edge31" class="edge">
<title>flatiron.models&#45;&gt;flatiron.models.unet</title>
<path fill="none" stroke="#a0d17b" d="M1093.7,-141.33C1107.78,-145.74 1122.2,-151.24 1135,-158 1174.38,-178.8 1212.85,-213.21 1236.71,-236.7"/>
<polygon fill="#a0d17b" stroke="#a0d17b" points="1234.38,-239.33 1243.93,-243.92 1239.33,-234.37 1234.38,-239.33"/>
</g>
<!-- lunchbox.tools -->
<g id="node18" class="node">
<title>lunchbox.tools</title>
<polygon fill="#343434" stroke="#343434" points="300.5,-640 168.5,-640 168.5,-604 300.5,-604 300.5,-640"/>
<text text-anchor="middle" x="234.5" y="-618.3" font-family="Courier,monospace" font-size="14.00" fill="#de958e">lunchbox.tools</text>
</g>
<!-- lunchbox.tools&#45;&gt;flatiron.core.logging -->
<g id="edge32" class="edge">
<title>lunchbox.tools&#45;&gt;flatiron.core.logging</title>
<path fill="none" stroke="#de958e" d="M300.67,-618.73C373.88,-615.83 496.19,-613.24 601,-622 617.99,-623.42 635.93,-625.7 653.33,-628.34"/>
<polygon fill="#de958e" stroke="#de958e" points="653.08,-631.85 663.5,-629.93 654.16,-624.93 653.08,-631.85"/>
</g>
<!-- lunchbox.tools&#45;&gt;flatiron.core.tools -->
<g id="edge33" class="edge">
<title>lunchbox.tools&#45;&gt;flatiron.core.tools</title>
<path fill="none" stroke="#de958e" d="M300.54,-614.91C317.62,-610.92 335.35,-604.69 350,-595 372.54,-580.09 363.92,-561.58 386,-546 391.18,-542.35 396.77,-539.11 402.6,-536.23"/>
<polygon fill="#de958e" stroke="#de958e" points="404.26,-539.32 411.92,-532 401.37,-532.95 404.26,-539.32"/>
</g>
<!-- pytz -->
<g id="node19" class="node">
<title>pytz</title>
<polygon fill="#343434" stroke="#343434" points="261.5,-478 207.5,-478 207.5,-442 261.5,-442 261.5,-478"/>
<text text-anchor="middle" x="234.5" y="-456.3" font-family="Courier,monospace" font-size="14.00" fill="#de958e">pytz</text>
</g>
<!-- pytz&#45;&gt;flatiron.core.tools -->
<g id="edge34" class="edge">
<title>pytz&#45;&gt;flatiron.core.tools</title>
<path fill="none" stroke="#de958e" d="M261.56,-465.47C293.19,-472.12 348.34,-483.71 396.81,-493.89"/>
<polygon fill="#de958e" stroke="#de958e" points="396.22,-497.35 406.73,-495.98 397.66,-490.5 396.22,-497.35"/>
</g>
<!-- schematics.exceptions -->
<g id="node20" class="node">
<title>schematics.exceptions</title>
<polygon fill="#343434" stroke="#343434" points="329.5,-997 139.5,-997 139.5,-961 329.5,-961 329.5,-997"/>
<text text-anchor="middle" x="234.5" y="-975.3" font-family="Courier,monospace" font-size="14.00" fill="#de958e">schematics.exceptions</text>
</g>
<!-- schematics.exceptions&#45;&gt;flatiron.core.validators -->
<g id="edge35" class="edge">
<title>schematics.exceptions&#45;&gt;flatiron.core.validators</title>
<path fill="none" stroke="#de958e" d="M329.63,-993.82C336.91,-997.13 343.82,-1001.14 350,-1006 377.81,-1027.87 358.38,-1054.89 386,-1077 387.59,-1078.27 389.24,-1079.49 390.93,-1080.65"/>
<polygon fill="#de958e" stroke="#de958e" points="389.36,-1083.79 399.72,-1085.98 392.98,-1077.8 389.36,-1083.79"/>
</g>
<!-- tensorflow.keras.callbacks -->
<g id="node21" class="node">
<title>tensorflow.keras.callbacks</title>
<polygon fill="#343434" stroke="#343434" points="350,-586 119,-586 119,-550 350,-550 350,-586"/>
<text text-anchor="middle" x="234.5" y="-564.3" font-family="Courier,monospace" font-size="14.00" fill="#de958e">tensorflow.keras.callbacks</text>
</g>
<!-- tensorflow.keras.callbacks&#45;&gt;flatiron.core.tools -->
<g id="edge36" class="edge">
<title>tensorflow.keras.callbacks&#45;&gt;flatiron.core.tools</title>
<path fill="none" stroke="#de958e" d="M321.43,-549.94C345.55,-544.88 371.91,-539.34 396.56,-534.16"/>
<polygon fill="#de958e" stroke="#de958e" points="397.58,-537.52 406.65,-532.04 396.14,-530.67 397.58,-537.52"/>
</g>
<!-- yaml -->
<g id="node22" class="node">
<title>yaml</title>
<polygon fill="#343434" stroke="#343434" points="261.5,-424 207.5,-424 207.5,-388 261.5,-388 261.5,-424"/>
<text text-anchor="middle" x="234.5" y="-402.3" font-family="Courier,monospace" font-size="14.00" fill="#de958e">yaml</text>
</g>
<!-- yaml&#45;&gt;flatiron.core.pipeline -->
<g id="edge37" class="edge">
<title>yaml&#45;&gt;flatiron.core.pipeline</title>
<path fill="none" stroke="#de958e" d="M261.5,-411.48C343.85,-428.87 593.92,-481.98 601,-487 625.75,-504.55 610.86,-529.6 637,-545 682.24,-571.64 816.54,-572.79 913.92,-569.67"/>
<polygon fill="#de958e" stroke="#de958e" points="914.24,-573.16 924.11,-569.32 914,-566.16 914.24,-573.16"/>
</g>
<!-- yaml&#45;&gt;flatiron.core.tools -->
<g id="edge38" class="edge">
<title>yaml&#45;&gt;flatiron.core.tools</title>
<path fill="none" stroke="#de958e" d="M261.63,-407.05C286.25,-409.16 323.26,-415.31 350,-433 372.54,-447.91 363.92,-466.42 386,-482 391.18,-485.65 396.77,-488.89 402.6,-491.77"/>
<polygon fill="#de958e" stroke="#de958e" points="401.37,-495.05 411.92,-496 404.26,-488.68 401.37,-495.05"/>
</g>
<!-- humanfriendly -->
<g id="node23" class="node">
<title>humanfriendly</title>
<polygon fill="#343434" stroke="#343434" points="555.5,-428 431.5,-428 431.5,-392 555.5,-392 555.5,-428"/>
<text text-anchor="middle" x="493.5" y="-406.3" font-family="Courier,monospace" font-size="14.00" fill="#de958e">humanfriendly</text>
</g>
<!-- humanfriendly&#45;&gt;flatiron.core.dataset -->
<g id="edge39" class="edge">
<title>humanfriendly&#45;&gt;flatiron.core.dataset</title>
<path fill="none" stroke="#de958e" d="M555.78,-404.5C571.94,-400.53 588.38,-393.92 601,-383 632.64,-355.62 605.57,-323.63 637,-296 641.73,-291.85 646.94,-288.22 652.46,-285.07"/>
<polygon fill="#de958e" stroke="#de958e" points="654.09,-288.17 661.38,-280.48 650.88,-281.94 654.09,-288.17"/>
</g>
<!-- numpy -->
<g id="node24" class="node">
<title>numpy</title>
<polygon fill="#343434" stroke="#343434" points="522.5,-700 464.5,-700 464.5,-664 522.5,-664 522.5,-700"/>
<text text-anchor="middle" x="493.5" y="-678.3" font-family="Courier,monospace" font-size="14.00" fill="#de958e">numpy</text>
</g>
<!-- numpy&#45;&gt;flatiron.core.dataset -->
<g id="edge40" class="edge">
<title>numpy&#45;&gt;flatiron.core.dataset</title>
<path fill="none" stroke="#de958e" d="M522.67,-671.5C547.63,-660.62 582.84,-641.09 601,-612 668.13,-504.44 565.64,-433.8 637,-329 649.77,-310.25 669.8,-296.39 689.78,-286.4"/>
<polygon fill="#de958e" stroke="#de958e" points="691.38,-289.51 698.93,-282.08 688.39,-283.18 691.38,-289.51"/>
</g>
<!-- numpy&#45;&gt;flatiron.core.loss -->
<g id="edge41" class="edge">
<title>numpy&#45;&gt;flatiron.core.loss</title>
<path fill="none" stroke="#de958e" d="M522.81,-699.54C560.86,-723 625.1,-762.23 637,-767 645.65,-770.46 654.84,-773.54 664.13,-776.25"/>
<polygon fill="#de958e" stroke="#de958e" points="663.26,-779.64 673.83,-778.95 665.13,-772.9 663.26,-779.64"/>
</g>
<!-- numpy&#45;&gt;flatiron.core.metric -->
<g id="edge42" class="edge">
<title>numpy&#45;&gt;flatiron.core.metric</title>
<path fill="none" stroke="#de958e" d="M522.68,-688.26C556.48,-695.77 614.81,-708.74 664.63,-719.81"/>
<polygon fill="#de958e" stroke="#de958e" points="663.95,-723.24 674.48,-721.99 665.47,-716.41 663.95,-723.24"/>
</g>
<!-- numpy&#45;&gt;flatiron.core.pipeline -->
<g id="edge43" class="edge">
<title>numpy&#45;&gt;flatiron.core.pipeline</title>
<path fill="none" stroke="#de958e" d="M522.82,-687.28C587.57,-698.14 750.49,-718.46 876,-675 925.89,-657.72 972.48,-616.42 999.2,-589.36"/>
<polygon fill="#de958e" stroke="#de958e" points="1001.76,-591.75 1006.2,-582.13 996.73,-586.88 1001.76,-591.75"/>
</g>
<!-- tensorflow -->
<g id="node25" class="node">
<title>tensorflow</title>
<polygon fill="#343434" stroke="#343434" points="543,-792 444,-792 444,-756 543,-756 543,-792"/>
<text text-anchor="middle" x="493.5" y="-770.3" font-family="Courier,monospace" font-size="14.00" fill="#de958e">tensorflow</text>
</g>
<!-- tensorflow&#45;&gt;flatiron.core.loss -->
<g id="edge44" class="edge">
<title>tensorflow&#45;&gt;flatiron.core.loss</title>
<path fill="none" stroke="#de958e" d="M543.29,-777.74C577.09,-780.33 623.12,-783.86 663.68,-786.96"/>
<polygon fill="#de958e" stroke="#de958e" points="663.63,-790.47 673.86,-787.74 664.16,-783.49 663.63,-790.47"/>
</g>
<!-- tensorflow&#45;&gt;flatiron.core.metric -->
<g id="edge45" class="edge">
<title>tensorflow&#45;&gt;flatiron.core.metric</title>
<path fill="none" stroke="#de958e" d="M543.29,-767.64C574.78,-763.54 616.89,-758.06 655.29,-753.05"/>
<polygon fill="#de958e" stroke="#de958e" points="656.03,-756.49 665.49,-751.73 655.12,-749.55 656.03,-756.49"/>
</g>
<!-- keras.engine.keras_tensor -->
<g id="node26" class="node">
<title>keras.engine.keras_tensor</title>
<polygon fill="#343434" stroke="#343434" points="1135,-280 912,-280 912,-244 1135,-244 1135,-280"/>
<text text-anchor="middle" x="1023.5" y="-258.3" font-family="Courier,monospace" font-size="14.00" fill="#de958e">keras.engine.keras_tensor</text>
</g>
<!-- keras.engine.keras_tensor&#45;&gt;flatiron.models.unet -->
<g id="edge46" class="edge">
<title>keras.engine.keras_tensor&#45;&gt;flatiron.models.unet</title>
<path fill="none" stroke="#de958e" d="M1135.13,-262C1143.59,-262 1152.11,-262 1160.5,-262"/>
<polygon fill="#de958e" stroke="#de958e" points="1160.66,-265.5 1170.66,-262 1160.66,-258.5 1160.66,-265.5"/>
</g>
<!-- schematics -->
<g id="node27" class="node">
<title>schematics</title>
<polygon fill="#343434" stroke="#343434" points="543,-1068 444,-1068 444,-1032 543,-1032 543,-1068"/>
<text text-anchor="middle" x="493.5" y="-1046.3" font-family="Courier,monospace" font-size="14.00" fill="#de958e">schematics</text>
</g>
<!-- schematics&#45;&gt;flatiron.core.config -->
<g id="edge47" class="edge">
<title>schematics&#45;&gt;flatiron.core.config</title>
<path fill="none" stroke="#de958e" d="M543.29,-1041.4C574.78,-1035.85 616.89,-1028.43 655.29,-1021.66"/>
<polygon fill="#de958e" stroke="#de958e" points="656.25,-1025.05 665.49,-1019.86 655.04,-1018.15 656.25,-1025.05"/>
</g>
<!-- schematics&#45;&gt;flatiron.models.unet -->
<g id="edge48" class="edge">
<title>schematics&#45;&gt;flatiron.models.unet</title>
<path fill="none" stroke="#de958e" d="M543.2,-1059.1C618.71,-1070.76 766.68,-1083.7 876,-1031 1175.62,-886.57 1245.32,-411.16 1258.37,-290.2"/>
<polygon fill="#de958e" stroke="#de958e" points="1261.85,-290.54 1259.4,-280.23 1254.89,-289.82 1261.85,-290.54"/>
</g>
<!-- tensorflow.keras.backend -->
<g id="node28" class="node">
<title>tensorflow.keras.backend</title>
<polygon fill="#343434" stroke="#343434" points="601,-846 386,-846 386,-810 601,-810 601,-846"/>
<text text-anchor="middle" x="493.5" y="-824.3" font-family="Courier,monospace" font-size="14.00" fill="#de958e">tensorflow.keras.backend</text>
</g>
<!-- tensorflow.keras.backend&#45;&gt;flatiron.core.loss -->
<g id="edge49" class="edge">
<title>tensorflow.keras.backend&#45;&gt;flatiron.core.loss</title>
<path fill="none" stroke="#de958e" d="M601.04,-814.12C621.78,-811.42 643.35,-808.61 663.57,-805.98"/>
<polygon fill="#de958e" stroke="#de958e" points="664.23,-809.42 673.69,-804.66 663.32,-802.48 664.23,-809.42"/>
</g>
<!-- tensorflow.keras.backend&#45;&gt;flatiron.core.metric -->
<g id="edge50" class="edge">
<title>tensorflow.keras.backend&#45;&gt;flatiron.core.metric</title>
<path fill="none" stroke="#de958e" d="M581.39,-809.99C588.19,-807.38 594.82,-804.4 601,-801 620.29,-790.4 617.59,-777.37 637,-767 642.94,-763.83 649.24,-761.03 655.72,-758.56"/>
<polygon fill="#de958e" stroke="#de958e" points="657.06,-761.79 665.32,-755.16 654.72,-755.19 657.06,-761.79"/>
</g>
<!-- pandas -->
<g id="node29" class="node">
<title>pandas</title>
<polygon fill="#343434" stroke="#343434" points="526.5,-374 460.5,-374 460.5,-338 526.5,-338 526.5,-374"/>
<text text-anchor="middle" x="493.5" y="-352.3" font-family="Courier,monospace" font-size="14.00" fill="#de958e">pandas</text>
</g>
<!-- pandas&#45;&gt;flatiron.core.dataset -->
<g id="edge51" class="edge">
<title>pandas&#45;&gt;flatiron.core.dataset</title>
<path fill="none" stroke="#de958e" d="M526.76,-352.05C548.7,-348.38 577.84,-341.51 601,-329 620.1,-318.69 617.98,-306.46 637,-296 644.1,-292.09 651.71,-288.64 659.52,-285.6"/>
<polygon fill="#de958e" stroke="#de958e" points="660.93,-288.81 669.11,-282.08 658.52,-282.23 660.93,-288.81"/>
</g>
<!-- schematics.types -->
<g id="node30" class="node">
<title>schematics.types</title>
<polygon fill="#343434" stroke="#343434" points="568,-976 419,-976 419,-940 568,-940 568,-976"/>
<text text-anchor="middle" x="493.5" y="-954.3" font-family="Courier,monospace" font-size="14.00" fill="#de958e">schematics.types</text>
</g>
<!-- schematics.types&#45;&gt;flatiron.core.config -->
<g id="edge52" class="edge">
<title>schematics.types&#45;&gt;flatiron.core.config</title>
<path fill="none" stroke="#de958e" d="M568.25,-971C595.21,-975.75 626.2,-981.21 655.1,-986.31"/>
<polygon fill="#de958e" stroke="#de958e" points="654.77,-989.8 665.23,-988.09 655.99,-982.91 654.77,-989.8"/>
</g>
<!-- schematics.types&#45;&gt;flatiron.models.unet -->
<g id="edge53" class="edge">
<title>schematics.types&#45;&gt;flatiron.models.unet</title>
<path fill="none" stroke="#de958e" d="M568.18,-956.75C648.75,-952.4 779.28,-936.44 876,-881 1025.93,-795.06 1045.06,-738.56 1135,-591 1197.63,-488.24 1238.42,-349.1 1253.94,-290.2"/>
<polygon fill="#de958e" stroke="#de958e" points="1257.42,-290.72 1256.55,-280.16 1250.65,-288.96 1257.42,-290.72"/>
</g>
<!-- keras.engine.functional -->
<g id="node31" class="node">
<title>keras.engine.functional</title>
<polygon fill="#343434" stroke="#343434" points="859.5,-228 653.5,-228 653.5,-192 859.5,-192 859.5,-228"/>
<text text-anchor="middle" x="756.5" y="-206.3" font-family="Courier,monospace" font-size="14.00" fill="#de958e">keras.engine.functional</text>
</g>
<!-- keras.engine.functional&#45;&gt;flatiron.core.pipeline -->
<g id="edge54" class="edge">
<title>keras.engine.functional&#45;&gt;flatiron.core.pipeline</title>
<path fill="none" stroke="#de958e" d="M859.77,-226.44C865.55,-229.43 871.02,-232.92 876,-237 901.04,-257.53 982.25,-460.97 1011.71,-536.21"/>
<polygon fill="#de958e" stroke="#de958e" points="1008.61,-537.9 1015.51,-545.94 1015.13,-535.36 1008.61,-537.9"/>
</g>
<!-- keras.engine.functional&#45;&gt;flatiron.models.unet -->
<g id="edge55" class="edge">
<title>keras.engine.functional&#45;&gt;flatiron.models.unet</title>
<path fill="none" stroke="#de958e" d="M859.65,-212.76C935.83,-215.79 1042.3,-222.07 1135,-235 1148.07,-236.82 1161.8,-239.24 1175.2,-241.88"/>
<polygon fill="#de958e" stroke="#de958e" points="1174.86,-245.38 1185.36,-243.93 1176.25,-238.52 1174.86,-245.38"/>
</g>
<!-- sklearn.model_selection -->
<g id="node32" class="node">
<title>sklearn.model_selection</title>
<polygon fill="#343434" stroke="#343434" points="596.5,-320 390.5,-320 390.5,-284 596.5,-284 596.5,-320"/>
<text text-anchor="middle" x="493.5" y="-298.3" font-family="Courier,monospace" font-size="14.00" fill="#de958e">sklearn.model_selection</text>
</g>
<!-- sklearn.model_selection&#45;&gt;flatiron.core.dataset -->
<g id="edge56" class="edge">
<title>sklearn.model_selection&#45;&gt;flatiron.core.dataset</title>
<path fill="none" stroke="#de958e" d="M596.53,-287.14C614.51,-284.53 633.24,-281.8 651.27,-279.18"/>
<polygon fill="#de958e" stroke="#de958e" points="651.82,-282.63 661.21,-277.73 650.81,-275.71 651.82,-282.63"/>
</g>
<!-- tqdm.notebook -->
<g id="node33" class="node">
<title>tqdm.notebook</title>
<polygon fill="#343434" stroke="#343434" points="555.5,-266 431.5,-266 431.5,-230 555.5,-230 555.5,-266"/>
<text text-anchor="middle" x="493.5" y="-244.3" font-family="Courier,monospace" font-size="14.00" fill="#de958e">tqdm.notebook</text>
</g>
<!-- tqdm.notebook&#45;&gt;flatiron.core.dataset -->
<g id="edge57" class="edge">
<title>tqdm.notebook&#45;&gt;flatiron.core.dataset</title>
<path fill="none" stroke="#de958e" d="M555.69,-251.75C584.23,-253.5 619,-255.63 651.48,-257.62"/>
<polygon fill="#de958e" stroke="#de958e" points="651.28,-261.12 661.48,-258.24 651.71,-254.13 651.28,-261.12"/>
</g>
<!-- schematics.models -->
<g id="node34" class="node">
<title>schematics.models</title>
<polygon fill="#343434" stroke="#343434" points="835,-536 678,-536 678,-500 835,-500 835,-536"/>
<text text-anchor="middle" x="756.5" y="-514.3" font-family="Courier,monospace" font-size="14.00" fill="#de958e">schematics.models</text>
</g>
<!-- schematics.models&#45;&gt;flatiron.core.pipeline -->
<g id="edge58" class="edge">
<title>schematics.models&#45;&gt;flatiron.core.pipeline</title>
<path fill="none" stroke="#de958e" d="M835.22,-531.49C859.86,-535.77 887.58,-540.58 913.98,-545.16"/>
<polygon fill="#de958e" stroke="#de958e" points="913.58,-548.64 924.03,-546.91 914.77,-541.75 913.58,-548.64"/>
</g>
<!-- tensorflow.keras.losses -->
<g id="node35" class="node">
<title>tensorflow.keras.losses</title>
<polygon fill="#343434" stroke="#343434" points="859.5,-482 653.5,-482 653.5,-446 859.5,-446 859.5,-482"/>
<text text-anchor="middle" x="756.5" y="-460.3" font-family="Courier,monospace" font-size="14.00" fill="#de958e">tensorflow.keras.losses</text>
</g>
<!-- tensorflow.keras.losses&#45;&gt;flatiron.core.pipeline -->
<g id="edge59" class="edge">
<title>tensorflow.keras.losses&#45;&gt;flatiron.core.pipeline</title>
<path fill="none" stroke="#de958e" d="M847.13,-482.02C856.97,-484.71 866.76,-487.7 876,-491 913.55,-504.42 953.95,-525.06 982.79,-540.97"/>
<polygon fill="#de958e" stroke="#de958e" points="981.29,-544.14 991.73,-545.96 984.7,-538.03 981.29,-544.14"/>
</g>
<!-- tensorflow.keras.metrics -->
<g id="node36" class="node">
<title>tensorflow.keras.metrics</title>
<polygon fill="#343434" stroke="#343434" points="864,-428 649,-428 649,-392 864,-392 864,-428"/>
<text text-anchor="middle" x="756.5" y="-406.3" font-family="Courier,monospace" font-size="14.00" fill="#de958e">tensorflow.keras.metrics</text>
</g>
<!-- tensorflow.keras.metrics&#45;&gt;flatiron.core.pipeline -->
<g id="edge60" class="edge">
<title>tensorflow.keras.metrics&#45;&gt;flatiron.core.pipeline</title>
<path fill="none" stroke="#de958e" d="M854.93,-428.05C862.21,-430.65 869.32,-433.61 876,-437 926.22,-462.46 973.36,-508.87 1000,-537.98"/>
<polygon fill="#de958e" stroke="#de958e" points="997.67,-540.62 1006.96,-545.7 1002.87,-535.93 997.67,-540.62"/>
</g>
<!-- tensorflow.keras.optimizers -->
<g id="node37" class="node">
<title>tensorflow.keras.optimizers</title>
<polygon fill="#343434" stroke="#343434" points="876,-374 637,-374 637,-338 876,-338 876,-374"/>
<text text-anchor="middle" x="756.5" y="-352.3" font-family="Courier,monospace" font-size="14.00" fill="#de958e">tensorflow.keras.optimizers</text>
</g>
<!-- tensorflow.keras.optimizers&#45;&gt;flatiron.core.pipeline -->
<g id="edge61" class="edge">
<title>tensorflow.keras.optimizers&#45;&gt;flatiron.core.pipeline</title>
<path fill="none" stroke="#de958e" d="M858.64,-374.02C864.7,-376.62 870.54,-379.6 876,-383 938.26,-421.79 985.86,-496.53 1008.31,-536.76"/>
<polygon fill="#de958e" stroke="#de958e" points="1005.34,-538.64 1013.21,-545.74 1011.49,-535.28 1005.34,-538.64"/>
</g>
<!-- tensorflow.keras.layers -->
<g id="node38" class="node">
<title>tensorflow.keras.layers</title>
<polygon fill="#343434" stroke="#343434" points="1126.5,-90 920.5,-90 920.5,-54 1126.5,-54 1126.5,-90"/>
<text text-anchor="middle" x="1023.5" y="-68.3" font-family="Courier,monospace" font-size="14.00" fill="#de958e">tensorflow.keras.layers</text>
</g>
<!-- tensorflow.keras.layers&#45;&gt;flatiron.models.unet -->
<g id="edge62" class="edge">
<title>tensorflow.keras.layers&#45;&gt;flatiron.models.unet</title>
<path fill="none" stroke="#de958e" d="M1118.36,-90.05C1124.18,-92.65 1129.78,-95.61 1135,-99 1188,-133.44 1227.87,-198 1247.48,-234.69"/>
<polygon fill="#de958e" stroke="#de958e" points="1244.51,-236.57 1252.25,-243.81 1250.72,-233.33 1244.51,-236.57"/>
</g>
<!-- tensorflow.keras.models -->
<g id="node39" class="node">
<title>tensorflow.keras.models</title>
<polygon fill="#343434" stroke="#343434" points="1126.5,-36 920.5,-36 920.5,0 1126.5,0 1126.5,-36"/>
<text text-anchor="middle" x="1023.5" y="-14.3" font-family="Courier,monospace" font-size="14.00" fill="#de958e">tensorflow.keras.models</text>
</g>
<!-- tensorflow.keras.models&#45;&gt;flatiron.models.unet -->
<g id="edge63" class="edge">
<title>tensorflow.keras.models&#45;&gt;flatiron.models.unet</title>
<path fill="none" stroke="#de958e" d="M1120.52,-36.08C1125.62,-38.67 1130.49,-41.63 1135,-45 1200.35,-93.88 1237.53,-187.42 1252.77,-234.09"/>
<polygon fill="#de958e" stroke="#de958e" points="1249.5,-235.35 1255.86,-243.83 1256.18,-233.24 1249.5,-235.35"/>
</g>
</g>
</svg>
