<?xml version="1.0" encoding="UTF-8" standalone="no"?>
<!DOCTYPE svg PUBLIC "-//W3C//DTD SVG 1.1//EN"
 "http://www.w3.org/Graphics/SVG/1.1/DTD/svg11.dtd">
<!-- Generated by graphviz version 2.43.0 (0)
 -->
<!-- Title: %3 Pages: 1 -->
<svg width="1126pt" height="1276pt"
 viewBox="0.00 0.00 1126.00 1275.51" xmlns="http://www.w3.org/2000/svg" xmlns:xlink="http://www.w3.org/1999/xlink">
<g id="graph0" class="graph" transform="scale(1 1) rotate(0) translate(4 1271.51)">
<title>%3</title>
<polygon fill="#242424" stroke="transparent" points="-4,4 -4,-1271.51 1122,-1271.51 1122,4 -4,4"/>
<!-- cli -->
<g id="node1" class="node">
<title>cli</title>
<polygon fill="#343434" stroke="#343434" points="68.5,-468.51 14.5,-468.51 14.5,-432.51 68.5,-432.51 68.5,-468.51"/>
<text text-anchor="middle" x="41.5" y="-446.81" font-family="Courier,monospace" font-size="14.00" fill="#b6ecf3">cli</text>
</g>
<!-- flatiron.core.config -->
<g id="node2" class="node">
<title>flatiron.core.config</title>
<polygon fill="#343434" stroke="#343434" points="855.5,-645.51 673.5,-645.51 673.5,-609.51 855.5,-609.51 855.5,-645.51"/>
<text text-anchor="middle" x="764.5" y="-623.81" font-family="Courier,monospace" font-size="14.00" fill="#b6ecf3">flatiron.core.config</text>
</g>
<!-- flatiron.core.pipeline -->
<g id="node7" class="node">
<title>flatiron.core.pipeline</title>
<polygon fill="#343434" stroke="#343434" points="1118,-952.51 920,-952.51 920,-916.51 1118,-916.51 1118,-952.51"/>
<text text-anchor="middle" x="1019" y="-930.81" font-family="Courier,monospace" font-size="14.00" fill="#b6ecf3">flatiron.core.pipeline</text>
</g>
<!-- flatiron.core.config&#45;&gt;flatiron.core.pipeline -->
<g id="edge1" class="edge">
<title>flatiron.core.config&#45;&gt;flatiron.core.pipeline</title>
<path fill="none" stroke="#b6ecf3" d="M780.54,-645.8C823.43,-697.95 946.48,-847.56 996.48,-908.35"/>
<polygon fill="#b6ecf3" stroke="#b6ecf3" points="993.98,-910.82 1003.04,-916.32 999.39,-906.38 993.98,-910.82"/>
</g>
<!-- flatiron.core.dataset -->
<g id="node3" class="node">
<title>flatiron.core.dataset</title>
<polygon fill="#343434" stroke="#343434" points="859.5,-883.51 669.5,-883.51 669.5,-847.51 859.5,-847.51 859.5,-883.51"/>
<text text-anchor="middle" x="764.5" y="-861.81" font-family="Courier,monospace" font-size="14.00" fill="#b6ecf3">flatiron.core.dataset</text>
</g>
<!-- flatiron.core.dataset&#45;&gt;flatiron.core.pipeline -->
<g id="edge2" class="edge">
<title>flatiron.core.dataset&#45;&gt;flatiron.core.pipeline</title>
<path fill="none" stroke="#b6ecf3" d="M831.51,-883.55C865.44,-892.82 906.94,-904.16 942.18,-913.79"/>
<polygon fill="#b6ecf3" stroke="#b6ecf3" points="941.37,-917.2 951.94,-916.46 943.21,-910.45 941.37,-917.2"/>
</g>
<!-- flatiron.core.logging -->
<g id="node4" class="node">
<title>flatiron.core.logging</title>
<polygon fill="#343434" stroke="#343434" points="859.5,-259.51 669.5,-259.51 669.5,-223.51 859.5,-223.51 859.5,-259.51"/>
<text text-anchor="middle" x="764.5" y="-237.81" font-family="Courier,monospace" font-size="14.00" fill="#b6ecf3">flatiron.core.logging</text>
</g>
<!-- flatiron.core.logging&#45;&gt;flatiron.core.pipeline -->
<g id="edge3" class="edge">
<title>flatiron.core.logging&#45;&gt;flatiron.core.pipeline</title>
<path fill="none" stroke="#b6ecf3" d="M831.56,-259.53C851.02,-267.85 870.66,-279.73 884,-296.51 961.53,-394.04 1004.82,-795.71 1015.42,-906.25"/>
<polygon fill="#b6ecf3" stroke="#b6ecf3" points="1011.94,-906.67 1016.37,-916.3 1018.91,-906.01 1011.94,-906.67"/>
</g>
<!-- flatiron.core.loss -->
<g id="node5" class="node">
<title>flatiron.core.loss</title>
<polygon fill="#343434" stroke="#343434" points="847,-1105.51 682,-1105.51 682,-1069.51 847,-1069.51 847,-1105.51"/>
<text text-anchor="middle" x="764.5" y="-1083.81" font-family="Courier,monospace" font-size="14.00" fill="#b6ecf3">flatiron.core.loss</text>
</g>
<!-- flatiron.core.loss&#45;&gt;flatiron.core.pipeline -->
<g id="edge4" class="edge">
<title>flatiron.core.loss&#45;&gt;flatiron.core.pipeline</title>
<path fill="none" stroke="#b6ecf3" d="M847.16,-1070.93C859.88,-1066.81 872.59,-1061.73 884,-1055.51 929.34,-1030.8 971.81,-987.78 996.34,-960.26"/>
<polygon fill="#b6ecf3" stroke="#b6ecf3" points="999.1,-962.42 1003.06,-952.59 993.84,-957.8 999.1,-962.42"/>
</g>
<!-- flatiron.core.metric -->
<g id="node6" class="node">
<title>flatiron.core.metric</title>
<polygon fill="#343434" stroke="#343434" points="855.5,-1159.51 673.5,-1159.51 673.5,-1123.51 855.5,-1123.51 855.5,-1159.51"/>
<text text-anchor="middle" x="764.5" y="-1137.81" font-family="Courier,monospace" font-size="14.00" fill="#b6ecf3">flatiron.core.metric</text>
</g>
<!-- flatiron.core.metric&#45;&gt;flatiron.core.pipeline -->
<g id="edge5" class="edge">
<title>flatiron.core.metric&#45;&gt;flatiron.core.pipeline</title>
<path fill="none" stroke="#b6ecf3" d="M855.65,-1128.17C865.65,-1124.63 875.34,-1120.16 884,-1114.51 943.1,-1076 985.64,-1001.92 1005.47,-961.85"/>
<polygon fill="#b6ecf3" stroke="#b6ecf3" points="1008.71,-963.2 1009.91,-952.67 1002.41,-960.15 1008.71,-963.2"/>
</g>
<!-- flatiron.core.tools -->
<g id="node8" class="node">
<title>flatiron.core.tools</title>
<polygon fill="#343434" stroke="#343434" points="584,-207.51 411,-207.51 411,-171.51 584,-171.51 584,-207.51"/>
<text text-anchor="middle" x="497.5" y="-185.81" font-family="Courier,monospace" font-size="14.00" fill="#b6ecf3">flatiron.core.tools</text>
</g>
<!-- flatiron.core.tools&#45;&gt;flatiron.core.dataset -->
<g id="edge6" class="edge">
<title>flatiron.core.tools&#45;&gt;flatiron.core.dataset</title>
<path fill="none" stroke="#b6ecf3" d="M518.51,-207.79C544.34,-232.74 588.42,-280.12 609,-330.51 663.77,-464.64 600.64,-516.58 645,-654.51 667.98,-725.97 716.61,-800.47 743.89,-838.95"/>
<polygon fill="#b6ecf3" stroke="#b6ecf3" points="741.34,-841.4 750.01,-847.49 747.03,-837.32 741.34,-841.4"/>
</g>
<!-- flatiron.core.tools&#45;&gt;flatiron.core.logging -->
<g id="edge7" class="edge">
<title>flatiron.core.tools&#45;&gt;flatiron.core.logging</title>
<path fill="none" stroke="#b6ecf3" d="M584.17,-206.32C608.87,-211.17 636.06,-216.5 661.63,-221.52"/>
<polygon fill="#b6ecf3" stroke="#b6ecf3" points="661.24,-225.01 671.72,-223.5 662.59,-218.14 661.24,-225.01"/>
</g>
<!-- flatiron.core.tools&#45;&gt;flatiron.core.pipeline -->
<g id="edge8" class="edge">
<title>flatiron.core.tools&#45;&gt;flatiron.core.pipeline</title>
<path fill="none" stroke="#b6ecf3" d="M530.12,-207.52C559.54,-224.04 604.75,-248.86 645,-268.51 749.26,-319.42 809.64,-284.45 884,-373.51 953.89,-457.22 1001.86,-804.6 1014.61,-906.38"/>
<polygon fill="#b6ecf3" stroke="#b6ecf3" points="1011.16,-907 1015.86,-916.5 1018.11,-906.14 1011.16,-907"/>
</g>
<!-- flatiron.models.unet -->
<g id="node10" class="node">
<title>flatiron.models.unet</title>
<polygon fill="#343434" stroke="#343434" points="855.5,-418.51 673.5,-418.51 673.5,-382.51 855.5,-382.51 855.5,-418.51"/>
<text text-anchor="middle" x="764.5" y="-396.81" font-family="Courier,monospace" font-size="14.00" fill="#b6ecf3">flatiron.models.unet</text>
</g>
<!-- flatiron.core.tools&#45;&gt;flatiron.models.unet -->
<g id="edge9" class="edge">
<title>flatiron.core.tools&#45;&gt;flatiron.models.unet</title>
<path fill="none" stroke="#b6ecf3" d="M584.19,-205.11C593.29,-209.35 601.82,-214.71 609,-221.51 644.21,-254.86 614.95,-286.45 645,-324.51 662.78,-347.03 689.18,-364.88 712.55,-377.61"/>
<polygon fill="#b6ecf3" stroke="#b6ecf3" points="711.19,-380.85 721.67,-382.4 714.45,-374.65 711.19,-380.85"/>
</g>
<!-- flatiron.core.validators -->
<g id="node9" class="node">
<title>flatiron.core.validators</title>
<polygon fill="#343434" stroke="#343434" points="605,-591.51 390,-591.51 390,-555.51 605,-555.51 605,-591.51"/>
<text text-anchor="middle" x="497.5" y="-569.81" font-family="Courier,monospace" font-size="14.00" fill="#b6ecf3">flatiron.core.validators</text>
</g>
<!-- flatiron.core.validators&#45;&gt;flatiron.core.config -->
<g id="edge10" class="edge">
<title>flatiron.core.validators&#45;&gt;flatiron.core.config</title>
<path fill="none" stroke="#b6ecf3" d="M587.11,-591.57C612.08,-596.66 639.4,-602.22 664.92,-607.42"/>
<polygon fill="#b6ecf3" stroke="#b6ecf3" points="664.48,-610.9 674.97,-609.47 665.87,-604.05 664.48,-610.9"/>
</g>
<!-- flatiron.core.validators&#45;&gt;flatiron.models.unet -->
<g id="edge11" class="edge">
<title>flatiron.core.validators&#45;&gt;flatiron.models.unet</title>
<path fill="none" stroke="#b6ecf3" d="M589.22,-555.49C596.08,-552.89 602.76,-549.91 609,-546.51 665.18,-515.94 716.1,-459.84 743.14,-426.8"/>
<polygon fill="#b6ecf3" stroke="#b6ecf3" points="745.94,-428.9 749.49,-418.92 740.49,-424.51 745.94,-428.9"/>
</g>
<!-- keras.engine.keras_tensor -->
<g id="node11" class="node">
<title>keras.engine.keras_tensor</title>
<polygon fill="#343434" stroke="#343434" points="609,-483.51 386,-483.51 386,-447.51 609,-447.51 609,-483.51"/>
<text text-anchor="middle" x="497.5" y="-461.81" font-family="Courier,monospace" font-size="14.00" fill="#de958e">keras.engine.keras_tensor</text>
</g>
<!-- keras.engine.keras_tensor&#45;&gt;flatiron.models.unet -->
<g id="edge12" class="edge">
<title>keras.engine.keras_tensor&#45;&gt;flatiron.models.unet</title>
<path fill="none" stroke="#de958e" d="M572.5,-447.45C584.7,-444.46 597.2,-441.4 609,-438.51 632.12,-432.84 657.19,-426.68 680.27,-421.01"/>
<polygon fill="#de958e" stroke="#de958e" points="681.15,-424.39 690.02,-418.61 679.48,-417.6 681.15,-424.39"/>
</g>
<!-- flatiron.models -->
<g id="node12" class="node">
<title>flatiron.models</title>
<polygon fill="#343434" stroke="#343434" points="304.5,-354.51 164.5,-354.51 164.5,-318.51 304.5,-318.51 304.5,-354.51"/>
<text text-anchor="middle" x="234.5" y="-332.81" font-family="Courier,monospace" font-size="14.00" fill="#a0d17b">flatiron.models</text>
</g>
<!-- flatiron.models&#45;&gt;flatiron.models.unet -->
<g id="edge13" class="edge">
<title>flatiron.models&#45;&gt;flatiron.models.unet</title>
<path fill="none" stroke="#a0d17b" d="M304.73,-319.18C330.11,-313.64 359.2,-308.24 386,-305.51 484.6,-295.46 513.63,-278.54 609,-305.51 621.91,-309.16 686.07,-350.03 727.55,-376.97"/>
<polygon fill="#a0d17b" stroke="#a0d17b" points="725.73,-379.96 736.02,-382.48 729.55,-374.09 725.73,-379.96"/>
</g>
<!-- flatiron -->
<g id="node13" class="node">
<title>flatiron</title>
<polygon fill="#343434" stroke="#343434" points="83,-522.51 0,-522.51 0,-486.51 83,-486.51 83,-522.51"/>
<text text-anchor="middle" x="41.5" y="-500.81" font-family="Courier,monospace" font-size="14.00" fill="#a0d17b">flatiron</text>
</g>
<!-- flatiron&#45;&gt;flatiron.models -->
<g id="edge14" class="edge">
<title>flatiron&#45;&gt;flatiron.models</title>
<path fill="none" stroke="#a0d17b" d="M74.44,-486.43C77.62,-483.73 80.56,-480.75 83,-477.51 114.92,-435.03 80.06,-399.66 119,-363.51 129,-354.23 141.57,-347.95 154.7,-343.75"/>
<polygon fill="#a0d17b" stroke="#a0d17b" points="155.65,-347.12 164.32,-341.04 153.75,-340.38 155.65,-347.12"/>
</g>
<!-- flatiron.core -->
<g id="node15" class="node">
<title>flatiron.core</title>
<polygon fill="#343434" stroke="#343434" points="296.5,-691.51 172.5,-691.51 172.5,-655.51 296.5,-655.51 296.5,-691.51"/>
<text text-anchor="middle" x="234.5" y="-669.81" font-family="Courier,monospace" font-size="14.00" fill="#a0d17b">flatiron.core</text>
</g>
<!-- flatiron&#45;&gt;flatiron.core -->
<g id="edge15" class="edge">
<title>flatiron&#45;&gt;flatiron.core</title>
<path fill="none" stroke="#a0d17b" d="M54.22,-522.62C68.05,-543.1 92.55,-576.7 119,-600.51 140.41,-619.78 167.46,-637.28 189.89,-650.31"/>
<polygon fill="#a0d17b" stroke="#a0d17b" points="188.46,-653.52 198.88,-655.44 191.92,-647.44 188.46,-653.52"/>
</g>
<!-- schematics.exceptions -->
<g id="node14" class="node">
<title>schematics.exceptions</title>
<polygon fill="#343434" stroke="#343434" points="329.5,-591.51 139.5,-591.51 139.5,-555.51 329.5,-555.51 329.5,-591.51"/>
<text text-anchor="middle" x="234.5" y="-569.81" font-family="Courier,monospace" font-size="14.00" fill="#de958e">schematics.exceptions</text>
</g>
<!-- schematics.exceptions&#45;&gt;flatiron.core.validators -->
<g id="edge16" class="edge">
<title>schematics.exceptions&#45;&gt;flatiron.core.validators</title>
<path fill="none" stroke="#de958e" d="M329.73,-573.51C345.81,-573.51 362.69,-573.51 379.28,-573.51"/>
<polygon fill="#de958e" stroke="#de958e" points="379.56,-577.01 389.56,-573.51 379.56,-570.01 379.56,-577.01"/>
</g>
<!-- flatiron.core&#45;&gt;flatiron.core.config -->
<g id="edge17" class="edge">
<title>flatiron.core&#45;&gt;flatiron.core.config</title>
<path fill="none" stroke="#a0d17b" d="M296.82,-672.69C370.98,-671.16 499.47,-666.82 609,-654.51 626.69,-652.52 645.43,-649.79 663.52,-646.82"/>
<polygon fill="#a0d17b" stroke="#a0d17b" points="664.21,-650.25 673.49,-645.15 663.05,-643.35 664.21,-650.25"/>
</g>
<!-- flatiron.core&#45;&gt;flatiron.core.dataset -->
<g id="edge18" class="edge">
<title>flatiron.core&#45;&gt;flatiron.core.dataset</title>
<path fill="none" stroke="#a0d17b" d="M238.93,-691.55C249.74,-742.73 288.37,-888.85 386,-946.51 498.08,-1012.71 657.34,-931.86 727.71,-888.97"/>
<polygon fill="#a0d17b" stroke="#a0d17b" points="729.58,-891.93 736.24,-883.69 725.9,-885.98 729.58,-891.93"/>
</g>
<!-- flatiron.core&#45;&gt;flatiron.core.logging -->
<g id="edge19" class="edge">
<title>flatiron.core&#45;&gt;flatiron.core.logging</title>
<path fill="none" stroke="#a0d17b" d="M282.02,-655.39C306.26,-643.49 334.09,-625.45 350,-600.51 415.11,-498.45 304.74,-420.25 386,-330.51 454.15,-255.26 572.98,-237.78 659.14,-236.12"/>
<polygon fill="#a0d17b" stroke="#a0d17b" points="659.27,-239.62 669.22,-235.99 659.18,-232.62 659.27,-239.62"/>
</g>
<!-- flatiron.core&#45;&gt;flatiron.core.loss -->
<g id="edge20" class="edge">
<title>flatiron.core&#45;&gt;flatiron.core.loss</title>
<path fill="none" stroke="#a0d17b" d="M235.73,-691.7C237.63,-757.17 253.91,-981.96 386,-1076.51 430.09,-1108.07 574.79,-1103.44 671.68,-1096.21"/>
<polygon fill="#a0d17b" stroke="#a0d17b" points="672.08,-1099.69 681.78,-1095.44 671.55,-1092.71 672.08,-1099.69"/>
</g>
<!-- flatiron.core&#45;&gt;flatiron.core.metric -->
<g id="edge21" class="edge">
<title>flatiron.core&#45;&gt;flatiron.core.metric</title>
<path fill="none" stroke="#a0d17b" d="M237.56,-691.57C247.9,-778.77 297.21,-1154.78 386,-1222.51 464.8,-1282.62 521.62,-1269.28 609,-1222.51 634.43,-1208.9 621.25,-1184.88 645,-1168.51 650.91,-1164.44 657.35,-1160.97 664.06,-1158.02"/>
<polygon fill="#a0d17b" stroke="#a0d17b" points="665.37,-1161.26 673.37,-1154.3 662.78,-1154.76 665.37,-1161.26"/>
</g>
<!-- flatiron.core&#45;&gt;flatiron.core.pipeline -->
<g id="edge22" class="edge">
<title>flatiron.core&#45;&gt;flatiron.core.pipeline</title>
<path fill="none" stroke="#a0d17b" d="M238.05,-691.69C246.81,-746.24 281.12,-908.79 386,-973.51 472.28,-1026.75 762.32,-983.03 917.71,-954.43"/>
<polygon fill="#a0d17b" stroke="#a0d17b" points="918.55,-957.83 927.75,-952.56 917.27,-950.95 918.55,-957.83"/>
</g>
<!-- flatiron.core&#45;&gt;flatiron.core.tools -->
<g id="edge23" class="edge">
<title>flatiron.core&#45;&gt;flatiron.core.tools</title>
<path fill="none" stroke="#a0d17b" d="M282.58,-655.41C306.83,-643.56 334.49,-625.57 350,-600.51 430.2,-470.92 305.61,-388.98 386,-259.51 398.73,-239.01 419.93,-223.46 440.38,-212.3"/>
<polygon fill="#a0d17b" stroke="#a0d17b" points="442.12,-215.34 449.38,-207.62 438.89,-209.13 442.12,-215.34"/>
</g>
<!-- flatiron.core&#45;&gt;flatiron.core.validators -->
<g id="edge24" class="edge">
<title>flatiron.core&#45;&gt;flatiron.core.validators</title>
<path fill="none" stroke="#a0d17b" d="M267.52,-655.51C297.41,-639.31 343.65,-615.76 386,-600.51 391.91,-598.38 398.07,-596.36 404.3,-594.46"/>
<polygon fill="#a0d17b" stroke="#a0d17b" points="405.55,-597.75 414.16,-591.58 403.58,-591.03 405.55,-597.75"/>
</g>
<!-- numpy -->
<g id="node16" class="node">
<title>numpy</title>
<polygon fill="#343434" stroke="#343434" points="526.5,-1067.51 468.5,-1067.51 468.5,-1031.51 526.5,-1031.51 526.5,-1067.51"/>
<text text-anchor="middle" x="497.5" y="-1045.81" font-family="Courier,monospace" font-size="14.00" fill="#de958e">numpy</text>
</g>
<!-- numpy&#45;&gt;flatiron.core.dataset -->
<g id="edge25" class="edge">
<title>numpy&#45;&gt;flatiron.core.dataset</title>
<path fill="none" stroke="#de958e" d="M526.56,-1032.5C549.11,-1018.65 581.45,-998.37 609,-979.51 652.37,-949.83 700.93,-913.46 731.83,-889.91"/>
<polygon fill="#de958e" stroke="#de958e" points="734.24,-892.47 740.06,-883.62 729.99,-886.91 734.24,-892.47"/>
</g>
<!-- numpy&#45;&gt;flatiron.core.loss -->
<g id="edge26" class="edge">
<title>numpy&#45;&gt;flatiron.core.loss</title>
<path fill="none" stroke="#de958e" d="M526.86,-1053.58C561.28,-1058.51 621.04,-1067.08 671.89,-1074.37"/>
<polygon fill="#de958e" stroke="#de958e" points="671.54,-1077.86 681.93,-1075.81 672.53,-1070.93 671.54,-1077.86"/>
</g>
<!-- numpy&#45;&gt;flatiron.core.metric -->
<g id="edge27" class="edge">
<title>numpy&#45;&gt;flatiron.core.metric</title>
<path fill="none" stroke="#de958e" d="M526.76,-1064.02C555.8,-1078.45 602.62,-1100.43 645,-1114.51 651.75,-1116.75 658.77,-1118.87 665.88,-1120.86"/>
<polygon fill="#de958e" stroke="#de958e" points="665.04,-1124.26 675.61,-1123.49 666.87,-1117.5 665.04,-1124.26"/>
</g>
<!-- numpy&#45;&gt;flatiron.core.pipeline -->
<g id="edge28" class="edge">
<title>numpy&#45;&gt;flatiron.core.pipeline</title>
<path fill="none" stroke="#de958e" d="M526.97,-1051.6C592.09,-1055.43 756.13,-1059.7 884,-1017.51 922.76,-1004.72 961.84,-978.67 987.71,-959.14"/>
<polygon fill="#de958e" stroke="#de958e" points="990.16,-961.67 995.95,-952.8 985.89,-956.12 990.16,-961.67"/>
</g>
<!-- keras.engine.functional -->
<g id="node17" class="node">
<title>keras.engine.functional</title>
<polygon fill="#343434" stroke="#343434" points="600.5,-115.51 394.5,-115.51 394.5,-79.51 600.5,-79.51 600.5,-115.51"/>
<text text-anchor="middle" x="497.5" y="-93.81" font-family="Courier,monospace" font-size="14.00" fill="#de958e">keras.engine.functional</text>
</g>
<!-- keras.engine.functional&#45;&gt;flatiron.core.pipeline -->
<g id="edge29" class="edge">
<title>keras.engine.functional&#45;&gt;flatiron.core.pipeline</title>
<path fill="none" stroke="#de958e" d="M600.59,-99.75C689.08,-107.49 813.67,-133.4 884,-214.51 976.69,-321.41 1009.49,-786.59 1016.48,-906.32"/>
<polygon fill="#de958e" stroke="#de958e" points="1013,-906.72 1017.06,-916.51 1019.99,-906.32 1013,-906.72"/>
</g>
<!-- keras.engine.functional&#45;&gt;flatiron.models.unet -->
<g id="edge30" class="edge">
<title>keras.engine.functional&#45;&gt;flatiron.models.unet</title>
<path fill="none" stroke="#de958e" d="M544.65,-115.52C566.81,-126.22 592.14,-141.8 609,-162.51 640.41,-201.1 619.87,-225.57 645,-268.51 669.49,-310.36 708.68,-350.67 735.23,-375.5"/>
<polygon fill="#de958e" stroke="#de958e" points="732.97,-378.17 742.69,-382.38 737.72,-373.03 732.97,-378.17"/>
</g>
<!-- lunchbox.enforce -->
<g id="node18" class="node">
<title>lunchbox.enforce</title>
<polygon fill="#343434" stroke="#343434" points="309,-408.51 160,-408.51 160,-372.51 309,-372.51 309,-408.51"/>
<text text-anchor="middle" x="234.5" y="-386.81" font-family="Courier,monospace" font-size="14.00" fill="#de958e">lunchbox.enforce</text>
</g>
<!-- lunchbox.enforce&#45;&gt;flatiron.core.dataset -->
<g id="edge31" class="edge">
<title>lunchbox.enforce&#45;&gt;flatiron.core.dataset</title>
<path fill="none" stroke="#de958e" d="M252.03,-408.93C276.39,-436.88 322.06,-492.5 350,-546.51 373.25,-591.45 350.34,-618.61 386,-654.51 459.79,-728.8 518.3,-678.18 609,-730.51 661.11,-760.58 711.72,-809.74 740.12,-839.71"/>
<polygon fill="#de958e" stroke="#de958e" points="737.79,-842.35 747.18,-847.25 742.9,-837.56 737.79,-842.35"/>
</g>
<!-- lunchbox.enforce&#45;&gt;flatiron.core.tools -->
<g id="edge32" class="edge">
<title>lunchbox.enforce&#45;&gt;flatiron.core.tools</title>
<path fill="none" stroke="#de958e" d="M309.23,-384.5C324.1,-380.35 338.63,-373.78 350,-363.51 386.3,-330.73 355.64,-297.86 386,-259.51 401.66,-239.74 424.53,-223.94 445.4,-212.4"/>
<polygon fill="#de958e" stroke="#de958e" points="447.33,-215.34 454.51,-207.56 444.04,-209.16 447.33,-215.34"/>
</g>
<!-- lunchbox.enforce&#45;&gt;flatiron.models.unet -->
<g id="edge33" class="edge">
<title>lunchbox.enforce&#45;&gt;flatiron.models.unet</title>
<path fill="none" stroke="#de958e" d="M309.29,-378.97C323.28,-375.18 337.45,-370.15 350,-363.51 369.18,-353.36 365.77,-338.38 386,-330.51 478.37,-294.58 512.12,-309.59 609,-330.51 650.61,-339.5 694.48,-360.65 724.8,-377.37"/>
<polygon fill="#de958e" stroke="#de958e" points="723.33,-380.55 733.76,-382.4 726.75,-374.45 723.33,-380.55"/>
</g>
<!-- schematics -->
<g id="node19" class="node">
<title>schematics</title>
<polygon fill="#343434" stroke="#343434" points="547,-537.51 448,-537.51 448,-501.51 547,-501.51 547,-537.51"/>
<text text-anchor="middle" x="497.5" y="-515.81" font-family="Courier,monospace" font-size="14.00" fill="#de958e">schematics</text>
</g>
<!-- schematics&#45;&gt;flatiron.core.config -->
<g id="edge34" class="edge">
<title>schematics&#45;&gt;flatiron.core.config</title>
<path fill="none" stroke="#de958e" d="M547.14,-528.71C566.69,-533.1 589.23,-539.04 609,-546.51 650.51,-562.2 695.12,-586.47 725.68,-604.35"/>
<polygon fill="#de958e" stroke="#de958e" points="723.92,-607.37 734.31,-609.45 727.48,-601.35 723.92,-607.37"/>
</g>
<!-- schematics&#45;&gt;flatiron.models.unet -->
<g id="edge35" class="edge">
<title>schematics&#45;&gt;flatiron.models.unet</title>
<path fill="none" stroke="#de958e" d="M547.07,-510.91C566.72,-506.6 589.35,-500.55 609,-492.51 653.18,-474.44 699.7,-445.13 730.01,-424.46"/>
<polygon fill="#de958e" stroke="#de958e" points="732.24,-427.17 738.49,-418.61 728.27,-421.41 732.24,-427.17"/>
</g>
<!-- lunchbox.stopwatch -->
<g id="node20" class="node">
<title>lunchbox.stopwatch</title>
<polygon fill="#343434" stroke="#343434" points="317,-300.51 152,-300.51 152,-264.51 317,-264.51 317,-300.51"/>
<text text-anchor="middle" x="234.5" y="-278.81" font-family="Courier,monospace" font-size="14.00" fill="#de958e">lunchbox.stopwatch</text>
</g>
<!-- lunchbox.stopwatch&#45;&gt;flatiron.core.tools -->
<g id="edge36" class="edge">
<title>lunchbox.stopwatch&#45;&gt;flatiron.core.tools</title>
<path fill="none" stroke="#de958e" d="M317.22,-268.85C328.59,-265.36 339.84,-260.98 350,-255.51 369.37,-245.07 366.89,-232.43 386,-221.51 392.77,-217.64 400.04,-214.21 407.5,-211.17"/>
<polygon fill="#de958e" stroke="#de958e" points="408.95,-214.37 417.04,-207.53 406.45,-207.83 408.95,-214.37"/>
</g>
<!-- schematics.types -->
<g id="node21" class="node">
<title>schematics.types</title>
<polygon fill="#343434" stroke="#343434" points="572,-645.51 423,-645.51 423,-609.51 572,-609.51 572,-645.51"/>
<text text-anchor="middle" x="497.5" y="-623.81" font-family="Courier,monospace" font-size="14.00" fill="#de958e">schematics.types</text>
</g>
<!-- schematics.types&#45;&gt;flatiron.core.config -->
<g id="edge37" class="edge">
<title>schematics.types&#45;&gt;flatiron.core.config</title>
<path fill="none" stroke="#de958e" d="M572.32,-627.51C600.39,-627.51 632.86,-627.51 662.98,-627.51"/>
<polygon fill="#de958e" stroke="#de958e" points="663.1,-631.01 673.1,-627.51 663.1,-624.01 663.1,-631.01"/>
</g>
<!-- schematics.types&#45;&gt;flatiron.models.unet -->
<g id="edge38" class="edge">
<title>schematics.types&#45;&gt;flatiron.models.unet</title>
<path fill="none" stroke="#de958e" d="M572.11,-616.88C585.05,-613.01 597.91,-607.72 609,-600.51 677.06,-556.27 727.44,-471.52 750.15,-427.92"/>
<polygon fill="#de958e" stroke="#de958e" points="753.39,-429.26 754.82,-418.76 747.16,-426.08 753.39,-429.26"/>
</g>
<!-- lunchbox.tools -->
<g id="node22" class="node">
<title>lunchbox.tools</title>
<polygon fill="#343434" stroke="#343434" points="300.5,-138.51 168.5,-138.51 168.5,-102.51 300.5,-102.51 300.5,-138.51"/>
<text text-anchor="middle" x="234.5" y="-116.81" font-family="Courier,monospace" font-size="14.00" fill="#de958e">lunchbox.tools</text>
</g>
<!-- lunchbox.tools&#45;&gt;flatiron.core.logging -->
<g id="edge39" class="edge">
<title>lunchbox.tools&#45;&gt;flatiron.core.logging</title>
<path fill="none" stroke="#de958e" d="M300.69,-120.8C376.36,-122.73 504.18,-130.97 609,-162.51 651.8,-175.39 696.88,-199.87 727.22,-218.19"/>
<polygon fill="#de958e" stroke="#de958e" points="725.41,-221.18 735.76,-223.41 729.06,-215.21 725.41,-221.18"/>
</g>
<!-- lunchbox.tools&#45;&gt;flatiron.core.tools -->
<g id="edge40" class="edge">
<title>lunchbox.tools&#45;&gt;flatiron.core.tools</title>
<path fill="none" stroke="#de958e" d="M300.73,-135.32C316.87,-139.15 334.09,-143.36 350,-147.51 357.78,-149.54 391.17,-159.11 424.12,-168.6"/>
<polygon fill="#de958e" stroke="#de958e" points="423.26,-171.99 433.84,-171.4 425.2,-165.26 423.26,-171.99"/>
</g>
<!-- humanfriendly -->
<g id="node23" class="node">
<title>humanfriendly</title>
<polygon fill="#343434" stroke="#343434" points="559.5,-883.51 435.5,-883.51 435.5,-847.51 559.5,-847.51 559.5,-883.51"/>
<text text-anchor="middle" x="497.5" y="-861.81" font-family="Courier,monospace" font-size="14.00" fill="#de958e">humanfriendly</text>
</g>
<!-- humanfriendly&#45;&gt;flatiron.core.dataset -->
<g id="edge41" class="edge">
<title>humanfriendly&#45;&gt;flatiron.core.dataset</title>
<path fill="none" stroke="#de958e" d="M559.63,-865.51C589.13,-865.51 625.37,-865.51 659.07,-865.51"/>
<polygon fill="#de958e" stroke="#de958e" points="659.43,-869.01 669.43,-865.51 659.43,-862.01 659.43,-869.01"/>
</g>
<!-- pytz -->
<g id="node24" class="node">
<title>pytz</title>
<polygon fill="#343434" stroke="#343434" points="261.5,-246.51 207.5,-246.51 207.5,-210.51 261.5,-210.51 261.5,-246.51"/>
<text text-anchor="middle" x="234.5" y="-224.81" font-family="Courier,monospace" font-size="14.00" fill="#de958e">pytz</text>
</g>
<!-- pytz&#45;&gt;flatiron.core.tools -->
<g id="edge42" class="edge">
<title>pytz&#45;&gt;flatiron.core.tools</title>
<path fill="none" stroke="#de958e" d="M261.96,-224.56C294.4,-219.71 351.16,-211.23 400.71,-203.82"/>
<polygon fill="#de958e" stroke="#de958e" points="401.47,-207.25 410.84,-202.31 400.44,-200.33 401.47,-207.25"/>
</g>
<!-- tensorflow -->
<g id="node25" class="node">
<title>tensorflow</title>
<polygon fill="#343434" stroke="#343434" points="547,-1159.51 448,-1159.51 448,-1123.51 547,-1123.51 547,-1159.51"/>
<text text-anchor="middle" x="497.5" y="-1137.81" font-family="Courier,monospace" font-size="14.00" fill="#de958e">tensorflow</text>
</g>
<!-- tensorflow&#45;&gt;flatiron.core.loss -->
<g id="edge43" class="edge">
<title>tensorflow&#45;&gt;flatiron.core.loss</title>
<path fill="none" stroke="#de958e" d="M547.11,-1131.61C581.96,-1124.5 629.98,-1114.72 671.93,-1106.17"/>
<polygon fill="#de958e" stroke="#de958e" points="672.8,-1109.57 681.9,-1104.14 671.4,-1102.71 672.8,-1109.57"/>
</g>
<!-- tensorflow&#45;&gt;flatiron.core.metric -->
<g id="edge44" class="edge">
<title>tensorflow&#45;&gt;flatiron.core.metric</title>
<path fill="none" stroke="#de958e" d="M547.11,-1141.51C579.61,-1141.51 623.57,-1141.51 663.37,-1141.51"/>
<polygon fill="#de958e" stroke="#de958e" points="663.39,-1145.01 673.39,-1141.51 663.39,-1138.01 663.39,-1145.01"/>
</g>
<!-- tensorflow.keras.callbacks -->
<g id="node26" class="node">
<title>tensorflow.keras.callbacks</title>
<polygon fill="#343434" stroke="#343434" points="350,-192.51 119,-192.51 119,-156.51 350,-156.51 350,-192.51"/>
<text text-anchor="middle" x="234.5" y="-170.81" font-family="Courier,monospace" font-size="14.00" fill="#de958e">tensorflow.keras.callbacks</text>
</g>
<!-- tensorflow.keras.callbacks&#45;&gt;flatiron.core.tools -->
<g id="edge45" class="edge">
<title>tensorflow.keras.callbacks&#45;&gt;flatiron.core.tools</title>
<path fill="none" stroke="#de958e" d="M350.36,-181.11C367.12,-182.08 384.23,-183.06 400.56,-184"/>
<polygon fill="#de958e" stroke="#de958e" points="400.44,-187.5 410.62,-184.58 400.84,-180.51 400.44,-187.5"/>
</g>
<!-- yaml -->
<g id="node27" class="node">
<title>yaml</title>
<polygon fill="#343434" stroke="#343434" points="261.5,-77.51 207.5,-77.51 207.5,-41.51 261.5,-41.51 261.5,-77.51"/>
<text text-anchor="middle" x="234.5" y="-55.81" font-family="Courier,monospace" font-size="14.00" fill="#de958e">yaml</text>
</g>
<!-- yaml&#45;&gt;flatiron.core.pipeline -->
<g id="edge46" class="edge">
<title>yaml&#45;&gt;flatiron.core.pipeline</title>
<path fill="none" stroke="#de958e" d="M261.69,-51C359.31,-21.07 705.62,68.64 884,-101.51 1003.33,-215.33 1016.41,-773.37 1017.83,-906.13"/>
<polygon fill="#de958e" stroke="#de958e" points="1014.33,-906.33 1017.92,-916.3 1021.33,-906.27 1014.33,-906.33"/>
</g>
<!-- yaml&#45;&gt;flatiron.core.tools -->
<g id="edge47" class="edge">
<title>yaml&#45;&gt;flatiron.core.tools</title>
<path fill="none" stroke="#de958e" d="M261.73,-64.02C285.77,-68.89 321.79,-78.11 350,-93.51 368.53,-103.63 368.83,-112.22 386,-124.51 407.28,-139.75 432.33,-154.7 453.19,-166.42"/>
<polygon fill="#de958e" stroke="#de958e" points="451.71,-169.6 462.15,-171.4 455.11,-163.48 451.71,-169.6"/>
</g>
<!-- tensorflow.keras.backend -->
<g id="node28" class="node">
<title>tensorflow.keras.backend</title>
<polygon fill="#343434" stroke="#343434" points="605,-1213.51 390,-1213.51 390,-1177.51 605,-1177.51 605,-1213.51"/>
<text text-anchor="middle" x="497.5" y="-1191.81" font-family="Courier,monospace" font-size="14.00" fill="#de958e">tensorflow.keras.backend</text>
</g>
<!-- tensorflow.keras.backend&#45;&gt;flatiron.core.loss -->
<g id="edge48" class="edge">
<title>tensorflow.keras.backend&#45;&gt;flatiron.core.loss</title>
<path fill="none" stroke="#de958e" d="M593.46,-1177.49C598.92,-1174.88 604.15,-1171.91 609,-1168.51 632.62,-1151.96 621.25,-1130.88 645,-1114.51 653.27,-1108.81 662.57,-1104.29 672.22,-1100.72"/>
<polygon fill="#de958e" stroke="#de958e" points="673.6,-1103.95 681.97,-1097.45 671.38,-1097.31 673.6,-1103.95"/>
</g>
<!-- tensorflow.keras.backend&#45;&gt;flatiron.core.metric -->
<g id="edge49" class="edge">
<title>tensorflow.keras.backend&#45;&gt;flatiron.core.metric</title>
<path fill="none" stroke="#de958e" d="M587.11,-1177.45C612.08,-1172.37 639.4,-1166.8 664.92,-1161.6"/>
<polygon fill="#de958e" stroke="#de958e" points="665.87,-1164.98 674.97,-1159.55 664.48,-1158.12 665.87,-1164.98"/>
</g>
<!-- pandas -->
<g id="node29" class="node">
<title>pandas</title>
<polygon fill="#343434" stroke="#343434" points="530.5,-829.51 464.5,-829.51 464.5,-793.51 530.5,-793.51 530.5,-829.51"/>
<text text-anchor="middle" x="497.5" y="-807.81" font-family="Courier,monospace" font-size="14.00" fill="#de958e">pandas</text>
</g>
<!-- pandas&#45;&gt;flatiron.core.dataset -->
<g id="edge50" class="edge">
<title>pandas&#45;&gt;flatiron.core.dataset</title>
<path fill="none" stroke="#de958e" d="M530.73,-818.08C564.02,-824.86 617.64,-835.79 665.03,-845.45"/>
<polygon fill="#de958e" stroke="#de958e" points="664.54,-848.92 675.04,-847.49 665.94,-842.06 664.54,-848.92"/>
</g>
<!-- sklearn.model_selection -->
<g id="node30" class="node">
<title>sklearn.model_selection</title>
<polygon fill="#343434" stroke="#343434" points="600.5,-775.51 394.5,-775.51 394.5,-739.51 600.5,-739.51 600.5,-775.51"/>
<text text-anchor="middle" x="497.5" y="-753.81" font-family="Courier,monospace" font-size="14.00" fill="#de958e">sklearn.model_selection</text>
</g>
<!-- sklearn.model_selection&#45;&gt;flatiron.core.dataset -->
<g id="edge51" class="edge">
<title>sklearn.model_selection&#45;&gt;flatiron.core.dataset</title>
<path fill="none" stroke="#de958e" d="M581.83,-775.56C591.1,-778.24 600.32,-781.23 609,-784.51 650.51,-800.2 695.12,-824.47 725.68,-842.35"/>
<polygon fill="#de958e" stroke="#de958e" points="723.92,-845.37 734.31,-847.45 727.48,-839.35 723.92,-845.37"/>
</g>
<!-- tqdm.notebook -->
<g id="node31" class="node">
<title>tqdm.notebook</title>
<polygon fill="#343434" stroke="#343434" points="559.5,-937.51 435.5,-937.51 435.5,-901.51 559.5,-901.51 559.5,-937.51"/>
<text text-anchor="middle" x="497.5" y="-915.81" font-family="Courier,monospace" font-size="14.00" fill="#de958e">tqdm.notebook</text>
</g>
<!-- tqdm.notebook&#45;&gt;flatiron.core.dataset -->
<g id="edge52" class="edge">
<title>tqdm.notebook&#45;&gt;flatiron.core.dataset</title>
<path fill="none" stroke="#de958e" d="M559.63,-907.05C590.93,-900.68 629.79,-892.76 665.17,-885.55"/>
<polygon fill="#de958e" stroke="#de958e" points="665.95,-888.96 675.05,-883.53 664.55,-882.1 665.95,-888.96"/>
</g>
<!-- tensorflow.keras.layers -->
<g id="node32" class="node">
<title>tensorflow.keras.layers</title>
<polygon fill="#343434" stroke="#343434" points="600.5,-375.51 394.5,-375.51 394.5,-339.51 600.5,-339.51 600.5,-375.51"/>
<text text-anchor="middle" x="497.5" y="-353.81" font-family="Courier,monospace" font-size="14.00" fill="#de958e">tensorflow.keras.layers</text>
</g>
<!-- tensorflow.keras.layers&#45;&gt;flatiron.models.unet -->
<g id="edge53" class="edge">
<title>tensorflow.keras.layers&#45;&gt;flatiron.models.unet</title>
<path fill="none" stroke="#de958e" d="M600.58,-374.07C621.13,-377.41 642.71,-380.91 663.2,-384.24"/>
<polygon fill="#de958e" stroke="#de958e" points="662.72,-387.7 673.16,-385.85 663.85,-380.8 662.72,-387.7"/>
</g>
<!-- tensorflow.keras.models -->
<g id="node33" class="node">
<title>tensorflow.keras.models</title>
<polygon fill="#343434" stroke="#343434" points="600.5,-429.51 394.5,-429.51 394.5,-393.51 600.5,-393.51 600.5,-429.51"/>
<text text-anchor="middle" x="497.5" y="-407.81" font-family="Courier,monospace" font-size="14.00" fill="#de958e">tensorflow.keras.models</text>
</g>
<!-- tensorflow.keras.models&#45;&gt;flatiron.models.unet -->
<g id="edge54" class="edge">
<title>tensorflow.keras.models&#45;&gt;flatiron.models.unet</title>
<path fill="none" stroke="#de958e" d="M600.58,-407.27C621.03,-406.42 642.51,-405.53 662.92,-404.69"/>
<polygon fill="#de958e" stroke="#de958e" points="663.31,-408.17 673.16,-404.26 663.02,-401.18 663.31,-408.17"/>
</g>
<!-- schematics.models -->
<g id="node34" class="node">
<title>schematics.models</title>
<polygon fill="#343434" stroke="#343434" points="843,-1267.51 686,-1267.51 686,-1231.51 843,-1231.51 843,-1267.51"/>
<text text-anchor="middle" x="764.5" y="-1245.81" font-family="Courier,monospace" font-size="14.00" fill="#de958e">schematics.models</text>
</g>
<!-- schematics.models&#45;&gt;flatiron.core.pipeline -->
<g id="edge55" class="edge">
<title>schematics.models&#45;&gt;flatiron.core.pipeline</title>
<path fill="none" stroke="#de958e" d="M843.15,-1242.43C857.84,-1238.29 872.27,-1231.99 884,-1222.51 968.39,-1154.31 1002.22,-1020.82 1013.35,-962.69"/>
<polygon fill="#de958e" stroke="#de958e" points="1016.81,-963.21 1015.17,-952.74 1009.93,-961.95 1016.81,-963.21"/>
</g>
<!-- tensorflow.keras.optimizers -->
<g id="node35" class="node">
<title>tensorflow.keras.optimizers</title>
<polygon fill="#343434" stroke="#343434" points="884,-1213.51 645,-1213.51 645,-1177.51 884,-1177.51 884,-1213.51"/>
<text text-anchor="middle" x="764.5" y="-1191.81" font-family="Courier,monospace" font-size="14.00" fill="#de958e">tensorflow.keras.optimizers</text>
</g>
<!-- tensorflow.keras.optimizers&#45;&gt;flatiron.core.pipeline -->
<g id="edge56" class="edge">
<title>tensorflow.keras.optimizers&#45;&gt;flatiron.core.pipeline</title>
<path fill="none" stroke="#de958e" d="M869.33,-1177.49C874.49,-1174.88 879.42,-1171.9 884,-1168.51 955.65,-1115.45 994.86,-1011.83 1010.24,-962.24"/>
<polygon fill="#de958e" stroke="#de958e" points="1013.63,-963.1 1013.16,-952.52 1006.93,-961.09 1013.63,-963.1"/>
</g>
</g>
</svg>
