<?xml version="1.0" encoding="UTF-8" standalone="no"?>
<!DOCTYPE svg PUBLIC "-//W3C//DTD SVG 1.1//EN"
 "http://www.w3.org/Graphics/SVG/1.1/DTD/svg11.dtd">
<!-- Generated by graphviz version 2.43.0 (0)
 -->
<!-- Title: %3 Pages: 1 -->
<svg width="1361pt" height="1118pt"
 viewBox="0.00 0.00 1361.00 1118.00" xmlns="http://www.w3.org/2000/svg" xmlns:xlink="http://www.w3.org/1999/xlink">
<g id="graph0" class="graph" transform="scale(1 1) rotate(0) translate(4 1114)">
<title>%3</title>
<polygon fill="#242424" stroke="transparent" points="-4,4 -4,-1114 1357,-1114 1357,4 -4,4"/>
<!-- cli -->
<g id="node1" class="node">
<title>cli</title>
<polygon fill="#343434" stroke="#343434" points="68.5,-753 14.5,-753 14.5,-717 68.5,-717 68.5,-753"/>
<text text-anchor="middle" x="41.5" y="-731.3" font-family="Courier,monospace" font-size="14.00" fill="#b6ecf3">cli</text>
</g>
<!-- flatiron.command -->
<g id="node2" class="node">
<title>flatiron.command</title>
<polygon fill="#343434" stroke="#343434" points="309,-1039 160,-1039 160,-1003 309,-1003 309,-1039"/>
<text text-anchor="middle" x="234.5" y="-1017.3" font-family="Courier,monospace" font-size="14.00" fill="#b6ecf3">flatiron.command</text>
</g>
<!-- flatiron.core.config -->
<g id="node3" class="node">
<title>flatiron.core.config</title>
<polygon fill="#343434" stroke="#343434" points="847.5,-1010 665.5,-1010 665.5,-974 847.5,-974 847.5,-1010"/>
<text text-anchor="middle" x="756.5" y="-988.3" font-family="Courier,monospace" font-size="14.00" fill="#b6ecf3">flatiron.core.config</text>
</g>
<!-- flatiron.core.pipeline -->
<g id="node8" class="node">
<title>flatiron.core.pipeline</title>
<polygon fill="#343434" stroke="#343434" points="1122.5,-634 924.5,-634 924.5,-598 1122.5,-598 1122.5,-634"/>
<text text-anchor="middle" x="1023.5" y="-612.3" font-family="Courier,monospace" font-size="14.00" fill="#b6ecf3">flatiron.core.pipeline</text>
</g>
<!-- flatiron.core.config&#45;&gt;flatiron.core.pipeline -->
<g id="edge1" class="edge">
<title>flatiron.core.config&#45;&gt;flatiron.core.pipeline</title>
<path fill="none" stroke="#b6ecf3" d="M795.22,-973.96C820.6,-960.31 853.44,-939.58 876,-914 950.67,-829.34 996.82,-699.84 1014.4,-643.63"/>
<polygon fill="#b6ecf3" stroke="#b6ecf3" points="1017.76,-644.6 1017.35,-634.02 1011.07,-642.55 1017.76,-644.6"/>
</g>
<!-- flatiron.core.dataset -->
<g id="node4" class="node">
<title>flatiron.core.dataset</title>
<polygon fill="#343434" stroke="#343434" points="851.5,-458 661.5,-458 661.5,-422 851.5,-422 851.5,-458"/>
<text text-anchor="middle" x="756.5" y="-436.3" font-family="Courier,monospace" font-size="14.00" fill="#b6ecf3">flatiron.core.dataset</text>
</g>
<!-- flatiron.core.dataset&#45;&gt;flatiron.core.pipeline -->
<g id="edge2" class="edge">
<title>flatiron.core.dataset&#45;&gt;flatiron.core.pipeline</title>
<path fill="none" stroke="#b6ecf3" d="M796.68,-458.05C821.14,-470.48 852.34,-488.6 876,-510 896.04,-528.13 891.45,-541.45 912,-559 928.22,-572.85 948.38,-584.5 967.02,-593.58"/>
<polygon fill="#b6ecf3" stroke="#b6ecf3" points="965.78,-596.87 976.32,-597.97 968.77,-590.54 965.78,-596.87"/>
</g>
<!-- flatiron.core.logging -->
<g id="node5" class="node">
<title>flatiron.core.logging</title>
<polygon fill="#343434" stroke="#343434" points="851.5,-588 661.5,-588 661.5,-552 851.5,-552 851.5,-588"/>
<text text-anchor="middle" x="756.5" y="-566.3" font-family="Courier,monospace" font-size="14.00" fill="#b6ecf3">flatiron.core.logging</text>
</g>
<!-- flatiron.core.logging&#45;&gt;flatiron.core.pipeline -->
<g id="edge3" class="edge">
<title>flatiron.core.logging&#45;&gt;flatiron.core.pipeline</title>
<path fill="none" stroke="#b6ecf3" d="M851.68,-586.35C871.87,-589.85 893.37,-593.59 914.06,-597.18"/>
<polygon fill="#b6ecf3" stroke="#b6ecf3" points="913.7,-600.67 924.15,-598.93 914.89,-593.77 913.7,-600.67"/>
</g>
<!-- flatiron.core.loss -->
<g id="node6" class="node">
<title>flatiron.core.loss</title>
<polygon fill="#343434" stroke="#343434" points="839,-680 674,-680 674,-644 839,-644 839,-680"/>
<text text-anchor="middle" x="756.5" y="-658.3" font-family="Courier,monospace" font-size="14.00" fill="#b6ecf3">flatiron.core.loss</text>
</g>
<!-- flatiron.core.loss&#45;&gt;flatiron.core.pipeline -->
<g id="edge4" class="edge">
<title>flatiron.core.loss&#45;&gt;flatiron.core.pipeline</title>
<path fill="none" stroke="#b6ecf3" d="M839.17,-647.82C862.93,-643.7 889.27,-639.13 914.39,-634.77"/>
<polygon fill="#b6ecf3" stroke="#b6ecf3" points="915.07,-638.2 924.32,-633.04 913.87,-631.3 915.07,-638.2"/>
</g>
<!-- flatiron.core.metric -->
<g id="node7" class="node">
<title>flatiron.core.metric</title>
<polygon fill="#343434" stroke="#343434" points="847.5,-842 665.5,-842 665.5,-806 847.5,-806 847.5,-842"/>
<text text-anchor="middle" x="756.5" y="-820.3" font-family="Courier,monospace" font-size="14.00" fill="#b6ecf3">flatiron.core.metric</text>
</g>
<!-- flatiron.core.metric&#45;&gt;flatiron.core.pipeline -->
<g id="edge5" class="edge">
<title>flatiron.core.metric&#45;&gt;flatiron.core.pipeline</title>
<path fill="none" stroke="#b6ecf3" d="M847.73,-810.21C857.67,-806.74 867.31,-802.41 876,-797 938.26,-758.21 985.86,-683.47 1008.31,-643.24"/>
<polygon fill="#b6ecf3" stroke="#b6ecf3" points="1011.49,-644.72 1013.21,-634.26 1005.34,-641.36 1011.49,-644.72"/>
</g>
<!-- flatiron.models.unet -->
<g id="node11" class="node">
<title>flatiron.models.unet</title>
<polygon fill="#343434" stroke="#343434" points="1353,-504 1171,-504 1171,-468 1353,-468 1353,-504"/>
<text text-anchor="middle" x="1262" y="-482.3" font-family="Courier,monospace" font-size="14.00" fill="#b6ecf3">flatiron.models.unet</text>
</g>
<!-- flatiron.core.pipeline&#45;&gt;flatiron.models.unet -->
<g id="edge6" class="edge">
<title>flatiron.core.pipeline&#45;&gt;flatiron.models.unet</title>
<path fill="none" stroke="#b6ecf3" d="M1060.56,-597.96C1082.27,-586.96 1110.38,-572.47 1135,-559 1164.43,-542.9 1197.21,-523.87 1221.95,-509.28"/>
<polygon fill="#b6ecf3" stroke="#b6ecf3" points="1223.86,-512.22 1230.68,-504.12 1220.29,-506.2 1223.86,-512.22"/>
</g>
<!-- flatiron.core.tools -->
<g id="node9" class="node">
<title>flatiron.core.tools</title>
<polygon fill="#343434" stroke="#343434" points="580,-520 407,-520 407,-484 580,-484 580,-520"/>
<text text-anchor="middle" x="493.5" y="-498.3" font-family="Courier,monospace" font-size="14.00" fill="#b6ecf3">flatiron.core.tools</text>
</g>
<!-- flatiron.core.tools&#45;&gt;flatiron.core.dataset -->
<g id="edge7" class="edge">
<title>flatiron.core.tools&#45;&gt;flatiron.core.dataset</title>
<path fill="none" stroke="#b6ecf3" d="M570.34,-483.98C601.44,-476.6 637.6,-468.01 669.66,-460.39"/>
<polygon fill="#b6ecf3" stroke="#b6ecf3" points="670.55,-463.78 679.47,-458.06 668.93,-456.97 670.55,-463.78"/>
</g>
<!-- flatiron.core.tools&#45;&gt;flatiron.core.logging -->
<g id="edge8" class="edge">
<title>flatiron.core.tools&#45;&gt;flatiron.core.logging</title>
<path fill="none" stroke="#b6ecf3" d="M563.76,-520.04C598.41,-529.07 640.5,-540.04 676.42,-549.4"/>
<polygon fill="#b6ecf3" stroke="#b6ecf3" points="675.81,-552.86 686.37,-551.99 677.58,-546.08 675.81,-552.86"/>
</g>
<!-- flatiron.core.tools&#45;&gt;flatiron.core.pipeline -->
<g id="edge9" class="edge">
<title>flatiron.core.tools&#45;&gt;flatiron.core.pipeline</title>
<path fill="none" stroke="#b6ecf3" d="M580.28,-502.59C658.72,-505.15 777.22,-514.1 876,-543 886.73,-546.14 939.64,-573.01 978.81,-593.25"/>
<polygon fill="#b6ecf3" stroke="#b6ecf3" points="977.44,-596.48 987.93,-597.97 980.66,-590.26 977.44,-596.48"/>
</g>
<!-- flatiron.core.tools&#45;&gt;flatiron.models.unet -->
<g id="edge10" class="edge">
<title>flatiron.core.tools&#45;&gt;flatiron.models.unet</title>
<path fill="none" stroke="#b6ecf3" d="M580.2,-500.21C722.92,-497.23 1008.62,-491.27 1160.57,-488.1"/>
<polygon fill="#b6ecf3" stroke="#b6ecf3" points="1160.9,-491.59 1170.83,-487.88 1160.76,-484.59 1160.9,-491.59"/>
</g>
<!-- flatiron.core.validators -->
<g id="node10" class="node">
<title>flatiron.core.validators</title>
<polygon fill="#343434" stroke="#343434" points="601,-1110 386,-1110 386,-1074 601,-1074 601,-1110"/>
<text text-anchor="middle" x="493.5" y="-1088.3" font-family="Courier,monospace" font-size="14.00" fill="#b6ecf3">flatiron.core.validators</text>
</g>
<!-- flatiron.core.validators&#45;&gt;flatiron.core.config -->
<g id="edge11" class="edge">
<title>flatiron.core.validators&#45;&gt;flatiron.core.config</title>
<path fill="none" stroke="#b6ecf3" d="M572.96,-1073.95C582.49,-1071.22 592.02,-1068.22 601,-1065 640.09,-1050.96 682.64,-1030.44 713.17,-1014.73"/>
<polygon fill="#b6ecf3" stroke="#b6ecf3" points="714.98,-1017.73 722.24,-1010.02 711.75,-1011.52 714.98,-1017.73"/>
</g>
<!-- flatiron.core.validators&#45;&gt;flatiron.models.unet -->
<g id="edge12" class="edge">
<title>flatiron.core.validators&#45;&gt;flatiron.models.unet</title>
<path fill="none" stroke="#b6ecf3" d="M601.17,-1095.93C747.11,-1094.87 1005.6,-1068.73 1135,-909 1234.1,-786.67 1255.29,-588.24 1259.79,-514.65"/>
<polygon fill="#b6ecf3" stroke="#b6ecf3" points="1263.31,-514.51 1260.36,-504.33 1256.32,-514.13 1263.31,-514.51"/>
</g>
<!-- click -->
<g id="node12" class="node">
<title>click</title>
<polygon fill="#343434" stroke="#343434" points="70.5,-1039 12.5,-1039 12.5,-1003 70.5,-1003 70.5,-1039"/>
<text text-anchor="middle" x="41.5" y="-1017.3" font-family="Courier,monospace" font-size="14.00" fill="#de958e">click</text>
</g>
<!-- click&#45;&gt;flatiron.command -->
<g id="edge13" class="edge">
<title>click&#45;&gt;flatiron.command</title>
<path fill="none" stroke="#de958e" d="M70.68,-1021C91.57,-1021 121.2,-1021 149.47,-1021"/>
<polygon fill="#de958e" stroke="#de958e" points="149.8,-1024.5 159.8,-1021 149.8,-1017.5 149.8,-1024.5"/>
</g>
<!-- flatiron -->
<g id="node13" class="node">
<title>flatiron</title>
<polygon fill="#343434" stroke="#343434" points="83,-807 0,-807 0,-771 83,-771 83,-807"/>
<text text-anchor="middle" x="41.5" y="-785.3" font-family="Courier,monospace" font-size="14.00" fill="#a0d17b">flatiron</text>
</g>
<!-- flatiron&#45;&gt;flatiron.command -->
<g id="edge14" class="edge">
<title>flatiron&#45;&gt;flatiron.command</title>
<path fill="none" stroke="#a0d17b" d="M43.73,-807.22C47.45,-847.38 62.15,-943.88 119,-994 127.98,-1001.91 138.84,-1007.62 150.26,-1011.71"/>
<polygon fill="#a0d17b" stroke="#a0d17b" points="149.37,-1015.1 159.96,-1014.79 151.48,-1008.43 149.37,-1015.1"/>
</g>
<!-- flatiron.core -->
<g id="node14" class="node">
<title>flatiron.core</title>
<polygon fill="#343434" stroke="#343434" points="296.5,-807 172.5,-807 172.5,-771 296.5,-771 296.5,-807"/>
<text text-anchor="middle" x="234.5" y="-785.3" font-family="Courier,monospace" font-size="14.00" fill="#a0d17b">flatiron.core</text>
</g>
<!-- flatiron&#45;&gt;flatiron.core -->
<g id="edge15" class="edge">
<title>flatiron&#45;&gt;flatiron.core</title>
<path fill="none" stroke="#a0d17b" d="M83.01,-789C106.02,-789 135.49,-789 162.25,-789"/>
<polygon fill="#a0d17b" stroke="#a0d17b" points="162.35,-792.5 172.35,-789 162.35,-785.5 162.35,-792.5"/>
</g>
<!-- flatiron.models -->
<g id="node16" class="node">
<title>flatiron.models</title>
<polygon fill="#343434" stroke="#343434" points="1093.5,-144 953.5,-144 953.5,-108 1093.5,-108 1093.5,-144"/>
<text text-anchor="middle" x="1023.5" y="-122.3" font-family="Courier,monospace" font-size="14.00" fill="#a0d17b">flatiron.models</text>
</g>
<!-- flatiron&#45;&gt;flatiron.models -->
<g id="edge16" class="edge">
<title>flatiron&#45;&gt;flatiron.models</title>
<path fill="none" stroke="#a0d17b" d="M76.01,-770.75C78.73,-768.14 81.15,-765.22 83,-762 115.58,-705.36 72.63,-221.04 119,-175 233.36,-61.45 744.8,-98.44 943.35,-117.6"/>
<polygon fill="#a0d17b" stroke="#a0d17b" points="943.12,-121.1 953.42,-118.58 943.8,-114.13 943.12,-121.1"/>
</g>
<!-- flatiron.core&#45;&gt;flatiron.core.config -->
<g id="edge17" class="edge">
<title>flatiron.core&#45;&gt;flatiron.core.config</title>
<path fill="none" stroke="#a0d17b" d="M249.04,-807.19C282.39,-851.75 367.17,-963.48 386,-973 431.42,-995.97 562.2,-997.78 655.26,-995.83"/>
<polygon fill="#a0d17b" stroke="#a0d17b" points="655.36,-999.33 665.27,-995.6 655.2,-992.33 655.36,-999.33"/>
</g>
<!-- flatiron.core&#45;&gt;flatiron.core.dataset -->
<g id="edge18" class="edge">
<title>flatiron.core&#45;&gt;flatiron.core.dataset</title>
<path fill="none" stroke="#a0d17b" d="M245.15,-770.75C265.9,-733.26 318.38,-647.12 386,-600 468.56,-542.46 509.15,-570.11 601,-529 643.3,-510.07 688.97,-482.84 719.6,-463.49"/>
<polygon fill="#a0d17b" stroke="#a0d17b" points="721.65,-466.33 728.21,-458.01 717.89,-460.43 721.65,-466.33"/>
</g>
<!-- flatiron.core&#45;&gt;flatiron.core.logging -->
<g id="edge19" class="edge">
<title>flatiron.core&#45;&gt;flatiron.core.logging</title>
<path fill="none" stroke="#a0d17b" d="M248.51,-770.79C272.07,-739.29 325.06,-674.93 386,-643 389.01,-641.42 544.05,-611.09 652.32,-590.02"/>
<polygon fill="#a0d17b" stroke="#a0d17b" points="653.17,-593.42 662.32,-588.08 651.83,-586.55 653.17,-593.42"/>
</g>
<!-- flatiron.core&#45;&gt;flatiron.core.loss -->
<g id="edge20" class="edge">
<title>flatiron.core&#45;&gt;flatiron.core.loss</title>
<path fill="none" stroke="#a0d17b" d="M279.65,-770.92C309.32,-759.33 349.51,-744.7 386,-735 479.78,-710.08 505.88,-716.17 601,-697 604.73,-696.25 634.05,-689.62 666.17,-682.33"/>
<polygon fill="#a0d17b" stroke="#a0d17b" points="667.23,-685.68 676.2,-680.05 665.67,-678.85 667.23,-685.68"/>
</g>
<!-- flatiron.core&#45;&gt;flatiron.core.metric -->
<g id="edge21" class="edge">
<title>flatiron.core&#45;&gt;flatiron.core.metric</title>
<path fill="none" stroke="#a0d17b" d="M274.1,-807.03C303.92,-819.92 346.62,-836.15 386,-843 476.06,-858.67 580.17,-851.05 654.88,-841.18"/>
<polygon fill="#a0d17b" stroke="#a0d17b" points="655.79,-844.59 665.23,-839.78 654.85,-837.66 655.79,-844.59"/>
</g>
<!-- flatiron.core&#45;&gt;flatiron.core.pipeline -->
<g id="edge22" class="edge">
<title>flatiron.core&#45;&gt;flatiron.core.pipeline</title>
<path fill="none" stroke="#a0d17b" d="M263.51,-807.12C292.72,-824.86 340.52,-850.68 386,-861 598.42,-909.2 687.5,-960.15 876,-851 955.99,-804.68 998.46,-695.4 1014.65,-643.84"/>
<polygon fill="#a0d17b" stroke="#a0d17b" points="1018.07,-644.63 1017.63,-634.05 1011.37,-642.6 1018.07,-644.63"/>
</g>
<!-- flatiron.core&#45;&gt;flatiron.core.tools -->
<g id="edge23" class="edge">
<title>flatiron.core&#45;&gt;flatiron.core.tools</title>
<path fill="none" stroke="#a0d17b" d="M244.85,-770.99C265.97,-731.49 320.69,-635.71 386,-572 404.63,-553.83 428.61,-537.58 449.11,-525.33"/>
<polygon fill="#a0d17b" stroke="#a0d17b" points="451.08,-528.23 457.94,-520.15 447.55,-522.18 451.08,-528.23"/>
</g>
<!-- flatiron.core&#45;&gt;flatiron.core.validators -->
<g id="edge24" class="edge">
<title>flatiron.core&#45;&gt;flatiron.core.validators</title>
<path fill="none" stroke="#a0d17b" d="M252.77,-807.02C277.64,-833.91 323.47,-887.06 350,-940 375.9,-991.69 344.47,-1024.78 386,-1065 386.96,-1065.93 387.95,-1066.84 388.97,-1067.71"/>
<polygon fill="#a0d17b" stroke="#a0d17b" points="387.1,-1070.68 397.22,-1073.83 391.27,-1065.06 387.1,-1070.68"/>
</g>
<!-- numpy -->
<g id="node15" class="node">
<title>numpy</title>
<polygon fill="#343434" stroke="#343434" points="522.5,-688 464.5,-688 464.5,-652 522.5,-652 522.5,-688"/>
<text text-anchor="middle" x="493.5" y="-666.3" font-family="Courier,monospace" font-size="14.00" fill="#de958e">numpy</text>
</g>
<!-- numpy&#45;&gt;flatiron.core.dataset -->
<g id="edge25" class="edge">
<title>numpy&#45;&gt;flatiron.core.dataset</title>
<path fill="none" stroke="#de958e" d="M522.66,-655.86C545.61,-643.38 577.9,-623.52 601,-600 621.99,-578.62 617.49,-565.74 637,-543 662.68,-513.08 697.17,-484.09 722.32,-464.53"/>
<polygon fill="#de958e" stroke="#de958e" points="724.67,-467.14 730.46,-458.27 720.4,-461.59 724.67,-467.14"/>
</g>
<!-- numpy&#45;&gt;flatiron.core.loss -->
<g id="edge26" class="edge">
<title>numpy&#45;&gt;flatiron.core.loss</title>
<path fill="none" stroke="#de958e" d="M522.68,-669.14C556.28,-668.11 614.15,-666.33 663.78,-664.81"/>
<polygon fill="#de958e" stroke="#de958e" points="664.02,-668.31 673.91,-664.5 663.8,-661.31 664.02,-668.31"/>
</g>
<!-- numpy&#45;&gt;flatiron.core.metric -->
<g id="edge27" class="edge">
<title>numpy&#45;&gt;flatiron.core.metric</title>
<path fill="none" stroke="#de958e" d="M522.93,-682.48C546.05,-693.69 578.43,-711.93 601,-735 623.28,-757.78 611.34,-778.12 637,-797 642.84,-801.3 649.25,-804.93 655.97,-808"/>
<polygon fill="#de958e" stroke="#de958e" points="654.72,-811.27 665.3,-811.83 657.39,-804.79 654.72,-811.27"/>
</g>
<!-- numpy&#45;&gt;flatiron.core.pipeline -->
<g id="edge28" class="edge">
<title>numpy&#45;&gt;flatiron.core.pipeline</title>
<path fill="none" stroke="#de958e" d="M522.57,-661.41C551.09,-653.09 596.67,-640.89 637,-635 729.8,-621.44 836.36,-617.03 913.9,-615.82"/>
<polygon fill="#de958e" stroke="#de958e" points="914.21,-619.31 924.16,-615.67 914.11,-612.31 914.21,-619.31"/>
</g>
<!-- flatiron.models&#45;&gt;flatiron.models.unet -->
<g id="edge29" class="edge">
<title>flatiron.models&#45;&gt;flatiron.models.unet</title>
<path fill="none" stroke="#a0d17b" d="M1093.55,-135.52C1108.6,-140.28 1123.45,-147.39 1135,-158 1224.82,-240.5 1251.2,-394.2 1258.44,-457.57"/>
<polygon fill="#a0d17b" stroke="#a0d17b" points="1254.97,-458.05 1259.52,-467.62 1261.93,-457.31 1254.97,-458.05"/>
</g>
<!-- keras.engine.keras_tensor -->
<g id="node17" class="node">
<title>keras.engine.keras_tensor</title>
<polygon fill="#343434" stroke="#343434" points="1135,-550 912,-550 912,-514 1135,-514 1135,-550"/>
<text text-anchor="middle" x="1023.5" y="-528.3" font-family="Courier,monospace" font-size="14.00" fill="#de958e">keras.engine.keras_tensor</text>
</g>
<!-- keras.engine.keras_tensor&#45;&gt;flatiron.models.unet -->
<g id="edge30" class="edge">
<title>keras.engine.keras_tensor&#45;&gt;flatiron.models.unet</title>
<path fill="none" stroke="#de958e" d="M1117.29,-513.95C1131.59,-511.17 1146.41,-508.29 1160.86,-505.48"/>
<polygon fill="#de958e" stroke="#de958e" points="1161.65,-508.89 1170.8,-503.54 1160.31,-502.02 1161.65,-508.89"/>
</g>
<!-- lunchbox.enforce -->
<g id="node18" class="node">
<title>lunchbox.enforce</title>
<polygon fill="#343434" stroke="#343434" points="309,-220 160,-220 160,-184 309,-184 309,-220"/>
<text text-anchor="middle" x="234.5" y="-198.3" font-family="Courier,monospace" font-size="14.00" fill="#de958e">lunchbox.enforce</text>
</g>
<!-- lunchbox.enforce&#45;&gt;flatiron.core.dataset -->
<g id="edge31" class="edge">
<title>lunchbox.enforce&#45;&gt;flatiron.core.dataset</title>
<path fill="none" stroke="#de958e" d="M309.34,-198.89C386.8,-198.83 509.75,-208.02 601,-259 666.92,-295.83 717.46,-372.32 740.99,-413.08"/>
<polygon fill="#de958e" stroke="#de958e" points="738.02,-414.93 745.99,-421.91 744.11,-411.49 738.02,-414.93"/>
</g>
<!-- lunchbox.enforce&#45;&gt;flatiron.core.tools -->
<g id="edge32" class="edge">
<title>lunchbox.enforce&#45;&gt;flatiron.core.tools</title>
<path fill="none" stroke="#de958e" d="M284.18,-220.01C307.66,-231.17 334.11,-247.85 350,-271 402.1,-346.91 323.34,-407.55 386,-475 389.6,-478.87 393.67,-482.23 398.06,-485.12"/>
<polygon fill="#de958e" stroke="#de958e" points="396.46,-488.24 406.88,-490.15 399.93,-482.16 396.46,-488.24"/>
</g>
<!-- lunchbox.enforce&#45;&gt;flatiron.models.unet -->
<g id="edge33" class="edge">
<title>lunchbox.enforce&#45;&gt;flatiron.models.unet</title>
<path fill="none" stroke="#de958e" d="M309.09,-197.47C389.59,-192.76 522.41,-185.71 637,-183 860.9,-177.71 960.23,-119.94 1135,-260 1201.13,-313 1238.22,-410.62 1253.16,-458.31"/>
<polygon fill="#de958e" stroke="#de958e" points="1249.84,-459.42 1256.09,-467.97 1256.53,-457.38 1249.84,-459.42"/>
</g>
<!-- lunchbox.stopwatch -->
<g id="node19" class="node">
<title>lunchbox.stopwatch</title>
<polygon fill="#343434" stroke="#343434" points="317,-520 152,-520 152,-484 317,-484 317,-520"/>
<text text-anchor="middle" x="234.5" y="-498.3" font-family="Courier,monospace" font-size="14.00" fill="#de958e">lunchbox.stopwatch</text>
</g>
<!-- lunchbox.stopwatch&#45;&gt;flatiron.core.tools -->
<g id="edge34" class="edge">
<title>lunchbox.stopwatch&#45;&gt;flatiron.core.tools</title>
<path fill="none" stroke="#de958e" d="M317.17,-502C342.34,-502 370.29,-502 396.34,-502"/>
<polygon fill="#de958e" stroke="#de958e" points="396.61,-505.5 406.61,-502 396.61,-498.5 396.61,-505.5"/>
</g>
<!-- lunchbox.tools -->
<g id="node20" class="node">
<title>lunchbox.tools</title>
<polygon fill="#343434" stroke="#343434" points="300.5,-574 168.5,-574 168.5,-538 300.5,-538 300.5,-574"/>
<text text-anchor="middle" x="234.5" y="-552.3" font-family="Courier,monospace" font-size="14.00" fill="#de958e">lunchbox.tools</text>
</g>
<!-- lunchbox.tools&#45;&gt;flatiron.core.logging -->
<g id="edge35" class="edge">
<title>lunchbox.tools&#45;&gt;flatiron.core.logging</title>
<path fill="none" stroke="#de958e" d="M300.57,-557.75C388.52,-560.12 546.37,-564.37 651.04,-567.19"/>
<polygon fill="#de958e" stroke="#de958e" points="651.22,-570.69 661.31,-567.46 651.41,-563.7 651.22,-570.69"/>
</g>
<!-- lunchbox.tools&#45;&gt;flatiron.core.tools -->
<g id="edge36" class="edge">
<title>lunchbox.tools&#45;&gt;flatiron.core.tools</title>
<path fill="none" stroke="#de958e" d="M300.68,-542.3C329.93,-536.16 365.01,-528.79 397.12,-522.04"/>
<polygon fill="#de958e" stroke="#de958e" points="397.92,-525.45 406.98,-519.97 396.48,-518.6 397.92,-525.45"/>
</g>
<!-- schematics.exceptions -->
<g id="node21" class="node">
<title>schematics.exceptions</title>
<polygon fill="#343434" stroke="#343434" points="329.5,-985 139.5,-985 139.5,-949 329.5,-949 329.5,-985"/>
<text text-anchor="middle" x="234.5" y="-963.3" font-family="Courier,monospace" font-size="14.00" fill="#de958e">schematics.exceptions</text>
</g>
<!-- schematics.exceptions&#45;&gt;flatiron.core.validators -->
<g id="edge37" class="edge">
<title>schematics.exceptions&#45;&gt;flatiron.core.validators</title>
<path fill="none" stroke="#de958e" d="M329.63,-981.82C336.91,-985.13 343.82,-989.14 350,-994 377.81,-1015.87 358.38,-1042.89 386,-1065 387.59,-1066.27 389.24,-1067.49 390.93,-1068.65"/>
<polygon fill="#de958e" stroke="#de958e" points="389.36,-1071.79 399.72,-1073.98 392.98,-1065.8 389.36,-1071.79"/>
</g>
<!-- tensorflow -->
<g id="node22" class="node">
<title>tensorflow</title>
<polygon fill="#343434" stroke="#343434" points="543,-780 444,-780 444,-744 543,-744 543,-780"/>
<text text-anchor="middle" x="493.5" y="-758.3" font-family="Courier,monospace" font-size="14.00" fill="#de958e">tensorflow</text>
</g>
<!-- tensorflow&#45;&gt;flatiron.core.loss -->
<g id="edge38" class="edge">
<title>tensorflow&#45;&gt;flatiron.core.loss</title>
<path fill="none" stroke="#de958e" d="M543.07,-753.45C562.16,-748.59 583.62,-741.17 601,-730 621.4,-716.89 616.17,-701.41 637,-689 645.43,-683.98 654.71,-679.89 664.25,-676.56"/>
<polygon fill="#de958e" stroke="#de958e" points="665.4,-679.87 673.85,-673.48 663.26,-673.21 665.4,-679.87"/>
</g>
<!-- tensorflow&#45;&gt;flatiron.core.metric -->
<g id="edge39" class="edge">
<title>tensorflow&#45;&gt;flatiron.core.metric</title>
<path fill="none" stroke="#de958e" d="M543.26,-774.19C570.76,-781.01 605.76,-789.61 637,-797 646.22,-799.18 655.85,-801.43 665.47,-803.65"/>
<polygon fill="#de958e" stroke="#de958e" points="664.93,-807.12 675.46,-805.96 666.5,-800.3 664.93,-807.12"/>
</g>
<!-- humanfriendly -->
<g id="node23" class="node">
<title>humanfriendly</title>
<polygon fill="#343434" stroke="#343434" points="555.5,-466 431.5,-466 431.5,-430 555.5,-430 555.5,-466"/>
<text text-anchor="middle" x="493.5" y="-444.3" font-family="Courier,monospace" font-size="14.00" fill="#de958e">humanfriendly</text>
</g>
<!-- humanfriendly&#45;&gt;flatiron.core.dataset -->
<g id="edge40" class="edge">
<title>humanfriendly&#45;&gt;flatiron.core.dataset</title>
<path fill="none" stroke="#de958e" d="M555.69,-446.12C584.23,-445.25 619,-444.18 651.48,-443.19"/>
<polygon fill="#de958e" stroke="#de958e" points="651.59,-446.69 661.48,-442.88 651.38,-439.69 651.59,-446.69"/>
</g>
<!-- pytz -->
<g id="node24" class="node">
<title>pytz</title>
<polygon fill="#343434" stroke="#343434" points="261.5,-466 207.5,-466 207.5,-430 261.5,-430 261.5,-466"/>
<text text-anchor="middle" x="234.5" y="-444.3" font-family="Courier,monospace" font-size="14.00" fill="#de958e">pytz</text>
</g>
<!-- pytz&#45;&gt;flatiron.core.tools -->
<g id="edge41" class="edge">
<title>pytz&#45;&gt;flatiron.core.tools</title>
<path fill="none" stroke="#de958e" d="M261.56,-453.47C293.19,-460.12 348.34,-471.71 396.81,-481.89"/>
<polygon fill="#de958e" stroke="#de958e" points="396.22,-485.35 406.73,-483.98 397.66,-478.5 396.22,-485.35"/>
</g>
<!-- tensorflow.keras.backend -->
<g id="node25" class="node">
<title>tensorflow.keras.backend</title>
<polygon fill="#343434" stroke="#343434" points="601,-834 386,-834 386,-798 601,-798 601,-834"/>
<text text-anchor="middle" x="493.5" y="-812.3" font-family="Courier,monospace" font-size="14.00" fill="#de958e">tensorflow.keras.backend</text>
</g>
<!-- tensorflow.keras.backend&#45;&gt;flatiron.core.loss -->
<g id="edge42" class="edge">
<title>tensorflow.keras.backend&#45;&gt;flatiron.core.loss</title>
<path fill="none" stroke="#de958e" d="M589.03,-797.85C593.3,-795.27 597.33,-792.33 601,-789 635.99,-757.26 601.63,-720.31 637,-689 644.9,-682 654.24,-676.71 664.15,-672.72"/>
<polygon fill="#de958e" stroke="#de958e" points="665.55,-675.94 673.8,-669.29 663.2,-669.35 665.55,-675.94"/>
</g>
<!-- tensorflow.keras.backend&#45;&gt;flatiron.core.metric -->
<g id="edge43" class="edge">
<title>tensorflow.keras.backend&#45;&gt;flatiron.core.metric</title>
<path fill="none" stroke="#de958e" d="M601.04,-819.27C618.83,-819.81 637.24,-820.38 654.87,-820.92"/>
<polygon fill="#de958e" stroke="#de958e" points="655.06,-824.42 665.16,-821.23 655.27,-817.43 655.06,-824.42"/>
</g>
<!-- tensorflow.keras.callbacks -->
<g id="node26" class="node">
<title>tensorflow.keras.callbacks</title>
<polygon fill="#343434" stroke="#343434" points="350,-412 119,-412 119,-376 350,-376 350,-412"/>
<text text-anchor="middle" x="234.5" y="-390.3" font-family="Courier,monospace" font-size="14.00" fill="#de958e">tensorflow.keras.callbacks</text>
</g>
<!-- tensorflow.keras.callbacks&#45;&gt;flatiron.core.tools -->
<g id="edge44" class="edge">
<title>tensorflow.keras.callbacks&#45;&gt;flatiron.core.tools</title>
<path fill="none" stroke="#de958e" d="M334.45,-412.07C339.9,-414.66 345.14,-417.62 350,-421 373.69,-437.46 362.45,-458.35 386,-475 389.69,-477.61 393.61,-479.97 397.69,-482.1"/>
<polygon fill="#de958e" stroke="#de958e" points="396.29,-485.31 406.83,-486.41 399.28,-478.98 396.29,-485.31"/>
</g>
<!-- yaml -->
<g id="node27" class="node">
<title>yaml</title>
<polygon fill="#343434" stroke="#343434" points="261.5,-316 207.5,-316 207.5,-280 261.5,-280 261.5,-316"/>
<text text-anchor="middle" x="234.5" y="-294.3" font-family="Courier,monospace" font-size="14.00" fill="#de958e">yaml</text>
</g>
<!-- yaml&#45;&gt;flatiron.core.pipeline -->
<g id="edge45" class="edge">
<title>yaml&#45;&gt;flatiron.core.pipeline</title>
<path fill="none" stroke="#de958e" d="M261.68,-288.89C322.35,-269.13 476.89,-226.61 601,-259 736.54,-294.37 791.11,-301.57 876,-413 916.5,-466.16 870.59,-506.54 912,-559 923.62,-573.73 940.09,-585.02 956.77,-593.52"/>
<polygon fill="#de958e" stroke="#de958e" points="955.5,-596.79 966.03,-597.96 958.52,-590.48 955.5,-596.79"/>
</g>
<!-- yaml&#45;&gt;flatiron.core.tools -->
<g id="edge46" class="edge">
<title>yaml&#45;&gt;flatiron.core.tools</title>
<path fill="none" stroke="#de958e" d="M261.94,-307.6C287.87,-318.31 326.79,-338.01 350,-367 381.62,-406.5 348.93,-440.56 386,-475 389.61,-478.35 393.57,-481.3 397.79,-483.9"/>
<polygon fill="#de958e" stroke="#de958e" points="396.28,-487.07 406.75,-488.75 399.62,-480.91 396.28,-487.07"/>
</g>
<!-- pandas -->
<g id="node28" class="node">
<title>pandas</title>
<polygon fill="#343434" stroke="#343434" points="526.5,-412 460.5,-412 460.5,-376 526.5,-376 526.5,-412"/>
<text text-anchor="middle" x="493.5" y="-390.3" font-family="Courier,monospace" font-size="14.00" fill="#de958e">pandas</text>
</g>
<!-- pandas&#45;&gt;flatiron.core.dataset -->
<g id="edge47" class="edge">
<title>pandas&#45;&gt;flatiron.core.dataset</title>
<path fill="none" stroke="#de958e" d="M526.5,-399.64C557.64,-405.13 606.65,-413.77 651.35,-421.64"/>
<polygon fill="#de958e" stroke="#de958e" points="650.96,-425.13 661.41,-423.42 652.17,-418.23 650.96,-425.13"/>
</g>
<!-- keras.engine.functional -->
<g id="node29" class="node">
<title>keras.engine.functional</title>
<polygon fill="#343434" stroke="#343434" points="859.5,-228 653.5,-228 653.5,-192 859.5,-192 859.5,-228"/>
<text text-anchor="middle" x="756.5" y="-206.3" font-family="Courier,monospace" font-size="14.00" fill="#de958e">keras.engine.functional</text>
</g>
<!-- keras.engine.functional&#45;&gt;flatiron.core.pipeline -->
<g id="edge48" class="edge">
<title>keras.engine.functional&#45;&gt;flatiron.core.pipeline</title>
<path fill="none" stroke="#de958e" d="M859.63,-228.06C865.72,-231.91 871.28,-236.51 876,-242 968.43,-349.53 831.49,-442.28 912,-559 922.19,-573.78 937.43,-584.97 953.35,-593.35"/>
<polygon fill="#de958e" stroke="#de958e" points="952.25,-596.71 962.77,-597.96 955.33,-590.42 952.25,-596.71"/>
</g>
<!-- keras.engine.functional&#45;&gt;flatiron.models.unet -->
<g id="edge49" class="edge">
<title>keras.engine.functional&#45;&gt;flatiron.models.unet</title>
<path fill="none" stroke="#de958e" d="M837.36,-228.02C850.51,-231.99 863.81,-236.64 876,-242 1017.42,-304.19 1167.06,-413.44 1230.13,-461.8"/>
<polygon fill="#de958e" stroke="#de958e" points="1228.03,-464.6 1238.09,-467.93 1232.3,-459.06 1228.03,-464.6"/>
</g>
<!-- schematics -->
<g id="node30" class="node">
<title>schematics</title>
<polygon fill="#343434" stroke="#343434" points="543,-1056 444,-1056 444,-1020 543,-1020 543,-1056"/>
<text text-anchor="middle" x="493.5" y="-1034.3" font-family="Courier,monospace" font-size="14.00" fill="#de958e">schematics</text>
</g>
<!-- schematics&#45;&gt;flatiron.core.config -->
<g id="edge50" class="edge">
<title>schematics&#45;&gt;flatiron.core.config</title>
<path fill="none" stroke="#de958e" d="M543.29,-1029.4C574.78,-1023.85 616.89,-1016.43 655.29,-1009.66"/>
<polygon fill="#de958e" stroke="#de958e" points="656.25,-1013.05 665.49,-1007.86 655.04,-1006.15 656.25,-1013.05"/>
</g>
<!-- schematics&#45;&gt;flatiron.models.unet -->
<g id="edge51" class="edge">
<title>schematics&#45;&gt;flatiron.models.unet</title>
<path fill="none" stroke="#de958e" d="M543.08,-1045.52C617.79,-1054.95 763.97,-1064.78 876,-1019 1018.51,-960.76 1045.63,-914.35 1135,-789 1199.47,-698.57 1238.82,-570.17 1253.92,-514.06"/>
<polygon fill="#de958e" stroke="#de958e" points="1257.37,-514.7 1256.54,-504.14 1250.6,-512.92 1257.37,-514.7"/>
</g>
<!-- schematics.types -->
<g id="node31" class="node">
<title>schematics.types</title>
<polygon fill="#343434" stroke="#343434" points="568,-964 419,-964 419,-928 568,-928 568,-964"/>
<text text-anchor="middle" x="493.5" y="-942.3" font-family="Courier,monospace" font-size="14.00" fill="#de958e">schematics.types</text>
</g>
<!-- schematics.types&#45;&gt;flatiron.core.config -->
<g id="edge52" class="edge">
<title>schematics.types&#45;&gt;flatiron.core.config</title>
<path fill="none" stroke="#de958e" d="M568.25,-959C595.21,-963.75 626.2,-969.21 655.1,-974.31"/>
<polygon fill="#de958e" stroke="#de958e" points="654.77,-977.8 665.23,-976.09 655.99,-970.91 654.77,-977.8"/>
</g>
<!-- schematics.types&#45;&gt;flatiron.models.unet -->
<g id="edge53" class="edge">
<title>schematics.types&#45;&gt;flatiron.models.unet</title>
<path fill="none" stroke="#de958e" d="M568.36,-950.08C648.22,-951.49 777.32,-944.87 876,-897 1059.9,-807.78 1200.19,-590.19 1245.46,-513.39"/>
<polygon fill="#de958e" stroke="#de958e" points="1248.73,-514.73 1250.75,-504.33 1242.68,-511.21 1248.73,-514.73"/>
</g>
<!-- sklearn.model_selection -->
<g id="node32" class="node">
<title>sklearn.model_selection</title>
<polygon fill="#343434" stroke="#343434" points="596.5,-358 390.5,-358 390.5,-322 596.5,-322 596.5,-358"/>
<text text-anchor="middle" x="493.5" y="-336.3" font-family="Courier,monospace" font-size="14.00" fill="#de958e">sklearn.model_selection</text>
</g>
<!-- sklearn.model_selection&#45;&gt;flatiron.core.dataset -->
<g id="edge54" class="edge">
<title>sklearn.model_selection&#45;&gt;flatiron.core.dataset</title>
<path fill="none" stroke="#de958e" d="M572.96,-358.05C582.49,-360.78 592.02,-363.78 601,-367 640.09,-381.04 682.64,-401.56 713.17,-417.27"/>
<polygon fill="#de958e" stroke="#de958e" points="711.75,-420.48 722.24,-421.98 714.98,-414.27 711.75,-420.48"/>
</g>
<!-- tqdm.notebook -->
<g id="node33" class="node">
<title>tqdm.notebook</title>
<polygon fill="#343434" stroke="#343434" points="555.5,-304 431.5,-304 431.5,-268 555.5,-268 555.5,-304"/>
<text text-anchor="middle" x="493.5" y="-282.3" font-family="Courier,monospace" font-size="14.00" fill="#de958e">tqdm.notebook</text>
</g>
<!-- tqdm.notebook&#45;&gt;flatiron.core.dataset -->
<g id="edge55" class="edge">
<title>tqdm.notebook&#45;&gt;flatiron.core.dataset</title>
<path fill="none" stroke="#de958e" d="M555.6,-296.61C570.9,-300.57 586.96,-305.9 601,-313 653.05,-339.32 703.32,-385.78 731.73,-414.62"/>
<polygon fill="#de958e" stroke="#de958e" points="729.33,-417.17 738.81,-421.9 734.35,-412.29 729.33,-417.17"/>
</g>
<!-- schematics.models -->
<g id="node34" class="node">
<title>schematics.models</title>
<polygon fill="#343434" stroke="#343434" points="835,-788 678,-788 678,-752 835,-752 835,-788"/>
<text text-anchor="middle" x="756.5" y="-766.3" font-family="Courier,monospace" font-size="14.00" fill="#de958e">schematics.models</text>
</g>
<!-- schematics.models&#45;&gt;flatiron.core.pipeline -->
<g id="edge56" class="edge">
<title>schematics.models&#45;&gt;flatiron.core.pipeline</title>
<path fill="none" stroke="#de958e" d="M835.28,-758.03C849.26,-754.29 863.39,-749.39 876,-743 926.22,-717.54 973.36,-671.13 1000,-642.02"/>
<polygon fill="#de958e" stroke="#de958e" points="1002.87,-644.07 1006.96,-634.3 997.67,-639.38 1002.87,-644.07"/>
</g>
<!-- tensorflow.keras.optimizers -->
<g id="node35" class="node">
<title>tensorflow.keras.optimizers</title>
<polygon fill="#343434" stroke="#343434" points="876,-734 637,-734 637,-698 876,-698 876,-734"/>
<text text-anchor="middle" x="756.5" y="-712.3" font-family="Courier,monospace" font-size="14.00" fill="#de958e">tensorflow.keras.optimizers</text>
</g>
<!-- tensorflow.keras.optimizers&#45;&gt;flatiron.core.pipeline -->
<g id="edge57" class="edge">
<title>tensorflow.keras.optimizers&#45;&gt;flatiron.core.pipeline</title>
<path fill="none" stroke="#de958e" d="M847.13,-697.98C856.97,-695.29 866.76,-692.3 876,-689 913.55,-675.58 953.95,-654.94 982.79,-639.03"/>
<polygon fill="#de958e" stroke="#de958e" points="984.7,-641.97 991.73,-634.04 981.29,-635.86 984.7,-641.97"/>
</g>
<!-- tensorflow.keras.layers -->
<g id="node36" class="node">
<title>tensorflow.keras.layers</title>
<polygon fill="#343434" stroke="#343434" points="1126.5,-90 920.5,-90 920.5,-54 1126.5,-54 1126.5,-90"/>
<text text-anchor="middle" x="1023.5" y="-68.3" font-family="Courier,monospace" font-size="14.00" fill="#de958e">tensorflow.keras.layers</text>
</g>
<!-- tensorflow.keras.layers&#45;&gt;flatiron.models.unet -->
<g id="edge58" class="edge">
<title>tensorflow.keras.layers&#45;&gt;flatiron.models.unet</title>
<path fill="none" stroke="#de958e" d="M1123.2,-90.08C1127.41,-92.68 1131.38,-95.64 1135,-99 1241.19,-197.5 1258.11,-386.37 1260.63,-457.75"/>
<polygon fill="#de958e" stroke="#de958e" points="1257.14,-457.89 1260.92,-467.78 1264.13,-457.69 1257.14,-457.89"/>
</g>
<!-- tensorflow.keras.models -->
<g id="node37" class="node">
<title>tensorflow.keras.models</title>
<polygon fill="#343434" stroke="#343434" points="1126.5,-36 920.5,-36 920.5,0 1126.5,0 1126.5,-36"/>
<text text-anchor="middle" x="1023.5" y="-14.3" font-family="Courier,monospace" font-size="14.00" fill="#de958e">tensorflow.keras.models</text>
</g>
<!-- tensorflow.keras.models&#45;&gt;flatiron.models.unet -->
<g id="edge59" class="edge">
<title>tensorflow.keras.models&#45;&gt;flatiron.models.unet</title>
<path fill="none" stroke="#de958e" d="M1123.6,-36.08C1127.68,-38.69 1131.51,-41.65 1135,-45 1196.14,-103.82 1242.81,-370.32 1256.72,-457.97"/>
<polygon fill="#de958e" stroke="#de958e" points="1253.29,-458.64 1258.29,-467.97 1260.2,-457.55 1253.29,-458.64"/>
</g>
</g>
</svg>
