<?xml version="1.0" encoding="UTF-8" standalone="no"?>
<!DOCTYPE svg PUBLIC "-//W3C//DTD SVG 1.1//EN"
 "http://www.w3.org/Graphics/SVG/1.1/DTD/svg11.dtd">
<!-- Generated by graphviz version 2.43.0 (0)
 -->
<!-- Title: %3 Pages: 1 -->
<svg width="826pt" height="576pt"
 viewBox="0.00 0.00 826.00 576.00" xmlns="http://www.w3.org/2000/svg" xmlns:xlink="http://www.w3.org/1999/xlink">
<g id="graph0" class="graph" transform="scale(1 1) rotate(0) translate(4 572)">
<title>%3</title>
<polygon fill="#242424" stroke="transparent" points="-4,4 -4,-572 822,-572 822,4 -4,4"/>
<!-- cli -->
<g id="node1" class="node">
<title>cli</title>
<polygon fill="#343434" stroke="#343434" points="68.5,-244 14.5,-244 14.5,-208 68.5,-208 68.5,-244"/>
<text text-anchor="middle" x="41.5" y="-222.3" font-family="Courier,monospace" font-size="14.00" fill="#b6ecf3">cli</text>
</g>
<!-- flatiron.core.dataset -->
<g id="node2" class="node">
<title>flatiron.core.dataset</title>
<polygon fill="#343434" stroke="#343434" points="818,-221 628,-221 628,-185 818,-185 818,-221"/>
<text text-anchor="middle" x="723" y="-199.3" font-family="Courier,monospace" font-size="14.00" fill="#b6ecf3">flatiron.core.dataset</text>
</g>
<!-- flatiron.core.logging -->
<g id="node3" class="node">
<title>flatiron.core.logging</title>
<polygon fill="#343434" stroke="#343434" points="818,-420 628,-420 628,-384 818,-384 818,-420"/>
<text text-anchor="middle" x="723" y="-398.3" font-family="Courier,monospace" font-size="14.00" fill="#b6ecf3">flatiron.core.logging</text>
</g>
<!-- flatiron.core.tools -->
<g id="node4" class="node">
<title>flatiron.core.tools</title>
<polygon fill="#343434" stroke="#343434" points="575.5,-420 402.5,-420 402.5,-384 575.5,-384 575.5,-420"/>
<text text-anchor="middle" x="489" y="-398.3" font-family="Courier,monospace" font-size="14.00" fill="#b6ecf3">flatiron.core.tools</text>
</g>
<!-- flatiron.core.tools&#45;&gt;flatiron.core.dataset -->
<g id="edge1" class="edge">
<title>flatiron.core.tools&#45;&gt;flatiron.core.dataset</title>
<path fill="none" stroke="#b6ecf3" d="M522.56,-383.9C543.27,-371.75 570.19,-354.78 592,-337 633.39,-303.26 675.34,-257.45 699.99,-229.08"/>
<polygon fill="#b6ecf3" stroke="#b6ecf3" points="702.89,-231.08 706.77,-221.22 697.59,-226.51 702.89,-231.08"/>
</g>
<!-- flatiron.core.tools&#45;&gt;flatiron.core.logging -->
<g id="edge2" class="edge">
<title>flatiron.core.tools&#45;&gt;flatiron.core.logging</title>
<path fill="none" stroke="#b6ecf3" d="M575.73,-402C589.34,-402 603.54,-402 617.52,-402"/>
<polygon fill="#b6ecf3" stroke="#b6ecf3" points="617.65,-405.5 627.65,-402 617.65,-398.5 617.65,-405.5"/>
</g>
<!-- flatiron -->
<g id="node5" class="node">
<title>flatiron</title>
<polygon fill="#343434" stroke="#343434" points="83,-298 0,-298 0,-262 83,-262 83,-298"/>
<text text-anchor="middle" x="41.5" y="-276.3" font-family="Courier,monospace" font-size="14.00" fill="#a0d17b">flatiron</text>
</g>
<!-- flatiron.core -->
<g id="node6" class="node">
<title>flatiron.core</title>
<polygon fill="#343434" stroke="#343434" points="296.5,-298 172.5,-298 172.5,-262 296.5,-262 296.5,-298"/>
<text text-anchor="middle" x="234.5" y="-276.3" font-family="Courier,monospace" font-size="14.00" fill="#a0d17b">flatiron.core</text>
</g>
<!-- flatiron&#45;&gt;flatiron.core -->
<g id="edge3" class="edge">
<title>flatiron&#45;&gt;flatiron.core</title>
<path fill="none" stroke="#a0d17b" d="M83.01,-280C106.02,-280 135.49,-280 162.25,-280"/>
<polygon fill="#a0d17b" stroke="#a0d17b" points="162.35,-283.5 172.35,-280 162.35,-276.5 162.35,-283.5"/>
</g>
<!-- flatiron.core&#45;&gt;flatiron.core.dataset -->
<g id="edge4" class="edge">
<title>flatiron.core&#45;&gt;flatiron.core.dataset</title>
<path fill="none" stroke="#a0d17b" d="M296.5,-271.96C367.6,-262.38 488.54,-245.48 592,-228 601.52,-226.39 611.41,-224.64 621.3,-222.83"/>
<polygon fill="#a0d17b" stroke="#a0d17b" points="621.98,-226.26 631.18,-221.01 620.71,-219.38 621.98,-226.26"/>
</g>
<!-- flatiron.core&#45;&gt;flatiron.core.logging -->
<g id="edge5" class="edge">
<title>flatiron.core&#45;&gt;flatiron.core.logging</title>
<path fill="none" stroke="#a0d17b" d="M296.75,-288.98C314.52,-293.01 333.56,-298.79 350,-307 368.63,-316.31 367.14,-328.16 386,-337 470.29,-376.54 500.64,-357.09 592,-375 603.11,-377.18 614.74,-379.51 626.29,-381.87"/>
<polygon fill="#a0d17b" stroke="#a0d17b" points="625.89,-385.36 636.39,-383.94 627.3,-378.5 625.89,-385.36"/>
</g>
<!-- flatiron.core&#45;&gt;flatiron.core.tools -->
<g id="edge6" class="edge">
<title>flatiron.core&#45;&gt;flatiron.core.tools</title>
<path fill="none" stroke="#a0d17b" d="M296.55,-284.95C315.1,-288.82 334.62,-295.51 350,-307 375.84,-326.3 360.88,-349.78 386,-370 390.29,-373.46 394.96,-376.54 399.86,-379.29"/>
<polygon fill="#a0d17b" stroke="#a0d17b" points="398.4,-382.48 408.9,-383.9 401.58,-376.24 398.4,-382.48"/>
</g>
<!-- humanfriendly -->
<g id="node7" class="node">
<title>humanfriendly</title>
<polygon fill="#343434" stroke="#343434" points="551,-198 427,-198 427,-162 551,-162 551,-198"/>
<text text-anchor="middle" x="489" y="-176.3" font-family="Courier,monospace" font-size="14.00" fill="#de958e">humanfriendly</text>
</g>
<!-- humanfriendly&#45;&gt;flatiron.core.dataset -->
<g id="edge7" class="edge">
<title>humanfriendly&#45;&gt;flatiron.core.dataset</title>
<path fill="none" stroke="#de958e" d="M551.26,-186.07C571.72,-188.1 595.14,-190.42 617.93,-192.68"/>
<polygon fill="#de958e" stroke="#de958e" points="617.7,-196.18 628,-193.68 618.39,-189.21 617.7,-196.18"/>
</g>
<!-- lunchbox.enforce -->
<g id="node8" class="node">
<title>lunchbox.enforce</title>
<polygon fill="#343434" stroke="#343434" points="309,-244 160,-244 160,-208 309,-208 309,-244"/>
<text text-anchor="middle" x="234.5" y="-222.3" font-family="Courier,monospace" font-size="14.00" fill="#de958e">lunchbox.enforce</text>
</g>
<!-- lunchbox.enforce&#45;&gt;flatiron.core.dataset -->
<g id="edge8" class="edge">
<title>lunchbox.enforce&#45;&gt;flatiron.core.dataset</title>
<path fill="none" stroke="#de958e" d="M309.12,-222.52C391.18,-218.64 524.52,-212.34 617.39,-207.95"/>
<polygon fill="#de958e" stroke="#de958e" points="617.84,-211.43 627.66,-207.46 617.51,-204.44 617.84,-211.43"/>
</g>
<!-- lunchbox.enforce&#45;&gt;flatiron.core.tools -->
<g id="edge9" class="edge">
<title>lunchbox.enforce&#45;&gt;flatiron.core.tools</title>
<path fill="none" stroke="#de958e" d="M309.28,-232.79C323.98,-236.92 338.43,-243.28 350,-253 381.1,-279.13 359.7,-306.04 386,-337 400.49,-354.05 420.59,-368.17 439.12,-378.85"/>
<polygon fill="#de958e" stroke="#de958e" points="437.61,-382.01 448.06,-383.81 441.01,-375.89 437.61,-382.01"/>
</g>
<!-- lunchbox.stopwatch -->
<g id="node9" class="node">
<title>lunchbox.stopwatch</title>
<polygon fill="#343434" stroke="#343434" points="317,-460 152,-460 152,-424 317,-424 317,-460"/>
<text text-anchor="middle" x="234.5" y="-438.3" font-family="Courier,monospace" font-size="14.00" fill="#de958e">lunchbox.stopwatch</text>
</g>
<!-- lunchbox.stopwatch&#45;&gt;flatiron.core.tools -->
<g id="edge10" class="edge">
<title>lunchbox.stopwatch&#45;&gt;flatiron.core.tools</title>
<path fill="none" stroke="#de958e" d="M317.13,-429.07C341.07,-425.28 367.46,-421.1 392.19,-417.18"/>
<polygon fill="#de958e" stroke="#de958e" points="392.98,-420.6 402.31,-415.58 391.88,-413.68 392.98,-420.6"/>
</g>
<!-- lunchbox.tools -->
<g id="node10" class="node">
<title>lunchbox.tools</title>
<polygon fill="#343434" stroke="#343434" points="300.5,-568 168.5,-568 168.5,-532 300.5,-532 300.5,-568"/>
<text text-anchor="middle" x="234.5" y="-546.3" font-family="Courier,monospace" font-size="14.00" fill="#de958e">lunchbox.tools</text>
</g>
<!-- lunchbox.tools&#45;&gt;flatiron.core.logging -->
<g id="edge11" class="edge">
<title>lunchbox.tools&#45;&gt;flatiron.core.logging</title>
<path fill="none" stroke="#de958e" d="M300.53,-535.65C316.76,-531.8 334.07,-527.46 350,-523 460.94,-491.94 588.19,-448.91 661.43,-423.42"/>
<polygon fill="#de958e" stroke="#de958e" points="662.67,-426.69 670.96,-420.09 660.36,-420.08 662.67,-426.69"/>
</g>
<!-- lunchbox.tools&#45;&gt;flatiron.core.tools -->
<g id="edge12" class="edge">
<title>lunchbox.tools&#45;&gt;flatiron.core.tools</title>
<path fill="none" stroke="#de958e" d="M300.67,-541.47C317.48,-537.47 335.04,-531.61 350,-523 370.17,-511.4 368.94,-500.82 386,-485 408.36,-464.26 435.16,-442.56 455.68,-426.56"/>
<polygon fill="#de958e" stroke="#de958e" points="458.01,-429.17 463.77,-420.28 453.73,-423.64 458.01,-429.17"/>
</g>
<!-- pytz -->
<g id="node11" class="node">
<title>pytz</title>
<polygon fill="#343434" stroke="#343434" points="261.5,-406 207.5,-406 207.5,-370 261.5,-370 261.5,-406"/>
<text text-anchor="middle" x="234.5" y="-384.3" font-family="Courier,monospace" font-size="14.00" fill="#de958e">pytz</text>
</g>
<!-- pytz&#45;&gt;flatiron.core.tools -->
<g id="edge13" class="edge">
<title>pytz&#45;&gt;flatiron.core.tools</title>
<path fill="none" stroke="#de958e" d="M261.57,-389.45C292.33,-391.15 345.22,-394.08 392.15,-396.69"/>
<polygon fill="#de958e" stroke="#de958e" points="392.2,-400.19 402.38,-397.25 392.59,-393.2 392.2,-400.19"/>
</g>
<!-- tensorflow.keras.callbacks -->
<g id="node12" class="node">
<title>tensorflow.keras.callbacks</title>
<polygon fill="#343434" stroke="#343434" points="350,-352 119,-352 119,-316 350,-316 350,-352"/>
<text text-anchor="middle" x="234.5" y="-330.3" font-family="Courier,monospace" font-size="14.00" fill="#de958e">tensorflow.keras.callbacks</text>
</g>
<!-- tensorflow.keras.callbacks&#45;&gt;flatiron.core.tools -->
<g id="edge14" class="edge">
<title>tensorflow.keras.callbacks&#45;&gt;flatiron.core.tools</title>
<path fill="none" stroke="#de958e" d="M314.49,-352C326.42,-354.9 338.55,-357.95 350,-361 372.93,-367.11 397.84,-374.32 420.1,-380.99"/>
<polygon fill="#de958e" stroke="#de958e" points="419.21,-384.37 429.79,-383.9 421.22,-377.67 419.21,-384.37"/>
</g>
<!-- yaml -->
<g id="node13" class="node">
<title>yaml</title>
<polygon fill="#343434" stroke="#343434" points="261.5,-514 207.5,-514 207.5,-478 261.5,-478 261.5,-514"/>
<text text-anchor="middle" x="234.5" y="-492.3" font-family="Courier,monospace" font-size="14.00" fill="#de958e">yaml</text>
</g>
<!-- yaml&#45;&gt;flatiron.core.tools -->
<g id="edge15" class="edge">
<title>yaml&#45;&gt;flatiron.core.tools</title>
<path fill="none" stroke="#de958e" d="M261.89,-491.49C285.41,-487.07 320.56,-479.47 350,-469 383.67,-457.02 419.95,-439.19 446.87,-424.94"/>
<polygon fill="#de958e" stroke="#de958e" points="448.81,-427.87 455.97,-420.06 445.51,-421.7 448.81,-427.87"/>
</g>
<!-- numpy -->
<g id="node14" class="node">
<title>numpy</title>
<polygon fill="#343434" stroke="#343434" points="518,-144 460,-144 460,-108 518,-108 518,-144"/>
<text text-anchor="middle" x="489" y="-122.3" font-family="Courier,monospace" font-size="14.00" fill="#de958e">numpy</text>
</g>
<!-- numpy&#45;&gt;flatiron.core.dataset -->
<g id="edge16" class="edge">
<title>numpy&#45;&gt;flatiron.core.dataset</title>
<path fill="none" stroke="#de958e" d="M518.38,-132.64C538.98,-137.66 567.43,-145.05 592,-153 617.68,-161.31 645.68,-171.88 669.1,-181.16"/>
<polygon fill="#de958e" stroke="#de958e" points="667.91,-184.45 678.5,-184.91 670.51,-177.95 667.91,-184.45"/>
</g>
<!-- pandas -->
<g id="node15" class="node">
<title>pandas</title>
<polygon fill="#343434" stroke="#343434" points="522,-90 456,-90 456,-54 522,-54 522,-90"/>
<text text-anchor="middle" x="489" y="-68.3" font-family="Courier,monospace" font-size="14.00" fill="#de958e">pandas</text>
</g>
<!-- pandas&#45;&gt;flatiron.core.dataset -->
<g id="edge17" class="edge">
<title>pandas&#45;&gt;flatiron.core.dataset</title>
<path fill="none" stroke="#de958e" d="M522.02,-76.94C542.76,-80.97 569.92,-87.87 592,-99 632.53,-119.42 672.24,-153.91 696.9,-177.53"/>
<polygon fill="#de958e" stroke="#de958e" points="694.75,-180.33 704.35,-184.79 699.63,-175.31 694.75,-180.33"/>
</g>
<!-- sklearn.model_selection -->
<g id="node16" class="node">
<title>sklearn.model_selection</title>
<polygon fill="#343434" stroke="#343434" points="592,-36 386,-36 386,0 592,0 592,-36"/>
<text text-anchor="middle" x="489" y="-14.3" font-family="Courier,monospace" font-size="14.00" fill="#de958e">sklearn.model_selection</text>
</g>
<!-- sklearn.model_selection&#45;&gt;flatiron.core.dataset -->
<g id="edge18" class="edge">
<title>sklearn.model_selection&#45;&gt;flatiron.core.dataset</title>
<path fill="none" stroke="#de958e" d="M575.25,-36.11C581.11,-38.69 586.76,-41.64 592,-45 644.55,-78.73 686.23,-140.64 707.19,-176.12"/>
<polygon fill="#de958e" stroke="#de958e" points="704.27,-178.06 712.3,-184.96 710.33,-174.55 704.27,-178.06"/>
</g>
<!-- tqdm.notebook -->
<g id="node17" class="node">
<title>tqdm.notebook</title>
<polygon fill="#343434" stroke="#343434" points="551,-328 427,-328 427,-292 551,-292 551,-328"/>
<text text-anchor="middle" x="489" y="-306.3" font-family="Courier,monospace" font-size="14.00" fill="#de958e">tqdm.notebook</text>
</g>
<!-- tqdm.notebook&#45;&gt;flatiron.core.dataset -->
<g id="edge19" class="edge">
<title>tqdm.notebook&#45;&gt;flatiron.core.dataset</title>
<path fill="none" stroke="#de958e" d="M551.21,-293.2C564.85,-288.79 579.08,-283.67 592,-278 625.08,-263.48 660.46,-242.69 685.95,-226.68"/>
<polygon fill="#de958e" stroke="#de958e" points="687.96,-229.54 694.53,-221.23 684.21,-223.63 687.96,-229.54"/>
</g>
</g>
</svg>
