<?xml version="1.0" encoding="UTF-8" standalone="no"?>
<!DOCTYPE svg PUBLIC "-//W3C//DTD SVG 1.1//EN"
 "http://www.w3.org/Graphics/SVG/1.1/DTD/svg11.dtd">
<!-- Generated by graphviz version 2.43.0 (0)
 -->
<!-- Title: %3 Pages: 1 -->
<svg width="1455pt" height="1132pt"
 viewBox="0.00 0.00 1455.00 1132.24" xmlns="http://www.w3.org/2000/svg" xmlns:xlink="http://www.w3.org/1999/xlink">
<g id="graph0" class="graph" transform="scale(1 1) rotate(0) translate(4 1128.24)">
<title>%3</title>
<polygon fill="#242424" stroke="transparent" points="-4,4 -4,-1128.24 1451,-1128.24 1451,4 -4,4"/>
<!-- cli -->
<g id="node1" class="node">
<title>cli</title>
<polygon fill="#343434" stroke="#343434" points="68.5,-296.27 14.5,-296.27 14.5,-260.27 68.5,-260.27 68.5,-296.27"/>
<text text-anchor="middle" x="41.5" y="-274.57" font-family="Courier,monospace" font-size="14.00" fill="#b6ecf3">cli</text>
</g>
<!-- flatiron\.command -->
<g id="node2" class="node">
<title>flatiron\.command</title>
<polygon fill="#343434" stroke="#343434" points="268,-573.27 119,-573.27 119,-537.27 268,-537.27 268,-573.27"/>
<text text-anchor="middle" x="193.5" y="-551.57" font-family="Courier,monospace" font-size="14.00" fill="#b6ecf3">flatiron.command</text>
</g>
<!-- flatiron\.core\.config -->
<g id="node3" class="node">
<title>flatiron\.core\.config</title>
<polygon fill="#343434" stroke="#343434" points="967,-1009.27 785,-1009.27 785,-973.27 967,-973.27 967,-1009.27"/>
<text text-anchor="middle" x="876" y="-987.57" font-family="Courier,monospace" font-size="14.00" fill="#b6ecf3">flatiron.core.config</text>
</g>
<!-- flatiron\.core\.pipeline -->
<g id="node6" class="node">
<title>flatiron\.core\.pipeline</title>
<polygon fill="#343434" stroke="#343434" points="1205,-595.27 1007,-595.27 1007,-559.27 1205,-559.27 1205,-595.27"/>
<text text-anchor="middle" x="1106" y="-573.57" font-family="Courier,monospace" font-size="14.00" fill="#b6ecf3">flatiron.core.pipeline</text>
</g>
<!-- flatiron\.core\.config&#45;&gt;flatiron\.core\.pipeline -->
<g id="edge1" class="edge">
<title>flatiron\.core\.config&#45;&gt;flatiron\.core\.pipeline</title>
<path fill="none" stroke="#b6ecf3" d="M886.94,-973.22C923.02,-907.71 1047.14,-682.34 1090.17,-604.2"/>
<polygon fill="#b6ecf3" stroke="#b6ecf3" points="1093.25,-605.87 1095,-595.42 1087.11,-602.49 1093.25,-605.87"/>
</g>
<!-- flatiron\.core\.dataset -->
<g id="node4" class="node">
<title>flatiron\.core\.dataset</title>
<polygon fill="#343434" stroke="#343434" points="971,-687.27 781,-687.27 781,-651.27 971,-651.27 971,-687.27"/>
<text text-anchor="middle" x="876" y="-665.57" font-family="Courier,monospace" font-size="14.00" fill="#b6ecf3">flatiron.core.dataset</text>
</g>
<!-- flatiron\.core\.dataset&#45;&gt;flatiron\.core\.pipeline -->
<g id="edge2" class="edge">
<title>flatiron\.core\.dataset&#45;&gt;flatiron\.core\.pipeline</title>
<path fill="none" stroke="#b6ecf3" d="M932.98,-651.17C945.57,-646.83 958.81,-642.07 971,-637.27 1000.37,-625.73 1032.67,-611.32 1058.2,-599.51"/>
<polygon fill="#b6ecf3" stroke="#b6ecf3" points="1059.69,-602.68 1067.28,-595.29 1056.73,-596.33 1059.69,-602.68"/>
</g>
<!-- flatiron\.core\.logging -->
<g id="node5" class="node">
<title>flatiron\.core\.logging</title>
<polygon fill="#343434" stroke="#343434" points="971,-503.27 781,-503.27 781,-467.27 971,-467.27 971,-503.27"/>
<text text-anchor="middle" x="876" y="-481.57" font-family="Courier,monospace" font-size="14.00" fill="#b6ecf3">flatiron.core.logging</text>
</g>
<!-- flatiron\.core\.logging&#45;&gt;flatiron\.core\.pipeline -->
<g id="edge3" class="edge">
<title>flatiron\.core\.logging&#45;&gt;flatiron\.core\.pipeline</title>
<path fill="none" stroke="#b6ecf3" d="M932.98,-503.38C945.57,-507.71 958.81,-512.48 971,-517.27 1000.37,-528.82 1032.67,-543.23 1058.2,-555.03"/>
<polygon fill="#b6ecf3" stroke="#b6ecf3" points="1056.73,-558.21 1067.28,-559.25 1059.69,-551.86 1056.73,-558.21"/>
</g>
<!-- flatiron\.tf\.models\.unet -->
<g id="node12" class="node">
<title>flatiron\.tf\.models\.unet</title>
<polygon fill="#343434" stroke="#343434" points="1447,-595.27 1241,-595.27 1241,-559.27 1447,-559.27 1447,-595.27"/>
<text text-anchor="middle" x="1344" y="-573.57" font-family="Courier,monospace" font-size="14.00" fill="#b6ecf3">flatiron.tf.models.unet</text>
</g>
<!-- flatiron\.core\.pipeline&#45;&gt;flatiron\.tf\.models\.unet -->
<g id="edge4" class="edge">
<title>flatiron\.core\.pipeline&#45;&gt;flatiron\.tf\.models\.unet</title>
<path fill="none" stroke="#b6ecf3" d="M1205.03,-577.27C1213.5,-577.27 1222.11,-577.27 1230.67,-577.27"/>
<polygon fill="#b6ecf3" stroke="#b6ecf3" points="1230.7,-580.77 1240.7,-577.27 1230.7,-573.77 1230.7,-580.77"/>
</g>
<!-- flatiron\.core\.tools -->
<g id="node7" class="node">
<title>flatiron\.core\.tools</title>
<polygon fill="#343434" stroke="#343434" points="724,-297.27 551,-297.27 551,-261.27 724,-261.27 724,-297.27"/>
<text text-anchor="middle" x="637.5" y="-275.57" font-family="Courier,monospace" font-size="14.00" fill="#b6ecf3">flatiron.core.tools</text>
</g>
<!-- flatiron\.core\.tools&#45;&gt;flatiron\.core\.dataset -->
<g id="edge5" class="edge">
<title>flatiron\.core\.tools&#45;&gt;flatiron\.core\.dataset</title>
<path fill="none" stroke="#b6ecf3" d="M724.22,-290.67C732.05,-294.59 739.21,-299.68 745,-306.27 833.1,-406.45 712.07,-490.06 781,-604.27 791.56,-621.78 808.85,-635.72 825.74,-646.13"/>
<polygon fill="#b6ecf3" stroke="#b6ecf3" points="824.1,-649.23 834.5,-651.26 827.63,-643.19 824.1,-649.23"/>
</g>
<!-- flatiron\.core\.tools&#45;&gt;flatiron\.core\.logging -->
<g id="edge6" class="edge">
<title>flatiron\.core\.tools&#45;&gt;flatiron\.core\.logging</title>
<path fill="none" stroke="#b6ecf3" d="M724.01,-292.38C731.68,-296 738.86,-300.55 745,-306.27 782.33,-341.05 751.16,-373.89 781,-415.27 794.5,-433.99 814.5,-449.87 832.58,-461.74"/>
<polygon fill="#b6ecf3" stroke="#b6ecf3" points="830.94,-464.85 841.26,-467.25 834.69,-458.94 830.94,-464.85"/>
</g>
<!-- flatiron\.core\.tools&#45;&gt;flatiron\.core\.pipeline -->
<g id="edge7" class="edge">
<title>flatiron\.core\.tools&#45;&gt;flatiron\.core\.pipeline</title>
<path fill="none" stroke="#b6ecf3" d="M724.23,-293.84C731.68,-297.18 738.75,-301.27 745,-306.27 772.62,-328.38 753.37,-355.18 781,-377.27 849.03,-431.66 896.65,-379.91 971,-425.27 1023.38,-457.23 1066.58,-516.2 1088.8,-550.54"/>
<polygon fill="#b6ecf3" stroke="#b6ecf3" points="1085.94,-552.55 1094.25,-559.11 1091.85,-548.8 1085.94,-552.55"/>
</g>
<!-- flatiron\.tf\.loss -->
<g id="node10" class="node">
<title>flatiron\.tf\.loss</title>
<polygon fill="#343434" stroke="#343434" points="950.5,-243.27 801.5,-243.27 801.5,-207.27 950.5,-207.27 950.5,-243.27"/>
<text text-anchor="middle" x="876" y="-221.57" font-family="Courier,monospace" font-size="14.00" fill="#b6ecf3">flatiron.tf.loss</text>
</g>
<!-- flatiron\.core\.tools&#45;&gt;flatiron\.tf\.loss -->
<g id="edge8" class="edge">
<title>flatiron\.core\.tools&#45;&gt;flatiron\.tf\.loss</title>
<path fill="none" stroke="#b6ecf3" d="M717.58,-261.22C741.3,-255.8 767.4,-249.84 791.4,-244.36"/>
<polygon fill="#b6ecf3" stroke="#b6ecf3" points="792.22,-247.76 801.19,-242.13 790.66,-240.94 792.22,-247.76"/>
</g>
<!-- flatiron\.tf\.metric -->
<g id="node11" class="node">
<title>flatiron\.tf\.metric</title>
<polygon fill="#343434" stroke="#343434" points="958.5,-335.27 793.5,-335.27 793.5,-299.27 958.5,-299.27 958.5,-335.27"/>
<text text-anchor="middle" x="876" y="-313.57" font-family="Courier,monospace" font-size="14.00" fill="#b6ecf3">flatiron.tf.metric</text>
</g>
<!-- flatiron\.core\.tools&#45;&gt;flatiron\.tf\.metric -->
<g id="edge9" class="edge">
<title>flatiron\.core\.tools&#45;&gt;flatiron\.tf\.metric</title>
<path fill="none" stroke="#b6ecf3" d="M724.22,-293.05C743.35,-296.12 763.72,-299.39 783.1,-302.51"/>
<polygon fill="#b6ecf3" stroke="#b6ecf3" points="782.7,-305.99 793.13,-304.12 783.81,-299.08 782.7,-305.99"/>
</g>
<!-- flatiron\.core\.tools&#45;&gt;flatiron\.tf\.models\.unet -->
<g id="edge10" class="edge">
<title>flatiron\.core\.tools&#45;&gt;flatiron\.tf\.models\.unet</title>
<path fill="none" stroke="#b6ecf3" d="M724.23,-296.36C731.47,-299.18 738.5,-302.46 745,-306.27 765.07,-318.04 760.5,-333.28 781,-344.27 856.53,-384.77 889.99,-349.29 971,-377.27 1102.72,-422.78 1243.9,-510.95 1307.89,-553.36"/>
<polygon fill="#b6ecf3" stroke="#b6ecf3" points="1306.14,-556.4 1316.4,-559.03 1310.02,-550.57 1306.14,-556.4"/>
</g>
<!-- flatiron\.tf\.optimizer -->
<g id="node13" class="node">
<title>flatiron\.tf\.optimizer</title>
<polygon fill="#343434" stroke="#343434" points="971,-189.27 781,-189.27 781,-153.27 971,-153.27 971,-189.27"/>
<text text-anchor="middle" x="876" y="-167.57" font-family="Courier,monospace" font-size="14.00" fill="#b6ecf3">flatiron.tf.optimizer</text>
</g>
<!-- flatiron\.core\.tools&#45;&gt;flatiron\.tf\.optimizer -->
<g id="edge11" class="edge">
<title>flatiron\.core\.tools&#45;&gt;flatiron\.tf\.optimizer</title>
<path fill="none" stroke="#b6ecf3" d="M724.17,-263.68C731.54,-260.55 738.61,-256.79 745,-252.27 768.55,-235.62 757.71,-215.3 781,-198.27 782.89,-196.89 784.86,-195.58 786.87,-194.33"/>
<polygon fill="#b6ecf3" stroke="#b6ecf3" points="788.97,-197.17 796.05,-189.28 785.6,-191.04 788.97,-197.17"/>
</g>
<!-- flatiron\.tf\.tools -->
<g id="node14" class="node">
<title>flatiron\.tf\.tools</title>
<polygon fill="#343434" stroke="#343434" points="954.5,-135.27 797.5,-135.27 797.5,-99.27 954.5,-99.27 954.5,-135.27"/>
<text text-anchor="middle" x="876" y="-113.57" font-family="Courier,monospace" font-size="14.00" fill="#b6ecf3">flatiron.tf.tools</text>
</g>
<!-- flatiron\.core\.tools&#45;&gt;flatiron\.tf\.tools -->
<g id="edge12" class="edge">
<title>flatiron\.core\.tools&#45;&gt;flatiron\.tf\.tools</title>
<path fill="none" stroke="#b6ecf3" d="M724.25,-266.02C731.83,-262.43 738.92,-257.92 745,-252.27 782.07,-217.83 744.48,-179.29 781,-144.27 783.39,-141.98 785.96,-139.88 788.67,-137.96"/>
<polygon fill="#b6ecf3" stroke="#b6ecf3" points="790.51,-140.94 797.18,-132.7 786.84,-134.98 790.51,-140.94"/>
</g>
<!-- flatiron\.core\.types -->
<g id="node8" class="node">
<title>flatiron\.core\.types</title>
<polygon fill="#343434" stroke="#343434" points="485.5,-519.27 312.5,-519.27 312.5,-483.27 485.5,-483.27 485.5,-519.27"/>
<text text-anchor="middle" x="399" y="-497.57" font-family="Courier,monospace" font-size="14.00" fill="#b6ecf3">flatiron.core.types</text>
</g>
<!-- flatiron\.core\.types&#45;&gt;flatiron\.core\.dataset -->
<g id="edge13" class="edge">
<title>flatiron\.core\.types&#45;&gt;flatiron\.core\.dataset</title>
<path fill="none" stroke="#b6ecf3" d="M485.61,-491.21C561.49,-487.04 671.39,-493.17 745,-550.27 778.06,-575.92 750.48,-608.65 781,-637.27 784.51,-640.56 788.37,-643.52 792.46,-646.17"/>
<polygon fill="#b6ecf3" stroke="#b6ecf3" points="790.75,-649.22 801.16,-651.19 794.25,-643.16 790.75,-649.22"/>
</g>
<!-- flatiron\.core\.types&#45;&gt;flatiron\.core\.pipeline -->
<g id="edge14" class="edge">
<title>flatiron\.core\.types&#45;&gt;flatiron\.core\.pipeline</title>
<path fill="none" stroke="#b6ecf3" d="M402.4,-519.42C410.12,-569.52 439.33,-709.76 530,-766.27 698.42,-871.24 798.12,-793.72 971,-696.27 1015.16,-671.38 1057.38,-629.98 1082.25,-603.16"/>
<polygon fill="#b6ecf3" stroke="#b6ecf3" points="1084.93,-605.41 1089.09,-595.67 1079.76,-600.69 1084.93,-605.41"/>
</g>
<!-- flatiron\.core\.types&#45;&gt;flatiron\.core\.tools -->
<g id="edge15" class="edge">
<title>flatiron\.core\.types&#45;&gt;flatiron\.core\.tools</title>
<path fill="none" stroke="#b6ecf3" d="M437.83,-483.24C457.25,-472.2 479.75,-456.33 494,-436.27 528.74,-387.41 487.15,-348.2 530,-306.27 533.6,-302.75 537.6,-299.66 541.86,-296.97"/>
<polygon fill="#b6ecf3" stroke="#b6ecf3" points="543.89,-299.84 550.96,-291.95 540.51,-293.71 543.89,-299.84"/>
</g>
<!-- flatiron\.core\.types&#45;&gt;flatiron\.tf\.tools -->
<g id="edge16" class="edge">
<title>flatiron\.core\.types&#45;&gt;flatiron\.tf\.tools</title>
<path fill="none" stroke="#b6ecf3" d="M441.13,-483.07C460.45,-472.32 481.87,-456.76 494,-436.27 533.4,-369.76 472.58,-142.03 530,-90.27 566.94,-56.98 700.37,-78.03 790.05,-97.07"/>
<polygon fill="#b6ecf3" stroke="#b6ecf3" points="789.44,-100.52 799.95,-99.2 790.91,-93.67 789.44,-100.52"/>
</g>
<!-- flatiron\.core\.validators -->
<g id="node9" class="node">
<title>flatiron\.core\.validators</title>
<polygon fill="#343434" stroke="#343434" points="745,-1109.27 530,-1109.27 530,-1073.27 745,-1073.27 745,-1109.27"/>
<text text-anchor="middle" x="637.5" y="-1087.57" font-family="Courier,monospace" font-size="14.00" fill="#b6ecf3">flatiron.core.validators</text>
</g>
<!-- flatiron\.core\.validators&#45;&gt;flatiron\.core\.config -->
<g id="edge17" class="edge">
<title>flatiron\.core\.validators&#45;&gt;flatiron\.core\.config</title>
<path fill="none" stroke="#b6ecf3" d="M719.19,-1073.23C728,-1070.55 736.76,-1067.56 745,-1064.27 778.33,-1050.96 813.69,-1030.66 839.1,-1014.84"/>
<polygon fill="#b6ecf3" stroke="#b6ecf3" points="841.06,-1017.74 847.66,-1009.45 837.33,-1011.82 841.06,-1017.74"/>
</g>
<!-- flatiron\.core\.validators&#45;&gt;flatiron\.tf\.models\.unet -->
<g id="edge18" class="edge">
<title>flatiron\.core\.validators&#45;&gt;flatiron\.tf\.models\.unet</title>
<path fill="none" stroke="#b6ecf3" d="M745.16,-1102.29C872.21,-1109.09 1082.61,-1099.34 1205,-980.27 1313.91,-874.32 1336.89,-678.87 1341.72,-605.81"/>
<polygon fill="#b6ecf3" stroke="#b6ecf3" points="1345.23,-605.75 1342.33,-595.56 1338.24,-605.33 1345.23,-605.75"/>
</g>
<!-- click -->
<g id="node15" class="node">
<title>click</title>
<polygon fill="#343434" stroke="#343434" points="70.5,-573.27 12.5,-573.27 12.5,-537.27 70.5,-537.27 70.5,-573.27"/>
<text text-anchor="middle" x="41.5" y="-551.57" font-family="Courier,monospace" font-size="14.00" fill="#de958e">click</text>
</g>
<!-- click&#45;&gt;flatiron\.command -->
<g id="edge19" class="edge">
<title>click&#45;&gt;flatiron\.command</title>
<path fill="none" stroke="#de958e" d="M70.71,-555.27C81.78,-555.27 95.1,-555.27 108.82,-555.27"/>
<polygon fill="#de958e" stroke="#de958e" points="108.85,-558.77 118.85,-555.27 108.85,-551.77 108.85,-558.77"/>
</g>
<!-- flatiron\.tf\.models -->
<g id="node16" class="node">
<title>flatiron\.tf\.models</title>
<polygon fill="#343434" stroke="#343434" points="958.5,-81.27 793.5,-81.27 793.5,-45.27 958.5,-45.27 958.5,-81.27"/>
<text text-anchor="middle" x="876" y="-59.57" font-family="Courier,monospace" font-size="14.00" fill="#a0d17b">flatiron.tf.models</text>
</g>
<!-- flatiron\.tf\.models&#45;&gt;flatiron\.tf\.models\.unet -->
<g id="edge20" class="edge">
<title>flatiron\.tf\.models&#45;&gt;flatiron\.tf\.models\.unet</title>
<path fill="none" stroke="#a0d17b" d="M949.28,-81.29C956.75,-83.96 964.12,-86.95 971,-90.27 1086.06,-145.82 1124.75,-157.85 1205,-257.27 1280.1,-350.32 1321.49,-490.42 1336.46,-549.47"/>
<polygon fill="#a0d17b" stroke="#a0d17b" points="1333.07,-550.33 1338.87,-559.2 1339.87,-548.65 1333.07,-550.33"/>
</g>
<!-- schematics\.exceptions -->
<g id="node17" class="node">
<title>schematics\.exceptions</title>
<polygon fill="#343434" stroke="#343434" points="494,-1063.27 304,-1063.27 304,-1027.27 494,-1027.27 494,-1063.27"/>
<text text-anchor="middle" x="399" y="-1041.57" font-family="Courier,monospace" font-size="14.00" fill="#de958e">schematics.exceptions</text>
</g>
<!-- schematics\.exceptions&#45;&gt;flatiron\.core\.validators -->
<g id="edge21" class="edge">
<title>schematics\.exceptions&#45;&gt;flatiron\.core\.validators</title>
<path fill="none" stroke="#de958e" d="M492.79,-1063.32C506.23,-1065.93 520.12,-1068.64 533.73,-1071.28"/>
<polygon fill="#de958e" stroke="#de958e" points="533.1,-1074.73 543.59,-1073.2 534.44,-1067.86 533.1,-1074.73"/>
</g>
<!-- schematics\.models -->
<g id="node18" class="node">
<title>schematics\.models</title>
<polygon fill="#343434" stroke="#343434" points="954.5,-595.27 797.5,-595.27 797.5,-559.27 954.5,-559.27 954.5,-595.27"/>
<text text-anchor="middle" x="876" y="-573.57" font-family="Courier,monospace" font-size="14.00" fill="#de958e">schematics.models</text>
</g>
<!-- schematics\.models&#45;&gt;flatiron\.core\.pipeline -->
<g id="edge22" class="edge">
<title>schematics\.models&#45;&gt;flatiron\.core\.pipeline</title>
<path fill="none" stroke="#de958e" d="M954.51,-577.27C968.01,-577.27 982.28,-577.27 996.44,-577.27"/>
<polygon fill="#de958e" stroke="#de958e" points="996.71,-580.77 1006.71,-577.27 996.71,-573.77 996.71,-580.77"/>
</g>
<!-- schematics\.types -->
<g id="node19" class="node">
<title>schematics\.types</title>
<polygon fill="#343434" stroke="#343434" points="712,-1055.27 563,-1055.27 563,-1019.27 712,-1019.27 712,-1055.27"/>
<text text-anchor="middle" x="637.5" y="-1033.57" font-family="Courier,monospace" font-size="14.00" fill="#de958e">schematics.types</text>
</g>
<!-- schematics\.types&#45;&gt;flatiron\.core\.config -->
<g id="edge23" class="edge">
<title>schematics\.types&#45;&gt;flatiron\.core\.config</title>
<path fill="none" stroke="#de958e" d="M712.03,-1022.97C731.93,-1019.1 753.81,-1014.84 774.91,-1010.74"/>
<polygon fill="#de958e" stroke="#de958e" points="775.71,-1014.15 784.86,-1008.81 774.37,-1007.28 775.71,-1014.15"/>
</g>
<!-- schematics\.types&#45;&gt;flatiron\.tf\.models\.unet -->
<g id="edge24" class="edge">
<title>schematics\.types&#45;&gt;flatiron\.tf\.models\.unet</title>
<path fill="none" stroke="#de958e" d="M712.18,-1044.77C833.35,-1052.67 1074.25,-1048.94 1205,-914.27 1293.05,-823.58 1327.74,-669 1338.71,-605.63"/>
<polygon fill="#de958e" stroke="#de958e" points="1342.2,-606.02 1340.38,-595.58 1335.29,-604.87 1342.2,-606.02"/>
</g>
<!-- schematics -->
<g id="node20" class="node">
<title>schematics</title>
<polygon fill="#343434" stroke="#343434" points="687,-963.27 588,-963.27 588,-927.27 687,-927.27 687,-963.27"/>
<text text-anchor="middle" x="637.5" y="-941.57" font-family="Courier,monospace" font-size="14.00" fill="#de958e">schematics</text>
</g>
<!-- schematics&#45;&gt;flatiron\.core\.config -->
<g id="edge25" class="edge">
<title>schematics&#45;&gt;flatiron\.core\.config</title>
<path fill="none" stroke="#de958e" d="M687.22,-954.75C712.49,-959.66 744.32,-965.86 774.57,-971.74"/>
<polygon fill="#de958e" stroke="#de958e" points="774.27,-975.25 784.76,-973.72 775.61,-968.37 774.27,-975.25"/>
</g>
<!-- schematics&#45;&gt;flatiron\.tf\.models\.unet -->
<g id="edge26" class="edge">
<title>schematics&#45;&gt;flatiron\.tf\.models\.unet</title>
<path fill="none" stroke="#de958e" d="M687.22,-945.17C809.03,-944 1122.93,-935.12 1205,-875.27 1296.48,-808.57 1329.07,-666.04 1339.09,-605.46"/>
<polygon fill="#de958e" stroke="#de958e" points="1342.57,-605.89 1340.66,-595.47 1335.65,-604.8 1342.57,-605.89"/>
</g>
<!-- tqdm\.notebook -->
<g id="node21" class="node">
<title>tqdm\.notebook</title>
<polygon fill="#343434" stroke="#343434" points="699.5,-757.27 575.5,-757.27 575.5,-721.27 699.5,-721.27 699.5,-757.27"/>
<text text-anchor="middle" x="637.5" y="-735.57" font-family="Courier,monospace" font-size="14.00" fill="#de958e">tqdm.notebook</text>
</g>
<!-- tqdm\.notebook&#45;&gt;flatiron\.core\.dataset -->
<g id="edge27" class="edge">
<title>tqdm\.notebook&#45;&gt;flatiron\.core\.dataset</title>
<path fill="none" stroke="#de958e" d="M699.53,-724.59C714.46,-720.79 730.35,-716.55 745,-712.27 767.56,-705.69 792.08,-697.78 813.69,-690.55"/>
<polygon fill="#de958e" stroke="#de958e" points="815.03,-693.79 823.39,-687.28 812.8,-687.15 815.03,-693.79"/>
</g>
<!-- flatiron -->
<g id="node22" class="node">
<title>flatiron</title>
<polygon fill="#343434" stroke="#343434" points="83,-350.27 0,-350.27 0,-314.27 83,-314.27 83,-350.27"/>
<text text-anchor="middle" x="41.5" y="-328.57" font-family="Courier,monospace" font-size="14.00" fill="#a0d17b">flatiron</text>
</g>
<!-- flatiron&#45;&gt;flatiron\.command -->
<g id="edge28" class="edge">
<title>flatiron&#45;&gt;flatiron\.command</title>
<path fill="none" stroke="#a0d17b" d="M44.59,-350.39C49.92,-388.54 67.48,-477.77 119,-528.27 119.96,-529.21 120.95,-530.11 121.97,-530.99"/>
<polygon fill="#a0d17b" stroke="#a0d17b" points="120.2,-534.03 130.34,-537.09 124.33,-528.37 120.2,-534.03"/>
</g>
<!-- flatiron&#45;&gt;flatiron\.tf\.models -->
<g id="edge29" class="edge">
<title>flatiron&#45;&gt;flatiron\.tf\.models</title>
<path fill="none" stroke="#a0d17b" d="M74.37,-314.13C77.56,-311.45 80.53,-308.49 83,-305.27 113.31,-265.82 83.45,-234.08 119,-199.27 255.89,-65.23 340.92,-100.15 530,-69.27 614.95,-55.4 713.22,-55.21 783.1,-57.71"/>
<polygon fill="#a0d17b" stroke="#a0d17b" points="783.07,-61.21 793.2,-58.1 783.34,-54.22 783.07,-61.21"/>
</g>
<!-- flatiron\.core -->
<g id="node26" class="node">
<title>flatiron\.core</title>
<polygon fill="#343434" stroke="#343434" points="255.5,-519.27 131.5,-519.27 131.5,-483.27 255.5,-483.27 255.5,-519.27"/>
<text text-anchor="middle" x="193.5" y="-497.57" font-family="Courier,monospace" font-size="14.00" fill="#a0d17b">flatiron.core</text>
</g>
<!-- flatiron&#45;&gt;flatiron\.core -->
<g id="edge30" class="edge">
<title>flatiron&#45;&gt;flatiron\.core</title>
<path fill="none" stroke="#a0d17b" d="M58.55,-350.36C85.21,-380.39 138.71,-440.67 169.42,-475.26"/>
<polygon fill="#a0d17b" stroke="#a0d17b" points="167.08,-477.91 176.34,-483.06 172.32,-473.26 167.08,-477.91"/>
</g>
<!-- flatiron\.tf -->
<g id="node27" class="node">
<title>flatiron\.tf</title>
<polygon fill="#343434" stroke="#343434" points="691,-189.27 584,-189.27 584,-153.27 691,-153.27 691,-189.27"/>
<text text-anchor="middle" x="637.5" y="-167.57" font-family="Courier,monospace" font-size="14.00" fill="#a0d17b">flatiron.tf</text>
</g>
<!-- flatiron&#45;&gt;flatiron\.tf -->
<g id="edge31" class="edge">
<title>flatiron&#45;&gt;flatiron\.tf</title>
<path fill="none" stroke="#a0d17b" d="M71.23,-314.13C128.43,-278.4 255.19,-201.16 304,-187.27 395.07,-161.36 505.76,-162.06 573.66,-165.93"/>
<polygon fill="#a0d17b" stroke="#a0d17b" points="573.57,-169.43 583.77,-166.54 574,-162.44 573.57,-169.43"/>
</g>
<!-- humanfriendly -->
<g id="node23" class="node">
<title>humanfriendly</title>
<polygon fill="#343434" stroke="#343434" points="699.5,-703.27 575.5,-703.27 575.5,-667.27 699.5,-667.27 699.5,-703.27"/>
<text text-anchor="middle" x="637.5" y="-681.57" font-family="Courier,monospace" font-size="14.00" fill="#de958e">humanfriendly</text>
</g>
<!-- humanfriendly&#45;&gt;flatiron\.core\.dataset -->
<g id="edge32" class="edge">
<title>humanfriendly&#45;&gt;flatiron\.core\.dataset</title>
<path fill="none" stroke="#de958e" d="M699.71,-681.13C721.27,-679.67 746.15,-677.99 770.27,-676.36"/>
<polygon fill="#de958e" stroke="#de958e" points="770.81,-679.83 780.55,-675.66 770.34,-672.85 770.81,-679.83"/>
</g>
<!-- pandas -->
<g id="node24" class="node">
<title>pandas</title>
<polygon fill="#343434" stroke="#343434" points="670.5,-649.27 604.5,-649.27 604.5,-613.27 670.5,-613.27 670.5,-649.27"/>
<text text-anchor="middle" x="637.5" y="-627.57" font-family="Courier,monospace" font-size="14.00" fill="#de958e">pandas</text>
</g>
<!-- pandas&#45;&gt;flatiron\.core\.dataset -->
<g id="edge33" class="edge">
<title>pandas&#45;&gt;flatiron\.core\.dataset</title>
<path fill="none" stroke="#de958e" d="M670.89,-636.48C696.79,-640.64 734.62,-646.72 770.69,-652.51"/>
<polygon fill="#de958e" stroke="#de958e" points="770.38,-656.01 780.81,-654.14 771.49,-649.1 770.38,-656.01"/>
</g>
<!-- sklearn\.model_selection -->
<g id="node25" class="node">
<title>sklearn\.model_selection</title>
<polygon fill="#343434" stroke="#343434" points="740.5,-595.27 534.5,-595.27 534.5,-559.27 740.5,-559.27 740.5,-595.27"/>
<text text-anchor="middle" x="637.5" y="-573.57" font-family="Courier,monospace" font-size="14.00" fill="#de958e">sklearn.model_selection</text>
</g>
<!-- sklearn\.model_selection&#45;&gt;flatiron\.core\.dataset -->
<g id="edge34" class="edge">
<title>sklearn\.model_selection&#45;&gt;flatiron\.core\.dataset</title>
<path fill="none" stroke="#de958e" d="M725.06,-595.28C731.97,-597.89 738.71,-600.87 745,-604.27 764.1,-614.59 762.33,-626.21 781,-637.27 787.22,-640.96 793.92,-644.3 800.79,-647.3"/>
<polygon fill="#de958e" stroke="#de958e" points="799.64,-650.61 810.21,-651.19 802.31,-644.14 799.64,-650.61"/>
</g>
<!-- flatiron\.core&#45;&gt;flatiron\.core\.config -->
<g id="edge35" class="edge">
<title>flatiron\.core&#45;&gt;flatiron\.core\.config</title>
<path fill="none" stroke="#a0d17b" d="M255.74,-517.09C260.39,-520.17 264.59,-523.86 268,-528.27 368.77,-658.65 201.18,-768.51 304,-897.27 361.18,-968.89 626.84,-986.17 774.81,-990.19"/>
<polygon fill="#a0d17b" stroke="#a0d17b" points="774.73,-993.69 784.81,-990.44 774.91,-986.69 774.73,-993.69"/>
</g>
<!-- flatiron\.core&#45;&gt;flatiron\.core\.dataset -->
<g id="edge36" class="edge">
<title>flatiron\.core&#45;&gt;flatiron\.core\.dataset</title>
<path fill="none" stroke="#a0d17b" d="M255.67,-517.14C260.34,-520.21 264.56,-523.89 268,-528.27 312.43,-584.93 250.33,-802.27 304,-850.27 450.88,-981.65 571.38,-897.5 745,-804.27 793.74,-778.1 835.08,-727.15 857.35,-695.87"/>
<polygon fill="#a0d17b" stroke="#a0d17b" points="860.26,-697.82 863.12,-687.61 854.52,-693.81 860.26,-697.82"/>
</g>
<!-- flatiron\.core&#45;&gt;flatiron\.core\.logging -->
<g id="edge37" class="edge">
<title>flatiron\.core&#45;&gt;flatiron\.core\.logging</title>
<path fill="none" stroke="#a0d17b" d="M255.69,-483.42C271.31,-479.63 288.16,-476.2 304,-474.27 466.07,-454.59 655.87,-464.77 770.69,-474.55"/>
<polygon fill="#a0d17b" stroke="#a0d17b" points="770.61,-478.06 780.87,-475.43 771.21,-471.08 770.61,-478.06"/>
</g>
<!-- flatiron\.core&#45;&gt;flatiron\.core\.pipeline -->
<g id="edge38" class="edge">
<title>flatiron\.core&#45;&gt;flatiron\.core\.pipeline</title>
<path fill="none" stroke="#a0d17b" d="M255.74,-518.76C271.35,-522.56 288.19,-526.09 304,-528.27 597.81,-568.89 676.38,-515.97 971,-550.27 985.89,-552.01 1001.59,-554.53 1016.79,-557.34"/>
<polygon fill="#a0d17b" stroke="#a0d17b" points="1016.22,-560.8 1026.7,-559.23 1017.53,-553.92 1016.22,-560.8"/>
</g>
<!-- flatiron\.core&#45;&gt;flatiron\.core\.tools -->
<g id="edge39" class="edge">
<title>flatiron\.core&#45;&gt;flatiron\.core\.tools</title>
<path fill="none" stroke="#a0d17b" d="M195.06,-482.95C197.77,-430.95 213.44,-282.17 304,-220.27 373.71,-172.62 415.07,-190.26 494,-220.27 514.01,-227.88 511.09,-242.25 530,-252.27 533.7,-254.23 537.54,-256.05 541.48,-257.75"/>
<polygon fill="#a0d17b" stroke="#a0d17b" points="540.24,-261.02 550.83,-261.47 542.84,-254.52 540.24,-261.02"/>
</g>
<!-- flatiron\.core&#45;&gt;flatiron\.core\.types -->
<g id="edge40" class="edge">
<title>flatiron\.core&#45;&gt;flatiron\.core\.types</title>
<path fill="none" stroke="#a0d17b" d="M255.56,-501.27C270.15,-501.27 286.09,-501.27 301.85,-501.27"/>
<polygon fill="#a0d17b" stroke="#a0d17b" points="302.16,-504.77 312.16,-501.27 302.16,-497.77 302.16,-504.77"/>
</g>
<!-- flatiron\.core&#45;&gt;flatiron\.core\.validators -->
<g id="edge41" class="edge">
<title>flatiron\.core&#45;&gt;flatiron\.core\.validators</title>
<path fill="none" stroke="#a0d17b" d="M255.54,-516.75C260.3,-519.9 264.58,-523.7 268,-528.27 340.59,-625.27 217.95,-986.99 304,-1072.27 371.31,-1138.98 488.71,-1128.06 564.48,-1111.57"/>
<polygon fill="#a0d17b" stroke="#a0d17b" points="565.45,-1114.94 574.43,-1109.32 563.9,-1108.11 565.45,-1114.94"/>
</g>
<!-- flatiron\.tf&#45;&gt;flatiron\.tf\.loss -->
<g id="edge42" class="edge">
<title>flatiron\.tf&#45;&gt;flatiron\.tf\.loss</title>
<path fill="none" stroke="#a0d17b" d="M691.28,-183.32C720.77,-190.06 758.19,-198.6 791.56,-206.22"/>
<polygon fill="#a0d17b" stroke="#a0d17b" points="790.78,-209.63 801.31,-208.45 792.34,-202.81 790.78,-209.63"/>
</g>
<!-- flatiron\.tf&#45;&gt;flatiron\.tf\.metric -->
<g id="edge43" class="edge">
<title>flatiron\.tf&#45;&gt;flatiron\.tf\.metric</title>
<path fill="none" stroke="#a0d17b" d="M691.05,-176.75C709.38,-180.6 729.27,-187.15 745,-198.27 768.55,-214.93 760.78,-231.7 781,-252.27 796.52,-268.06 816.36,-282.43 833.81,-293.62"/>
<polygon fill="#a0d17b" stroke="#a0d17b" points="832.35,-296.83 842.69,-299.17 836.07,-290.9 832.35,-296.83"/>
</g>
<!-- flatiron\.tf&#45;&gt;flatiron\.tf\.optimizer -->
<g id="edge44" class="edge">
<title>flatiron\.tf&#45;&gt;flatiron\.tf\.optimizer</title>
<path fill="none" stroke="#a0d17b" d="M691.28,-171.27C714.8,-171.27 743.37,-171.27 770.9,-171.27"/>
<polygon fill="#a0d17b" stroke="#a0d17b" points="770.99,-174.77 780.99,-171.27 770.99,-167.77 770.99,-174.77"/>
</g>
<!-- flatiron\.tf&#45;&gt;flatiron\.tf\.tools -->
<g id="edge45" class="edge">
<title>flatiron\.tf&#45;&gt;flatiron\.tf\.tools</title>
<path fill="none" stroke="#a0d17b" d="M691.28,-159.22C719.53,-152.77 755.07,-144.66 787.34,-137.29"/>
<polygon fill="#a0d17b" stroke="#a0d17b" points="788.27,-140.67 797.24,-135.03 786.71,-133.84 788.27,-140.67"/>
</g>
<!-- flatiron\.tf&#45;&gt;flatiron\.tf\.models -->
<g id="edge46" class="edge">
<title>flatiron\.tf&#45;&gt;flatiron\.tf\.models</title>
<path fill="none" stroke="#a0d17b" d="M691.05,-165.8C709.38,-161.95 729.27,-155.4 745,-144.27 768.55,-127.62 757.71,-107.3 781,-90.27 782.89,-88.89 784.86,-87.58 786.87,-86.33"/>
<polygon fill="#a0d17b" stroke="#a0d17b" points="788.97,-89.17 796.05,-81.28 785.6,-83.04 788.97,-89.17"/>
</g>
<!-- lunchbox\.tools -->
<g id="node28" class="node">
<title>lunchbox\.tools</title>
<polygon fill="#343434" stroke="#343434" points="465,-427.27 333,-427.27 333,-391.27 465,-391.27 465,-427.27"/>
<text text-anchor="middle" x="399" y="-405.57" font-family="Courier,monospace" font-size="14.00" fill="#de958e">lunchbox.tools</text>
</g>
<!-- lunchbox\.tools&#45;&gt;flatiron\.core\.logging -->
<g id="edge47" class="edge">
<title>lunchbox\.tools&#45;&gt;flatiron\.core\.logging</title>
<path fill="none" stroke="#de958e" d="M465.22,-410.79C535.1,-413.47 648.95,-420.86 745,-441.27 745.95,-441.47 779.53,-452.84 812.33,-463.97"/>
<polygon fill="#de958e" stroke="#de958e" points="811.39,-467.35 821.98,-467.25 813.64,-460.72 811.39,-467.35"/>
</g>
<!-- lunchbox\.tools&#45;&gt;flatiron\.core\.tools -->
<g id="edge48" class="edge">
<title>lunchbox\.tools&#45;&gt;flatiron\.core\.tools</title>
<path fill="none" stroke="#de958e" d="M465.34,-398.36C475.7,-394.51 485.72,-389.31 494,-382.27 522.49,-358.08 501.14,-330.02 530,-306.27 533.72,-303.21 537.74,-300.5 541.96,-298.08"/>
<polygon fill="#de958e" stroke="#de958e" points="543.57,-301.19 550.89,-293.54 540.39,-294.95 543.57,-301.19"/>
</g>
<!-- pytz -->
<g id="node29" class="node">
<title>pytz</title>
<polygon fill="#343434" stroke="#343434" points="426,-319.27 372,-319.27 372,-283.27 426,-283.27 426,-319.27"/>
<text text-anchor="middle" x="399" y="-297.57" font-family="Courier,monospace" font-size="14.00" fill="#de958e">pytz</text>
</g>
<!-- pytz&#45;&gt;flatiron\.core\.tools -->
<g id="edge49" class="edge">
<title>pytz&#45;&gt;flatiron\.core\.tools</title>
<path fill="none" stroke="#de958e" d="M426.21,-298.83C453.88,-296.26 499.13,-292.05 540.59,-288.19"/>
<polygon fill="#de958e" stroke="#de958e" points="541.12,-291.66 550.75,-287.25 540.47,-284.69 541.12,-291.66"/>
</g>
<!-- lunchbox\.enforce -->
<g id="node30" class="node">
<title>lunchbox\.enforce</title>
<polygon fill="#343434" stroke="#343434" points="473.5,-841.27 324.5,-841.27 324.5,-805.27 473.5,-805.27 473.5,-841.27"/>
<text text-anchor="middle" x="399" y="-819.57" font-family="Courier,monospace" font-size="14.00" fill="#de958e">lunchbox.enforce</text>
</g>
<!-- lunchbox\.enforce&#45;&gt;flatiron\.core\.dataset -->
<g id="edge50" class="edge">
<title>lunchbox\.enforce&#45;&gt;flatiron\.core\.dataset</title>
<path fill="none" stroke="#de958e" d="M473.82,-821.14C545.66,-816.78 656.6,-803.89 745,-766.27 785.21,-749.16 824.45,-717.14 849.11,-694.58"/>
<polygon fill="#de958e" stroke="#de958e" points="851.66,-697 856.59,-687.62 846.89,-691.87 851.66,-697"/>
</g>
<!-- lunchbox\.enforce&#45;&gt;flatiron\.core\.tools -->
<g id="edge51" class="edge">
<title>lunchbox\.enforce&#45;&gt;flatiron\.core\.tools</title>
<path fill="none" stroke="#de958e" d="M406.78,-805.24C423.73,-759.54 468.45,-635.18 494,-528.27 517.24,-431.06 462.48,-379.98 530,-306.27 533.57,-302.37 537.62,-299 542,-296.09"/>
<polygon fill="#de958e" stroke="#de958e" points="543.86,-299.05 550.79,-291.04 540.37,-292.99 543.86,-299.05"/>
</g>
<!-- lunchbox\.enforce&#45;&gt;flatiron\.tf\.models\.unet -->
<g id="edge52" class="edge">
<title>lunchbox\.enforce&#45;&gt;flatiron\.tf\.models\.unet</title>
<path fill="none" stroke="#de958e" d="M473.63,-822.23C543.67,-820.53 651.86,-816.05 745,-804.27 846.61,-791.42 873.97,-792.05 971,-759.27 1098.19,-716.31 1237.74,-639.2 1303.96,-600.61"/>
<polygon fill="#de958e" stroke="#de958e" points="1305.94,-603.5 1312.8,-595.43 1302.41,-597.46 1305.94,-603.5"/>
</g>
<!-- lunchbox\.stopwatch -->
<g id="node31" class="node">
<title>lunchbox\.stopwatch</title>
<polygon fill="#343434" stroke="#343434" points="481.5,-265.27 316.5,-265.27 316.5,-229.27 481.5,-229.27 481.5,-265.27"/>
<text text-anchor="middle" x="399" y="-243.57" font-family="Courier,monospace" font-size="14.00" fill="#de958e">lunchbox.stopwatch</text>
</g>
<!-- lunchbox\.stopwatch&#45;&gt;flatiron\.core\.tools -->
<g id="edge53" class="edge">
<title>lunchbox\.stopwatch&#45;&gt;flatiron\.core\.tools</title>
<path fill="none" stroke="#de958e" d="M481.72,-258.33C500.71,-260.9 521.09,-263.66 540.62,-266.3"/>
<polygon fill="#de958e" stroke="#de958e" points="540.37,-269.8 550.75,-267.67 541.31,-262.86 540.37,-269.8"/>
</g>
<!-- yaml -->
<g id="node32" class="node">
<title>yaml</title>
<polygon fill="#343434" stroke="#343434" points="426,-373.27 372,-373.27 372,-337.27 426,-337.27 426,-373.27"/>
<text text-anchor="middle" x="399" y="-351.57" font-family="Courier,monospace" font-size="14.00" fill="#de958e">yaml</text>
</g>
<!-- yaml&#45;&gt;flatiron\.core\.pipeline -->
<g id="edge54" class="edge">
<title>yaml&#45;&gt;flatiron\.core\.pipeline</title>
<path fill="none" stroke="#de958e" d="M426.32,-359.11C531.88,-374.65 921.32,-433.18 971,-458.27 1016.75,-481.38 1059.11,-524.03 1083.5,-551.5"/>
<polygon fill="#de958e" stroke="#de958e" points="1080.97,-553.92 1090.18,-559.15 1086.24,-549.32 1080.97,-553.92"/>
</g>
<!-- yaml&#45;&gt;flatiron\.core\.tools -->
<g id="edge55" class="edge">
<title>yaml&#45;&gt;flatiron\.core\.tools</title>
<path fill="none" stroke="#de958e" d="M426.19,-349.75C445.42,-345.22 471.93,-337.97 494,-328.27 511.17,-320.73 512.72,-313.55 530,-306.27 534.94,-304.19 540.09,-302.24 545.33,-300.42"/>
<polygon fill="#de958e" stroke="#de958e" points="546.44,-303.74 554.84,-297.28 544.25,-297.09 546.44,-303.74"/>
</g>
<!-- numpy -->
<g id="node33" class="node">
<title>numpy</title>
<polygon fill="#343434" stroke="#343434" points="666.5,-351.27 608.5,-351.27 608.5,-315.27 666.5,-315.27 666.5,-351.27"/>
<text text-anchor="middle" x="637.5" y="-329.57" font-family="Courier,monospace" font-size="14.00" fill="#de958e">numpy</text>
</g>
<!-- numpy&#45;&gt;flatiron\.core\.dataset -->
<g id="edge56" class="edge">
<title>numpy&#45;&gt;flatiron\.core\.dataset</title>
<path fill="none" stroke="#de958e" d="M655.69,-351.52C679.41,-377.71 721.87,-428.44 745,-479.27 774.84,-544.82 732.79,-583.76 781,-637.27 783.71,-640.28 786.72,-643.01 789.95,-645.48"/>
<polygon fill="#de958e" stroke="#de958e" points="788.11,-648.47 798.37,-651.12 792,-642.65 788.11,-648.47"/>
</g>
<!-- numpy&#45;&gt;flatiron\.core\.pipeline -->
<g id="edge57" class="edge">
<title>numpy&#45;&gt;flatiron\.core\.pipeline</title>
<path fill="none" stroke="#de958e" d="M653.98,-351.41C676.77,-378.91 719.41,-433.58 745,-486.27 768.95,-535.59 736.93,-571.64 781,-604.27 862.45,-664.58 989.04,-627.01 1057.37,-599.19"/>
<polygon fill="#de958e" stroke="#de958e" points="1058.73,-602.42 1066.62,-595.34 1056.04,-595.95 1058.73,-602.42"/>
</g>
<!-- numpy&#45;&gt;flatiron\.tf\.loss -->
<g id="edge58" class="edge">
<title>numpy&#45;&gt;flatiron\.tf\.loss</title>
<path fill="none" stroke="#de958e" d="M666.85,-328.56C688.77,-324.34 719.55,-317.11 745,-306.27 780.39,-291.2 817.29,-267.3 842.7,-249.36"/>
<polygon fill="#de958e" stroke="#de958e" points="844.75,-252.19 850.85,-243.52 840.68,-246.5 844.75,-252.19"/>
</g>
<!-- numpy&#45;&gt;flatiron\.tf\.metric -->
<g id="edge59" class="edge">
<title>numpy&#45;&gt;flatiron\.tf\.metric</title>
<path fill="none" stroke="#de958e" d="M666.56,-331.37C695.33,-329.43 741.63,-326.3 783.29,-323.48"/>
<polygon fill="#de958e" stroke="#de958e" points="783.75,-326.95 793.49,-322.79 783.28,-319.97 783.75,-326.95"/>
</g>
<!-- keras -->
<g id="node34" class="node">
<title>keras</title>
<polygon fill="#343434" stroke="#343434" points="666.5,-243.27 608.5,-243.27 608.5,-207.27 666.5,-207.27 666.5,-243.27"/>
<text text-anchor="middle" x="637.5" y="-221.57" font-family="Courier,monospace" font-size="14.00" fill="#de958e">keras</text>
</g>
<!-- keras&#45;&gt;flatiron\.tf\.loss -->
<g id="edge60" class="edge">
<title>keras&#45;&gt;flatiron\.tf\.loss</title>
<path fill="none" stroke="#de958e" d="M666.56,-225.27C697.21,-225.27 747.76,-225.27 791.4,-225.27"/>
<polygon fill="#de958e" stroke="#de958e" points="791.46,-228.77 801.46,-225.27 791.46,-221.77 791.46,-228.77"/>
</g>
<!-- keras&#45;&gt;flatiron\.tf\.metric -->
<g id="edge61" class="edge">
<title>keras&#45;&gt;flatiron\.tf\.metric</title>
<path fill="none" stroke="#de958e" d="M666.56,-228.54C688.87,-232.02 720.33,-238.95 745,-252.27 764.1,-262.59 762.33,-274.21 781,-285.27 787.22,-288.96 793.92,-292.3 800.79,-295.3"/>
<polygon fill="#de958e" stroke="#de958e" points="799.64,-298.61 810.21,-299.19 802.31,-292.14 799.64,-298.61"/>
</g>
<!-- keras&#45;&gt;flatiron\.tf\.models\.unet -->
<g id="edge62" class="edge">
<title>keras&#45;&gt;flatiron\.tf\.models\.unet</title>
<path fill="none" stroke="#de958e" d="M666.52,-230.59C743.98,-245.31 956.3,-285.81 971,-290.27 1078.89,-323.04 1116.51,-318.4 1205,-388.27 1262.86,-433.96 1308.03,-509.83 1329.43,-550.15"/>
<polygon fill="#de958e" stroke="#de958e" points="1326.38,-551.88 1334.11,-559.13 1332.59,-548.64 1326.38,-551.88"/>
</g>
<!-- keras&#45;&gt;flatiron\.tf\.optimizer -->
<g id="edge63" class="edge">
<title>keras&#45;&gt;flatiron\.tf\.optimizer</title>
<path fill="none" stroke="#de958e" d="M666.56,-218.87C696.02,-212.14 743.86,-201.22 786.28,-191.53"/>
<polygon fill="#de958e" stroke="#de958e" points="787.11,-194.93 796.08,-189.29 785.56,-188.11 787.11,-194.93"/>
</g>
<!-- keras&#45;&gt;flatiron\.tf\.tools -->
<g id="edge64" class="edge">
<title>keras&#45;&gt;flatiron\.tf\.tools</title>
<path fill="none" stroke="#de958e" d="M666.6,-223.67C689.52,-221.14 721.8,-214.68 745,-198.27 768.55,-181.62 757.71,-161.3 781,-144.27 783.38,-142.53 785.86,-140.91 788.43,-139.39"/>
<polygon fill="#de958e" stroke="#de958e" points="790.26,-142.38 797.46,-134.6 786.98,-136.19 790.26,-142.38"/>
</g>
<!-- tensorflow -->
<g id="node35" class="node">
<title>tensorflow</title>
<polygon fill="#343434" stroke="#343434" points="687,-135.27 588,-135.27 588,-99.27 687,-99.27 687,-135.27"/>
<text text-anchor="middle" x="637.5" y="-113.57" font-family="Courier,monospace" font-size="14.00" fill="#de958e">tensorflow</text>
</g>
<!-- tensorflow&#45;&gt;flatiron\.tf\.loss -->
<g id="edge65" class="edge">
<title>tensorflow&#45;&gt;flatiron\.tf\.loss</title>
<path fill="none" stroke="#de958e" d="M687.26,-121.98C706.6,-125.71 728.18,-132.38 745,-144.27 768.55,-160.93 757.71,-181.25 781,-198.27 784.47,-200.81 788.17,-203.11 792.03,-205.19"/>
<polygon fill="#de958e" stroke="#de958e" points="790.74,-208.46 801.26,-209.67 793.79,-202.16 790.74,-208.46"/>
</g>
<!-- tensorflow&#45;&gt;flatiron\.tf\.metric -->
<g id="edge66" class="edge">
<title>tensorflow&#45;&gt;flatiron\.tf\.metric</title>
<path fill="none" stroke="#de958e" d="M687.1,-119.53C707.21,-122.81 729.42,-129.8 745,-144.27 782.07,-178.71 750.63,-211.8 781,-252.27 793.68,-269.16 812.06,-283.25 829.22,-293.94"/>
<polygon fill="#de958e" stroke="#de958e" points="827.66,-297.08 838.04,-299.21 831.26,-291.08 827.66,-297.08"/>
</g>
<!-- tensorflow&#45;&gt;flatiron\.tf\.models\.unet -->
<g id="edge67" class="edge">
<title>tensorflow&#45;&gt;flatiron\.tf\.models\.unet</title>
<path fill="none" stroke="#de958e" d="M661.53,-99.11C688.41,-79.19 735.06,-48.42 781,-36.27 965.58,12.52 1070.15,29.89 1205,-105.27 1331.12,-231.69 1343.27,-466.62 1343.5,-548.35"/>
<polygon fill="#de958e" stroke="#de958e" points="1340,-548.83 1343.46,-558.84 1347,-548.85 1340,-548.83"/>
</g>
<!-- tensorflow&#45;&gt;flatiron\.tf\.optimizer -->
<g id="edge68" class="edge">
<title>tensorflow&#45;&gt;flatiron\.tf\.optimizer</title>
<path fill="none" stroke="#de958e" d="M687.22,-128.4C715.77,-134.92 752.71,-143.35 786.26,-151.01"/>
<polygon fill="#de958e" stroke="#de958e" points="785.56,-154.44 796.09,-153.25 787.12,-147.62 785.56,-154.44"/>
</g>
<!-- tensorflow&#45;&gt;flatiron\.tf\.tools -->
<g id="edge69" class="edge">
<title>tensorflow&#45;&gt;flatiron\.tf\.tools</title>
<path fill="none" stroke="#de958e" d="M687.22,-117.27C716.01,-117.27 753.34,-117.27 787.13,-117.27"/>
<polygon fill="#de958e" stroke="#de958e" points="787.48,-120.77 797.48,-117.27 787.48,-113.77 787.48,-120.77"/>
</g>
</g>
</svg>
