<?xml version="1.0" encoding="UTF-8" standalone="no"?>
<!DOCTYPE svg PUBLIC "-//W3C//DTD SVG 1.1//EN"
 "http://www.w3.org/Graphics/SVG/1.1/DTD/svg11.dtd">
<!-- Generated by graphviz version 2.43.0 (0)
 -->
<!-- Title: %3 Pages: 1 -->
<svg width="1361pt" height="1143pt"
 viewBox="0.00 0.00 1361.00 1143.00" xmlns="http://www.w3.org/2000/svg" xmlns:xlink="http://www.w3.org/1999/xlink">
<g id="graph0" class="graph" transform="scale(1 1) rotate(0) translate(4 1139)">
<title>%3</title>
<polygon fill="#242424" stroke="transparent" points="-4,4 -4,-1139 1357,-1139 1357,4 -4,4"/>
<!-- cli -->
<g id="node1" class="node">
<title>cli</title>
<polygon fill="#343434" stroke="#343434" points="68.5,-856 14.5,-856 14.5,-820 68.5,-820 68.5,-856"/>
<text text-anchor="middle" x="41.5" y="-834.3" font-family="Courier,monospace" font-size="14.00" fill="#b6ecf3">cli</text>
</g>
<!-- flatiron.core.config -->
<g id="node2" class="node">
<title>flatiron.core.config</title>
<polygon fill="#343434" stroke="#343434" points="847.5,-878 665.5,-878 665.5,-842 847.5,-842 847.5,-878"/>
<text text-anchor="middle" x="756.5" y="-856.3" font-family="Courier,monospace" font-size="14.00" fill="#b6ecf3">flatiron.core.config</text>
</g>
<!-- flatiron.core.pipeline -->
<g id="node7" class="node">
<title>flatiron.core.pipeline</title>
<polygon fill="#343434" stroke="#343434" points="1122.5,-678 924.5,-678 924.5,-642 1122.5,-642 1122.5,-678"/>
<text text-anchor="middle" x="1023.5" y="-656.3" font-family="Courier,monospace" font-size="14.00" fill="#b6ecf3">flatiron.core.pipeline</text>
</g>
<!-- flatiron.core.config&#45;&gt;flatiron.core.pipeline -->
<g id="edge1" class="edge">
<title>flatiron.core.config&#45;&gt;flatiron.core.pipeline</title>
<path fill="none" stroke="#b6ecf3" d="M847.27,-841.93C857.34,-838.12 867.15,-833.54 876,-828 934.53,-791.41 982.63,-724.24 1006.41,-686.87"/>
<polygon fill="#b6ecf3" stroke="#b6ecf3" points="1009.59,-688.39 1011.92,-678.05 1003.65,-684.68 1009.59,-688.39"/>
</g>
<!-- flatiron.core.dataset -->
<g id="node3" class="node">
<title>flatiron.core.dataset</title>
<polygon fill="#343434" stroke="#343434" points="851.5,-496 661.5,-496 661.5,-460 851.5,-460 851.5,-496"/>
<text text-anchor="middle" x="756.5" y="-474.3" font-family="Courier,monospace" font-size="14.00" fill="#b6ecf3">flatiron.core.dataset</text>
</g>
<!-- flatiron.core.dataset&#45;&gt;flatiron.core.pipeline -->
<g id="edge2" class="edge">
<title>flatiron.core.dataset&#45;&gt;flatiron.core.pipeline</title>
<path fill="none" stroke="#b6ecf3" d="M783.88,-496.12C831.99,-529.16 933.99,-599.21 987.72,-636.11"/>
<polygon fill="#b6ecf3" stroke="#b6ecf3" points="986,-639.18 996.23,-641.96 989.97,-633.41 986,-639.18"/>
</g>
<!-- flatiron.core.logging -->
<g id="node4" class="node">
<title>flatiron.core.logging</title>
<polygon fill="#343434" stroke="#343434" points="851.5,-281 661.5,-281 661.5,-245 851.5,-245 851.5,-281"/>
<text text-anchor="middle" x="756.5" y="-259.3" font-family="Courier,monospace" font-size="14.00" fill="#b6ecf3">flatiron.core.logging</text>
</g>
<!-- flatiron.core.logging&#45;&gt;flatiron.core.pipeline -->
<g id="edge3" class="edge">
<title>flatiron.core.logging&#45;&gt;flatiron.core.pipeline</title>
<path fill="none" stroke="#b6ecf3" d="M851.69,-279.4C860.52,-283.51 868.83,-288.63 876,-295 979.69,-387.13 1011.07,-562.86 1019.6,-631.52"/>
<polygon fill="#b6ecf3" stroke="#b6ecf3" points="1016.14,-632.06 1020.78,-641.59 1023.1,-631.25 1016.14,-632.06"/>
</g>
<!-- flatiron.core.loss -->
<g id="node5" class="node">
<title>flatiron.core.loss</title>
<polygon fill="#343434" stroke="#343434" points="839,-786 674,-786 674,-750 839,-750 839,-786"/>
<text text-anchor="middle" x="756.5" y="-764.3" font-family="Courier,monospace" font-size="14.00" fill="#b6ecf3">flatiron.core.loss</text>
</g>
<!-- flatiron.core.loss&#45;&gt;flatiron.core.pipeline -->
<g id="edge4" class="edge">
<title>flatiron.core.loss&#45;&gt;flatiron.core.pipeline</title>
<path fill="none" stroke="#b6ecf3" d="M839.04,-752.61C851.59,-749.33 864.27,-745.48 876,-741 915.74,-725.83 957.93,-701.53 986.77,-683.5"/>
<polygon fill="#b6ecf3" stroke="#b6ecf3" points="988.69,-686.43 995.28,-678.12 984.95,-680.51 988.69,-686.43"/>
</g>
<!-- flatiron.core.metric -->
<g id="node6" class="node">
<title>flatiron.core.metric</title>
<polygon fill="#343434" stroke="#343434" points="847.5,-678 665.5,-678 665.5,-642 847.5,-642 847.5,-678"/>
<text text-anchor="middle" x="756.5" y="-656.3" font-family="Courier,monospace" font-size="14.00" fill="#b6ecf3">flatiron.core.metric</text>
</g>
<!-- flatiron.core.metric&#45;&gt;flatiron.core.pipeline -->
<g id="edge5" class="edge">
<title>flatiron.core.metric&#45;&gt;flatiron.core.pipeline</title>
<path fill="none" stroke="#b6ecf3" d="M847.59,-660C869.06,-660 892.19,-660 914.37,-660"/>
<polygon fill="#b6ecf3" stroke="#b6ecf3" points="914.49,-663.5 924.49,-660 914.49,-656.5 914.49,-663.5"/>
</g>
<!-- flatiron.models.unet -->
<g id="node10" class="node">
<title>flatiron.models.unet</title>
<polygon fill="#343434" stroke="#343434" points="1353,-921 1171,-921 1171,-885 1353,-885 1353,-921"/>
<text text-anchor="middle" x="1262" y="-899.3" font-family="Courier,monospace" font-size="14.00" fill="#b6ecf3">flatiron.models.unet</text>
</g>
<!-- flatiron.core.pipeline&#45;&gt;flatiron.models.unet -->
<g id="edge6" class="edge">
<title>flatiron.core.pipeline&#45;&gt;flatiron.models.unet</title>
<path fill="none" stroke="#b6ecf3" d="M1042.28,-678.26C1083.98,-721.12 1188.2,-828.2 1236.15,-877.46"/>
<polygon fill="#b6ecf3" stroke="#b6ecf3" points="1233.86,-880.13 1243.34,-884.86 1238.87,-875.25 1233.86,-880.13"/>
</g>
<!-- flatiron.core.tools -->
<g id="node8" class="node">
<title>flatiron.core.tools</title>
<polygon fill="#343434" stroke="#343434" points="580,-258 407,-258 407,-222 580,-222 580,-258"/>
<text text-anchor="middle" x="493.5" y="-236.3" font-family="Courier,monospace" font-size="14.00" fill="#b6ecf3">flatiron.core.tools</text>
</g>
<!-- flatiron.core.tools&#45;&gt;flatiron.core.dataset -->
<g id="edge7" class="edge">
<title>flatiron.core.tools&#45;&gt;flatiron.core.dataset</title>
<path fill="none" stroke="#b6ecf3" d="M514.06,-258.28C535.67,-278.63 571.34,-312.64 601,-343 617.48,-359.87 619.79,-365.87 637,-382 664.65,-407.92 698.42,-434.86 722.83,-453.58"/>
<polygon fill="#b6ecf3" stroke="#b6ecf3" points="720.97,-456.57 731.04,-459.85 725.21,-451 720.97,-456.57"/>
</g>
<!-- flatiron.core.tools&#45;&gt;flatiron.core.logging -->
<g id="edge8" class="edge">
<title>flatiron.core.tools&#45;&gt;flatiron.core.logging</title>
<path fill="none" stroke="#b6ecf3" d="M580.32,-247.56C602.94,-249.56 627.6,-251.73 651.08,-253.8"/>
<polygon fill="#b6ecf3" stroke="#b6ecf3" points="650.8,-257.29 661.07,-254.68 651.41,-250.31 650.8,-257.29"/>
</g>
<!-- flatiron.core.tools&#45;&gt;flatiron.core.pipeline -->
<g id="edge9" class="edge">
<title>flatiron.core.tools&#45;&gt;flatiron.core.pipeline</title>
<path fill="none" stroke="#b6ecf3" d="M539.43,-258.1C567.17,-268.69 603.7,-281.58 637,-290 741.28,-316.36 790.8,-262.36 876,-328 976.7,-405.58 1009.67,-567.1 1019.12,-632.06"/>
<polygon fill="#b6ecf3" stroke="#b6ecf3" points="1015.65,-632.55 1020.49,-641.98 1022.59,-631.59 1015.65,-632.55"/>
</g>
<!-- flatiron.core.tools&#45;&gt;flatiron.models.unet -->
<g id="edge10" class="edge">
<title>flatiron.core.tools&#45;&gt;flatiron.models.unet</title>
<path fill="none" stroke="#b6ecf3" d="M556.34,-221.97C635.64,-202.56 774.95,-181.27 876,-236 1134.28,-375.88 1232.8,-766.87 1255.55,-874.99"/>
<polygon fill="#b6ecf3" stroke="#b6ecf3" points="1252.13,-875.74 1257.57,-884.83 1258.99,-874.33 1252.13,-875.74"/>
</g>
<!-- flatiron.core.validators -->
<g id="node9" class="node">
<title>flatiron.core.validators</title>
<polygon fill="#343434" stroke="#343434" points="601,-956 386,-956 386,-920 601,-920 601,-956"/>
<text text-anchor="middle" x="493.5" y="-934.3" font-family="Courier,monospace" font-size="14.00" fill="#b6ecf3">flatiron.core.validators</text>
</g>
<!-- flatiron.core.validators&#45;&gt;flatiron.core.config -->
<g id="edge11" class="edge">
<title>flatiron.core.validators&#45;&gt;flatiron.core.config</title>
<path fill="none" stroke="#b6ecf3" d="M557.55,-919.95C571.91,-915.6 587.03,-910.81 601,-906 617.23,-900.41 620.69,-897.36 637,-892 648.82,-888.12 661.42,-884.34 673.81,-880.82"/>
<polygon fill="#b6ecf3" stroke="#b6ecf3" points="675.01,-884.13 683.7,-878.06 673.12,-877.38 675.01,-884.13"/>
</g>
<!-- flatiron.core.validators&#45;&gt;flatiron.models.unet -->
<g id="edge12" class="edge">
<title>flatiron.core.validators&#45;&gt;flatiron.models.unet</title>
<path fill="none" stroke="#b6ecf3" d="M601.05,-927.63C613.17,-926.64 625.35,-925.74 637,-925 821.54,-913.34 1037.2,-907.45 1160.58,-904.82"/>
<polygon fill="#b6ecf3" stroke="#b6ecf3" points="1160.84,-908.31 1170.76,-904.6 1160.69,-901.32 1160.84,-908.31"/>
</g>
<!-- flatiron -->
<g id="node11" class="node">
<title>flatiron</title>
<polygon fill="#343434" stroke="#343434" points="83,-910 0,-910 0,-874 83,-874 83,-910"/>
<text text-anchor="middle" x="41.5" y="-888.3" font-family="Courier,monospace" font-size="14.00" fill="#a0d17b">flatiron</text>
</g>
<!-- flatiron.core -->
<g id="node12" class="node">
<title>flatiron.core</title>
<polygon fill="#343434" stroke="#343434" points="296.5,-688 172.5,-688 172.5,-652 296.5,-652 296.5,-688"/>
<text text-anchor="middle" x="234.5" y="-666.3" font-family="Courier,monospace" font-size="14.00" fill="#a0d17b">flatiron.core</text>
</g>
<!-- flatiron&#45;&gt;flatiron.core -->
<g id="edge13" class="edge">
<title>flatiron&#45;&gt;flatiron.core</title>
<path fill="none" stroke="#a0d17b" d="M72.12,-873.91C75.93,-871.11 79.66,-868.11 83,-865 139.57,-812.22 191.34,-736.66 216.85,-696.87"/>
<polygon fill="#a0d17b" stroke="#a0d17b" points="219.92,-698.57 222.32,-688.25 214.01,-694.82 219.92,-698.57"/>
</g>
<!-- flatiron.models -->
<g id="node15" class="node">
<title>flatiron.models</title>
<polygon fill="#343434" stroke="#343434" points="1093.5,-1135 953.5,-1135 953.5,-1099 1093.5,-1099 1093.5,-1135"/>
<text text-anchor="middle" x="1023.5" y="-1113.3" font-family="Courier,monospace" font-size="14.00" fill="#a0d17b">flatiron.models</text>
</g>
<!-- flatiron&#45;&gt;flatiron.models -->
<g id="edge14" class="edge">
<title>flatiron&#45;&gt;flatiron.models</title>
<path fill="none" stroke="#a0d17b" d="M58.43,-910.24C73.02,-926.16 95.82,-949.14 119,-965 227.15,-1038.98 258.73,-1058.84 386,-1090 581.92,-1137.97 821.72,-1131.3 943.45,-1123.49"/>
<polygon fill="#a0d17b" stroke="#a0d17b" points="943.69,-1126.98 953.44,-1122.83 943.23,-1120 943.69,-1126.98"/>
</g>
<!-- flatiron.core&#45;&gt;flatiron.core.config -->
<g id="edge15" class="edge">
<title>flatiron.core&#45;&gt;flatiron.core.config</title>
<path fill="none" stroke="#a0d17b" d="M247.38,-688.22C269.94,-721.07 322.43,-789.62 386,-820 470.41,-860.34 577.73,-867.81 654.94,-866.71"/>
<polygon fill="#a0d17b" stroke="#a0d17b" points="655.22,-870.21 665.15,-866.52 655.08,-863.21 655.22,-870.21"/>
</g>
<!-- flatiron.core&#45;&gt;flatiron.core.dataset -->
<g id="edge16" class="edge">
<title>flatiron.core&#45;&gt;flatiron.core.dataset</title>
<path fill="none" stroke="#a0d17b" d="M251,-651.84C276.2,-623.6 329.02,-569.65 386,-543 386.77,-542.64 542.02,-515.4 651.02,-496.3"/>
<polygon fill="#a0d17b" stroke="#a0d17b" points="651.84,-499.71 661.08,-494.53 650.63,-492.81 651.84,-499.71"/>
</g>
<!-- flatiron.core&#45;&gt;flatiron.core.logging -->
<g id="edge17" class="edge">
<title>flatiron.core&#45;&gt;flatiron.core.logging</title>
<path fill="none" stroke="#a0d17b" d="M257.28,-651.97C283.87,-628.63 327.98,-585.31 350,-538 393.28,-444.99 312.38,-381.44 386,-310 404.86,-291.7 548.81,-277.68 651.34,-269.9"/>
<polygon fill="#a0d17b" stroke="#a0d17b" points="651.73,-273.38 661.44,-269.14 651.21,-266.4 651.73,-273.38"/>
</g>
<!-- flatiron.core&#45;&gt;flatiron.core.loss -->
<g id="edge18" class="edge">
<title>flatiron.core&#45;&gt;flatiron.core.loss</title>
<path fill="none" stroke="#a0d17b" d="M249.71,-688.4C273.89,-718.02 326.28,-775.17 386,-797 487.94,-834.26 615.96,-809.83 691.44,-788.83"/>
<polygon fill="#a0d17b" stroke="#a0d17b" points="692.62,-792.13 701.28,-786.03 690.7,-785.4 692.62,-792.13"/>
</g>
<!-- flatiron.core&#45;&gt;flatiron.core.metric -->
<g id="edge19" class="edge">
<title>flatiron.core&#45;&gt;flatiron.core.metric</title>
<path fill="none" stroke="#a0d17b" d="M296.68,-668.82C384.98,-667.13 549.16,-663.97 655.3,-661.93"/>
<polygon fill="#a0d17b" stroke="#a0d17b" points="655.46,-665.42 665.39,-661.73 655.32,-658.43 655.46,-665.42"/>
</g>
<!-- flatiron.core&#45;&gt;flatiron.core.pipeline -->
<g id="edge20" class="edge">
<title>flatiron.core&#45;&gt;flatiron.core.pipeline</title>
<path fill="none" stroke="#a0d17b" d="M257.08,-651.88C283.46,-628.44 327.37,-585.02 350,-538 388.22,-458.59 318.26,-399.38 386,-343 422.72,-312.44 557.23,-323.84 601,-343 622.61,-352.46 616.93,-369.61 637,-382 731.07,-440.09 786.03,-386.74 876,-451 943.19,-498.99 990.18,-587.84 1010.78,-632.65"/>
<polygon fill="#a0d17b" stroke="#a0d17b" points="1007.59,-634.09 1014.89,-641.77 1013.97,-631.21 1007.59,-634.09"/>
</g>
<!-- flatiron.core&#45;&gt;flatiron.core.tools -->
<g id="edge21" class="edge">
<title>flatiron.core&#45;&gt;flatiron.core.tools</title>
<path fill="none" stroke="#a0d17b" d="M257.92,-651.64C284.72,-628.29 328.63,-585.27 350,-538 399.14,-429.29 308.53,-362.73 386,-272 389.64,-267.73 393.83,-264.02 398.4,-260.8"/>
<polygon fill="#a0d17b" stroke="#a0d17b" points="400.31,-263.73 406.98,-255.5 396.63,-257.77 400.31,-263.73"/>
</g>
<!-- flatiron.core&#45;&gt;flatiron.core.validators -->
<g id="edge22" class="edge">
<title>flatiron.core&#45;&gt;flatiron.core.validators</title>
<path fill="none" stroke="#a0d17b" d="M241.94,-688.18C258.55,-732.41 307.13,-846.35 386,-906 390.69,-909.54 395.76,-912.7 401.07,-915.5"/>
<polygon fill="#a0d17b" stroke="#a0d17b" points="399.67,-918.71 410.19,-919.9 402.71,-912.41 399.67,-918.71"/>
</g>
<!-- keras.engine.keras_tensor -->
<g id="node13" class="node">
<title>keras.engine.keras_tensor</title>
<polygon fill="#343434" stroke="#343434" points="1135,-1005 912,-1005 912,-969 1135,-969 1135,-1005"/>
<text text-anchor="middle" x="1023.5" y="-983.3" font-family="Courier,monospace" font-size="14.00" fill="#de958e">keras.engine.keras_tensor</text>
</g>
<!-- keras.engine.keras_tensor&#45;&gt;flatiron.models.unet -->
<g id="edge23" class="edge">
<title>keras.engine.keras_tensor&#45;&gt;flatiron.models.unet</title>
<path fill="none" stroke="#de958e" d="M1091.19,-968.96C1105.73,-964.68 1120.96,-959.91 1135,-955 1160.52,-946.07 1188.36,-934.75 1211.36,-924.96"/>
<polygon fill="#de958e" stroke="#de958e" points="1212.77,-928.16 1220.58,-921.01 1210.01,-921.73 1212.77,-928.16"/>
</g>
<!-- numpy -->
<g id="node14" class="node">
<title>numpy</title>
<polygon fill="#343434" stroke="#343434" points="522.5,-642 464.5,-642 464.5,-606 522.5,-606 522.5,-642"/>
<text text-anchor="middle" x="493.5" y="-620.3" font-family="Courier,monospace" font-size="14.00" fill="#de958e">numpy</text>
</g>
<!-- numpy&#45;&gt;flatiron.core.dataset -->
<g id="edge24" class="edge">
<title>numpy&#45;&gt;flatiron.core.dataset</title>
<path fill="none" stroke="#de958e" d="M522.72,-620.07C544.83,-616.24 575.95,-609.17 601,-597 651.1,-572.65 700.62,-530.45 729.61,-503.4"/>
<polygon fill="#de958e" stroke="#de958e" points="732.37,-505.61 737.23,-496.19 727.56,-500.52 732.37,-505.61"/>
</g>
<!-- numpy&#45;&gt;flatiron.core.loss -->
<g id="edge25" class="edge">
<title>numpy&#45;&gt;flatiron.core.loss</title>
<path fill="none" stroke="#de958e" d="M522.92,-637.19C545.74,-648.71 577.69,-666.99 601,-689 621.44,-708.3 613.72,-725.25 637,-741 645.26,-746.59 654.51,-751.03 664.09,-754.56"/>
<polygon fill="#de958e" stroke="#de958e" points="663.18,-757.95 673.77,-757.8 665.4,-751.31 663.18,-757.95"/>
</g>
<!-- numpy&#45;&gt;flatiron.core.metric -->
<g id="edge26" class="edge">
<title>numpy&#45;&gt;flatiron.core.metric</title>
<path fill="none" stroke="#de958e" d="M522.68,-627.89C554.37,-632.26 607.63,-639.6 655.21,-646.17"/>
<polygon fill="#de958e" stroke="#de958e" points="654.89,-649.66 665.27,-647.55 655.84,-642.72 654.89,-649.66"/>
</g>
<!-- numpy&#45;&gt;flatiron.core.pipeline -->
<g id="edge27" class="edge">
<title>numpy&#45;&gt;flatiron.core.pipeline</title>
<path fill="none" stroke="#de958e" d="M522.83,-623.14C586.28,-621.54 744.53,-619.42 876,-633 892.77,-634.73 910.51,-637.33 927.62,-640.25"/>
<polygon fill="#de958e" stroke="#de958e" points="927.16,-643.72 937.62,-642 928.37,-636.83 927.16,-643.72"/>
</g>
<!-- flatiron.models&#45;&gt;flatiron.models.unet -->
<g id="edge28" class="edge">
<title>flatiron.models&#45;&gt;flatiron.models.unet</title>
<path fill="none" stroke="#a0d17b" d="M1093.58,-1104.84C1108.13,-1100.2 1122.76,-1093.81 1135,-1085 1191.49,-1044.37 1231.1,-970.16 1249.45,-930.21"/>
<polygon fill="#a0d17b" stroke="#a0d17b" points="1252.66,-931.61 1253.56,-921.06 1246.27,-928.75 1252.66,-931.61"/>
</g>
<!-- schematics.exceptions -->
<g id="node16" class="node">
<title>schematics.exceptions</title>
<polygon fill="#343434" stroke="#343434" points="329.5,-956 139.5,-956 139.5,-920 329.5,-920 329.5,-956"/>
<text text-anchor="middle" x="234.5" y="-934.3" font-family="Courier,monospace" font-size="14.00" fill="#de958e">schematics.exceptions</text>
</g>
<!-- schematics.exceptions&#45;&gt;flatiron.core.validators -->
<g id="edge29" class="edge">
<title>schematics.exceptions&#45;&gt;flatiron.core.validators</title>
<path fill="none" stroke="#de958e" d="M329.74,-938C344.66,-938 360.25,-938 375.62,-938"/>
<polygon fill="#de958e" stroke="#de958e" points="375.67,-941.5 385.67,-938 375.67,-934.5 375.67,-941.5"/>
</g>
<!-- lunchbox.enforce -->
<g id="node17" class="node">
<title>lunchbox.enforce</title>
<polygon fill="#343434" stroke="#343434" points="309,-154 160,-154 160,-118 309,-118 309,-154"/>
<text text-anchor="middle" x="234.5" y="-132.3" font-family="Courier,monospace" font-size="14.00" fill="#de958e">lunchbox.enforce</text>
</g>
<!-- lunchbox.enforce&#45;&gt;flatiron.core.dataset -->
<g id="edge30" class="edge">
<title>lunchbox.enforce&#45;&gt;flatiron.core.dataset</title>
<path fill="none" stroke="#de958e" d="M309.24,-142.13C403.89,-151.54 560.72,-172.81 601,-213 655.36,-267.24 596.87,-316.53 637,-382 655.71,-412.52 687.71,-437.58 713.75,-454.44"/>
<polygon fill="#de958e" stroke="#de958e" points="711.99,-457.47 722.32,-459.84 715.72,-451.55 711.99,-457.47"/>
</g>
<!-- lunchbox.enforce&#45;&gt;flatiron.core.tools -->
<g id="edge31" class="edge">
<title>lunchbox.enforce&#45;&gt;flatiron.core.tools</title>
<path fill="none" stroke="#de958e" d="M309.05,-150.31C322.86,-153.84 337.02,-158.06 350,-163 387.59,-177.3 427.66,-199.65 455.7,-216.6"/>
<polygon fill="#de958e" stroke="#de958e" points="454,-219.67 464.36,-221.9 457.66,-213.69 454,-219.67"/>
</g>
<!-- lunchbox.enforce&#45;&gt;flatiron.models.unet -->
<g id="edge32" class="edge">
<title>lunchbox.enforce&#45;&gt;flatiron.models.unet</title>
<path fill="none" stroke="#de958e" d="M309.03,-119.14C481.23,-84.45 912.85,-26.25 1135,-254 1223.42,-344.65 1253.02,-761.18 1259.51,-874.48"/>
<polygon fill="#de958e" stroke="#de958e" points="1256.04,-874.98 1260.09,-884.77 1263.03,-874.59 1256.04,-874.98"/>
</g>
<!-- lunchbox.stopwatch -->
<g id="node18" class="node">
<title>lunchbox.stopwatch</title>
<polygon fill="#343434" stroke="#343434" points="317,-262 152,-262 152,-226 317,-226 317,-262"/>
<text text-anchor="middle" x="234.5" y="-240.3" font-family="Courier,monospace" font-size="14.00" fill="#de958e">lunchbox.stopwatch</text>
</g>
<!-- lunchbox.stopwatch&#45;&gt;flatiron.core.tools -->
<g id="edge33" class="edge">
<title>lunchbox.stopwatch&#45;&gt;flatiron.core.tools</title>
<path fill="none" stroke="#de958e" d="M317.17,-242.73C342.34,-242.34 370.29,-241.9 396.34,-241.5"/>
<polygon fill="#de958e" stroke="#de958e" points="396.66,-244.99 406.61,-241.34 396.56,-237.99 396.66,-244.99"/>
</g>
<!-- humanfriendly -->
<g id="node19" class="node">
<title>humanfriendly</title>
<polygon fill="#343434" stroke="#343434" points="555.5,-588 431.5,-588 431.5,-552 555.5,-552 555.5,-588"/>
<text text-anchor="middle" x="493.5" y="-566.3" font-family="Courier,monospace" font-size="14.00" fill="#de958e">humanfriendly</text>
</g>
<!-- humanfriendly&#45;&gt;flatiron.core.dataset -->
<g id="edge34" class="edge">
<title>humanfriendly&#45;&gt;flatiron.core.dataset</title>
<path fill="none" stroke="#de958e" d="M555.59,-552.54C570.52,-548.03 586.39,-543.02 601,-538 635.01,-526.31 672.63,-511.73 702.24,-499.87"/>
<polygon fill="#de958e" stroke="#de958e" points="703.58,-503.11 711.55,-496.13 700.97,-496.61 703.58,-503.11"/>
</g>
<!-- lunchbox.tools -->
<g id="node20" class="node">
<title>lunchbox.tools</title>
<polygon fill="#343434" stroke="#343434" points="300.5,-208 168.5,-208 168.5,-172 300.5,-172 300.5,-208"/>
<text text-anchor="middle" x="234.5" y="-186.3" font-family="Courier,monospace" font-size="14.00" fill="#de958e">lunchbox.tools</text>
</g>
<!-- lunchbox.tools&#45;&gt;flatiron.core.logging -->
<g id="edge35" class="edge">
<title>lunchbox.tools&#45;&gt;flatiron.core.logging</title>
<path fill="none" stroke="#de958e" d="M300.81,-189.22C374.41,-189.47 497.31,-193.28 601,-213 634.72,-219.41 671.3,-231.03 700.41,-241.46"/>
<polygon fill="#de958e" stroke="#de958e" points="699.38,-244.81 709.98,-244.94 701.78,-238.23 699.38,-244.81"/>
</g>
<!-- lunchbox.tools&#45;&gt;flatiron.core.tools -->
<g id="edge36" class="edge">
<title>lunchbox.tools&#45;&gt;flatiron.core.tools</title>
<path fill="none" stroke="#de958e" d="M300.68,-202.68C329.93,-208.37 365.01,-215.2 397.12,-221.44"/>
<polygon fill="#de958e" stroke="#de958e" points="396.5,-224.89 406.98,-223.36 397.84,-218.02 396.5,-224.89"/>
</g>
<!-- tensorflow -->
<g id="node21" class="node">
<title>tensorflow</title>
<polygon fill="#343434" stroke="#343434" points="543,-734 444,-734 444,-698 543,-698 543,-734"/>
<text text-anchor="middle" x="493.5" y="-712.3" font-family="Courier,monospace" font-size="14.00" fill="#de958e">tensorflow</text>
</g>
<!-- tensorflow&#45;&gt;flatiron.core.loss -->
<g id="edge37" class="edge">
<title>tensorflow&#45;&gt;flatiron.core.loss</title>
<path fill="none" stroke="#de958e" d="M543.29,-725.72C577.16,-732.47 623.32,-741.67 663.94,-749.76"/>
<polygon fill="#de958e" stroke="#de958e" points="663.37,-753.21 673.86,-751.74 664.74,-746.35 663.37,-753.21"/>
</g>
<!-- tensorflow&#45;&gt;flatiron.core.metric -->
<g id="edge38" class="edge">
<title>tensorflow&#45;&gt;flatiron.core.metric</title>
<path fill="none" stroke="#de958e" d="M543.29,-705.53C576.54,-698.4 621.65,-688.72 661.73,-680.12"/>
<polygon fill="#de958e" stroke="#de958e" points="662.49,-683.54 671.53,-678.02 661.02,-676.69 662.49,-683.54"/>
</g>
<!-- pytz -->
<g id="node22" class="node">
<title>pytz</title>
<polygon fill="#343434" stroke="#343434" points="261.5,-370 207.5,-370 207.5,-334 261.5,-334 261.5,-370"/>
<text text-anchor="middle" x="234.5" y="-348.3" font-family="Courier,monospace" font-size="14.00" fill="#de958e">pytz</text>
</g>
<!-- pytz&#45;&gt;flatiron.core.tools -->
<g id="edge39" class="edge">
<title>pytz&#45;&gt;flatiron.core.tools</title>
<path fill="none" stroke="#de958e" d="M261.78,-351.17C286.51,-349.22 323.59,-343.18 350,-325 373.46,-308.85 363.04,-288.85 386,-272 390.84,-268.45 396.07,-265.29 401.53,-262.48"/>
<polygon fill="#de958e" stroke="#de958e" points="403.34,-265.5 410.9,-258.07 400.36,-259.16 403.34,-265.5"/>
</g>
<!-- keras.engine.functional -->
<g id="node23" class="node">
<title>keras.engine.functional</title>
<polygon fill="#343434" stroke="#343434" points="859.5,-970 653.5,-970 653.5,-934 859.5,-934 859.5,-970"/>
<text text-anchor="middle" x="756.5" y="-948.3" font-family="Courier,monospace" font-size="14.00" fill="#de958e">keras.engine.functional</text>
</g>
<!-- keras.engine.functional&#45;&gt;flatiron.core.pipeline -->
<g id="edge40" class="edge">
<title>keras.engine.functional&#45;&gt;flatiron.core.pipeline</title>
<path fill="none" stroke="#de958e" d="M802.25,-933.92C826.01,-922.82 854.62,-906.91 876,-887 940.28,-827.15 988.91,-733.4 1010.39,-687.37"/>
<polygon fill="#de958e" stroke="#de958e" points="1013.68,-688.58 1014.67,-678.04 1007.32,-685.66 1013.68,-688.58"/>
</g>
<!-- keras.engine.functional&#45;&gt;flatiron.models.unet -->
<g id="edge41" class="edge">
<title>keras.engine.functional&#45;&gt;flatiron.models.unet</title>
<path fill="none" stroke="#de958e" d="M791.62,-970.11C822.18,-985.24 868.72,-1005.64 912,-1014 1009.31,-1032.8 1042.28,-1049.02 1135,-1014 1179.74,-997.11 1218.87,-956.29 1241.22,-929.14"/>
<polygon fill="#de958e" stroke="#de958e" points="1244.07,-931.19 1247.6,-921.2 1238.61,-926.8 1244.07,-931.19"/>
</g>
<!-- tensorflow.keras.backend -->
<g id="node24" class="node">
<title>tensorflow.keras.backend</title>
<polygon fill="#343434" stroke="#343434" points="601,-788 386,-788 386,-752 601,-752 601,-788"/>
<text text-anchor="middle" x="493.5" y="-766.3" font-family="Courier,monospace" font-size="14.00" fill="#de958e">tensorflow.keras.backend</text>
</g>
<!-- tensorflow.keras.backend&#45;&gt;flatiron.core.loss -->
<g id="edge42" class="edge">
<title>tensorflow.keras.backend&#45;&gt;flatiron.core.loss</title>
<path fill="none" stroke="#de958e" d="M601.04,-769.18C621.78,-769.02 643.35,-768.86 663.57,-768.7"/>
<polygon fill="#de958e" stroke="#de958e" points="663.72,-772.2 673.69,-768.63 663.67,-765.2 663.72,-772.2"/>
</g>
<!-- tensorflow.keras.backend&#45;&gt;flatiron.core.metric -->
<g id="edge43" class="edge">
<title>tensorflow.keras.backend&#45;&gt;flatiron.core.metric</title>
<path fill="none" stroke="#de958e" d="M585.83,-751.97C591.17,-749.37 596.28,-746.4 601,-743 625.01,-725.72 612.78,-703.99 637,-687 642.88,-682.88 649.29,-679.37 655.98,-676.39"/>
<polygon fill="#de958e" stroke="#de958e" points="657.3,-679.64 665.27,-672.65 654.69,-673.14 657.3,-679.64"/>
</g>
<!-- tensorflow.keras.callbacks -->
<g id="node25" class="node">
<title>tensorflow.keras.callbacks</title>
<polygon fill="#343434" stroke="#343434" points="350,-316 119,-316 119,-280 350,-280 350,-316"/>
<text text-anchor="middle" x="234.5" y="-294.3" font-family="Courier,monospace" font-size="14.00" fill="#de958e">tensorflow.keras.callbacks</text>
</g>
<!-- tensorflow.keras.callbacks&#45;&gt;flatiron.core.tools -->
<g id="edge44" class="edge">
<title>tensorflow.keras.callbacks&#45;&gt;flatiron.core.tools</title>
<path fill="none" stroke="#de958e" d="M315.41,-279.97C343.09,-273.72 374.3,-266.68 402.72,-260.26"/>
<polygon fill="#de958e" stroke="#de958e" points="403.66,-263.64 412.64,-258.02 402.12,-256.81 403.66,-263.64"/>
</g>
<!-- schematics -->
<g id="node26" class="node">
<title>schematics</title>
<polygon fill="#343434" stroke="#343434" points="543,-1081 444,-1081 444,-1045 543,-1045 543,-1081"/>
<text text-anchor="middle" x="493.5" y="-1059.3" font-family="Courier,monospace" font-size="14.00" fill="#de958e">schematics</text>
</g>
<!-- schematics&#45;&gt;flatiron.core.config -->
<g id="edge45" class="edge">
<title>schematics&#45;&gt;flatiron.core.config</title>
<path fill="none" stroke="#de958e" d="M543.16,-1054.09C563.28,-1048.23 585.48,-1038.63 601,-1023 633.69,-990.07 606.73,-960.17 637,-925 652.73,-906.72 674.93,-892.64 695.88,-882.33"/>
<polygon fill="#de958e" stroke="#de958e" points="697.51,-885.43 705.06,-878 694.53,-879.1 697.51,-885.43"/>
</g>
<!-- schematics&#45;&gt;flatiron.models.unet -->
<g id="edge46" class="edge">
<title>schematics&#45;&gt;flatiron.models.unet</title>
<path fill="none" stroke="#de958e" d="M543.45,-1065.82C674.43,-1072.64 1030.03,-1086.07 1135,-1038 1185.09,-1015.06 1224.71,-962.09 1245.34,-929.74"/>
<polygon fill="#de958e" stroke="#de958e" points="1248.34,-931.54 1250.65,-921.2 1242.4,-927.85 1248.34,-931.54"/>
</g>
<!-- yaml -->
<g id="node27" class="node">
<title>yaml</title>
<polygon fill="#343434" stroke="#343434" points="261.5,-529 207.5,-529 207.5,-493 261.5,-493 261.5,-529"/>
<text text-anchor="middle" x="234.5" y="-507.3" font-family="Courier,monospace" font-size="14.00" fill="#de958e">yaml</text>
</g>
<!-- yaml&#45;&gt;flatiron.core.pipeline -->
<g id="edge47" class="edge">
<title>yaml&#45;&gt;flatiron.core.pipeline</title>
<path fill="none" stroke="#de958e" d="M256.73,-529.3C282.74,-552.92 326.27,-596.53 350,-643 381.96,-705.6 330.93,-753.32 386,-797 404,-811.28 838.23,-809.91 876,-795 931.52,-773.09 978.76,-719.37 1003.66,-686.68"/>
<polygon fill="#de958e" stroke="#de958e" points="1006.61,-688.57 1009.78,-678.46 1001,-684.39 1006.61,-688.57"/>
</g>
<!-- yaml&#45;&gt;flatiron.core.tools -->
<g id="edge48" class="edge">
<title>yaml&#45;&gt;flatiron.core.tools</title>
<path fill="none" stroke="#de958e" d="M255.59,-492.74C280.81,-468.82 323.94,-424.56 350,-379 374.91,-335.45 349.95,-306.89 386,-272 389.72,-268.4 393.83,-265.2 398.2,-262.36"/>
<polygon fill="#de958e" stroke="#de958e" points="400,-265.37 406.92,-257.33 396.5,-259.3 400,-265.37"/>
</g>
<!-- pandas -->
<g id="node28" class="node">
<title>pandas</title>
<polygon fill="#343434" stroke="#343434" points="526.5,-496 460.5,-496 460.5,-460 526.5,-460 526.5,-496"/>
<text text-anchor="middle" x="493.5" y="-474.3" font-family="Courier,monospace" font-size="14.00" fill="#de958e">pandas</text>
</g>
<!-- pandas&#45;&gt;flatiron.core.dataset -->
<g id="edge49" class="edge">
<title>pandas&#45;&gt;flatiron.core.dataset</title>
<path fill="none" stroke="#de958e" d="M526.5,-478C557.64,-478 606.65,-478 651.35,-478"/>
<polygon fill="#de958e" stroke="#de958e" points="651.41,-481.5 661.41,-478 651.41,-474.5 651.41,-481.5"/>
</g>
<!-- schematics.types -->
<g id="node29" class="node">
<title>schematics.types</title>
<polygon fill="#343434" stroke="#343434" points="568,-1014 419,-1014 419,-978 568,-978 568,-1014"/>
<text text-anchor="middle" x="493.5" y="-992.3" font-family="Courier,monospace" font-size="14.00" fill="#de958e">schematics.types</text>
</g>
<!-- schematics.types&#45;&gt;flatiron.core.config -->
<g id="edge50" class="edge">
<title>schematics.types&#45;&gt;flatiron.core.config</title>
<path fill="none" stroke="#de958e" d="M568.14,-980.41C579.61,-976.36 590.97,-971.3 601,-965 621.26,-952.28 618.25,-939.85 637,-925 657.84,-908.49 683.45,-893.86 705.52,-882.68"/>
<polygon fill="#de958e" stroke="#de958e" points="707.34,-885.69 714.74,-878.11 704.23,-879.42 707.34,-885.69"/>
</g>
<!-- schematics.types&#45;&gt;flatiron.models.unet -->
<g id="edge51" class="edge">
<title>schematics.types&#45;&gt;flatiron.models.unet</title>
<path fill="none" stroke="#de958e" d="M568.03,-1002.13C645.95,-1006.46 771.87,-1007.27 876,-979 893.46,-974.26 894.85,-965.76 912,-960 923.85,-956.02 1061.94,-934.03 1160.81,-918.55"/>
<polygon fill="#de958e" stroke="#de958e" points="1161.51,-921.99 1170.85,-916.98 1160.43,-915.07 1161.51,-921.99"/>
</g>
<!-- sklearn.model_selection -->
<g id="node30" class="node">
<title>sklearn.model_selection</title>
<polygon fill="#343434" stroke="#343434" points="596.5,-442 390.5,-442 390.5,-406 596.5,-406 596.5,-442"/>
<text text-anchor="middle" x="493.5" y="-420.3" font-family="Courier,monospace" font-size="14.00" fill="#de958e">sklearn.model_selection</text>
</g>
<!-- sklearn.model_selection&#45;&gt;flatiron.core.dataset -->
<g id="edge52" class="edge">
<title>sklearn.model_selection&#45;&gt;flatiron.core.dataset</title>
<path fill="none" stroke="#de958e" d="M581.77,-442.06C606.37,-447.14 633.27,-452.71 658.4,-457.91"/>
<polygon fill="#de958e" stroke="#de958e" points="657.81,-461.36 668.31,-459.96 659.23,-454.51 657.81,-461.36"/>
</g>
<!-- tqdm.notebook -->
<g id="node31" class="node">
<title>tqdm.notebook</title>
<polygon fill="#343434" stroke="#343434" points="555.5,-388 431.5,-388 431.5,-352 555.5,-352 555.5,-388"/>
<text text-anchor="middle" x="493.5" y="-366.3" font-family="Courier,monospace" font-size="14.00" fill="#de958e">tqdm.notebook</text>
</g>
<!-- tqdm.notebook&#45;&gt;flatiron.core.dataset -->
<g id="edge53" class="edge">
<title>tqdm.notebook&#45;&gt;flatiron.core.dataset</title>
<path fill="none" stroke="#de958e" d="M555.53,-382.86C570.61,-386.75 586.57,-391.48 601,-397 606.81,-399.22 668.81,-431.96 712.48,-455.13"/>
<polygon fill="#de958e" stroke="#de958e" points="711.02,-458.31 721.49,-459.91 714.3,-452.13 711.02,-458.31"/>
</g>
<!-- schematics.models -->
<g id="node32" class="node">
<title>schematics.models</title>
<polygon fill="#343434" stroke="#343434" points="835,-732 678,-732 678,-696 835,-696 835,-732"/>
<text text-anchor="middle" x="756.5" y="-710.3" font-family="Courier,monospace" font-size="14.00" fill="#de958e">schematics.models</text>
</g>
<!-- schematics.models&#45;&gt;flatiron.core.pipeline -->
<g id="edge54" class="edge">
<title>schematics.models&#45;&gt;flatiron.core.pipeline</title>
<path fill="none" stroke="#de958e" d="M835.22,-698.16C863.07,-692.49 894.85,-686.01 924.21,-680.03"/>
<polygon fill="#de958e" stroke="#de958e" points="924.97,-683.45 934.07,-678.02 923.57,-676.59 924.97,-683.45"/>
</g>
<!-- tensorflow.keras.optimizers -->
<g id="node33" class="node">
<title>tensorflow.keras.optimizers</title>
<polygon fill="#343434" stroke="#343434" points="876,-373 637,-373 637,-337 876,-337 876,-373"/>
<text text-anchor="middle" x="756.5" y="-351.3" font-family="Courier,monospace" font-size="14.00" fill="#de958e">tensorflow.keras.optimizers</text>
</g>
<!-- tensorflow.keras.optimizers&#45;&gt;flatiron.core.pipeline -->
<g id="edge55" class="edge">
<title>tensorflow.keras.optimizers&#45;&gt;flatiron.core.pipeline</title>
<path fill="none" stroke="#de958e" d="M852.78,-373.03C861.09,-376.83 868.99,-381.43 876,-387 958.12,-452.2 1000.12,-576.4 1015.49,-631.94"/>
<polygon fill="#de958e" stroke="#de958e" points="1012.16,-633.04 1018.13,-641.79 1018.92,-631.22 1012.16,-633.04"/>
</g>
<!-- tensorflow.keras.layers -->
<g id="node34" class="node">
<title>tensorflow.keras.layers</title>
<polygon fill="#343434" stroke="#343434" points="1126.5,-90 920.5,-90 920.5,-54 1126.5,-54 1126.5,-90"/>
<text text-anchor="middle" x="1023.5" y="-68.3" font-family="Courier,monospace" font-size="14.00" fill="#de958e">tensorflow.keras.layers</text>
</g>
<!-- tensorflow.keras.layers&#45;&gt;flatiron.models.unet -->
<g id="edge56" class="edge">
<title>tensorflow.keras.layers&#45;&gt;flatiron.models.unet</title>
<path fill="none" stroke="#de958e" d="M1118.01,-90.02C1124.33,-93.85 1130.11,-98.46 1135,-104 1239.12,-222.08 1257.51,-746.23 1260.47,-874.57"/>
<polygon fill="#de958e" stroke="#de958e" points="1256.98,-874.84 1260.69,-884.76 1263.97,-874.69 1256.98,-874.84"/>
</g>
<!-- tensorflow.keras.models -->
<g id="node35" class="node">
<title>tensorflow.keras.models</title>
<polygon fill="#343434" stroke="#343434" points="1126.5,-36 920.5,-36 920.5,0 1126.5,0 1126.5,-36"/>
<text text-anchor="middle" x="1023.5" y="-14.3" font-family="Courier,monospace" font-size="14.00" fill="#de958e">tensorflow.keras.models</text>
</g>
<!-- tensorflow.keras.models&#45;&gt;flatiron.models.unet -->
<g id="edge57" class="edge">
<title>tensorflow.keras.models&#45;&gt;flatiron.models.unet</title>
<path fill="none" stroke="#de958e" d="M1124.89,-36.04C1128.54,-38.67 1131.94,-41.64 1135,-45 1249.23,-170.48 1259.99,-740.21 1260.93,-874.56"/>
<polygon fill="#de958e" stroke="#de958e" points="1257.43,-874.85 1260.98,-884.83 1264.43,-874.81 1257.43,-874.85"/>
</g>
</g>
</svg>
