<?xml version="1.0" encoding="UTF-8" standalone="no"?>
<!DOCTYPE svg PUBLIC "-//W3C//DTD SVG 1.1//EN"
 "http://www.w3.org/Graphics/SVG/1.1/DTD/svg11.dtd">
<!-- Generated by graphviz version 2.43.0 (0)
 -->
<!-- Title: %3 Pages: 1 -->
<svg width="1438pt" height="1558pt"
 viewBox="0.00 0.00 1438.00 1557.77" xmlns="http://www.w3.org/2000/svg" xmlns:xlink="http://www.w3.org/1999/xlink">
<g id="graph0" class="graph" transform="scale(1 1) rotate(0) translate(4 1553.77)">
<title>%3</title>
<polygon fill="#242424" stroke="transparent" points="-4,4 -4,-1553.77 1434,-1553.77 1434,4 -4,4"/>
<!-- cli -->
<g id="node1" class="node">
<title>cli</title>
<polygon fill="#343434" stroke="#343434" points="68.5,-1411.77 14.5,-1411.77 14.5,-1375.77 68.5,-1375.77 68.5,-1411.77"/>
<text text-anchor="middle" x="41.5" y="-1390.07" font-family="Courier,monospace" font-size="14.00" fill="#b6ecf3">cli</text>
</g>
<!-- flatiron\.command -->
<g id="node2" class="node">
<title>flatiron\.command</title>
<polygon fill="#343434" stroke="#343434" points="268,-1549.77 119,-1549.77 119,-1513.77 268,-1513.77 268,-1549.77"/>
<text text-anchor="middle" x="193.5" y="-1528.07" font-family="Courier,monospace" font-size="14.00" fill="#b6ecf3">flatiron.command</text>
</g>
<!-- flatiron\.core\.config -->
<g id="node3" class="node">
<title>flatiron\.core\.config</title>
<polygon fill="#343434" stroke="#343434" points="950,-223.77 768,-223.77 768,-187.77 950,-187.77 950,-223.77"/>
<text text-anchor="middle" x="859" y="-202.07" font-family="Courier,monospace" font-size="14.00" fill="#b6ecf3">flatiron.core.config</text>
</g>
<!-- flatiron\.core\.pipeline -->
<g id="node6" class="node">
<title>flatiron\.core\.pipeline</title>
<polygon fill="#343434" stroke="#343434" points="1188,-413.77 990,-413.77 990,-377.77 1188,-377.77 1188,-413.77"/>
<text text-anchor="middle" x="1089" y="-392.07" font-family="Courier,monospace" font-size="14.00" fill="#b6ecf3">flatiron.core.pipeline</text>
</g>
<!-- flatiron\.core\.config&#45;&gt;flatiron\.core\.pipeline -->
<g id="edge1" class="edge">
<title>flatiron\.core\.config&#45;&gt;flatiron\.core\.pipeline</title>
<path fill="none" stroke="#b6ecf3" d="M927.86,-223.9C937.03,-227.75 946.02,-232.34 954,-237.77 1005.99,-273.17 1049.48,-333.94 1071.82,-368.89"/>
<polygon fill="#b6ecf3" stroke="#b6ecf3" points="1069.01,-371 1077.3,-377.61 1074.94,-367.28 1069.01,-371"/>
</g>
<!-- flatiron\.core\.dataset -->
<g id="node4" class="node">
<title>flatiron\.core\.dataset</title>
<polygon fill="#343434" stroke="#343434" points="954,-673.77 764,-673.77 764,-637.77 954,-637.77 954,-673.77"/>
<text text-anchor="middle" x="859" y="-652.07" font-family="Courier,monospace" font-size="14.00" fill="#b6ecf3">flatiron.core.dataset</text>
</g>
<!-- flatiron\.core\.dataset&#45;&gt;flatiron\.core\.pipeline -->
<g id="edge2" class="edge">
<title>flatiron\.core\.dataset&#45;&gt;flatiron\.core\.pipeline</title>
<path fill="none" stroke="#b6ecf3" d="M876.03,-637.49C915.85,-592.08 1019.35,-474.06 1065.37,-421.58"/>
<polygon fill="#b6ecf3" stroke="#b6ecf3" points="1068.02,-423.86 1071.99,-414.04 1062.76,-419.25 1068.02,-423.86"/>
</g>
<!-- flatiron\.tf\.tools -->
<g id="node14" class="node">
<title>flatiron\.tf\.tools</title>
<polygon fill="#343434" stroke="#343434" points="1167.5,-1237.77 1010.5,-1237.77 1010.5,-1201.77 1167.5,-1201.77 1167.5,-1237.77"/>
<text text-anchor="middle" x="1089" y="-1216.07" font-family="Courier,monospace" font-size="14.00" fill="#b6ecf3">flatiron.tf.tools</text>
</g>
<!-- flatiron\.core\.dataset&#45;&gt;flatiron\.tf\.tools -->
<g id="edge3" class="edge">
<title>flatiron\.core\.dataset&#45;&gt;flatiron\.tf\.tools</title>
<path fill="none" stroke="#b6ecf3" d="M868.89,-673.86C886.15,-709.2 925.03,-790.1 954,-859.77 1004.83,-982.02 1057.4,-1131.15 1078.45,-1191.96"/>
<polygon fill="#b6ecf3" stroke="#b6ecf3" points="1075.21,-1193.3 1081.78,-1201.61 1081.83,-1191.01 1075.21,-1193.3"/>
</g>
<!-- flatiron\.core\.logging -->
<g id="node5" class="node">
<title>flatiron\.core\.logging</title>
<polygon fill="#343434" stroke="#343434" points="954,-367.77 764,-367.77 764,-331.77 954,-331.77 954,-367.77"/>
<text text-anchor="middle" x="859" y="-346.07" font-family="Courier,monospace" font-size="14.00" fill="#b6ecf3">flatiron.core.logging</text>
</g>
<!-- flatiron\.core\.logging&#45;&gt;flatiron\.core\.pipeline -->
<g id="edge4" class="edge">
<title>flatiron\.core\.logging&#45;&gt;flatiron\.core\.pipeline</title>
<path fill="none" stroke="#b6ecf3" d="M949.46,-367.82C962.28,-370.41 975.54,-373.08 988.54,-375.71"/>
<polygon fill="#b6ecf3" stroke="#b6ecf3" points="987.93,-379.16 998.43,-377.7 989.32,-372.29 987.93,-379.16"/>
</g>
<!-- flatiron\.tf\.models\.unet -->
<g id="node12" class="node">
<title>flatiron\.tf\.models\.unet</title>
<polygon fill="#343434" stroke="#343434" points="1430,-849.77 1224,-849.77 1224,-813.77 1430,-813.77 1430,-849.77"/>
<text text-anchor="middle" x="1327" y="-828.07" font-family="Courier,monospace" font-size="14.00" fill="#b6ecf3">flatiron.tf.models.unet</text>
</g>
<!-- flatiron\.core\.pipeline&#45;&gt;flatiron\.tf\.models\.unet -->
<g id="edge5" class="edge">
<title>flatiron\.core\.pipeline&#45;&gt;flatiron\.tf\.models\.unet</title>
<path fill="none" stroke="#b6ecf3" d="M1099.84,-413.95C1136.72,-482.1 1266.92,-722.63 1311.16,-804.36"/>
<polygon fill="#b6ecf3" stroke="#b6ecf3" points="1308.28,-806.39 1316.12,-813.52 1314.44,-803.06 1308.28,-806.39"/>
</g>
<!-- flatiron\.core\.tools -->
<g id="node7" class="node">
<title>flatiron\.core\.tools</title>
<polygon fill="#343434" stroke="#343434" points="707,-849.77 534,-849.77 534,-813.77 707,-813.77 707,-849.77"/>
<text text-anchor="middle" x="620.5" y="-828.07" font-family="Courier,monospace" font-size="14.00" fill="#b6ecf3">flatiron.core.tools</text>
</g>
<!-- flatiron\.core\.tools&#45;&gt;flatiron\.core\.dataset -->
<g id="edge6" class="edge">
<title>flatiron\.core\.tools&#45;&gt;flatiron\.core\.dataset</title>
<path fill="none" stroke="#b6ecf3" d="M650.98,-813.55C672.67,-799.86 702.66,-780.35 728,-761.77 747.54,-747.45 796.6,-706.96 828.55,-680.37"/>
<polygon fill="#b6ecf3" stroke="#b6ecf3" points="830.83,-683.03 836.28,-673.94 826.35,-677.65 830.83,-683.03"/>
</g>
<!-- flatiron\.core\.tools&#45;&gt;flatiron\.core\.logging -->
<g id="edge7" class="edge">
<title>flatiron\.core\.tools&#45;&gt;flatiron\.core\.logging</title>
<path fill="none" stroke="#b6ecf3" d="M646.33,-813.48C670.29,-794.66 706.06,-763.29 728,-728.77 732.97,-720.96 819.74,-463.56 848.69,-377.49"/>
<polygon fill="#b6ecf3" stroke="#b6ecf3" points="852.05,-378.47 851.92,-367.87 845.41,-376.24 852.05,-378.47"/>
</g>
<!-- flatiron\.core\.tools&#45;&gt;flatiron\.core\.pipeline -->
<g id="edge8" class="edge">
<title>flatiron\.core\.tools&#45;&gt;flatiron\.core\.pipeline</title>
<path fill="none" stroke="#b6ecf3" d="M699.41,-813.72C773.16,-793.09 882.89,-752.78 954,-682.77 1030.57,-607.38 1068.32,-479.87 1081.9,-423.73"/>
<polygon fill="#b6ecf3" stroke="#b6ecf3" points="1085.35,-424.33 1084.23,-413.8 1078.54,-422.73 1085.35,-424.33"/>
</g>
<!-- flatiron\.tf\.loss -->
<g id="node10" class="node">
<title>flatiron\.tf\.loss</title>
<polygon fill="#343434" stroke="#343434" points="933.5,-1055.77 784.5,-1055.77 784.5,-1019.77 933.5,-1019.77 933.5,-1055.77"/>
<text text-anchor="middle" x="859" y="-1034.07" font-family="Courier,monospace" font-size="14.00" fill="#b6ecf3">flatiron.tf.loss</text>
</g>
<!-- flatiron\.core\.tools&#45;&gt;flatiron\.tf\.loss -->
<g id="edge9" class="edge">
<title>flatiron\.core\.tools&#45;&gt;flatiron\.tf\.loss</title>
<path fill="none" stroke="#b6ecf3" d="M631.57,-849.85C652.02,-884.94 701.75,-962.61 764,-1005.77 769.21,-1009.38 774.85,-1012.62 780.71,-1015.51"/>
<polygon fill="#b6ecf3" stroke="#b6ecf3" points="779.5,-1018.8 790.05,-1019.77 782.41,-1012.43 779.5,-1018.8"/>
</g>
<!-- flatiron\.tf\.metric -->
<g id="node11" class="node">
<title>flatiron\.tf\.metric</title>
<polygon fill="#343434" stroke="#343434" points="941.5,-1161.77 776.5,-1161.77 776.5,-1125.77 941.5,-1125.77 941.5,-1161.77"/>
<text text-anchor="middle" x="859" y="-1140.07" font-family="Courier,monospace" font-size="14.00" fill="#b6ecf3">flatiron.tf.metric</text>
</g>
<!-- flatiron\.core\.tools&#45;&gt;flatiron\.tf\.metric -->
<g id="edge10" class="edge">
<title>flatiron\.core\.tools&#45;&gt;flatiron\.tf\.metric</title>
<path fill="none" stroke="#b6ecf3" d="M630.1,-850.02C649.97,-891.11 702.16,-992.88 764,-1064.77 781.68,-1085.33 804.99,-1104.96 823.98,-1119.51"/>
<polygon fill="#b6ecf3" stroke="#b6ecf3" points="822,-1122.4 832.09,-1125.62 826.21,-1116.81 822,-1122.4"/>
</g>
<!-- flatiron\.core\.tools&#45;&gt;flatiron\.tf\.models\.unet -->
<g id="edge11" class="edge">
<title>flatiron\.core\.tools&#45;&gt;flatiron\.tf\.models\.unet</title>
<path fill="none" stroke="#b6ecf3" d="M707.18,-831.77C834.18,-831.77 1072.51,-831.77 1213.45,-831.77"/>
<polygon fill="#b6ecf3" stroke="#b6ecf3" points="1213.85,-835.27 1223.85,-831.77 1213.85,-828.27 1213.85,-835.27"/>
</g>
<!-- flatiron\.tf\.optimizer -->
<g id="node13" class="node">
<title>flatiron\.tf\.optimizer</title>
<polygon fill="#343434" stroke="#343434" points="954,-1298.77 764,-1298.77 764,-1262.77 954,-1262.77 954,-1298.77"/>
<text text-anchor="middle" x="859" y="-1277.07" font-family="Courier,monospace" font-size="14.00" fill="#b6ecf3">flatiron.tf.optimizer</text>
</g>
<!-- flatiron\.core\.tools&#45;&gt;flatiron\.tf\.optimizer -->
<g id="edge12" class="edge">
<title>flatiron\.core\.tools&#45;&gt;flatiron\.tf\.optimizer</title>
<path fill="none" stroke="#b6ecf3" d="M626.95,-850C643.06,-902.38 693.8,-1056.93 764,-1170.77 783.49,-1202.39 811.82,-1234.17 832.28,-1255.39"/>
<polygon fill="#b6ecf3" stroke="#b6ecf3" points="829.94,-1258 839.43,-1262.71 834.94,-1253.11 829.94,-1258"/>
</g>
<!-- flatiron\.core\.tools&#45;&gt;flatiron\.tf\.tools -->
<g id="edge13" class="edge">
<title>flatiron\.core\.tools&#45;&gt;flatiron\.tf\.tools</title>
<path fill="none" stroke="#b6ecf3" d="M672.63,-849.86C742.52,-876.53 868.88,-931.91 954,-1010.77 1012.23,-1064.72 1056.02,-1149.2 1076.02,-1192.38"/>
<polygon fill="#b6ecf3" stroke="#b6ecf3" points="1072.93,-1194.03 1080.25,-1201.68 1079.3,-1191.13 1072.93,-1194.03"/>
</g>
<!-- flatiron\.core\.types -->
<g id="node8" class="node">
<title>flatiron\.core\.types</title>
<polygon fill="#343434" stroke="#343434" points="477,-671.77 304,-671.77 304,-635.77 477,-635.77 477,-671.77"/>
<text text-anchor="middle" x="390.5" y="-650.07" font-family="Courier,monospace" font-size="14.00" fill="#b6ecf3">flatiron.core.types</text>
</g>
<!-- flatiron\.core\.types&#45;&gt;flatiron\.core\.config -->
<g id="edge14" class="edge">
<title>flatiron\.core\.types&#45;&gt;flatiron\.core\.config</title>
<path fill="none" stroke="#b6ecf3" d="M415.38,-635.65C434.84,-619.62 461.54,-594.52 477,-566.77 509.74,-508.02 473.49,-474.21 513,-419.77 584.57,-321.18 716.78,-258.16 795.11,-227.63"/>
<polygon fill="#b6ecf3" stroke="#b6ecf3" points="796.78,-230.74 804.86,-223.89 794.27,-224.2 796.78,-230.74"/>
</g>
<!-- flatiron\.core\.types&#45;&gt;flatiron\.core\.dataset -->
<g id="edge15" class="edge">
<title>flatiron\.core\.types&#45;&gt;flatiron\.core\.dataset</title>
<path fill="none" stroke="#b6ecf3" d="M461.84,-671.93C467.17,-674.51 472.3,-677.44 477,-680.77 498.76,-696.19 489.15,-716.85 513,-728.77 598.47,-771.51 635.55,-752.95 728,-728.77 764.29,-719.28 801.15,-697.14 826.31,-679.72"/>
<polygon fill="#b6ecf3" stroke="#b6ecf3" points="828.56,-682.41 834.7,-673.78 824.51,-676.7 828.56,-682.41"/>
</g>
<!-- flatiron\.core\.types&#45;&gt;flatiron\.core\.pipeline -->
<g id="edge16" class="edge">
<title>flatiron\.core\.types&#45;&gt;flatiron\.core\.pipeline</title>
<path fill="none" stroke="#b6ecf3" d="M412.88,-635.76C431.53,-619.23 458.45,-593.34 477,-566.77 498.4,-536.13 483.16,-513.28 513,-490.77 584.74,-436.68 833.72,-411.92 979.46,-401.82"/>
<polygon fill="#b6ecf3" stroke="#b6ecf3" points="980.03,-405.29 989.77,-401.12 979.56,-398.31 980.03,-405.29"/>
</g>
<!-- flatiron\.core\.types&#45;&gt;flatiron\.core\.tools -->
<g id="edge17" class="edge">
<title>flatiron\.core\.types&#45;&gt;flatiron\.core\.tools</title>
<path fill="none" stroke="#b6ecf3" d="M466.08,-671.98C470.03,-674.54 473.72,-677.45 477,-680.77 515.83,-720.08 473.89,-760.74 513,-799.77 516.71,-803.47 520.82,-806.75 525.22,-809.64"/>
<polygon fill="#b6ecf3" stroke="#b6ecf3" points="523.59,-812.74 533.99,-814.77 527.12,-806.7 523.59,-812.74"/>
</g>
<!-- flatiron\.core\.types&#45;&gt;flatiron\.tf\.tools -->
<g id="edge18" class="edge">
<title>flatiron\.core\.types&#45;&gt;flatiron\.tf\.tools</title>
<path fill="none" stroke="#b6ecf3" d="M464.25,-671.9C468.8,-674.48 473.11,-677.42 477,-680.77 504.69,-704.67 484.41,-731.97 513,-754.77 589.7,-815.95 641.15,-759.14 728,-804.77 848.31,-867.99 866.35,-906.9 954,-1010.77 1004.67,-1070.83 1051.13,-1151.33 1073.68,-1192.71"/>
<polygon fill="#b6ecf3" stroke="#b6ecf3" points="1070.67,-1194.51 1078.5,-1201.64 1076.83,-1191.18 1070.67,-1194.51"/>
</g>
<!-- flatiron\.core\.validators -->
<g id="node9" class="node">
<title>flatiron\.core\.validators</title>
<polygon fill="#343434" stroke="#343434" points="728,-177.77 513,-177.77 513,-141.77 728,-141.77 728,-177.77"/>
<text text-anchor="middle" x="620.5" y="-156.07" font-family="Courier,monospace" font-size="14.00" fill="#b6ecf3">flatiron.core.validators</text>
</g>
<!-- flatiron\.core\.validators&#45;&gt;flatiron\.core\.config -->
<g id="edge19" class="edge">
<title>flatiron\.core\.validators&#45;&gt;flatiron\.core\.config</title>
<path fill="none" stroke="#b6ecf3" d="M714.29,-177.82C728.59,-180.6 743.41,-183.49 757.86,-186.3"/>
<polygon fill="#b6ecf3" stroke="#b6ecf3" points="757.31,-189.76 767.8,-188.23 758.65,-182.88 757.31,-189.76"/>
</g>
<!-- flatiron\.core\.validators&#45;&gt;flatiron\.tf\.models\.unet -->
<g id="edge20" class="edge">
<title>flatiron\.core\.validators&#45;&gt;flatiron\.tf\.models\.unet</title>
<path fill="none" stroke="#b6ecf3" d="M728.35,-149.48C795.35,-146.96 882.29,-151 954,-178.77 1078.92,-227.16 1113.55,-257.4 1188,-368.77 1284.41,-513 1315.11,-726.4 1323.35,-803.05"/>
<polygon fill="#b6ecf3" stroke="#b6ecf3" points="1319.91,-803.76 1324.41,-813.35 1326.87,-803.04 1319.91,-803.76"/>
</g>
<!-- click -->
<g id="node15" class="node">
<title>click</title>
<polygon fill="#343434" stroke="#343434" points="70.5,-1549.77 12.5,-1549.77 12.5,-1513.77 70.5,-1513.77 70.5,-1549.77"/>
<text text-anchor="middle" x="41.5" y="-1528.07" font-family="Courier,monospace" font-size="14.00" fill="#de958e">click</text>
</g>
<!-- click&#45;&gt;flatiron\.command -->
<g id="edge21" class="edge">
<title>click&#45;&gt;flatiron\.command</title>
<path fill="none" stroke="#de958e" d="M70.71,-1531.77C81.78,-1531.77 95.1,-1531.77 108.82,-1531.77"/>
<polygon fill="#de958e" stroke="#de958e" points="108.85,-1535.27 118.85,-1531.77 108.85,-1528.27 108.85,-1535.27"/>
</g>
<!-- flatiron\.tf\.models -->
<g id="node16" class="node">
<title>flatiron\.tf\.models</title>
<polygon fill="#343434" stroke="#343434" points="941.5,-1492.77 776.5,-1492.77 776.5,-1456.77 941.5,-1456.77 941.5,-1492.77"/>
<text text-anchor="middle" x="859" y="-1471.07" font-family="Courier,monospace" font-size="14.00" fill="#a0d17b">flatiron.tf.models</text>
</g>
<!-- flatiron\.tf\.models&#45;&gt;flatiron\.tf\.models\.unet -->
<g id="edge22" class="edge">
<title>flatiron\.tf\.models&#45;&gt;flatiron\.tf\.models\.unet</title>
<path fill="none" stroke="#a0d17b" d="M923.59,-1456.72C934.04,-1452.74 944.54,-1448.1 954,-1442.77 1072.22,-1376.23 1111.7,-1358.95 1188,-1246.77 1275.33,-1118.38 1311.2,-930.29 1322.09,-859.81"/>
<polygon fill="#a0d17b" stroke="#a0d17b" points="1325.56,-860.32 1323.58,-849.91 1318.64,-859.28 1325.56,-860.32"/>
</g>
<!-- pydantic -->
<g id="node17" class="node">
<title>pydantic</title>
<polygon fill="#343434" stroke="#343434" points="662,-123.77 579,-123.77 579,-87.77 662,-87.77 662,-123.77"/>
<text text-anchor="middle" x="620.5" y="-102.07" font-family="Courier,monospace" font-size="14.00" fill="#de958e">pydantic</text>
</g>
<!-- pydantic&#45;&gt;flatiron\.core\.config -->
<g id="edge23" class="edge">
<title>pydantic&#45;&gt;flatiron\.core\.config</title>
<path fill="none" stroke="#de958e" d="M662.25,-113.46C682.43,-117.93 706.92,-124.35 728,-132.77 761.33,-146.08 796.69,-166.39 822.1,-182.21"/>
<polygon fill="#de958e" stroke="#de958e" points="820.33,-185.23 830.66,-187.6 824.06,-179.31 820.33,-185.23"/>
</g>
<!-- pydantic&#45;&gt;flatiron\.core\.pipeline -->
<g id="edge24" class="edge">
<title>pydantic&#45;&gt;flatiron\.core\.pipeline</title>
<path fill="none" stroke="#de958e" d="M662.1,-104.9C729.08,-105.44 864.21,-115.1 954,-178.77 1021.8,-226.86 1062.22,-321.11 1078.96,-367.96"/>
<polygon fill="#de958e" stroke="#de958e" points="1075.67,-369.18 1082.26,-377.47 1082.29,-366.88 1075.67,-369.18"/>
</g>
<!-- pydantic&#45;&gt;flatiron\.tf\.models\.unet -->
<g id="edge25" class="edge">
<title>pydantic&#45;&gt;flatiron\.tf\.models\.unet</title>
<path fill="none" stroke="#de958e" d="M662.02,-96.8C767.64,-76.06 1052.53,-37.68 1188,-191.77 1270.71,-285.85 1313.29,-692.35 1323.54,-803.56"/>
<polygon fill="#de958e" stroke="#de958e" points="1320.06,-804.02 1324.45,-813.66 1327.03,-803.39 1320.06,-804.02"/>
</g>
<!-- typing_extensions -->
<g id="node18" class="node">
<title>typing_extensions</title>
<polygon fill="#343434" stroke="#343434" points="699,-66.77 542,-66.77 542,-30.77 699,-30.77 699,-66.77"/>
<text text-anchor="middle" x="620.5" y="-45.07" font-family="Courier,monospace" font-size="14.00" fill="#de958e">typing_extensions</text>
</g>
<!-- typing_extensions&#45;&gt;flatiron\.core\.config -->
<g id="edge26" class="edge">
<title>typing_extensions&#45;&gt;flatiron\.core\.config</title>
<path fill="none" stroke="#de958e" d="M699.01,-65.64C709.09,-69.25 719.02,-73.58 728,-78.77 773.5,-105.08 814.82,-150.91 838.14,-179.73"/>
<polygon fill="#de958e" stroke="#de958e" points="835.55,-182.09 844.51,-187.73 841.02,-177.73 835.55,-182.09"/>
</g>
<!-- typing_extensions&#45;&gt;flatiron\.tf\.models\.unet -->
<g id="edge27" class="edge">
<title>typing_extensions&#45;&gt;flatiron\.tf\.models\.unet</title>
<path fill="none" stroke="#de958e" d="M684.4,-30.76C799.91,-1.89 1046.92,39.61 1188,-85.77 1298.02,-183.55 1321.12,-679.23 1325.21,-803.49"/>
<polygon fill="#de958e" stroke="#de958e" points="1321.72,-803.82 1325.53,-813.71 1328.72,-803.6 1321.72,-803.82"/>
</g>
<!-- cv_depot\.api -->
<g id="node19" class="node">
<title>cv_depot\.api</title>
<polygon fill="#343434" stroke="#343434" points="678.5,-589.77 562.5,-589.77 562.5,-553.77 678.5,-553.77 678.5,-589.77"/>
<text text-anchor="middle" x="620.5" y="-568.07" font-family="Courier,monospace" font-size="14.00" fill="#de958e">cv_depot.api</text>
</g>
<!-- cv_depot\.api&#45;&gt;flatiron\.core\.dataset -->
<g id="edge28" class="edge">
<title>cv_depot\.api&#45;&gt;flatiron\.core\.dataset</title>
<path fill="none" stroke="#de958e" d="M678.73,-587.95C694.76,-592.76 712.14,-598.23 728,-603.77 754.02,-612.87 782.49,-624.1 806.14,-633.8"/>
<polygon fill="#de958e" stroke="#de958e" points="805.04,-637.14 815.62,-637.72 807.71,-630.67 805.04,-637.14"/>
</g>
<!-- humanfriendly -->
<g id="node20" class="node">
<title>humanfriendly</title>
<polygon fill="#343434" stroke="#343434" points="682.5,-535.77 558.5,-535.77 558.5,-499.77 682.5,-499.77 682.5,-535.77"/>
<text text-anchor="middle" x="620.5" y="-514.07" font-family="Courier,monospace" font-size="14.00" fill="#de958e">humanfriendly</text>
</g>
<!-- humanfriendly&#45;&gt;flatiron\.core\.dataset -->
<g id="edge29" class="edge">
<title>humanfriendly&#45;&gt;flatiron\.core\.dataset</title>
<path fill="none" stroke="#de958e" d="M682.69,-528.2C698,-532.17 714.02,-537.54 728,-544.77 770.28,-566.65 810.61,-604.69 834.84,-630.05"/>
<polygon fill="#de958e" stroke="#de958e" points="832.43,-632.59 841.83,-637.48 837.53,-627.8 832.43,-632.59"/>
</g>
<!-- flatiron -->
<g id="node21" class="node">
<title>flatiron</title>
<polygon fill="#343434" stroke="#343434" points="83,-1465.77 0,-1465.77 0,-1429.77 83,-1429.77 83,-1465.77"/>
<text text-anchor="middle" x="41.5" y="-1444.07" font-family="Courier,monospace" font-size="14.00" fill="#a0d17b">flatiron</text>
</g>
<!-- flatiron&#45;&gt;flatiron\.command -->
<g id="edge30" class="edge">
<title>flatiron&#45;&gt;flatiron\.command</title>
<path fill="none" stroke="#a0d17b" d="M66.57,-1465.84C81.28,-1476.44 100.72,-1489.7 119,-1499.77 124.98,-1503.07 131.36,-1506.28 137.78,-1509.31"/>
<polygon fill="#a0d17b" stroke="#a0d17b" points="136.61,-1512.62 147.16,-1513.61 139.53,-1506.26 136.61,-1512.62"/>
</g>
<!-- flatiron&#45;&gt;flatiron\.tf\.tools -->
<g id="edge31" class="edge">
<title>flatiron&#45;&gt;flatiron\.tf\.tools</title>
<path fill="none" stroke="#a0d17b" d="M83.18,-1447.92C251.33,-1448.15 886.57,-1445.26 954,-1388.77 1005.23,-1345.86 942.48,-1289.77 990,-1242.77 993.47,-1239.34 997.34,-1236.39 1001.5,-1233.85"/>
<polygon fill="#a0d17b" stroke="#a0d17b" points="1003.15,-1236.93 1010.38,-1229.18 999.89,-1230.74 1003.15,-1236.93"/>
</g>
<!-- flatiron&#45;&gt;flatiron\.tf\.models -->
<g id="edge32" class="edge">
<title>flatiron&#45;&gt;flatiron\.tf\.models</title>
<path fill="none" stroke="#a0d17b" d="M83.22,-1456.5C94.73,-1458.62 107.31,-1460.61 119,-1461.77 351.01,-1484.89 625.97,-1481.74 766.02,-1477.96"/>
<polygon fill="#a0d17b" stroke="#a0d17b" points="766.38,-1481.46 776.28,-1477.68 766.18,-1474.46 766.38,-1481.46"/>
</g>
<!-- flatiron\.tf -->
<g id="node23" class="node">
<title>flatiron\.tf</title>
<polygon fill="#343434" stroke="#343434" points="674,-1359.77 567,-1359.77 567,-1323.77 674,-1323.77 674,-1359.77"/>
<text text-anchor="middle" x="620.5" y="-1338.07" font-family="Courier,monospace" font-size="14.00" fill="#a0d17b">flatiron.tf</text>
</g>
<!-- flatiron&#45;&gt;flatiron\.tf -->
<g id="edge33" class="edge">
<title>flatiron&#45;&gt;flatiron\.tf</title>
<path fill="none" stroke="#a0d17b" d="M83.07,-1440.32C182.28,-1422.1 437.66,-1375.18 556.69,-1353.31"/>
<polygon fill="#a0d17b" stroke="#a0d17b" points="557.54,-1356.71 566.75,-1351.47 556.28,-1349.83 557.54,-1356.71"/>
</g>
<!-- flatiron\.core -->
<g id="node25" class="node">
<title>flatiron\.core</title>
<polygon fill="#343434" stroke="#343434" points="255.5,-394.77 131.5,-394.77 131.5,-358.77 255.5,-358.77 255.5,-394.77"/>
<text text-anchor="middle" x="193.5" y="-373.07" font-family="Courier,monospace" font-size="14.00" fill="#a0d17b">flatiron.core</text>
</g>
<!-- flatiron&#45;&gt;flatiron\.core -->
<g id="edge34" class="edge">
<title>flatiron&#45;&gt;flatiron\.core</title>
<path fill="none" stroke="#a0d17b" d="M76.02,-1429.53C78.74,-1426.92 81.15,-1424 83,-1420.77 117.57,-1360.41 110.98,-864.87 119,-795.77 136.22,-647.45 172.09,-472.06 186.4,-404.87"/>
<polygon fill="#a0d17b" stroke="#a0d17b" points="189.84,-405.55 188.51,-395.04 182.99,-404.09 189.84,-405.55"/>
</g>
<!-- tqdm\.notebook -->
<g id="node22" class="node">
<title>tqdm\.notebook</title>
<polygon fill="#343434" stroke="#343434" points="682.5,-719.77 558.5,-719.77 558.5,-683.77 682.5,-683.77 682.5,-719.77"/>
<text text-anchor="middle" x="620.5" y="-698.07" font-family="Courier,monospace" font-size="14.00" fill="#de958e">tqdm.notebook</text>
</g>
<!-- tqdm\.notebook&#45;&gt;flatiron\.core\.dataset -->
<g id="edge35" class="edge">
<title>tqdm\.notebook&#45;&gt;flatiron\.core\.dataset</title>
<path fill="none" stroke="#de958e" d="M682.71,-689.87C704.94,-685.54 730.71,-680.53 755.54,-675.7"/>
<polygon fill="#de958e" stroke="#de958e" points="756.21,-679.14 765.36,-673.79 754.88,-672.27 756.21,-679.14"/>
</g>
<!-- flatiron\.tf&#45;&gt;flatiron\.tf\.loss -->
<g id="edge36" class="edge">
<title>flatiron\.tf&#45;&gt;flatiron\.tf\.loss</title>
<path fill="none" stroke="#a0d17b" d="M630.54,-1323.58C650.93,-1283.59 703.45,-1186.06 764,-1116.77 781.84,-1096.36 805.15,-1076.73 824.1,-1062.15"/>
<polygon fill="#a0d17b" stroke="#a0d17b" points="826.34,-1064.84 832.19,-1056.02 822.11,-1059.26 826.34,-1064.84"/>
</g>
<!-- flatiron\.tf&#45;&gt;flatiron\.tf\.metric -->
<g id="edge37" class="edge">
<title>flatiron\.tf&#45;&gt;flatiron\.tf\.metric</title>
<path fill="none" stroke="#a0d17b" d="M643.33,-1323.5C685.92,-1287.84 780.14,-1208.96 828.34,-1168.6"/>
<polygon fill="#a0d17b" stroke="#a0d17b" points="830.81,-1171.11 836.23,-1162 826.31,-1165.74 830.81,-1171.11"/>
</g>
<!-- flatiron\.tf&#45;&gt;flatiron\.tf\.optimizer -->
<g id="edge38" class="edge">
<title>flatiron\.tf&#45;&gt;flatiron\.tf\.optimizer</title>
<path fill="none" stroke="#a0d17b" d="M674.28,-1328.16C704.76,-1320.3 743.72,-1310.25 777.91,-1301.43"/>
<polygon fill="#a0d17b" stroke="#a0d17b" points="779.07,-1304.75 787.88,-1298.86 777.32,-1297.97 779.07,-1304.75"/>
</g>
<!-- flatiron\.tf&#45;&gt;flatiron\.tf\.tools -->
<g id="edge39" class="edge">
<title>flatiron\.tf&#45;&gt;flatiron\.tf\.tools</title>
<path fill="none" stroke="#a0d17b" d="M674.15,-1343.98C741.16,-1345.09 859.55,-1341.34 954,-1307.77 993.99,-1293.56 1033.89,-1265.05 1059.61,-1244.33"/>
<polygon fill="#a0d17b" stroke="#a0d17b" points="1061.94,-1246.95 1067.45,-1237.9 1057.5,-1241.53 1061.94,-1246.95"/>
</g>
<!-- flatiron\.tf&#45;&gt;flatiron\.tf\.models -->
<g id="edge40" class="edge">
<title>flatiron\.tf&#45;&gt;flatiron\.tf\.models</title>
<path fill="none" stroke="#a0d17b" d="M653.89,-1359.99C696.23,-1383.8 770.43,-1425.53 816.75,-1451.58"/>
<polygon fill="#a0d17b" stroke="#a0d17b" points="815.19,-1454.72 825.62,-1456.57 818.62,-1448.61 815.19,-1454.72"/>
</g>
<!-- tensorflow -->
<g id="node24" class="node">
<title>tensorflow</title>
<polygon fill="#343434" stroke="#343434" points="243,-1275.77 144,-1275.77 144,-1239.77 243,-1239.77 243,-1275.77"/>
<text text-anchor="middle" x="193.5" y="-1254.07" font-family="Courier,monospace" font-size="14.00" fill="#de958e">tensorflow</text>
</g>
<!-- tensorflow&#45;&gt;flatiron\.core\.types -->
<g id="edge41" class="edge">
<title>tensorflow&#45;&gt;flatiron\.core\.types</title>
<path fill="none" stroke="#de958e" d="M206.71,-1239.64C223.79,-1213.24 254.24,-1162.09 268,-1113.77 294.45,-1020.91 243.74,-756.22 304,-680.77 304.49,-680.16 305,-679.56 305.52,-678.97"/>
<polygon fill="#de958e" stroke="#de958e" points="308.01,-681.43 312.95,-672.05 303.24,-676.3 308.01,-681.43"/>
</g>
<!-- tensorflow&#45;&gt;flatiron\.tf\.loss -->
<g id="edge42" class="edge">
<title>tensorflow&#45;&gt;flatiron\.tf\.loss</title>
<path fill="none" stroke="#de958e" d="M229.42,-1239.55C250.64,-1228.89 278.48,-1215.64 304,-1205.77 468.31,-1142.25 667.33,-1086.96 776.5,-1058.4"/>
<polygon fill="#de958e" stroke="#de958e" points="777.67,-1061.72 786.46,-1055.81 775.9,-1054.94 777.67,-1061.72"/>
</g>
<!-- tensorflow&#45;&gt;flatiron\.tf\.metric -->
<g id="edge43" class="edge">
<title>tensorflow&#45;&gt;flatiron\.tf\.metric</title>
<path fill="none" stroke="#de958e" d="M243.02,-1249.44C353.15,-1230.51 623.52,-1184.06 766.27,-1159.53"/>
<polygon fill="#de958e" stroke="#de958e" points="767.06,-1162.95 776.33,-1157.81 765.88,-1156.05 767.06,-1162.95"/>
</g>
<!-- tensorflow&#45;&gt;flatiron\.tf\.models\.unet -->
<g id="edge44" class="edge">
<title>tensorflow&#45;&gt;flatiron\.tf\.models\.unet</title>
<path fill="none" stroke="#de958e" d="M214.57,-1276.08C235.58,-1294.46 270.16,-1322.61 304,-1340.77 566.23,-1481.53 669.02,-1587.6 954,-1501.77 1073.45,-1465.8 1115.13,-1448.03 1188,-1346.77 1301.58,-1188.95 1321.68,-943.36 1325.24,-860.32"/>
<polygon fill="#de958e" stroke="#de958e" points="1328.74,-860.26 1325.62,-850.14 1321.75,-860 1328.74,-860.26"/>
</g>
<!-- tensorflow&#45;&gt;flatiron\.tf\.optimizer -->
<g id="edge45" class="edge">
<title>tensorflow&#45;&gt;flatiron\.tf\.optimizer</title>
<path fill="none" stroke="#de958e" d="M243.17,-1265.17C262.11,-1267.74 284.02,-1270.34 304,-1271.77 460.31,-1283 642.03,-1283.58 753.52,-1282.52"/>
<polygon fill="#de958e" stroke="#de958e" points="753.79,-1286.02 763.76,-1282.42 753.72,-1279.02 753.79,-1286.02"/>
</g>
<!-- tensorflow&#45;&gt;flatiron\.tf\.tools -->
<g id="edge46" class="edge">
<title>tensorflow&#45;&gt;flatiron\.tf\.tools</title>
<path fill="none" stroke="#de958e" d="M243.01,-1275.16C328.71,-1305.8 499.22,-1366.44 513,-1368.77 706.7,-1401.56 800.26,-1461.08 954,-1338.77 989.66,-1310.41 955.78,-1272.86 990,-1242.77 993.41,-1239.77 997.15,-1237.14 1001.1,-1234.84"/>
<polygon fill="#de958e" stroke="#de958e" points="1002.71,-1237.95 1010.06,-1230.31 999.55,-1231.7 1002.71,-1237.95"/>
</g>
<!-- flatiron\.core&#45;&gt;flatiron\.core\.config -->
<g id="edge47" class="edge">
<title>flatiron\.core&#45;&gt;flatiron\.core\.config</title>
<path fill="none" stroke="#a0d17b" d="M201.7,-358.66C215.77,-326.04 250.28,-258.21 304,-229.77 380,-189.53 619.73,-193.77 757.66,-200"/>
<polygon fill="#a0d17b" stroke="#a0d17b" points="757.67,-203.51 767.82,-200.47 757.99,-196.51 757.67,-203.51"/>
</g>
<!-- flatiron\.core&#45;&gt;flatiron\.core\.dataset -->
<g id="edge48" class="edge">
<title>flatiron\.core&#45;&gt;flatiron\.core\.dataset</title>
<path fill="none" stroke="#a0d17b" d="M235.71,-394.8C255.96,-403.09 280.93,-412.46 304,-418.77 488.36,-469.25 563.65,-393.18 728,-490.77 783.7,-523.85 824.69,-590.46 844.57,-628.15"/>
<polygon fill="#a0d17b" stroke="#a0d17b" points="841.7,-630.22 849.39,-637.51 847.92,-627.02 841.7,-630.22"/>
</g>
<!-- flatiron\.core&#45;&gt;flatiron\.core\.logging -->
<g id="edge49" class="edge">
<title>flatiron\.core&#45;&gt;flatiron\.core\.logging</title>
<path fill="none" stroke="#a0d17b" d="M255.53,-369.26C271.3,-367.54 288.26,-365.9 304,-364.77 460.35,-353.6 642.06,-350.58 753.54,-349.85"/>
<polygon fill="#a0d17b" stroke="#a0d17b" points="753.79,-353.35 763.77,-349.79 753.75,-346.35 753.79,-353.35"/>
</g>
<!-- flatiron\.core&#45;&gt;flatiron\.core\.pipeline -->
<g id="edge50" class="edge">
<title>flatiron\.core&#45;&gt;flatiron\.core\.pipeline</title>
<path fill="none" stroke="#a0d17b" d="M255.72,-359.51C386.33,-325.46 701,-258.33 954,-322.77 991.37,-332.29 1029.56,-354.58 1055.56,-372.05"/>
<polygon fill="#a0d17b" stroke="#a0d17b" points="1053.66,-374.99 1063.89,-377.76 1057.62,-369.22 1053.66,-374.99"/>
</g>
<!-- flatiron\.core&#45;&gt;flatiron\.core\.tools -->
<g id="edge51" class="edge">
<title>flatiron\.core&#45;&gt;flatiron\.core\.tools</title>
<path fill="none" stroke="#a0d17b" d="M194.12,-394.9C193.94,-453.66 201.77,-640.47 304,-734.77 361.86,-788.15 405.44,-739.97 477,-772.77 495.18,-781.11 495.15,-790.76 513,-799.77 520.7,-803.66 528.96,-807.17 537.34,-810.31"/>
<polygon fill="#a0d17b" stroke="#a0d17b" points="536.24,-813.63 546.84,-813.7 538.6,-807.04 536.24,-813.63"/>
</g>
<!-- flatiron\.core&#45;&gt;flatiron\.core\.types -->
<g id="edge52" class="edge">
<title>flatiron\.core&#45;&gt;flatiron\.core\.types</title>
<path fill="none" stroke="#a0d17b" d="M203.05,-395C219.88,-429.99 259.55,-508.27 304,-566.77 321.11,-589.29 343.64,-611.99 361.27,-628.56"/>
<polygon fill="#a0d17b" stroke="#a0d17b" points="359.28,-631.48 368.99,-635.71 364.04,-626.35 359.28,-631.48"/>
</g>
<!-- flatiron\.core&#45;&gt;flatiron\.core\.validators -->
<g id="edge53" class="edge">
<title>flatiron\.core&#45;&gt;flatiron\.core\.validators</title>
<path fill="none" stroke="#a0d17b" d="M199.23,-358.72C210.28,-320.48 241.73,-231.57 304,-191.77 362.34,-154.48 439.51,-146.11 502.93,-147.24"/>
<polygon fill="#a0d17b" stroke="#a0d17b" points="502.89,-150.74 512.98,-147.5 503.07,-143.74 502.89,-150.74"/>
</g>
<!-- lunchbox\.stopwatch -->
<g id="node26" class="node">
<title>lunchbox\.stopwatch</title>
<polygon fill="#343434" stroke="#343434" points="473,-817.77 308,-817.77 308,-781.77 473,-781.77 473,-817.77"/>
<text text-anchor="middle" x="390.5" y="-796.07" font-family="Courier,monospace" font-size="14.00" fill="#de958e">lunchbox.stopwatch</text>
</g>
<!-- lunchbox\.stopwatch&#45;&gt;flatiron\.core\.tools -->
<g id="edge54" class="edge">
<title>lunchbox\.stopwatch&#45;&gt;flatiron\.core\.tools</title>
<path fill="none" stroke="#de958e" d="M473.17,-811.24C489.46,-813.52 506.72,-815.95 523.45,-818.29"/>
<polygon fill="#de958e" stroke="#de958e" points="523.39,-821.82 533.78,-819.74 524.37,-814.89 523.39,-821.82"/>
</g>
<!-- numpy -->
<g id="node27" class="node">
<title>numpy</title>
<polygon fill="#343434" stroke="#343434" points="222.5,-840.77 164.5,-840.77 164.5,-804.77 222.5,-804.77 222.5,-840.77"/>
<text text-anchor="middle" x="193.5" y="-819.07" font-family="Courier,monospace" font-size="14.00" fill="#de958e">numpy</text>
</g>
<!-- numpy&#45;&gt;flatiron\.core\.dataset -->
<g id="edge55" class="edge">
<title>numpy&#45;&gt;flatiron\.core\.dataset</title>
<path fill="none" stroke="#de958e" d="M198.2,-804.71C207.61,-764.15 236.6,-666.33 304,-626.77 377.59,-583.59 614.72,-614.08 753.74,-636.94"/>
<polygon fill="#de958e" stroke="#de958e" points="753.55,-640.46 763.99,-638.64 754.7,-633.55 753.55,-640.46"/>
</g>
<!-- numpy&#45;&gt;flatiron\.core\.types -->
<g id="edge56" class="edge">
<title>numpy&#45;&gt;flatiron\.core\.types</title>
<path fill="none" stroke="#de958e" d="M203.68,-804.65C219.85,-774.52 256.28,-714.12 304,-680.77 306.12,-679.29 308.33,-677.89 310.6,-676.56"/>
<polygon fill="#de958e" stroke="#de958e" points="312.43,-679.55 319.64,-671.79 309.16,-673.36 312.43,-679.55"/>
</g>
<!-- numpy&#45;&gt;flatiron\.tf\.loss -->
<g id="edge57" class="edge">
<title>numpy&#45;&gt;flatiron\.tf\.loss</title>
<path fill="none" stroke="#de958e" d="M206.6,-840.86C224.63,-866.23 261.06,-911.85 304,-934.77 455.9,-1015.85 660.8,-1034.13 774.02,-1037.64"/>
<polygon fill="#de958e" stroke="#de958e" points="774.26,-1041.14 784.35,-1037.92 774.45,-1034.15 774.26,-1041.14"/>
</g>
<!-- numpy&#45;&gt;flatiron\.tf\.metric -->
<g id="edge58" class="edge">
<title>numpy&#45;&gt;flatiron\.tf\.metric</title>
<path fill="none" stroke="#de958e" d="M202.29,-840.95C217.19,-873.54 252.85,-941.94 304,-978.77 378.43,-1032.38 629.04,-1093.56 766.28,-1124.17"/>
<polygon fill="#de958e" stroke="#de958e" points="765.84,-1127.65 776.36,-1126.4 767.36,-1120.82 765.84,-1127.65"/>
</g>
<!-- lunchbox\.tools -->
<g id="node28" class="node">
<title>lunchbox\.tools</title>
<polygon fill="#343434" stroke="#343434" points="456.5,-409.77 324.5,-409.77 324.5,-373.77 456.5,-373.77 456.5,-409.77"/>
<text text-anchor="middle" x="390.5" y="-388.07" font-family="Courier,monospace" font-size="14.00" fill="#de958e">lunchbox.tools</text>
</g>
<!-- lunchbox\.tools&#45;&gt;flatiron\.core\.logging -->
<g id="edge59" class="edge">
<title>lunchbox\.tools&#45;&gt;flatiron\.core\.logging</title>
<path fill="none" stroke="#de958e" d="M456.86,-385.89C533.84,-378.96 662.72,-367.36 753.59,-359.17"/>
<polygon fill="#de958e" stroke="#de958e" points="754,-362.65 763.64,-358.27 753.37,-355.68 754,-362.65"/>
</g>
<!-- lunchbox\.tools&#45;&gt;flatiron\.core\.tools -->
<g id="edge60" class="edge">
<title>lunchbox\.tools&#45;&gt;flatiron\.core\.tools</title>
<path fill="none" stroke="#de958e" d="M408.33,-409.87C428.12,-432.24 460.37,-472.33 477,-512.77 514.01,-602.78 467.75,-642.61 513,-728.77 529.8,-760.76 560.22,-788.65 584.26,-807.31"/>
<polygon fill="#de958e" stroke="#de958e" points="582.38,-810.27 592.46,-813.52 586.6,-804.69 582.38,-810.27"/>
</g>
<!-- pandas -->
<g id="node29" class="node">
<title>pandas</title>
<polygon fill="#343434" stroke="#343434" points="423.5,-725.77 357.5,-725.77 357.5,-689.77 423.5,-689.77 423.5,-725.77"/>
<text text-anchor="middle" x="390.5" y="-704.07" font-family="Courier,monospace" font-size="14.00" fill="#de958e">pandas</text>
</g>
<!-- pandas&#45;&gt;flatiron\.core\.dataset -->
<g id="edge61" class="edge">
<title>pandas&#45;&gt;flatiron\.core\.dataset</title>
<path fill="none" stroke="#de958e" d="M423.58,-697.07C447.85,-689.47 482.14,-679.76 513,-674.77 592.99,-661.86 684.61,-657.28 753.32,-655.84"/>
<polygon fill="#de958e" stroke="#de958e" points="753.78,-659.33 763.71,-655.64 753.65,-652.33 753.78,-659.33"/>
</g>
<!-- pandas&#45;&gt;flatiron\.core\.tools -->
<g id="edge62" class="edge">
<title>pandas&#45;&gt;flatiron\.core\.tools</title>
<path fill="none" stroke="#de958e" d="M423.79,-714.38C441.03,-719.17 461.77,-727.1 477,-739.77 500.9,-759.67 488.45,-780.68 513,-799.77 517.59,-803.34 522.57,-806.52 527.79,-809.33"/>
<polygon fill="#de958e" stroke="#de958e" points="526.25,-812.48 536.77,-813.75 529.34,-806.2 526.25,-812.48"/>
</g>
<!-- pytz -->
<g id="node30" class="node">
<title>pytz</title>
<polygon fill="#343434" stroke="#343434" points="417.5,-871.77 363.5,-871.77 363.5,-835.77 417.5,-835.77 417.5,-871.77"/>
<text text-anchor="middle" x="390.5" y="-850.07" font-family="Courier,monospace" font-size="14.00" fill="#de958e">pytz</text>
</g>
<!-- pytz&#45;&gt;flatiron\.core\.tools -->
<g id="edge63" class="edge">
<title>pytz&#45;&gt;flatiron\.core\.tools</title>
<path fill="none" stroke="#de958e" d="M417.65,-851.25C443.64,-848.74 485.07,-844.74 523.66,-841.02"/>
<polygon fill="#de958e" stroke="#de958e" points="524.3,-844.48 533.92,-840.03 523.63,-837.51 524.3,-844.48"/>
</g>
<!-- yaml -->
<g id="node31" class="node">
<title>yaml</title>
<polygon fill="#343434" stroke="#343434" points="417.5,-557.77 363.5,-557.77 363.5,-521.77 417.5,-521.77 417.5,-557.77"/>
<text text-anchor="middle" x="390.5" y="-536.07" font-family="Courier,monospace" font-size="14.00" fill="#de958e">yaml</text>
</g>
<!-- yaml&#45;&gt;flatiron\.core\.pipeline -->
<g id="edge64" class="edge">
<title>yaml&#45;&gt;flatiron\.core\.pipeline</title>
<path fill="none" stroke="#de958e" d="M403.37,-521.35C422.54,-493.44 463.25,-441.42 513,-419.77 593.91,-384.56 836.91,-386.52 979.8,-391.11"/>
<polygon fill="#de958e" stroke="#de958e" points="979.81,-394.61 989.92,-391.45 980.04,-387.62 979.81,-394.61"/>
</g>
<!-- yaml&#45;&gt;flatiron\.core\.tools -->
<g id="edge65" class="edge">
<title>yaml&#45;&gt;flatiron\.core\.tools</title>
<path fill="none" stroke="#de958e" d="M414.31,-557.98C433.36,-574.25 460.07,-599.65 477,-626.77 502.45,-667.56 487.03,-688.32 513,-728.77 532.76,-759.56 563.44,-787.93 586.8,-807.07"/>
<polygon fill="#de958e" stroke="#de958e" points="584.75,-809.9 594.73,-813.44 589.13,-804.45 584.75,-809.9"/>
</g>
<!-- keras -->
<g id="node32" class="node">
<title>keras</title>
<polygon fill="#343434" stroke="#343434" points="222.5,-1104.77 164.5,-1104.77 164.5,-1068.77 222.5,-1068.77 222.5,-1104.77"/>
<text text-anchor="middle" x="193.5" y="-1083.07" font-family="Courier,monospace" font-size="14.00" fill="#de958e">keras</text>
</g>
<!-- keras&#45;&gt;flatiron\.core\.types -->
<g id="edge66" class="edge">
<title>keras&#45;&gt;flatiron\.core\.types</title>
<path fill="none" stroke="#de958e" d="M200.79,-1068.5C214.27,-1028.95 246.46,-932.31 268,-849.77 287.39,-775.47 252.36,-737.62 304,-680.77 304.76,-679.94 305.54,-679.13 306.35,-678.34"/>
<polygon fill="#de958e" stroke="#de958e" points="308.67,-680.97 314.2,-671.93 304.24,-675.55 308.67,-680.97"/>
</g>
<!-- keras&#45;&gt;flatiron\.tf\.loss -->
<g id="edge67" class="edge">
<title>keras&#45;&gt;flatiron\.tf\.loss</title>
<path fill="none" stroke="#de958e" d="M222.57,-1083.32C278,-1076.63 405.45,-1061.83 513,-1053.77 602.05,-1047.1 704.24,-1042.78 774.16,-1040.33"/>
<polygon fill="#de958e" stroke="#de958e" points="774.36,-1043.82 784.23,-1039.98 774.12,-1036.83 774.36,-1043.82"/>
</g>
<!-- keras&#45;&gt;flatiron\.tf\.metric -->
<g id="edge68" class="edge">
<title>keras&#45;&gt;flatiron\.tf\.metric</title>
<path fill="none" stroke="#de958e" d="M222.59,-1090.01C278.05,-1096.32 405.55,-1110.47 513,-1119.77 598.8,-1127.2 696.77,-1133.84 766.33,-1138.24"/>
<polygon fill="#de958e" stroke="#de958e" points="766.18,-1141.74 776.38,-1138.88 766.62,-1134.75 766.18,-1141.74"/>
</g>
<!-- keras&#45;&gt;flatiron\.tf\.models\.unet -->
<g id="edge69" class="edge">
<title>keras&#45;&gt;flatiron\.tf\.models\.unet</title>
<path fill="none" stroke="#de958e" d="M222.65,-1071.39C289.43,-1036.38 463.52,-953.77 619.5,-953.77 619.5,-953.77 619.5,-953.77 860,-953.77 1016.22,-953.77 1192.58,-888.82 1276.5,-853.7"/>
<polygon fill="#de958e" stroke="#de958e" points="1277.94,-856.89 1285.79,-849.78 1275.21,-850.44 1277.94,-856.89"/>
</g>
<!-- keras&#45;&gt;flatiron\.tf\.optimizer -->
<g id="edge70" class="edge">
<title>keras&#45;&gt;flatiron\.tf\.optimizer</title>
<path fill="none" stroke="#de958e" d="M218.77,-1104.81C240.35,-1120.27 273.17,-1142.42 304,-1157.77 392.48,-1201.83 417.04,-1210.08 513,-1233.77 592.57,-1253.42 684.63,-1265.44 753.62,-1272.4"/>
<polygon fill="#de958e" stroke="#de958e" points="753.34,-1275.89 763.63,-1273.39 754.03,-1268.92 753.34,-1275.89"/>
</g>
<!-- keras&#45;&gt;flatiron\.tf\.tools -->
<g id="edge71" class="edge">
<title>keras&#45;&gt;flatiron\.tf\.tools</title>
<path fill="none" stroke="#de958e" d="M222.92,-1097.46C244.8,-1105.29 275.93,-1115.59 304,-1121.77 553.21,-1176.68 854.24,-1203.54 1000.17,-1214.12"/>
<polygon fill="#de958e" stroke="#de958e" points="1000.18,-1217.63 1010.41,-1214.85 1000.68,-1210.65 1000.18,-1217.63"/>
</g>
<!-- lunchbox\.enforce -->
<g id="node33" class="node">
<title>lunchbox\.enforce</title>
<polygon fill="#343434" stroke="#343434" points="465,-925.77 316,-925.77 316,-889.77 465,-889.77 465,-925.77"/>
<text text-anchor="middle" x="390.5" y="-904.07" font-family="Courier,monospace" font-size="14.00" fill="#de958e">lunchbox.enforce</text>
</g>
<!-- lunchbox\.enforce&#45;&gt;flatiron\.core\.dataset -->
<g id="edge72" class="edge">
<title>lunchbox\.enforce&#45;&gt;flatiron\.core\.dataset</title>
<path fill="none" stroke="#de958e" d="M465.26,-904.13C550.88,-898.7 685.77,-886.02 728,-858.77 793.42,-816.58 832.4,-728.53 848.83,-683.53"/>
<polygon fill="#de958e" stroke="#de958e" points="852.22,-684.44 852.26,-673.85 845.62,-682.11 852.22,-684.44"/>
</g>
<!-- lunchbox\.enforce&#45;&gt;flatiron\.core\.tools -->
<g id="edge73" class="edge">
<title>lunchbox\.enforce&#45;&gt;flatiron\.core\.tools</title>
<path fill="none" stroke="#de958e" d="M452.11,-889.75C460.54,-886.93 469.03,-883.9 477,-880.77 493.47,-874.32 496.48,-870.12 513,-863.77 523,-859.93 533.68,-856.25 544.26,-852.85"/>
<polygon fill="#de958e" stroke="#de958e" points="545.44,-856.14 553.93,-849.8 543.34,-849.47 545.44,-856.14"/>
</g>
<!-- lunchbox\.enforce&#45;&gt;flatiron\.tf\.models\.unet -->
<g id="edge74" class="edge">
<title>lunchbox\.enforce&#45;&gt;flatiron\.tf\.models\.unet</title>
<path fill="none" stroke="#de958e" d="M465.09,-905.7C533.31,-903.5 637.6,-899.39 728,-892.77 897.69,-880.35 1093.8,-859.01 1213.84,-845.15"/>
<polygon fill="#de958e" stroke="#de958e" points="1214.25,-848.62 1223.78,-844 1213.44,-841.67 1214.25,-848.62"/>
</g>
</g>
</svg>
