<?xml version="1.0" encoding="UTF-8" standalone="no"?>
<!DOCTYPE svg PUBLIC "-//W3C//DTD SVG 1.1//EN"
 "http://www.w3.org/Graphics/SVG/1.1/DTD/svg11.dtd">
<!-- Generated by graphviz version 2.43.0 (0)
 -->
<!-- Title: %3 Pages: 1 -->
<svg width="893pt" height="763pt"
 viewBox="0.00 0.00 893.00 763.00" xmlns="http://www.w3.org/2000/svg" xmlns:xlink="http://www.w3.org/1999/xlink">
<g id="graph0" class="graph" transform="scale(1 1) rotate(0) translate(4 759)">
<title>%3</title>
<polygon fill="#242424" stroke="transparent" points="-4,4 -4,-759 889,-759 889,4 -4,4"/>
<!-- cli -->
<g id="node1" class="node">
<title>cli</title>
<polygon fill="#343434" stroke="#343434" points="68.5,-174 14.5,-174 14.5,-138 68.5,-138 68.5,-174"/>
<text text-anchor="middle" x="41.5" y="-152.3" font-family="Courier,monospace" font-size="14.00" fill="#b6ecf3">cli</text>
</g>
<!-- flatiron.core.dataset -->
<g id="node2" class="node">
<title>flatiron.core.dataset</title>
<polygon fill="#343434" stroke="#343434" points="856,-409 666,-409 666,-373 856,-373 856,-409"/>
<text text-anchor="middle" x="761" y="-387.3" font-family="Courier,monospace" font-size="14.00" fill="#b6ecf3">flatiron.core.dataset</text>
</g>
<!-- flatiron.core.dataset_config -->
<g id="node3" class="node">
<title>flatiron.core.dataset_config</title>
<polygon fill="#343434" stroke="#343434" points="885,-117 637,-117 637,-81 885,-81 885,-117"/>
<text text-anchor="middle" x="761" y="-95.3" font-family="Courier,monospace" font-size="14.00" fill="#b6ecf3">flatiron.core.dataset_config</text>
</g>
<!-- flatiron.core.logging -->
<g id="node4" class="node">
<title>flatiron.core.logging</title>
<polygon fill="#343434" stroke="#343434" points="856,-620 666,-620 666,-584 856,-584 856,-620"/>
<text text-anchor="middle" x="761" y="-598.3" font-family="Courier,monospace" font-size="14.00" fill="#b6ecf3">flatiron.core.logging</text>
</g>
<!-- flatiron.core.tools -->
<g id="node5" class="node">
<title>flatiron.core.tools</title>
<polygon fill="#343434" stroke="#343434" points="580,-620 407,-620 407,-584 580,-584 580,-620"/>
<text text-anchor="middle" x="493.5" y="-598.3" font-family="Courier,monospace" font-size="14.00" fill="#b6ecf3">flatiron.core.tools</text>
</g>
<!-- flatiron.core.tools&#45;&gt;flatiron.core.dataset -->
<g id="edge1" class="edge">
<title>flatiron.core.tools&#45;&gt;flatiron.core.dataset</title>
<path fill="none" stroke="#b6ecf3" d="M572.93,-583.93C582.76,-580.1 592.38,-575.51 601,-570 664.25,-529.62 717.36,-457.18 743.18,-417.97"/>
<polygon fill="#b6ecf3" stroke="#b6ecf3" points="746.35,-419.51 748.86,-409.22 740.48,-415.7 746.35,-419.51"/>
</g>
<!-- flatiron.core.tools&#45;&gt;flatiron.core.logging -->
<g id="edge2" class="edge">
<title>flatiron.core.tools&#45;&gt;flatiron.core.logging</title>
<path fill="none" stroke="#b6ecf3" d="M580.33,-602C604.3,-602 630.61,-602 655.53,-602"/>
<polygon fill="#b6ecf3" stroke="#b6ecf3" points="655.74,-605.5 665.74,-602 655.74,-598.5 655.74,-605.5"/>
</g>
<!-- flatiron.core.validators -->
<g id="node6" class="node">
<title>flatiron.core.validators</title>
<polygon fill="#343434" stroke="#343434" points="601,-90 386,-90 386,-54 601,-54 601,-90"/>
<text text-anchor="middle" x="493.5" y="-68.3" font-family="Courier,monospace" font-size="14.00" fill="#b6ecf3">flatiron.core.validators</text>
</g>
<!-- flatiron.core.validators&#45;&gt;flatiron.core.dataset_config -->
<g id="edge3" class="edge">
<title>flatiron.core.validators&#45;&gt;flatiron.core.dataset_config</title>
<path fill="none" stroke="#b6ecf3" d="M601.34,-82.87C609.73,-83.72 618.26,-84.59 626.8,-85.45"/>
<polygon fill="#b6ecf3" stroke="#b6ecf3" points="626.51,-88.94 636.81,-86.47 627.22,-81.98 626.51,-88.94"/>
</g>
<!-- flatiron -->
<g id="node7" class="node">
<title>flatiron</title>
<polygon fill="#343434" stroke="#343434" points="83,-228 0,-228 0,-192 83,-192 83,-228"/>
<text text-anchor="middle" x="41.5" y="-206.3" font-family="Courier,monospace" font-size="14.00" fill="#a0d17b">flatiron</text>
</g>
<!-- flatiron.core -->
<g id="node8" class="node">
<title>flatiron.core</title>
<polygon fill="#343434" stroke="#343434" points="296.5,-228 172.5,-228 172.5,-192 296.5,-192 296.5,-228"/>
<text text-anchor="middle" x="234.5" y="-206.3" font-family="Courier,monospace" font-size="14.00" fill="#a0d17b">flatiron.core</text>
</g>
<!-- flatiron&#45;&gt;flatiron.core -->
<g id="edge4" class="edge">
<title>flatiron&#45;&gt;flatiron.core</title>
<path fill="none" stroke="#a0d17b" d="M83.01,-210C106.02,-210 135.49,-210 162.25,-210"/>
<polygon fill="#a0d17b" stroke="#a0d17b" points="162.35,-213.5 172.35,-210 162.35,-206.5 162.35,-213.5"/>
</g>
<!-- flatiron.core&#45;&gt;flatiron.core.dataset -->
<g id="edge5" class="edge">
<title>flatiron.core&#45;&gt;flatiron.core.dataset</title>
<path fill="none" stroke="#a0d17b" d="M296.53,-200.17C371.76,-190.9 501.79,-184.3 601,-229 665.7,-258.15 718.04,-326.44 743.41,-364.39"/>
<polygon fill="#a0d17b" stroke="#a0d17b" points="740.57,-366.45 748.98,-372.9 746.43,-362.61 740.57,-366.45"/>
</g>
<!-- flatiron.core&#45;&gt;flatiron.core.dataset_config -->
<g id="edge6" class="edge">
<title>flatiron.core&#45;&gt;flatiron.core.dataset_config</title>
<path fill="none" stroke="#a0d17b" d="M296.6,-203.74C369.7,-195.5 495.45,-178.95 601,-153 635.87,-144.43 673.99,-131.6 704.17,-120.6"/>
<polygon fill="#a0d17b" stroke="#a0d17b" points="705.49,-123.84 713.67,-117.1 703.07,-117.28 705.49,-123.84"/>
</g>
<!-- flatiron.core&#45;&gt;flatiron.core.logging -->
<g id="edge7" class="edge">
<title>flatiron.core&#45;&gt;flatiron.core.logging</title>
<path fill="none" stroke="#a0d17b" d="M244.5,-228.26C275.14,-290.26 374.12,-489.4 386,-499 427.36,-532.42 560,-563.8 655.57,-582.94"/>
<polygon fill="#a0d17b" stroke="#a0d17b" points="655.08,-586.42 665.57,-584.93 656.45,-579.55 655.08,-586.42"/>
</g>
<!-- flatiron.core&#45;&gt;flatiron.core.tools -->
<g id="edge8" class="edge">
<title>flatiron.core&#45;&gt;flatiron.core.tools</title>
<path fill="none" stroke="#a0d17b" d="M245.27,-228.22C265.77,-266.77 314.37,-359.67 350,-440 367.8,-480.14 358.35,-497.89 386,-532 401.72,-551.39 424.26,-567.28 444.57,-579"/>
<polygon fill="#a0d17b" stroke="#a0d17b" points="442.96,-582.11 453.4,-583.92 446.37,-576 442.96,-582.11"/>
</g>
<!-- flatiron.core&#45;&gt;flatiron.core.validators -->
<g id="edge9" class="edge">
<title>flatiron.core&#45;&gt;flatiron.core.validators</title>
<path fill="none" stroke="#a0d17b" d="M254.81,-191.83C281.99,-167.23 334.05,-123.57 386,-99 390.09,-97.07 394.33,-95.26 398.67,-93.57"/>
<polygon fill="#a0d17b" stroke="#a0d17b" points="400.08,-96.78 408.28,-90.07 397.69,-90.2 400.08,-96.78"/>
</g>
<!-- humanfriendly -->
<g id="node9" class="node">
<title>humanfriendly</title>
<polygon fill="#343434" stroke="#343434" points="555.5,-436 431.5,-436 431.5,-400 555.5,-400 555.5,-436"/>
<text text-anchor="middle" x="493.5" y="-414.3" font-family="Courier,monospace" font-size="14.00" fill="#de958e">humanfriendly</text>
</g>
<!-- humanfriendly&#45;&gt;flatiron.core.dataset -->
<g id="edge10" class="edge">
<title>humanfriendly&#45;&gt;flatiron.core.dataset</title>
<path fill="none" stroke="#de958e" d="M555.74,-411.77C585.43,-408.75 621.92,-405.04 655.81,-401.6"/>
<polygon fill="#de958e" stroke="#de958e" points="656.16,-405.08 665.76,-400.58 655.45,-398.11 656.16,-405.08"/>
</g>
<!-- lunchbox.enforce -->
<g id="node10" class="node">
<title>lunchbox.enforce</title>
<polygon fill="#343434" stroke="#343434" points="309,-485 160,-485 160,-449 309,-449 309,-485"/>
<text text-anchor="middle" x="234.5" y="-463.3" font-family="Courier,monospace" font-size="14.00" fill="#de958e">lunchbox.enforce</text>
</g>
<!-- lunchbox.enforce&#45;&gt;flatiron.core.dataset -->
<g id="edge11" class="edge">
<title>lunchbox.enforce&#45;&gt;flatiron.core.dataset</title>
<path fill="none" stroke="#de958e" d="M305.45,-485.05C330.66,-490.71 359.43,-496.21 386,-499 481.03,-508.99 509.67,-527.09 601,-499 653.48,-482.86 704.18,-442.86 733.71,-416.33"/>
<polygon fill="#de958e" stroke="#de958e" points="736.45,-418.57 741.46,-409.24 731.72,-413.41 736.45,-418.57"/>
</g>
<!-- lunchbox.enforce&#45;&gt;flatiron.core.tools -->
<g id="edge12" class="edge">
<title>lunchbox.enforce&#45;&gt;flatiron.core.tools</title>
<path fill="none" stroke="#de958e" d="M309.01,-474.13C323.72,-478.23 338.25,-484.5 350,-494 379.06,-517.5 357.66,-545.63 386,-570 389.93,-573.37 394.2,-576.39 398.7,-579.09"/>
<polygon fill="#de958e" stroke="#de958e" points="397.15,-582.23 407.61,-583.91 400.47,-576.07 397.15,-582.23"/>
</g>
<!-- lunchbox.stopwatch -->
<g id="node11" class="node">
<title>lunchbox.stopwatch</title>
<polygon fill="#343434" stroke="#343434" points="317,-539 152,-539 152,-503 317,-503 317,-539"/>
<text text-anchor="middle" x="234.5" y="-517.3" font-family="Courier,monospace" font-size="14.00" fill="#de958e">lunchbox.stopwatch</text>
</g>
<!-- lunchbox.stopwatch&#45;&gt;flatiron.core.tools -->
<g id="edge13" class="edge">
<title>lunchbox.stopwatch&#45;&gt;flatiron.core.tools</title>
<path fill="none" stroke="#de958e" d="M317.2,-536.9C328.4,-540.05 339.61,-543.73 350,-548 367.34,-555.13 368.88,-562.35 386,-570 394.7,-573.89 404,-577.47 413.35,-580.71"/>
<polygon fill="#de958e" stroke="#de958e" points="412.5,-584.11 423.09,-583.97 414.72,-577.47 412.5,-584.11"/>
</g>
<!-- lunchbox.tools -->
<g id="node12" class="node">
<title>lunchbox.tools</title>
<polygon fill="#343434" stroke="#343434" points="300.5,-755 168.5,-755 168.5,-719 300.5,-719 300.5,-755"/>
<text text-anchor="middle" x="234.5" y="-733.3" font-family="Courier,monospace" font-size="14.00" fill="#de958e">lunchbox.tools</text>
</g>
<!-- lunchbox.tools&#45;&gt;flatiron.core.logging -->
<g id="edge14" class="edge">
<title>lunchbox.tools&#45;&gt;flatiron.core.logging</title>
<path fill="none" stroke="#de958e" d="M300.66,-721.94C316.81,-718.13 334.05,-713.98 350,-710 466.84,-680.84 601.79,-644.84 683.98,-622.66"/>
<polygon fill="#de958e" stroke="#de958e" points="685,-626.01 693.74,-620.02 683.17,-619.25 685,-626.01"/>
</g>
<!-- lunchbox.tools&#45;&gt;flatiron.core.tools -->
<g id="edge15" class="edge">
<title>lunchbox.tools&#45;&gt;flatiron.core.tools</title>
<path fill="none" stroke="#de958e" d="M300.79,-727.45C317.42,-723.47 334.87,-717.86 350,-710 369,-700.13 369.26,-691.35 386,-678 408.94,-659.7 435.86,-640.52 456.89,-626"/>
<polygon fill="#de958e" stroke="#de958e" points="458.95,-628.82 465.22,-620.28 454.99,-623.05 458.95,-628.82"/>
</g>
<!-- pytz -->
<g id="node13" class="node">
<title>pytz</title>
<polygon fill="#343434" stroke="#343434" points="261.5,-701 207.5,-701 207.5,-665 261.5,-665 261.5,-701"/>
<text text-anchor="middle" x="234.5" y="-679.3" font-family="Courier,monospace" font-size="14.00" fill="#de958e">pytz</text>
</g>
<!-- pytz&#45;&gt;flatiron.core.tools -->
<g id="edge16" class="edge">
<title>pytz&#45;&gt;flatiron.core.tools</title>
<path fill="none" stroke="#de958e" d="M261.68,-677.84C285.06,-673 320.12,-665.14 350,-656 380.19,-646.76 413.2,-634.4 439.84,-623.84"/>
<polygon fill="#de958e" stroke="#de958e" points="441.37,-627 449.35,-620.04 438.77,-620.5 441.37,-627"/>
</g>
<!-- schematics.exceptions -->
<g id="node14" class="node">
<title>schematics.exceptions</title>
<polygon fill="#343434" stroke="#343434" points="329.5,-90 139.5,-90 139.5,-54 329.5,-54 329.5,-90"/>
<text text-anchor="middle" x="234.5" y="-68.3" font-family="Courier,monospace" font-size="14.00" fill="#de958e">schematics.exceptions</text>
</g>
<!-- schematics.exceptions&#45;&gt;flatiron.core.validators -->
<g id="edge17" class="edge">
<title>schematics.exceptions&#45;&gt;flatiron.core.validators</title>
<path fill="none" stroke="#de958e" d="M329.74,-72C344.66,-72 360.25,-72 375.62,-72"/>
<polygon fill="#de958e" stroke="#de958e" points="375.67,-75.5 385.67,-72 375.67,-68.5 375.67,-75.5"/>
</g>
<!-- tensorflow.keras.callbacks -->
<g id="node15" class="node">
<title>tensorflow.keras.callbacks</title>
<polygon fill="#343434" stroke="#343434" points="350,-647 119,-647 119,-611 350,-611 350,-647"/>
<text text-anchor="middle" x="234.5" y="-625.3" font-family="Courier,monospace" font-size="14.00" fill="#de958e">tensorflow.keras.callbacks</text>
</g>
<!-- tensorflow.keras.callbacks&#45;&gt;flatiron.core.tools -->
<g id="edge18" class="edge">
<title>tensorflow.keras.callbacks&#45;&gt;flatiron.core.tools</title>
<path fill="none" stroke="#de958e" d="M350.1,-616.96C365.54,-615.34 381.25,-613.69 396.33,-612.1"/>
<polygon fill="#de958e" stroke="#de958e" points="397.08,-615.54 406.66,-611.02 396.35,-608.58 397.08,-615.54"/>
</g>
<!-- yaml -->
<g id="node16" class="node">
<title>yaml</title>
<polygon fill="#343434" stroke="#343434" points="261.5,-593 207.5,-593 207.5,-557 261.5,-557 261.5,-593"/>
<text text-anchor="middle" x="234.5" y="-571.3" font-family="Courier,monospace" font-size="14.00" fill="#de958e">yaml</text>
</g>
<!-- yaml&#45;&gt;flatiron.core.tools -->
<g id="edge19" class="edge">
<title>yaml&#45;&gt;flatiron.core.tools</title>
<path fill="none" stroke="#de958e" d="M261.56,-577.74C293.13,-581.05 348.11,-586.83 396.51,-591.92"/>
<polygon fill="#de958e" stroke="#de958e" points="396.41,-595.42 406.73,-592.99 397.15,-588.46 396.41,-595.42"/>
</g>
<!-- numpy -->
<g id="node17" class="node">
<title>numpy</title>
<polygon fill="#343434" stroke="#343434" points="522.5,-328 464.5,-328 464.5,-292 522.5,-292 522.5,-328"/>
<text text-anchor="middle" x="493.5" y="-306.3" font-family="Courier,monospace" font-size="14.00" fill="#de958e">numpy</text>
</g>
<!-- numpy&#45;&gt;flatiron.core.dataset -->
<g id="edge20" class="edge">
<title>numpy&#45;&gt;flatiron.core.dataset</title>
<path fill="none" stroke="#de958e" d="M522.69,-316.5C544.26,-321.63 574.66,-329.2 601,-337 634.15,-346.81 670.71,-359.12 700.4,-369.51"/>
<polygon fill="#de958e" stroke="#de958e" points="699.6,-372.94 710.2,-372.95 701.92,-366.34 699.6,-372.94"/>
</g>
<!-- pandas -->
<g id="node18" class="node">
<title>pandas</title>
<polygon fill="#343434" stroke="#343434" points="526.5,-274 460.5,-274 460.5,-238 526.5,-238 526.5,-274"/>
<text text-anchor="middle" x="493.5" y="-252.3" font-family="Courier,monospace" font-size="14.00" fill="#de958e">pandas</text>
</g>
<!-- pandas&#45;&gt;flatiron.core.dataset -->
<g id="edge21" class="edge">
<title>pandas&#45;&gt;flatiron.core.dataset</title>
<path fill="none" stroke="#de958e" d="M526.69,-261.13C548.34,-265.31 577.17,-272.29 601,-283 649.82,-304.95 699.89,-341.8 730.48,-366.26"/>
<polygon fill="#de958e" stroke="#de958e" points="728.59,-369.23 738.57,-372.8 732.99,-363.79 728.59,-369.23"/>
</g>
<!-- schematics -->
<g id="node19" class="node">
<title>schematics</title>
<polygon fill="#343434" stroke="#343434" points="543,-144 444,-144 444,-108 543,-108 543,-144"/>
<text text-anchor="middle" x="493.5" y="-122.3" font-family="Courier,monospace" font-size="14.00" fill="#de958e">schematics</text>
</g>
<!-- schematics&#45;&gt;flatiron.core.dataset_config -->
<g id="edge22" class="edge">
<title>schematics&#45;&gt;flatiron.core.dataset_config</title>
<path fill="none" stroke="#de958e" d="M543.2,-121.05C566.94,-118.63 596.77,-115.6 626.64,-112.56"/>
<polygon fill="#de958e" stroke="#de958e" points="627.17,-116.03 636.76,-111.53 626.46,-109.06 627.17,-116.03"/>
</g>
<!-- schematics.types -->
<g id="node20" class="node">
<title>schematics.types</title>
<polygon fill="#343434" stroke="#343434" points="568,-36 419,-36 419,0 568,0 568,-36"/>
<text text-anchor="middle" x="493.5" y="-14.3" font-family="Courier,monospace" font-size="14.00" fill="#de958e">schematics.types</text>
</g>
<!-- schematics.types&#45;&gt;flatiron.core.dataset_config -->
<g id="edge23" class="edge">
<title>schematics.types&#45;&gt;flatiron.core.dataset_config</title>
<path fill="none" stroke="#de958e" d="M568.04,-35.83C579.12,-38.76 590.39,-41.86 601,-45 634.15,-54.81 670.71,-67.12 700.4,-77.51"/>
<polygon fill="#de958e" stroke="#de958e" points="699.6,-80.94 710.2,-80.95 701.92,-74.34 699.6,-80.94"/>
</g>
<!-- sklearn.model_selection -->
<g id="node21" class="node">
<title>sklearn.model_selection</title>
<polygon fill="#343434" stroke="#343434" points="596.5,-490 390.5,-490 390.5,-454 596.5,-454 596.5,-490"/>
<text text-anchor="middle" x="493.5" y="-468.3" font-family="Courier,monospace" font-size="14.00" fill="#de958e">sklearn.model_selection</text>
</g>
<!-- sklearn.model_selection&#45;&gt;flatiron.core.dataset -->
<g id="edge24" class="edge">
<title>sklearn.model_selection&#45;&gt;flatiron.core.dataset</title>
<path fill="none" stroke="#de958e" d="M568.9,-453.94C579.71,-451.08 590.67,-448.06 601,-445 634.15,-435.19 670.71,-422.88 700.4,-412.49"/>
<polygon fill="#de958e" stroke="#de958e" points="701.92,-415.66 710.2,-409.05 699.6,-409.06 701.92,-415.66"/>
</g>
<!-- tqdm.notebook -->
<g id="node22" class="node">
<title>tqdm.notebook</title>
<polygon fill="#343434" stroke="#343434" points="555.5,-382 431.5,-382 431.5,-346 555.5,-346 555.5,-382"/>
<text text-anchor="middle" x="493.5" y="-360.3" font-family="Courier,monospace" font-size="14.00" fill="#de958e">tqdm.notebook</text>
</g>
<!-- tqdm.notebook&#45;&gt;flatiron.core.dataset -->
<g id="edge25" class="edge">
<title>tqdm.notebook&#45;&gt;flatiron.core.dataset</title>
<path fill="none" stroke="#de958e" d="M555.74,-370.23C585.43,-373.25 621.92,-376.96 655.81,-380.4"/>
<polygon fill="#de958e" stroke="#de958e" points="655.45,-383.89 665.76,-381.42 656.16,-376.92 655.45,-383.89"/>
</g>
</g>
</svg>
