<?xml version="1.0" encoding="UTF-8" standalone="no"?>
<!DOCTYPE svg PUBLIC "-//W3C//DTD SVG 1.1//EN"
 "http://www.w3.org/Graphics/SVG/1.1/DTD/svg11.dtd">
<!-- Generated by graphviz version 2.43.0 (0)
 -->
<!-- Title: %3 Pages: 1 -->
<svg width="1438pt" height="1119pt"
 viewBox="0.00 0.00 1438.00 1118.75" xmlns="http://www.w3.org/2000/svg" xmlns:xlink="http://www.w3.org/1999/xlink">
<g id="graph0" class="graph" transform="scale(1 1) rotate(0) translate(4 1114.75)">
<title>%3</title>
<polygon fill="#242424" stroke="transparent" points="-4,4 -4,-1114.75 1434,-1114.75 1434,4 -4,4"/>
<!-- cli -->
<g id="node1" class="node">
<title>cli</title>
<polygon fill="#343434" stroke="#343434" points="68.5,-390.75 14.5,-390.75 14.5,-354.75 68.5,-354.75 68.5,-390.75"/>
<text text-anchor="middle" x="41.5" y="-369.05" font-family="Courier,monospace" font-size="14.00" fill="#b6ecf3">cli</text>
</g>
<!-- flatiron\.command -->
<g id="node2" class="node">
<title>flatiron\.command</title>
<polygon fill="#343434" stroke="#343434" points="268,-744.75 119,-744.75 119,-708.75 268,-708.75 268,-744.75"/>
<text text-anchor="middle" x="193.5" y="-723.05" font-family="Courier,monospace" font-size="14.00" fill="#b6ecf3">flatiron.command</text>
</g>
<!-- flatiron\.core\.config -->
<g id="node3" class="node">
<title>flatiron\.core\.config</title>
<polygon fill="#343434" stroke="#343434" points="950,-1026.75 768,-1026.75 768,-990.75 950,-990.75 950,-1026.75"/>
<text text-anchor="middle" x="859" y="-1005.05" font-family="Courier,monospace" font-size="14.00" fill="#b6ecf3">flatiron.core.config</text>
</g>
<!-- flatiron\.core\.pipeline -->
<g id="node6" class="node">
<title>flatiron\.core\.pipeline</title>
<polygon fill="#343434" stroke="#343434" points="1188,-766.75 990,-766.75 990,-730.75 1188,-730.75 1188,-766.75"/>
<text text-anchor="middle" x="1089" y="-745.05" font-family="Courier,monospace" font-size="14.00" fill="#b6ecf3">flatiron.core.pipeline</text>
</g>
<!-- flatiron\.core\.config&#45;&gt;flatiron\.core\.pipeline -->
<g id="edge1" class="edge">
<title>flatiron\.core\.config&#45;&gt;flatiron\.core\.pipeline</title>
<path fill="none" stroke="#b6ecf3" d="M889.01,-990.66C908.62,-977.63 934.4,-958.86 954,-938.75 1004.38,-887.05 1049.77,-814.86 1072.55,-776.03"/>
<polygon fill="#b6ecf3" stroke="#b6ecf3" points="1075.85,-777.32 1077.84,-766.92 1069.8,-773.81 1075.85,-777.32"/>
</g>
<!-- flatiron\.core\.dataset -->
<g id="node4" class="node">
<title>flatiron\.core\.dataset</title>
<polygon fill="#343434" stroke="#343434" points="954,-566.75 764,-566.75 764,-530.75 954,-530.75 954,-566.75"/>
<text text-anchor="middle" x="859" y="-545.05" font-family="Courier,monospace" font-size="14.00" fill="#b6ecf3">flatiron.core.dataset</text>
</g>
<!-- flatiron\.core\.dataset&#45;&gt;flatiron\.core\.pipeline -->
<g id="edge2" class="edge">
<title>flatiron\.core\.dataset&#45;&gt;flatiron\.core\.pipeline</title>
<path fill="none" stroke="#b6ecf3" d="M880.64,-566.85C921.57,-602.76 1013.09,-683.04 1059.64,-723.87"/>
<polygon fill="#b6ecf3" stroke="#b6ecf3" points="1057.42,-726.58 1067.25,-730.55 1062.04,-721.32 1057.42,-726.58"/>
</g>
<!-- flatiron\.core\.logging -->
<g id="node5" class="node">
<title>flatiron\.core\.logging</title>
<polygon fill="#343434" stroke="#343434" points="954,-812.75 764,-812.75 764,-776.75 954,-776.75 954,-812.75"/>
<text text-anchor="middle" x="859" y="-791.05" font-family="Courier,monospace" font-size="14.00" fill="#b6ecf3">flatiron.core.logging</text>
</g>
<!-- flatiron\.core\.logging&#45;&gt;flatiron\.core\.pipeline -->
<g id="edge3" class="edge">
<title>flatiron\.core\.logging&#45;&gt;flatiron\.core\.pipeline</title>
<path fill="none" stroke="#b6ecf3" d="M949.46,-776.7C962.28,-774.11 975.54,-771.44 988.54,-768.82"/>
<polygon fill="#b6ecf3" stroke="#b6ecf3" points="989.32,-772.23 998.43,-766.82 987.93,-765.37 989.32,-772.23"/>
</g>
<!-- flatiron\.tf\.models\.unet -->
<g id="node12" class="node">
<title>flatiron\.tf\.models\.unet</title>
<polygon fill="#343434" stroke="#343434" points="1430,-766.75 1224,-766.75 1224,-730.75 1430,-730.75 1430,-766.75"/>
<text text-anchor="middle" x="1327" y="-745.05" font-family="Courier,monospace" font-size="14.00" fill="#b6ecf3">flatiron.tf.models.unet</text>
</g>
<!-- flatiron\.core\.pipeline&#45;&gt;flatiron\.tf\.models\.unet -->
<g id="edge4" class="edge">
<title>flatiron\.core\.pipeline&#45;&gt;flatiron\.tf\.models\.unet</title>
<path fill="none" stroke="#b6ecf3" d="M1188.03,-748.75C1196.5,-748.75 1205.11,-748.75 1213.67,-748.75"/>
<polygon fill="#b6ecf3" stroke="#b6ecf3" points="1213.7,-752.25 1223.7,-748.75 1213.7,-745.25 1213.7,-752.25"/>
</g>
<!-- flatiron\.core\.tools -->
<g id="node7" class="node">
<title>flatiron\.core\.tools</title>
<polygon fill="#343434" stroke="#343434" points="707,-298.75 534,-298.75 534,-262.75 707,-262.75 707,-298.75"/>
<text text-anchor="middle" x="620.5" y="-277.05" font-family="Courier,monospace" font-size="14.00" fill="#b6ecf3">flatiron.core.tools</text>
</g>
<!-- flatiron\.core\.tools&#45;&gt;flatiron\.core\.dataset -->
<g id="edge5" class="edge">
<title>flatiron\.core\.tools&#45;&gt;flatiron\.core\.dataset</title>
<path fill="none" stroke="#b6ecf3" d="M707.01,-293.86C714.68,-297.48 721.86,-302.03 728,-307.75 765.33,-342.53 740.94,-371.24 764,-416.75 784.08,-456.38 815.15,-497.34 836.02,-522.92"/>
<polygon fill="#b6ecf3" stroke="#b6ecf3" points="833.34,-525.17 842.41,-530.66 838.74,-520.72 833.34,-525.17"/>
</g>
<!-- flatiron\.core\.tools&#45;&gt;flatiron\.core\.logging -->
<g id="edge6" class="edge">
<title>flatiron\.core\.tools&#45;&gt;flatiron\.core\.logging</title>
<path fill="none" stroke="#b6ecf3" d="M707.13,-292.23C714.98,-296.13 722.16,-301.2 728,-307.75 767.98,-352.61 748,-517.83 764,-575.75 783.89,-647.75 822.47,-727.11 843.49,-767.64"/>
<polygon fill="#b6ecf3" stroke="#b6ecf3" points="840.45,-769.38 848.19,-776.62 846.65,-766.14 840.45,-769.38"/>
</g>
<!-- flatiron\.core\.tools&#45;&gt;flatiron\.core\.pipeline -->
<g id="edge7" class="edge">
<title>flatiron\.core\.tools&#45;&gt;flatiron\.core\.pipeline</title>
<path fill="none" stroke="#b6ecf3" d="M707.23,-295.31C714.68,-298.65 721.75,-302.74 728,-307.75 755.62,-329.86 735.82,-357.35 764,-378.75 832.58,-430.83 887.71,-361.78 954,-416.75 1050.12,-496.45 1077.9,-655.49 1085.41,-720.29"/>
<polygon fill="#b6ecf3" stroke="#b6ecf3" points="1081.96,-720.99 1086.51,-730.55 1088.92,-720.23 1081.96,-720.99"/>
</g>
<!-- flatiron\.tf\.loss -->
<g id="node10" class="node">
<title>flatiron\.tf\.loss</title>
<polygon fill="#343434" stroke="#343434" points="933.5,-336.75 784.5,-336.75 784.5,-300.75 933.5,-300.75 933.5,-336.75"/>
<text text-anchor="middle" x="859" y="-315.05" font-family="Courier,monospace" font-size="14.00" fill="#b6ecf3">flatiron.tf.loss</text>
</g>
<!-- flatiron\.core\.tools&#45;&gt;flatiron\.tf\.loss -->
<g id="edge8" class="edge">
<title>flatiron\.core\.tools&#45;&gt;flatiron\.tf\.loss</title>
<path fill="none" stroke="#b6ecf3" d="M707.22,-294.52C729.11,-298.04 752.62,-301.82 774.41,-305.32"/>
<polygon fill="#b6ecf3" stroke="#b6ecf3" points="773.86,-308.78 784.28,-306.91 774.97,-301.86 773.86,-308.78"/>
</g>
<!-- flatiron\.tf\.metric -->
<g id="node11" class="node">
<title>flatiron\.tf\.metric</title>
<polygon fill="#343434" stroke="#343434" points="941.5,-244.75 776.5,-244.75 776.5,-208.75 941.5,-208.75 941.5,-244.75"/>
<text text-anchor="middle" x="859" y="-223.05" font-family="Courier,monospace" font-size="14.00" fill="#b6ecf3">flatiron.tf.metric</text>
</g>
<!-- flatiron\.core\.tools&#45;&gt;flatiron\.tf\.metric -->
<g id="edge9" class="edge">
<title>flatiron\.core\.tools&#45;&gt;flatiron\.tf\.metric</title>
<path fill="none" stroke="#b6ecf3" d="M700.58,-262.69C722.57,-257.67 746.6,-252.19 769.11,-247.05"/>
<polygon fill="#b6ecf3" stroke="#b6ecf3" points="770.02,-250.43 778.99,-244.79 768.47,-243.6 770.02,-250.43"/>
</g>
<!-- flatiron\.core\.tools&#45;&gt;flatiron\.tf\.models\.unet -->
<g id="edge10" class="edge">
<title>flatiron\.core\.tools&#45;&gt;flatiron\.tf\.models\.unet</title>
<path fill="none" stroke="#b6ecf3" d="M707.23,-297.84C714.47,-300.66 721.5,-303.94 728,-307.75 748.07,-319.52 743.5,-334.76 764,-345.75 839.53,-386.25 877.87,-339.37 954,-378.75 1120.86,-465.06 1260.31,-652.44 1308.21,-722.03"/>
<polygon fill="#b6ecf3" stroke="#b6ecf3" points="1305.58,-724.38 1314.11,-730.67 1311.36,-720.44 1305.58,-724.38"/>
</g>
<!-- flatiron\.tf\.optimizer -->
<g id="node13" class="node">
<title>flatiron\.tf\.optimizer</title>
<polygon fill="#343434" stroke="#343434" points="954,-190.75 764,-190.75 764,-154.75 954,-154.75 954,-190.75"/>
<text text-anchor="middle" x="859" y="-169.05" font-family="Courier,monospace" font-size="14.00" fill="#b6ecf3">flatiron.tf.optimizer</text>
</g>
<!-- flatiron\.core\.tools&#45;&gt;flatiron\.tf\.optimizer -->
<g id="edge11" class="edge">
<title>flatiron\.core\.tools&#45;&gt;flatiron\.tf\.optimizer</title>
<path fill="none" stroke="#b6ecf3" d="M707.17,-265.16C714.54,-262.03 721.61,-258.27 728,-253.75 751.55,-237.1 740.71,-216.77 764,-199.75 765.89,-198.37 767.86,-197.05 769.87,-195.81"/>
<polygon fill="#b6ecf3" stroke="#b6ecf3" points="771.97,-198.65 779.05,-190.76 768.6,-192.51 771.97,-198.65"/>
</g>
<!-- flatiron\.tf\.tools -->
<g id="node14" class="node">
<title>flatiron\.tf\.tools</title>
<polygon fill="#343434" stroke="#343434" points="937.5,-136.75 780.5,-136.75 780.5,-100.75 937.5,-100.75 937.5,-136.75"/>
<text text-anchor="middle" x="859" y="-115.05" font-family="Courier,monospace" font-size="14.00" fill="#b6ecf3">flatiron.tf.tools</text>
</g>
<!-- flatiron\.core\.tools&#45;&gt;flatiron\.tf\.tools -->
<g id="edge12" class="edge">
<title>flatiron\.core\.tools&#45;&gt;flatiron\.tf\.tools</title>
<path fill="none" stroke="#b6ecf3" d="M707.25,-267.5C714.83,-263.91 721.92,-259.4 728,-253.75 765.07,-219.31 727.48,-180.77 764,-145.75 766.39,-143.46 768.96,-141.36 771.67,-139.44"/>
<polygon fill="#b6ecf3" stroke="#b6ecf3" points="773.51,-142.41 780.18,-134.18 769.84,-136.46 773.51,-142.41"/>
</g>
<!-- flatiron\.core\.types -->
<g id="node8" class="node">
<title>flatiron\.core\.types</title>
<polygon fill="#343434" stroke="#343434" points="477,-452.75 304,-452.75 304,-416.75 477,-416.75 477,-452.75"/>
<text text-anchor="middle" x="390.5" y="-431.05" font-family="Courier,monospace" font-size="14.00" fill="#b6ecf3">flatiron.core.types</text>
</g>
<!-- flatiron\.core\.types&#45;&gt;flatiron\.core\.dataset -->
<g id="edge13" class="edge">
<title>flatiron\.core\.types&#45;&gt;flatiron\.core\.dataset</title>
<path fill="none" stroke="#b6ecf3" d="M463.7,-416.73C535.38,-402.93 646.1,-393 728,-437.75 753.64,-451.76 742.91,-472.53 764,-492.75 777.3,-505.5 794.01,-516.62 809.64,-525.52"/>
<polygon fill="#b6ecf3" stroke="#b6ecf3" points="808.23,-528.75 818.68,-530.51 811.61,-522.62 808.23,-528.75"/>
</g>
<!-- flatiron\.core\.types&#45;&gt;flatiron\.core\.pipeline -->
<g id="edge14" class="edge">
<title>flatiron\.core\.types&#45;&gt;flatiron\.core\.pipeline</title>
<path fill="none" stroke="#b6ecf3" d="M395.77,-452.8C406.9,-495.52 441.03,-603.02 513,-653.75 651.75,-751.56 855.62,-761.97 979.65,-757.53"/>
<polygon fill="#b6ecf3" stroke="#b6ecf3" points="980.06,-761.01 989.92,-757.12 979.79,-754.02 980.06,-761.01"/>
</g>
<!-- flatiron\.core\.types&#45;&gt;flatiron\.core\.tools -->
<g id="edge15" class="edge">
<title>flatiron\.core\.types&#45;&gt;flatiron\.core\.tools</title>
<path fill="none" stroke="#b6ecf3" d="M465.48,-416.59C469.63,-414.02 473.52,-411.09 477,-407.75 511.06,-375.02 478.01,-339.49 513,-307.75 516.65,-304.44 520.65,-301.52 524.88,-298.95"/>
<polygon fill="#b6ecf3" stroke="#b6ecf3" points="526.71,-301.95 533.88,-294.15 523.41,-295.77 526.71,-301.95"/>
</g>
<!-- flatiron\.core\.types&#45;&gt;flatiron\.tf\.tools -->
<g id="edge16" class="edge">
<title>flatiron\.core\.types&#45;&gt;flatiron\.tf\.tools</title>
<path fill="none" stroke="#b6ecf3" d="M467.56,-416.65C471.04,-414.06 474.23,-411.11 477,-407.75 521.94,-353.2 460.27,-138.81 513,-91.75 550.1,-58.64 683.49,-79.64 773.11,-98.62"/>
<polygon fill="#b6ecf3" stroke="#b6ecf3" points="772.49,-102.06 783,-100.74 773.96,-95.22 772.49,-102.06"/>
</g>
<!-- flatiron\.core\.validators -->
<g id="node9" class="node">
<title>flatiron\.core\.validators</title>
<polygon fill="#343434" stroke="#343434" points="728,-1056.75 513,-1056.75 513,-1020.75 728,-1020.75 728,-1056.75"/>
<text text-anchor="middle" x="620.5" y="-1035.05" font-family="Courier,monospace" font-size="14.00" fill="#b6ecf3">flatiron.core.validators</text>
</g>
<!-- flatiron\.core\.validators&#45;&gt;flatiron\.core\.config -->
<g id="edge17" class="edge">
<title>flatiron\.core\.validators&#45;&gt;flatiron\.core\.config</title>
<path fill="none" stroke="#b6ecf3" d="M728.33,-1025.2C738.15,-1023.95 748.06,-1022.7 757.81,-1021.46"/>
<polygon fill="#b6ecf3" stroke="#b6ecf3" points="758.42,-1024.91 767.9,-1020.18 757.54,-1017.97 758.42,-1024.91"/>
</g>
<!-- flatiron\.core\.validators&#45;&gt;flatiron\.tf\.models\.unet -->
<g id="edge18" class="edge">
<title>flatiron\.core\.validators&#45;&gt;flatiron\.tf\.models\.unet</title>
<path fill="none" stroke="#b6ecf3" d="M728.03,-1050.75C794.13,-1055.04 880.23,-1054.83 954,-1035.75 1068.56,-1006.12 1095.85,-982.99 1188,-908.75 1237.56,-868.82 1283.33,-809.53 1307.68,-775.45"/>
<polygon fill="#b6ecf3" stroke="#b6ecf3" points="1310.77,-777.14 1313.68,-766.95 1305.06,-773.1 1310.77,-777.14"/>
</g>
<!-- click -->
<g id="node15" class="node">
<title>click</title>
<polygon fill="#343434" stroke="#343434" points="70.5,-744.75 12.5,-744.75 12.5,-708.75 70.5,-708.75 70.5,-744.75"/>
<text text-anchor="middle" x="41.5" y="-723.05" font-family="Courier,monospace" font-size="14.00" fill="#de958e">click</text>
</g>
<!-- click&#45;&gt;flatiron\.command -->
<g id="edge19" class="edge">
<title>click&#45;&gt;flatiron\.command</title>
<path fill="none" stroke="#de958e" d="M70.71,-726.75C81.78,-726.75 95.1,-726.75 108.82,-726.75"/>
<polygon fill="#de958e" stroke="#de958e" points="108.85,-730.25 118.85,-726.75 108.85,-723.25 108.85,-730.25"/>
</g>
<!-- flatiron\.tf\.models -->
<g id="node16" class="node">
<title>flatiron\.tf\.models</title>
<polygon fill="#343434" stroke="#343434" points="941.5,-82.75 776.5,-82.75 776.5,-46.75 941.5,-46.75 941.5,-82.75"/>
<text text-anchor="middle" x="859" y="-61.05" font-family="Courier,monospace" font-size="14.00" fill="#a0d17b">flatiron.tf.models</text>
</g>
<!-- flatiron\.tf\.models&#45;&gt;flatiron\.tf\.models\.unet -->
<g id="edge20" class="edge">
<title>flatiron\.tf\.models&#45;&gt;flatiron\.tf\.models\.unet</title>
<path fill="none" stroke="#a0d17b" d="M932.28,-82.77C939.75,-85.44 947.12,-88.43 954,-91.75 1069.06,-147.3 1114.52,-154.23 1188,-258.75 1294.07,-409.63 1318.91,-640.13 1324.47,-720.18"/>
<polygon fill="#a0d17b" stroke="#a0d17b" points="1321,-720.7 1325.13,-730.46 1327.98,-720.25 1321,-720.7"/>
</g>
<!-- flatiron\.tf -->
<g id="node17" class="node">
<title>flatiron\.tf</title>
<polygon fill="#343434" stroke="#343434" points="674,-190.75 567,-190.75 567,-154.75 674,-154.75 674,-190.75"/>
<text text-anchor="middle" x="620.5" y="-169.05" font-family="Courier,monospace" font-size="14.00" fill="#a0d17b">flatiron.tf</text>
</g>
<!-- flatiron\.tf&#45;&gt;flatiron\.tf\.loss -->
<g id="edge21" class="edge">
<title>flatiron\.tf&#45;&gt;flatiron\.tf\.loss</title>
<path fill="none" stroke="#a0d17b" d="M674.05,-178.22C692.38,-182.08 712.27,-188.63 728,-199.75 751.55,-216.4 743.78,-233.18 764,-253.75 779.52,-269.53 799.36,-283.9 816.81,-295.1"/>
<polygon fill="#a0d17b" stroke="#a0d17b" points="815.35,-298.31 825.69,-300.65 819.07,-292.38 815.35,-298.31"/>
</g>
<!-- flatiron\.tf&#45;&gt;flatiron\.tf\.metric -->
<g id="edge22" class="edge">
<title>flatiron\.tf&#45;&gt;flatiron\.tf\.metric</title>
<path fill="none" stroke="#a0d17b" d="M674.28,-184.8C702.16,-191.17 737.14,-199.15 769.07,-206.44"/>
<polygon fill="#a0d17b" stroke="#a0d17b" points="768.34,-209.87 778.87,-208.68 769.9,-203.04 768.34,-209.87"/>
</g>
<!-- flatiron\.tf&#45;&gt;flatiron\.tf\.optimizer -->
<g id="edge23" class="edge">
<title>flatiron\.tf&#45;&gt;flatiron\.tf\.optimizer</title>
<path fill="none" stroke="#a0d17b" d="M674.28,-172.75C697.8,-172.75 726.37,-172.75 753.9,-172.75"/>
<polygon fill="#a0d17b" stroke="#a0d17b" points="753.99,-176.25 763.99,-172.75 753.99,-169.25 753.99,-176.25"/>
</g>
<!-- flatiron\.tf&#45;&gt;flatiron\.tf\.tools -->
<g id="edge24" class="edge">
<title>flatiron\.tf&#45;&gt;flatiron\.tf\.tools</title>
<path fill="none" stroke="#a0d17b" d="M674.28,-160.7C702.53,-154.25 738.07,-146.13 770.34,-138.77"/>
<polygon fill="#a0d17b" stroke="#a0d17b" points="771.27,-142.14 780.24,-136.51 769.71,-135.32 771.27,-142.14"/>
</g>
<!-- flatiron\.tf&#45;&gt;flatiron\.tf\.models -->
<g id="edge25" class="edge">
<title>flatiron\.tf&#45;&gt;flatiron\.tf\.models</title>
<path fill="none" stroke="#a0d17b" d="M674.05,-167.28C692.38,-163.42 712.27,-156.87 728,-145.75 751.55,-129.1 740.71,-108.77 764,-91.75 765.89,-90.37 767.86,-89.05 769.87,-87.81"/>
<polygon fill="#a0d17b" stroke="#a0d17b" points="771.97,-90.65 779.05,-82.76 768.6,-84.51 771.97,-90.65"/>
</g>
<!-- keras -->
<g id="node18" class="node">
<title>keras</title>
<polygon fill="#343434" stroke="#343434" points="649.5,-244.75 591.5,-244.75 591.5,-208.75 649.5,-208.75 649.5,-244.75"/>
<text text-anchor="middle" x="620.5" y="-223.05" font-family="Courier,monospace" font-size="14.00" fill="#de958e">keras</text>
</g>
<!-- keras&#45;&gt;flatiron\.tf\.loss -->
<g id="edge26" class="edge">
<title>keras&#45;&gt;flatiron\.tf\.loss</title>
<path fill="none" stroke="#de958e" d="M649.56,-230.02C671.87,-233.5 703.33,-240.43 728,-253.75 747.1,-264.06 745.33,-275.68 764,-286.75 770.22,-290.44 776.92,-293.77 783.79,-296.78"/>
<polygon fill="#de958e" stroke="#de958e" points="782.64,-300.09 793.21,-300.67 785.31,-293.62 782.64,-300.09"/>
</g>
<!-- keras&#45;&gt;flatiron\.tf\.metric -->
<g id="edge27" class="edge">
<title>keras&#45;&gt;flatiron\.tf\.metric</title>
<path fill="none" stroke="#de958e" d="M649.56,-226.75C678.33,-226.75 724.63,-226.75 766.29,-226.75"/>
<polygon fill="#de958e" stroke="#de958e" points="766.49,-230.25 776.49,-226.75 766.49,-223.25 766.49,-230.25"/>
</g>
<!-- keras&#45;&gt;flatiron\.tf\.models\.unet -->
<g id="edge28" class="edge">
<title>keras&#45;&gt;flatiron\.tf\.models\.unet</title>
<path fill="none" stroke="#de958e" d="M649.53,-232.04C727.02,-246.68 939.39,-287 954,-291.75 1063.1,-327.24 1109.28,-317.29 1188,-400.75 1277.58,-495.72 1311.55,-655.92 1322.02,-720.51"/>
<polygon fill="#de958e" stroke="#de958e" points="1318.61,-721.38 1323.61,-730.72 1325.53,-720.3 1318.61,-721.38"/>
</g>
<!-- keras&#45;&gt;flatiron\.tf\.optimizer -->
<g id="edge29" class="edge">
<title>keras&#45;&gt;flatiron\.tf\.optimizer</title>
<path fill="none" stroke="#de958e" d="M649.56,-220.34C679.02,-213.62 726.86,-202.69 769.28,-193.01"/>
<polygon fill="#de958e" stroke="#de958e" points="770.11,-196.41 779.08,-190.77 768.56,-189.58 770.11,-196.41"/>
</g>
<!-- keras&#45;&gt;flatiron\.tf\.tools -->
<g id="edge30" class="edge">
<title>keras&#45;&gt;flatiron\.tf\.tools</title>
<path fill="none" stroke="#de958e" d="M649.6,-225.14C672.52,-222.61 704.8,-216.16 728,-199.75 751.55,-183.1 740.71,-162.77 764,-145.75 766.38,-144.01 768.86,-142.39 771.43,-140.86"/>
<polygon fill="#de958e" stroke="#de958e" points="773.26,-143.86 780.46,-136.08 769.98,-137.67 773.26,-143.86"/>
</g>
<!-- tensorflow -->
<g id="node19" class="node">
<title>tensorflow</title>
<polygon fill="#343434" stroke="#343434" points="670,-136.75 571,-136.75 571,-100.75 670,-100.75 670,-136.75"/>
<text text-anchor="middle" x="620.5" y="-115.05" font-family="Courier,monospace" font-size="14.00" fill="#de958e">tensorflow</text>
</g>
<!-- tensorflow&#45;&gt;flatiron\.tf\.loss -->
<g id="edge31" class="edge">
<title>tensorflow&#45;&gt;flatiron\.tf\.loss</title>
<path fill="none" stroke="#de958e" d="M670.1,-121.01C690.21,-124.29 712.42,-131.27 728,-145.75 765.07,-180.19 733.63,-213.28 764,-253.75 776.68,-270.64 795.06,-284.73 812.22,-295.41"/>
<polygon fill="#de958e" stroke="#de958e" points="810.66,-298.56 821.04,-300.69 814.26,-292.55 810.66,-298.56"/>
</g>
<!-- tensorflow&#45;&gt;flatiron\.tf\.metric -->
<g id="edge32" class="edge">
<title>tensorflow&#45;&gt;flatiron\.tf\.metric</title>
<path fill="none" stroke="#de958e" d="M670.26,-123.46C689.6,-127.19 711.18,-133.86 728,-145.75 751.55,-162.4 740.71,-182.73 764,-199.75 765.89,-201.13 767.86,-202.45 769.87,-203.69"/>
<polygon fill="#de958e" stroke="#de958e" points="768.6,-206.99 779.05,-208.74 771.97,-200.85 768.6,-206.99"/>
</g>
<!-- tensorflow&#45;&gt;flatiron\.tf\.models\.unet -->
<g id="edge33" class="edge">
<title>tensorflow&#45;&gt;flatiron\.tf\.models\.unet</title>
<path fill="none" stroke="#de958e" d="M644.53,-100.59C671.41,-80.66 718.06,-49.9 764,-37.75 948.58,11.04 1058.15,33.22 1188,-106.75 1273.45,-198.86 1314.05,-608.26 1323.69,-720.32"/>
<polygon fill="#de958e" stroke="#de958e" points="1320.23,-720.83 1324.55,-730.5 1327.2,-720.24 1320.23,-720.83"/>
</g>
<!-- tensorflow&#45;&gt;flatiron\.tf\.optimizer -->
<g id="edge34" class="edge">
<title>tensorflow&#45;&gt;flatiron\.tf\.optimizer</title>
<path fill="none" stroke="#de958e" d="M670.22,-129.87C698.77,-136.39 735.71,-144.83 769.26,-152.49"/>
<polygon fill="#de958e" stroke="#de958e" points="768.56,-155.92 779.09,-154.73 770.12,-149.09 768.56,-155.92"/>
</g>
<!-- tensorflow&#45;&gt;flatiron\.tf\.tools -->
<g id="edge35" class="edge">
<title>tensorflow&#45;&gt;flatiron\.tf\.tools</title>
<path fill="none" stroke="#de958e" d="M670.22,-118.75C699.01,-118.75 736.34,-118.75 770.13,-118.75"/>
<polygon fill="#de958e" stroke="#de958e" points="770.48,-122.25 780.48,-118.75 770.48,-115.25 770.48,-122.25"/>
</g>
<!-- flatiron -->
<g id="node20" class="node">
<title>flatiron</title>
<polygon fill="#343434" stroke="#343434" points="83,-444.75 0,-444.75 0,-408.75 83,-408.75 83,-444.75"/>
<text text-anchor="middle" x="41.5" y="-423.05" font-family="Courier,monospace" font-size="14.00" fill="#a0d17b">flatiron</text>
</g>
<!-- flatiron&#45;&gt;flatiron\.command -->
<g id="edge36" class="edge">
<title>flatiron&#45;&gt;flatiron\.command</title>
<path fill="none" stroke="#a0d17b" d="M42.24,-445.05C42.55,-493.25 50.02,-625.1 119,-699.75 119.88,-700.7 120.8,-701.63 121.75,-702.51"/>
<polygon fill="#a0d17b" stroke="#a0d17b" points="119.6,-705.27 129.62,-708.71 123.93,-699.77 119.6,-705.27"/>
</g>
<!-- flatiron&#45;&gt;flatiron\.tf\.models -->
<g id="edge37" class="edge">
<title>flatiron&#45;&gt;flatiron\.tf\.models</title>
<path fill="none" stroke="#a0d17b" d="M75.17,-408.57C78.14,-405.92 80.83,-402.98 83,-399.75 127.78,-333.12 67.18,-284.07 119,-222.75 279.24,-33.14 606.34,-37.51 766.09,-52.69"/>
<polygon fill="#a0d17b" stroke="#a0d17b" points="766.07,-56.2 776.36,-53.7 766.76,-49.24 766.07,-56.2"/>
</g>
<!-- flatiron&#45;&gt;flatiron\.tf -->
<g id="edge38" class="edge">
<title>flatiron&#45;&gt;flatiron\.tf</title>
<path fill="none" stroke="#a0d17b" d="M70.71,-408.61C74.89,-405.73 79.1,-402.72 83,-399.75 186.45,-320.84 184.82,-259.96 304,-207.75 385.94,-171.86 490.81,-167.41 556.59,-168.96"/>
<polygon fill="#a0d17b" stroke="#a0d17b" points="556.7,-172.47 566.8,-169.26 556.91,-165.47 556.7,-172.47"/>
</g>
<!-- flatiron\.core -->
<g id="node21" class="node">
<title>flatiron\.core</title>
<polygon fill="#343434" stroke="#343434" points="255.5,-690.75 131.5,-690.75 131.5,-654.75 255.5,-654.75 255.5,-690.75"/>
<text text-anchor="middle" x="193.5" y="-669.05" font-family="Courier,monospace" font-size="14.00" fill="#a0d17b">flatiron.core</text>
</g>
<!-- flatiron&#45;&gt;flatiron\.core -->
<g id="edge39" class="edge">
<title>flatiron&#45;&gt;flatiron\.core</title>
<path fill="none" stroke="#a0d17b" d="M53.53,-444.84C79.64,-487.67 145.36,-595.45 176.13,-645.91"/>
<polygon fill="#a0d17b" stroke="#a0d17b" points="173.26,-647.92 181.45,-654.63 179.24,-644.27 173.26,-647.92"/>
</g>
<!-- flatiron\.core&#45;&gt;flatiron\.core\.config -->
<g id="edge40" class="edge">
<title>flatiron\.core&#45;&gt;flatiron\.core\.config</title>
<path fill="none" stroke="#a0d17b" d="M255.76,-689.04C260.35,-692.03 264.53,-695.56 268,-699.75 329.85,-774.33 239.33,-842.6 304,-914.75 362.86,-980.42 614.87,-1000.21 757.88,-1006.18"/>
<polygon fill="#a0d17b" stroke="#a0d17b" points="757.85,-1009.68 767.98,-1006.59 758.13,-1002.69 757.85,-1009.68"/>
</g>
<!-- flatiron\.core&#45;&gt;flatiron\.core\.dataset -->
<g id="edge41" class="edge">
<title>flatiron\.core&#45;&gt;flatiron\.core\.dataset</title>
<path fill="none" stroke="#a0d17b" d="M255.59,-675.38C376.75,-679.82 643.13,-685.45 728,-653.75 771.84,-637.37 812.05,-599.94 835.79,-574.5"/>
<polygon fill="#a0d17b" stroke="#a0d17b" points="838.46,-576.76 842.62,-567.02 833.29,-572.04 838.46,-576.76"/>
</g>
<!-- flatiron\.core&#45;&gt;flatiron\.core\.logging -->
<g id="edge42" class="edge">
<title>flatiron\.core&#45;&gt;flatiron\.core\.logging</title>
<path fill="none" stroke="#a0d17b" d="M255.7,-690.17C260.18,-692.91 264.36,-696.09 268,-699.75 301.29,-733.26 265.35,-772.59 304,-799.75 454.48,-905.51 689.27,-850.48 798.45,-815.86"/>
<polygon fill="#a0d17b" stroke="#a0d17b" points="799.54,-819.19 807.99,-812.79 797.4,-812.52 799.54,-819.19"/>
</g>
<!-- flatiron\.core&#45;&gt;flatiron\.core\.pipeline -->
<g id="edge43" class="edge">
<title>flatiron\.core&#45;&gt;flatiron\.core\.pipeline</title>
<path fill="none" stroke="#a0d17b" d="M255.76,-689.57C260.28,-692.44 264.45,-695.81 268,-699.75 311.84,-748.47 254.29,-800.04 304,-842.75 374.78,-903.56 419.79,-858.3 513,-862.75 709.62,-872.14 768.37,-887.24 954,-821.75 989.09,-809.37 1026,-788.61 1052.19,-772.38"/>
<polygon fill="#a0d17b" stroke="#a0d17b" points="1054.38,-775.14 1060.98,-766.85 1050.65,-769.21 1054.38,-775.14"/>
</g>
<!-- flatiron\.core&#45;&gt;flatiron\.core\.tools -->
<g id="edge44" class="edge">
<title>flatiron\.core&#45;&gt;flatiron\.core\.tools</title>
<path fill="none" stroke="#a0d17b" d="M197.08,-654.51C207.16,-586.03 246.2,-345.8 304,-299.75 336.88,-273.56 443.39,-271.91 523.63,-274.81"/>
<polygon fill="#a0d17b" stroke="#a0d17b" points="523.65,-278.31 533.78,-275.21 523.92,-271.32 523.65,-278.31"/>
</g>
<!-- flatiron\.core&#45;&gt;flatiron\.core\.types -->
<g id="edge45" class="edge">
<title>flatiron\.core&#45;&gt;flatiron\.core\.types</title>
<path fill="none" stroke="#a0d17b" d="M209.48,-654.47C243.87,-612.49 328.6,-509.07 368.32,-460.6"/>
<polygon fill="#a0d17b" stroke="#a0d17b" points="371.11,-462.72 374.74,-452.77 365.69,-458.28 371.11,-462.72"/>
</g>
<!-- flatiron\.core&#45;&gt;flatiron\.core\.validators -->
<g id="edge46" class="edge">
<title>flatiron\.core&#45;&gt;flatiron\.core\.validators</title>
<path fill="none" stroke="#a0d17b" d="M255.65,-688.63C260.32,-691.71 264.55,-695.37 268,-699.75 353.07,-807.62 206.1,-910.37 304,-1006.75 359.81,-1061.69 451.02,-1065.46 521.05,-1057.95"/>
<polygon fill="#a0d17b" stroke="#a0d17b" points="521.69,-1061.4 531.22,-1056.77 520.88,-1054.45 521.69,-1061.4"/>
</g>
<!-- lunchbox\.stopwatch -->
<g id="node22" class="node">
<title>lunchbox\.stopwatch</title>
<polygon fill="#343434" stroke="#343434" points="473,-252.75 308,-252.75 308,-216.75 473,-216.75 473,-252.75"/>
<text text-anchor="middle" x="390.5" y="-231.05" font-family="Courier,monospace" font-size="14.00" fill="#de958e">lunchbox.stopwatch</text>
</g>
<!-- lunchbox\.stopwatch&#45;&gt;flatiron\.core\.tools -->
<g id="edge47" class="edge">
<title>lunchbox\.stopwatch&#45;&gt;flatiron\.core\.tools</title>
<path fill="none" stroke="#de958e" d="M473.17,-251.23C489.62,-254.55 507.05,-258.06 523.92,-261.47"/>
<polygon fill="#de958e" stroke="#de958e" points="523.29,-264.91 533.78,-263.46 524.67,-258.05 523.29,-264.91"/>
</g>
<!-- yaml -->
<g id="node23" class="node">
<title>yaml</title>
<polygon fill="#343434" stroke="#343434" points="417.5,-398.75 363.5,-398.75 363.5,-362.75 417.5,-362.75 417.5,-398.75"/>
<text text-anchor="middle" x="390.5" y="-377.05" font-family="Courier,monospace" font-size="14.00" fill="#de958e">yaml</text>
</g>
<!-- yaml&#45;&gt;flatiron\.core\.pipeline -->
<g id="edge48" class="edge">
<title>yaml&#45;&gt;flatiron\.core\.pipeline</title>
<path fill="none" stroke="#de958e" d="M417.71,-375.09C477.38,-363.66 626.05,-343.62 728,-401.75 752.74,-415.86 741.44,-437.37 764,-454.75 834.92,-509.41 884.84,-464.87 954,-521.75 1020.52,-576.46 1061.65,-673.4 1078.78,-720.92"/>
<polygon fill="#de958e" stroke="#de958e" points="1075.54,-722.27 1082.16,-730.55 1082.15,-719.95 1075.54,-722.27"/>
</g>
<!-- yaml&#45;&gt;flatiron\.core\.tools -->
<g id="edge49" class="edge">
<title>yaml&#45;&gt;flatiron\.core\.tools</title>
<path fill="none" stroke="#de958e" d="M417.61,-376.71C435.54,-372.98 459.22,-366.08 477,-353.75 498.33,-338.96 491.25,-321.92 513,-307.75 516.74,-305.31 520.69,-303.09 524.78,-301.08"/>
<polygon fill="#de958e" stroke="#de958e" points="526.23,-304.26 533.91,-296.97 523.36,-297.88 526.23,-304.26"/>
</g>
<!-- lunchbox\.tools -->
<g id="node24" class="node">
<title>lunchbox\.tools</title>
<polygon fill="#343434" stroke="#343434" points="456.5,-736.75 324.5,-736.75 324.5,-700.75 456.5,-700.75 456.5,-736.75"/>
<text text-anchor="middle" x="390.5" y="-715.05" font-family="Courier,monospace" font-size="14.00" fill="#de958e">lunchbox.tools</text>
</g>
<!-- lunchbox\.tools&#45;&gt;flatiron\.core\.logging -->
<g id="edge50" class="edge">
<title>lunchbox\.tools&#45;&gt;flatiron\.core\.logging</title>
<path fill="none" stroke="#de958e" d="M452.11,-736.77C460.54,-739.6 469.03,-742.63 477,-745.75 493.47,-752.21 495.93,-758.08 513,-762.75 591.95,-784.33 684.43,-792.01 753.76,-794.47"/>
<polygon fill="#de958e" stroke="#de958e" points="753.71,-797.97 763.81,-794.8 753.93,-790.97 753.71,-797.97"/>
</g>
<!-- lunchbox\.tools&#45;&gt;flatiron\.core\.tools -->
<g id="edge51" class="edge">
<title>lunchbox\.tools&#45;&gt;flatiron\.core\.tools</title>
<path fill="none" stroke="#de958e" d="M398.2,-700.54C413.44,-658.73 451.36,-552.48 477,-461.75 496.11,-394.11 463.76,-357.91 513,-307.75 516.66,-304.02 520.76,-300.77 525.17,-297.96"/>
<polygon fill="#de958e" stroke="#de958e" points="526.94,-300.98 533.97,-293.06 523.53,-294.86 526.94,-300.98"/>
</g>
<!-- lunchbox\.enforce -->
<g id="node25" class="node">
<title>lunchbox\.enforce</title>
<polygon fill="#343434" stroke="#343434" points="465,-790.75 316,-790.75 316,-754.75 465,-754.75 465,-790.75"/>
<text text-anchor="middle" x="390.5" y="-769.05" font-family="Courier,monospace" font-size="14.00" fill="#de958e">lunchbox.enforce</text>
</g>
<!-- lunchbox\.enforce&#45;&gt;flatiron\.core\.dataset -->
<g id="edge52" class="edge">
<title>lunchbox\.enforce&#45;&gt;flatiron\.core\.dataset</title>
<path fill="none" stroke="#de958e" d="M465.26,-765.91C536.64,-756.62 645.8,-735.21 728,-686.75 776.21,-658.33 817.72,-606.79 840.17,-575.38"/>
<polygon fill="#de958e" stroke="#de958e" points="843.11,-577.28 845.99,-567.09 837.38,-573.26 843.11,-577.28"/>
</g>
<!-- lunchbox\.enforce&#45;&gt;flatiron\.core\.tools -->
<g id="edge53" class="edge">
<title>lunchbox\.enforce&#45;&gt;flatiron\.core\.tools</title>
<path fill="none" stroke="#de958e" d="M465.05,-756.65C469.53,-753.61 473.6,-750.01 477,-745.75 537.91,-669.41 449.92,-382.3 513,-307.75 516.49,-303.62 520.51,-300.08 524.91,-297.04"/>
<polygon fill="#de958e" stroke="#de958e" points="526.95,-299.9 533.78,-291.8 523.39,-293.88 526.95,-299.9"/>
</g>
<!-- lunchbox\.enforce&#45;&gt;flatiron\.tf\.models\.unet -->
<g id="edge54" class="edge">
<title>lunchbox\.enforce&#45;&gt;flatiron\.tf\.models\.unet</title>
<path fill="none" stroke="#de958e" d="M465,-784.68C480.82,-787.13 497.45,-789.61 513,-791.75 707.61,-818.59 758.47,-840.75 954,-821.75 1055.72,-811.86 1170.9,-787.11 1245.8,-769.17"/>
<polygon fill="#de958e" stroke="#de958e" points="1246.73,-772.54 1255.63,-766.79 1245.09,-765.74 1246.73,-772.54"/>
</g>
<!-- pytz -->
<g id="node26" class="node">
<title>pytz</title>
<polygon fill="#343434" stroke="#343434" points="417.5,-344.75 363.5,-344.75 363.5,-308.75 417.5,-308.75 417.5,-344.75"/>
<text text-anchor="middle" x="390.5" y="-323.05" font-family="Courier,monospace" font-size="14.00" fill="#de958e">pytz</text>
</g>
<!-- pytz&#45;&gt;flatiron\.core\.tools -->
<g id="edge55" class="edge">
<title>pytz&#45;&gt;flatiron\.core\.tools</title>
<path fill="none" stroke="#de958e" d="M417.65,-321.47C443.64,-316.23 485.07,-307.87 523.66,-300.09"/>
<polygon fill="#de958e" stroke="#de958e" points="524.81,-303.42 533.92,-298.02 523.43,-296.56 524.81,-303.42"/>
</g>
<!-- pandas -->
<g id="node27" class="node">
<title>pandas</title>
<polygon fill="#343434" stroke="#343434" points="653.5,-590.75 587.5,-590.75 587.5,-554.75 653.5,-554.75 653.5,-590.75"/>
<text text-anchor="middle" x="620.5" y="-569.05" font-family="Courier,monospace" font-size="14.00" fill="#de958e">pandas</text>
</g>
<!-- pandas&#45;&gt;flatiron\.core\.dataset -->
<g id="edge56" class="edge">
<title>pandas&#45;&gt;flatiron\.core\.dataset</title>
<path fill="none" stroke="#de958e" d="M653.89,-569.46C679.79,-566.83 717.62,-563 753.69,-559.34"/>
<polygon fill="#de958e" stroke="#de958e" points="754.21,-562.8 763.81,-558.31 753.5,-555.84 754.21,-562.8"/>
</g>
<!-- numpy -->
<g id="node28" class="node">
<title>numpy</title>
<polygon fill="#343434" stroke="#343434" points="649.5,-352.75 591.5,-352.75 591.5,-316.75 649.5,-316.75 649.5,-352.75"/>
<text text-anchor="middle" x="620.5" y="-331.05" font-family="Courier,monospace" font-size="14.00" fill="#de958e">numpy</text>
</g>
<!-- numpy&#45;&gt;flatiron\.core\.dataset -->
<g id="edge57" class="edge">
<title>numpy&#45;&gt;flatiron\.core\.dataset</title>
<path fill="none" stroke="#de958e" d="M649.75,-349.52C672.46,-362.24 704.36,-382.09 728,-404.75 747.77,-423.7 746.26,-433.89 764,-454.75 784.99,-479.43 811.22,-505.31 830.64,-523.65"/>
<polygon fill="#de958e" stroke="#de958e" points="828.29,-526.24 837.98,-530.53 833.08,-521.14 828.29,-526.24"/>
</g>
<!-- numpy&#45;&gt;flatiron\.core\.pipeline -->
<g id="edge58" class="edge">
<title>numpy&#45;&gt;flatiron\.core\.pipeline</title>
<path fill="none" stroke="#de958e" d="M649.95,-338.17C672.77,-342.06 704.73,-350.16 728,-366.75 750.3,-382.65 741.36,-401.35 764,-416.75 836.03,-465.72 886.75,-409.4 954,-464.75 1036.45,-532.62 1071.18,-662.89 1082.94,-720.34"/>
<polygon fill="#de958e" stroke="#de958e" points="1079.58,-721.37 1084.94,-730.51 1086.44,-720.02 1079.58,-721.37"/>
</g>
<!-- numpy&#45;&gt;flatiron\.tf\.loss -->
<g id="edge59" class="edge">
<title>numpy&#45;&gt;flatiron\.tf\.loss</title>
<path fill="none" stroke="#de958e" d="M649.56,-332.85C680.21,-330.78 730.76,-327.36 774.4,-324.41"/>
<polygon fill="#de958e" stroke="#de958e" points="774.72,-327.89 784.46,-323.73 774.25,-320.91 774.72,-327.89"/>
</g>
<!-- numpy&#45;&gt;flatiron\.tf\.metric -->
<g id="edge60" class="edge">
<title>numpy&#45;&gt;flatiron\.tf\.metric</title>
<path fill="none" stroke="#de958e" d="M649.85,-330.04C671.77,-325.81 702.55,-318.59 728,-307.75 763.39,-292.67 800.29,-268.77 825.7,-250.84"/>
<polygon fill="#de958e" stroke="#de958e" points="827.75,-253.67 833.85,-245 823.68,-247.97 827.75,-253.67"/>
</g>
<!-- pydantic -->
<g id="node29" class="node">
<title>pydantic</title>
<polygon fill="#343434" stroke="#343434" points="662,-964.75 579,-964.75 579,-928.75 662,-928.75 662,-964.75"/>
<text text-anchor="middle" x="620.5" y="-943.05" font-family="Courier,monospace" font-size="14.00" fill="#de958e">pydantic</text>
</g>
<!-- pydantic&#45;&gt;flatiron\.core\.config -->
<g id="edge61" class="edge">
<title>pydantic&#45;&gt;flatiron\.core\.config</title>
<path fill="none" stroke="#de958e" d="M662.16,-957.41C694.3,-965.83 740.13,-977.85 779.38,-988.14"/>
<polygon fill="#de958e" stroke="#de958e" points="778.65,-991.57 789.21,-990.72 780.42,-984.79 778.65,-991.57"/>
</g>
<!-- pydantic&#45;&gt;flatiron\.core\.pipeline -->
<g id="edge62" class="edge">
<title>pydantic&#45;&gt;flatiron\.core\.pipeline</title>
<path fill="none" stroke="#de958e" d="M662.1,-944.65C739.36,-940.09 904.26,-927.46 954,-900.75 1008.48,-871.49 1051.33,-810.74 1072.82,-775.55"/>
<polygon fill="#de958e" stroke="#de958e" points="1075.95,-777.14 1078.07,-766.76 1069.94,-773.56 1075.95,-777.14"/>
</g>
<!-- pydantic&#45;&gt;flatiron\.tf\.models\.unet -->
<g id="edge63" class="edge">
<title>pydantic&#45;&gt;flatiron\.tf\.models\.unet</title>
<path fill="none" stroke="#de958e" d="M662.09,-949.66C759.23,-954.81 1010.22,-957.26 1188,-862.75 1232.45,-839.12 1275.91,-799.74 1301.83,-774.01"/>
<polygon fill="#de958e" stroke="#de958e" points="1304.41,-776.38 1308.98,-766.82 1299.44,-771.45 1304.41,-776.38"/>
</g>
<!-- sklearn\.model_selection -->
<g id="node30" class="node">
<title>sklearn\.model_selection</title>
<polygon fill="#343434" stroke="#343434" points="723.5,-536.75 517.5,-536.75 517.5,-500.75 723.5,-500.75 723.5,-536.75"/>
<text text-anchor="middle" x="620.5" y="-515.05" font-family="Courier,monospace" font-size="14.00" fill="#de958e">sklearn.model_selection</text>
</g>
<!-- sklearn\.model_selection&#45;&gt;flatiron\.core\.dataset -->
<g id="edge64" class="edge">
<title>sklearn\.model_selection&#45;&gt;flatiron\.core\.dataset</title>
<path fill="none" stroke="#de958e" d="M723.51,-531.69C733.55,-532.96 743.74,-534.26 753.79,-535.53"/>
<polygon fill="#de958e" stroke="#de958e" points="753.43,-539.01 763.79,-536.8 754.31,-532.07 753.43,-539.01"/>
</g>
<!-- humanfriendly -->
<g id="node31" class="node">
<title>humanfriendly</title>
<polygon fill="#343434" stroke="#343434" points="682.5,-482.75 558.5,-482.75 558.5,-446.75 682.5,-446.75 682.5,-482.75"/>
<text text-anchor="middle" x="620.5" y="-461.05" font-family="Courier,monospace" font-size="14.00" fill="#de958e">humanfriendly</text>
</g>
<!-- humanfriendly&#45;&gt;flatiron\.core\.dataset -->
<g id="edge65" class="edge">
<title>humanfriendly&#45;&gt;flatiron\.core\.dataset</title>
<path fill="none" stroke="#de958e" d="M682.55,-478.39C697.56,-482.24 713.48,-486.76 728,-491.75 756.52,-501.54 787.48,-515 812.03,-526.38"/>
<polygon fill="#de958e" stroke="#de958e" points="810.56,-529.55 821.1,-530.62 813.53,-523.21 810.56,-529.55"/>
</g>
<!-- tqdm\.notebook -->
<g id="node32" class="node">
<title>tqdm\.notebook</title>
<polygon fill="#343434" stroke="#343434" points="682.5,-644.75 558.5,-644.75 558.5,-608.75 682.5,-608.75 682.5,-644.75"/>
<text text-anchor="middle" x="620.5" y="-623.05" font-family="Courier,monospace" font-size="14.00" fill="#de958e">tqdm.notebook</text>
</g>
<!-- tqdm\.notebook&#45;&gt;flatiron\.core\.dataset -->
<g id="edge66" class="edge">
<title>tqdm\.notebook&#45;&gt;flatiron\.core\.dataset</title>
<path fill="none" stroke="#de958e" d="M682.7,-612.64C697.62,-608.81 713.47,-604.42 728,-599.75 754.27,-591.3 782.88,-580.29 806.55,-570.65"/>
<polygon fill="#de958e" stroke="#de958e" points="808.11,-573.8 816.04,-566.76 805.46,-567.32 808.11,-573.8"/>
</g>
<!-- typing_extensions -->
<g id="node33" class="node">
<title>typing_extensions</title>
<polygon fill="#343434" stroke="#343434" points="699,-1110.75 542,-1110.75 542,-1074.75 699,-1074.75 699,-1110.75"/>
<text text-anchor="middle" x="620.5" y="-1089.05" font-family="Courier,monospace" font-size="14.00" fill="#de958e">typing_extensions</text>
</g>
<!-- typing_extensions&#45;&gt;flatiron\.core\.config -->
<g id="edge67" class="edge">
<title>typing_extensions&#45;&gt;flatiron\.core\.config</title>
<path fill="none" stroke="#de958e" d="M699.02,-1074.7C708.85,-1071.94 718.71,-1068.94 728,-1065.75 756.52,-1055.96 787.48,-1042.5 812.03,-1031.12"/>
<polygon fill="#de958e" stroke="#de958e" points="813.53,-1034.29 821.1,-1026.88 810.56,-1027.95 813.53,-1034.29"/>
</g>
<!-- typing_extensions&#45;&gt;flatiron\.tf\.models\.unet -->
<g id="edge68" class="edge">
<title>typing_extensions&#45;&gt;flatiron\.tf\.models\.unet</title>
<path fill="none" stroke="#de958e" d="M699.48,-1098.67C818.14,-1103.41 1045.28,-1095.23 1188,-980.75 1257.28,-925.18 1299.62,-824.74 1316.93,-776.32"/>
<polygon fill="#de958e" stroke="#de958e" points="1320.26,-777.41 1320.25,-766.81 1313.65,-775.1 1320.26,-777.41"/>
</g>
</g>
</svg>
