<?xml version="1.0" encoding="UTF-8" standalone="no"?>
<!DOCTYPE svg PUBLIC "-//W3C//DTD SVG 1.1//EN"
 "http://www.w3.org/Graphics/SVG/1.1/DTD/svg11.dtd">
<!-- Generated by graphviz version 2.43.0 (0)
 -->
<!-- Title: %3 Pages: 1 -->
<svg width="1438pt" height="1491pt"
 viewBox="0.00 0.00 1438.00 1490.90" xmlns="http://www.w3.org/2000/svg" xmlns:xlink="http://www.w3.org/1999/xlink">
<g id="graph0" class="graph" transform="scale(1 1) rotate(0) translate(4 1486.9)">
<title>%3</title>
<polygon fill="#242424" stroke="transparent" points="-4,4 -4,-1486.9 1434,-1486.9 1434,4 -4,4"/>
<!-- cli -->
<g id="node1" class="node">
<title>cli</title>
<polygon fill="#343434" stroke="#343434" points="68.5,-512.9 14.5,-512.9 14.5,-476.9 68.5,-476.9 68.5,-512.9"/>
<text text-anchor="middle" x="41.5" y="-491.2" font-family="Courier,monospace" font-size="14.00" fill="#b6ecf3">cli</text>
</g>
<!-- flatiron\.command -->
<g id="node2" class="node">
<title>flatiron\.command</title>
<polygon fill="#343434" stroke="#343434" points="268,-966.9 119,-966.9 119,-930.9 268,-930.9 268,-966.9"/>
<text text-anchor="middle" x="193.5" y="-945.2" font-family="Courier,monospace" font-size="14.00" fill="#b6ecf3">flatiron.command</text>
</g>
<!-- flatiron\.core\.config -->
<g id="node3" class="node">
<title>flatiron\.core\.config</title>
<polygon fill="#343434" stroke="#343434" points="950,-1382.9 768,-1382.9 768,-1346.9 950,-1346.9 950,-1382.9"/>
<text text-anchor="middle" x="859" y="-1361.2" font-family="Courier,monospace" font-size="14.00" fill="#b6ecf3">flatiron.core.config</text>
</g>
<!-- flatiron\.core\.pipeline -->
<g id="node6" class="node">
<title>flatiron\.core\.pipeline</title>
<polygon fill="#343434" stroke="#343434" points="1188,-903.9 990,-903.9 990,-867.9 1188,-867.9 1188,-903.9"/>
<text text-anchor="middle" x="1089" y="-882.2" font-family="Courier,monospace" font-size="14.00" fill="#b6ecf3">flatiron.core.pipeline</text>
</g>
<!-- flatiron\.core\.config&#45;&gt;flatiron\.core\.pipeline -->
<g id="edge1" class="edge">
<title>flatiron\.core\.config&#45;&gt;flatiron\.core\.pipeline</title>
<path fill="none" stroke="#b6ecf3" d="M868.66,-1346.7C903.47,-1273.57 1033.33,-1000.75 1075.02,-913.16"/>
<polygon fill="#b6ecf3" stroke="#b6ecf3" points="1078.19,-914.64 1079.33,-904.11 1071.87,-911.63 1078.19,-914.64"/>
</g>
<!-- flatiron\.core\.dataset -->
<g id="node4" class="node">
<title>flatiron\.core\.dataset</title>
<polygon fill="#343434" stroke="#343434" points="954,-1033.9 764,-1033.9 764,-997.9 954,-997.9 954,-1033.9"/>
<text text-anchor="middle" x="859" y="-1012.2" font-family="Courier,monospace" font-size="14.00" fill="#b6ecf3">flatiron.core.dataset</text>
</g>
<!-- flatiron\.core\.dataset&#45;&gt;flatiron\.core\.pipeline -->
<g id="edge2" class="edge">
<title>flatiron\.core\.dataset&#45;&gt;flatiron\.core\.pipeline</title>
<path fill="none" stroke="#b6ecf3" d="M891.7,-997.82C932.34,-974.65 1002.85,-934.44 1047.38,-909.05"/>
<polygon fill="#b6ecf3" stroke="#b6ecf3" points="1049.25,-912.02 1056.2,-904.03 1045.78,-905.94 1049.25,-912.02"/>
</g>
<!-- flatiron\.core\.logging -->
<g id="node5" class="node">
<title>flatiron\.core\.logging</title>
<polygon fill="#343434" stroke="#343434" points="954,-823.9 764,-823.9 764,-787.9 954,-787.9 954,-823.9"/>
<text text-anchor="middle" x="859" y="-802.2" font-family="Courier,monospace" font-size="14.00" fill="#b6ecf3">flatiron.core.logging</text>
</g>
<!-- flatiron\.core\.logging&#45;&gt;flatiron\.core\.pipeline -->
<g id="edge3" class="edge">
<title>flatiron\.core\.logging&#45;&gt;flatiron\.core\.pipeline</title>
<path fill="none" stroke="#b6ecf3" d="M911.45,-823.95C945.69,-835.96 990.84,-851.8 1026.9,-864.46"/>
<polygon fill="#b6ecf3" stroke="#b6ecf3" points="1025.75,-867.76 1036.34,-867.77 1028.06,-861.16 1025.75,-867.76"/>
</g>
<!-- flatiron\.tf\.models\.unet -->
<g id="node12" class="node">
<title>flatiron\.tf\.models\.unet</title>
<polygon fill="#343434" stroke="#343434" points="1430,-903.9 1224,-903.9 1224,-867.9 1430,-867.9 1430,-903.9"/>
<text text-anchor="middle" x="1327" y="-882.2" font-family="Courier,monospace" font-size="14.00" fill="#b6ecf3">flatiron.tf.models.unet</text>
</g>
<!-- flatiron\.core\.pipeline&#45;&gt;flatiron\.tf\.models\.unet -->
<g id="edge4" class="edge">
<title>flatiron\.core\.pipeline&#45;&gt;flatiron\.tf\.models\.unet</title>
<path fill="none" stroke="#b6ecf3" d="M1188.03,-885.9C1196.5,-885.9 1205.11,-885.9 1213.67,-885.9"/>
<polygon fill="#b6ecf3" stroke="#b6ecf3" points="1213.7,-889.4 1223.7,-885.9 1213.7,-882.4 1213.7,-889.4"/>
</g>
<!-- flatiron\.core\.tools -->
<g id="node7" class="node">
<title>flatiron\.core\.tools</title>
<polygon fill="#343434" stroke="#343434" points="707,-724.9 534,-724.9 534,-688.9 707,-688.9 707,-724.9"/>
<text text-anchor="middle" x="620.5" y="-703.2" font-family="Courier,monospace" font-size="14.00" fill="#b6ecf3">flatiron.core.tools</text>
</g>
<!-- flatiron\.core\.tools&#45;&gt;flatiron\.core\.dataset -->
<g id="edge5" class="edge">
<title>flatiron\.core\.tools&#45;&gt;flatiron\.core\.dataset</title>
<path fill="none" stroke="#b6ecf3" d="M707.1,-724.62C714.71,-728.48 721.85,-733.18 728,-738.9 760.78,-769.34 745.75,-792.05 764,-832.9 789.23,-889.38 823.36,-953.21 842.78,-988.58"/>
<polygon fill="#b6ecf3" stroke="#b6ecf3" points="839.96,-990.71 847.86,-997.78 846.09,-987.33 839.96,-990.71"/>
</g>
<!-- flatiron\.core\.tools&#45;&gt;flatiron\.core\.logging -->
<g id="edge6" class="edge">
<title>flatiron\.core\.tools&#45;&gt;flatiron\.core\.logging</title>
<path fill="none" stroke="#b6ecf3" d="M688.34,-724.92C701.63,-729.08 715.38,-733.8 728,-738.9 759.14,-751.47 792.8,-768.94 818.07,-782.88"/>
<polygon fill="#b6ecf3" stroke="#b6ecf3" points="816.54,-786.04 826.98,-787.85 819.94,-779.92 816.54,-786.04"/>
</g>
<!-- flatiron\.core\.tools&#45;&gt;flatiron\.core\.pipeline -->
<g id="edge7" class="edge">
<title>flatiron\.core\.tools&#45;&gt;flatiron\.core\.pipeline</title>
<path fill="none" stroke="#b6ecf3" d="M707.3,-714.54C776.58,-723.24 875.18,-741.45 954,-778.9 996.89,-799.27 1038.35,-835.79 1063.52,-860.43"/>
<polygon fill="#b6ecf3" stroke="#b6ecf3" points="1061.23,-863.09 1070.79,-867.67 1066.17,-858.13 1061.23,-863.09"/>
</g>
<!-- flatiron\.tf\.loss -->
<g id="node10" class="node">
<title>flatiron\.tf\.loss</title>
<polygon fill="#343434" stroke="#343434" points="933.5,-300.9 784.5,-300.9 784.5,-264.9 933.5,-264.9 933.5,-300.9"/>
<text text-anchor="middle" x="859" y="-279.2" font-family="Courier,monospace" font-size="14.00" fill="#b6ecf3">flatiron.tf.loss</text>
</g>
<!-- flatiron\.core\.tools&#45;&gt;flatiron\.tf\.loss -->
<g id="edge8" class="edge">
<title>flatiron\.core\.tools&#45;&gt;flatiron\.tf\.loss</title>
<path fill="none" stroke="#b6ecf3" d="M628.66,-688.73C647.75,-641.08 702.61,-509.21 764,-407.9 785.87,-371.8 815.83,-333.46 836,-308.9"/>
<polygon fill="#b6ecf3" stroke="#b6ecf3" points="838.76,-311.06 842.44,-301.13 833.37,-306.6 838.76,-311.06"/>
</g>
<!-- flatiron\.tf\.metric -->
<g id="node11" class="node">
<title>flatiron\.tf\.metric</title>
<polygon fill="#343434" stroke="#343434" points="941.5,-452.9 776.5,-452.9 776.5,-416.9 941.5,-416.9 941.5,-452.9"/>
<text text-anchor="middle" x="859" y="-431.2" font-family="Courier,monospace" font-size="14.00" fill="#b6ecf3">flatiron.tf.metric</text>
</g>
<!-- flatiron\.core\.tools&#45;&gt;flatiron\.tf\.metric -->
<g id="edge9" class="edge">
<title>flatiron\.core\.tools&#45;&gt;flatiron\.tf\.metric</title>
<path fill="none" stroke="#b6ecf3" d="M629.99,-688.85C649.27,-649.3 699.73,-553.63 764,-491.9 777.58,-478.85 794.65,-467.4 810.5,-458.25"/>
<polygon fill="#b6ecf3" stroke="#b6ecf3" points="812.64,-461.06 819.66,-453.13 809.23,-454.95 812.64,-461.06"/>
</g>
<!-- flatiron\.core\.tools&#45;&gt;flatiron\.tf\.models\.unet -->
<g id="edge10" class="edge">
<title>flatiron\.core\.tools&#45;&gt;flatiron\.tf\.models\.unet</title>
<path fill="none" stroke="#b6ecf3" d="M707.07,-701.8C774.93,-699.83 871.72,-701.65 954,-720.9 1082.45,-750.94 1221.42,-824.93 1287.23,-862.78"/>
<polygon fill="#b6ecf3" stroke="#b6ecf3" points="1285.62,-865.89 1296.03,-867.88 1289.13,-859.84 1285.62,-865.89"/>
</g>
<!-- flatiron\.tf\.optimizer -->
<g id="node13" class="node">
<title>flatiron\.tf\.optimizer</title>
<polygon fill="#343434" stroke="#343434" points="954,-232.9 764,-232.9 764,-196.9 954,-196.9 954,-232.9"/>
<text text-anchor="middle" x="859" y="-211.2" font-family="Courier,monospace" font-size="14.00" fill="#b6ecf3">flatiron.tf.optimizer</text>
</g>
<!-- flatiron\.core\.tools&#45;&gt;flatiron\.tf\.optimizer -->
<g id="edge11" class="edge">
<title>flatiron\.core\.tools&#45;&gt;flatiron\.tf\.optimizer</title>
<path fill="none" stroke="#b6ecf3" d="M622.07,-688.83C625.12,-622.45 644.26,-388.96 764,-255.9 770.45,-248.73 778.38,-242.75 786.88,-237.79"/>
<polygon fill="#b6ecf3" stroke="#b6ecf3" points="788.72,-240.78 795.9,-232.99 785.43,-234.6 788.72,-240.78"/>
</g>
<!-- flatiron\.tf\.tools -->
<g id="node14" class="node">
<title>flatiron\.tf\.tools</title>
<polygon fill="#343434" stroke="#343434" points="937.5,-536.9 780.5,-536.9 780.5,-500.9 937.5,-500.9 937.5,-536.9"/>
<text text-anchor="middle" x="859" y="-515.2" font-family="Courier,monospace" font-size="14.00" fill="#b6ecf3">flatiron.tf.tools</text>
</g>
<!-- flatiron\.core\.tools&#45;&gt;flatiron\.tf\.tools -->
<g id="edge12" class="edge">
<title>flatiron\.core\.tools&#45;&gt;flatiron\.tf\.tools</title>
<path fill="none" stroke="#b6ecf3" d="M644.18,-688.87C686.8,-654.99 778.91,-581.77 827.13,-543.43"/>
<polygon fill="#b6ecf3" stroke="#b6ecf3" points="829.39,-546.11 835.04,-537.14 825.04,-540.63 829.39,-546.11"/>
</g>
<!-- flatiron\.core\.types -->
<g id="node8" class="node">
<title>flatiron\.core\.types</title>
<polygon fill="#343434" stroke="#343434" points="477,-612.9 304,-612.9 304,-576.9 477,-576.9 477,-612.9"/>
<text text-anchor="middle" x="390.5" y="-591.2" font-family="Courier,monospace" font-size="14.00" fill="#b6ecf3">flatiron.core.types</text>
</g>
<!-- flatiron\.core\.types&#45;&gt;flatiron\.core\.dataset -->
<g id="edge13" class="edge">
<title>flatiron\.core\.types&#45;&gt;flatiron\.core\.dataset</title>
<path fill="none" stroke="#b6ecf3" d="M465.61,-612.92C469.73,-615.52 473.58,-618.49 477,-621.9 514.07,-658.77 483.55,-690.69 513,-733.9 556.89,-798.29 745.4,-936.01 823.7,-991.74"/>
<polygon fill="#b6ecf3" stroke="#b6ecf3" points="822.07,-994.87 832.25,-997.81 826.12,-989.16 822.07,-994.87"/>
</g>
<!-- flatiron\.core\.types&#45;&gt;flatiron\.core\.pipeline -->
<g id="edge14" class="edge">
<title>flatiron\.core\.types&#45;&gt;flatiron\.core\.pipeline</title>
<path fill="none" stroke="#b6ecf3" d="M477.1,-596.89C593.35,-603.24 803.83,-627.89 954,-720.9 1009.82,-755.47 1052.78,-821.69 1073.79,-858.86"/>
<polygon fill="#b6ecf3" stroke="#b6ecf3" points="1070.75,-860.59 1078.65,-867.65 1076.87,-857.21 1070.75,-860.59"/>
</g>
<!-- flatiron\.core\.types&#45;&gt;flatiron\.core\.tools -->
<g id="edge15" class="edge">
<title>flatiron\.core\.types&#45;&gt;flatiron\.core\.tools</title>
<path fill="none" stroke="#b6ecf3" d="M462.44,-613.03C467.58,-615.61 472.51,-618.55 477,-621.9 499.84,-638.9 490.04,-658.05 513,-674.9 517.84,-678.44 523.07,-681.6 528.53,-684.41"/>
<polygon fill="#b6ecf3" stroke="#b6ecf3" points="527.36,-687.73 537.9,-688.82 530.34,-681.4 527.36,-687.73"/>
</g>
<!-- flatiron\.core\.types&#45;&gt;flatiron\.tf\.tools -->
<g id="edge16" class="edge">
<title>flatiron\.core\.types&#45;&gt;flatiron\.tf\.tools</title>
<path fill="none" stroke="#b6ecf3" d="M477.03,-592.22C545.54,-588.78 643.78,-580.9 728,-562.9 753.28,-557.49 780.48,-548.77 803.44,-540.5"/>
<polygon fill="#b6ecf3" stroke="#b6ecf3" points="804.81,-543.73 813,-537 802.41,-537.15 804.81,-543.73"/>
</g>
<!-- flatiron\.core\.validators -->
<g id="node9" class="node">
<title>flatiron\.core\.validators</title>
<polygon fill="#343434" stroke="#343434" points="728,-1428.9 513,-1428.9 513,-1392.9 728,-1392.9 728,-1428.9"/>
<text text-anchor="middle" x="620.5" y="-1407.2" font-family="Courier,monospace" font-size="14.00" fill="#b6ecf3">flatiron.core.validators</text>
</g>
<!-- flatiron\.core\.validators&#45;&gt;flatiron\.core\.config -->
<g id="edge17" class="edge">
<title>flatiron\.core\.validators&#45;&gt;flatiron\.core\.config</title>
<path fill="none" stroke="#b6ecf3" d="M714.29,-1392.85C728.59,-1390.07 743.41,-1387.18 757.86,-1384.37"/>
<polygon fill="#b6ecf3" stroke="#b6ecf3" points="758.65,-1387.79 767.8,-1382.44 757.31,-1380.91 758.65,-1387.79"/>
</g>
<!-- flatiron\.core\.validators&#45;&gt;flatiron\.tf\.models\.unet -->
<g id="edge18" class="edge">
<title>flatiron\.core\.validators&#45;&gt;flatiron\.tf\.models\.unet</title>
<path fill="none" stroke="#b6ecf3" d="M728.05,-1421.34C857.01,-1427.51 1071.36,-1415.86 1188,-1288.9 1290.55,-1177.26 1317.35,-986.03 1323.96,-914.24"/>
<polygon fill="#b6ecf3" stroke="#b6ecf3" points="1327.46,-914.41 1324.83,-904.15 1320.48,-913.82 1327.46,-914.41"/>
</g>
<!-- click -->
<g id="node15" class="node">
<title>click</title>
<polygon fill="#343434" stroke="#343434" points="70.5,-966.9 12.5,-966.9 12.5,-930.9 70.5,-930.9 70.5,-966.9"/>
<text text-anchor="middle" x="41.5" y="-945.2" font-family="Courier,monospace" font-size="14.00" fill="#de958e">click</text>
</g>
<!-- click&#45;&gt;flatiron\.command -->
<g id="edge19" class="edge">
<title>click&#45;&gt;flatiron\.command</title>
<path fill="none" stroke="#de958e" d="M70.71,-948.9C81.78,-948.9 95.1,-948.9 108.82,-948.9"/>
<polygon fill="#de958e" stroke="#de958e" points="108.85,-952.4 118.85,-948.9 108.85,-945.4 108.85,-952.4"/>
</g>
<!-- flatiron\.tf\.models -->
<g id="node16" class="node">
<title>flatiron\.tf\.models</title>
<polygon fill="#343434" stroke="#343434" points="941.5,-178.9 776.5,-178.9 776.5,-142.9 941.5,-142.9 941.5,-178.9"/>
<text text-anchor="middle" x="859" y="-157.2" font-family="Courier,monospace" font-size="14.00" fill="#a0d17b">flatiron.tf.models</text>
</g>
<!-- flatiron\.tf\.models&#45;&gt;flatiron\.tf\.models\.unet -->
<g id="edge20" class="edge">
<title>flatiron\.tf\.models&#45;&gt;flatiron\.tf\.models\.unet</title>
<path fill="none" stroke="#a0d17b" d="M940.19,-178.97C945.09,-181.56 949.75,-184.52 954,-187.9 1189.13,-374.79 1294.04,-751.9 1319.6,-857.72"/>
<polygon fill="#a0d17b" stroke="#a0d17b" points="1316.24,-858.72 1321.95,-867.64 1323.05,-857.1 1316.24,-858.72"/>
</g>
<!-- pydantic -->
<g id="node17" class="node">
<title>pydantic</title>
<polygon fill="#343434" stroke="#343434" points="662,-1336.9 579,-1336.9 579,-1300.9 662,-1300.9 662,-1336.9"/>
<text text-anchor="middle" x="620.5" y="-1315.2" font-family="Courier,monospace" font-size="14.00" fill="#de958e">pydantic</text>
</g>
<!-- pydantic&#45;&gt;flatiron\.core\.config -->
<g id="edge21" class="edge">
<title>pydantic&#45;&gt;flatiron\.core\.config</title>
<path fill="none" stroke="#de958e" d="M662.16,-1326.8C688.6,-1331.95 724.31,-1338.89 758,-1345.45"/>
<polygon fill="#de958e" stroke="#de958e" points="757.43,-1348.9 767.91,-1347.37 758.76,-1342.03 757.43,-1348.9"/>
</g>
<!-- pydantic&#45;&gt;flatiron\.core\.pipeline -->
<g id="edge22" class="edge">
<title>pydantic&#45;&gt;flatiron\.core\.pipeline</title>
<path fill="none" stroke="#de958e" d="M662.07,-1312.02C682.89,-1307.22 708.02,-1299.36 728,-1286.9 892.47,-1184.29 1026.53,-985.09 1071.67,-912.87"/>
<polygon fill="#de958e" stroke="#de958e" points="1074.92,-914.28 1077.21,-903.93 1068.97,-910.59 1074.92,-914.28"/>
</g>
<!-- pydantic&#45;&gt;flatiron\.tf\.models\.unet -->
<g id="edge23" class="edge">
<title>pydantic&#45;&gt;flatiron\.tf\.models\.unet</title>
<path fill="none" stroke="#de958e" d="M662.28,-1319.15C778.16,-1319.07 1106.23,-1313.05 1188,-1248.9 1296.26,-1163.97 1319.61,-983.75 1324.63,-914.15"/>
<polygon fill="#de958e" stroke="#de958e" points="1328.14,-914.17 1325.29,-903.96 1321.15,-913.72 1328.14,-914.17"/>
</g>
<!-- typing_extensions -->
<g id="node18" class="node">
<title>typing_extensions</title>
<polygon fill="#343434" stroke="#343434" points="699,-1482.9 542,-1482.9 542,-1446.9 699,-1446.9 699,-1482.9"/>
<text text-anchor="middle" x="620.5" y="-1461.2" font-family="Courier,monospace" font-size="14.00" fill="#de958e">typing_extensions</text>
</g>
<!-- typing_extensions&#45;&gt;flatiron\.core\.config -->
<g id="edge24" class="edge">
<title>typing_extensions&#45;&gt;flatiron\.core\.config</title>
<path fill="none" stroke="#de958e" d="M699.05,-1447.79C708.93,-1444.87 718.79,-1441.57 728,-1437.9 761.33,-1424.58 796.69,-1404.28 822.1,-1388.46"/>
<polygon fill="#de958e" stroke="#de958e" points="824.06,-1391.36 830.66,-1383.07 820.33,-1385.44 824.06,-1391.36"/>
</g>
<!-- typing_extensions&#45;&gt;flatiron\.tf\.models\.unet -->
<g id="edge25" class="edge">
<title>typing_extensions&#45;&gt;flatiron\.tf\.models\.unet</title>
<path fill="none" stroke="#de958e" d="M699.07,-1474.97C821.38,-1486.11 1058.44,-1487.65 1188,-1355.9 1312.72,-1229.07 1325.76,-995.74 1326.36,-914.6"/>
<polygon fill="#de958e" stroke="#de958e" points="1329.86,-914.19 1326.37,-904.19 1322.86,-914.19 1329.86,-914.19"/>
</g>
<!-- sklearn\.model_selection -->
<g id="node19" class="node">
<title>sklearn\.model_selection</title>
<polygon fill="#343434" stroke="#343434" points="723.5,-1168.9 517.5,-1168.9 517.5,-1132.9 723.5,-1132.9 723.5,-1168.9"/>
<text text-anchor="middle" x="620.5" y="-1147.2" font-family="Courier,monospace" font-size="14.00" fill="#de958e">sklearn.model_selection</text>
</g>
<!-- sklearn\.model_selection&#45;&gt;flatiron\.core\.dataset -->
<g id="edge26" class="edge">
<title>sklearn\.model_selection&#45;&gt;flatiron\.core\.dataset</title>
<path fill="none" stroke="#de958e" d="M707.05,-1132.86C714.29,-1130.24 721.37,-1127.27 728,-1123.9 769.71,-1102.67 809.91,-1065.97 834.29,-1041.32"/>
<polygon fill="#de958e" stroke="#de958e" points="836.86,-1043.69 841.33,-1034.08 831.85,-1038.81 836.86,-1043.69"/>
</g>
<!-- pandas -->
<g id="node20" class="node">
<title>pandas</title>
<polygon fill="#343434" stroke="#343434" points="653.5,-1114.9 587.5,-1114.9 587.5,-1078.9 653.5,-1078.9 653.5,-1114.9"/>
<text text-anchor="middle" x="620.5" y="-1093.2" font-family="Courier,monospace" font-size="14.00" fill="#de958e">pandas</text>
</g>
<!-- pandas&#45;&gt;flatiron\.core\.dataset -->
<g id="edge27" class="edge">
<title>pandas&#45;&gt;flatiron\.core\.dataset</title>
<path fill="none" stroke="#de958e" d="M653.54,-1090.06C674.87,-1085.19 703.38,-1078.08 728,-1069.9 755.43,-1060.77 785.27,-1048.55 809.44,-1038.04"/>
<polygon fill="#de958e" stroke="#de958e" points="810.99,-1041.18 818.74,-1033.96 808.18,-1034.77 810.99,-1041.18"/>
</g>
<!-- humanfriendly -->
<g id="node21" class="node">
<title>humanfriendly</title>
<polygon fill="#343434" stroke="#343434" points="682.5,-1060.9 558.5,-1060.9 558.5,-1024.9 682.5,-1024.9 682.5,-1060.9"/>
<text text-anchor="middle" x="620.5" y="-1039.2" font-family="Courier,monospace" font-size="14.00" fill="#de958e">humanfriendly</text>
</g>
<!-- humanfriendly&#45;&gt;flatiron\.core\.dataset -->
<g id="edge28" class="edge">
<title>humanfriendly&#45;&gt;flatiron\.core\.dataset</title>
<path fill="none" stroke="#de958e" d="M682.71,-1035.91C704.36,-1033.44 729.37,-1030.58 753.59,-1027.82"/>
<polygon fill="#de958e" stroke="#de958e" points="754.01,-1031.29 763.55,-1026.68 753.22,-1024.34 754.01,-1031.29"/>
</g>
<!-- tqdm\.notebook -->
<g id="node22" class="node">
<title>tqdm\.notebook</title>
<polygon fill="#343434" stroke="#343434" points="682.5,-1006.9 558.5,-1006.9 558.5,-970.9 682.5,-970.9 682.5,-1006.9"/>
<text text-anchor="middle" x="620.5" y="-985.2" font-family="Courier,monospace" font-size="14.00" fill="#de958e">tqdm.notebook</text>
</g>
<!-- tqdm\.notebook&#45;&gt;flatiron\.core\.dataset -->
<g id="edge29" class="edge">
<title>tqdm\.notebook&#45;&gt;flatiron\.core\.dataset</title>
<path fill="none" stroke="#de958e" d="M682.71,-995.88C704.36,-998.36 729.37,-1001.21 753.59,-1003.98"/>
<polygon fill="#de958e" stroke="#de958e" points="753.22,-1007.46 763.55,-1005.11 754.01,-1000.5 753.22,-1007.46"/>
</g>
<!-- flatiron -->
<g id="node23" class="node">
<title>flatiron</title>
<polygon fill="#343434" stroke="#343434" points="83,-566.9 0,-566.9 0,-530.9 83,-530.9 83,-566.9"/>
<text text-anchor="middle" x="41.5" y="-545.2" font-family="Courier,monospace" font-size="14.00" fill="#a0d17b">flatiron</text>
</g>
<!-- flatiron&#45;&gt;flatiron\.command -->
<g id="edge30" class="edge">
<title>flatiron&#45;&gt;flatiron\.command</title>
<path fill="none" stroke="#a0d17b" d="M43.91,-567.04C49.47,-634.13 71.9,-867.15 119,-921.9 119.73,-922.75 120.49,-923.57 121.28,-924.37"/>
<polygon fill="#a0d17b" stroke="#a0d17b" points="119.1,-927.11 129.01,-930.87 123.61,-921.75 119.1,-927.11"/>
</g>
<!-- flatiron&#45;&gt;flatiron\.tf\.models -->
<g id="edge31" class="edge">
<title>flatiron&#45;&gt;flatiron\.tf\.models</title>
<path fill="none" stroke="#a0d17b" d="M75.86,-530.56C78.62,-527.96 81.08,-525.08 83,-521.9 162.08,-391.11 35.28,-307.76 119,-179.9 170.79,-100.8 212.77,-99.68 304,-74.9 485.86,-25.49 547.98,-16.18 728,-71.9 768.32,-84.37 807.26,-114.14 831.84,-135.83"/>
<polygon fill="#a0d17b" stroke="#a0d17b" points="829.53,-138.45 839.3,-142.55 834.21,-133.25 829.53,-138.45"/>
</g>
<!-- flatiron\.tf -->
<g id="node24" class="node">
<title>flatiron\.tf</title>
<polygon fill="#343434" stroke="#343434" points="674,-216.9 567,-216.9 567,-180.9 674,-180.9 674,-216.9"/>
<text text-anchor="middle" x="620.5" y="-195.2" font-family="Courier,monospace" font-size="14.00" fill="#a0d17b">flatiron.tf</text>
</g>
<!-- flatiron&#45;&gt;flatiron\.tf -->
<g id="edge32" class="edge">
<title>flatiron&#45;&gt;flatiron\.tf</title>
<path fill="none" stroke="#a0d17b" d="M75.38,-530.85C78.31,-528.17 80.94,-525.19 83,-521.9 145.82,-421.51 34.51,-340.87 119,-257.9 236.32,-142.69 451.13,-164.84 557.06,-184.76"/>
<polygon fill="#a0d17b" stroke="#a0d17b" points="556.48,-188.21 566.96,-186.67 557.81,-181.34 556.48,-188.21"/>
</g>
<!-- flatiron\.core -->
<g id="node25" class="node">
<title>flatiron\.core</title>
<polygon fill="#343434" stroke="#343434" points="255.5,-912.9 131.5,-912.9 131.5,-876.9 255.5,-876.9 255.5,-912.9"/>
<text text-anchor="middle" x="193.5" y="-891.2" font-family="Courier,monospace" font-size="14.00" fill="#a0d17b">flatiron.core</text>
</g>
<!-- flatiron&#45;&gt;flatiron\.core -->
<g id="edge33" class="edge">
<title>flatiron&#45;&gt;flatiron\.core</title>
<path fill="none" stroke="#a0d17b" d="M50.35,-567.01C75,-623.87 150.94,-799.03 180.53,-867.28"/>
<polygon fill="#a0d17b" stroke="#a0d17b" points="177.35,-868.76 184.54,-876.54 183.78,-865.98 177.35,-868.76"/>
</g>
<!-- flatiron\.tf&#45;&gt;flatiron\.tf\.loss -->
<g id="edge34" class="edge">
<title>flatiron\.tf&#45;&gt;flatiron\.tf\.loss</title>
<path fill="none" stroke="#a0d17b" d="M674.07,-213.69C691.35,-218.82 710.59,-224.81 728,-230.9 754.02,-239.99 782.49,-251.23 806.14,-260.93"/>
<polygon fill="#a0d17b" stroke="#a0d17b" points="805.04,-264.26 815.62,-264.84 807.71,-257.79 805.04,-264.26"/>
</g>
<!-- flatiron\.tf&#45;&gt;flatiron\.tf\.metric -->
<g id="edge35" class="edge">
<title>flatiron\.tf&#45;&gt;flatiron\.tf\.metric</title>
<path fill="none" stroke="#a0d17b" d="M639.67,-217.02C681.45,-258.72 784.49,-361.54 832.55,-409.5"/>
<polygon fill="#a0d17b" stroke="#a0d17b" points="830.22,-412.12 839.77,-416.71 835.17,-407.17 830.22,-412.12"/>
</g>
<!-- flatiron\.tf&#45;&gt;flatiron\.tf\.optimizer -->
<g id="edge36" class="edge">
<title>flatiron\.tf&#45;&gt;flatiron\.tf\.optimizer</title>
<path fill="none" stroke="#a0d17b" d="M674.28,-202.47C697.8,-204.06 726.37,-205.99 753.9,-207.85"/>
<polygon fill="#a0d17b" stroke="#a0d17b" points="753.77,-211.35 763.99,-208.54 754.25,-204.37 753.77,-211.35"/>
</g>
<!-- flatiron\.tf&#45;&gt;flatiron\.tf\.tools -->
<g id="edge37" class="edge">
<title>flatiron\.tf&#45;&gt;flatiron\.tf\.tools</title>
<path fill="none" stroke="#a0d17b" d="M637.78,-216.95C660.8,-243.31 702.85,-294.68 728,-344.9 752.37,-393.54 730.55,-418.99 764,-461.9 774.89,-475.86 790.23,-487.19 805.37,-495.96"/>
<polygon fill="#a0d17b" stroke="#a0d17b" points="803.78,-499.08 814.23,-500.83 807.15,-492.95 803.78,-499.08"/>
</g>
<!-- flatiron\.tf&#45;&gt;flatiron\.tf\.models -->
<g id="edge38" class="edge">
<title>flatiron\.tf&#45;&gt;flatiron\.tf\.models</title>
<path fill="none" stroke="#a0d17b" d="M674.28,-190.42C701.31,-186.07 734.99,-180.66 766.11,-175.66"/>
<polygon fill="#a0d17b" stroke="#a0d17b" points="766.8,-179.1 776.12,-174.05 765.69,-172.18 766.8,-179.1"/>
</g>
<!-- flatiron\.core&#45;&gt;flatiron\.core\.config -->
<g id="edge39" class="edge">
<title>flatiron\.core&#45;&gt;flatiron\.core\.config</title>
<path fill="none" stroke="#a0d17b" d="M255.67,-910.76C260.34,-913.83 264.56,-917.51 268,-921.9 357.37,-1035.94 220.1,-1127.77 304,-1245.9 404,-1386.69 627.37,-1390.35 757.88,-1378.74"/>
<polygon fill="#a0d17b" stroke="#a0d17b" points="758.26,-1382.22 767.89,-1377.8 757.61,-1375.25 758.26,-1382.22"/>
</g>
<!-- flatiron\.core&#45;&gt;flatiron\.core\.dataset -->
<g id="edge40" class="edge">
<title>flatiron\.core&#45;&gt;flatiron\.core\.dataset</title>
<path fill="none" stroke="#a0d17b" d="M255.64,-910.79C260.31,-913.86 264.54,-917.52 268,-921.9 309.9,-974.93 253.46,-1179.02 304,-1223.9 340.14,-1255.98 694.69,-1238.83 728,-1211.9 776.62,-1172.58 727.13,-1126.39 764,-1075.9 775.08,-1060.72 791.26,-1048.43 807.09,-1039.02"/>
<polygon fill="#a0d17b" stroke="#a0d17b" points="808.83,-1042.06 815.81,-1034.09 805.39,-1035.96 808.83,-1042.06"/>
</g>
<!-- flatiron\.core&#45;&gt;flatiron\.core\.logging -->
<g id="edge41" class="edge">
<title>flatiron\.core&#45;&gt;flatiron\.core\.logging</title>
<path fill="none" stroke="#a0d17b" d="M255.59,-892.81C312.93,-890.37 401.03,-885.4 477,-875.9 575.99,-863.51 688.19,-841.98 765.05,-826.05"/>
<polygon fill="#a0d17b" stroke="#a0d17b" points="766.11,-829.41 775.18,-823.94 764.68,-822.56 766.11,-829.41"/>
</g>
<!-- flatiron\.core&#45;&gt;flatiron\.core\.pipeline -->
<g id="edge42" class="edge">
<title>flatiron\.core&#45;&gt;flatiron\.core\.pipeline</title>
<path fill="none" stroke="#a0d17b" d="M255.6,-896.21C271.37,-896.49 288.31,-896.75 304,-896.9 545.34,-899.1 828.45,-892.97 979.7,-889"/>
<polygon fill="#a0d17b" stroke="#a0d17b" points="980.01,-892.49 989.92,-888.73 979.83,-885.5 980.01,-892.49"/>
</g>
<!-- flatiron\.core&#45;&gt;flatiron\.core\.tools -->
<g id="edge43" class="edge">
<title>flatiron\.core&#45;&gt;flatiron\.core\.tools</title>
<path fill="none" stroke="#a0d17b" d="M204.61,-876.78C221.36,-848.61 257.65,-794.75 304,-767.9 323.01,-756.88 438.07,-736.33 523.78,-722.14"/>
<polygon fill="#a0d17b" stroke="#a0d17b" points="524.52,-725.57 533.82,-720.49 523.38,-718.66 524.52,-725.57"/>
</g>
<!-- flatiron\.core&#45;&gt;flatiron\.core\.types -->
<g id="edge44" class="edge">
<title>flatiron\.core&#45;&gt;flatiron\.core\.types</title>
<path fill="none" stroke="#a0d17b" d="M196.48,-876.62C202.73,-827.9 226.48,-693.77 304,-621.9 305.14,-620.84 306.32,-619.82 307.54,-618.84"/>
<polygon fill="#a0d17b" stroke="#a0d17b" points="309.83,-621.52 316.06,-612.96 305.85,-615.76 309.83,-621.52"/>
</g>
<!-- flatiron\.core&#45;&gt;flatiron\.core\.validators -->
<g id="edge45" class="edge">
<title>flatiron\.core&#45;&gt;flatiron\.core\.validators</title>
<path fill="none" stroke="#a0d17b" d="M255.82,-910.64C260.46,-913.74 264.63,-917.45 268,-921.9 329.54,-1003.07 232.78,-1306.06 304,-1378.9 359.85,-1436.02 453.76,-1438.66 524.64,-1430.24"/>
<polygon fill="#a0d17b" stroke="#a0d17b" points="525.44,-1433.66 534.92,-1428.92 524.55,-1426.72 525.44,-1433.66"/>
</g>
<!-- pytz -->
<g id="node26" class="node">
<title>pytz</title>
<polygon fill="#343434" stroke="#343434" points="417.5,-666.9 363.5,-666.9 363.5,-630.9 417.5,-630.9 417.5,-666.9"/>
<text text-anchor="middle" x="390.5" y="-645.2" font-family="Courier,monospace" font-size="14.00" fill="#de958e">pytz</text>
</g>
<!-- pytz&#45;&gt;flatiron\.core\.tools -->
<g id="edge46" class="edge">
<title>pytz&#45;&gt;flatiron\.core\.tools</title>
<path fill="none" stroke="#de958e" d="M417.65,-655.55C447.06,-663.03 496.26,-675.55 538.72,-686.35"/>
<polygon fill="#de958e" stroke="#de958e" points="537.95,-689.76 548.51,-688.84 539.68,-682.98 537.95,-689.76"/>
</g>
<!-- tensorflow -->
<g id="node27" class="node">
<title>tensorflow</title>
<polygon fill="#343434" stroke="#343434" points="243,-302.9 144,-302.9 144,-266.9 243,-266.9 243,-302.9"/>
<text text-anchor="middle" x="193.5" y="-281.2" font-family="Courier,monospace" font-size="14.00" fill="#de958e">tensorflow</text>
</g>
<!-- tensorflow&#45;&gt;flatiron\.core\.types -->
<g id="edge47" class="edge">
<title>tensorflow&#45;&gt;flatiron\.core\.types</title>
<path fill="none" stroke="#de958e" d="M210.32,-303.12C225.86,-321.41 249.81,-350.7 268,-377.9 311.88,-443.48 355.03,-526.02 376.13,-567.88"/>
<polygon fill="#de958e" stroke="#de958e" points="373.04,-569.53 380.65,-576.9 379.3,-566.39 373.04,-569.53"/>
</g>
<!-- tensorflow&#45;&gt;flatiron\.tf\.loss -->
<g id="edge48" class="edge">
<title>tensorflow&#45;&gt;flatiron\.tf\.loss</title>
<path fill="none" stroke="#de958e" d="M243.12,-276.25C262.05,-273.28 283.98,-270.35 304,-268.9 491.95,-255.24 539.83,-258.79 728,-268.9 742.97,-269.7 758.86,-271.02 774.21,-272.54"/>
<polygon fill="#de958e" stroke="#de958e" points="773.9,-276.02 784.21,-273.56 774.61,-269.06 773.9,-276.02"/>
</g>
<!-- tensorflow&#45;&gt;flatiron\.tf\.metric -->
<g id="edge49" class="edge">
<title>tensorflow&#45;&gt;flatiron\.tf\.metric</title>
<path fill="none" stroke="#de958e" d="M243.06,-282.59C339.05,-279.68 558.48,-281.32 728,-344.9 767.26,-359.62 805.94,-388.81 830.77,-409.96"/>
<polygon fill="#de958e" stroke="#de958e" points="828.79,-412.88 838.64,-416.8 833.38,-407.6 828.79,-412.88"/>
</g>
<!-- tensorflow&#45;&gt;flatiron\.tf\.models\.unet -->
<g id="edge50" class="edge">
<title>tensorflow&#45;&gt;flatiron\.tf\.models\.unet</title>
<path fill="none" stroke="#de958e" d="M198.53,-266.69C208.6,-225.64 238.89,-125.46 304,-74.9 417.76,13.44 475.47,-0.9 619.5,-0.9 619.5,-0.9 619.5,-0.9 860,-0.9 1014.33,-0.9 1087.79,2.47 1188,-114.9 1286.67,-230.46 1318.24,-731.92 1324.66,-857.37"/>
<polygon fill="#de958e" stroke="#de958e" points="1321.18,-857.86 1325.18,-867.68 1328.18,-857.52 1321.18,-857.86"/>
</g>
<!-- tensorflow&#45;&gt;flatiron\.tf\.optimizer -->
<g id="edge51" class="edge">
<title>tensorflow&#45;&gt;flatiron\.tf\.optimizer</title>
<path fill="none" stroke="#de958e" d="M201.62,-266.67C215.56,-233.91 249.87,-165.96 304,-138.9 472.55,-54.62 559.87,-53.79 728,-138.9 752.11,-151.1 741.83,-172.45 764,-187.9 766.13,-189.38 768.35,-190.79 770.63,-192.12"/>
<polygon fill="#de958e" stroke="#de958e" points="769.21,-195.32 779.69,-196.87 772.46,-189.12 769.21,-195.32"/>
</g>
<!-- tensorflow&#45;&gt;flatiron\.tf\.tools -->
<g id="edge52" class="edge">
<title>tensorflow&#45;&gt;flatiron\.tf\.tools</title>
<path fill="none" stroke="#de958e" d="M243.17,-299.62C337.56,-328.5 551.7,-395.65 728,-462.9 755.16,-473.26 784.98,-486 809.2,-496.71"/>
<polygon fill="#de958e" stroke="#de958e" points="807.97,-499.99 818.53,-500.86 810.81,-493.6 807.97,-499.99"/>
</g>
<!-- lunchbox\.enforce -->
<g id="node28" class="node">
<title>lunchbox\.enforce</title>
<polygon fill="#343434" stroke="#343434" points="465,-1214.9 316,-1214.9 316,-1178.9 465,-1178.9 465,-1214.9"/>
<text text-anchor="middle" x="390.5" y="-1193.2" font-family="Courier,monospace" font-size="14.00" fill="#de958e">lunchbox.enforce</text>
</g>
<!-- lunchbox\.enforce&#45;&gt;flatiron\.core\.dataset -->
<g id="edge53" class="edge">
<title>lunchbox\.enforce&#45;&gt;flatiron\.core\.dataset</title>
<path fill="none" stroke="#de958e" d="M465.33,-1211.69C537.76,-1222.1 648.59,-1226.65 728,-1177.9 755.16,-1161.23 744.96,-1141.45 764,-1115.9 784.45,-1088.45 811.55,-1060.32 831.39,-1040.91"/>
<polygon fill="#de958e" stroke="#de958e" points="833.86,-1043.39 838.61,-1033.92 828.99,-1038.36 833.86,-1043.39"/>
</g>
<!-- lunchbox\.enforce&#45;&gt;flatiron\.core\.tools -->
<g id="edge54" class="edge">
<title>lunchbox\.enforce&#45;&gt;flatiron\.core\.tools</title>
<path fill="none" stroke="#de958e" d="M399.89,-1178.88C434.34,-1104.82 565.19,-823.61 606.75,-734.29"/>
<polygon fill="#de958e" stroke="#de958e" points="609.99,-735.62 611.04,-725.08 603.65,-732.67 609.99,-735.62"/>
</g>
<!-- lunchbox\.enforce&#45;&gt;flatiron\.tf\.models\.unet -->
<g id="edge55" class="edge">
<title>lunchbox\.enforce&#45;&gt;flatiron\.tf\.models\.unet</title>
<path fill="none" stroke="#de958e" d="M465.29,-1212.34C534.32,-1223.96 639.74,-1234.39 728,-1211.9 965.34,-1151.41 1210.11,-975.38 1294.9,-910.38"/>
<polygon fill="#de958e" stroke="#de958e" points="1297.28,-912.97 1303.06,-904.09 1293,-907.42 1297.28,-912.97"/>
</g>
<!-- yaml -->
<g id="node29" class="node">
<title>yaml</title>
<polygon fill="#343434" stroke="#343434" points="417.5,-866.9 363.5,-866.9 363.5,-830.9 417.5,-830.9 417.5,-866.9"/>
<text text-anchor="middle" x="390.5" y="-845.2" font-family="Courier,monospace" font-size="14.00" fill="#de958e">yaml</text>
</g>
<!-- yaml&#45;&gt;flatiron\.core\.pipeline -->
<g id="edge56" class="edge">
<title>yaml&#45;&gt;flatiron\.core\.pipeline</title>
<path fill="none" stroke="#de958e" d="M417.53,-850.28C508.3,-855.1 814.28,-871.36 979.69,-880.14"/>
<polygon fill="#de958e" stroke="#de958e" points="979.72,-883.65 989.89,-880.68 980.09,-876.66 979.72,-883.65"/>
</g>
<!-- yaml&#45;&gt;flatiron\.core\.tools -->
<g id="edge57" class="edge">
<title>yaml&#45;&gt;flatiron\.core\.tools</title>
<path fill="none" stroke="#de958e" d="M417.57,-843.35C435.04,-839 458.21,-831.98 477,-821.9 522.38,-797.55 567.4,-757.96 594.33,-732.17"/>
<polygon fill="#de958e" stroke="#de958e" points="597.02,-734.44 601.76,-724.97 592.15,-729.42 597.02,-734.44"/>
</g>
<!-- numpy -->
<g id="node30" class="node">
<title>numpy</title>
<polygon fill="#343434" stroke="#343434" points="222.5,-566.9 164.5,-566.9 164.5,-530.9 222.5,-530.9 222.5,-566.9"/>
<text text-anchor="middle" x="193.5" y="-545.2" font-family="Courier,monospace" font-size="14.00" fill="#de958e">numpy</text>
</g>
<!-- numpy&#45;&gt;flatiron\.core\.dataset -->
<g id="edge58" class="edge">
<title>numpy&#45;&gt;flatiron\.core\.dataset</title>
<path fill="none" stroke="#de958e" d="M194.66,-567.11C196.22,-622.75 208.91,-791.83 304,-875.9 448.06,-1003.25 544.13,-905.64 728,-961.9 756.06,-970.48 786.39,-982.89 810.7,-993.65"/>
<polygon fill="#de958e" stroke="#de958e" points="809.48,-996.94 820.04,-997.83 812.34,-990.55 809.48,-996.94"/>
</g>
<!-- numpy&#45;&gt;flatiron\.core\.types -->
<g id="edge59" class="edge">
<title>numpy&#45;&gt;flatiron\.core\.types</title>
<path fill="none" stroke="#de958e" d="M222.85,-555.58C244.11,-560.6 274.41,-567.75 303.35,-574.57"/>
<polygon fill="#de958e" stroke="#de958e" points="302.56,-577.98 313.1,-576.87 304.17,-571.17 302.56,-577.98"/>
</g>
<!-- numpy&#45;&gt;flatiron\.tf\.loss -->
<g id="edge60" class="edge">
<title>numpy&#45;&gt;flatiron\.tf\.loss</title>
<path fill="none" stroke="#de958e" d="M222.59,-535.08C244.56,-524.46 275.96,-509.66 304,-497.9 489.58,-420.02 541.3,-414.06 728,-338.9 754.67,-328.16 784.1,-315.54 808.21,-305.01"/>
<polygon fill="#de958e" stroke="#de958e" points="809.76,-308.15 817.52,-300.93 806.95,-301.74 809.76,-308.15"/>
</g>
<!-- numpy&#45;&gt;flatiron\.tf\.metric -->
<g id="edge61" class="edge">
<title>numpy&#45;&gt;flatiron\.tf\.metric</title>
<path fill="none" stroke="#de958e" d="M222.59,-544.07C315.17,-528.16 613.54,-476.9 766.19,-450.67"/>
<polygon fill="#de958e" stroke="#de958e" points="767.21,-454.05 776.48,-448.9 766.03,-447.15 767.21,-454.05"/>
</g>
<!-- numpy&#45;&gt;flatiron\.tf\.tools -->
<g id="edge62" class="edge">
<title>numpy&#45;&gt;flatiron\.tf\.tools</title>
<path fill="none" stroke="#de958e" d="M222.55,-547.65C301.89,-544.11 534.66,-533.71 728,-524.9 741.62,-524.28 756.05,-523.61 770.14,-522.97"/>
<polygon fill="#de958e" stroke="#de958e" points="770.49,-526.45 780.32,-522.5 770.17,-519.46 770.49,-526.45"/>
</g>
<!-- keras -->
<g id="node31" class="node">
<title>keras</title>
<polygon fill="#343434" stroke="#343434" points="222.5,-422.9 164.5,-422.9 164.5,-386.9 222.5,-386.9 222.5,-422.9"/>
<text text-anchor="middle" x="193.5" y="-401.2" font-family="Courier,monospace" font-size="14.00" fill="#de958e">keras</text>
</g>
<!-- keras&#45;&gt;flatiron\.core\.types -->
<g id="edge63" class="edge">
<title>keras&#45;&gt;flatiron\.core\.types</title>
<path fill="none" stroke="#de958e" d="M213.2,-423.11C248.14,-457.16 323.42,-530.51 363.36,-569.43"/>
<polygon fill="#de958e" stroke="#de958e" points="361.25,-572.26 370.86,-576.73 366.14,-567.25 361.25,-572.26"/>
</g>
<!-- keras&#45;&gt;flatiron\.tf\.loss -->
<g id="edge64" class="edge">
<title>keras&#45;&gt;flatiron\.tf\.loss</title>
<path fill="none" stroke="#de958e" d="M222.83,-399.04C244.92,-394.52 276.38,-388.16 304,-382.9 470.65,-351.12 666.01,-316.46 774.53,-297.44"/>
<polygon fill="#de958e" stroke="#de958e" points="775.19,-300.87 784.43,-295.7 773.98,-293.98 775.19,-300.87"/>
</g>
<!-- keras&#45;&gt;flatiron\.tf\.metric -->
<g id="edge65" class="edge">
<title>keras&#45;&gt;flatiron\.tf\.metric</title>
<path fill="none" stroke="#de958e" d="M222.59,-406.17C315.17,-410.35 613.54,-423.84 766.19,-430.74"/>
<polygon fill="#de958e" stroke="#de958e" points="766.33,-434.25 776.48,-431.21 766.64,-427.26 766.33,-434.25"/>
</g>
<!-- keras&#45;&gt;flatiron\.tf\.models\.unet -->
<g id="edge66" class="edge">
<title>keras&#45;&gt;flatiron\.tf\.models\.unet</title>
<path fill="none" stroke="#de958e" d="M212.38,-386.84C228.98,-369.13 253.29,-340.67 268,-311.9 294.7,-259.66 261.33,-225.16 304,-184.9 408.46,-86.31 475.87,-114.9 619.5,-114.9 619.5,-114.9 619.5,-114.9 860,-114.9 1014.04,-114.9 1088.83,-109.02 1188,-226.9 1271.11,-325.68 1313.54,-744.57 1323.61,-857.66"/>
<polygon fill="#de958e" stroke="#de958e" points="1320.13,-857.97 1324.49,-867.63 1327.1,-857.36 1320.13,-857.97"/>
</g>
<!-- keras&#45;&gt;flatiron\.tf\.optimizer -->
<g id="edge67" class="edge">
<title>keras&#45;&gt;flatiron\.tf\.optimizer</title>
<path fill="none" stroke="#de958e" d="M210.85,-386.72C254.36,-339.89 378.84,-215.73 513,-171.9 603.83,-142.22 634.53,-152.06 728,-171.9 745.13,-175.53 747.55,-181.91 764,-187.9 769.52,-189.9 775.26,-191.86 781.07,-193.75"/>
<polygon fill="#de958e" stroke="#de958e" points="780.29,-197.17 790.88,-196.85 782.4,-190.5 780.29,-197.17"/>
</g>
<!-- keras&#45;&gt;flatiron\.tf\.tools -->
<g id="edge68" class="edge">
<title>keras&#45;&gt;flatiron\.tf\.tools</title>
<path fill="none" stroke="#de958e" d="M222.79,-411.2C244.86,-416.03 276.31,-422.72 304,-427.9 468.21,-458.61 660.88,-488.99 770.28,-505.71"/>
<polygon fill="#de958e" stroke="#de958e" points="769.87,-509.19 780.28,-507.24 770.92,-502.27 769.87,-509.19"/>
</g>
<!-- lunchbox\.stopwatch -->
<g id="node32" class="node">
<title>lunchbox\.stopwatch</title>
<polygon fill="#343434" stroke="#343434" points="473,-720.9 308,-720.9 308,-684.9 473,-684.9 473,-720.9"/>
<text text-anchor="middle" x="390.5" y="-699.2" font-family="Courier,monospace" font-size="14.00" fill="#de958e">lunchbox.stopwatch</text>
</g>
<!-- lunchbox\.stopwatch&#45;&gt;flatiron\.core\.tools -->
<g id="edge69" class="edge">
<title>lunchbox\.stopwatch&#45;&gt;flatiron\.core\.tools</title>
<path fill="none" stroke="#de958e" d="M473.17,-704.33C489.46,-704.61 506.72,-704.92 523.45,-705.21"/>
<polygon fill="#de958e" stroke="#de958e" points="523.72,-708.72 533.78,-705.39 523.85,-701.72 523.72,-708.72"/>
</g>
<!-- lunchbox\.tools -->
<g id="node33" class="node">
<title>lunchbox\.tools</title>
<polygon fill="#343434" stroke="#343434" points="456.5,-812.9 324.5,-812.9 324.5,-776.9 456.5,-776.9 456.5,-812.9"/>
<text text-anchor="middle" x="390.5" y="-791.2" font-family="Courier,monospace" font-size="14.00" fill="#de958e">lunchbox.tools</text>
</g>
<!-- lunchbox\.tools&#45;&gt;flatiron\.core\.logging -->
<g id="edge70" class="edge">
<title>lunchbox\.tools&#45;&gt;flatiron\.core\.logging</title>
<path fill="none" stroke="#de958e" d="M456.86,-796.44C533.84,-798.25 662.72,-801.29 753.59,-803.43"/>
<polygon fill="#de958e" stroke="#de958e" points="753.56,-806.93 763.64,-803.67 753.73,-799.94 753.56,-806.93"/>
</g>
<!-- lunchbox\.tools&#45;&gt;flatiron\.core\.tools -->
<g id="edge71" class="edge">
<title>lunchbox\.tools&#45;&gt;flatiron\.core\.tools</title>
<path fill="none" stroke="#de958e" d="M440.38,-776.76C452.37,-772.27 465.16,-767.44 477,-762.9 505.96,-751.79 538.12,-739.17 564.55,-728.73"/>
<polygon fill="#de958e" stroke="#de958e" points="566,-731.92 574.01,-724.99 563.42,-725.41 566,-731.92"/>
</g>
</g>
</svg>
