<?xml version="1.0" encoding="UTF-8" standalone="no"?>
<!DOCTYPE svg PUBLIC "-//W3C//DTD SVG 1.1//EN"
 "http://www.w3.org/Graphics/SVG/1.1/DTD/svg11.dtd">
<!-- Generated by graphviz version 2.43.0 (0)
 -->
<!-- Title: %3 Pages: 1 -->
<svg width="1438pt" height="1477pt"
 viewBox="0.00 0.00 1438.00 1476.98" xmlns="http://www.w3.org/2000/svg" xmlns:xlink="http://www.w3.org/1999/xlink">
<g id="graph0" class="graph" transform="scale(1 1) rotate(0) translate(4 1472.98)">
<title>%3</title>
<polygon fill="#242424" stroke="transparent" points="-4,4 -4,-1472.98 1434,-1472.98 1434,4 -4,4"/>
<!-- cli -->
<g id="node1" class="node">
<title>cli</title>
<polygon fill="#343434" stroke="#343434" points="68.5,-723.45 14.5,-723.45 14.5,-687.45 68.5,-687.45 68.5,-723.45"/>
<text text-anchor="middle" x="41.5" y="-701.75" font-family="Courier,monospace" font-size="14.00" fill="#b6ecf3">cli</text>
</g>
<!-- flatiron\.command -->
<g id="node2" class="node">
<title>flatiron\.command</title>
<polygon fill="#343434" stroke="#343434" points="268,-1194.45 119,-1194.45 119,-1158.45 268,-1158.45 268,-1194.45"/>
<text text-anchor="middle" x="193.5" y="-1172.75" font-family="Courier,monospace" font-size="14.00" fill="#b6ecf3">flatiron.command</text>
</g>
<!-- flatiron\.core\.config -->
<g id="node3" class="node">
<title>flatiron\.core\.config</title>
<polygon fill="#343434" stroke="#343434" points="950,-1338.45 768,-1338.45 768,-1302.45 950,-1302.45 950,-1338.45"/>
<text text-anchor="middle" x="859" y="-1316.75" font-family="Courier,monospace" font-size="14.00" fill="#b6ecf3">flatiron.core.config</text>
</g>
<!-- flatiron\.core\.pipeline -->
<g id="node6" class="node">
<title>flatiron\.core\.pipeline</title>
<polygon fill="#343434" stroke="#343434" points="1188,-1127.45 990,-1127.45 990,-1091.45 1188,-1091.45 1188,-1127.45"/>
<text text-anchor="middle" x="1089" y="-1105.75" font-family="Courier,monospace" font-size="14.00" fill="#b6ecf3">flatiron.core.pipeline</text>
</g>
<!-- flatiron\.core\.config&#45;&gt;flatiron\.core\.pipeline -->
<g id="edge1" class="edge">
<title>flatiron\.core\.config&#45;&gt;flatiron\.core\.pipeline</title>
<path fill="none" stroke="#b6ecf3" d="M886.87,-1302.28C906.2,-1288.78 932.53,-1269.48 954,-1250.45 996.03,-1213.17 1040.02,-1164.8 1065.68,-1135.49"/>
<polygon fill="#b6ecf3" stroke="#b6ecf3" points="1068.49,-1137.6 1072.41,-1127.76 1063.2,-1133 1068.49,-1137.6"/>
</g>
<!-- flatiron\.core\.dataset -->
<g id="node4" class="node">
<title>flatiron\.core\.dataset</title>
<polygon fill="#343434" stroke="#343434" points="954,-953.45 764,-953.45 764,-917.45 954,-917.45 954,-953.45"/>
<text text-anchor="middle" x="859" y="-931.75" font-family="Courier,monospace" font-size="14.00" fill="#b6ecf3">flatiron.core.dataset</text>
</g>
<!-- flatiron\.core\.dataset&#45;&gt;flatiron\.core\.pipeline -->
<g id="edge2" class="edge">
<title>flatiron\.core\.dataset&#45;&gt;flatiron\.core\.pipeline</title>
<path fill="none" stroke="#b6ecf3" d="M883.97,-953.74C925.3,-985.28 1009.98,-1049.9 1056.19,-1085.17"/>
<polygon fill="#b6ecf3" stroke="#b6ecf3" points="1054.28,-1088.12 1064.35,-1091.4 1058.53,-1082.55 1054.28,-1088.12"/>
</g>
<!-- flatiron\.core\.logging -->
<g id="node5" class="node">
<title>flatiron\.core\.logging</title>
<polygon fill="#343434" stroke="#343434" points="954,-1161.45 764,-1161.45 764,-1125.45 954,-1125.45 954,-1161.45"/>
<text text-anchor="middle" x="859" y="-1139.75" font-family="Courier,monospace" font-size="14.00" fill="#b6ecf3">flatiron.core.logging</text>
</g>
<!-- flatiron\.core\.logging&#45;&gt;flatiron\.core\.pipeline -->
<g id="edge3" class="edge">
<title>flatiron\.core\.logging&#45;&gt;flatiron\.core\.pipeline</title>
<path fill="none" stroke="#b6ecf3" d="M954.05,-1129.42C962.52,-1128.16 971.13,-1126.87 979.7,-1125.6"/>
<polygon fill="#b6ecf3" stroke="#b6ecf3" points="980.36,-1129.04 989.74,-1124.1 979.33,-1122.11 980.36,-1129.04"/>
</g>
<!-- flatiron\.tf\.models\.unet -->
<g id="node12" class="node">
<title>flatiron\.tf\.models\.unet</title>
<polygon fill="#343434" stroke="#343434" points="1430,-1064.45 1224,-1064.45 1224,-1028.45 1430,-1028.45 1430,-1064.45"/>
<text text-anchor="middle" x="1327" y="-1042.75" font-family="Courier,monospace" font-size="14.00" fill="#b6ecf3">flatiron.tf.models.unet</text>
</g>
<!-- flatiron\.core\.pipeline&#45;&gt;flatiron\.tf\.models\.unet -->
<g id="edge4" class="edge">
<title>flatiron\.core\.pipeline&#45;&gt;flatiron\.tf\.models\.unet</title>
<path fill="none" stroke="#b6ecf3" d="M1157.63,-1091.39C1186.02,-1083.81 1219.2,-1074.96 1248.56,-1067.12"/>
<polygon fill="#b6ecf3" stroke="#b6ecf3" points="1249.6,-1070.46 1258.36,-1064.5 1247.8,-1063.7 1249.6,-1070.46"/>
</g>
<!-- flatiron\.core\.tools -->
<g id="node7" class="node">
<title>flatiron\.core\.tools</title>
<polygon fill="#343434" stroke="#343434" points="707,-726.45 534,-726.45 534,-690.45 707,-690.45 707,-726.45"/>
<text text-anchor="middle" x="620.5" y="-704.75" font-family="Courier,monospace" font-size="14.00" fill="#b6ecf3">flatiron.core.tools</text>
</g>
<!-- flatiron\.core\.tools&#45;&gt;flatiron\.core\.dataset -->
<g id="edge5" class="edge">
<title>flatiron\.core\.tools&#45;&gt;flatiron\.core\.dataset</title>
<path fill="none" stroke="#b6ecf3" d="M658.13,-726.67C679.72,-738.38 706.85,-754.85 728,-773.45 774.98,-814.76 817.99,-874.48 840.84,-908.69"/>
<polygon fill="#b6ecf3" stroke="#b6ecf3" points="838.03,-910.8 846.46,-917.21 843.88,-906.94 838.03,-910.8"/>
</g>
<!-- flatiron\.core\.tools&#45;&gt;flatiron\.core\.logging -->
<g id="edge6" class="edge">
<title>flatiron\.core\.tools&#45;&gt;flatiron\.core\.logging</title>
<path fill="none" stroke="#b6ecf3" d="M668.57,-726.56C689.89,-737.11 713.51,-752.52 728,-773.45 776.67,-843.75 736,-881.65 764,-962.45 784.01,-1020.19 819.76,-1082.33 840.93,-1116.71"/>
<polygon fill="#b6ecf3" stroke="#b6ecf3" points="837.99,-1118.59 846.24,-1125.23 843.93,-1114.89 837.99,-1118.59"/>
</g>
<!-- flatiron\.core\.tools&#45;&gt;flatiron\.core\.pipeline -->
<g id="edge7" class="edge">
<title>flatiron\.core\.tools&#45;&gt;flatiron\.core\.pipeline</title>
<path fill="none" stroke="#b6ecf3" d="M707.04,-693.27C780.17,-685.3 884.32,-686.46 954,-740.45 1064.21,-825.84 1083.85,-1010.36 1087.29,-1081.08"/>
<polygon fill="#b6ecf3" stroke="#b6ecf3" points="1083.81,-1081.57 1087.72,-1091.42 1090.8,-1081.28 1083.81,-1081.57"/>
</g>
<!-- flatiron\.tf\.loss -->
<g id="node10" class="node">
<title>flatiron\.tf\.loss</title>
<polygon fill="#343434" stroke="#343434" points="933.5,-364.45 784.5,-364.45 784.5,-328.45 933.5,-328.45 933.5,-364.45"/>
<text text-anchor="middle" x="859" y="-342.75" font-family="Courier,monospace" font-size="14.00" fill="#b6ecf3">flatiron.tf.loss</text>
</g>
<!-- flatiron\.core\.tools&#45;&gt;flatiron\.tf\.loss -->
<g id="edge8" class="edge">
<title>flatiron\.core\.tools&#45;&gt;flatiron\.tf\.loss</title>
<path fill="none" stroke="#b6ecf3" d="M628.97,-690.31C657.39,-621.37 757.51,-379.19 764,-373.45 767.46,-370.39 771.24,-367.68 775.24,-365.27"/>
<polygon fill="#b6ecf3" stroke="#b6ecf3" points="777.09,-368.25 784.29,-360.48 773.82,-362.06 777.09,-368.25"/>
</g>
<!-- flatiron\.tf\.metric -->
<g id="node11" class="node">
<title>flatiron\.tf\.metric</title>
<polygon fill="#343434" stroke="#343434" points="941.5,-284.45 776.5,-284.45 776.5,-248.45 941.5,-248.45 941.5,-284.45"/>
<text text-anchor="middle" x="859" y="-262.75" font-family="Courier,monospace" font-size="14.00" fill="#b6ecf3">flatiron.tf.metric</text>
</g>
<!-- flatiron\.core\.tools&#45;&gt;flatiron\.tf\.metric -->
<g id="edge9" class="edge">
<title>flatiron\.core\.tools&#45;&gt;flatiron\.tf\.metric</title>
<path fill="none" stroke="#b6ecf3" d="M626.37,-690.18C644.97,-621.48 713.01,-379.47 764,-319.45 774.35,-307.27 788.24,-297.32 802.16,-289.47"/>
<polygon fill="#b6ecf3" stroke="#b6ecf3" points="804.1,-292.4 811.28,-284.61 800.81,-286.22 804.1,-292.4"/>
</g>
<!-- flatiron\.core\.tools&#45;&gt;flatiron\.tf\.models\.unet -->
<g id="edge10" class="edge">
<title>flatiron\.core\.tools&#45;&gt;flatiron\.tf\.models\.unet</title>
<path fill="none" stroke="#b6ecf3" d="M677.1,-690.43C745.09,-671.56 862.43,-649.39 954,-686.45 1126.22,-756.13 1262.87,-948.01 1309.1,-1019.31"/>
<polygon fill="#b6ecf3" stroke="#b6ecf3" points="1306.43,-1021.63 1314.77,-1028.16 1312.32,-1017.85 1306.43,-1021.63"/>
</g>
<!-- flatiron\.tf\.optimizer -->
<g id="node13" class="node">
<title>flatiron\.tf\.optimizer</title>
<polygon fill="#343434" stroke="#343434" points="954,-219.45 764,-219.45 764,-183.45 954,-183.45 954,-219.45"/>
<text text-anchor="middle" x="859" y="-197.75" font-family="Courier,monospace" font-size="14.00" fill="#b6ecf3">flatiron.tf.optimizer</text>
</g>
<!-- flatiron\.core\.tools&#45;&gt;flatiron\.tf\.optimizer -->
<g id="edge11" class="edge">
<title>flatiron\.core\.tools&#45;&gt;flatiron\.tf\.optimizer</title>
<path fill="none" stroke="#b6ecf3" d="M627.75,-690.26C644.77,-640.48 692.99,-497.72 728,-377.45 745.71,-316.59 722.16,-287.06 764,-239.45 769.15,-233.59 775.33,-228.62 782.03,-224.41"/>
<polygon fill="#b6ecf3" stroke="#b6ecf3" points="783.78,-227.44 790.76,-219.47 780.33,-221.35 783.78,-227.44"/>
</g>
<!-- flatiron\.tf\.tools -->
<g id="node14" class="node">
<title>flatiron\.tf\.tools</title>
<polygon fill="#343434" stroke="#343434" points="937.5,-543.45 780.5,-543.45 780.5,-507.45 937.5,-507.45 937.5,-543.45"/>
<text text-anchor="middle" x="859" y="-521.75" font-family="Courier,monospace" font-size="14.00" fill="#b6ecf3">flatiron.tf.tools</text>
</g>
<!-- flatiron\.core\.tools&#45;&gt;flatiron\.tf\.tools -->
<g id="edge12" class="edge">
<title>flatiron\.core\.tools&#45;&gt;flatiron\.tf\.tools</title>
<path fill="none" stroke="#b6ecf3" d="M637.17,-690.36C661.99,-662.47 712.81,-608.45 764,-572.45 776.98,-563.32 791.98,-554.97 806.14,-547.93"/>
<polygon fill="#b6ecf3" stroke="#b6ecf3" points="807.83,-551 815.3,-543.49 804.77,-544.7 807.83,-551"/>
</g>
<!-- flatiron\.core\.types -->
<g id="node8" class="node">
<title>flatiron\.core\.types</title>
<polygon fill="#343434" stroke="#343434" points="477,-615.45 304,-615.45 304,-579.45 477,-579.45 477,-615.45"/>
<text text-anchor="middle" x="390.5" y="-593.75" font-family="Courier,monospace" font-size="14.00" fill="#b6ecf3">flatiron.core.types</text>
</g>
<!-- flatiron\.core\.types&#45;&gt;flatiron\.core\.dataset -->
<g id="edge13" class="edge">
<title>flatiron\.core\.types&#45;&gt;flatiron\.core\.dataset</title>
<path fill="none" stroke="#b6ecf3" d="M447.69,-615.58C457.48,-618.82 467.55,-622.19 477,-625.45 493.09,-630.98 496.61,-633.88 513,-638.45 606.87,-664.62 650.28,-622.66 728,-681.45 804.3,-739.16 839.46,-854.35 852.13,-907.45"/>
<polygon fill="#b6ecf3" stroke="#b6ecf3" points="848.73,-908.25 854.37,-917.21 855.55,-906.68 848.73,-908.25"/>
</g>
<!-- flatiron\.core\.types&#45;&gt;flatiron\.core\.pipeline -->
<g id="edge14" class="edge">
<title>flatiron\.core\.types&#45;&gt;flatiron\.core\.pipeline</title>
<path fill="none" stroke="#b6ecf3" d="M477.14,-599.82C616.95,-605.48 885.52,-624.34 954,-686.45 1072.29,-793.73 1086.87,-1004.64 1088.14,-1081"/>
<polygon fill="#b6ecf3" stroke="#b6ecf3" points="1084.64,-1081.3 1088.24,-1091.26 1091.64,-1081.23 1084.64,-1081.3"/>
</g>
<!-- flatiron\.core\.types&#45;&gt;flatiron\.core\.tools -->
<g id="edge15" class="edge">
<title>flatiron\.core\.types&#45;&gt;flatiron\.core\.tools</title>
<path fill="none" stroke="#b6ecf3" d="M460.22,-615.47C466.16,-618.34 471.85,-621.64 477,-625.45 499.32,-641.93 490.48,-660.24 513,-676.45 518.04,-680.07 523.49,-683.3 529.17,-686.15"/>
<polygon fill="#b6ecf3" stroke="#b6ecf3" points="527.72,-689.34 538.27,-690.36 530.66,-682.99 527.72,-689.34"/>
</g>
<!-- flatiron\.core\.types&#45;&gt;flatiron\.tf\.tools -->
<g id="edge16" class="edge">
<title>flatiron\.core\.types&#45;&gt;flatiron\.tf\.tools</title>
<path fill="none" stroke="#b6ecf3" d="M477.15,-592.66C545.52,-587.84 643.51,-578.74 728,-562.45 749.29,-558.34 772.14,-552.38 792.66,-546.44"/>
<polygon fill="#b6ecf3" stroke="#b6ecf3" points="793.92,-549.72 802.52,-543.53 791.94,-543 793.92,-549.72"/>
</g>
<!-- flatiron\.core\.validators -->
<g id="node9" class="node">
<title>flatiron\.core\.validators</title>
<polygon fill="#343434" stroke="#343434" points="728,-1300.45 513,-1300.45 513,-1264.45 728,-1264.45 728,-1300.45"/>
<text text-anchor="middle" x="620.5" y="-1278.75" font-family="Courier,monospace" font-size="14.00" fill="#b6ecf3">flatiron.core.validators</text>
</g>
<!-- flatiron\.core\.validators&#45;&gt;flatiron\.core\.config -->
<g id="edge17" class="edge">
<title>flatiron\.core\.validators&#45;&gt;flatiron\.core\.config</title>
<path fill="none" stroke="#b6ecf3" d="M728.33,-1299.61C738.15,-1301.19 748.06,-1302.78 757.81,-1304.35"/>
<polygon fill="#b6ecf3" stroke="#b6ecf3" points="757.47,-1307.84 767.9,-1305.97 758.58,-1300.93 757.47,-1307.84"/>
</g>
<!-- flatiron\.core\.validators&#45;&gt;flatiron\.tf\.models\.unet -->
<g id="edge18" class="edge">
<title>flatiron\.core\.validators&#45;&gt;flatiron\.tf\.models\.unet</title>
<path fill="none" stroke="#b6ecf3" d="M728.1,-1281.81C794.22,-1279.07 880.32,-1271.21 954,-1250.45 1065.35,-1219.07 1087.36,-1193.49 1188,-1136.45 1224.49,-1115.77 1264.45,-1089.25 1291.94,-1070.37"/>
<polygon fill="#b6ecf3" stroke="#b6ecf3" points="1294.16,-1073.08 1300.4,-1064.52 1290.19,-1067.32 1294.16,-1073.08"/>
</g>
<!-- click -->
<g id="node15" class="node">
<title>click</title>
<polygon fill="#343434" stroke="#343434" points="70.5,-1194.45 12.5,-1194.45 12.5,-1158.45 70.5,-1158.45 70.5,-1194.45"/>
<text text-anchor="middle" x="41.5" y="-1172.75" font-family="Courier,monospace" font-size="14.00" fill="#de958e">click</text>
</g>
<!-- click&#45;&gt;flatiron\.command -->
<g id="edge19" class="edge">
<title>click&#45;&gt;flatiron\.command</title>
<path fill="none" stroke="#de958e" d="M70.71,-1176.45C81.78,-1176.45 95.1,-1176.45 108.82,-1176.45"/>
<polygon fill="#de958e" stroke="#de958e" points="108.85,-1179.95 118.85,-1176.45 108.85,-1172.95 108.85,-1179.95"/>
</g>
<!-- flatiron\.tf\.models -->
<g id="node16" class="node">
<title>flatiron\.tf\.models</title>
<polygon fill="#343434" stroke="#343434" points="941.5,-418.45 776.5,-418.45 776.5,-382.45 941.5,-382.45 941.5,-418.45"/>
<text text-anchor="middle" x="859" y="-396.75" font-family="Courier,monospace" font-size="14.00" fill="#a0d17b">flatiron.tf.models</text>
</g>
<!-- flatiron\.tf\.models&#45;&gt;flatiron\.tf\.models\.unet -->
<g id="edge20" class="edge">
<title>flatiron\.tf\.models&#45;&gt;flatiron\.tf\.models\.unet</title>
<path fill="none" stroke="#a0d17b" d="M927.72,-418.54C1002.22,-441.89 1120.32,-489.7 1188,-572.45 1301.24,-710.9 1321.56,-938.6 1325.21,-1018.04"/>
<polygon fill="#a0d17b" stroke="#a0d17b" points="1321.72,-1018.39 1325.62,-1028.25 1328.71,-1018.11 1321.72,-1018.39"/>
</g>
<!-- pydantic -->
<g id="node17" class="node">
<title>pydantic</title>
<polygon fill="#343434" stroke="#343434" points="662,-1446.45 579,-1446.45 579,-1410.45 662,-1410.45 662,-1446.45"/>
<text text-anchor="middle" x="620.5" y="-1424.75" font-family="Courier,monospace" font-size="14.00" fill="#de958e">pydantic</text>
</g>
<!-- pydantic&#45;&gt;flatiron\.core\.config -->
<g id="edge21" class="edge">
<title>pydantic&#45;&gt;flatiron\.core\.config</title>
<path fill="none" stroke="#de958e" d="M662.11,-1424.77C683.19,-1421.3 708.54,-1414.55 728,-1401.45 750.41,-1386.35 742.21,-1368.43 764,-1352.45 768.81,-1348.92 774.04,-1345.76 779.48,-1342.94"/>
<polygon fill="#de958e" stroke="#de958e" points="781.28,-1345.96 788.81,-1338.5 778.27,-1339.64 781.28,-1345.96"/>
</g>
<!-- pydantic&#45;&gt;flatiron\.core\.pipeline -->
<g id="edge22" class="edge">
<title>pydantic&#45;&gt;flatiron\.core\.pipeline</title>
<path fill="none" stroke="#de958e" d="M662.19,-1428.58C729.58,-1426.77 865.69,-1414.37 954,-1347.45 1025.98,-1292.9 1065.02,-1187.79 1080.3,-1137.54"/>
<polygon fill="#de958e" stroke="#de958e" points="1083.73,-1138.27 1083.2,-1127.69 1077.02,-1136.29 1083.73,-1138.27"/>
</g>
<!-- pydantic&#45;&gt;flatiron\.tf\.models\.unet -->
<g id="edge23" class="edge">
<title>pydantic&#45;&gt;flatiron\.tf\.models\.unet</title>
<path fill="none" stroke="#de958e" d="M662.34,-1429.49C763.9,-1429.89 1030.98,-1417.15 1188,-1281.45 1255.67,-1222.96 1298.65,-1122.7 1316.51,-1074.26"/>
<polygon fill="#de958e" stroke="#de958e" points="1319.84,-1075.33 1319.94,-1064.74 1313.25,-1072.96 1319.84,-1075.33"/>
</g>
<!-- typing_extensions -->
<g id="node18" class="node">
<title>typing_extensions</title>
<polygon fill="#343434" stroke="#343434" points="699,-1392.45 542,-1392.45 542,-1356.45 699,-1356.45 699,-1392.45"/>
<text text-anchor="middle" x="620.5" y="-1370.75" font-family="Courier,monospace" font-size="14.00" fill="#de958e">typing_extensions</text>
</g>
<!-- typing_extensions&#45;&gt;flatiron\.core\.config -->
<g id="edge24" class="edge">
<title>typing_extensions&#45;&gt;flatiron\.core\.config</title>
<path fill="none" stroke="#de958e" d="M699.27,-1356.69C721.55,-1351.6 746.01,-1346.02 768.92,-1340.79"/>
<polygon fill="#de958e" stroke="#de958e" points="770,-1344.13 778.97,-1338.49 768.44,-1337.31 770,-1344.13"/>
</g>
<!-- typing_extensions&#45;&gt;flatiron\.tf\.models\.unet -->
<g id="edge25" class="edge">
<title>typing_extensions&#45;&gt;flatiron\.tf\.models\.unet</title>
<path fill="none" stroke="#de958e" d="M699.14,-1378.37C767.87,-1379.47 870.01,-1375.23 954,-1347.45 1070.38,-1308.95 1094.29,-1280.47 1188,-1201.45 1235.28,-1161.58 1281.2,-1105.48 1306.33,-1072.85"/>
<polygon fill="#de958e" stroke="#de958e" points="1309.27,-1074.77 1312.55,-1064.69 1303.71,-1070.52 1309.27,-1074.77"/>
</g>
<!-- sklearn\.model_selection -->
<g id="node19" class="node">
<title>sklearn\.model_selection</title>
<polygon fill="#343434" stroke="#343434" points="723.5,-980.45 517.5,-980.45 517.5,-944.45 723.5,-944.45 723.5,-980.45"/>
<text text-anchor="middle" x="620.5" y="-958.75" font-family="Courier,monospace" font-size="14.00" fill="#de958e">sklearn.model_selection</text>
</g>
<!-- sklearn\.model_selection&#45;&gt;flatiron\.core\.dataset -->
<g id="edge26" class="edge">
<title>sklearn\.model_selection&#45;&gt;flatiron\.core\.dataset</title>
<path fill="none" stroke="#de958e" d="M723.51,-950.8C733.55,-949.66 743.74,-948.49 753.79,-947.34"/>
<polygon fill="#de958e" stroke="#de958e" points="754.25,-950.81 763.79,-946.2 753.46,-943.86 754.25,-950.81"/>
</g>
<!-- pandas -->
<g id="node20" class="node">
<title>pandas</title>
<polygon fill="#343434" stroke="#343434" points="653.5,-926.45 587.5,-926.45 587.5,-890.45 653.5,-890.45 653.5,-926.45"/>
<text text-anchor="middle" x="620.5" y="-904.75" font-family="Courier,monospace" font-size="14.00" fill="#de958e">pandas</text>
</g>
<!-- pandas&#45;&gt;flatiron\.core\.dataset -->
<g id="edge27" class="edge">
<title>pandas&#45;&gt;flatiron\.core\.dataset</title>
<path fill="none" stroke="#de958e" d="M653.89,-912.14C679.79,-915.1 717.62,-919.42 753.69,-923.54"/>
<polygon fill="#de958e" stroke="#de958e" points="753.47,-927.04 763.81,-924.69 754.27,-920.08 753.47,-927.04"/>
</g>
<!-- humanfriendly -->
<g id="node21" class="node">
<title>humanfriendly</title>
<polygon fill="#343434" stroke="#343434" points="682.5,-872.45 558.5,-872.45 558.5,-836.45 682.5,-836.45 682.5,-872.45"/>
<text text-anchor="middle" x="620.5" y="-850.75" font-family="Courier,monospace" font-size="14.00" fill="#de958e">humanfriendly</text>
</g>
<!-- humanfriendly&#45;&gt;flatiron\.core\.dataset -->
<g id="edge28" class="edge">
<title>humanfriendly&#45;&gt;flatiron\.core\.dataset</title>
<path fill="none" stroke="#de958e" d="M682.77,-868.36C697.69,-872.19 713.52,-876.63 728,-881.45 755.43,-890.57 785.27,-902.79 809.44,-913.3"/>
<polygon fill="#de958e" stroke="#de958e" points="808.18,-916.57 818.74,-917.38 810.99,-910.16 808.18,-916.57"/>
</g>
<!-- tqdm\.notebook -->
<g id="node22" class="node">
<title>tqdm\.notebook</title>
<polygon fill="#343434" stroke="#343434" points="682.5,-818.45 558.5,-818.45 558.5,-782.45 682.5,-782.45 682.5,-818.45"/>
<text text-anchor="middle" x="620.5" y="-796.75" font-family="Courier,monospace" font-size="14.00" fill="#de958e">tqdm.notebook</text>
</g>
<!-- tqdm\.notebook&#45;&gt;flatiron\.core\.dataset -->
<g id="edge29" class="edge">
<title>tqdm\.notebook&#45;&gt;flatiron\.core\.dataset</title>
<path fill="none" stroke="#de958e" d="M682.62,-811.01C697.93,-814.97 713.98,-820.31 728,-827.45 769.71,-848.67 809.91,-885.37 834.29,-910.03"/>
<polygon fill="#de958e" stroke="#de958e" points="831.85,-912.54 841.33,-917.26 836.86,-907.65 831.85,-912.54"/>
</g>
<!-- flatiron -->
<g id="node23" class="node">
<title>flatiron</title>
<polygon fill="#343434" stroke="#343434" points="83,-777.45 0,-777.45 0,-741.45 83,-741.45 83,-777.45"/>
<text text-anchor="middle" x="41.5" y="-755.75" font-family="Courier,monospace" font-size="14.00" fill="#a0d17b">flatiron</text>
</g>
<!-- flatiron&#45;&gt;flatiron\.command -->
<g id="edge30" class="edge">
<title>flatiron&#45;&gt;flatiron\.command</title>
<path fill="none" stroke="#a0d17b" d="M43.72,-777.46C48.75,-846.3 69.86,-1091.83 119,-1149.45 119.73,-1150.3 120.49,-1151.13 121.27,-1151.93"/>
<polygon fill="#a0d17b" stroke="#a0d17b" points="119.08,-1154.66 128.98,-1158.45 123.6,-1149.32 119.08,-1154.66"/>
</g>
<!-- flatiron&#45;&gt;flatiron\.tf\.models -->
<g id="edge31" class="edge">
<title>flatiron&#45;&gt;flatiron\.tf\.models</title>
<path fill="none" stroke="#a0d17b" d="M75.2,-741.28C78.16,-738.63 80.85,-735.68 83,-732.45 129.43,-662.73 59.89,-606.8 119,-547.45 292.64,-373.08 610.14,-375.6 766.31,-389.19"/>
<polygon fill="#a0d17b" stroke="#a0d17b" points="766.08,-392.69 776.36,-390.1 766.71,-385.72 766.08,-392.69"/>
</g>
<!-- flatiron\.tf -->
<g id="node24" class="node">
<title>flatiron\.tf</title>
<polygon fill="#343434" stroke="#343434" points="674,-368.45 567,-368.45 567,-332.45 674,-332.45 674,-368.45"/>
<text text-anchor="middle" x="620.5" y="-346.75" font-family="Courier,monospace" font-size="14.00" fill="#a0d17b">flatiron.tf</text>
</g>
<!-- flatiron&#45;&gt;flatiron\.tf -->
<g id="edge32" class="edge">
<title>flatiron&#45;&gt;flatiron\.tf</title>
<path fill="none" stroke="#a0d17b" d="M75.87,-741.12C78.62,-738.52 81.08,-735.63 83,-732.45 123.38,-665.49 62.65,-436.66 119,-382.45 179.89,-323.86 436.15,-335.72 556.53,-344.88"/>
<polygon fill="#a0d17b" stroke="#a0d17b" points="556.46,-348.38 566.7,-345.67 557.01,-341.4 556.46,-348.38"/>
</g>
<!-- flatiron\.core -->
<g id="node25" class="node">
<title>flatiron\.core</title>
<polygon fill="#343434" stroke="#343434" points="255.5,-1140.45 131.5,-1140.45 131.5,-1104.45 255.5,-1104.45 255.5,-1140.45"/>
<text text-anchor="middle" x="193.5" y="-1118.75" font-family="Courier,monospace" font-size="14.00" fill="#a0d17b">flatiron.core</text>
</g>
<!-- flatiron&#45;&gt;flatiron\.core -->
<g id="edge33" class="edge">
<title>flatiron&#45;&gt;flatiron\.core</title>
<path fill="none" stroke="#a0d17b" d="M49.94,-777.45C74.28,-836.35 151.67,-1023.64 181.04,-1094.72"/>
<polygon fill="#a0d17b" stroke="#a0d17b" points="177.96,-1096.43 185.02,-1104.34 184.43,-1093.76 177.96,-1096.43"/>
</g>
<!-- flatiron\.tf&#45;&gt;flatiron\.tf\.loss -->
<g id="edge34" class="edge">
<title>flatiron\.tf&#45;&gt;flatiron\.tf\.loss</title>
<path fill="none" stroke="#a0d17b" d="M674.28,-349.55C703.64,-349.06 740.87,-348.43 774.13,-347.87"/>
<polygon fill="#a0d17b" stroke="#a0d17b" points="774.37,-351.36 784.31,-347.69 774.25,-344.36 774.37,-351.36"/>
</g>
<!-- flatiron\.tf&#45;&gt;flatiron\.tf\.metric -->
<g id="edge35" class="edge">
<title>flatiron\.tf&#45;&gt;flatiron\.tf\.metric</title>
<path fill="none" stroke="#a0d17b" d="M672.24,-332.43C708.9,-319.41 758.58,-301.76 797.34,-287.99"/>
<polygon fill="#a0d17b" stroke="#a0d17b" points="798.69,-291.23 806.94,-284.58 796.35,-284.63 798.69,-291.23"/>
</g>
<!-- flatiron\.tf&#45;&gt;flatiron\.tf\.optimizer -->
<g id="edge36" class="edge">
<title>flatiron\.tf&#45;&gt;flatiron\.tf\.optimizer</title>
<path fill="none" stroke="#a0d17b" d="M640.99,-332.37C667.32,-308.66 716.46,-266.86 764,-239.45 774.25,-233.54 785.59,-228.12 796.75,-223.33"/>
<polygon fill="#a0d17b" stroke="#a0d17b" points="798.16,-226.53 806.05,-219.46 795.47,-220.07 798.16,-226.53"/>
</g>
<!-- flatiron\.tf&#45;&gt;flatiron\.tf\.tools -->
<g id="edge37" class="edge">
<title>flatiron\.tf&#45;&gt;flatiron\.tf\.tools</title>
<path fill="none" stroke="#a0d17b" d="M645.92,-368.52C688.67,-400.15 777.09,-465.58 825.16,-501.14"/>
<polygon fill="#a0d17b" stroke="#a0d17b" points="823.24,-504.08 833.36,-507.21 827.4,-498.45 823.24,-504.08"/>
</g>
<!-- flatiron\.tf&#45;&gt;flatiron\.tf\.models -->
<g id="edge38" class="edge">
<title>flatiron\.tf&#45;&gt;flatiron\.tf\.models</title>
<path fill="none" stroke="#a0d17b" d="M674.28,-361.61C701.31,-367.32 734.99,-374.44 766.11,-381.02"/>
<polygon fill="#a0d17b" stroke="#a0d17b" points="765.61,-384.49 776.12,-383.14 767.06,-377.64 765.61,-384.49"/>
</g>
<!-- flatiron\.core&#45;&gt;flatiron\.core\.config -->
<g id="edge39" class="edge">
<title>flatiron\.core&#45;&gt;flatiron\.core\.config</title>
<path fill="none" stroke="#a0d17b" d="M255.73,-1139.29C260.26,-1142.16 264.44,-1145.52 268,-1149.45 310.85,-1196.74 255.55,-1246.91 304,-1288.45 369.73,-1344.81 616.29,-1337.8 757.33,-1328.62"/>
<polygon fill="#a0d17b" stroke="#a0d17b" points="757.97,-1332.09 767.72,-1327.93 757.51,-1325.1 757.97,-1332.09"/>
</g>
<!-- flatiron\.core&#45;&gt;flatiron\.core\.dataset -->
<g id="edge40" class="edge">
<title>flatiron\.core&#45;&gt;flatiron\.core\.dataset</title>
<path fill="none" stroke="#a0d17b" d="M255.81,-1125.93C378.01,-1131.87 647.15,-1139.65 728,-1098.45 785.83,-1068.98 826.42,-1000.83 845.56,-962.64"/>
<polygon fill="#a0d17b" stroke="#a0d17b" points="848.72,-964.14 849.96,-953.61 842.43,-961.07 848.72,-964.14"/>
</g>
<!-- flatiron\.core&#45;&gt;flatiron\.core\.logging -->
<g id="edge41" class="edge">
<title>flatiron\.core&#45;&gt;flatiron\.core\.logging</title>
<path fill="none" stroke="#a0d17b" d="M255.77,-1131.54C271.45,-1133.52 288.32,-1135.35 304,-1136.45 460.32,-1147.39 642.04,-1147.24 753.53,-1145.68"/>
<polygon fill="#a0d17b" stroke="#a0d17b" points="753.81,-1149.18 763.76,-1145.54 753.71,-1142.18 753.81,-1149.18"/>
</g>
<!-- flatiron\.core&#45;&gt;flatiron\.core\.pipeline -->
<g id="edge42" class="edge">
<title>flatiron\.core&#45;&gt;flatiron\.core\.pipeline</title>
<path fill="none" stroke="#a0d17b" d="M255.6,-1138.88C260.21,-1141.84 264.45,-1145.33 268,-1149.45 319.56,-1209.26 259.04,-1258.53 304,-1323.45 416.38,-1485.7 532.24,-1480.58 728,-1455.45 830.97,-1442.23 874.25,-1462.9 954,-1396.45 1037.12,-1327.19 1071.63,-1194.86 1083.15,-1137.32"/>
<polygon fill="#a0d17b" stroke="#a0d17b" points="1086.59,-1137.96 1085.04,-1127.48 1079.71,-1136.64 1086.59,-1137.96"/>
</g>
<!-- flatiron\.core&#45;&gt;flatiron\.core\.tools -->
<g id="edge43" class="edge">
<title>flatiron\.core&#45;&gt;flatiron\.core\.tools</title>
<path fill="none" stroke="#a0d17b" d="M194.18,-1104.17C194.2,-1045.85 202.69,-862.61 304,-771.45 312.33,-763.95 434.2,-741.1 523.99,-725.08"/>
<polygon fill="#a0d17b" stroke="#a0d17b" points="524.71,-728.51 533.94,-723.31 523.49,-721.62 524.71,-728.51"/>
</g>
<!-- flatiron\.core&#45;&gt;flatiron\.core\.types -->
<g id="edge44" class="edge">
<title>flatiron\.core&#45;&gt;flatiron\.core\.types</title>
<path fill="none" stroke="#a0d17b" d="M196.12,-1104.26C203.64,-1023.58 237.67,-698.74 304,-625.45 305.19,-624.13 306.44,-622.88 307.75,-621.69"/>
<polygon fill="#a0d17b" stroke="#a0d17b" points="310.01,-624.36 315.77,-615.47 305.72,-618.83 310.01,-624.36"/>
</g>
<!-- flatiron\.core&#45;&gt;flatiron\.core\.validators -->
<g id="edge45" class="edge">
<title>flatiron\.core&#45;&gt;flatiron\.core\.validators</title>
<path fill="none" stroke="#a0d17b" d="M255.71,-1139.85C260.19,-1142.6 264.36,-1145.78 268,-1149.45 301.53,-1183.31 266.49,-1221.05 304,-1250.45 359.22,-1293.72 437.64,-1301.85 502.48,-1299.09"/>
<polygon fill="#a0d17b" stroke="#a0d17b" points="502.96,-1302.57 512.77,-1298.55 502.6,-1295.58 502.96,-1302.57"/>
</g>
<!-- pytz -->
<g id="node26" class="node">
<title>pytz</title>
<polygon fill="#343434" stroke="#343434" points="417.5,-724.45 363.5,-724.45 363.5,-688.45 417.5,-688.45 417.5,-724.45"/>
<text text-anchor="middle" x="390.5" y="-702.75" font-family="Courier,monospace" font-size="14.00" fill="#de958e">pytz</text>
</g>
<!-- pytz&#45;&gt;flatiron\.core\.tools -->
<g id="edge46" class="edge">
<title>pytz&#45;&gt;flatiron\.core\.tools</title>
<path fill="none" stroke="#de958e" d="M417.65,-706.68C443.64,-706.9 485.07,-707.27 523.66,-707.61"/>
<polygon fill="#de958e" stroke="#de958e" points="523.89,-711.11 533.92,-707.7 523.95,-704.11 523.89,-711.11"/>
</g>
<!-- tensorflow -->
<g id="node27" class="node">
<title>tensorflow</title>
<polygon fill="#343434" stroke="#343434" points="243,-269.45 144,-269.45 144,-233.45 243,-233.45 243,-269.45"/>
<text text-anchor="middle" x="193.5" y="-247.75" font-family="Courier,monospace" font-size="14.00" fill="#de958e">tensorflow</text>
</g>
<!-- tensorflow&#45;&gt;flatiron\.core\.types -->
<g id="edge47" class="edge">
<title>tensorflow&#45;&gt;flatiron\.core\.types</title>
<path fill="none" stroke="#de958e" d="M198.54,-269.51C209.45,-315.51 242.94,-439.41 304,-524.45 317.5,-543.25 336.84,-560.3 353.72,-573.18"/>
<polygon fill="#de958e" stroke="#de958e" points="351.65,-576.01 361.76,-579.16 355.82,-570.39 351.65,-576.01"/>
</g>
<!-- tensorflow&#45;&gt;flatiron\.tf\.loss -->
<g id="edge48" class="edge">
<title>tensorflow&#45;&gt;flatiron\.tf\.loss</title>
<path fill="none" stroke="#de958e" d="M243.15,-257.33C337.05,-268.85 549.77,-295.67 728,-323.45 742.95,-325.78 758.84,-328.44 774.19,-331.1"/>
<polygon fill="#de958e" stroke="#de958e" points="773.73,-334.57 784.18,-332.85 774.93,-327.68 773.73,-334.57"/>
</g>
<!-- tensorflow&#45;&gt;flatiron\.tf\.metric -->
<g id="edge49" class="edge">
<title>tensorflow&#45;&gt;flatiron\.tf\.metric</title>
<path fill="none" stroke="#de958e" d="M243.1,-249.83C336.92,-247.08 549.51,-242.7 728,-252.45 740.34,-253.12 753.31,-254.14 766.09,-255.33"/>
<polygon fill="#de958e" stroke="#de958e" points="765.99,-258.84 776.28,-256.32 766.66,-251.87 765.99,-258.84"/>
</g>
<!-- tensorflow&#45;&gt;flatiron\.tf\.models\.unet -->
<g id="edge50" class="edge">
<title>tensorflow&#45;&gt;flatiron\.tf\.models\.unet</title>
<path fill="none" stroke="#de958e" d="M218.91,-233.38C281.79,-188.67 455.92,-76.45 619.5,-76.45 619.5,-76.45 619.5,-76.45 860,-76.45 1289.21,-76.45 1323.36,-857.63 1325.84,-1017.91"/>
<polygon fill="#de958e" stroke="#de958e" points="1322.35,-1018.41 1325.97,-1028.36 1329.35,-1018.32 1322.35,-1018.41"/>
</g>
<!-- tensorflow&#45;&gt;flatiron\.tf\.optimizer -->
<g id="edge51" class="edge">
<title>tensorflow&#45;&gt;flatiron\.tf\.optimizer</title>
<path fill="none" stroke="#de958e" d="M243.01,-247.37C262.02,-245.8 284.03,-244.01 304,-242.45 460.64,-230.21 642.28,-216.95 753.66,-208.92"/>
<polygon fill="#de958e" stroke="#de958e" points="754.16,-212.39 763.88,-208.18 753.65,-205.41 754.16,-212.39"/>
</g>
<!-- tensorflow&#45;&gt;flatiron\.tf\.tools -->
<g id="edge52" class="edge">
<title>tensorflow&#45;&gt;flatiron\.tf\.tools</title>
<path fill="none" stroke="#de958e" d="M198.95,-269.65C209.65,-309.21 240.7,-403.1 304,-448.45 376.97,-500.72 633.47,-517.65 770.37,-523.02"/>
<polygon fill="#de958e" stroke="#de958e" points="770.29,-526.52 780.41,-523.41 770.55,-519.53 770.29,-526.52"/>
</g>
<!-- lunchbox\.enforce -->
<g id="node28" class="node">
<title>lunchbox\.enforce</title>
<polygon fill="#343434" stroke="#343434" points="465,-1002.45 316,-1002.45 316,-966.45 465,-966.45 465,-1002.45"/>
<text text-anchor="middle" x="390.5" y="-980.75" font-family="Courier,monospace" font-size="14.00" fill="#de958e">lunchbox.enforce</text>
</g>
<!-- lunchbox\.enforce&#45;&gt;flatiron\.core\.dataset -->
<g id="edge53" class="edge">
<title>lunchbox\.enforce&#45;&gt;flatiron\.core\.dataset</title>
<path fill="none" stroke="#de958e" d="M465.17,-994.37C533.89,-1001.55 638.9,-1007.22 728,-989.45 758.6,-983.34 791.02,-969.89 815.83,-957.95"/>
<polygon fill="#de958e" stroke="#de958e" points="817.52,-961.02 824.94,-953.46 814.42,-954.74 817.52,-961.02"/>
</g>
<!-- lunchbox\.enforce&#45;&gt;flatiron\.core\.tools -->
<g id="edge54" class="edge">
<title>lunchbox\.enforce&#45;&gt;flatiron\.core\.tools</title>
<path fill="none" stroke="#de958e" d="M401.28,-966.29C427.38,-918.02 497.69,-789.15 513,-773.45 529.59,-756.43 551.51,-742.06 571.16,-731.2"/>
<polygon fill="#de958e" stroke="#de958e" points="572.84,-734.27 580,-726.46 569.53,-728.1 572.84,-734.27"/>
</g>
<!-- lunchbox\.enforce&#45;&gt;flatiron\.tf\.models\.unet -->
<g id="edge55" class="edge">
<title>lunchbox\.enforce&#45;&gt;flatiron\.tf\.models\.unet</title>
<path fill="none" stroke="#de958e" d="M465.08,-1001.52C480.82,-1004.63 497.4,-1007.5 513,-1009.45 761.83,-1040.51 1056.4,-1046.29 1213.69,-1046.91"/>
<polygon fill="#de958e" stroke="#de958e" points="1213.84,-1050.41 1223.85,-1046.94 1213.86,-1043.41 1213.84,-1050.41"/>
</g>
<!-- yaml -->
<g id="node29" class="node">
<title>yaml</title>
<polygon fill="#343434" stroke="#343434" points="417.5,-816.45 363.5,-816.45 363.5,-780.45 417.5,-780.45 417.5,-816.45"/>
<text text-anchor="middle" x="390.5" y="-794.75" font-family="Courier,monospace" font-size="14.00" fill="#de958e">yaml</text>
</g>
<!-- yaml&#45;&gt;flatiron\.core\.pipeline -->
<g id="edge56" class="edge">
<title>yaml&#45;&gt;flatiron\.core\.pipeline</title>
<path fill="none" stroke="#de958e" d="M417.84,-790.55C475.33,-774.58 615.91,-742.52 728,-773.45 840.79,-804.57 869.24,-827.79 954,-908.45 1009.41,-961.18 1053.88,-1040.79 1074.87,-1082.22"/>
<polygon fill="#de958e" stroke="#de958e" points="1071.87,-1084.03 1079.47,-1091.42 1078.13,-1080.9 1071.87,-1084.03"/>
</g>
<!-- yaml&#45;&gt;flatiron\.core\.tools -->
<g id="edge57" class="edge">
<title>yaml&#45;&gt;flatiron\.core\.tools</title>
<path fill="none" stroke="#de958e" d="M417.72,-790.65C435.06,-785.02 458,-776.63 477,-766.45 494.4,-757.13 495.3,-749.19 513,-740.45 520.86,-736.57 529.28,-733.05 537.82,-729.9"/>
<polygon fill="#de958e" stroke="#de958e" points="539.22,-733.12 547.49,-726.5 536.89,-726.52 539.22,-733.12"/>
</g>
<!-- numpy -->
<g id="node30" class="node">
<title>numpy</title>
<polygon fill="#343434" stroke="#343434" points="222.5,-592.45 164.5,-592.45 164.5,-556.45 222.5,-556.45 222.5,-592.45"/>
<text text-anchor="middle" x="193.5" y="-570.75" font-family="Courier,monospace" font-size="14.00" fill="#de958e">numpy</text>
</g>
<!-- numpy&#45;&gt;flatiron\.core\.dataset -->
<g id="edge58" class="edge">
<title>numpy&#45;&gt;flatiron\.core\.dataset</title>
<path fill="none" stroke="#de958e" d="M195.63,-592.68C201.08,-674.23 227.68,-1004.27 304,-1065.45 378.16,-1124.89 639.34,-1043.68 728,-1009.45 762.02,-996.31 797.84,-975.31 823.25,-959.04"/>
<polygon fill="#de958e" stroke="#de958e" points="825.3,-961.88 831.78,-953.5 821.48,-956.01 825.3,-961.88"/>
</g>
<!-- numpy&#45;&gt;flatiron\.core\.pipeline -->
<g id="edge59" class="edge">
<title>numpy&#45;&gt;flatiron\.core\.pipeline</title>
<path fill="none" stroke="#de958e" d="M195.7,-592.72C201.57,-676.06 229.98,-1019.11 304,-1090.45 513.58,-1292.43 686.62,-1285.46 954,-1170.45 975.37,-1161.25 969.83,-1144.04 990,-1132.45 990.09,-1132.39 990.19,-1132.34 990.28,-1132.28"/>
<polygon fill="#de958e" stroke="#de958e" points="992.12,-1135.28 999.43,-1127.61 988.93,-1129.05 992.12,-1135.28"/>
</g>
<!-- numpy&#45;&gt;flatiron\.core\.types -->
<g id="edge60" class="edge">
<title>numpy&#45;&gt;flatiron\.core\.types</title>
<path fill="none" stroke="#de958e" d="M222.85,-577.79C241.69,-580.01 267.62,-583.07 293.42,-586.11"/>
<polygon fill="#de958e" stroke="#de958e" points="293.33,-589.63 303.67,-587.32 294.15,-582.68 293.33,-589.63"/>
</g>
<!-- numpy&#45;&gt;flatiron\.tf\.loss -->
<g id="edge61" class="edge">
<title>numpy&#45;&gt;flatiron\.tf\.loss</title>
<path fill="none" stroke="#de958e" d="M222.74,-563.81C305.41,-532.8 554.28,-440.51 764,-373.45 770.36,-371.41 776.98,-369.37 783.63,-367.36"/>
<polygon fill="#de958e" stroke="#de958e" points="784.79,-370.67 793.38,-364.46 782.79,-363.96 784.79,-370.67"/>
</g>
<!-- numpy&#45;&gt;flatiron\.tf\.metric -->
<g id="edge62" class="edge">
<title>numpy&#45;&gt;flatiron\.tf\.metric</title>
<path fill="none" stroke="#de958e" d="M210.2,-556.4C253.06,-508.52 377.94,-378.2 513,-323.45 594.78,-290.3 694.91,-276.42 766.19,-270.61"/>
<polygon fill="#de958e" stroke="#de958e" points="766.79,-274.07 776.49,-269.81 766.25,-267.09 766.79,-274.07"/>
</g>
<!-- numpy&#45;&gt;flatiron\.tf\.tools -->
<g id="edge63" class="edge">
<title>numpy&#45;&gt;flatiron\.tf\.tools</title>
<path fill="none" stroke="#de958e" d="M222.59,-572.37C315.96,-565.48 618.61,-543.13 770.03,-531.94"/>
<polygon fill="#de958e" stroke="#de958e" points="770.51,-535.42 780.23,-531.19 770,-528.44 770.51,-535.42"/>
</g>
<!-- keras -->
<g id="node31" class="node">
<title>keras</title>
<polygon fill="#343434" stroke="#343434" points="222.5,-151.45 164.5,-151.45 164.5,-115.45 222.5,-115.45 222.5,-151.45"/>
<text text-anchor="middle" x="193.5" y="-129.75" font-family="Courier,monospace" font-size="14.00" fill="#de958e">keras</text>
</g>
<!-- keras&#45;&gt;flatiron\.core\.types -->
<g id="edge64" class="edge">
<title>keras&#45;&gt;flatiron\.core\.types</title>
<path fill="none" stroke="#de958e" d="M214.14,-151.67C231.25,-168.75 255.27,-195.88 268,-224.45 309.06,-316.54 270.36,-353.39 304,-448.45 320.23,-494.31 350.49,-542.22 370.31,-570.95"/>
<polygon fill="#de958e" stroke="#de958e" points="367.5,-573.04 376.1,-579.23 373.24,-569.03 367.5,-573.04"/>
</g>
<!-- keras&#45;&gt;flatiron\.tf\.loss -->
<g id="edge65" class="edge">
<title>keras&#45;&gt;flatiron\.tf\.loss</title>
<path fill="none" stroke="#de958e" d="M222.68,-140.32C302.82,-160.16 538.46,-220.51 728,-289.45 756.01,-299.63 786.57,-312.92 811.02,-324.1"/>
<polygon fill="#de958e" stroke="#de958e" points="809.86,-327.42 820.41,-328.43 812.79,-321.06 809.86,-327.42"/>
</g>
<!-- keras&#45;&gt;flatiron\.tf\.metric -->
<g id="edge66" class="edge">
<title>keras&#45;&gt;flatiron\.tf\.metric</title>
<path fill="none" stroke="#de958e" d="M222.77,-129.72C320.89,-117.4 645.24,-81.85 728,-138.45 763.56,-162.77 733.59,-197.93 764,-228.45 769.89,-234.36 776.83,-239.39 784.22,-243.66"/>
<polygon fill="#de958e" stroke="#de958e" points="782.59,-246.75 793.07,-248.32 785.86,-240.56 782.59,-246.75"/>
</g>
<!-- keras&#45;&gt;flatiron\.tf\.models\.unet -->
<g id="edge67" class="edge">
<title>keras&#45;&gt;flatiron\.tf\.models\.unet</title>
<path fill="none" stroke="#de958e" d="M220.31,-115.21C241.79,-100.84 273.64,-81.3 304,-69.45 437.71,-17.26 475.96,-0.45 619.5,-0.45 619.5,-0.45 619.5,-0.45 860,-0.45 1013.9,-0.45 1089.39,6.71 1188,-111.45 1307.13,-254.18 1323.49,-876.88 1325.67,-1017.96"/>
<polygon fill="#de958e" stroke="#de958e" points="1322.18,-1018.39 1325.82,-1028.34 1329.18,-1018.29 1322.18,-1018.39"/>
</g>
<!-- keras&#45;&gt;flatiron\.tf\.optimizer -->
<g id="edge68" class="edge">
<title>keras&#45;&gt;flatiron\.tf\.optimizer</title>
<path fill="none" stroke="#de958e" d="M222.8,-122.42C244.6,-114.54 275.71,-104.62 304,-100.45 490.43,-72.97 549.74,-39.34 728,-100.45 771.37,-115.31 811.43,-151.2 835.3,-175.93"/>
<polygon fill="#de958e" stroke="#de958e" points="832.76,-178.35 842.17,-183.22 837.85,-173.54 832.76,-178.35"/>
</g>
<!-- keras&#45;&gt;flatiron\.tf\.tools -->
<g id="edge69" class="edge">
<title>keras&#45;&gt;flatiron\.tf\.tools</title>
<path fill="none" stroke="#de958e" d="M214.47,-151.63C262.83,-195 391.26,-306.2 513,-377.45 606.61,-432.23 724.31,-478.33 795.22,-503.89"/>
<polygon fill="#de958e" stroke="#de958e" points="794.32,-507.28 804.91,-507.36 796.68,-500.69 794.32,-507.28"/>
</g>
<!-- lunchbox\.stopwatch -->
<g id="node32" class="node">
<title>lunchbox\.stopwatch</title>
<polygon fill="#343434" stroke="#343434" points="473,-670.45 308,-670.45 308,-634.45 473,-634.45 473,-670.45"/>
<text text-anchor="middle" x="390.5" y="-648.75" font-family="Courier,monospace" font-size="14.00" fill="#de958e">lunchbox.stopwatch</text>
</g>
<!-- lunchbox\.stopwatch&#45;&gt;flatiron\.core\.tools -->
<g id="edge70" class="edge">
<title>lunchbox\.stopwatch&#45;&gt;flatiron\.core\.tools</title>
<path fill="none" stroke="#de958e" d="M464.9,-670.47C487.56,-676.04 512.69,-682.21 535.99,-687.94"/>
<polygon fill="#de958e" stroke="#de958e" points="535.31,-691.37 545.85,-690.36 536.97,-684.57 535.31,-691.37"/>
</g>
<!-- lunchbox\.tools -->
<g id="node33" class="node">
<title>lunchbox\.tools</title>
<polygon fill="#343434" stroke="#343434" points="456.5,-1056.45 324.5,-1056.45 324.5,-1020.45 456.5,-1020.45 456.5,-1056.45"/>
<text text-anchor="middle" x="390.5" y="-1034.75" font-family="Courier,monospace" font-size="14.00" fill="#de958e">lunchbox.tools</text>
</g>
<!-- lunchbox\.tools&#45;&gt;flatiron\.core\.logging -->
<g id="edge71" class="edge">
<title>lunchbox\.tools&#45;&gt;flatiron\.core\.logging</title>
<path fill="none" stroke="#de958e" d="M456.86,-1053.16C538.03,-1071.43 676.91,-1102.69 768.08,-1123.21"/>
<polygon fill="#de958e" stroke="#de958e" points="767.32,-1126.62 777.85,-1125.41 768.86,-1119.8 767.32,-1126.62"/>
</g>
<!-- lunchbox\.tools&#45;&gt;flatiron\.core\.tools -->
<g id="edge72" class="edge">
<title>lunchbox\.tools&#45;&gt;flatiron\.core\.tools</title>
<path fill="none" stroke="#de958e" d="M456.57,-1026.68C464.32,-1022.91 471.44,-1017.95 477,-1011.45 546.53,-930.14 453.79,-862.55 513,-773.45 525.05,-755.31 544.07,-741.39 562.71,-731.18"/>
<polygon fill="#de958e" stroke="#de958e" points="564.54,-734.17 571.81,-726.46 561.32,-727.96 564.54,-734.17"/>
</g>
</g>
</svg>
