<?xml version="1.0" encoding="UTF-8" standalone="no"?>
<!DOCTYPE svg PUBLIC "-//W3C//DTD SVG 1.1//EN"
 "http://www.w3.org/Graphics/SVG/1.1/DTD/svg11.dtd">
<!-- Generated by graphviz version 2.43.0 (0)
 -->
<!-- Title: %3 Pages: 1 -->
<svg width="1246pt" height="1295pt"
 viewBox="0.00 0.00 1246.00 1295.39" xmlns="http://www.w3.org/2000/svg" xmlns:xlink="http://www.w3.org/1999/xlink">
<g id="graph0" class="graph" transform="scale(1 1) rotate(0) translate(4 1291.39)">
<title>%3</title>
<polygon fill="#242424" stroke="transparent" points="-4,4 -4,-1291.39 1242,-1291.39 1242,4 -4,4"/>
<!-- cli -->
<g id="node1" class="node">
<title>cli</title>
<polygon fill="#343434" stroke="#343434" points="68.5,-1179.39 14.5,-1179.39 14.5,-1143.39 68.5,-1143.39 68.5,-1179.39"/>
<text text-anchor="middle" x="41.5" y="-1157.69" font-family="Courier,monospace" font-size="14.00" fill="#b6ecf3">cli</text>
</g>
<!-- flatiron\.command -->
<g id="node2" class="node">
<title>flatiron\.command</title>
<polygon fill="#343434" stroke="#343434" points="288.5,-1285.39 139.5,-1285.39 139.5,-1249.39 288.5,-1249.39 288.5,-1285.39"/>
<text text-anchor="middle" x="214" y="-1263.69" font-family="Courier,monospace" font-size="14.00" fill="#b6ecf3">flatiron.command</text>
</g>
<!-- flatiron\.core\.config -->
<g id="node3" class="node">
<title>flatiron\.core\.config</title>
<polygon fill="#343434" stroke="#343434" points="782,-207.39 600,-207.39 600,-171.39 782,-171.39 782,-207.39"/>
<text text-anchor="middle" x="691" y="-185.69" font-family="Courier,monospace" font-size="14.00" fill="#b6ecf3">flatiron.core.config</text>
</g>
<!-- flatiron\.core\.pipeline -->
<g id="node8" class="node">
<title>flatiron\.core\.pipeline</title>
<polygon fill="#343434" stroke="#343434" points="1020,-775.39 822,-775.39 822,-739.39 1020,-739.39 1020,-775.39"/>
<text text-anchor="middle" x="921" y="-753.69" font-family="Courier,monospace" font-size="14.00" fill="#b6ecf3">flatiron.core.pipeline</text>
</g>
<!-- flatiron\.core\.config&#45;&gt;flatiron\.core\.pipeline -->
<g id="edge1" class="edge">
<title>flatiron\.core\.config&#45;&gt;flatiron\.core\.pipeline</title>
<path fill="none" stroke="#b6ecf3" d="M699.33,-207.65C732.53,-290.35 868.93,-630.17 908.93,-729.81"/>
<polygon fill="#b6ecf3" stroke="#b6ecf3" points="905.73,-731.23 912.7,-739.21 912.22,-728.62 905.73,-731.23"/>
</g>
<!-- flatiron\.core\.dataset -->
<g id="node4" class="node">
<title>flatiron\.core\.dataset</title>
<polygon fill="#343434" stroke="#343434" points="786,-507.39 596,-507.39 596,-471.39 786,-471.39 786,-507.39"/>
<text text-anchor="middle" x="691" y="-485.69" font-family="Courier,monospace" font-size="14.00" fill="#b6ecf3">flatiron.core.dataset</text>
</g>
<!-- flatiron\.core\.dataset&#45;&gt;flatiron\.core\.pipeline -->
<g id="edge2" class="edge">
<title>flatiron\.core\.dataset&#45;&gt;flatiron\.core\.pipeline</title>
<path fill="none" stroke="#b6ecf3" d="M721.57,-507.65C741.17,-520.61 766.74,-539.24 786,-559.39 837.91,-613.7 883.4,-690.19 905.6,-730.35"/>
<polygon fill="#b6ecf3" stroke="#b6ecf3" points="902.61,-732.18 910.48,-739.27 908.75,-728.82 902.61,-732.18"/>
</g>
<!-- flatiron\.core\.logging -->
<g id="node5" class="node">
<title>flatiron\.core\.logging</title>
<polygon fill="#343434" stroke="#343434" points="786,-637.39 596,-637.39 596,-601.39 786,-601.39 786,-637.39"/>
<text text-anchor="middle" x="691" y="-615.69" font-family="Courier,monospace" font-size="14.00" fill="#b6ecf3">flatiron.core.logging</text>
</g>
<!-- flatiron\.core\.logging&#45;&gt;flatiron\.core\.pipeline -->
<g id="edge3" class="edge">
<title>flatiron\.core\.logging&#45;&gt;flatiron\.core\.pipeline</title>
<path fill="none" stroke="#b6ecf3" d="M721.81,-637.44C762.77,-662.23 836.51,-706.86 881.57,-734.14"/>
<polygon fill="#b6ecf3" stroke="#b6ecf3" points="879.82,-737.17 890.19,-739.35 883.44,-731.18 879.82,-737.17"/>
</g>
<!-- flatiron\.core\.loss -->
<g id="node6" class="node">
<title>flatiron\.core\.loss</title>
<polygon fill="#343434" stroke="#343434" points="773.5,-958.39 608.5,-958.39 608.5,-922.39 773.5,-922.39 773.5,-958.39"/>
<text text-anchor="middle" x="691" y="-936.69" font-family="Courier,monospace" font-size="14.00" fill="#b6ecf3">flatiron.core.loss</text>
</g>
<!-- flatiron\.core\.loss&#45;&gt;flatiron\.core\.pipeline -->
<g id="edge4" class="edge">
<title>flatiron\.core\.loss&#45;&gt;flatiron\.core\.pipeline</title>
<path fill="none" stroke="#b6ecf3" d="M753.77,-922.24C764.97,-917.62 776.2,-912.04 786,-905.39 835.3,-871.97 878.8,-816.73 902.06,-784.03"/>
<polygon fill="#b6ecf3" stroke="#b6ecf3" points="905.21,-785.63 908.08,-775.44 899.47,-781.62 905.21,-785.63"/>
</g>
<!-- flatiron\.core\.metric -->
<g id="node7" class="node">
<title>flatiron\.core\.metric</title>
<polygon fill="#343434" stroke="#343434" points="782,-859.39 600,-859.39 600,-823.39 782,-823.39 782,-859.39"/>
<text text-anchor="middle" x="691" y="-837.69" font-family="Courier,monospace" font-size="14.00" fill="#b6ecf3">flatiron.core.metric</text>
</g>
<!-- flatiron\.core\.metric&#45;&gt;flatiron\.core\.pipeline -->
<g id="edge5" class="edge">
<title>flatiron\.core\.metric&#45;&gt;flatiron\.core\.pipeline</title>
<path fill="none" stroke="#b6ecf3" d="M746.32,-823.34C759.35,-818.88 773.2,-814.05 786,-809.39 812.29,-799.82 841.25,-788.66 865.51,-779.14"/>
<polygon fill="#b6ecf3" stroke="#b6ecf3" points="866.88,-782.36 874.9,-775.44 864.31,-775.85 866.88,-782.36"/>
</g>
<!-- flatiron\.models\.unet -->
<g id="node11" class="node">
<title>flatiron\.models\.unet</title>
<polygon fill="#343434" stroke="#343434" points="1238,-683.39 1056,-683.39 1056,-647.39 1238,-647.39 1238,-683.39"/>
<text text-anchor="middle" x="1147" y="-661.69" font-family="Courier,monospace" font-size="14.00" fill="#b6ecf3">flatiron.models.unet</text>
</g>
<!-- flatiron\.core\.pipeline&#45;&gt;flatiron\.models\.unet -->
<g id="edge6" class="edge">
<title>flatiron\.core\.pipeline&#45;&gt;flatiron\.models\.unet</title>
<path fill="none" stroke="#b6ecf3" d="M965.99,-739.33C1002.28,-724.42 1053.91,-703.22 1092.58,-687.34"/>
<polygon fill="#b6ecf3" stroke="#b6ecf3" points="1094.19,-690.46 1102.11,-683.42 1091.53,-683.98 1094.19,-690.46"/>
</g>
<!-- flatiron\.core\.tools -->
<g id="node9" class="node">
<title>flatiron\.core\.tools</title>
<polygon fill="#343434" stroke="#343434" points="539,-751.39 366,-751.39 366,-715.39 539,-715.39 539,-751.39"/>
<text text-anchor="middle" x="452.5" y="-729.69" font-family="Courier,monospace" font-size="14.00" fill="#b6ecf3">flatiron.core.tools</text>
</g>
<!-- flatiron\.core\.tools&#45;&gt;flatiron\.core\.dataset -->
<g id="edge7" class="edge">
<title>flatiron\.core\.tools&#45;&gt;flatiron\.core\.dataset</title>
<path fill="none" stroke="#b6ecf3" d="M471.28,-715.06C512.98,-672.03 617.2,-564.51 665.15,-515.04"/>
<polygon fill="#b6ecf3" stroke="#b6ecf3" points="667.89,-517.23 672.34,-507.61 662.87,-512.36 667.89,-517.23"/>
</g>
<!-- flatiron\.core\.tools&#45;&gt;flatiron\.core\.logging -->
<g id="edge8" class="edge">
<title>flatiron\.core\.tools&#45;&gt;flatiron\.core\.logging</title>
<path fill="none" stroke="#b6ecf3" d="M534.4,-715.35C543.46,-711.54 552.22,-706.94 560,-701.39 582.3,-685.5 573.99,-667.69 596,-651.39 600.7,-647.91 605.81,-644.79 611.14,-641.99"/>
<polygon fill="#b6ecf3" stroke="#b6ecf3" points="612.78,-645.09 620.27,-637.59 609.74,-638.78 612.78,-645.09"/>
</g>
<!-- flatiron\.core\.tools&#45;&gt;flatiron\.core\.loss -->
<g id="edge9" class="edge">
<title>flatiron\.core\.tools&#45;&gt;flatiron\.core\.loss</title>
<path fill="none" stroke="#b6ecf3" d="M471.38,-751.5C497.83,-778.02 549.32,-828.6 596,-868.39 615.53,-885.05 638.38,-902.59 656.65,-916.19"/>
<polygon fill="#b6ecf3" stroke="#b6ecf3" points="654.58,-919.01 664.7,-922.14 658.74,-913.38 654.58,-919.01"/>
</g>
<!-- flatiron\.core\.tools&#45;&gt;flatiron\.core\.metric -->
<g id="edge10" class="edge">
<title>flatiron\.core\.tools&#45;&gt;flatiron\.core\.metric</title>
<path fill="none" stroke="#b6ecf3" d="M493.08,-751.47C533.76,-770.05 597.15,-799 640.97,-819.01"/>
<polygon fill="#b6ecf3" stroke="#b6ecf3" points="639.74,-822.29 650.29,-823.26 642.64,-815.92 639.74,-822.29"/>
</g>
<!-- flatiron\.core\.tools&#45;&gt;flatiron\.core\.pipeline -->
<g id="edge11" class="edge">
<title>flatiron\.core\.tools&#45;&gt;flatiron\.core\.pipeline</title>
<path fill="none" stroke="#b6ecf3" d="M539.06,-737.8C615.7,-741.74 728.47,-747.54 811.43,-751.81"/>
<polygon fill="#b6ecf3" stroke="#b6ecf3" points="811.48,-755.32 821.65,-752.34 811.84,-748.33 811.48,-755.32"/>
</g>
<!-- flatiron\.core\.tools&#45;&gt;flatiron\.models\.unet -->
<g id="edge12" class="edge">
<title>flatiron\.core\.tools&#45;&gt;flatiron\.models\.unet</title>
<path fill="none" stroke="#b6ecf3" d="M495.33,-715.33C523.26,-704.19 561.14,-690.84 596,-684.39 750.88,-655.75 934.36,-656.12 1045.38,-660.01"/>
<polygon fill="#b6ecf3" stroke="#b6ecf3" points="1045.45,-663.52 1055.57,-660.39 1045.7,-656.52 1045.45,-663.52"/>
</g>
<!-- flatiron\.core\.validators -->
<g id="node10" class="node">
<title>flatiron\.core\.validators</title>
<polygon fill="#343434" stroke="#343434" points="560,-107.39 345,-107.39 345,-71.39 560,-71.39 560,-107.39"/>
<text text-anchor="middle" x="452.5" y="-85.69" font-family="Courier,monospace" font-size="14.00" fill="#b6ecf3">flatiron.core.validators</text>
</g>
<!-- flatiron\.core\.validators&#45;&gt;flatiron\.core\.config -->
<g id="edge13" class="edge">
<title>flatiron\.core\.validators&#45;&gt;flatiron\.core\.config</title>
<path fill="none" stroke="#b6ecf3" d="M534.19,-107.44C543,-110.12 551.76,-113.11 560,-116.39 593.33,-129.71 628.69,-150.01 654.1,-165.83"/>
<polygon fill="#b6ecf3" stroke="#b6ecf3" points="652.33,-168.85 662.66,-171.22 656.06,-162.93 652.33,-168.85"/>
</g>
<!-- flatiron\.core\.validators&#45;&gt;flatiron\.models\.unet -->
<g id="edge14" class="edge">
<title>flatiron\.core\.validators&#45;&gt;flatiron\.models\.unet</title>
<path fill="none" stroke="#b6ecf3" d="M560.21,-73.57C687.81,-61.21 899.26,-62.64 1020,-182.39 1086.14,-247.99 1130.05,-544.05 1142.43,-637.23"/>
<polygon fill="#b6ecf3" stroke="#b6ecf3" points="1138.98,-637.85 1143.75,-647.32 1145.92,-636.95 1138.98,-637.85"/>
</g>
<!-- click -->
<g id="node12" class="node">
<title>click</title>
<polygon fill="#343434" stroke="#343434" points="70.5,-1287.39 12.5,-1287.39 12.5,-1251.39 70.5,-1251.39 70.5,-1287.39"/>
<text text-anchor="middle" x="41.5" y="-1265.69" font-family="Courier,monospace" font-size="14.00" fill="#de958e">click</text>
</g>
<!-- click&#45;&gt;flatiron\.command -->
<g id="edge15" class="edge">
<title>click&#45;&gt;flatiron\.command</title>
<path fill="none" stroke="#de958e" d="M70.65,-1269.06C86.82,-1268.88 108.06,-1268.63 129.18,-1268.38"/>
<polygon fill="#de958e" stroke="#de958e" points="129.23,-1271.88 139.18,-1268.26 129.14,-1264.88 129.23,-1271.88"/>
</g>
<!-- flatiron -->
<g id="node13" class="node">
<title>flatiron</title>
<polygon fill="#343434" stroke="#343434" points="83,-1233.39 0,-1233.39 0,-1197.39 83,-1197.39 83,-1233.39"/>
<text text-anchor="middle" x="41.5" y="-1211.69" font-family="Courier,monospace" font-size="14.00" fill="#a0d17b">flatiron</text>
</g>
<!-- flatiron&#45;&gt;flatiron\.command -->
<g id="edge16" class="edge">
<title>flatiron&#45;&gt;flatiron\.command</title>
<path fill="none" stroke="#a0d17b" d="M83.34,-1227.85C101.54,-1233.4 123.49,-1240.09 144.11,-1246.38"/>
<polygon fill="#a0d17b" stroke="#a0d17b" points="143.2,-1249.77 153.78,-1249.34 145.24,-1243.07 143.2,-1249.77"/>
</g>
<!-- flatiron\.core -->
<g id="node14" class="node">
<title>flatiron\.core</title>
<polygon fill="#343434" stroke="#343434" points="276,-629.39 152,-629.39 152,-593.39 276,-593.39 276,-629.39"/>
<text text-anchor="middle" x="214" y="-607.69" font-family="Courier,monospace" font-size="14.00" fill="#a0d17b">flatiron.core</text>
</g>
<!-- flatiron&#45;&gt;flatiron\.core -->
<g id="edge17" class="edge">
<title>flatiron&#45;&gt;flatiron\.core</title>
<path fill="none" stroke="#a0d17b" d="M75.99,-1197.14C78.72,-1194.52 81.14,-1191.61 83,-1188.39 143.56,-1083.72 46.3,-742.03 119,-645.39 125.1,-637.28 133.33,-631.1 142.38,-626.39"/>
<polygon fill="#a0d17b" stroke="#a0d17b" points="144.02,-629.49 151.66,-622.16 141.11,-623.13 144.02,-629.49"/>
</g>
<!-- flatiron\.models -->
<g id="node15" class="node">
<title>flatiron\.models</title>
<polygon fill="#343434" stroke="#343434" points="991,-1239.39 851,-1239.39 851,-1203.39 991,-1203.39 991,-1239.39"/>
<text text-anchor="middle" x="921" y="-1217.69" font-family="Courier,monospace" font-size="14.00" fill="#a0d17b">flatiron.models</text>
</g>
<!-- flatiron&#45;&gt;flatiron\.models -->
<g id="edge18" class="edge">
<title>flatiron&#45;&gt;flatiron\.models</title>
<path fill="none" stroke="#a0d17b" d="M83.06,-1215.67C218.94,-1216.6 659.7,-1219.62 841,-1220.85"/>
<polygon fill="#a0d17b" stroke="#a0d17b" points="840.97,-1224.35 851,-1220.92 841.02,-1217.35 840.97,-1224.35"/>
</g>
<!-- flatiron\.core&#45;&gt;flatiron\.core\.config -->
<g id="edge19" class="edge">
<title>flatiron\.core&#45;&gt;flatiron\.core\.config</title>
<path fill="none" stroke="#a0d17b" d="M271.08,-593.35C285.65,-586 299.81,-575.95 309,-562.39 353.37,-496.95 287.81,-263 345,-208.39 378.94,-175.99 500.28,-176.1 589.5,-181.08"/>
<polygon fill="#a0d17b" stroke="#a0d17b" points="589.47,-184.59 599.66,-181.68 589.88,-177.6 589.47,-184.59"/>
</g>
<!-- flatiron\.core&#45;&gt;flatiron\.core\.dataset -->
<g id="edge20" class="edge">
<title>flatiron\.core&#45;&gt;flatiron\.core\.dataset</title>
<path fill="none" stroke="#a0d17b" d="M270.29,-593.39C285.02,-586.02 299.47,-575.94 309,-562.39 376.66,-466.28 256.41,-377.64 345,-300.39 381.01,-268.99 517.78,-278.03 560,-300.39 585.16,-313.72 579.9,-329.9 596,-353.39 622.2,-391.64 652.76,-435.76 671.75,-463.12"/>
<polygon fill="#a0d17b" stroke="#a0d17b" points="668.91,-465.17 677.49,-471.39 674.66,-461.18 668.91,-465.17"/>
</g>
<!-- flatiron\.core&#45;&gt;flatiron\.core\.logging -->
<g id="edge21" class="edge">
<title>flatiron\.core&#45;&gt;flatiron\.core\.logging</title>
<path fill="none" stroke="#a0d17b" d="M276.13,-612.42C354.33,-613.74 491,-616.04 585.78,-617.64"/>
<polygon fill="#a0d17b" stroke="#a0d17b" points="585.91,-621.14 595.97,-617.81 586.03,-614.14 585.91,-621.14"/>
</g>
<!-- flatiron\.core&#45;&gt;flatiron\.core\.loss -->
<g id="edge22" class="edge">
<title>flatiron\.core&#45;&gt;flatiron\.core\.loss</title>
<path fill="none" stroke="#a0d17b" d="M276.35,-622.72C288.82,-627.73 300.65,-634.96 309,-645.39 388.24,-744.37 251.33,-842.95 345,-928.39 380.71,-960.97 508.36,-957.26 597.93,-950.06"/>
<polygon fill="#a0d17b" stroke="#a0d17b" points="598.43,-953.53 608.11,-949.21 597.85,-946.55 598.43,-953.53"/>
</g>
<!-- flatiron\.core&#45;&gt;flatiron\.core\.metric -->
<g id="edge23" class="edge">
<title>flatiron\.core&#45;&gt;flatiron\.core\.metric</title>
<path fill="none" stroke="#a0d17b" d="M276.19,-618.26C348.31,-628.52 469.76,-652.73 560,-706.39 572.7,-713.94 632.79,-778.71 666.65,-815.72"/>
<polygon fill="#a0d17b" stroke="#a0d17b" points="664.12,-818.14 673.45,-823.16 669.29,-813.42 664.12,-818.14"/>
</g>
<!-- flatiron\.core&#45;&gt;flatiron\.core\.pipeline -->
<g id="edge24" class="edge">
<title>flatiron\.core&#45;&gt;flatiron\.core\.pipeline</title>
<path fill="none" stroke="#a0d17b" d="M271.15,-593.32C377.61,-562.42 613.61,-510.32 786,-592.39 846.05,-620.99 887.96,-691.1 907.51,-730.1"/>
<polygon fill="#a0d17b" stroke="#a0d17b" points="904.47,-731.85 912,-739.3 910.76,-728.78 904.47,-731.85"/>
</g>
<!-- flatiron\.core&#45;&gt;flatiron\.core\.tools -->
<g id="edge25" class="edge">
<title>flatiron\.core&#45;&gt;flatiron\.core\.tools</title>
<path fill="none" stroke="#a0d17b" d="M270.96,-629.49C283.67,-634.19 296.97,-639.58 309,-645.39 347.79,-664.14 389.42,-690.67 417.6,-709.69"/>
<polygon fill="#a0d17b" stroke="#a0d17b" points="415.66,-712.6 425.9,-715.33 419.6,-706.81 415.66,-712.6"/>
</g>
<!-- flatiron\.core&#45;&gt;flatiron\.core\.validators -->
<g id="edge26" class="edge">
<title>flatiron\.core&#45;&gt;flatiron\.core\.validators</title>
<path fill="none" stroke="#a0d17b" d="M271.75,-593.22C286.15,-585.9 300.05,-575.89 309,-562.39 363.94,-479.52 280.83,-192.35 345,-116.39 345.62,-115.66 346.26,-114.95 346.91,-114.25"/>
<polygon fill="#a0d17b" stroke="#a0d17b" points="349.37,-116.74 354.46,-107.45 344.69,-111.54 349.37,-116.74"/>
</g>
<!-- flatiron\.models&#45;&gt;flatiron\.models\.unet -->
<g id="edge27" class="edge">
<title>flatiron\.models&#45;&gt;flatiron\.models\.unet</title>
<path fill="none" stroke="#a0d17b" d="M991.07,-1208.81C1001.91,-1204.21 1012.11,-1197.94 1020,-1189.39 1088.75,-1114.94 1131.37,-791.27 1142.85,-693.48"/>
<polygon fill="#a0d17b" stroke="#a0d17b" points="1146.34,-693.8 1144.01,-683.46 1139.39,-692.99 1146.34,-693.8"/>
</g>
<!-- keras -->
<g id="node16" class="node">
<title>keras</title>
<polygon fill="#343434" stroke="#343434" points="243,-1049.39 185,-1049.39 185,-1013.39 243,-1013.39 243,-1049.39"/>
<text text-anchor="middle" x="214" y="-1027.69" font-family="Courier,monospace" font-size="14.00" fill="#de958e">keras</text>
</g>
<!-- keras&#45;&gt;flatiron\.core\.loss -->
<g id="edge28" class="edge">
<title>keras&#45;&gt;flatiron\.core\.loss</title>
<path fill="none" stroke="#de958e" d="M243.01,-1028.89C302.12,-1023.25 443.77,-1007.96 560,-981.39 583.01,-976.14 607.82,-968.75 629.53,-961.7"/>
<polygon fill="#de958e" stroke="#de958e" points="630.87,-964.94 639.28,-958.49 628.68,-958.29 630.87,-964.94"/>
</g>
<!-- keras&#45;&gt;flatiron\.core\.metric -->
<g id="edge29" class="edge">
<title>keras&#45;&gt;flatiron\.core\.metric</title>
<path fill="none" stroke="#de958e" d="M243.35,-1030.39C264.2,-1028.14 291.79,-1021.77 309,-1004.39 351.19,-961.8 299.07,-912.93 345,-874.39 363.49,-858.89 494.25,-849.86 589.34,-845.28"/>
<polygon fill="#de958e" stroke="#de958e" points="589.76,-848.76 599.58,-844.79 589.43,-841.77 589.76,-848.76"/>
</g>
<!-- keras&#45;&gt;flatiron\.core\.pipeline -->
<g id="edge30" class="edge">
<title>keras&#45;&gt;flatiron\.core\.pipeline</title>
<path fill="none" stroke="#de958e" d="M243.07,-1039.72C331.79,-1064.22 610.62,-1127.27 786,-1009.39 865.62,-955.89 901.45,-839.19 914.19,-785.48"/>
<polygon fill="#de958e" stroke="#de958e" points="917.63,-786.14 916.43,-775.61 910.8,-784.59 917.63,-786.14"/>
</g>
<!-- keras&#45;&gt;flatiron\.core\.tools -->
<g id="edge31" class="edge">
<title>keras&#45;&gt;flatiron\.core\.tools</title>
<path fill="none" stroke="#de958e" d="M243.18,-1030.69C264.22,-1028.62 292.14,-1022.34 309,-1004.39 359.8,-950.33 309.57,-906.58 345,-841.39 363.19,-807.93 394.83,-777.8 418.91,-757.92"/>
<polygon fill="#de958e" stroke="#de958e" points="421.17,-760.59 426.75,-751.59 416.77,-755.15 421.17,-760.59"/>
</g>
<!-- keras&#45;&gt;flatiron\.models\.unet -->
<g id="edge32" class="edge">
<title>keras&#45;&gt;flatiron\.models\.unet</title>
<path fill="none" stroke="#de958e" d="M243.19,-1041.59C269.22,-1050.42 309.15,-1062.52 345,-1067.39 539.3,-1093.8 597.94,-1109.93 786,-1054.39 900.73,-1020.51 937.96,-1008.46 1020,-921.39 1084.83,-852.59 1123.03,-744.09 1138.27,-693.33"/>
<polygon fill="#de958e" stroke="#de958e" points="1141.64,-694.27 1141.09,-683.69 1134.92,-692.3 1141.64,-694.27"/>
</g>
<!-- lunchbox\.enforce -->
<g id="node17" class="node">
<title>lunchbox\.enforce</title>
<polygon fill="#343434" stroke="#343434" points="288.5,-553.39 139.5,-553.39 139.5,-517.39 288.5,-517.39 288.5,-553.39"/>
<text text-anchor="middle" x="214" y="-531.69" font-family="Courier,monospace" font-size="14.00" fill="#de958e">lunchbox.enforce</text>
</g>
<!-- lunchbox\.enforce&#45;&gt;flatiron\.core\.dataset -->
<g id="edge33" class="edge">
<title>lunchbox\.enforce&#45;&gt;flatiron\.core\.dataset</title>
<path fill="none" stroke="#de958e" d="M288.65,-534.53C358.7,-532.95 466.91,-528.56 560,-516.39 573.79,-514.59 588.31,-512.14 602.44,-509.44"/>
<polygon fill="#de958e" stroke="#de958e" points="603.5,-512.8 612.64,-507.44 602.16,-505.93 603.5,-512.8"/>
</g>
<!-- lunchbox\.enforce&#45;&gt;flatiron\.core\.tools -->
<g id="edge34" class="edge">
<title>lunchbox\.enforce&#45;&gt;flatiron\.core\.tools</title>
<path fill="none" stroke="#de958e" d="M256.99,-553.62C273.89,-561.87 293.11,-572.46 309,-584.39 357.87,-621.09 404.94,-675.12 430.87,-707.04"/>
<polygon fill="#de958e" stroke="#de958e" points="428.31,-709.43 437.3,-715.03 433.77,-705.05 428.31,-709.43"/>
</g>
<!-- lunchbox\.enforce&#45;&gt;flatiron\.models\.unet -->
<g id="edge35" class="edge">
<title>lunchbox\.enforce&#45;&gt;flatiron\.models\.unet</title>
<path fill="none" stroke="#de958e" d="M218.64,-517.27C235.51,-434.05 306.94,-91.4 345,-62.39 464.34,28.57 906.52,16.79 1020,-81.39 1105.89,-155.71 1137.04,-530.26 1144.25,-636.98"/>
<polygon fill="#de958e" stroke="#de958e" points="1140.78,-637.53 1144.92,-647.28 1147.76,-637.07 1140.78,-637.53"/>
</g>
<!-- lunchbox\.stopwatch -->
<g id="node18" class="node">
<title>lunchbox\.stopwatch</title>
<polygon fill="#343434" stroke="#343434" points="296.5,-798.39 131.5,-798.39 131.5,-762.39 296.5,-762.39 296.5,-798.39"/>
<text text-anchor="middle" x="214" y="-776.69" font-family="Courier,monospace" font-size="14.00" fill="#de958e">lunchbox.stopwatch</text>
</g>
<!-- lunchbox\.stopwatch&#45;&gt;flatiron\.core\.tools -->
<g id="edge36" class="edge">
<title>lunchbox\.stopwatch&#45;&gt;flatiron\.core\.tools</title>
<path fill="none" stroke="#de958e" d="M296.72,-764.15C315.8,-760.36 336.28,-756.29 355.89,-752.4"/>
<polygon fill="#de958e" stroke="#de958e" points="356.62,-755.82 365.75,-750.44 355.26,-748.95 356.62,-755.82"/>
</g>
<!-- lunchbox\.tools -->
<g id="node19" class="node">
<title>lunchbox\.tools</title>
<polygon fill="#343434" stroke="#343434" points="280,-690.39 148,-690.39 148,-654.39 280,-654.39 280,-690.39"/>
<text text-anchor="middle" x="214" y="-668.69" font-family="Courier,monospace" font-size="14.00" fill="#de958e">lunchbox.tools</text>
</g>
<!-- lunchbox\.tools&#45;&gt;flatiron\.core\.logging -->
<g id="edge37" class="edge">
<title>lunchbox\.tools&#45;&gt;flatiron\.core\.logging</title>
<path fill="none" stroke="#de958e" d="M280.05,-665.14C358.87,-656.34 492.66,-641.41 585.88,-631.01"/>
<polygon fill="#de958e" stroke="#de958e" points="586.35,-634.48 595.9,-629.89 585.57,-627.52 586.35,-634.48"/>
</g>
<!-- lunchbox\.tools&#45;&gt;flatiron\.core\.tools -->
<g id="edge38" class="edge">
<title>lunchbox\.tools&#45;&gt;flatiron\.core\.tools</title>
<path fill="none" stroke="#de958e" d="M280.25,-689.22C308.5,-696.51 341.85,-705.11 371.57,-712.78"/>
<polygon fill="#de958e" stroke="#de958e" points="370.94,-716.23 381.49,-715.34 372.69,-709.45 370.94,-716.23"/>
</g>
<!-- pytz -->
<g id="node20" class="node">
<title>pytz</title>
<polygon fill="#343434" stroke="#343434" points="241,-744.39 187,-744.39 187,-708.39 241,-708.39 241,-744.39"/>
<text text-anchor="middle" x="214" y="-722.69" font-family="Courier,monospace" font-size="14.00" fill="#de958e">pytz</text>
</g>
<!-- pytz&#45;&gt;flatiron\.core\.tools -->
<g id="edge39" class="edge">
<title>pytz&#45;&gt;flatiron\.core\.tools</title>
<path fill="none" stroke="#de958e" d="M241.21,-727.17C268.88,-727.99 314.13,-729.33 355.59,-730.56"/>
<polygon fill="#de958e" stroke="#de958e" points="355.65,-734.06 365.75,-730.86 355.86,-727.06 355.65,-734.06"/>
</g>
<!-- tensorflow -->
<g id="node21" class="node">
<title>tensorflow</title>
<polygon fill="#343434" stroke="#343434" points="263.5,-995.39 164.5,-995.39 164.5,-959.39 263.5,-959.39 263.5,-995.39"/>
<text text-anchor="middle" x="214" y="-973.69" font-family="Courier,monospace" font-size="14.00" fill="#de958e">tensorflow</text>
</g>
<!-- tensorflow&#45;&gt;flatiron\.core\.loss -->
<g id="edge40" class="edge">
<title>tensorflow&#45;&gt;flatiron\.core\.loss</title>
<path fill="none" stroke="#de958e" d="M263.69,-976.88C330.63,-975.78 454.73,-972.3 560,-961.39 572.38,-960.11 585.38,-958.43 598.16,-956.56"/>
<polygon fill="#de958e" stroke="#de958e" points="598.99,-959.98 608.36,-955.04 597.95,-953.06 598.99,-959.98"/>
</g>
<!-- tensorflow&#45;&gt;flatiron\.core\.metric -->
<g id="edge41" class="edge">
<title>tensorflow&#45;&gt;flatiron\.core\.metric</title>
<path fill="none" stroke="#de958e" d="M225.39,-959.31C244.43,-928.22 288.24,-865.66 345,-841.39 424.16,-807.55 523.19,-811.71 594.83,-821.87"/>
<polygon fill="#de958e" stroke="#de958e" points="594.34,-825.34 604.75,-823.34 595.37,-818.41 594.34,-825.34"/>
</g>
<!-- tensorflow&#45;&gt;flatiron\.core\.pipeline -->
<g id="edge42" class="edge">
<title>tensorflow&#45;&gt;flatiron\.core\.pipeline</title>
<path fill="none" stroke="#de958e" d="M263.6,-991.43C367.78,-1018.53 616.86,-1067.03 786,-967.39 856.13,-926.08 895.56,-832.03 911.54,-785.1"/>
<polygon fill="#de958e" stroke="#de958e" points="914.87,-786.16 914.68,-775.57 908.22,-783.97 914.87,-786.16"/>
</g>
<!-- tensorflow&#45;&gt;flatiron\.core\.tools -->
<g id="edge43" class="edge">
<title>tensorflow&#45;&gt;flatiron\.core\.tools</title>
<path fill="none" stroke="#de958e" d="M231.05,-959.07C250.39,-936.67 283.46,-897.3 309,-861.39 326.59,-836.67 323.83,-825.13 345,-803.39 363.02,-784.9 386.75,-768.71 407.24,-756.58"/>
<polygon fill="#de958e" stroke="#de958e" points="409.18,-759.5 416.09,-751.47 405.68,-753.44 409.18,-759.5"/>
</g>
<!-- tensorflow&#45;&gt;flatiron\.models\.unet -->
<g id="edge44" class="edge">
<title>tensorflow&#45;&gt;flatiron\.models\.unet</title>
<path fill="none" stroke="#de958e" d="M263.68,-987.59C278.67,-991.72 294.92,-997.24 309,-1004.39 327.07,-1013.58 325.83,-1025.82 345,-1032.39 530.64,-1096.09 607.77,-1091.58 786,-1009.39 947.15,-935.09 1081.34,-758.75 1128.19,-691.8"/>
<polygon fill="#de958e" stroke="#de958e" points="1131.14,-693.68 1133.96,-683.46 1125.39,-689.69 1131.14,-693.68"/>
</g>
<!-- yaml -->
<g id="node22" class="node">
<title>yaml</title>
<polygon fill="#343434" stroke="#343434" points="241,-852.39 187,-852.39 187,-816.39 241,-816.39 241,-852.39"/>
<text text-anchor="middle" x="214" y="-830.69" font-family="Courier,monospace" font-size="14.00" fill="#de958e">yaml</text>
</g>
<!-- yaml&#45;&gt;flatiron\.core\.pipeline -->
<g id="edge45" class="edge">
<title>yaml&#45;&gt;flatiron\.core\.pipeline</title>
<path fill="none" stroke="#de958e" d="M241.28,-828.82C267.46,-823.44 308.85,-815.39 345,-810.39 506.83,-788.05 695.62,-772.67 811.48,-764.45"/>
<polygon fill="#de958e" stroke="#de958e" points="812.04,-767.92 821.76,-763.73 811.54,-760.94 812.04,-767.92"/>
</g>
<!-- yaml&#45;&gt;flatiron\.core\.tools -->
<g id="edge46" class="edge">
<title>yaml&#45;&gt;flatiron\.core\.tools</title>
<path fill="none" stroke="#de958e" d="M241.01,-831.07C260.88,-827.6 288.28,-820.7 309,-807.39 329.69,-794.11 324.4,-778.81 345,-765.39 350.71,-761.68 356.86,-758.38 363.24,-755.45"/>
<polygon fill="#de958e" stroke="#de958e" points="364.87,-758.56 372.7,-751.43 362.13,-752.12 364.87,-758.56"/>
</g>
<!-- numpy -->
<g id="node23" class="node">
<title>numpy</title>
<polygon fill="#343434" stroke="#343434" points="481.5,-919.39 423.5,-919.39 423.5,-883.39 481.5,-883.39 481.5,-919.39"/>
<text text-anchor="middle" x="452.5" y="-897.69" font-family="Courier,monospace" font-size="14.00" fill="#de958e">numpy</text>
</g>
<!-- numpy&#45;&gt;flatiron\.core\.dataset -->
<g id="edge47" class="edge">
<title>numpy&#45;&gt;flatiron\.core\.dataset</title>
<path fill="none" stroke="#de958e" d="M471.62,-883.08C495.63,-857.73 537.54,-809.49 560,-760.39 591.76,-690.95 561.05,-660.29 596,-592.39 611.72,-561.86 638.89,-533.53 659.99,-514.35"/>
<polygon fill="#de958e" stroke="#de958e" points="662.59,-516.72 667.74,-507.46 657.94,-511.48 662.59,-516.72"/>
</g>
<!-- numpy&#45;&gt;flatiron\.core\.loss -->
<g id="edge48" class="edge">
<title>numpy&#45;&gt;flatiron\.core\.loss</title>
<path fill="none" stroke="#de958e" d="M481.56,-906.02C510.39,-910.78 556.82,-918.43 598.56,-925.32"/>
<polygon fill="#de958e" stroke="#de958e" points="598.06,-928.78 608.49,-926.95 599.2,-921.87 598.06,-928.78"/>
</g>
<!-- numpy&#45;&gt;flatiron\.core\.metric -->
<g id="edge49" class="edge">
<title>numpy&#45;&gt;flatiron\.core\.metric</title>
<path fill="none" stroke="#de958e" d="M481.56,-894.28C512.84,-886.34 564.86,-873.14 609.1,-861.92"/>
<polygon fill="#de958e" stroke="#de958e" points="610.16,-865.26 618.99,-859.41 608.44,-858.48 610.16,-865.26"/>
</g>
<!-- numpy&#45;&gt;flatiron\.core\.pipeline -->
<g id="edge50" class="edge">
<title>numpy&#45;&gt;flatiron\.core\.pipeline</title>
<path fill="none" stroke="#de958e" d="M481.54,-903.96C540.49,-908.22 680.54,-912.41 786,-868.39 831.48,-849.42 873.41,-809.55 897.84,-783.13"/>
<polygon fill="#de958e" stroke="#de958e" points="900.73,-785.16 904.85,-775.4 895.54,-780.46 900.73,-785.16"/>
</g>
<!-- schematics\.exceptions -->
<g id="node24" class="node">
<title>schematics\.exceptions</title>
<polygon fill="#343434" stroke="#343434" points="309,-107.39 119,-107.39 119,-71.39 309,-71.39 309,-107.39"/>
<text text-anchor="middle" x="214" y="-85.69" font-family="Courier,monospace" font-size="14.00" fill="#de958e">schematics.exceptions</text>
</g>
<!-- schematics\.exceptions&#45;&gt;flatiron\.core\.validators -->
<g id="edge51" class="edge">
<title>schematics\.exceptions&#45;&gt;flatiron\.core\.validators</title>
<path fill="none" stroke="#de958e" d="M309.15,-89.39C317.58,-89.39 326.17,-89.39 334.76,-89.39"/>
<polygon fill="#de958e" stroke="#de958e" points="334.82,-92.9 344.82,-89.39 334.82,-85.9 334.82,-92.9"/>
</g>
<!-- humanfriendly -->
<g id="node25" class="node">
<title>humanfriendly</title>
<polygon fill="#343434" stroke="#343434" points="514.5,-507.39 390.5,-507.39 390.5,-471.39 514.5,-471.39 514.5,-507.39"/>
<text text-anchor="middle" x="452.5" y="-485.69" font-family="Courier,monospace" font-size="14.00" fill="#de958e">humanfriendly</text>
</g>
<!-- humanfriendly&#45;&gt;flatiron\.core\.dataset -->
<g id="edge52" class="edge">
<title>humanfriendly&#45;&gt;flatiron\.core\.dataset</title>
<path fill="none" stroke="#de958e" d="M514.71,-489.39C536.27,-489.39 561.15,-489.39 585.27,-489.39"/>
<polygon fill="#de958e" stroke="#de958e" points="585.55,-492.9 595.55,-489.39 585.55,-485.9 585.55,-492.9"/>
</g>
<!-- schematics -->
<g id="node26" class="node">
<title>schematics</title>
<polygon fill="#343434" stroke="#343434" points="502,-253.39 403,-253.39 403,-217.39 502,-217.39 502,-253.39"/>
<text text-anchor="middle" x="452.5" y="-231.69" font-family="Courier,monospace" font-size="14.00" fill="#de958e">schematics</text>
</g>
<!-- schematics&#45;&gt;flatiron\.core\.config -->
<g id="edge53" class="edge">
<title>schematics&#45;&gt;flatiron\.core\.config</title>
<path fill="none" stroke="#de958e" d="M502.22,-225.92C527.49,-221 559.32,-214.81 589.57,-208.93"/>
<polygon fill="#de958e" stroke="#de958e" points="590.61,-212.29 599.76,-206.95 589.27,-205.42 590.61,-212.29"/>
</g>
<!-- schematics&#45;&gt;flatiron\.models\.unet -->
<g id="edge54" class="edge">
<title>schematics&#45;&gt;flatiron\.models\.unet</title>
<path fill="none" stroke="#de958e" d="M502.19,-251.59C520.68,-258.4 541.69,-266.94 560,-276.39 784.96,-392.59 1029.93,-575.75 1114.92,-641.17"/>
<polygon fill="#de958e" stroke="#de958e" points="1112.82,-643.97 1122.87,-647.31 1117.1,-638.43 1112.82,-643.97"/>
</g>
<!-- pandas -->
<g id="node27" class="node">
<title>pandas</title>
<polygon fill="#343434" stroke="#343434" points="485.5,-453.39 419.5,-453.39 419.5,-417.39 485.5,-417.39 485.5,-453.39"/>
<text text-anchor="middle" x="452.5" y="-431.69" font-family="Courier,monospace" font-size="14.00" fill="#de958e">pandas</text>
</g>
<!-- pandas&#45;&gt;flatiron\.core\.dataset -->
<g id="edge55" class="edge">
<title>pandas&#45;&gt;flatiron\.core\.dataset</title>
<path fill="none" stroke="#de958e" d="M485.89,-442.79C515.52,-449.55 560.74,-459.88 601.1,-469.1"/>
<polygon fill="#de958e" stroke="#de958e" points="600.45,-472.54 610.97,-471.35 602,-465.71 600.45,-472.54"/>
</g>
<!-- schematics\.types -->
<g id="node28" class="node">
<title>schematics\.types</title>
<polygon fill="#343434" stroke="#343434" points="527,-161.39 378,-161.39 378,-125.39 527,-125.39 527,-161.39"/>
<text text-anchor="middle" x="452.5" y="-139.69" font-family="Courier,monospace" font-size="14.00" fill="#de958e">schematics.types</text>
</g>
<!-- schematics\.types&#45;&gt;flatiron\.core\.config -->
<g id="edge56" class="edge">
<title>schematics\.types&#45;&gt;flatiron\.core\.config</title>
<path fill="none" stroke="#de958e" d="M527.03,-157.7C546.93,-161.57 568.81,-165.82 589.91,-169.93"/>
<polygon fill="#de958e" stroke="#de958e" points="589.37,-173.39 599.86,-171.86 590.71,-166.52 589.37,-173.39"/>
</g>
<!-- schematics\.types&#45;&gt;flatiron\.models\.unet -->
<g id="edge57" class="edge">
<title>schematics\.types&#45;&gt;flatiron\.models\.unet</title>
<path fill="none" stroke="#de958e" d="M527.05,-131.73C597.34,-124.12 704.38,-122 786,-162.39 992.19,-264.46 1105.4,-547.98 1136.85,-637.76"/>
<polygon fill="#de958e" stroke="#de958e" points="1133.55,-638.94 1140.12,-647.25 1140.17,-636.66 1133.55,-638.94"/>
</g>
<!-- sklearn\.model_selection -->
<g id="node29" class="node">
<title>sklearn\.model_selection</title>
<polygon fill="#343434" stroke="#343434" points="555.5,-399.39 349.5,-399.39 349.5,-363.39 555.5,-363.39 555.5,-399.39"/>
<text text-anchor="middle" x="452.5" y="-377.69" font-family="Courier,monospace" font-size="14.00" fill="#de958e">sklearn.model_selection</text>
</g>
<!-- sklearn\.model_selection&#45;&gt;flatiron\.core\.dataset -->
<g id="edge58" class="edge">
<title>sklearn\.model_selection&#45;&gt;flatiron\.core\.dataset</title>
<path fill="none" stroke="#de958e" d="M535.47,-399.42C543.88,-402.08 552.19,-405.07 560,-408.39 595.39,-423.47 632.29,-447.37 657.7,-465.31"/>
<polygon fill="#de958e" stroke="#de958e" points="655.68,-468.17 665.85,-471.14 659.75,-462.48 655.68,-468.17"/>
</g>
<!-- tqdm\.notebook -->
<g id="node30" class="node">
<title>tqdm\.notebook</title>
<polygon fill="#343434" stroke="#343434" points="514.5,-345.39 390.5,-345.39 390.5,-309.39 514.5,-309.39 514.5,-345.39"/>
<text text-anchor="middle" x="452.5" y="-323.69" font-family="Courier,monospace" font-size="14.00" fill="#de958e">tqdm.notebook</text>
</g>
<!-- tqdm\.notebook&#45;&gt;flatiron\.core\.dataset -->
<g id="edge59" class="edge">
<title>tqdm\.notebook&#45;&gt;flatiron\.core\.dataset</title>
<path fill="none" stroke="#de958e" d="M514.64,-336.75C530.11,-340.74 546.23,-346.39 560,-354.39 607.58,-382.03 649.02,-432.06 671.68,-462.84"/>
<polygon fill="#de958e" stroke="#de958e" points="668.86,-464.93 677.56,-470.98 674.54,-460.83 668.86,-464.93"/>
</g>
<!-- schematics\.models -->
<g id="node31" class="node">
<title>schematics\.models</title>
<polygon fill="#343434" stroke="#343434" points="769.5,-729.39 612.5,-729.39 612.5,-693.39 769.5,-693.39 769.5,-729.39"/>
<text text-anchor="middle" x="691" y="-707.69" font-family="Courier,monospace" font-size="14.00" fill="#de958e">schematics.models</text>
</g>
<!-- schematics\.models&#45;&gt;flatiron\.core\.pipeline -->
<g id="edge60" class="edge">
<title>schematics\.models&#45;&gt;flatiron\.core\.pipeline</title>
<path fill="none" stroke="#de958e" d="M769.51,-727.03C785.91,-730.34 803.44,-733.88 820.53,-737.33"/>
<polygon fill="#de958e" stroke="#de958e" points="820.03,-740.8 830.53,-739.34 821.42,-733.93 820.03,-740.8"/>
</g>
</g>
</svg>
