<?xml version="1.0" encoding="UTF-8" standalone="no"?>
<!DOCTYPE svg PUBLIC "-//W3C//DTD SVG 1.1//EN"
 "http://www.w3.org/Graphics/SVG/1.1/DTD/svg11.dtd">
<!-- Generated by graphviz version 2.43.0 (0)
 -->
<!-- Title: %3 Pages: 1 -->
<svg width="826pt" height="514pt"
 viewBox="0.00 0.00 826.00 514.00" xmlns="http://www.w3.org/2000/svg" xmlns:xlink="http://www.w3.org/1999/xlink">
<g id="graph0" class="graph" transform="scale(1 1) rotate(0) translate(4 510)">
<title>%3</title>
<polygon fill="#242424" stroke="transparent" points="-4,4 -4,-510 822,-510 822,4 -4,4"/>
<!-- cli -->
<g id="node1" class="node">
<title>cli</title>
<polygon fill="#343434" stroke="#343434" points="68.5,-452 14.5,-452 14.5,-416 68.5,-416 68.5,-452"/>
<text text-anchor="middle" x="41.5" y="-430.3" font-family="Courier,monospace" font-size="14.00" fill="#b6ecf3">cli</text>
</g>
<!-- flatiron.core.dataset -->
<g id="node2" class="node">
<title>flatiron.core.dataset</title>
<polygon fill="#343434" stroke="#343434" points="818,-221 628,-221 628,-185 818,-185 818,-221"/>
<text text-anchor="middle" x="723" y="-199.3" font-family="Courier,monospace" font-size="14.00" fill="#b6ecf3">flatiron.core.dataset</text>
</g>
<!-- flatiron.core.tools -->
<g id="node3" class="node">
<title>flatiron.core.tools</title>
<polygon fill="#343434" stroke="#343434" points="575.5,-344 402.5,-344 402.5,-308 575.5,-308 575.5,-344"/>
<text text-anchor="middle" x="489" y="-322.3" font-family="Courier,monospace" font-size="14.00" fill="#b6ecf3">flatiron.core.tools</text>
</g>
<!-- flatiron.core.tools&#45;&gt;flatiron.core.dataset -->
<g id="edge1" class="edge">
<title>flatiron.core.tools&#45;&gt;flatiron.core.dataset</title>
<path fill="none" stroke="#b6ecf3" d="M570.12,-307.92C577.66,-305.29 585.06,-302.33 592,-299 630.8,-280.38 669.78,-249.61 694.79,-227.93"/>
<polygon fill="#b6ecf3" stroke="#b6ecf3" points="697.2,-230.47 702.4,-221.24 692.58,-225.21 697.2,-230.47"/>
</g>
<!-- flatiron -->
<g id="node4" class="node">
<title>flatiron</title>
<polygon fill="#343434" stroke="#343434" points="83,-506 0,-506 0,-470 83,-470 83,-506"/>
<text text-anchor="middle" x="41.5" y="-484.3" font-family="Courier,monospace" font-size="14.00" fill="#a0d17b">flatiron</text>
</g>
<!-- flatiron.core -->
<g id="node5" class="node">
<title>flatiron.core</title>
<polygon fill="#343434" stroke="#343434" points="296.5,-506 172.5,-506 172.5,-470 296.5,-470 296.5,-506"/>
<text text-anchor="middle" x="234.5" y="-484.3" font-family="Courier,monospace" font-size="14.00" fill="#a0d17b">flatiron.core</text>
</g>
<!-- flatiron&#45;&gt;flatiron.core -->
<g id="edge2" class="edge">
<title>flatiron&#45;&gt;flatiron.core</title>
<path fill="none" stroke="#a0d17b" d="M83.01,-488C106.02,-488 135.49,-488 162.25,-488"/>
<polygon fill="#a0d17b" stroke="#a0d17b" points="162.35,-491.5 172.35,-488 162.35,-484.5 162.35,-491.5"/>
</g>
<!-- flatiron.core&#45;&gt;flatiron.core.dataset -->
<g id="edge3" class="edge">
<title>flatiron.core&#45;&gt;flatiron.core.dataset</title>
<path fill="none" stroke="#a0d17b" d="M296.59,-475.69C371.83,-458.23 500.84,-420.62 592,-353 639.31,-317.91 681.4,-262.8 704.15,-230.06"/>
<polygon fill="#a0d17b" stroke="#a0d17b" points="707.28,-231.68 710.04,-221.45 701.5,-227.72 707.28,-231.68"/>
</g>
<!-- flatiron.core&#45;&gt;flatiron.core.tools -->
<g id="edge4" class="edge">
<title>flatiron.core&#45;&gt;flatiron.core.tools</title>
<path fill="none" stroke="#a0d17b" d="M296.71,-481.32C314.86,-477.35 334.12,-471.04 350,-461 371.65,-447.31 368.33,-434.54 386,-416 408.44,-392.45 436.25,-368.2 457.17,-350.81"/>
<polygon fill="#a0d17b" stroke="#a0d17b" points="459.61,-353.32 465.1,-344.26 455.16,-347.92 459.61,-353.32"/>
</g>
<!-- humanfriendly -->
<g id="node6" class="node">
<title>humanfriendly</title>
<polygon fill="#343434" stroke="#343434" points="551,-290 427,-290 427,-254 551,-254 551,-290"/>
<text text-anchor="middle" x="489" y="-268.3" font-family="Courier,monospace" font-size="14.00" fill="#de958e">humanfriendly</text>
</g>
<!-- humanfriendly&#45;&gt;flatiron.core.dataset -->
<g id="edge5" class="edge">
<title>humanfriendly&#45;&gt;flatiron.core.dataset</title>
<path fill="none" stroke="#de958e" d="M550.65,-253.96C581.56,-244.77 619.31,-233.54 651.5,-223.97"/>
<polygon fill="#de958e" stroke="#de958e" points="652.71,-227.26 661.3,-221.05 650.72,-220.55 652.71,-227.26"/>
</g>
<!-- lunchbox.enforce -->
<g id="node7" class="node">
<title>lunchbox.enforce</title>
<polygon fill="#343434" stroke="#343434" points="309,-182 160,-182 160,-146 309,-146 309,-182"/>
<text text-anchor="middle" x="234.5" y="-160.3" font-family="Courier,monospace" font-size="14.00" fill="#de958e">lunchbox.enforce</text>
</g>
<!-- lunchbox.enforce&#45;&gt;flatiron.core.dataset -->
<g id="edge6" class="edge">
<title>lunchbox.enforce&#45;&gt;flatiron.core.dataset</title>
<path fill="none" stroke="#de958e" d="M309.07,-179.2C322.8,-182.64 336.94,-186.6 350,-191 366.59,-196.59 368.87,-203.37 386,-207 475.56,-226.01 500.46,-208.41 592,-207 600.36,-206.87 609.02,-206.7 617.71,-206.49"/>
<polygon fill="#de958e" stroke="#de958e" points="618.02,-209.98 627.93,-206.24 617.84,-202.99 618.02,-209.98"/>
</g>
<!-- lunchbox.enforce&#45;&gt;flatiron.core.tools -->
<g id="edge7" class="edge">
<title>lunchbox.enforce&#45;&gt;flatiron.core.tools</title>
<path fill="none" stroke="#de958e" d="M309.02,-169.83C323.99,-173.98 338.62,-180.6 350,-191 387.35,-225.13 349.11,-264.37 386,-299 388.33,-301.19 390.81,-303.2 393.42,-305.05"/>
<polygon fill="#de958e" stroke="#de958e" points="391.79,-308.16 402.14,-310.45 395.48,-302.21 391.79,-308.16"/>
</g>
<!-- lunchbox.stopwatch -->
<g id="node8" class="node">
<title>lunchbox.stopwatch</title>
<polygon fill="#343434" stroke="#343434" points="317,-452 152,-452 152,-416 317,-416 317,-452"/>
<text text-anchor="middle" x="234.5" y="-430.3" font-family="Courier,monospace" font-size="14.00" fill="#de958e">lunchbox.stopwatch</text>
</g>
<!-- lunchbox.stopwatch&#45;&gt;flatiron.core.tools -->
<g id="edge8" class="edge">
<title>lunchbox.stopwatch&#45;&gt;flatiron.core.tools</title>
<path fill="none" stroke="#de958e" d="M317.13,-417.93C328.34,-414.81 339.57,-411.18 350,-407 387.46,-391.99 426.85,-367.93 453.91,-349.92"/>
<polygon fill="#de958e" stroke="#de958e" points="455.9,-352.8 462.24,-344.31 451.99,-346.99 455.9,-352.8"/>
</g>
<!-- lunchbox.tools -->
<g id="node9" class="node">
<title>lunchbox.tools</title>
<polygon fill="#343434" stroke="#343434" points="300.5,-398 168.5,-398 168.5,-362 300.5,-362 300.5,-398"/>
<text text-anchor="middle" x="234.5" y="-376.3" font-family="Courier,monospace" font-size="14.00" fill="#de958e">lunchbox.tools</text>
</g>
<!-- lunchbox.tools&#45;&gt;flatiron.core.tools -->
<g id="edge9" class="edge">
<title>lunchbox.tools&#45;&gt;flatiron.core.tools</title>
<path fill="none" stroke="#de958e" d="M300.53,-366.09C328.87,-360.03 362.66,-352.81 393.68,-346.17"/>
<polygon fill="#de958e" stroke="#de958e" points="394.6,-349.55 403.65,-344.04 393.14,-342.71 394.6,-349.55"/>
</g>
<!-- pytz -->
<g id="node10" class="node">
<title>pytz</title>
<polygon fill="#343434" stroke="#343434" points="261.5,-344 207.5,-344 207.5,-308 261.5,-308 261.5,-344"/>
<text text-anchor="middle" x="234.5" y="-322.3" font-family="Courier,monospace" font-size="14.00" fill="#de958e">pytz</text>
</g>
<!-- pytz&#45;&gt;flatiron.core.tools -->
<g id="edge10" class="edge">
<title>pytz&#45;&gt;flatiron.core.tools</title>
<path fill="none" stroke="#de958e" d="M261.57,-326C292.33,-326 345.22,-326 392.15,-326"/>
<polygon fill="#de958e" stroke="#de958e" points="392.38,-329.5 402.38,-326 392.38,-322.5 392.38,-329.5"/>
</g>
<!-- tensorflow.keras.callbacks -->
<g id="node11" class="node">
<title>tensorflow.keras.callbacks</title>
<polygon fill="#343434" stroke="#343434" points="350,-290 119,-290 119,-254 350,-254 350,-290"/>
<text text-anchor="middle" x="234.5" y="-268.3" font-family="Courier,monospace" font-size="14.00" fill="#de958e">tensorflow.keras.callbacks</text>
</g>
<!-- tensorflow.keras.callbacks&#45;&gt;flatiron.core.tools -->
<g id="edge11" class="edge">
<title>tensorflow.keras.callbacks&#45;&gt;flatiron.core.tools</title>
<path fill="none" stroke="#de958e" d="M319.93,-290.06C343.62,-295.12 369.52,-300.66 393.74,-305.84"/>
<polygon fill="#de958e" stroke="#de958e" points="393.14,-309.29 403.65,-307.96 394.6,-302.45 393.14,-309.29"/>
</g>
<!-- yaml -->
<g id="node12" class="node">
<title>yaml</title>
<polygon fill="#343434" stroke="#343434" points="261.5,-236 207.5,-236 207.5,-200 261.5,-200 261.5,-236"/>
<text text-anchor="middle" x="234.5" y="-214.3" font-family="Courier,monospace" font-size="14.00" fill="#de958e">yaml</text>
</g>
<!-- yaml&#45;&gt;flatiron.core.tools -->
<g id="edge12" class="edge">
<title>yaml&#45;&gt;flatiron.core.tools</title>
<path fill="none" stroke="#de958e" d="M261.81,-218.78C286.57,-220.69 323.67,-226.7 350,-245 373.69,-261.46 362.54,-282.22 386,-299 388.37,-300.7 390.85,-302.29 393.4,-303.78"/>
<polygon fill="#de958e" stroke="#de958e" points="391.87,-306.93 402.35,-308.48 395.12,-300.73 391.87,-306.93"/>
</g>
<!-- numpy -->
<g id="node13" class="node">
<title>numpy</title>
<polygon fill="#343434" stroke="#343434" points="518,-198 460,-198 460,-162 518,-162 518,-198"/>
<text text-anchor="middle" x="489" y="-176.3" font-family="Courier,monospace" font-size="14.00" fill="#de958e">numpy</text>
</g>
<!-- numpy&#45;&gt;flatiron.core.dataset -->
<g id="edge13" class="edge">
<title>numpy&#45;&gt;flatiron.core.dataset</title>
<path fill="none" stroke="#de958e" d="M518.45,-182.82C543.39,-185.29 581.24,-189.05 617.56,-192.65"/>
<polygon fill="#de958e" stroke="#de958e" points="617.46,-196.15 627.75,-193.66 618.15,-189.19 617.46,-196.15"/>
</g>
<!-- pandas -->
<g id="node14" class="node">
<title>pandas</title>
<polygon fill="#343434" stroke="#343434" points="522,-144 456,-144 456,-108 522,-108 522,-144"/>
<text text-anchor="middle" x="489" y="-122.3" font-family="Courier,monospace" font-size="14.00" fill="#de958e">pandas</text>
</g>
<!-- pandas&#45;&gt;flatiron.core.dataset -->
<g id="edge14" class="edge">
<title>pandas&#45;&gt;flatiron.core.dataset</title>
<path fill="none" stroke="#de958e" d="M522.42,-133.63C542.59,-138.61 568.99,-145.56 592,-153 617.68,-161.31 645.68,-171.88 669.1,-181.16"/>
<polygon fill="#de958e" stroke="#de958e" points="667.91,-184.45 678.5,-184.91 670.51,-177.95 667.91,-184.45"/>
</g>
<!-- sklearn.model_selection -->
<g id="node15" class="node">
<title>sklearn.model_selection</title>
<polygon fill="#343434" stroke="#343434" points="592,-90 386,-90 386,-54 592,-54 592,-90"/>
<text text-anchor="middle" x="489" y="-68.3" font-family="Courier,monospace" font-size="14.00" fill="#de958e">sklearn.model_selection</text>
</g>
<!-- sklearn.model_selection&#45;&gt;flatiron.core.dataset -->
<g id="edge15" class="edge">
<title>sklearn.model_selection&#45;&gt;flatiron.core.dataset</title>
<path fill="none" stroke="#de958e" d="M571.06,-90.09C578.29,-92.7 585.37,-95.66 592,-99 632.53,-119.42 672.24,-153.91 696.9,-177.53"/>
<polygon fill="#de958e" stroke="#de958e" points="694.75,-180.33 704.35,-184.79 699.63,-175.31 694.75,-180.33"/>
</g>
<!-- tqdm.notebook -->
<g id="node16" class="node">
<title>tqdm.notebook</title>
<polygon fill="#343434" stroke="#343434" points="551,-36 427,-36 427,0 551,0 551,-36"/>
<text text-anchor="middle" x="489" y="-14.3" font-family="Courier,monospace" font-size="14.00" fill="#de958e">tqdm.notebook</text>
</g>
<!-- tqdm.notebook&#45;&gt;flatiron.core.dataset -->
<g id="edge16" class="edge">
<title>tqdm.notebook&#45;&gt;flatiron.core.dataset</title>
<path fill="none" stroke="#de958e" d="M551.12,-27.59C565.26,-31.55 579.74,-37.13 592,-45 644.55,-78.73 686.23,-140.64 707.19,-176.12"/>
<polygon fill="#de958e" stroke="#de958e" points="704.27,-178.06 712.3,-184.96 710.33,-174.55 704.27,-178.06"/>
</g>
</g>
</svg>
