<?xml version="1.0" encoding="UTF-8" standalone="no"?>
<!DOCTYPE svg PUBLIC "-//W3C//DTD SVG 1.1//EN"
 "http://www.w3.org/Graphics/SVG/1.1/DTD/svg11.dtd">
<!-- Generated by graphviz version 2.43.0 (0)
 -->
<!-- Title: %3 Pages: 1 -->
<svg width="1438pt" height="1565pt"
 viewBox="0.00 0.00 1438.00 1565.24" xmlns="http://www.w3.org/2000/svg" xmlns:xlink="http://www.w3.org/1999/xlink">
<g id="graph0" class="graph" transform="scale(1 1) rotate(0) translate(4 1561.24)">
<title>%3</title>
<polygon fill="#242424" stroke="transparent" points="-4,4 -4,-1561.24 1434,-1561.24 1434,4 -4,4"/>
<!-- cli -->
<g id="node1" class="node">
<title>cli</title>
<polygon fill="#343434" stroke="#343434" points="68.5,-602.88 14.5,-602.88 14.5,-566.88 68.5,-566.88 68.5,-602.88"/>
<text text-anchor="middle" x="41.5" y="-581.18" font-family="Courier,monospace" font-size="14.00" fill="#b6ecf3">cli</text>
</g>
<!-- flatiron\.command -->
<g id="node2" class="node">
<title>flatiron\.command</title>
<polygon fill="#343434" stroke="#343434" points="268,-1241.88 119,-1241.88 119,-1205.88 268,-1205.88 268,-1241.88"/>
<text text-anchor="middle" x="193.5" y="-1220.18" font-family="Courier,monospace" font-size="14.00" fill="#b6ecf3">flatiron.command</text>
</g>
<!-- flatiron\.core\.config -->
<g id="node3" class="node">
<title>flatiron\.core\.config</title>
<polygon fill="#343434" stroke="#343434" points="950,-1393.88 768,-1393.88 768,-1357.88 950,-1357.88 950,-1393.88"/>
<text text-anchor="middle" x="859" y="-1372.18" font-family="Courier,monospace" font-size="14.00" fill="#b6ecf3">flatiron.core.config</text>
</g>
<!-- flatiron\.core\.pipeline -->
<g id="node6" class="node">
<title>flatiron\.core\.pipeline</title>
<polygon fill="#343434" stroke="#343434" points="1188,-1151.88 990,-1151.88 990,-1115.88 1188,-1115.88 1188,-1151.88"/>
<text text-anchor="middle" x="1089" y="-1130.18" font-family="Courier,monospace" font-size="14.00" fill="#b6ecf3">flatiron.core.pipeline</text>
</g>
<!-- flatiron\.core\.config&#45;&gt;flatiron\.core\.pipeline -->
<g id="edge1" class="edge">
<title>flatiron\.core\.config&#45;&gt;flatiron\.core\.pipeline</title>
<path fill="none" stroke="#b6ecf3" d="M888.29,-1357.78C907.81,-1344.6 933.78,-1325.67 954,-1305.88 1001.52,-1259.39 1046.9,-1195.74 1070.72,-1160.36"/>
<polygon fill="#b6ecf3" stroke="#b6ecf3" points="1073.66,-1162.26 1076.29,-1152 1067.83,-1158.37 1073.66,-1162.26"/>
</g>
<!-- flatiron\.core\.dataset -->
<g id="node4" class="node">
<title>flatiron\.core\.dataset</title>
<polygon fill="#343434" stroke="#343434" points="954,-957.88 764,-957.88 764,-921.88 954,-921.88 954,-957.88"/>
<text text-anchor="middle" x="859" y="-936.18" font-family="Courier,monospace" font-size="14.00" fill="#b6ecf3">flatiron.core.dataset</text>
</g>
<!-- flatiron\.core\.dataset&#45;&gt;flatiron\.core\.pipeline -->
<g id="edge2" class="edge">
<title>flatiron\.core\.dataset&#45;&gt;flatiron\.core\.pipeline</title>
<path fill="none" stroke="#b6ecf3" d="M881.45,-958.14C922.55,-993.11 1012.43,-1069.58 1058.89,-1109.12"/>
<polygon fill="#b6ecf3" stroke="#b6ecf3" points="1056.89,-1112.01 1066.77,-1115.82 1061.43,-1106.68 1056.89,-1112.01"/>
</g>
<!-- flatiron\.core\.logging -->
<g id="node5" class="node">
<title>flatiron\.core\.logging</title>
<polygon fill="#343434" stroke="#343434" points="954,-1191.88 764,-1191.88 764,-1155.88 954,-1155.88 954,-1191.88"/>
<text text-anchor="middle" x="859" y="-1170.18" font-family="Courier,monospace" font-size="14.00" fill="#b6ecf3">flatiron.core.logging</text>
</g>
<!-- flatiron\.core\.logging&#45;&gt;flatiron\.core\.pipeline -->
<g id="edge3" class="edge">
<title>flatiron\.core\.logging&#45;&gt;flatiron\.core\.pipeline</title>
<path fill="none" stroke="#b6ecf3" d="M954.05,-1157.38C962.52,-1155.9 971.13,-1154.39 979.7,-1152.88"/>
<polygon fill="#b6ecf3" stroke="#b6ecf3" points="980.49,-1156.3 989.74,-1151.12 979.28,-1149.4 980.49,-1156.3"/>
</g>
<!-- flatiron\.tf\.models\.unet -->
<g id="node12" class="node">
<title>flatiron\.tf\.models\.unet</title>
<polygon fill="#343434" stroke="#343434" points="1430,-1151.88 1224,-1151.88 1224,-1115.88 1430,-1115.88 1430,-1151.88"/>
<text text-anchor="middle" x="1327" y="-1130.18" font-family="Courier,monospace" font-size="14.00" fill="#b6ecf3">flatiron.tf.models.unet</text>
</g>
<!-- flatiron\.core\.pipeline&#45;&gt;flatiron\.tf\.models\.unet -->
<g id="edge4" class="edge">
<title>flatiron\.core\.pipeline&#45;&gt;flatiron\.tf\.models\.unet</title>
<path fill="none" stroke="#b6ecf3" d="M1188.03,-1133.88C1196.5,-1133.88 1205.11,-1133.88 1213.67,-1133.88"/>
<polygon fill="#b6ecf3" stroke="#b6ecf3" points="1213.7,-1137.38 1223.7,-1133.88 1213.7,-1130.38 1213.7,-1137.38"/>
</g>
<!-- flatiron\.core\.tools -->
<g id="node7" class="node">
<title>flatiron\.core\.tools</title>
<polygon fill="#343434" stroke="#343434" points="707,-757.88 534,-757.88 534,-721.88 707,-721.88 707,-757.88"/>
<text text-anchor="middle" x="620.5" y="-736.18" font-family="Courier,monospace" font-size="14.00" fill="#b6ecf3">flatiron.core.tools</text>
</g>
<!-- flatiron\.core\.tools&#45;&gt;flatiron\.core\.dataset -->
<g id="edge5" class="edge">
<title>flatiron\.core\.tools&#45;&gt;flatiron\.core\.dataset</title>
<path fill="none" stroke="#b6ecf3" d="M707.06,-752.95C714.72,-756.57 721.88,-761.14 728,-766.88 766.11,-802.68 732.23,-837.36 764,-878.88 775.77,-894.27 792.6,-906.91 808.78,-916.62"/>
<polygon fill="#b6ecf3" stroke="#b6ecf3" points="807.25,-919.78 817.66,-921.71 810.73,-913.7 807.25,-919.78"/>
</g>
<!-- flatiron\.core\.tools&#45;&gt;flatiron\.core\.logging -->
<g id="edge6" class="edge">
<title>flatiron\.core\.tools&#45;&gt;flatiron\.core\.logging</title>
<path fill="none" stroke="#b6ecf3" d="M707.1,-751.75C714.9,-755.59 722.08,-760.54 728,-766.88 789.58,-832.95 737.12,-880.66 764,-966.88 784.9,-1033.93 822.15,-1107.77 842.93,-1146.57"/>
<polygon fill="#b6ecf3" stroke="#b6ecf3" points="840.01,-1148.52 847.84,-1155.66 846.17,-1145.2 840.01,-1148.52"/>
</g>
<!-- flatiron\.core\.tools&#45;&gt;flatiron\.core\.pipeline -->
<g id="edge7" class="edge">
<title>flatiron\.core\.tools&#45;&gt;flatiron\.core\.pipeline</title>
<path fill="none" stroke="#b6ecf3" d="M704.1,-757.96C712.3,-760.6 720.39,-763.57 728,-766.88 782.81,-790.77 912.33,-870.01 954,-912.88 1012,-972.56 1056.3,-1061.77 1076.3,-1106.39"/>
<polygon fill="#b6ecf3" stroke="#b6ecf3" points="1073.18,-1107.99 1080.42,-1115.72 1079.58,-1105.16 1073.18,-1107.99"/>
</g>
<!-- flatiron\.tf\.loss -->
<g id="node10" class="node">
<title>flatiron\.tf\.loss</title>
<polygon fill="#343434" stroke="#343434" points="933.5,-239.88 784.5,-239.88 784.5,-203.88 933.5,-203.88 933.5,-239.88"/>
<text text-anchor="middle" x="859" y="-218.18" font-family="Courier,monospace" font-size="14.00" fill="#b6ecf3">flatiron.tf.loss</text>
</g>
<!-- flatiron\.core\.tools&#45;&gt;flatiron\.tf\.loss -->
<g id="edge8" class="edge">
<title>flatiron\.core\.tools&#45;&gt;flatiron\.tf\.loss</title>
<path fill="none" stroke="#b6ecf3" d="M624.05,-721.47C633.42,-658.68 670.43,-448.9 764,-305.88 779.41,-282.33 803.07,-261.24 822.79,-246.08"/>
<polygon fill="#b6ecf3" stroke="#b6ecf3" points="825.06,-248.76 830.97,-239.96 820.87,-243.15 825.06,-248.76"/>
</g>
<!-- flatiron\.tf\.metric -->
<g id="node11" class="node">
<title>flatiron\.tf\.metric</title>
<polygon fill="#343434" stroke="#343434" points="941.5,-445.88 776.5,-445.88 776.5,-409.88 941.5,-409.88 941.5,-445.88"/>
<text text-anchor="middle" x="859" y="-424.18" font-family="Courier,monospace" font-size="14.00" fill="#b6ecf3">flatiron.tf.metric</text>
</g>
<!-- flatiron\.core\.tools&#45;&gt;flatiron\.tf\.metric -->
<g id="edge9" class="edge">
<title>flatiron\.core\.tools&#45;&gt;flatiron\.tf\.metric</title>
<path fill="none" stroke="#b6ecf3" d="M630.95,-721.61C651.94,-681.85 705.27,-585.42 764,-514.88 783.13,-491.91 808.1,-469.06 827.5,-452.55"/>
<polygon fill="#b6ecf3" stroke="#b6ecf3" points="829.76,-455.22 835.17,-446.11 825.26,-449.86 829.76,-455.22"/>
</g>
<!-- flatiron\.core\.tools&#45;&gt;flatiron\.tf\.models\.unet -->
<g id="edge10" class="edge">
<title>flatiron\.core\.tools&#45;&gt;flatiron\.tf\.models\.unet</title>
<path fill="none" stroke="#b6ecf3" d="M707.18,-737.03C776.85,-737.96 876.02,-746.86 954,-783.88 1118.44,-861.96 1258.36,-1039.88 1307.35,-1107.31"/>
<polygon fill="#b6ecf3" stroke="#b6ecf3" points="1304.71,-1109.63 1313.39,-1115.7 1310.39,-1105.54 1304.71,-1109.63"/>
</g>
<!-- flatiron\.tf\.optimizer -->
<g id="node13" class="node">
<title>flatiron\.tf\.optimizer</title>
<polygon fill="#343434" stroke="#343434" points="954,-350.88 764,-350.88 764,-314.88 954,-314.88 954,-350.88"/>
<text text-anchor="middle" x="859" y="-329.18" font-family="Courier,monospace" font-size="14.00" fill="#b6ecf3">flatiron.tf.optimizer</text>
</g>
<!-- flatiron\.core\.tools&#45;&gt;flatiron\.tf\.optimizer -->
<g id="edge11" class="edge">
<title>flatiron\.core\.tools&#45;&gt;flatiron\.tf\.optimizer</title>
<path fill="none" stroke="#b6ecf3" d="M625.48,-721.54C637.94,-667.5 680.42,-506.12 764,-400.88 778.1,-383.13 797.98,-367.84 815.83,-356.28"/>
<polygon fill="#b6ecf3" stroke="#b6ecf3" points="817.78,-359.19 824.39,-350.91 814.06,-353.26 817.78,-359.19"/>
</g>
<!-- flatiron\.tf\.tools -->
<g id="node14" class="node">
<title>flatiron\.tf\.tools</title>
<polygon fill="#343434" stroke="#343434" points="937.5,-559.88 780.5,-559.88 780.5,-523.88 937.5,-523.88 937.5,-559.88"/>
<text text-anchor="middle" x="859" y="-538.18" font-family="Courier,monospace" font-size="14.00" fill="#b6ecf3">flatiron.tf.tools</text>
</g>
<!-- flatiron\.core\.tools&#45;&gt;flatiron\.tf\.tools -->
<g id="edge12" class="edge">
<title>flatiron\.core\.tools&#45;&gt;flatiron\.tf\.tools</title>
<path fill="none" stroke="#b6ecf3" d="M643.33,-721.61C685.92,-685.96 780.14,-607.07 828.34,-566.71"/>
<polygon fill="#b6ecf3" stroke="#b6ecf3" points="830.81,-569.22 836.23,-560.11 826.31,-563.85 830.81,-569.22"/>
</g>
<!-- flatiron\.core\.types -->
<g id="node8" class="node">
<title>flatiron\.core\.types</title>
<polygon fill="#343434" stroke="#343434" points="477,-643.88 304,-643.88 304,-607.88 477,-607.88 477,-643.88"/>
<text text-anchor="middle" x="390.5" y="-622.18" font-family="Courier,monospace" font-size="14.00" fill="#b6ecf3">flatiron.core.types</text>
</g>
<!-- flatiron\.core\.types&#45;&gt;flatiron\.core\.dataset -->
<g id="edge13" class="edge">
<title>flatiron\.core\.types&#45;&gt;flatiron\.core\.dataset</title>
<path fill="none" stroke="#b6ecf3" d="M452.11,-643.9C460.54,-646.73 469.03,-649.76 477,-652.88 493.47,-659.34 496.2,-664.33 513,-669.88 605.52,-700.47 648.92,-655.94 728,-712.88 797.7,-763.07 835.37,-863 850.29,-911.78"/>
<polygon fill="#b6ecf3" stroke="#b6ecf3" points="847.02,-913.06 853.21,-921.65 853.73,-911.07 847.02,-913.06"/>
</g>
<!-- flatiron\.core\.types&#45;&gt;flatiron\.core\.pipeline -->
<g id="edge14" class="edge">
<title>flatiron\.core\.types&#45;&gt;flatiron\.core\.pipeline</title>
<path fill="none" stroke="#b6ecf3" d="M477.14,-623.55C601.65,-625.16 831.19,-647.92 954,-783.88 1041.4,-880.65 1074.08,-1040.4 1084.15,-1105.23"/>
<polygon fill="#b6ecf3" stroke="#b6ecf3" points="1080.75,-1106.12 1085.68,-1115.49 1087.67,-1105.09 1080.75,-1106.12"/>
</g>
<!-- flatiron\.core\.types&#45;&gt;flatiron\.core\.tools -->
<g id="edge15" class="edge">
<title>flatiron\.core\.types&#45;&gt;flatiron\.core\.tools</title>
<path fill="none" stroke="#b6ecf3" d="M462.51,-643.93C467.63,-646.53 472.53,-649.5 477,-652.88 500.28,-670.53 489.59,-690.4 513,-707.88 517.76,-711.44 522.91,-714.6 528.29,-717.41"/>
<polygon fill="#b6ecf3" stroke="#b6ecf3" points="527,-720.67 537.53,-721.82 530.01,-714.36 527,-720.67"/>
</g>
<!-- flatiron\.core\.types&#45;&gt;flatiron\.tf\.tools -->
<g id="edge16" class="edge">
<title>flatiron\.core\.types&#45;&gt;flatiron\.tf\.tools</title>
<path fill="none" stroke="#b6ecf3" d="M477.32,-624.45C545.99,-621.71 644.3,-614.16 728,-593.88 756.68,-586.94 787.39,-574.89 811.75,-564.14"/>
<polygon fill="#b6ecf3" stroke="#b6ecf3" points="813.42,-567.23 821.1,-559.94 810.55,-560.84 813.42,-567.23"/>
</g>
<!-- flatiron\.core\.validators -->
<g id="node9" class="node">
<title>flatiron\.core\.validators</title>
<polygon fill="#343434" stroke="#343434" points="728,-1531.88 513,-1531.88 513,-1495.88 728,-1495.88 728,-1531.88"/>
<text text-anchor="middle" x="620.5" y="-1510.18" font-family="Courier,monospace" font-size="14.00" fill="#b6ecf3">flatiron.core.validators</text>
</g>
<!-- flatiron\.core\.validators&#45;&gt;flatiron\.core\.config -->
<g id="edge17" class="edge">
<title>flatiron\.core\.validators&#45;&gt;flatiron\.core\.config</title>
<path fill="none" stroke="#b6ecf3" d="M652.42,-1495.84C695,-1471 771.71,-1426.23 818.43,-1398.97"/>
<polygon fill="#b6ecf3" stroke="#b6ecf3" points="820.2,-1401.99 827.07,-1393.93 816.67,-1395.95 820.2,-1401.99"/>
</g>
<!-- flatiron\.core\.validators&#45;&gt;flatiron\.tf\.models\.unet -->
<g id="edge18" class="edge">
<title>flatiron\.core\.validators&#45;&gt;flatiron\.tf\.models\.unet</title>
<path fill="none" stroke="#b6ecf3" d="M691.61,-1531.95C807.06,-1557.31 1039.2,-1589.21 1188,-1481.88 1295.33,-1404.47 1319.23,-1230.07 1324.51,-1161.92"/>
<polygon fill="#b6ecf3" stroke="#b6ecf3" points="1328,-1162.15 1325.21,-1151.93 1321.02,-1161.66 1328,-1162.15"/>
</g>
<!-- click -->
<g id="node15" class="node">
<title>click</title>
<polygon fill="#343434" stroke="#343434" points="70.5,-1241.88 12.5,-1241.88 12.5,-1205.88 70.5,-1205.88 70.5,-1241.88"/>
<text text-anchor="middle" x="41.5" y="-1220.18" font-family="Courier,monospace" font-size="14.00" fill="#de958e">click</text>
</g>
<!-- click&#45;&gt;flatiron\.command -->
<g id="edge19" class="edge">
<title>click&#45;&gt;flatiron\.command</title>
<path fill="none" stroke="#de958e" d="M70.71,-1223.88C81.78,-1223.88 95.1,-1223.88 108.82,-1223.88"/>
<polygon fill="#de958e" stroke="#de958e" points="108.85,-1227.38 118.85,-1223.88 108.85,-1220.38 108.85,-1227.38"/>
</g>
<!-- flatiron\.tf\.models -->
<g id="node16" class="node">
<title>flatiron\.tf\.models</title>
<polygon fill="#343434" stroke="#343434" points="941.5,-41.88 776.5,-41.88 776.5,-5.88 941.5,-5.88 941.5,-41.88"/>
<text text-anchor="middle" x="859" y="-20.18" font-family="Courier,monospace" font-size="14.00" fill="#a0d17b">flatiron.tf.models</text>
</g>
<!-- flatiron\.tf\.models&#45;&gt;flatiron\.tf\.models\.unet -->
<g id="edge20" class="edge">
<title>flatiron\.tf\.models&#45;&gt;flatiron\.tf\.models\.unet</title>
<path fill="none" stroke="#a0d17b" d="M941.72,-6.27C1016.16,4.56 1123.95,6.27 1188,-55.88 1265.93,-131.51 1315.3,-942.87 1324.45,-1105.57"/>
<polygon fill="#a0d17b" stroke="#a0d17b" points="1320.97,-1105.95 1325.02,-1115.74 1327.96,-1105.56 1320.97,-1105.95"/>
</g>
<!-- pydantic -->
<g id="node17" class="node">
<title>pydantic</title>
<polygon fill="#343434" stroke="#343434" points="662,-1347.88 579,-1347.88 579,-1311.88 662,-1311.88 662,-1347.88"/>
<text text-anchor="middle" x="620.5" y="-1326.18" font-family="Courier,monospace" font-size="14.00" fill="#de958e">pydantic</text>
</g>
<!-- pydantic&#45;&gt;flatiron\.core\.config -->
<g id="edge21" class="edge">
<title>pydantic&#45;&gt;flatiron\.core\.config</title>
<path fill="none" stroke="#de958e" d="M662.16,-1337.79C688.6,-1342.94 724.31,-1349.88 758,-1356.44"/>
<polygon fill="#de958e" stroke="#de958e" points="757.43,-1359.89 767.91,-1358.36 758.76,-1353.02 757.43,-1359.89"/>
</g>
<!-- pydantic&#45;&gt;flatiron\.core\.pipeline -->
<g id="edge22" class="edge">
<title>pydantic&#45;&gt;flatiron\.core\.pipeline</title>
<path fill="none" stroke="#de958e" d="M662.29,-1325.34C739.49,-1316.24 903.74,-1294.36 954,-1267.88 1003.49,-1241.81 1046.35,-1191.27 1069.55,-1160.26"/>
<polygon fill="#de958e" stroke="#de958e" points="1072.47,-1162.2 1075.57,-1152.06 1066.83,-1158.06 1072.47,-1162.2"/>
</g>
<!-- pydantic&#45;&gt;flatiron\.tf\.models\.unet -->
<g id="edge23" class="edge">
<title>pydantic&#45;&gt;flatiron\.tf\.models\.unet</title>
<path fill="none" stroke="#de958e" d="M662.16,-1331.04C725.58,-1331.85 851.41,-1329.49 954,-1302.88 1082.21,-1269.64 1221.29,-1194.99 1287.18,-1157.01"/>
<polygon fill="#de958e" stroke="#de958e" points="1289.09,-1159.95 1295.98,-1151.91 1285.58,-1153.9 1289.09,-1159.95"/>
</g>
<!-- typing_extensions -->
<g id="node18" class="node">
<title>typing_extensions</title>
<polygon fill="#343434" stroke="#343434" points="699,-1439.88 542,-1439.88 542,-1403.88 699,-1403.88 699,-1439.88"/>
<text text-anchor="middle" x="620.5" y="-1418.18" font-family="Courier,monospace" font-size="14.00" fill="#de958e">typing_extensions</text>
</g>
<!-- typing_extensions&#45;&gt;flatiron\.core\.config -->
<g id="edge24" class="edge">
<title>typing_extensions&#45;&gt;flatiron\.core\.config</title>
<path fill="none" stroke="#de958e" d="M699.27,-1406.76C718.04,-1403.11 738.36,-1399.16 757.99,-1395.34"/>
<polygon fill="#de958e" stroke="#de958e" points="758.73,-1398.76 767.88,-1393.41 757.39,-1391.89 758.73,-1398.76"/>
</g>
<!-- typing_extensions&#45;&gt;flatiron\.tf\.models\.unet -->
<g id="edge25" class="edge">
<title>typing_extensions&#45;&gt;flatiron\.tf\.models\.unet</title>
<path fill="none" stroke="#de958e" d="M699.23,-1427.65C767.79,-1430.35 869.63,-1428.52 954,-1402.88 1106.95,-1356.42 1248.58,-1217.64 1302.74,-1159.72"/>
<polygon fill="#de958e" stroke="#de958e" points="1305.57,-1161.82 1309.8,-1152.11 1300.43,-1157.07 1305.57,-1161.82"/>
</g>
<!-- flatiron\.tf -->
<g id="node19" class="node">
<title>flatiron\.tf</title>
<polygon fill="#343434" stroke="#343434" points="674,-285.88 567,-285.88 567,-249.88 674,-249.88 674,-285.88"/>
<text text-anchor="middle" x="620.5" y="-264.18" font-family="Courier,monospace" font-size="14.00" fill="#a0d17b">flatiron.tf</text>
</g>
<!-- flatiron\.tf&#45;&gt;flatiron\.tf\.loss -->
<g id="edge26" class="edge">
<title>flatiron\.tf&#45;&gt;flatiron\.tf\.loss</title>
<path fill="none" stroke="#a0d17b" d="M674.28,-257.62C703.64,-251.91 740.87,-244.67 774.13,-238.2"/>
<polygon fill="#a0d17b" stroke="#a0d17b" points="775.16,-241.56 784.31,-236.22 773.82,-234.69 775.16,-241.56"/>
</g>
<!-- flatiron\.tf&#45;&gt;flatiron\.tf\.metric -->
<g id="edge27" class="edge">
<title>flatiron\.tf&#45;&gt;flatiron\.tf\.metric</title>
<path fill="none" stroke="#a0d17b" d="M648.17,-285.93C690.93,-314.86 774.86,-371.64 822.59,-403.93"/>
<polygon fill="#a0d17b" stroke="#a0d17b" points="820.82,-406.96 831.06,-409.66 824.74,-401.16 820.82,-406.96"/>
</g>
<!-- flatiron\.tf&#45;&gt;flatiron\.tf\.optimizer -->
<g id="edge28" class="edge">
<title>flatiron\.tf&#45;&gt;flatiron\.tf\.optimizer</title>
<path fill="none" stroke="#a0d17b" d="M674.28,-282.39C706.14,-291.15 747.25,-302.45 782.5,-312.14"/>
<polygon fill="#a0d17b" stroke="#a0d17b" points="781.71,-315.55 792.28,-314.82 783.56,-308.8 781.71,-315.55"/>
</g>
<!-- flatiron\.tf&#45;&gt;flatiron\.tf\.tools -->
<g id="edge29" class="edge">
<title>flatiron\.tf&#45;&gt;flatiron\.tf\.tools</title>
<path fill="none" stroke="#a0d17b" d="M633.7,-285.96C657.21,-320.3 711.16,-396.73 764,-454.88 784.37,-477.3 809.68,-500.5 828.9,-517.3"/>
<polygon fill="#a0d17b" stroke="#a0d17b" points="826.62,-519.95 836.47,-523.86 831.21,-514.66 826.62,-519.95"/>
</g>
<!-- flatiron\.tf&#45;&gt;flatiron\.tf\.models -->
<g id="edge30" class="edge">
<title>flatiron\.tf&#45;&gt;flatiron\.tf\.models</title>
<path fill="none" stroke="#a0d17b" d="M639.28,-249.55C680.98,-206.52 785.2,-99 833.15,-49.53"/>
<polygon fill="#a0d17b" stroke="#a0d17b" points="835.89,-51.72 840.34,-42.1 830.87,-46.85 835.89,-51.72"/>
</g>
<!-- flatiron -->
<g id="node20" class="node">
<title>flatiron</title>
<polygon fill="#343434" stroke="#343434" points="83,-656.88 0,-656.88 0,-620.88 83,-620.88 83,-656.88"/>
<text text-anchor="middle" x="41.5" y="-635.18" font-family="Courier,monospace" font-size="14.00" fill="#a0d17b">flatiron</text>
</g>
<!-- flatiron&#45;&gt;flatiron\.command -->
<g id="edge31" class="edge">
<title>flatiron&#45;&gt;flatiron\.command</title>
<path fill="none" stroke="#a0d17b" d="M42.56,-657.1C43.18,-743.46 49.89,-1110.99 119,-1196.88 119.6,-1197.63 120.22,-1198.35 120.85,-1199.05"/>
<polygon fill="#a0d17b" stroke="#a0d17b" points="118.64,-1201.76 128.42,-1205.83 123.31,-1196.55 118.64,-1201.76"/>
</g>
<!-- flatiron&#45;&gt;flatiron\.tf\.models -->
<g id="edge32" class="edge">
<title>flatiron&#45;&gt;flatiron\.tf\.models</title>
<path fill="none" stroke="#a0d17b" d="M75.92,-620.58C78.66,-617.98 81.1,-615.08 83,-611.88 176.29,-454.54 32.08,-362.84 119,-201.88 168.77,-109.72 206.08,-93.07 304,-55.88 458.09,2.63 653.66,-2.78 766.44,-12.8"/>
<polygon fill="#a0d17b" stroke="#a0d17b" points="766.14,-16.29 776.42,-13.72 766.78,-9.32 766.14,-16.29"/>
</g>
<!-- flatiron&#45;&gt;flatiron\.tf -->
<g id="edge33" class="edge">
<title>flatiron&#45;&gt;flatiron\.tf</title>
<path fill="none" stroke="#a0d17b" d="M75.87,-620.55C78.62,-617.95 81.08,-615.07 83,-611.88 122.75,-546.1 61.89,-319.33 119,-267.88 242.37,-156.76 460.42,-211.53 563.07,-246.45"/>
<polygon fill="#a0d17b" stroke="#a0d17b" points="562.05,-249.8 572.64,-249.76 564.34,-243.18 562.05,-249.8"/>
</g>
<!-- flatiron\.core -->
<g id="node27" class="node">
<title>flatiron\.core</title>
<polygon fill="#343434" stroke="#343434" points="255.5,-1187.88 131.5,-1187.88 131.5,-1151.88 255.5,-1151.88 255.5,-1187.88"/>
<text text-anchor="middle" x="193.5" y="-1166.18" font-family="Courier,monospace" font-size="14.00" fill="#a0d17b">flatiron.core</text>
</g>
<!-- flatiron&#45;&gt;flatiron\.core -->
<g id="edge34" class="edge">
<title>flatiron&#45;&gt;flatiron\.core</title>
<path fill="none" stroke="#a0d17b" d="M47.66,-657.16C69.91,-735.91 157.65,-1046.53 184.59,-1141.89"/>
<polygon fill="#a0d17b" stroke="#a0d17b" points="181.27,-1143.01 187.36,-1151.68 188.01,-1141.11 181.27,-1143.01"/>
</g>
<!-- cv_depot\.api -->
<g id="node21" class="node">
<title>cv_depot\.api</title>
<polygon fill="#343434" stroke="#343434" points="678.5,-1065.88 562.5,-1065.88 562.5,-1029.88 678.5,-1029.88 678.5,-1065.88"/>
<text text-anchor="middle" x="620.5" y="-1044.18" font-family="Courier,monospace" font-size="14.00" fill="#de958e">cv_depot.api</text>
</g>
<!-- cv_depot\.api&#45;&gt;flatiron\.core\.dataset -->
<g id="edge35" class="edge">
<title>cv_depot\.api&#45;&gt;flatiron\.core\.dataset</title>
<path fill="none" stroke="#de958e" d="M678.67,-1036.83C694.95,-1032.77 712.47,-1027.5 728,-1020.88 763.39,-1005.81 800.29,-981.91 825.7,-963.97"/>
<polygon fill="#de958e" stroke="#de958e" points="827.75,-966.8 833.85,-958.14 823.68,-961.11 827.75,-966.8"/>
</g>
<!-- humanfriendly -->
<g id="node22" class="node">
<title>humanfriendly</title>
<polygon fill="#343434" stroke="#343434" points="682.5,-1011.88 558.5,-1011.88 558.5,-975.88 682.5,-975.88 682.5,-1011.88"/>
<text text-anchor="middle" x="620.5" y="-990.18" font-family="Courier,monospace" font-size="14.00" fill="#de958e">humanfriendly</text>
</g>
<!-- humanfriendly&#45;&gt;flatiron\.core\.dataset -->
<g id="edge36" class="edge">
<title>humanfriendly&#45;&gt;flatiron\.core\.dataset</title>
<path fill="none" stroke="#de958e" d="M682.71,-979.91C708.91,-973.93 740.02,-966.82 768.71,-960.27"/>
<polygon fill="#de958e" stroke="#de958e" points="769.78,-963.62 778.75,-957.98 768.22,-956.79 769.78,-963.62"/>
</g>
<!-- sklearn\.model_selection -->
<g id="node23" class="node">
<title>sklearn\.model_selection</title>
<polygon fill="#343434" stroke="#343434" points="723.5,-957.88 517.5,-957.88 517.5,-921.88 723.5,-921.88 723.5,-957.88"/>
<text text-anchor="middle" x="620.5" y="-936.18" font-family="Courier,monospace" font-size="14.00" fill="#de958e">sklearn.model_selection</text>
</g>
<!-- sklearn\.model_selection&#45;&gt;flatiron\.core\.dataset -->
<g id="edge37" class="edge">
<title>sklearn\.model_selection&#45;&gt;flatiron\.core\.dataset</title>
<path fill="none" stroke="#de958e" d="M723.51,-939.88C733.44,-939.88 743.53,-939.88 753.48,-939.88"/>
<polygon fill="#de958e" stroke="#de958e" points="753.79,-943.38 763.79,-939.88 753.79,-936.38 753.79,-943.38"/>
</g>
<!-- pandas -->
<g id="node24" class="node">
<title>pandas</title>
<polygon fill="#343434" stroke="#343434" points="653.5,-903.88 587.5,-903.88 587.5,-867.88 653.5,-867.88 653.5,-903.88"/>
<text text-anchor="middle" x="620.5" y="-882.18" font-family="Courier,monospace" font-size="14.00" fill="#de958e">pandas</text>
</g>
<!-- pandas&#45;&gt;flatiron\.core\.dataset -->
<g id="edge38" class="edge">
<title>pandas&#45;&gt;flatiron\.core\.dataset</title>
<path fill="none" stroke="#de958e" d="M653.89,-893.28C683.52,-900.04 728.74,-910.37 769.1,-919.59"/>
<polygon fill="#de958e" stroke="#de958e" points="768.45,-923.03 778.97,-921.84 770,-916.2 768.45,-923.03"/>
</g>
<!-- keras -->
<g id="node25" class="node">
<title>keras</title>
<polygon fill="#343434" stroke="#343434" points="222.5,-312.88 164.5,-312.88 164.5,-276.88 222.5,-276.88 222.5,-312.88"/>
<text text-anchor="middle" x="193.5" y="-291.18" font-family="Courier,monospace" font-size="14.00" fill="#de958e">keras</text>
</g>
<!-- keras&#45;&gt;flatiron\.core\.types -->
<g id="edge39" class="edge">
<title>keras&#45;&gt;flatiron\.core\.types</title>
<path fill="none" stroke="#de958e" d="M206.82,-313.22C221.72,-335.56 247.36,-374.58 268,-408.88 308.47,-476.16 352.75,-557.35 375.01,-598.74"/>
<polygon fill="#de958e" stroke="#de958e" points="371.98,-600.51 379.79,-607.66 378.15,-597.2 371.98,-600.51"/>
</g>
<!-- keras&#45;&gt;flatiron\.tf\.loss -->
<g id="edge40" class="edge">
<title>keras&#45;&gt;flatiron\.tf\.loss</title>
<path fill="none" stroke="#de958e" d="M222.83,-279.55C277.17,-251.11 400.65,-191.14 513,-169.88 606.89,-152.12 634.17,-151.81 728,-169.88 757.84,-175.63 789.54,-188.17 814.17,-199.49"/>
<polygon fill="#de958e" stroke="#de958e" points="812.7,-202.67 823.24,-203.76 815.68,-196.34 812.7,-202.67"/>
</g>
<!-- keras&#45;&gt;flatiron\.tf\.metric -->
<g id="edge41" class="edge">
<title>keras&#45;&gt;flatiron\.tf\.metric</title>
<path fill="none" stroke="#de958e" d="M222.59,-300.51C315.27,-319.09 614.14,-379 766.65,-409.57"/>
<polygon fill="#de958e" stroke="#de958e" points="765.98,-413.01 776.48,-411.54 767.36,-406.15 765.98,-413.01"/>
</g>
<!-- keras&#45;&gt;flatiron\.tf\.models\.unet -->
<g id="edge42" class="edge">
<title>keras&#45;&gt;flatiron\.tf\.models\.unet</title>
<path fill="none" stroke="#de958e" d="M206.47,-276.75C224.59,-250.63 261.43,-202.54 304,-174.88 427.92,-94.37 471.72,-69.88 619.5,-69.88 619.5,-69.88 619.5,-69.88 860,-69.88 1020.48,-69.88 1091.56,-92.61 1188,-220.88 1296.92,-365.75 1321.09,-967.04 1325.25,-1105.41"/>
<polygon fill="#de958e" stroke="#de958e" points="1321.76,-1105.72 1325.55,-1115.61 1328.76,-1105.51 1321.76,-1105.72"/>
</g>
<!-- keras&#45;&gt;flatiron\.tf\.optimizer -->
<g id="edge43" class="edge">
<title>keras&#45;&gt;flatiron\.tf\.optimizer</title>
<path fill="none" stroke="#de958e" d="M222.59,-294.74C273.4,-294.63 383.93,-295.04 477,-299.88 570.75,-304.77 677.18,-314.33 753.67,-321.9"/>
<polygon fill="#de958e" stroke="#de958e" points="753.49,-325.4 763.79,-322.91 754.19,-318.44 753.49,-325.4"/>
</g>
<!-- keras&#45;&gt;flatiron\.tf\.tools -->
<g id="edge44" class="edge">
<title>keras&#45;&gt;flatiron\.tf\.tools</title>
<path fill="none" stroke="#de958e" d="M222.79,-310.28C244.59,-321.79 275.7,-337.44 304,-348.88 487.47,-423.07 542.91,-414.84 728,-484.88 755.67,-495.36 785.98,-508.54 810.37,-519.6"/>
<polygon fill="#de958e" stroke="#de958e" points="809.2,-522.91 819.75,-523.87 812.1,-516.54 809.2,-522.91"/>
</g>
<!-- tensorflow -->
<g id="node26" class="node">
<title>tensorflow</title>
<polygon fill="#343434" stroke="#343434" points="243,-453.88 144,-453.88 144,-417.88 243,-417.88 243,-453.88"/>
<text text-anchor="middle" x="193.5" y="-432.18" font-family="Courier,monospace" font-size="14.00" fill="#de958e">tensorflow</text>
</g>
<!-- tensorflow&#45;&gt;flatiron\.core\.types -->
<g id="edge45" class="edge">
<title>tensorflow&#45;&gt;flatiron\.core\.types</title>
<path fill="none" stroke="#de958e" d="M213.2,-454.1C248.14,-488.15 323.42,-561.5 363.36,-600.42"/>
<polygon fill="#de958e" stroke="#de958e" points="361.25,-603.25 370.86,-607.72 366.14,-598.24 361.25,-603.25"/>
</g>
<!-- tensorflow&#45;&gt;flatiron\.tf\.loss -->
<g id="edge46" class="edge">
<title>tensorflow&#45;&gt;flatiron\.tf\.loss</title>
<path fill="none" stroke="#de958e" d="M211.26,-417.76C255.27,-371.66 379.94,-250.6 513,-207.88 598.82,-180.33 702.84,-189.98 774.08,-202.62"/>
<polygon fill="#de958e" stroke="#de958e" points="773.87,-206.15 784.34,-204.51 775.14,-199.26 773.87,-206.15"/>
</g>
<!-- tensorflow&#45;&gt;flatiron\.tf\.metric -->
<g id="edge47" class="edge">
<title>tensorflow&#45;&gt;flatiron\.tf\.metric</title>
<path fill="none" stroke="#de958e" d="M243.02,-435.3C353.15,-433.97 623.52,-430.71 766.27,-428.99"/>
<polygon fill="#de958e" stroke="#de958e" points="766.37,-432.49 776.33,-428.87 766.29,-425.49 766.37,-432.49"/>
</g>
<!-- tensorflow&#45;&gt;flatiron\.tf\.models\.unet -->
<g id="edge48" class="edge">
<title>tensorflow&#45;&gt;flatiron\.tf\.models\.unet</title>
<path fill="none" stroke="#de958e" d="M208.11,-417.71C224.02,-395.83 250.42,-357.59 268,-321.88 289.05,-279.13 267.39,-251.4 304,-220.88 415.05,-128.33 835.88,-111.54 954,-194.88 1276.25,-422.28 1319.4,-974.97 1325.13,-1105.79"/>
<polygon fill="#de958e" stroke="#de958e" points="1321.64,-1105.95 1325.53,-1115.81 1328.63,-1105.68 1321.64,-1105.95"/>
</g>
<!-- tensorflow&#45;&gt;flatiron\.tf\.optimizer -->
<g id="edge49" class="edge">
<title>tensorflow&#45;&gt;flatiron\.tf\.optimizer</title>
<path fill="none" stroke="#de958e" d="M243.02,-428.35C349.94,-411.75 607.9,-371.71 753.48,-349.11"/>
<polygon fill="#de958e" stroke="#de958e" points="754.42,-352.51 763.76,-347.51 753.34,-345.59 754.42,-352.51"/>
</g>
<!-- tensorflow&#45;&gt;flatiron\.tf\.tools -->
<g id="edge50" class="edge">
<title>tensorflow&#45;&gt;flatiron\.tf\.tools</title>
<path fill="none" stroke="#de958e" d="M243.02,-443.64C354.25,-461.41 628.9,-505.28 770.49,-527.9"/>
<polygon fill="#de958e" stroke="#de958e" points="770.02,-531.37 780.45,-529.5 771.13,-524.46 770.02,-531.37"/>
</g>
<!-- flatiron\.core&#45;&gt;flatiron\.core\.config -->
<g id="edge51" class="edge">
<title>flatiron\.core&#45;&gt;flatiron\.core\.config</title>
<path fill="none" stroke="#a0d17b" d="M255.71,-1187.29C260.19,-1190.04 264.36,-1193.21 268,-1196.88 301.53,-1230.74 269.19,-1265.34 304,-1297.88 367.92,-1357.64 616.29,-1371.92 757.81,-1375.14"/>
<polygon fill="#a0d17b" stroke="#a0d17b" points="757.74,-1378.64 767.81,-1375.35 757.89,-1371.64 757.74,-1378.64"/>
</g>
<!-- flatiron\.core&#45;&gt;flatiron\.core\.dataset -->
<g id="edge52" class="edge">
<title>flatiron\.core&#45;&gt;flatiron\.core\.dataset</title>
<path fill="none" stroke="#a0d17b" d="M255.76,-1169.8C378.53,-1168.62 649.61,-1160.63 728,-1113.88 786.37,-1079.08 826.99,-1007.04 845.92,-967.44"/>
<polygon fill="#a0d17b" stroke="#a0d17b" points="849.21,-968.66 850.26,-958.12 842.86,-965.71 849.21,-968.66"/>
</g>
<!-- flatiron\.core&#45;&gt;flatiron\.core\.logging -->
<g id="edge53" class="edge">
<title>flatiron\.core&#45;&gt;flatiron\.core\.logging</title>
<path fill="none" stroke="#a0d17b" d="M255.76,-1179.11C271.45,-1181.09 288.32,-1182.89 304,-1183.88 460.4,-1193.84 642.1,-1187.08 753.56,-1180.84"/>
<polygon fill="#a0d17b" stroke="#a0d17b" points="754.01,-1184.32 763.79,-1180.26 753.61,-1177.33 754.01,-1184.32"/>
</g>
<!-- flatiron\.core&#45;&gt;flatiron\.core\.pipeline -->
<g id="edge54" class="edge">
<title>flatiron\.core&#45;&gt;flatiron\.core\.pipeline</title>
<path fill="none" stroke="#a0d17b" d="M249.05,-1187.89C266.42,-1192.79 285.84,-1197.42 304,-1199.88 590.27,-1238.71 672.84,-1267.26 954,-1200.88 989.55,-1192.49 1026.42,-1173.14 1052.47,-1157.39"/>
<polygon fill="#a0d17b" stroke="#a0d17b" points="1054.54,-1160.22 1061.21,-1151.99 1050.86,-1154.26 1054.54,-1160.22"/>
</g>
<!-- flatiron\.core&#45;&gt;flatiron\.core\.tools -->
<g id="edge55" class="edge">
<title>flatiron\.core&#45;&gt;flatiron\.core\.tools</title>
<path fill="none" stroke="#a0d17b" d="M193.78,-1151.83C192.44,-1091.56 196.82,-895.64 304,-798.88 312.3,-791.39 434.18,-770.11 523.98,-755.27"/>
<polygon fill="#a0d17b" stroke="#a0d17b" points="524.63,-758.71 533.93,-753.63 523.5,-751.8 524.63,-758.71"/>
</g>
<!-- flatiron\.core&#45;&gt;flatiron\.core\.types -->
<g id="edge56" class="edge">
<title>flatiron\.core&#45;&gt;flatiron\.core\.types</title>
<path fill="none" stroke="#a0d17b" d="M195.92,-1151.79C202.76,-1069.25 234.8,-729.16 304,-652.88 304.76,-652.05 305.54,-651.24 306.35,-650.45"/>
<polygon fill="#a0d17b" stroke="#a0d17b" points="308.67,-653.08 314.2,-644.04 304.24,-647.66 308.67,-653.08"/>
</g>
<!-- flatiron\.core&#45;&gt;flatiron\.core\.validators -->
<g id="edge57" class="edge">
<title>flatiron\.core&#45;&gt;flatiron\.core\.validators</title>
<path fill="none" stroke="#a0d17b" d="M255.68,-1186.24C260.28,-1189.22 264.49,-1192.73 268,-1196.88 324.32,-1263.53 249.8,-1321.51 304,-1389.88 352.17,-1450.66 434.34,-1481.72 502.75,-1497.56"/>
<polygon fill="#a0d17b" stroke="#a0d17b" points="502.22,-1501.02 512.74,-1499.79 503.74,-1494.19 502.22,-1501.02"/>
</g>
<!-- lunchbox\.tools -->
<g id="node28" class="node">
<title>lunchbox\.tools</title>
<polygon fill="#343434" stroke="#343434" points="456.5,-1011.88 324.5,-1011.88 324.5,-975.88 456.5,-975.88 456.5,-1011.88"/>
<text text-anchor="middle" x="390.5" y="-990.18" font-family="Courier,monospace" font-size="14.00" fill="#de958e">lunchbox.tools</text>
</g>
<!-- lunchbox\.tools&#45;&gt;flatiron\.core\.logging -->
<g id="edge58" class="edge">
<title>lunchbox\.tools&#45;&gt;flatiron\.core\.logging</title>
<path fill="none" stroke="#de958e" d="M405.34,-1012.24C425.85,-1038.01 466.87,-1084.38 513,-1107.88 587.96,-1146.08 682.33,-1162.28 753.41,-1169.09"/>
<polygon fill="#de958e" stroke="#de958e" points="753.45,-1172.61 763.73,-1170.03 754.08,-1165.64 753.45,-1172.61"/>
</g>
<!-- lunchbox\.tools&#45;&gt;flatiron\.core\.tools -->
<g id="edge59" class="edge">
<title>lunchbox\.tools&#45;&gt;flatiron\.core\.tools</title>
<path fill="none" stroke="#de958e" d="M403.74,-975.69C421.22,-949.29 453.76,-898.55 477,-852.88 495.79,-815.96 481.61,-793.94 513,-766.88 516.69,-763.71 520.7,-760.89 524.94,-758.4"/>
<polygon fill="#de958e" stroke="#de958e" points="526.65,-761.46 533.91,-753.73 523.42,-755.25 526.65,-761.46"/>
</g>
<!-- yaml -->
<g id="node29" class="node">
<title>yaml</title>
<polygon fill="#343434" stroke="#343434" points="417.5,-843.88 363.5,-843.88 363.5,-807.88 417.5,-807.88 417.5,-843.88"/>
<text text-anchor="middle" x="390.5" y="-822.18" font-family="Courier,monospace" font-size="14.00" fill="#de958e">yaml</text>
</g>
<!-- yaml&#45;&gt;flatiron\.core\.pipeline -->
<g id="edge60" class="edge">
<title>yaml&#45;&gt;flatiron\.core\.pipeline</title>
<path fill="none" stroke="#de958e" d="M404.51,-844.3C422.62,-870.54 455.6,-920.64 477,-966.88 498.25,-1012.8 473.52,-1043.24 513,-1074.88 530.95,-1089.27 818.32,-1113.33 979.85,-1125.81"/>
<polygon fill="#de958e" stroke="#de958e" points="979.59,-1129.3 989.83,-1126.58 980.13,-1122.33 979.59,-1129.3"/>
</g>
<!-- yaml&#45;&gt;flatiron\.core\.tools -->
<g id="edge61" class="edge">
<title>yaml&#45;&gt;flatiron\.core\.tools</title>
<path fill="none" stroke="#de958e" d="M417.78,-818.21C435.14,-812.62 458.09,-804.23 477,-793.88 494.54,-784.28 494.96,-775.51 513,-766.88 517.08,-764.94 521.32,-763.11 525.65,-761.42"/>
<polygon fill="#de958e" stroke="#de958e" points="527.07,-764.62 535.25,-757.89 524.66,-758.05 527.07,-764.62"/>
</g>
<!-- lunchbox\.enforce -->
<g id="node30" class="node">
<title>lunchbox\.enforce</title>
<polygon fill="#343434" stroke="#343434" points="465,-1141.88 316,-1141.88 316,-1105.88 465,-1105.88 465,-1141.88"/>
<text text-anchor="middle" x="390.5" y="-1120.18" font-family="Courier,monospace" font-size="14.00" fill="#de958e">lunchbox.enforce</text>
</g>
<!-- lunchbox\.enforce&#45;&gt;flatiron\.core\.dataset -->
<g id="edge62" class="edge">
<title>lunchbox\.enforce&#45;&gt;flatiron\.core\.dataset</title>
<path fill="none" stroke="#de958e" d="M465.2,-1126.57C536.29,-1126.17 645.02,-1117.5 728,-1074.88 777.47,-1049.48 818.84,-997.81 840.86,-966.28"/>
<polygon fill="#de958e" stroke="#de958e" points="843.8,-968.19 846.55,-957.96 838.02,-964.24 843.8,-968.19"/>
</g>
<!-- lunchbox\.enforce&#45;&gt;flatiron\.core\.tools -->
<g id="edge63" class="edge">
<title>lunchbox\.enforce&#45;&gt;flatiron\.core\.tools</title>
<path fill="none" stroke="#de958e" d="M412.2,-1105.64C432.31,-1086.62 461.95,-1054.89 477,-1020.88 523.16,-916.63 436.83,-851.72 513,-766.88 516.57,-762.91 520.64,-759.48 525.05,-756.52"/>
<polygon fill="#de958e" stroke="#de958e" points="527,-759.43 533.91,-751.4 523.5,-753.37 527,-759.43"/>
</g>
<!-- lunchbox\.enforce&#45;&gt;flatiron\.tf\.models\.unet -->
<g id="edge64" class="edge">
<title>lunchbox\.enforce&#45;&gt;flatiron\.tf\.models\.unet</title>
<path fill="none" stroke="#de958e" d="M396.95,-1142C416.89,-1207.65 486.03,-1430.17 513,-1448.88 637.73,-1535.41 1068.91,-1438.02 1188,-1343.88 1251.48,-1293.71 1295.41,-1206.01 1314.8,-1161.49"/>
<polygon fill="#de958e" stroke="#de958e" points="1318.08,-1162.74 1318.78,-1152.17 1311.64,-1160 1318.08,-1162.74"/>
</g>
<!-- numpy -->
<g id="node31" class="node">
<title>numpy</title>
<polygon fill="#343434" stroke="#343434" points="222.5,-597.88 164.5,-597.88 164.5,-561.88 222.5,-561.88 222.5,-597.88"/>
<text text-anchor="middle" x="193.5" y="-576.18" font-family="Courier,monospace" font-size="14.00" fill="#de958e">numpy</text>
</g>
<!-- numpy&#45;&gt;flatiron\.core\.dataset -->
<g id="edge65" class="edge">
<title>numpy&#45;&gt;flatiron\.core\.dataset</title>
<path fill="none" stroke="#de958e" d="M195.32,-598C198.71,-648.74 216.02,-792.47 304,-852.88 323.42,-866.22 705.4,-852.25 728,-858.88 766.28,-870.13 804.35,-896.02 829.3,-915.52"/>
<polygon fill="#de958e" stroke="#de958e" points="827.24,-918.36 837.24,-921.86 831.61,-912.89 827.24,-918.36"/>
</g>
<!-- numpy&#45;&gt;flatiron\.core\.types -->
<g id="edge66" class="edge">
<title>numpy&#45;&gt;flatiron\.core\.types</title>
<path fill="none" stroke="#de958e" d="M222.85,-586.57C244.11,-591.59 274.41,-598.73 303.35,-605.56"/>
<polygon fill="#de958e" stroke="#de958e" points="302.56,-608.97 313.1,-607.86 304.17,-602.16 302.56,-608.97"/>
</g>
<!-- numpy&#45;&gt;flatiron\.tf\.loss -->
<g id="edge67" class="edge">
<title>numpy&#45;&gt;flatiron\.tf\.loss</title>
<path fill="none" stroke="#de958e" d="M214.03,-561.87C261.42,-517.75 385.35,-399.91 477,-290.88 494.62,-269.92 488.98,-254.03 513,-240.88 556.34,-217.16 686.75,-216.1 774.23,-218.36"/>
<polygon fill="#de958e" stroke="#de958e" points="774.32,-221.86 784.42,-218.64 774.52,-214.87 774.32,-221.86"/>
</g>
<!-- numpy&#45;&gt;flatiron\.tf\.metric -->
<g id="edge68" class="edge">
<title>numpy&#45;&gt;flatiron\.tf\.metric</title>
<path fill="none" stroke="#de958e" d="M222.59,-573.45C315.87,-552.08 618.04,-482.86 769.61,-448.13"/>
<polygon fill="#de958e" stroke="#de958e" points="770.4,-451.54 779.37,-445.9 768.84,-444.72 770.4,-451.54"/>
</g>
<!-- numpy&#45;&gt;flatiron\.tf\.tools -->
<g id="edge69" class="edge">
<title>numpy&#45;&gt;flatiron\.tf\.tools</title>
<path fill="none" stroke="#de958e" d="M222.59,-579.24C302.02,-577.28 535.02,-570.6 728,-555.88 741.66,-554.84 756.1,-553.51 770.2,-552.09"/>
<polygon fill="#de958e" stroke="#de958e" points="770.81,-555.55 780.39,-551.04 770.09,-548.59 770.81,-555.55"/>
</g>
<!-- tqdm\.notebook -->
<g id="node32" class="node">
<title>tqdm\.notebook</title>
<polygon fill="#343434" stroke="#343434" points="682.5,-811.88 558.5,-811.88 558.5,-775.88 682.5,-775.88 682.5,-811.88"/>
<text text-anchor="middle" x="620.5" y="-790.18" font-family="Courier,monospace" font-size="14.00" fill="#de958e">tqdm.notebook</text>
</g>
<!-- tqdm\.notebook&#45;&gt;flatiron\.core\.dataset -->
<g id="edge70" class="edge">
<title>tqdm\.notebook&#45;&gt;flatiron\.core\.dataset</title>
<path fill="none" stroke="#de958e" d="M682.59,-804.57C698.39,-809.31 714.69,-816.12 728,-825.88 750.96,-842.73 743.65,-858.96 764,-878.88 778.8,-893.37 797.54,-906.36 814.39,-916.59"/>
<polygon fill="#de958e" stroke="#de958e" points="812.61,-919.6 823,-921.68 816.17,-913.58 812.61,-919.6"/>
</g>
<!-- lunchbox\.stopwatch -->
<g id="node33" class="node">
<title>lunchbox\.stopwatch</title>
<polygon fill="#343434" stroke="#343434" points="473,-751.88 308,-751.88 308,-715.88 473,-715.88 473,-751.88"/>
<text text-anchor="middle" x="390.5" y="-730.18" font-family="Courier,monospace" font-size="14.00" fill="#de958e">lunchbox.stopwatch</text>
</g>
<!-- lunchbox\.stopwatch&#45;&gt;flatiron\.core\.tools -->
<g id="edge71" class="edge">
<title>lunchbox\.stopwatch&#45;&gt;flatiron\.core\.tools</title>
<path fill="none" stroke="#de958e" d="M473.17,-736.03C489.46,-736.46 506.72,-736.92 523.45,-737.36"/>
<polygon fill="#de958e" stroke="#de958e" points="523.69,-740.86 533.78,-737.63 523.88,-733.87 523.69,-740.86"/>
</g>
<!-- pytz -->
<g id="node34" class="node">
<title>pytz</title>
<polygon fill="#343434" stroke="#343434" points="417.5,-697.88 363.5,-697.88 363.5,-661.88 417.5,-661.88 417.5,-697.88"/>
<text text-anchor="middle" x="390.5" y="-676.18" font-family="Courier,monospace" font-size="14.00" fill="#de958e">pytz</text>
</g>
<!-- pytz&#45;&gt;flatiron\.core\.tools -->
<g id="edge72" class="edge">
<title>pytz&#45;&gt;flatiron\.core\.tools</title>
<path fill="none" stroke="#de958e" d="M417.65,-686.77C447.61,-694.65 498.08,-707.93 541.06,-719.24"/>
<polygon fill="#de958e" stroke="#de958e" points="540.4,-722.69 550.96,-721.85 542.18,-715.92 540.4,-722.69"/>
</g>
</g>
</svg>
