<?xml version="1.0" encoding="UTF-8" standalone="no"?>
<!DOCTYPE svg PUBLIC "-//W3C//DTD SVG 1.1//EN"
 "http://www.w3.org/Graphics/SVG/1.1/DTD/svg11.dtd">
<!-- Generated by graphviz version 2.43.0 (0)
 -->
<!-- Title: %3 Pages: 1 -->
<svg width="793pt" height="460pt"
 viewBox="0.00 0.00 793.00 460.00" xmlns="http://www.w3.org/2000/svg" xmlns:xlink="http://www.w3.org/1999/xlink">
<g id="graph0" class="graph" transform="scale(1 1) rotate(0) translate(4 456)">
<title>%3</title>
<polygon fill="#242424" stroke="transparent" points="-4,4 -4,-456 789,-456 789,4 -4,4"/>
<!-- cli -->
<g id="node1" class="node">
<title>cli</title>
<polygon fill="#343434" stroke="#343434" points="68.5,-398 14.5,-398 14.5,-362 68.5,-362 68.5,-398"/>
<text text-anchor="middle" x="41.5" y="-376.3" font-family="Courier,monospace" font-size="14.00" fill="#b6ecf3">cli</text>
</g>
<!-- flatiron.core.dataset -->
<g id="node2" class="node">
<title>flatiron.core.dataset</title>
<polygon fill="#343434" stroke="#343434" points="785,-190 595,-190 595,-154 785,-154 785,-190"/>
<text text-anchor="middle" x="690" y="-168.3" font-family="Courier,monospace" font-size="14.00" fill="#b6ecf3">flatiron.core.dataset</text>
</g>
<!-- flatiron.core.tools -->
<g id="node3" class="node">
<title>flatiron.core.tools</title>
<polygon fill="#343434" stroke="#343434" points="559,-290 386,-290 386,-254 559,-254 559,-290"/>
<text text-anchor="middle" x="472.5" y="-268.3" font-family="Courier,monospace" font-size="14.00" fill="#b6ecf3">flatiron.core.tools</text>
</g>
<!-- flatiron.core.tools&#45;&gt;flatiron.core.dataset -->
<g id="edge1" class="edge">
<title>flatiron.core.tools&#45;&gt;flatiron.core.dataset</title>
<path fill="none" stroke="#b6ecf3" d="M536.16,-253.86C543.94,-251.13 551.72,-248.16 559,-245 591.61,-230.87 626.64,-210.9 652.11,-195.41"/>
<polygon fill="#b6ecf3" stroke="#b6ecf3" points="654.01,-198.36 660.7,-190.14 650.35,-192.39 654.01,-198.36"/>
</g>
<!-- flatiron -->
<g id="node4" class="node">
<title>flatiron</title>
<polygon fill="#343434" stroke="#343434" points="83,-452 0,-452 0,-416 83,-416 83,-452"/>
<text text-anchor="middle" x="41.5" y="-430.3" font-family="Courier,monospace" font-size="14.00" fill="#a0d17b">flatiron</text>
</g>
<!-- flatiron.core -->
<g id="node5" class="node">
<title>flatiron.core</title>
<polygon fill="#343434" stroke="#343434" points="296.5,-452 172.5,-452 172.5,-416 296.5,-416 296.5,-452"/>
<text text-anchor="middle" x="234.5" y="-430.3" font-family="Courier,monospace" font-size="14.00" fill="#a0d17b">flatiron.core</text>
</g>
<!-- flatiron&#45;&gt;flatiron.core -->
<g id="edge2" class="edge">
<title>flatiron&#45;&gt;flatiron.core</title>
<path fill="none" stroke="#a0d17b" d="M83.01,-434C106.02,-434 135.49,-434 162.25,-434"/>
<polygon fill="#a0d17b" stroke="#a0d17b" points="162.35,-437.5 172.35,-434 162.35,-430.5 162.35,-437.5"/>
</g>
<!-- flatiron.core&#45;&gt;flatiron.core.dataset -->
<g id="edge3" class="edge">
<title>flatiron.core&#45;&gt;flatiron.core.dataset</title>
<path fill="none" stroke="#a0d17b" d="M296.64,-422.5C314.13,-418.43 333.05,-413.27 350,-407 448.06,-370.73 474.23,-360.21 559,-299 600.91,-268.74 642.42,-225.2 666.88,-197.77"/>
<polygon fill="#a0d17b" stroke="#a0d17b" points="669.61,-199.96 673.61,-190.14 664.36,-195.33 669.61,-199.96"/>
</g>
<!-- flatiron.core&#45;&gt;flatiron.core.tools -->
<g id="edge4" class="edge">
<title>flatiron.core&#45;&gt;flatiron.core.tools</title>
<path fill="none" stroke="#a0d17b" d="M296.71,-427.32C314.86,-423.35 334.12,-417.04 350,-407 371.65,-393.31 369.16,-381.3 386,-362 405.58,-339.55 428.95,-315.1 446.3,-297.35"/>
<polygon fill="#a0d17b" stroke="#a0d17b" points="448.83,-299.77 453.34,-290.19 443.84,-294.87 448.83,-299.77"/>
</g>
<!-- humanfriendly -->
<g id="node6" class="node">
<title>humanfriendly</title>
<polygon fill="#343434" stroke="#343434" points="534.5,-236 410.5,-236 410.5,-200 534.5,-200 534.5,-236"/>
<text text-anchor="middle" x="472.5" y="-214.3" font-family="Courier,monospace" font-size="14.00" fill="#de958e">humanfriendly</text>
</g>
<!-- humanfriendly&#45;&gt;flatiron.core.dataset -->
<g id="edge5" class="edge">
<title>humanfriendly&#45;&gt;flatiron.core.dataset</title>
<path fill="none" stroke="#de958e" d="M534.68,-204.94C553.28,-200.97 574.19,-196.51 594.45,-192.18"/>
<polygon fill="#de958e" stroke="#de958e" points="595.29,-195.58 604.34,-190.07 593.83,-188.74 595.29,-195.58"/>
</g>
<!-- lunchbox.enforce -->
<g id="node7" class="node">
<title>lunchbox.enforce</title>
<polygon fill="#343434" stroke="#343434" points="309,-128 160,-128 160,-92 309,-92 309,-128"/>
<text text-anchor="middle" x="234.5" y="-106.3" font-family="Courier,monospace" font-size="14.00" fill="#de958e">lunchbox.enforce</text>
</g>
<!-- lunchbox.enforce&#45;&gt;flatiron.core.dataset -->
<g id="edge6" class="edge">
<title>lunchbox.enforce&#45;&gt;flatiron.core.dataset</title>
<path fill="none" stroke="#de958e" d="M309.07,-125.2C322.8,-128.64 336.94,-132.6 350,-137 366.59,-142.59 368.99,-148.83 386,-153 450.85,-168.9 525.7,-173.71 584.79,-174.52"/>
<polygon fill="#de958e" stroke="#de958e" points="584.85,-178.02 594.88,-174.63 584.92,-171.03 584.85,-178.02"/>
</g>
<!-- lunchbox.enforce&#45;&gt;flatiron.core.tools -->
<g id="edge7" class="edge">
<title>lunchbox.enforce&#45;&gt;flatiron.core.tools</title>
<path fill="none" stroke="#de958e" d="M309.02,-115.83C323.99,-119.98 338.62,-126.6 350,-137 387.35,-171.13 349.94,-209.51 386,-245 387.07,-246.06 388.19,-247.07 389.34,-248.05"/>
<polygon fill="#de958e" stroke="#de958e" points="387.28,-250.88 397.43,-253.94 391.4,-245.22 387.28,-250.88"/>
</g>
<!-- lunchbox.stopwatch -->
<g id="node8" class="node">
<title>lunchbox.stopwatch</title>
<polygon fill="#343434" stroke="#343434" points="317,-398 152,-398 152,-362 317,-362 317,-398"/>
<text text-anchor="middle" x="234.5" y="-376.3" font-family="Courier,monospace" font-size="14.00" fill="#de958e">lunchbox.stopwatch</text>
</g>
<!-- lunchbox.stopwatch&#45;&gt;flatiron.core.tools -->
<g id="edge8" class="edge">
<title>lunchbox.stopwatch&#45;&gt;flatiron.core.tools</title>
<path fill="none" stroke="#de958e" d="M317.06,-364.57C328.33,-361.34 339.6,-357.52 350,-353 383.55,-338.43 417.88,-314.55 441.45,-296.49"/>
<polygon fill="#de958e" stroke="#de958e" points="443.88,-299.03 449.62,-290.12 439.58,-293.5 443.88,-299.03"/>
</g>
<!-- lunchbox.tools -->
<g id="node9" class="node">
<title>lunchbox.tools</title>
<polygon fill="#343434" stroke="#343434" points="300.5,-344 168.5,-344 168.5,-308 300.5,-308 300.5,-344"/>
<text text-anchor="middle" x="234.5" y="-322.3" font-family="Courier,monospace" font-size="14.00" fill="#de958e">lunchbox.tools</text>
</g>
<!-- lunchbox.tools&#45;&gt;flatiron.core.tools -->
<g id="edge9" class="edge">
<title>lunchbox.tools&#45;&gt;flatiron.core.tools</title>
<path fill="none" stroke="#de958e" d="M300.61,-311.1C326.01,-305.29 355.53,-298.54 382.81,-292.29"/>
<polygon fill="#de958e" stroke="#de958e" points="383.78,-295.66 392.75,-290.02 382.22,-288.84 383.78,-295.66"/>
</g>
<!-- pytz -->
<g id="node10" class="node">
<title>pytz</title>
<polygon fill="#343434" stroke="#343434" points="261.5,-290 207.5,-290 207.5,-254 261.5,-254 261.5,-290"/>
<text text-anchor="middle" x="234.5" y="-268.3" font-family="Courier,monospace" font-size="14.00" fill="#de958e">pytz</text>
</g>
<!-- pytz&#45;&gt;flatiron.core.tools -->
<g id="edge10" class="edge">
<title>pytz&#45;&gt;flatiron.core.tools</title>
<path fill="none" stroke="#de958e" d="M261.66,-272C289.26,-272 334.42,-272 375.79,-272"/>
<polygon fill="#de958e" stroke="#de958e" points="375.93,-275.5 385.93,-272 375.93,-268.5 375.93,-275.5"/>
</g>
<!-- tensorflow.keras.callbacks -->
<g id="node11" class="node">
<title>tensorflow.keras.callbacks</title>
<polygon fill="#343434" stroke="#343434" points="350,-236 119,-236 119,-200 350,-200 350,-236"/>
<text text-anchor="middle" x="234.5" y="-214.3" font-family="Courier,monospace" font-size="14.00" fill="#de958e">tensorflow.keras.callbacks</text>
</g>
<!-- tensorflow.keras.callbacks&#45;&gt;flatiron.core.tools -->
<g id="edge11" class="edge">
<title>tensorflow.keras.callbacks&#45;&gt;flatiron.core.tools</title>
<path fill="none" stroke="#de958e" d="M314.41,-236.06C336.36,-241.08 360.33,-246.56 382.8,-251.7"/>
<polygon fill="#de958e" stroke="#de958e" points="382.13,-255.14 392.66,-253.96 383.69,-248.32 382.13,-255.14"/>
</g>
<!-- yaml -->
<g id="node12" class="node">
<title>yaml</title>
<polygon fill="#343434" stroke="#343434" points="261.5,-182 207.5,-182 207.5,-146 261.5,-146 261.5,-182"/>
<text text-anchor="middle" x="234.5" y="-160.3" font-family="Courier,monospace" font-size="14.00" fill="#de958e">yaml</text>
</g>
<!-- yaml&#45;&gt;flatiron.core.tools -->
<g id="edge12" class="edge">
<title>yaml&#45;&gt;flatiron.core.tools</title>
<path fill="none" stroke="#de958e" d="M261.81,-164.78C286.57,-166.69 323.67,-172.7 350,-191 373.69,-207.46 362.94,-227.67 386,-245 387.82,-246.37 389.71,-247.67 391.66,-248.9"/>
<polygon fill="#de958e" stroke="#de958e" points="390.1,-252.04 400.52,-253.91 393.54,-245.94 390.1,-252.04"/>
</g>
<!-- numpy -->
<g id="node13" class="node">
<title>numpy</title>
<polygon fill="#343434" stroke="#343434" points="501.5,-144 443.5,-144 443.5,-108 501.5,-108 501.5,-144"/>
<text text-anchor="middle" x="472.5" y="-122.3" font-family="Courier,monospace" font-size="14.00" fill="#de958e">numpy</text>
</g>
<!-- numpy&#45;&gt;flatiron.core.dataset -->
<g id="edge13" class="edge">
<title>numpy&#45;&gt;flatiron.core.dataset</title>
<path fill="none" stroke="#de958e" d="M501.67,-132.01C525.45,-137.09 560.91,-144.66 594.61,-151.85"/>
<polygon fill="#de958e" stroke="#de958e" points="594.01,-155.3 604.52,-153.97 595.47,-148.46 594.01,-155.3"/>
</g>
<!-- pandas -->
<g id="node14" class="node">
<title>pandas</title>
<polygon fill="#343434" stroke="#343434" points="505.5,-90 439.5,-90 439.5,-54 505.5,-54 505.5,-90"/>
<text text-anchor="middle" x="472.5" y="-68.3" font-family="Courier,monospace" font-size="14.00" fill="#de958e">pandas</text>
</g>
<!-- pandas&#45;&gt;flatiron.core.dataset -->
<g id="edge14" class="edge">
<title>pandas&#45;&gt;flatiron.core.dataset</title>
<path fill="none" stroke="#de958e" d="M505.74,-80.48C522,-85.18 541.86,-91.58 559,-99 591.61,-113.13 626.64,-133.1 652.11,-148.59"/>
<polygon fill="#de958e" stroke="#de958e" points="650.35,-151.61 660.7,-153.86 654.01,-145.64 650.35,-151.61"/>
</g>
<!-- tqdm.notebook -->
<g id="node15" class="node">
<title>tqdm.notebook</title>
<polygon fill="#343434" stroke="#343434" points="534.5,-36 410.5,-36 410.5,0 534.5,0 534.5,-36"/>
<text text-anchor="middle" x="472.5" y="-14.3" font-family="Courier,monospace" font-size="14.00" fill="#de958e">tqdm.notebook</text>
</g>
<!-- tqdm.notebook&#45;&gt;flatiron.core.dataset -->
<g id="edge15" class="edge">
<title>tqdm.notebook&#45;&gt;flatiron.core.dataset</title>
<path fill="none" stroke="#de958e" d="M534.82,-33.49C543.22,-36.71 551.52,-40.52 559,-45 603.83,-71.86 645.08,-117.14 668.6,-145.75"/>
<polygon fill="#de958e" stroke="#de958e" points="666.03,-148.13 675.04,-153.7 671.47,-143.72 666.03,-148.13"/>
</g>
</g>
</svg>
