<?xml version="1.0" encoding="UTF-8" standalone="no"?>
<!DOCTYPE svg PUBLIC "-//W3C//DTD SVG 1.1//EN"
 "http://www.w3.org/Graphics/SVG/1.1/DTD/svg11.dtd">
<!-- Generated by graphviz version 2.43.0 (0)
 -->
<!-- Title: %3 Pages: 1 -->
<svg width="1438pt" height="1449pt"
 viewBox="0.00 0.00 1438.00 1448.84" xmlns="http://www.w3.org/2000/svg" xmlns:xlink="http://www.w3.org/1999/xlink">
<g id="graph0" class="graph" transform="scale(1 1) rotate(0) translate(4 1444.84)">
<title>%3</title>
<polygon fill="#242424" stroke="transparent" points="-4,4 -4,-1444.84 1434,-1444.84 1434,4 -4,4"/>
<!-- cli -->
<g id="node1" class="node">
<title>cli</title>
<polygon fill="#343434" stroke="#343434" points="68.5,-508.14 14.5,-508.14 14.5,-472.14 68.5,-472.14 68.5,-508.14"/>
<text text-anchor="middle" x="41.5" y="-486.44" font-family="Courier,monospace" font-size="14.00" fill="#b6ecf3">cli</text>
</g>
<!-- flatiron\.command -->
<g id="node2" class="node">
<title>flatiron\.command</title>
<polygon fill="#343434" stroke="#343434" points="268,-979.14 119,-979.14 119,-943.14 268,-943.14 268,-979.14"/>
<text text-anchor="middle" x="193.5" y="-957.44" font-family="Courier,monospace" font-size="14.00" fill="#b6ecf3">flatiron.command</text>
</g>
<!-- flatiron\.core\.config -->
<g id="node3" class="node">
<title>flatiron\.core\.config</title>
<polygon fill="#343434" stroke="#343434" points="950,-1247.14 768,-1247.14 768,-1211.14 950,-1211.14 950,-1247.14"/>
<text text-anchor="middle" x="859" y="-1225.44" font-family="Courier,monospace" font-size="14.00" fill="#b6ecf3">flatiron.core.config</text>
</g>
<!-- flatiron\.core\.pipeline -->
<g id="node6" class="node">
<title>flatiron\.core\.pipeline</title>
<polygon fill="#343434" stroke="#343434" points="1188,-932.14 990,-932.14 990,-896.14 1188,-896.14 1188,-932.14"/>
<text text-anchor="middle" x="1089" y="-910.44" font-family="Courier,monospace" font-size="14.00" fill="#b6ecf3">flatiron.core.pipeline</text>
</g>
<!-- flatiron\.core\.config&#45;&gt;flatiron\.core\.pipeline -->
<g id="edge1" class="edge">
<title>flatiron\.core\.config&#45;&gt;flatiron\.core\.pipeline</title>
<path fill="none" stroke="#b6ecf3" d="M873.24,-1210.85C911.73,-1157.67 1023.68,-1003.01 1068.81,-940.66"/>
<polygon fill="#b6ecf3" stroke="#b6ecf3" points="1071.69,-942.64 1074.72,-932.49 1066.02,-938.54 1071.69,-942.64"/>
</g>
<!-- flatiron\.core\.dataset -->
<g id="node4" class="node">
<title>flatiron\.core\.dataset</title>
<polygon fill="#343434" stroke="#343434" points="954,-988.14 764,-988.14 764,-952.14 954,-952.14 954,-988.14"/>
<text text-anchor="middle" x="859" y="-966.44" font-family="Courier,monospace" font-size="14.00" fill="#b6ecf3">flatiron.core.dataset</text>
</g>
<!-- flatiron\.core\.dataset&#45;&gt;flatiron\.core\.pipeline -->
<g id="edge2" class="edge">
<title>flatiron\.core\.dataset&#45;&gt;flatiron\.core\.pipeline</title>
<path fill="none" stroke="#b6ecf3" d="M933.4,-952.12C956.06,-946.55 981.19,-940.38 1004.49,-934.65"/>
<polygon fill="#b6ecf3" stroke="#b6ecf3" points="1005.47,-938.02 1014.35,-932.23 1003.81,-931.22 1005.47,-938.02"/>
</g>
<!-- flatiron\.core\.logging -->
<g id="node5" class="node">
<title>flatiron\.core\.logging</title>
<polygon fill="#343434" stroke="#343434" points="954,-792.14 764,-792.14 764,-756.14 954,-756.14 954,-792.14"/>
<text text-anchor="middle" x="859" y="-770.44" font-family="Courier,monospace" font-size="14.00" fill="#b6ecf3">flatiron.core.logging</text>
</g>
<!-- flatiron\.core\.logging&#45;&gt;flatiron\.core\.pipeline -->
<g id="edge3" class="edge">
<title>flatiron\.core\.logging&#45;&gt;flatiron\.core\.pipeline</title>
<path fill="none" stroke="#b6ecf3" d="M889.34,-792.16C930.27,-817.29 1004.56,-862.91 1049.77,-890.67"/>
<polygon fill="#b6ecf3" stroke="#b6ecf3" points="1048.06,-893.72 1058.41,-895.97 1051.72,-887.76 1048.06,-893.72"/>
</g>
<!-- flatiron\.tf\.models\.unet -->
<g id="node12" class="node">
<title>flatiron\.tf\.models\.unet</title>
<polygon fill="#343434" stroke="#343434" points="1430,-932.14 1224,-932.14 1224,-896.14 1430,-896.14 1430,-932.14"/>
<text text-anchor="middle" x="1327" y="-910.44" font-family="Courier,monospace" font-size="14.00" fill="#b6ecf3">flatiron.tf.models.unet</text>
</g>
<!-- flatiron\.core\.pipeline&#45;&gt;flatiron\.tf\.models\.unet -->
<g id="edge4" class="edge">
<title>flatiron\.core\.pipeline&#45;&gt;flatiron\.tf\.models\.unet</title>
<path fill="none" stroke="#b6ecf3" d="M1188.03,-914.14C1196.5,-914.14 1205.11,-914.14 1213.67,-914.14"/>
<polygon fill="#b6ecf3" stroke="#b6ecf3" points="1213.7,-917.64 1223.7,-914.14 1213.7,-910.64 1213.7,-917.64"/>
</g>
<!-- flatiron\.core\.tools -->
<g id="node7" class="node">
<title>flatiron\.core\.tools</title>
<polygon fill="#343434" stroke="#343434" points="707,-717.14 534,-717.14 534,-681.14 707,-681.14 707,-717.14"/>
<text text-anchor="middle" x="620.5" y="-695.44" font-family="Courier,monospace" font-size="14.00" fill="#b6ecf3">flatiron.core.tools</text>
</g>
<!-- flatiron\.core\.tools&#45;&gt;flatiron\.core\.dataset -->
<g id="edge5" class="edge">
<title>flatiron\.core\.tools&#45;&gt;flatiron\.core\.dataset</title>
<path fill="none" stroke="#b6ecf3" d="M640.58,-717.3C662.38,-738.31 698.81,-774.25 728,-807.14 769.24,-853.62 813.63,-911.06 838.4,-943.86"/>
<polygon fill="#b6ecf3" stroke="#b6ecf3" points="835.74,-946.15 844.55,-952.04 841.33,-941.94 835.74,-946.15"/>
</g>
<!-- flatiron\.core\.tools&#45;&gt;flatiron\.core\.logging -->
<g id="edge6" class="edge">
<title>flatiron\.core\.tools&#45;&gt;flatiron\.core\.logging</title>
<path fill="none" stroke="#b6ecf3" d="M682.69,-717.22C697.55,-721.69 713.36,-726.52 728,-731.14 749.92,-738.06 773.83,-745.89 795.09,-752.95"/>
<polygon fill="#b6ecf3" stroke="#b6ecf3" points="794.07,-756.3 804.66,-756.13 796.28,-749.65 794.07,-756.3"/>
</g>
<!-- flatiron\.core\.tools&#45;&gt;flatiron\.core\.pipeline -->
<g id="edge7" class="edge">
<title>flatiron\.core\.tools&#45;&gt;flatiron\.core\.pipeline</title>
<path fill="none" stroke="#b6ecf3" d="M707.3,-694.7C777.95,-694.82 878.41,-703.97 954,-747.14 1011.88,-780.2 1054.41,-848.88 1074.71,-887.06"/>
<polygon fill="#b6ecf3" stroke="#b6ecf3" points="1071.67,-888.81 1079.38,-896.07 1077.88,-885.58 1071.67,-888.81"/>
</g>
<!-- flatiron\.tf\.loss -->
<g id="node10" class="node">
<title>flatiron\.tf\.loss</title>
<polygon fill="#343434" stroke="#343434" points="933.5,-557.14 784.5,-557.14 784.5,-521.14 933.5,-521.14 933.5,-557.14"/>
<text text-anchor="middle" x="859" y="-535.44" font-family="Courier,monospace" font-size="14.00" fill="#b6ecf3">flatiron.tf.loss</text>
</g>
<!-- flatiron\.core\.tools&#45;&gt;flatiron\.tf\.loss -->
<g id="edge8" class="edge">
<title>flatiron\.core\.tools&#45;&gt;flatiron\.tf\.loss</title>
<path fill="none" stroke="#b6ecf3" d="M650.39,-681.03C672.06,-667.24 702.27,-647.56 728,-629.14 744.48,-617.35 747.53,-612.95 764,-601.14 782.26,-588.05 803.08,-574.21 820.47,-562.94"/>
<polygon fill="#b6ecf3" stroke="#b6ecf3" points="822.72,-565.66 829.23,-557.3 818.93,-559.77 822.72,-565.66"/>
</g>
<!-- flatiron\.tf\.metric -->
<g id="node11" class="node">
<title>flatiron\.tf\.metric</title>
<polygon fill="#343434" stroke="#343434" points="941.5,-367.14 776.5,-367.14 776.5,-331.14 941.5,-331.14 941.5,-367.14"/>
<text text-anchor="middle" x="859" y="-345.44" font-family="Courier,monospace" font-size="14.00" fill="#b6ecf3">flatiron.tf.metric</text>
</g>
<!-- flatiron\.core\.tools&#45;&gt;flatiron\.tf\.metric -->
<g id="edge9" class="edge">
<title>flatiron\.core\.tools&#45;&gt;flatiron\.tf\.metric</title>
<path fill="none" stroke="#b6ecf3" d="M627.29,-680.91C643.08,-633.33 690.67,-503.12 764,-417.14 778.83,-399.76 798.97,-384.43 816.81,-372.75"/>
<polygon fill="#b6ecf3" stroke="#b6ecf3" points="818.79,-375.64 825.35,-367.31 815.03,-369.73 818.79,-375.64"/>
</g>
<!-- flatiron\.core\.tools&#45;&gt;flatiron\.tf\.models\.unet -->
<g id="edge10" class="edge">
<title>flatiron\.core\.tools&#45;&gt;flatiron\.tf\.models\.unet</title>
<path fill="none" stroke="#b6ecf3" d="M707.18,-684.93C775.32,-676.69 872.42,-671.83 954,-694.14 1095.35,-732.81 1237.55,-840.54 1297.03,-889.43"/>
<polygon fill="#b6ecf3" stroke="#b6ecf3" points="1294.93,-892.24 1304.86,-895.93 1299.4,-886.85 1294.93,-892.24"/>
</g>
<!-- flatiron\.tf\.optimizer -->
<g id="node13" class="node">
<title>flatiron\.tf\.optimizer</title>
<polygon fill="#343434" stroke="#343434" points="954,-226.14 764,-226.14 764,-190.14 954,-190.14 954,-226.14"/>
<text text-anchor="middle" x="859" y="-204.44" font-family="Courier,monospace" font-size="14.00" fill="#b6ecf3">flatiron.tf.optimizer</text>
</g>
<!-- flatiron\.core\.tools&#45;&gt;flatiron\.tf\.optimizer -->
<g id="edge11" class="edge">
<title>flatiron\.core\.tools&#45;&gt;flatiron\.tf\.optimizer</title>
<path fill="none" stroke="#b6ecf3" d="M626.09,-680.93C640.7,-624.8 689.59,-450.47 764,-322.14 783.22,-288.99 812.02,-255.71 832.67,-233.74"/>
<polygon fill="#b6ecf3" stroke="#b6ecf3" points="835.24,-236.12 839.61,-226.46 830.18,-231.29 835.24,-236.12"/>
</g>
<!-- flatiron\.tf\.tools -->
<g id="node14" class="node">
<title>flatiron\.tf\.tools</title>
<polygon fill="#343434" stroke="#343434" points="937.5,-462.14 780.5,-462.14 780.5,-426.14 937.5,-426.14 937.5,-462.14"/>
<text text-anchor="middle" x="859" y="-440.44" font-family="Courier,monospace" font-size="14.00" fill="#b6ecf3">flatiron.tf.tools</text>
</g>
<!-- flatiron\.core\.tools&#45;&gt;flatiron\.tf\.tools -->
<g id="edge12" class="edge">
<title>flatiron\.core\.tools&#45;&gt;flatiron\.tf\.tools</title>
<path fill="none" stroke="#b6ecf3" d="M643.39,-681.11C666.69,-661.03 703.51,-626.71 728,-591.14 749.88,-559.36 739.56,-542 764,-512.14 778.36,-494.6 798.27,-479.33 816.07,-467.74"/>
<polygon fill="#b6ecf3" stroke="#b6ecf3" points="818.02,-470.65 824.61,-462.35 814.28,-464.73 818.02,-470.65"/>
</g>
<!-- flatiron\.core\.types -->
<g id="node8" class="node">
<title>flatiron\.core\.types</title>
<polygon fill="#343434" stroke="#343434" points="477,-625.14 304,-625.14 304,-589.14 477,-589.14 477,-625.14"/>
<text text-anchor="middle" x="390.5" y="-603.44" font-family="Courier,monospace" font-size="14.00" fill="#b6ecf3">flatiron.core.types</text>
</g>
<!-- flatiron\.core\.types&#45;&gt;flatiron\.core\.dataset -->
<g id="edge13" class="edge">
<title>flatiron\.core\.types&#45;&gt;flatiron\.core\.dataset</title>
<path fill="none" stroke="#b6ecf3" d="M464.97,-625.17C469.3,-627.77 473.36,-630.74 477,-634.14 509.07,-664.13 485.94,-691.57 513,-726.14 524.56,-740.91 737.76,-887.76 823.11,-946.27"/>
<polygon fill="#b6ecf3" stroke="#b6ecf3" points="821.21,-949.21 831.43,-951.97 825.16,-943.43 821.21,-949.21"/>
</g>
<!-- flatiron\.core\.types&#45;&gt;flatiron\.core\.pipeline -->
<g id="edge14" class="edge">
<title>flatiron\.core\.types&#45;&gt;flatiron\.core\.pipeline</title>
<path fill="none" stroke="#b6ecf3" d="M477.08,-599.17C594.71,-592.61 808.32,-596.9 954,-694.14 1024.17,-740.98 1063.69,-838.27 1079.63,-886.21"/>
<polygon fill="#b6ecf3" stroke="#b6ecf3" points="1076.36,-887.48 1082.76,-895.92 1083.02,-885.33 1076.36,-887.48"/>
</g>
<!-- flatiron\.core\.types&#45;&gt;flatiron\.core\.tools -->
<g id="edge15" class="edge">
<title>flatiron\.core\.types&#45;&gt;flatiron\.core\.tools</title>
<path fill="none" stroke="#b6ecf3" d="M458.54,-625.16C464.94,-627.81 471.2,-630.79 477,-634.14 495.79,-645 494.13,-656.42 513,-667.14 519.73,-670.97 526.96,-674.38 534.37,-677.41"/>
<polygon fill="#b6ecf3" stroke="#b6ecf3" points="533.24,-680.73 543.83,-681.06 535.76,-674.2 533.24,-680.73"/>
</g>
<!-- flatiron\.core\.types&#45;&gt;flatiron\.tf\.tools -->
<g id="edge16" class="edge">
<title>flatiron\.core\.types&#45;&gt;flatiron\.tf\.tools</title>
<path fill="none" stroke="#b6ecf3" d="M443.21,-589.08C529.93,-558.78 704.27,-497.86 796.9,-465.49"/>
<polygon fill="#b6ecf3" stroke="#b6ecf3" points="798.13,-468.77 806.42,-462.17 795.82,-462.16 798.13,-468.77"/>
</g>
<!-- flatiron\.core\.validators -->
<g id="node9" class="node">
<title>flatiron\.core\.validators</title>
<polygon fill="#343434" stroke="#343434" points="728,-1253.14 513,-1253.14 513,-1217.14 728,-1217.14 728,-1253.14"/>
<text text-anchor="middle" x="620.5" y="-1231.44" font-family="Courier,monospace" font-size="14.00" fill="#b6ecf3">flatiron.core.validators</text>
</g>
<!-- flatiron\.core\.validators&#45;&gt;flatiron\.core\.config -->
<g id="edge17" class="edge">
<title>flatiron\.core\.validators&#45;&gt;flatiron\.core\.config</title>
<path fill="none" stroke="#b6ecf3" d="M728.33,-1232.43C738.15,-1232.18 748.06,-1231.93 757.81,-1231.69"/>
<polygon fill="#b6ecf3" stroke="#b6ecf3" points="757.99,-1235.18 767.9,-1231.43 757.82,-1228.18 757.99,-1235.18"/>
</g>
<!-- flatiron\.core\.validators&#45;&gt;flatiron\.tf\.models\.unet -->
<g id="edge18" class="edge">
<title>flatiron\.core\.validators&#45;&gt;flatiron\.tf\.models\.unet</title>
<path fill="none" stroke="#b6ecf3" d="M661.73,-1217.07C681.67,-1208.09 706.11,-1197.07 728,-1187.14 932.35,-1094.45 1175.54,-983.11 1277.38,-936.44"/>
<polygon fill="#b6ecf3" stroke="#b6ecf3" points="1278.86,-939.61 1286.49,-932.26 1275.95,-933.24 1278.86,-939.61"/>
</g>
<!-- click -->
<g id="node15" class="node">
<title>click</title>
<polygon fill="#343434" stroke="#343434" points="70.5,-979.14 12.5,-979.14 12.5,-943.14 70.5,-943.14 70.5,-979.14"/>
<text text-anchor="middle" x="41.5" y="-957.44" font-family="Courier,monospace" font-size="14.00" fill="#de958e">click</text>
</g>
<!-- click&#45;&gt;flatiron\.command -->
<g id="edge19" class="edge">
<title>click&#45;&gt;flatiron\.command</title>
<path fill="none" stroke="#de958e" d="M70.71,-961.14C81.78,-961.14 95.1,-961.14 108.82,-961.14"/>
<polygon fill="#de958e" stroke="#de958e" points="108.85,-964.64 118.85,-961.14 108.85,-957.64 108.85,-964.64"/>
</g>
<!-- flatiron\.tf\.models -->
<g id="node16" class="node">
<title>flatiron\.tf\.models</title>
<polygon fill="#343434" stroke="#343434" points="941.5,-41.14 776.5,-41.14 776.5,-5.14 941.5,-5.14 941.5,-41.14"/>
<text text-anchor="middle" x="859" y="-19.44" font-family="Courier,monospace" font-size="14.00" fill="#a0d17b">flatiron.tf.models</text>
</g>
<!-- flatiron\.tf\.models&#45;&gt;flatiron\.tf\.models\.unet -->
<g id="edge20" class="edge">
<title>flatiron\.tf\.models&#45;&gt;flatiron\.tf\.models\.unet</title>
<path fill="none" stroke="#a0d17b" d="M941.63,-5.95C1015.73,4.5 1123.06,5.88 1188,-55.14 1312.18,-171.85 1324.66,-750.24 1325.88,-885.72"/>
<polygon fill="#a0d17b" stroke="#a0d17b" points="1322.38,-886.1 1325.96,-896.07 1329.38,-886.05 1322.38,-886.1"/>
</g>
<!-- pydantic -->
<g id="node17" class="node">
<title>pydantic</title>
<polygon fill="#343434" stroke="#343434" points="662,-1399.14 579,-1399.14 579,-1363.14 662,-1363.14 662,-1399.14"/>
<text text-anchor="middle" x="620.5" y="-1377.44" font-family="Courier,monospace" font-size="14.00" fill="#de958e">pydantic</text>
</g>
<!-- pydantic&#45;&gt;flatiron\.core\.config -->
<g id="edge21" class="edge">
<title>pydantic&#45;&gt;flatiron\.core\.config</title>
<path fill="none" stroke="#de958e" d="M662.08,-1379.66C683.93,-1376.87 710.01,-1370.08 728,-1354.14 761.18,-1324.76 732.02,-1291.83 764,-1261.14 767.31,-1257.97 770.94,-1255.11 774.8,-1252.53"/>
<polygon fill="#de958e" stroke="#de958e" points="776.75,-1255.44 783.57,-1247.33 773.18,-1249.42 776.75,-1255.44"/>
</g>
<!-- pydantic&#45;&gt;flatiron\.core\.pipeline -->
<g id="edge22" class="edge">
<title>pydantic&#45;&gt;flatiron\.core\.pipeline</title>
<path fill="none" stroke="#de958e" d="M662,-1372.81C682.12,-1368.19 706.64,-1361.81 728,-1354.14 744.65,-1348.16 747.86,-1344.39 764,-1337.14 847.74,-1299.54 890.06,-1322.01 954,-1256.14 1043.02,-1164.45 1074.78,-1006.73 1084.38,-942.55"/>
<polygon fill="#de958e" stroke="#de958e" points="1087.88,-942.78 1085.83,-932.38 1080.95,-941.79 1087.88,-942.78"/>
</g>
<!-- pydantic&#45;&gt;flatiron\.tf\.models\.unet -->
<g id="edge23" class="edge">
<title>pydantic&#45;&gt;flatiron\.tf\.models\.unet</title>
<path fill="none" stroke="#de958e" d="M662.31,-1377.41C764.98,-1365.87 1036.56,-1321.77 1188,-1169.14 1255.67,-1100.95 1299.14,-992.71 1316.88,-942.03"/>
<polygon fill="#de958e" stroke="#de958e" points="1320.25,-943 1320.18,-932.41 1313.63,-940.73 1320.25,-943"/>
</g>
<!-- typing_extensions -->
<g id="node18" class="node">
<title>typing_extensions</title>
<polygon fill="#343434" stroke="#343434" points="699,-1345.14 542,-1345.14 542,-1309.14 699,-1309.14 699,-1345.14"/>
<text text-anchor="middle" x="620.5" y="-1323.44" font-family="Courier,monospace" font-size="14.00" fill="#de958e">typing_extensions</text>
</g>
<!-- typing_extensions&#45;&gt;flatiron\.core\.config -->
<g id="edge24" class="edge">
<title>typing_extensions&#45;&gt;flatiron\.core\.config</title>
<path fill="none" stroke="#de958e" d="M697.52,-1309.08C708.1,-1305.21 718.56,-1300.6 728,-1295.14 747.05,-1284.12 745.15,-1272.51 764,-1261.14 770.09,-1257.47 776.66,-1254.15 783.39,-1251.17"/>
<polygon fill="#de958e" stroke="#de958e" points="784.77,-1254.39 792.65,-1247.3 782.07,-1247.93 784.77,-1254.39"/>
</g>
<!-- typing_extensions&#45;&gt;flatiron\.tf\.models\.unet -->
<g id="edge25" class="edge">
<title>typing_extensions&#45;&gt;flatiron\.tf\.models\.unet</title>
<path fill="none" stroke="#de958e" d="M699.33,-1322.18C769.32,-1315.09 873.24,-1297.87 954,-1256.14 1113.25,-1173.86 1255.27,-1005.06 1306.11,-940.26"/>
<polygon fill="#de958e" stroke="#de958e" points="1309.02,-942.22 1312.4,-932.18 1303.5,-937.92 1309.02,-942.22"/>
</g>
<!-- pandas -->
<g id="node19" class="node">
<title>pandas</title>
<polygon fill="#343434" stroke="#343434" points="653.5,-1123.14 587.5,-1123.14 587.5,-1087.14 653.5,-1087.14 653.5,-1123.14"/>
<text text-anchor="middle" x="620.5" y="-1101.44" font-family="Courier,monospace" font-size="14.00" fill="#de958e">pandas</text>
</g>
<!-- pandas&#45;&gt;flatiron\.core\.dataset -->
<g id="edge26" class="edge">
<title>pandas&#45;&gt;flatiron\.core\.dataset</title>
<path fill="none" stroke="#de958e" d="M653.57,-1100.83C675.43,-1097 704.54,-1090.08 728,-1078.14 769.71,-1056.92 809.91,-1020.22 834.29,-995.56"/>
<polygon fill="#de958e" stroke="#de958e" points="836.86,-997.94 841.33,-988.33 831.85,-993.05 836.86,-997.94"/>
</g>
<!-- humanfriendly -->
<g id="node20" class="node">
<title>humanfriendly</title>
<polygon fill="#343434" stroke="#343434" points="682.5,-1069.14 558.5,-1069.14 558.5,-1033.14 682.5,-1033.14 682.5,-1069.14"/>
<text text-anchor="middle" x="620.5" y="-1047.44" font-family="Courier,monospace" font-size="14.00" fill="#de958e">humanfriendly</text>
</g>
<!-- humanfriendly&#45;&gt;flatiron\.core\.dataset -->
<g id="edge27" class="edge">
<title>humanfriendly&#45;&gt;flatiron\.core\.dataset</title>
<path fill="none" stroke="#de958e" d="M682.77,-1037.23C697.69,-1033.4 713.52,-1028.96 728,-1024.14 755.43,-1015.02 785.27,-1002.8 809.44,-992.29"/>
<polygon fill="#de958e" stroke="#de958e" points="810.99,-995.43 818.74,-988.21 808.18,-989.02 810.99,-995.43"/>
</g>
<!-- sklearn\.model_selection -->
<g id="node21" class="node">
<title>sklearn\.model_selection</title>
<polygon fill="#343434" stroke="#343434" points="723.5,-1015.14 517.5,-1015.14 517.5,-979.14 723.5,-979.14 723.5,-1015.14"/>
<text text-anchor="middle" x="620.5" y="-993.44" font-family="Courier,monospace" font-size="14.00" fill="#de958e">sklearn.model_selection</text>
</g>
<!-- sklearn\.model_selection&#45;&gt;flatiron\.core\.dataset -->
<g id="edge28" class="edge">
<title>sklearn\.model_selection&#45;&gt;flatiron\.core\.dataset</title>
<path fill="none" stroke="#de958e" d="M723.51,-985.5C733.55,-984.35 743.74,-983.19 753.79,-982.04"/>
<polygon fill="#de958e" stroke="#de958e" points="754.25,-985.51 763.79,-980.9 753.46,-978.56 754.25,-985.51"/>
</g>
<!-- tqdm\.notebook -->
<g id="node22" class="node">
<title>tqdm\.notebook</title>
<polygon fill="#343434" stroke="#343434" points="682.5,-961.14 558.5,-961.14 558.5,-925.14 682.5,-925.14 682.5,-961.14"/>
<text text-anchor="middle" x="620.5" y="-939.44" font-family="Courier,monospace" font-size="14.00" fill="#de958e">tqdm.notebook</text>
</g>
<!-- tqdm\.notebook&#45;&gt;flatiron\.core\.dataset -->
<g id="edge29" class="edge">
<title>tqdm\.notebook&#45;&gt;flatiron\.core\.dataset</title>
<path fill="none" stroke="#de958e" d="M682.71,-950.13C704.36,-952.6 729.37,-955.46 753.59,-958.22"/>
<polygon fill="#de958e" stroke="#de958e" points="753.22,-961.7 763.55,-959.36 754.01,-954.75 753.22,-961.7"/>
</g>
<!-- flatiron -->
<g id="node23" class="node">
<title>flatiron</title>
<polygon fill="#343434" stroke="#343434" points="83,-562.14 0,-562.14 0,-526.14 83,-526.14 83,-562.14"/>
<text text-anchor="middle" x="41.5" y="-540.44" font-family="Courier,monospace" font-size="14.00" fill="#a0d17b">flatiron</text>
</g>
<!-- flatiron&#45;&gt;flatiron\.command -->
<g id="edge30" class="edge">
<title>flatiron&#45;&gt;flatiron\.command</title>
<path fill="none" stroke="#a0d17b" d="M43.72,-562.15C48.75,-631 69.86,-876.53 119,-934.14 119.73,-935 120.49,-935.82 121.27,-936.62"/>
<polygon fill="#a0d17b" stroke="#a0d17b" points="119.08,-939.36 128.98,-943.14 123.6,-934.01 119.08,-939.36"/>
</g>
<!-- flatiron&#45;&gt;flatiron\.tf\.models -->
<g id="edge31" class="edge">
<title>flatiron&#45;&gt;flatiron\.tf\.models</title>
<path fill="none" stroke="#a0d17b" d="M75.86,-525.81C78.61,-523.21 81.07,-520.32 83,-517.14 161.25,-387.91 41.39,-308.76 119,-179.14 170.1,-93.79 209.76,-85 304,-53.14 459.51,-0.57 653.5,-4.7 765.81,-13.34"/>
<polygon fill="#a0d17b" stroke="#a0d17b" points="765.84,-16.85 776.09,-14.16 766.4,-9.87 765.84,-16.85"/>
</g>
<!-- flatiron\.tf -->
<g id="node24" class="node">
<title>flatiron\.tf</title>
<polygon fill="#343434" stroke="#343434" points="674,-245.14 567,-245.14 567,-209.14 674,-209.14 674,-245.14"/>
<text text-anchor="middle" x="620.5" y="-223.44" font-family="Courier,monospace" font-size="14.00" fill="#a0d17b">flatiron.tf</text>
</g>
<!-- flatiron&#45;&gt;flatiron\.tf -->
<g id="edge32" class="edge">
<title>flatiron&#45;&gt;flatiron\.tf</title>
<path fill="none" stroke="#a0d17b" d="M75.39,-526.1C78.31,-523.42 80.94,-520.44 83,-517.14 146.65,-415.2 30.3,-330.23 119,-249.14 239.33,-139.14 451.8,-178.44 556.95,-207.37"/>
<polygon fill="#a0d17b" stroke="#a0d17b" points="556.21,-210.8 566.78,-210.13 558.1,-204.06 556.21,-210.8"/>
</g>
<!-- flatiron\.core -->
<g id="node25" class="node">
<title>flatiron\.core</title>
<polygon fill="#343434" stroke="#343434" points="255.5,-925.14 131.5,-925.14 131.5,-889.14 255.5,-889.14 255.5,-925.14"/>
<text text-anchor="middle" x="193.5" y="-903.44" font-family="Courier,monospace" font-size="14.00" fill="#a0d17b">flatiron.core</text>
</g>
<!-- flatiron&#45;&gt;flatiron\.core -->
<g id="edge33" class="edge">
<title>flatiron&#45;&gt;flatiron\.core</title>
<path fill="none" stroke="#a0d17b" d="M49.94,-562.14C74.28,-621.05 151.67,-808.33 181.04,-879.42"/>
<polygon fill="#a0d17b" stroke="#a0d17b" points="177.96,-881.13 185.02,-889.03 184.43,-878.45 177.96,-881.13"/>
</g>
<!-- flatiron\.tf&#45;&gt;flatiron\.tf\.loss -->
<g id="edge34" class="edge">
<title>flatiron\.tf&#45;&gt;flatiron\.tf\.loss</title>
<path fill="none" stroke="#a0d17b" d="M628.96,-245.33C647.19,-288.26 697.43,-397.74 764,-471.14 779.46,-488.2 799.86,-503.58 817.7,-515.38"/>
<polygon fill="#a0d17b" stroke="#a0d17b" points="815.91,-518.4 826.22,-520.88 819.71,-512.51 815.91,-518.4"/>
</g>
<!-- flatiron\.tf&#45;&gt;flatiron\.tf\.metric -->
<g id="edge35" class="edge">
<title>flatiron\.tf&#45;&gt;flatiron\.tf\.metric</title>
<path fill="none" stroke="#a0d17b" d="M674.19,-239.44C691.75,-244.46 711.13,-251.02 728,-259.14 764.89,-276.9 802.92,-304.52 828.24,-324.47"/>
<polygon fill="#a0d17b" stroke="#a0d17b" points="826.32,-327.42 836.32,-330.92 830.69,-321.95 826.32,-327.42"/>
</g>
<!-- flatiron\.tf&#45;&gt;flatiron\.tf\.optimizer -->
<g id="edge36" class="edge">
<title>flatiron\.tf&#45;&gt;flatiron\.tf\.optimizer</title>
<path fill="none" stroke="#a0d17b" d="M674.28,-222.9C697.8,-221.01 726.37,-218.72 753.9,-216.51"/>
<polygon fill="#a0d17b" stroke="#a0d17b" points="754.3,-219.99 763.99,-215.7 753.74,-213.01 754.3,-219.99"/>
</g>
<!-- flatiron\.tf&#45;&gt;flatiron\.tf\.tools -->
<g id="edge37" class="edge">
<title>flatiron\.tf&#45;&gt;flatiron\.tf\.tools</title>
<path fill="none" stroke="#a0d17b" d="M659.39,-245.17C681.7,-257.32 709.14,-275.13 728,-297.14 753.11,-326.44 739.56,-346.29 764,-376.14 778.36,-393.69 798.27,-408.95 816.07,-420.55"/>
<polygon fill="#a0d17b" stroke="#a0d17b" points="814.28,-423.56 824.61,-425.94 818.02,-417.64 814.28,-423.56"/>
</g>
<!-- flatiron\.tf&#45;&gt;flatiron\.tf\.models -->
<g id="edge38" class="edge">
<title>flatiron\.tf&#45;&gt;flatiron\.tf\.models</title>
<path fill="none" stroke="#a0d17b" d="M642.49,-209.04C685,-172.37 781.33,-89.28 829.48,-47.74"/>
<polygon fill="#a0d17b" stroke="#a0d17b" points="831.77,-50.39 837.06,-41.21 827.2,-45.09 831.77,-50.39"/>
</g>
<!-- flatiron\.core&#45;&gt;flatiron\.core\.config -->
<g id="edge39" class="edge">
<title>flatiron\.core&#45;&gt;flatiron\.core\.config</title>
<path fill="none" stroke="#a0d17b" d="M255.65,-923.02C260.32,-926.1 264.55,-929.77 268,-934.14 353.57,-1042.74 205,-1146.62 304,-1243.14 371.53,-1308.99 634.55,-1274.88 728,-1262.14 744.45,-1259.9 747.93,-1256.34 764,-1252.14 767.13,-1251.33 770.32,-1250.5 773.54,-1249.68"/>
<polygon fill="#a0d17b" stroke="#a0d17b" points="774.46,-1253.05 783.29,-1247.2 772.74,-1246.27 774.46,-1253.05"/>
</g>
<!-- flatiron\.core&#45;&gt;flatiron\.core\.dataset -->
<g id="edge40" class="edge">
<title>flatiron\.core&#45;&gt;flatiron\.core\.dataset</title>
<path fill="none" stroke="#a0d17b" d="M255.83,-923.38C260.4,-926.38 264.56,-929.93 268,-934.14 335.13,-1016.31 223.52,-1101.01 304,-1170.14 335.41,-1197.12 688.25,-1188.19 728,-1162.14 759.26,-1141.66 744.09,-1117.78 764,-1086.14 784.87,-1052.98 813.87,-1018.53 834.12,-995.88"/>
<polygon fill="#a0d17b" stroke="#a0d17b" points="836.79,-998.15 840.89,-988.38 831.59,-993.46 836.79,-998.15"/>
</g>
<!-- flatiron\.core&#45;&gt;flatiron\.core\.logging -->
<g id="edge41" class="edge">
<title>flatiron\.core&#45;&gt;flatiron\.core\.logging</title>
<path fill="none" stroke="#a0d17b" d="M255.6,-906.96C313.14,-905.86 401.54,-901.79 477,-888.14 594.53,-866.89 727.19,-822.3 800.86,-795.63"/>
<polygon fill="#a0d17b" stroke="#a0d17b" points="802.23,-798.86 810.43,-792.15 799.83,-792.28 802.23,-798.86"/>
</g>
<!-- flatiron\.core&#45;&gt;flatiron\.core\.pipeline -->
<g id="edge42" class="edge">
<title>flatiron\.core&#45;&gt;flatiron\.core\.pipeline</title>
<path fill="none" stroke="#a0d17b" d="M255.7,-922.98C260.36,-926.07 264.57,-929.75 268,-934.14 361.93,-1054.72 223.31,-1146.34 304,-1276.14 362,-1369.45 407.46,-1377.61 513,-1408.14 705.87,-1463.95 818.03,-1457.88 954,-1310.14 1054.52,-1200.93 1079.95,-1013.5 1086.12,-942.51"/>
<polygon fill="#a0d17b" stroke="#a0d17b" points="1089.61,-942.78 1086.92,-932.53 1082.63,-942.21 1089.61,-942.78"/>
</g>
<!-- flatiron\.core&#45;&gt;flatiron\.core\.tools -->
<g id="edge43" class="edge">
<title>flatiron\.core&#45;&gt;flatiron\.core\.tools</title>
<path fill="none" stroke="#a0d17b" d="M204.97,-888.71C221.95,-860.6 258.24,-807.43 304,-780.14 371.61,-739.82 400.82,-761.97 477,-742.14 502.17,-735.59 529.57,-727.55 553.56,-720.19"/>
<polygon fill="#a0d17b" stroke="#a0d17b" points="554.74,-723.49 563.26,-717.2 552.68,-716.8 554.74,-723.49"/>
</g>
<!-- flatiron\.core&#45;&gt;flatiron\.core\.types -->
<g id="edge44" class="edge">
<title>flatiron\.core&#45;&gt;flatiron\.core\.types</title>
<path fill="none" stroke="#a0d17b" d="M196.48,-888.87C202.73,-840.15 226.48,-706.01 304,-634.14 305.14,-633.09 306.32,-632.07 307.54,-631.09"/>
<polygon fill="#a0d17b" stroke="#a0d17b" points="309.83,-633.77 316.06,-625.2 305.85,-628.01 309.83,-633.77"/>
</g>
<!-- flatiron\.core&#45;&gt;flatiron\.core\.validators -->
<g id="edge45" class="edge">
<title>flatiron\.core&#45;&gt;flatiron\.core\.validators</title>
<path fill="none" stroke="#a0d17b" d="M255.57,-923.09C260.26,-926.15 264.51,-929.8 268,-934.14 343.46,-1028.25 217.36,-1119.22 304,-1203.14 359.69,-1257.08 449.58,-1261.36 519.2,-1254.29"/>
<polygon fill="#a0d17b" stroke="#a0d17b" points="519.76,-1257.75 529.31,-1253.17 518.99,-1250.8 519.76,-1257.75"/>
</g>
<!-- keras -->
<g id="node26" class="node">
<title>keras</title>
<polygon fill="#343434" stroke="#343434" points="222.5,-408.14 164.5,-408.14 164.5,-372.14 222.5,-372.14 222.5,-408.14"/>
<text text-anchor="middle" x="193.5" y="-386.44" font-family="Courier,monospace" font-size="14.00" fill="#de958e">keras</text>
</g>
<!-- keras&#45;&gt;flatiron\.core\.types -->
<g id="edge46" class="edge">
<title>keras&#45;&gt;flatiron\.core\.types</title>
<path fill="none" stroke="#de958e" d="M206.01,-408.44C224.68,-437.39 263.56,-494.8 304,-537.14 319.8,-553.68 339.42,-570 355.89,-582.71"/>
<polygon fill="#de958e" stroke="#de958e" points="354.09,-585.74 364.17,-589.01 358.33,-580.17 354.09,-585.74"/>
</g>
<!-- keras&#45;&gt;flatiron\.tf\.loss -->
<g id="edge47" class="edge">
<title>keras&#45;&gt;flatiron\.tf\.loss</title>
<path fill="none" stroke="#de958e" d="M222.55,-404.55C276.93,-431.69 401.16,-489.93 513,-515.14 600.65,-534.9 703.71,-539.76 774.22,-540.39"/>
<polygon fill="#de958e" stroke="#de958e" points="774.35,-543.89 784.38,-540.45 774.4,-536.89 774.35,-543.89"/>
</g>
<!-- keras&#45;&gt;flatiron\.tf\.metric -->
<g id="edge48" class="edge">
<title>keras&#45;&gt;flatiron\.tf\.metric</title>
<path fill="none" stroke="#de958e" d="M222.59,-388.41C315.17,-382.69 613.54,-364.25 766.19,-354.82"/>
<polygon fill="#de958e" stroke="#de958e" points="766.71,-358.29 776.48,-354.18 766.28,-351.3 766.71,-358.29"/>
</g>
<!-- keras&#45;&gt;flatiron\.tf\.models\.unet -->
<g id="edge49" class="edge">
<title>keras&#45;&gt;flatiron\.tf\.models\.unet</title>
<path fill="none" stroke="#de958e" d="M213.12,-371.86C229.33,-355.16 252.57,-329.16 268,-303.14 290.61,-265.02 270.25,-238.88 304,-210.14 413.14,-117.21 476.15,-143.14 619.5,-143.14 619.5,-143.14 619.5,-143.14 860,-143.14 1214.05,-143.14 1306.33,-746 1322.95,-885.55"/>
<polygon fill="#de958e" stroke="#de958e" points="1319.51,-886.31 1324.13,-895.85 1326.46,-885.51 1319.51,-886.31"/>
</g>
<!-- keras&#45;&gt;flatiron\.tf\.optimizer -->
<g id="edge50" class="edge">
<title>keras&#45;&gt;flatiron\.tf\.optimizer</title>
<path fill="none" stroke="#de958e" d="M215.37,-372.06C263.67,-331.56 388.55,-234.45 513,-200.14 591.72,-178.45 684.41,-182.12 753.88,-190.3"/>
<polygon fill="#de958e" stroke="#de958e" points="753.61,-193.79 763.96,-191.54 754.46,-186.84 753.61,-193.79"/>
</g>
<!-- keras&#45;&gt;flatiron\.tf\.tools -->
<g id="edge51" class="edge">
<title>keras&#45;&gt;flatiron\.tf\.tools</title>
<path fill="none" stroke="#de958e" d="M222.59,-392.43C315.96,-400.03 618.61,-424.66 770.03,-436.98"/>
<polygon fill="#de958e" stroke="#de958e" points="769.98,-440.49 780.23,-437.81 770.54,-433.51 769.98,-440.49"/>
</g>
<!-- pytz -->
<g id="node27" class="node">
<title>pytz</title>
<polygon fill="#343434" stroke="#343434" points="417.5,-733.14 363.5,-733.14 363.5,-697.14 417.5,-697.14 417.5,-733.14"/>
<text text-anchor="middle" x="390.5" y="-711.44" font-family="Courier,monospace" font-size="14.00" fill="#de958e">pytz</text>
</g>
<!-- pytz&#45;&gt;flatiron\.core\.tools -->
<g id="edge52" class="edge">
<title>pytz&#45;&gt;flatiron\.core\.tools</title>
<path fill="none" stroke="#de958e" d="M417.65,-713.31C443.64,-711.48 485.07,-708.58 523.66,-705.87"/>
<polygon fill="#de958e" stroke="#de958e" points="524.19,-709.34 533.92,-705.15 523.7,-702.36 524.19,-709.34"/>
</g>
<!-- lunchbox\.enforce -->
<g id="node28" class="node">
<title>lunchbox\.enforce</title>
<polygon fill="#343434" stroke="#343434" points="465,-1161.14 316,-1161.14 316,-1125.14 465,-1125.14 465,-1161.14"/>
<text text-anchor="middle" x="390.5" y="-1139.44" font-family="Courier,monospace" font-size="14.00" fill="#de958e">lunchbox.enforce</text>
</g>
<!-- lunchbox\.enforce&#45;&gt;flatiron\.core\.dataset -->
<g id="edge53" class="edge">
<title>lunchbox\.enforce&#45;&gt;flatiron\.core\.dataset</title>
<path fill="none" stroke="#de958e" d="M465.14,-1157.87C536.43,-1168.32 645.52,-1174.01 728,-1132.14 751.15,-1120.39 747.83,-1106.45 764,-1086.14 788.85,-1054.95 817.78,-1019.35 836.91,-995.91"/>
<polygon fill="#de958e" stroke="#de958e" points="839.64,-998.11 843.25,-988.15 834.21,-993.68 839.64,-998.11"/>
</g>
<!-- lunchbox\.enforce&#45;&gt;flatiron\.core\.tools -->
<g id="edge54" class="edge">
<title>lunchbox\.enforce&#45;&gt;flatiron\.core\.tools</title>
<path fill="none" stroke="#de958e" d="M400.86,-1124.91C436.37,-1055.76 562.88,-809.4 605.42,-726.55"/>
<polygon fill="#de958e" stroke="#de958e" points="608.73,-727.78 610.18,-717.28 602.5,-724.58 608.73,-727.78"/>
</g>
<!-- lunchbox\.enforce&#45;&gt;flatiron\.tf\.models\.unet -->
<g id="edge55" class="edge">
<title>lunchbox\.enforce&#45;&gt;flatiron\.tf\.models\.unet</title>
<path fill="none" stroke="#de958e" d="M393.32,-1161.24C399.45,-1211.21 424.18,-1351.16 513,-1408.14 593.42,-1459.74 633.2,-1420.11 728,-1408.14 943.19,-1380.97 1036.7,-1400.56 1188,-1245.14 1274.63,-1156.16 1310.04,-1004.9 1321.46,-942.43"/>
<polygon fill="#de958e" stroke="#de958e" points="1324.92,-942.96 1323.2,-932.51 1318.02,-941.75 1324.92,-942.96"/>
</g>
<!-- lunchbox\.tools -->
<g id="node29" class="node">
<title>lunchbox\.tools</title>
<polygon fill="#343434" stroke="#343434" points="456.5,-825.14 324.5,-825.14 324.5,-789.14 456.5,-789.14 456.5,-825.14"/>
<text text-anchor="middle" x="390.5" y="-803.44" font-family="Courier,monospace" font-size="14.00" fill="#de958e">lunchbox.tools</text>
</g>
<!-- lunchbox\.tools&#45;&gt;flatiron\.core\.logging -->
<g id="edge56" class="edge">
<title>lunchbox\.tools&#45;&gt;flatiron\.core\.logging</title>
<path fill="none" stroke="#de958e" d="M437.74,-789.05C460.1,-781.25 487.55,-773.03 513,-769.14 592.98,-756.93 684.6,-758.99 753.31,-763.67"/>
<polygon fill="#de958e" stroke="#de958e" points="753.49,-767.19 763.71,-764.41 753.99,-760.21 753.49,-767.19"/>
</g>
<!-- lunchbox\.tools&#45;&gt;flatiron\.core\.tools -->
<g id="edge57" class="edge">
<title>lunchbox\.tools&#45;&gt;flatiron\.core\.tools</title>
<path fill="none" stroke="#de958e" d="M451.96,-789.13C460.76,-785.22 469.4,-780.59 477,-775.14 497.54,-760.43 491.98,-745.17 513,-731.14 518.56,-727.44 524.56,-724.14 530.78,-721.23"/>
<polygon fill="#de958e" stroke="#de958e" points="532.25,-724.41 540.03,-717.21 529.46,-717.98 532.25,-724.41"/>
</g>
<!-- tensorflow -->
<g id="node30" class="node">
<title>tensorflow</title>
<polygon fill="#343434" stroke="#343434" points="243,-294.14 144,-294.14 144,-258.14 243,-258.14 243,-294.14"/>
<text text-anchor="middle" x="193.5" y="-272.44" font-family="Courier,monospace" font-size="14.00" fill="#de958e">tensorflow</text>
</g>
<!-- tensorflow&#45;&gt;flatiron\.core\.types -->
<g id="edge58" class="edge">
<title>tensorflow&#45;&gt;flatiron\.core\.types</title>
<path fill="none" stroke="#de958e" d="M212.24,-294.46C228.07,-311.39 251.27,-337.7 268,-363.14 316.57,-437 358.95,-532.98 378.31,-579.48"/>
<polygon fill="#de958e" stroke="#de958e" points="375.14,-580.98 382.2,-588.89 381.61,-578.31 375.14,-580.98"/>
</g>
<!-- tensorflow&#45;&gt;flatiron\.tf\.loss -->
<g id="edge59" class="edge">
<title>tensorflow&#45;&gt;flatiron\.tf\.loss</title>
<path fill="none" stroke="#de958e" d="M221.6,-294.23C243.28,-308.2 274.79,-327.41 304,-341.14 470.94,-419.63 678.08,-485.93 785.6,-518.16"/>
<polygon fill="#de958e" stroke="#de958e" points="784.79,-521.57 795.37,-521.08 786.79,-514.87 784.79,-521.57"/>
</g>
<!-- tensorflow&#45;&gt;flatiron\.tf\.metric -->
<g id="edge60" class="edge">
<title>tensorflow&#45;&gt;flatiron\.tf\.metric</title>
<path fill="none" stroke="#de958e" d="M243.09,-272.22C337.77,-265.86 553.04,-257.64 728,-297.14 756.99,-303.69 787.94,-315.85 812.37,-326.76"/>
<polygon fill="#de958e" stroke="#de958e" points="811.18,-330.06 821.73,-331.02 814.08,-323.69 811.18,-330.06"/>
</g>
<!-- tensorflow&#45;&gt;flatiron\.tf\.models\.unet -->
<g id="edge61" class="edge">
<title>tensorflow&#45;&gt;flatiron\.tf\.models\.unet</title>
<path fill="none" stroke="#de958e" d="M203.96,-257.83C220.04,-228.89 255.73,-173.49 304,-150.14 480.89,-64.59 1048.37,-31.89 1188,-170.14 1292.21,-273.32 1319.61,-762.41 1324.92,-885.82"/>
<polygon fill="#de958e" stroke="#de958e" points="1321.43,-886.12 1325.34,-895.97 1328.42,-885.83 1321.43,-886.12"/>
</g>
<!-- tensorflow&#45;&gt;flatiron\.tf\.optimizer -->
<g id="edge62" class="edge">
<title>tensorflow&#45;&gt;flatiron\.tf\.optimizer</title>
<path fill="none" stroke="#de958e" d="M216.53,-258.07C237.67,-241.69 271.14,-218.17 304,-205.14 479.87,-135.4 541,-138.35 728,-167.14 753.28,-171.03 780.38,-178.95 803.26,-186.79"/>
<polygon fill="#de958e" stroke="#de958e" points="802.19,-190.13 812.79,-190.14 804.51,-183.52 802.19,-190.13"/>
</g>
<!-- tensorflow&#45;&gt;flatiron\.tf\.tools -->
<g id="edge63" class="edge">
<title>tensorflow&#45;&gt;flatiron\.tf\.tools</title>
<path fill="none" stroke="#de958e" d="M243.02,-288.43C356,-317.03 637.59,-388.33 777.07,-423.65"/>
<polygon fill="#de958e" stroke="#de958e" points="776.31,-427.07 786.87,-426.13 778.03,-420.28 776.31,-427.07"/>
</g>
<!-- yaml -->
<g id="node31" class="node">
<title>yaml</title>
<polygon fill="#343434" stroke="#343434" points="417.5,-879.14 363.5,-879.14 363.5,-843.14 417.5,-843.14 417.5,-879.14"/>
<text text-anchor="middle" x="390.5" y="-857.44" font-family="Courier,monospace" font-size="14.00" fill="#de958e">yaml</text>
</g>
<!-- yaml&#45;&gt;flatiron\.core\.pipeline -->
<g id="edge64" class="edge">
<title>yaml&#45;&gt;flatiron\.core\.pipeline</title>
<path fill="none" stroke="#de958e" d="M417.69,-862.67C474.33,-866.02 612.41,-874.39 728,-883.14 812.51,-889.54 908.09,-897.82 979.51,-904.22"/>
<polygon fill="#de958e" stroke="#de958e" points="979.6,-907.74 989.87,-905.14 980.23,-900.76 979.6,-907.74"/>
</g>
<!-- yaml&#45;&gt;flatiron\.core\.tools -->
<g id="edge65" class="edge">
<title>yaml&#45;&gt;flatiron\.core\.tools</title>
<path fill="none" stroke="#de958e" d="M417.86,-858.03C436.14,-854.72 460.13,-847.94 477,-834.14 502.56,-813.24 490.55,-793.36 513,-769.14 530.43,-750.34 553.89,-734.22 574.36,-722.21"/>
<polygon fill="#de958e" stroke="#de958e" points="576.28,-725.15 583.22,-717.15 572.8,-719.07 576.28,-725.15"/>
</g>
<!-- lunchbox\.stopwatch -->
<g id="node32" class="node">
<title>lunchbox\.stopwatch</title>
<polygon fill="#343434" stroke="#343434" points="473,-679.14 308,-679.14 308,-643.14 473,-643.14 473,-679.14"/>
<text text-anchor="middle" x="390.5" y="-657.44" font-family="Courier,monospace" font-size="14.00" fill="#de958e">lunchbox.stopwatch</text>
</g>
<!-- lunchbox\.stopwatch&#45;&gt;flatiron\.core\.tools -->
<g id="edge66" class="edge">
<title>lunchbox\.stopwatch&#45;&gt;flatiron\.core\.tools</title>
<path fill="none" stroke="#de958e" d="M473.17,-674.75C489.46,-677.47 506.72,-680.35 523.45,-683.13"/>
<polygon fill="#de958e" stroke="#de958e" points="523.34,-686.67 533.78,-684.86 524.49,-679.76 523.34,-686.67"/>
</g>
<!-- numpy -->
<g id="node33" class="node">
<title>numpy</title>
<polygon fill="#343434" stroke="#343434" points="222.5,-579.14 164.5,-579.14 164.5,-543.14 222.5,-543.14 222.5,-579.14"/>
<text text-anchor="middle" x="193.5" y="-557.44" font-family="Courier,monospace" font-size="14.00" fill="#de958e">numpy</text>
</g>
<!-- numpy&#45;&gt;flatiron\.core\.dataset -->
<g id="edge67" class="edge">
<title>numpy&#45;&gt;flatiron\.core\.dataset</title>
<path fill="none" stroke="#de958e" d="M194.18,-579.53C194.31,-636.43 203.25,-810.46 304,-888.14 378.78,-945.8 636.06,-894.63 728,-916.14 757.86,-923.13 789.68,-936.24 814.36,-947.79"/>
<polygon fill="#de958e" stroke="#de958e" points="812.92,-950.98 823.45,-952.13 815.93,-944.66 812.92,-950.98"/>
</g>
<!-- numpy&#45;&gt;flatiron\.core\.types -->
<g id="edge68" class="edge">
<title>numpy&#45;&gt;flatiron\.core\.types</title>
<path fill="none" stroke="#de958e" d="M222.85,-567.83C244.11,-572.85 274.41,-579.99 303.35,-586.82"/>
<polygon fill="#de958e" stroke="#de958e" points="302.56,-590.23 313.1,-589.12 304.17,-583.42 302.56,-590.23"/>
</g>
<!-- numpy&#45;&gt;flatiron\.tf\.loss -->
<g id="edge69" class="edge">
<title>numpy&#45;&gt;flatiron\.tf\.loss</title>
<path fill="none" stroke="#de958e" d="M222.59,-561.63C302.02,-562.82 534.99,-564.96 728,-553.14 742.96,-552.23 758.85,-550.85 774.2,-549.32"/>
<polygon fill="#de958e" stroke="#de958e" points="774.61,-552.79 784.2,-548.29 773.89,-545.83 774.61,-552.79"/>
</g>
<!-- numpy&#45;&gt;flatiron\.tf\.metric -->
<g id="edge70" class="edge">
<title>numpy&#45;&gt;flatiron\.tf\.metric</title>
<path fill="none" stroke="#de958e" d="M218.51,-542.93C239.92,-527.47 272.64,-505.68 304,-492.14 386.97,-456.33 631.85,-399.19 766.58,-369.13"/>
<polygon fill="#de958e" stroke="#de958e" points="767.48,-372.51 776.48,-366.92 765.96,-365.68 767.48,-372.51"/>
</g>
<!-- numpy&#45;&gt;flatiron\.tf\.tools -->
<g id="edge71" class="edge">
<title>numpy&#45;&gt;flatiron\.tf\.tools</title>
<path fill="none" stroke="#de958e" d="M222.87,-553.8C278.3,-539.66 405,-508.35 513,-489.14 600.01,-473.67 700.25,-461.18 770.18,-453.33"/>
<polygon fill="#de958e" stroke="#de958e" points="770.72,-456.79 780.27,-452.2 769.94,-449.83 770.72,-456.79"/>
</g>
</g>
</svg>
